<svg width="119" height="32" viewBox="0 0 119 32" fill="none" xmlns="http://www.w3.org/2000/svg">
<path d="M56.1977 25.7587C56.1967 25.5373 56.1579 25.3176 56.0829 25.1092V25.1008L50.6565 9.84226C50.1167 8.30704 49.3305 7.62378 48.1082 7.62378C46.9071 7.62378 46.1302 8.30703 45.5912 9.84056L40.0711 25.1084C39.9954 25.3163 39.9563 25.5358 39.9556 25.757C39.9555 25.9628 39.997 26.1664 40.0775 26.3557C40.1581 26.545 40.276 26.7161 40.4242 26.8587C40.5725 27.0014 40.748 27.1126 40.9402 27.1858C41.1325 27.259 41.3375 27.2926 41.5431 27.2847C41.8976 27.2877 42.243 27.1725 42.5247 26.9573C42.8064 26.742 43.0083 26.439 43.0985 26.0961L44.0264 23.2374H52.0922L53.0564 26.0936C53.1462 26.4369 53.348 26.7404 53.6297 26.9561C53.9114 27.1718 54.257 27.2874 54.6118 27.2847C54.8171 27.2925 55.0219 27.2588 55.2139 27.1857C55.4059 27.1125 55.5812 27.0014 55.7292 26.8589C55.8773 26.7165 55.9951 26.5456 56.0756 26.3566C56.1561 26.1675 56.1976 25.9642 56.1977 25.7587ZM44.9273 20.5736L47.6544 12.3576H48.5266L51.22 20.5736H44.9273Z" fill="#999999"/>
<path d="M75.3888 25.1092V25.1008L69.9607 9.84226C69.4209 8.30704 68.6347 7.62378 67.4124 7.62378C66.2104 7.62378 65.4344 8.30703 64.8945 9.84056L59.3745 25.1084C59.2991 25.3167 59.2603 25.5364 59.2598 25.7579C59.2596 25.9636 59.301 26.1673 59.3815 26.3567C59.462 26.546 59.5799 26.7172 59.7281 26.8598C59.8764 27.0025 60.052 27.1137 60.2443 27.1869C60.4366 27.26 60.6417 27.2936 60.8473 27.2855C61.2017 27.2883 61.547 27.1729 61.8286 26.9577C62.1103 26.7425 62.3123 26.4397 62.4027 26.097L63.3306 23.2383H71.3947L72.358 26.0953C72.4482 26.4385 72.6502 26.7418 72.932 26.9573C73.2139 27.1729 73.5595 27.2884 73.9143 27.2855C74.1199 27.2935 74.3249 27.2598 74.5172 27.1866C74.7095 27.1134 74.885 27.0022 75.0332 26.8596C75.1814 26.7169 75.2993 26.5458 75.3799 26.3565C75.4604 26.1672 75.5019 25.9636 75.5018 25.7579C75.5017 25.5368 75.4635 25.3173 75.3888 25.1092ZM64.234 20.5736L66.9611 12.3576H67.8333L70.5259 20.5736H64.234Z" fill="#999999"/>
<path d="M86.6281 7.8034H80.1523C79.9643 7.78535 79.7746 7.80962 79.5972 7.87444C79.4198 7.93926 79.2591 8.04299 79.127 8.17801C78.9949 8.31302 78.8947 8.4759 78.8338 8.65469C78.7728 8.83348 78.7527 9.02365 78.7748 9.21124V25.4913C78.7569 25.7205 78.7866 25.951 78.8621 26.1682C78.9375 26.3854 79.057 26.5847 79.2132 26.7535C79.3693 26.9223 79.5587 27.057 79.7694 27.1491C79.98 27.2412 80.2075 27.2888 80.4374 27.2888C80.6674 27.2888 80.8948 27.2412 81.1055 27.1491C81.3162 27.057 81.5055 26.9223 81.6617 26.7535C81.8178 26.5847 81.9373 26.3854 82.0128 26.1682C82.0882 25.951 82.1179 25.7205 82.1 25.4913V20.0632C82.0967 19.9677 82.1131 19.8725 82.1481 19.7836C82.1832 19.6946 82.2361 19.6138 82.3036 19.5462C82.3712 19.4786 82.4519 19.4256 82.5408 19.3904C82.6297 19.3553 82.7249 19.3388 82.8204 19.342H86.1464L89.7145 26.1965C89.856 26.5233 90.0909 26.8011 90.3897 26.995C90.6885 27.1889 91.0378 27.2902 91.394 27.2863C91.6016 27.2982 91.8094 27.266 92.0037 27.192C92.1981 27.1179 92.3746 27.0036 92.5217 26.8566C92.6688 26.7096 92.7832 26.5332 92.8573 26.3389C92.9315 26.1446 92.9637 25.9368 92.952 25.7292C92.956 25.3901 92.8751 25.0555 92.7166 24.7557L89.48 18.8713L89.9861 18.6182C90.926 18.1624 91.7145 17.4453 92.2572 16.5527C92.7998 15.6601 93.0736 14.63 93.0456 13.5858C93.0422 10.1282 90.4644 7.8034 86.6281 7.8034ZM86.418 16.6764H82.8204C82.7249 16.6797 82.6297 16.6634 82.5409 16.6283C82.452 16.5933 82.3712 16.5403 82.3037 16.4728C82.2361 16.4052 82.1832 16.3245 82.1481 16.2356C82.1131 16.1467 82.0967 16.0516 82.1 15.9561V11.2492C82.0967 11.1537 82.1131 11.0586 82.1481 10.9697C82.1832 10.8808 82.2361 10.8 82.3037 10.7325C82.3712 10.6649 82.452 10.612 82.5409 10.5769C82.6297 10.5419 82.7249 10.5255 82.8204 10.5288H86.418C86.8399 10.4992 87.2633 10.5566 87.6619 10.6977C88.0606 10.8387 88.4259 11.0603 88.7353 11.3486C89.0446 11.637 89.2912 11.9859 89.4599 12.3737C89.6286 12.7614 89.7156 13.1798 89.7156 13.6026C89.7156 14.0255 89.6286 14.4438 89.4599 14.8316C89.2912 15.2194 89.0446 15.5683 88.7353 15.8566C88.4259 16.145 88.0606 16.3666 87.6619 16.5076C87.2633 16.6486 86.8399 16.7061 86.418 16.6764Z" fill="#999999"/>
<path d="M111.388 25.7267C111.376 25.345 111.267 24.9727 111.07 24.6453L105.726 15.4129L110.354 10.0886C110.604 9.79361 110.739 9.41823 110.733 9.03167C110.736 8.84358 110.7 8.65698 110.628 8.48314C110.556 8.30931 110.45 8.15184 110.315 8.02026C110.181 7.88867 110.021 7.7857 109.846 7.71756C109.671 7.64943 109.483 7.61754 109.295 7.62382C109.023 7.64427 108.759 7.72321 108.52 7.85525C108.281 7.9873 108.074 8.16933 107.912 8.38891L100.21 17.7664V9.42054C100.228 9.1913 100.199 8.96083 100.123 8.74362C100.048 8.5264 99.9283 8.32713 99.7721 8.15833C99.616 7.98953 99.4267 7.85484 99.216 7.76272C99.0053 7.67061 98.7778 7.62306 98.5479 7.62306C98.318 7.62306 98.0905 7.67061 97.8798 7.76272C97.6691 7.85484 97.4798 7.98953 97.3237 8.15833C97.1675 8.32713 97.048 8.5264 96.9725 8.74362C96.8971 8.96083 96.8674 9.1913 96.8853 9.42054V25.4889C96.8674 25.7181 96.8971 25.9486 96.9725 26.1658C97.048 26.383 97.1675 26.5823 97.3237 26.7511C97.4798 26.9199 97.6691 27.0545 97.8798 27.1467C98.0905 27.2388 98.318 27.2863 98.5479 27.2863C98.7778 27.2863 99.0053 27.2388 99.216 27.1467C99.4267 27.0545 99.616 26.9199 99.7721 26.7511C99.9283 26.5823 100.048 26.383 100.123 26.1658C100.199 25.9486 100.228 25.7181 100.21 25.4889V22.0304L103.53 17.8634L108.208 26.27C108.359 26.5729 108.591 26.828 108.878 27.0068C109.165 27.1855 109.497 27.2809 109.835 27.2822C110.04 27.2863 110.244 27.2489 110.435 27.1722C110.625 27.0954 110.798 26.981 110.943 26.8357C111.088 26.6904 111.203 26.5172 111.279 26.3266C111.355 26.1361 111.393 25.932 111.388 25.7267Z" fill="#999999"/>
<path d="M116.846 7.62376C116.613 7.61578 116.381 7.65778 116.166 7.74691C115.951 7.83604 115.757 7.97026 115.598 8.1405C115.439 8.31074 115.318 8.51306 115.244 8.73385C115.17 8.95464 115.144 9.18877 115.168 9.42047V25.4888C115.15 25.718 115.18 25.9485 115.255 26.1657C115.33 26.3829 115.45 26.5822 115.606 26.751C115.762 26.9198 115.952 27.0545 116.162 27.1466C116.373 27.2387 116.6 27.2863 116.83 27.2863C117.06 27.2863 117.288 27.2387 117.498 27.1466C117.709 27.0545 117.898 26.9198 118.055 26.751C118.211 26.5822 118.33 26.3829 118.406 26.1657C118.481 25.9485 118.511 25.718 118.493 25.4888V9.42047C118.516 9.19151 118.49 8.96031 118.417 8.742C118.345 8.52369 118.227 8.32318 118.071 8.15359C117.916 7.98399 117.726 7.84913 117.515 7.75783C117.304 7.66653 117.076 7.62084 116.846 7.62376Z" fill="#999999"/>
<path d="M32.9561 26.7963H6.98399L17.7921 7.62211L26.2661 22.7119C26.6318 23.2971 27.2149 23.713 27.8873 23.8682C28.5596 24.0233 29.266 23.9051 29.8511 23.5394C30.4363 23.1738 30.8522 22.5906 31.0074 21.9183C31.1625 21.246 31.0443 20.5396 30.6786 19.9545L20.1017 1.22312C19.8349 0.837341 19.4767 0.523733 19.059 0.310387C18.6413 0.0970413 18.1772 -0.00938141 17.7083 0.000648683C17.2394 0.0106788 16.7803 0.136849 16.3722 0.36786C15.964 0.598872 15.6195 0.92751 15.3695 1.32435L0.338695 27.9907C0.103042 28.4048 -0.0137181 28.8759 0.00128335 29.3522C0.00128335 29.3674 0.00128335 29.3825 0.00128335 29.3986C0.00128335 29.7402 0.0685722 30.0785 0.199306 30.3941C0.330041 30.7097 0.52166 30.9965 0.763225 31.2381C1.00479 31.4796 1.29157 31.6712 1.60719 31.802C1.92281 31.9327 2.26109 32 2.60272 32H32.9545C33.6364 31.9877 34.2863 31.7082 34.7642 31.2216C35.2421 30.735 35.5099 30.0802 35.5099 29.3981C35.5099 28.7161 35.2421 28.0613 34.7642 27.5747C34.2863 27.0881 33.6364 26.8086 32.9545 26.7963H32.9561Z" fill="#999999"/>
</svg>
