<svg width="128" height="32" viewBox="0 0 128 32" fill="none" xmlns="http://www.w3.org/2000/svg">
<path d="M62 4.8V18.4C62 27 55.4 29.8 52.4 30.6C51.6 30.8 50.4 30.4 50 29.2C49.8 28.2 50.4 27.2 51.4 26.8C54.4 26 58 23.8 58 18.4V4.8C58 3.8 58.8 2.8 60 2.8C61 2.8 62 3.6 62 4.8ZM28.6 21.4C29.4 23 27.8 25.2 25.8 24C25.8 24 18.2 19 12.6 16.8L9.20001 23.2C9.00001 23.8 7.60001 24.8 6.40001 24C-2.99999 18.6 -1.19999 8 10.6 11.6L15.4 2.4C16.4 0.8 18.4 1.2 19 2.4L28.6 21.4ZM8.80001 15.4C1.20001 13.2 5.20001 18.4 6.80001 19.4L8.80001 15.4ZM21.8 16.8L17 7.8L14.4 13.2C16.2 13.8 20.2 16 21.8 16.8ZM51.8 13.4C51.8 19.4 47 24.2 41 24.2H34.6C33.4 24.2 32.6 23.2 32.6 22.2V4.8C32.6 3.6 33.6 2.8 34.6 2.8H41C47 2.8 51.8 7.6 51.8 13.4ZM47.8 13.4C47.8 9.8 44.8 6.8 41.2 6.8H36.8V20.2H41.2C44.8 20.2 47.8 17.2 47.8 13.4ZM83 4.8V14.8C83 18 80.8 20.2 77.6 20.2C74.4 20.2 72.2 18 72.2 14.8V4.8C72.2 2.2 68.2 2.2 68.2 4.8V14.8C68.2 20.2 72.2 24.2 77.6 24.2C83 24.2 87 20.2 87 14.8V4.8C87 2.2 83 2.2 83 4.8ZM125.8 2.8H111C108.4 2.8 108.4 6.8 111 6.8H116.4V22.2C116.4 24.8 120.4 24.8 120.4 22.2V6.8H125.8C128.6 6.8 128.6 2.8 125.8 2.8ZM95 8C95.2 6.2 98.8 5.2 101.8 7.8C103.8 9.4 106.4 7 104.6 4.8C101.2 1 91 1.2 91 8.4C91 16 102.8 14.4 101.6 18.8C101 20.8 96.4 21.6 94.2 18.6C92.4 16 89.2 18.6 90.8 20.8C95.4 27.4 105.8 24.6 105.8 18.2C105.8 10.8 94.8 12.2 95 8Z" fill="black"/>
</svg>
