<svg width="107" height="27" viewBox="0 0 107 27" fill="none" xmlns="http://www.w3.org/2000/svg">
<g clip-path="url(#clip0_6081_12018)">
<path d="M51.6658 4.00003V15.3334C51.6658 22.5 46.1658 24.8334 43.6658 25.5C42.9992 25.6667 41.9992 25.3334 41.6658 24.3334C41.4992 23.5 41.9992 22.6667 42.8325 22.3334C45.3325 21.6667 48.3325 19.8334 48.3325 15.3334V4.00003C48.3325 3.16669 48.9992 2.33336 49.9992 2.33336C50.8325 2.33336 51.6658 3.00003 51.6658 4.00003ZM23.8325 17.8334C24.4992 19.1667 23.1658 21 21.4992 20C21.4992 20 15.1658 15.8334 10.4992 14L7.66584 19.3334C7.49917 19.8334 6.33251 20.6667 5.33251 20C-2.50083 15.5 -1.00083 6.66669 8.83251 9.66669L12.8325 2.00003C13.6658 0.666692 15.3325 1.00003 15.8325 2.00003L23.8325 17.8334ZM7.33251 12.8334C0.999175 11 4.33251 15.3334 5.66584 16.1667L7.33251 12.8334ZM18.1658 14L14.1658 6.50003L11.9992 11C13.4992 11.5 16.8325 13.3334 18.1658 14ZM43.1658 11.1667C43.1658 16.1667 39.1658 20.1667 34.1658 20.1667H28.8325C27.8325 20.1667 27.1658 19.3334 27.1658 18.5V4.00003C27.1658 3.00003 27.9992 2.33336 28.8325 2.33336H34.1658C39.1658 2.33336 43.1658 6.33336 43.1658 11.1667ZM39.8325 11.1667C39.8325 8.16669 37.3325 5.66669 34.3325 5.66669H30.6658V16.8334H34.3325C37.3325 16.8334 39.8325 14.3334 39.8325 11.1667ZM69.1658 4.00003V12.3334C69.1658 15 67.3325 16.8334 64.6658 16.8334C61.9992 16.8334 60.1658 15 60.1658 12.3334V4.00003C60.1658 1.83336 56.8325 1.83336 56.8325 4.00003V12.3334C56.8325 16.8334 60.1658 20.1667 64.6658 20.1667C69.1658 20.1667 72.4992 16.8334 72.4992 12.3334V4.00003C72.4992 1.83336 69.1658 1.83336 69.1658 4.00003ZM104.833 2.33336H92.4992C90.3325 2.33336 90.3325 5.66669 92.4992 5.66669H96.9992V18.5C96.9992 20.6667 100.333 20.6667 100.333 18.5V5.66669H104.833C107.166 5.66669 107.166 2.33336 104.833 2.33336ZM79.1658 6.66669C79.3325 5.16669 82.3325 4.33336 84.8325 6.50003C86.4992 7.83336 88.6658 5.83336 87.1658 4.00003C84.3325 0.833359 75.8325 1.00003 75.8325 7.00003C75.8325 13.3334 85.6658 12 84.6658 15.6667C84.1658 17.3334 80.3325 18 78.4992 15.5C76.9992 13.3334 74.3325 15.5 75.6658 17.3334C79.4992 22.8334 88.1658 20.5 88.1658 15.1667C88.1658 9.00003 78.9992 10.1667 79.1658 6.66669Z" fill="black"/>
</g>
<defs>
<clipPath id="clip0_6081_12018">
<rect width="106.667" height="26.6667" fill="white" transform="translate(-0.000976562)"/>
</clipPath>
</defs>
</svg>
