<svg width="28" height="28" viewBox="0 0 28 28" fill="none" xmlns="http://www.w3.org/2000/svg">
<g clip-path="url(#clip0_3159_11526)">
<path d="M14 28C21.732 28 28 21.732 28 14C28 6.26801 21.732 0 14 0C6.26801 0 0 6.26801 0 14C0 21.732 6.26801 28 14 28Z" fill="#005FF7"/>
<path d="M8.18904 21.1122C7.9269 21.1106 7.67088 21.0328 7.4522 20.8882C7.10146 20.6554 4.0023 18.5421 3.54251 15.9838C3.3621 15.0332 3.58878 14.0506 4.16735 13.2752C5.28883 11.7396 7.40946 11.4684 10.6088 12.469L14.0572 6.08357C14.2976 5.63977 14.7654 5.3671 15.27 5.37671C15.7746 5.38633 16.2317 5.67662 16.4549 6.12926L22.8728 19.1669C23.1433 19.7171 23.0091 20.3804 22.5461 20.7821C22.0831 21.1839 21.4075 21.2232 20.901 20.8779C18.6303 19.36 16.2717 17.9777 13.8377 16.7383C13.1185 16.3787 12.4598 16.0752 11.8585 15.8173L9.37683 20.4048C9.19709 20.7386 8.88529 20.9814 8.51767 21.0739C8.41018 21.1005 8.29976 21.1133 8.18904 21.1122ZM7.34462 14.5705C6.77283 14.5705 6.46041 14.7032 6.33809 14.8653C6.19481 15.0446 6.14061 15.2793 6.19072 15.5034C6.31599 16.2048 7.04251 17.0448 7.76756 17.7139L9.29135 14.8977C8.65942 14.7045 8.00499 14.5945 7.34462 14.5705ZM13.148 13.4358C13.7561 13.701 14.3947 14.0002 15.0638 14.3333C16.228 14.9154 17.3568 15.5358 18.3648 16.1208L15.1876 9.6661L13.148 13.4358Z" fill="white"/>
</g>
<defs>
<clipPath id="clip0_3159_11526">
<rect width="28" height="28" fill="white"/>
</clipPath>
</defs>
</svg>
