<svg width="243" height="507" viewBox="0 0 243 507" fill="none" xmlns="http://www.w3.org/2000/svg">
<path d="M188.867 160.575H190.234L193.532 168.222H191.601L190.958 166.612H187.982L187.338 168.222H185.488L188.867 160.575ZM189.51 162.749L188.545 165.163H190.395L189.51 162.749Z" fill="white"/>
<path d="M199.645 168.222H198.197V167.498C198.036 167.739 197.795 167.9 197.553 168.061C197.392 168.141 197.232 168.222 197.071 168.222C196.91 168.302 196.749 168.302 196.508 168.302C196.105 168.302 195.784 168.222 195.462 168.141C195.14 167.98 194.899 167.819 194.658 167.578C194.416 167.337 194.255 167.015 194.094 166.693C193.934 166.371 193.934 165.968 193.934 165.646C193.934 165.324 194.014 164.922 194.094 164.6C194.175 164.278 194.336 163.956 194.577 163.715C194.818 163.473 195.06 163.232 195.301 163.071C195.623 162.91 195.945 162.829 196.266 162.829C196.588 162.829 196.91 162.91 197.231 162.99C197.553 163.071 197.795 163.312 197.955 163.554V160.093H199.564V168.222H199.645ZM198.197 165.566C198.197 165.244 198.116 164.841 197.875 164.6C197.634 164.358 197.312 164.197 196.91 164.197C196.588 164.197 196.186 164.278 195.945 164.6C195.462 165.163 195.462 165.968 195.945 166.532C196.186 166.773 196.508 166.934 196.91 166.934C197.232 166.934 197.634 166.854 197.875 166.532C198.036 166.29 198.197 165.888 198.197 165.566Z" fill="white"/>
<path d="M186.213 172.166H189.189C189.591 172.166 189.913 172.166 190.315 172.247C190.637 172.327 190.959 172.407 191.2 172.649C191.441 172.81 191.683 173.051 191.843 173.373C192.004 173.695 192.085 174.098 192.085 174.5C192.085 174.983 191.924 175.466 191.683 175.869C191.361 176.271 190.959 176.512 190.476 176.593L192.407 179.812H190.396L188.787 176.754H187.983V179.812H186.293L186.213 172.166ZM187.902 175.305H188.867C189.028 175.305 189.189 175.305 189.35 175.305C189.511 175.305 189.672 175.305 189.833 175.225C189.993 175.144 190.074 175.064 190.154 174.983C190.315 174.661 190.315 174.339 190.154 174.017C190.074 173.937 189.993 173.776 189.833 173.776C189.672 173.695 189.591 173.695 189.43 173.615C189.269 173.615 189.109 173.615 188.948 173.615H187.822L187.902 175.305Z" fill="white"/>
<path d="M197.957 178.927C197.715 179.249 197.394 179.49 196.991 179.732C196.589 179.893 196.187 179.973 195.785 179.973C195.383 179.973 194.98 179.893 194.659 179.812C194.337 179.651 194.015 179.49 193.693 179.249C193.452 179.007 193.211 178.685 193.05 178.363C192.728 177.639 192.728 176.834 193.05 176.11C193.211 175.788 193.372 175.466 193.693 175.224C193.935 174.983 194.256 174.822 194.659 174.661C195.061 174.5 195.383 174.5 195.785 174.5C196.107 174.5 196.509 174.58 196.83 174.661C197.152 174.741 197.394 174.983 197.635 175.224C197.876 175.466 198.037 175.788 198.117 176.11C198.198 176.512 198.278 176.834 198.278 177.237V177.72H194.498C194.578 178.042 194.659 178.283 194.9 178.444C195.141 178.605 195.383 178.766 195.704 178.685C195.946 178.685 196.187 178.605 196.348 178.524C196.509 178.363 196.67 178.283 196.83 178.042L197.957 178.927ZM196.589 176.593C196.589 176.351 196.509 176.11 196.348 175.868C196.187 175.707 195.865 175.546 195.624 175.546C195.463 175.546 195.302 175.546 195.141 175.627C194.98 175.707 194.9 175.788 194.82 175.868C194.739 175.949 194.659 176.029 194.578 176.19C194.498 176.271 194.498 176.432 194.498 176.593H196.589Z" fill="white"/>
<path d="M204.713 182.307H203.104V179.249C202.943 179.49 202.702 179.651 202.38 179.812C202.058 179.893 201.736 179.973 201.415 179.973C201.093 179.973 200.691 179.893 200.449 179.732C200.128 179.571 199.886 179.329 199.726 179.088C199.484 178.846 199.323 178.524 199.243 178.203C199.162 177.881 199.082 177.478 199.082 177.156C199.082 176.754 199.162 176.432 199.243 176.029C199.323 175.707 199.565 175.385 199.806 175.144C200.047 174.902 200.289 174.741 200.61 174.58C200.932 174.42 201.334 174.339 201.656 174.42C201.817 174.42 201.978 174.42 202.219 174.5C202.38 174.58 202.541 174.58 202.702 174.661C202.863 174.741 202.943 174.822 203.104 174.902C203.184 174.983 203.265 175.063 203.345 175.144V174.42H204.793V182.307H204.713ZM203.184 177.156C203.184 176.834 203.104 176.432 202.863 176.19C202.621 175.949 202.3 175.788 201.897 175.788C201.576 175.788 201.173 175.868 200.932 176.19C200.449 176.754 200.449 177.559 200.932 178.122C201.173 178.363 201.495 178.524 201.897 178.524C202.219 178.524 202.621 178.444 202.863 178.122C203.104 177.881 203.184 177.559 203.184 177.156Z" fill="white"/>
<path d="M210.987 179.812H209.458V179.088C209.378 179.168 209.298 179.329 209.217 179.41C209.137 179.49 208.976 179.571 208.895 179.651C208.734 179.732 208.574 179.812 208.493 179.812C208.332 179.893 208.171 179.893 207.93 179.893C207.608 179.893 207.206 179.812 206.965 179.732C206.724 179.651 206.482 179.41 206.402 179.168C206.241 178.927 206.16 178.685 206.16 178.363C206.08 178.041 206.08 177.72 206.08 177.398V174.5H207.689V177.076C207.689 177.237 207.689 177.398 207.689 177.559C207.689 177.72 207.689 177.881 207.769 177.961C207.85 178.122 207.93 178.202 208.011 178.283C208.171 178.363 208.332 178.444 208.493 178.444C208.654 178.444 208.815 178.444 208.976 178.363C209.137 178.283 209.217 178.202 209.298 178.041C209.378 177.881 209.378 177.8 209.458 177.639C209.458 177.478 209.458 177.317 209.458 177.156V174.58H211.067L210.987 179.812Z" fill="white"/>
<path d="M217.101 178.927C216.859 179.249 216.538 179.49 216.136 179.732C215.733 179.893 215.331 179.973 214.929 179.973C214.527 179.973 214.125 179.893 213.803 179.812C213.079 179.571 212.516 179.088 212.275 178.363C211.953 177.639 211.953 176.834 212.275 176.11C212.596 175.466 213.159 174.902 213.803 174.661C214.205 174.5 214.527 174.5 214.929 174.5C215.251 174.5 215.653 174.58 215.975 174.661C216.296 174.741 216.538 174.983 216.779 175.224C217.02 175.466 217.181 175.788 217.262 176.11C217.423 176.512 217.423 176.834 217.423 177.237V177.72H213.642C213.722 178.042 213.883 178.283 214.044 178.444C214.285 178.605 214.527 178.766 214.849 178.685C215.09 178.685 215.331 178.605 215.492 178.524C215.653 178.363 215.814 178.283 215.975 178.042L217.101 178.927ZM215.733 176.593C215.733 176.351 215.653 176.11 215.492 175.868C215.331 175.707 215.009 175.546 214.768 175.546C214.607 175.546 214.446 175.546 214.285 175.627C214.125 175.707 214.044 175.788 213.964 175.868C213.883 175.949 213.803 176.029 213.722 176.19C213.642 176.271 213.642 176.432 213.642 176.593H215.733Z" fill="white"/>
<path d="M221.363 176.11C221.122 175.788 220.8 175.627 220.398 175.707C220.237 175.707 220.157 175.707 219.996 175.788C219.835 175.868 219.754 175.949 219.835 176.11C219.835 176.271 219.915 176.351 219.996 176.351C220.157 176.432 220.317 176.512 220.478 176.512L221.122 176.673C221.363 176.754 221.604 176.834 221.765 176.915C222.248 177.156 222.489 177.639 222.489 178.203C222.489 178.524 222.409 178.766 222.248 179.007C222.087 179.249 221.926 179.41 221.685 179.571C221.444 179.732 221.202 179.812 220.88 179.812C220.639 179.893 220.317 179.893 219.996 179.893C219.593 179.893 219.272 179.812 218.87 179.732C218.548 179.651 218.146 179.41 217.904 179.168L218.87 178.122C219.03 178.283 219.191 178.444 219.352 178.525C219.513 178.605 219.754 178.685 219.996 178.685C220.157 178.685 220.317 178.685 220.478 178.605C220.639 178.605 220.72 178.444 220.72 178.283C220.72 178.122 220.639 178.042 220.559 177.961C220.398 177.881 220.237 177.8 220.076 177.8L219.433 177.639C219.191 177.559 218.95 177.478 218.789 177.398C218.306 177.156 218.065 176.673 218.065 176.11C218.065 175.868 218.146 175.546 218.226 175.305C218.387 175.064 218.548 174.903 218.709 174.742C218.95 174.581 219.191 174.5 219.433 174.42C219.674 174.339 219.996 174.339 220.237 174.339C220.559 174.339 220.961 174.42 221.283 174.5C221.604 174.581 221.926 174.742 222.167 175.064L221.363 176.11Z" fill="white"/>
<path d="M226.913 175.868H225.465V177.639C225.465 177.8 225.465 177.881 225.465 178.042C225.465 178.122 225.545 178.283 225.545 178.364C225.626 178.444 225.706 178.525 225.787 178.525C225.948 178.605 226.028 178.605 226.189 178.605H226.511C226.591 178.605 226.752 178.525 226.832 178.444V179.812C226.672 179.893 226.43 179.893 226.269 179.973C226.108 179.973 225.867 179.973 225.706 179.973C225.465 179.973 225.224 179.973 224.982 179.893C224.741 179.812 224.58 179.732 224.339 179.651C224.178 179.49 224.017 179.329 223.937 179.168C223.856 178.927 223.776 178.686 223.776 178.444V175.949H222.811V174.661H223.856V173.051H225.465V174.581H226.913V175.868Z" fill="white"/>
<path d="M230.694 176.11C230.452 175.788 230.13 175.627 229.728 175.707C229.567 175.707 229.487 175.707 229.326 175.788C229.165 175.868 229.085 175.949 229.165 176.11C229.165 176.271 229.246 176.351 229.326 176.351C229.487 176.432 229.648 176.512 229.809 176.512L230.452 176.673C230.694 176.754 230.935 176.834 231.096 176.915C231.337 176.995 231.498 177.156 231.578 177.398C231.739 177.639 231.82 177.961 231.739 178.203C231.739 178.524 231.659 178.766 231.498 179.007C231.337 179.249 231.176 179.41 230.935 179.571C230.694 179.732 230.452 179.812 230.13 179.812C229.889 179.893 229.567 179.893 229.246 179.893C228.843 179.893 228.522 179.812 228.12 179.732C227.798 179.651 227.396 179.41 227.154 179.168L228.12 178.122C228.28 178.283 228.441 178.444 228.602 178.525C228.763 178.605 229.004 178.685 229.246 178.685C229.407 178.685 229.567 178.685 229.728 178.605C229.889 178.605 229.97 178.444 229.97 178.283C229.97 178.122 229.889 178.042 229.809 177.961C229.648 177.881 229.487 177.8 229.326 177.8L228.683 177.639C228.441 177.559 228.2 177.478 228.039 177.398C227.798 177.317 227.637 177.156 227.556 176.915C227.396 176.673 227.315 176.432 227.396 176.11C227.396 175.868 227.476 175.546 227.556 175.305C227.637 175.064 227.878 174.903 228.039 174.742C228.28 174.581 228.522 174.5 228.763 174.42C229.004 174.339 229.326 174.339 229.567 174.339C229.889 174.339 230.291 174.42 230.613 174.5C230.935 174.581 231.257 174.742 231.498 175.064L230.694 176.11Z" fill="white"/>
<path d="M13.2715 160.173H15.1215L16.3281 165.083L17.9368 160.173H19.5456L21.1543 165.163L22.4413 160.173H24.05L21.7978 167.82H20.2695L18.5803 162.507L16.8911 167.82H15.4433L13.2715 160.173Z" fill="white"/>
<path d="M24.5332 160.898C24.5332 160.656 24.6136 160.415 24.7745 160.254C24.9354 160.093 25.1767 159.932 25.418 159.932C25.9006 159.932 26.3833 160.334 26.3833 160.898C26.3833 161.139 26.3028 161.38 26.1419 161.541C25.9811 161.702 25.7398 161.783 25.4984 161.783C25.2571 161.783 25.0158 161.702 24.855 161.541C24.6136 161.461 24.5332 161.219 24.5332 160.898ZM24.6941 162.588H26.3028V167.82H24.6941V162.588Z" fill="white"/>
<path d="M27.4277 162.588H28.956V163.312C29.0365 163.232 29.1169 163.071 29.1973 162.99C29.2778 162.91 29.4387 162.829 29.5191 162.749C29.68 162.668 29.8408 162.588 29.9213 162.588C30.0822 162.507 30.243 162.507 30.4843 162.507C30.8061 162.507 31.1278 162.588 31.4496 162.668C31.6909 162.749 31.9322 162.99 32.0126 163.151C32.1735 163.393 32.2539 163.634 32.3344 163.956C32.4148 164.278 32.4148 164.6 32.4148 164.922V167.82H30.8061V165.244C30.8061 165.083 30.8061 164.922 30.8061 164.761C30.8061 164.6 30.8061 164.439 30.7256 164.359C30.6452 164.198 30.5648 164.117 30.4843 164.037C30.3235 163.956 30.1626 163.876 30.0017 163.876C29.8408 163.876 29.68 163.876 29.5191 163.956C29.3582 164.037 29.2778 164.117 29.1973 164.278C29.1169 164.439 29.0365 164.52 29.0365 164.681C29.0365 164.842 29.0365 165.002 29.0365 165.163V167.739H27.4277V162.588Z" fill="white"/>
<path d="M33.6215 162.588H35.1498V163.312C35.2302 163.232 35.3106 163.071 35.3911 162.99C35.4715 162.91 35.6324 162.829 35.7128 162.749C35.8737 162.668 36.0346 162.588 36.115 162.588C36.2759 162.507 36.4367 162.507 36.6781 162.507C36.9998 162.507 37.3216 162.588 37.6433 162.668C37.8846 162.749 38.1259 162.99 38.2064 163.151C38.3672 163.393 38.4477 163.634 38.4477 163.956C38.5281 164.278 38.5281 164.6 38.5281 164.922V167.82H36.9194V165.244C36.9194 165.083 36.9194 164.922 36.9194 164.761C36.9194 164.6 36.9194 164.439 36.8389 164.359C36.7585 164.198 36.6781 164.117 36.5976 164.037C36.4367 163.956 36.2759 163.876 36.115 163.876C35.9541 163.876 35.7932 163.876 35.6324 163.956C35.4715 164.037 35.3911 164.117 35.3106 164.278C35.2302 164.439 35.2302 164.52 35.1498 164.681C35.1498 164.842 35.1498 165.002 35.1498 165.163V167.739H33.541L33.6215 162.588Z" fill="white"/>
<path d="M39.7344 160.898C39.7344 160.656 39.8148 160.415 39.9757 160.254C40.1366 160.093 40.3779 159.932 40.6192 159.932C40.8605 159.932 41.1018 160.012 41.2627 160.254C41.4235 160.415 41.504 160.656 41.504 160.898C41.504 161.139 41.4235 161.38 41.2627 161.541C41.1018 161.702 40.8605 161.783 40.6192 161.783C40.3779 161.783 40.1366 161.702 39.9757 161.541C39.8148 161.461 39.7344 161.219 39.7344 160.898ZM39.8148 162.588H41.4235V167.82H39.8148V162.588Z" fill="white"/>
<path d="M42.6312 162.588H44.1595V163.312C44.24 163.232 44.3204 163.071 44.4008 162.99C44.4813 162.91 44.6421 162.829 44.7226 162.749C44.8834 162.668 45.0443 162.588 45.1248 162.588C45.2856 162.507 45.4465 162.507 45.6878 162.507C46.0096 162.507 46.3313 162.588 46.6531 162.668C46.8944 162.749 47.1357 162.99 47.2161 163.151C47.377 163.393 47.4574 163.634 47.4574 163.956C47.5379 164.278 47.5379 164.6 47.5379 164.922V167.82H45.9291V165.244C45.9291 165.083 45.9291 164.922 45.9291 164.761C45.9291 164.6 45.9291 164.439 45.8487 164.359C45.7683 164.198 45.6878 164.117 45.6074 164.037C45.4465 163.956 45.2856 163.876 45.1248 163.876C44.9639 163.876 44.803 163.876 44.6421 163.956C44.4813 164.037 44.4008 164.117 44.3204 164.278C44.24 164.439 44.24 164.52 44.1595 164.681C44.1595 164.842 44.1595 165.002 44.1595 165.163V167.739H42.5508L42.6312 162.588Z" fill="white"/>
<path d="M54.2947 167.417C54.3751 168.222 54.0533 169.027 53.5707 169.671C52.9272 170.234 52.1229 170.476 51.3185 170.476C50.8359 170.476 50.3532 170.395 49.9511 170.315C49.4684 170.234 49.0662 169.993 48.7445 169.671L49.6293 168.302C49.8706 168.463 50.1119 168.705 50.4337 168.785C50.7554 168.946 50.9967 168.946 51.3185 168.946C51.7207 168.946 52.1228 168.866 52.4446 168.624C52.6859 168.383 52.7663 168.061 52.7663 167.739V167.256C52.6055 167.498 52.3642 167.659 52.0424 167.82C51.8011 167.9 51.4794 167.98 51.238 167.98C50.9163 167.98 50.5141 167.9 50.1924 167.82C49.8706 167.659 49.6293 167.498 49.388 167.256C49.1467 167.015 48.9858 166.693 48.8249 166.371C48.6641 166.049 48.6641 165.646 48.6641 165.244C48.6641 164.922 48.7445 164.519 48.8249 164.198C48.9054 163.876 49.0662 163.554 49.3076 163.312C49.5489 163.071 49.7902 162.829 50.0315 162.668C50.3532 162.507 50.675 162.427 50.9967 162.427C51.238 162.427 51.3989 162.427 51.6402 162.507C51.8011 162.588 51.962 162.588 52.1229 162.668C52.2837 162.749 52.3642 162.829 52.525 162.91C52.6055 162.99 52.6859 163.071 52.7663 163.232V162.588H54.2142L54.2947 167.417ZM50.2728 165.163C50.2728 165.485 50.4337 165.807 50.675 166.049C50.7554 166.129 50.9163 166.29 51.0772 166.371C51.3989 166.532 51.8011 166.532 52.1229 166.371C52.2837 166.29 52.4446 166.21 52.525 166.049C52.7664 165.807 52.9272 165.485 52.9272 165.163C52.9272 165.002 52.9272 164.841 52.8468 164.68C52.7663 164.519 52.6859 164.358 52.6055 164.278C52.525 164.117 52.3642 164.037 52.2033 163.956C51.8815 163.795 51.4794 163.795 51.1576 163.956C50.9967 164.037 50.8359 164.117 50.7554 164.278C50.675 164.358 50.5141 164.519 50.5141 164.68C50.2728 164.841 50.2728 165.002 50.2728 165.163Z" fill="white"/>
<path d="M39.3324 171.603H40.9411V175.064C41.102 174.822 41.3433 174.661 41.6651 174.5C41.9868 174.42 42.3086 174.339 42.6303 174.339C42.9521 174.339 43.3542 174.42 43.5955 174.581C43.9173 174.742 44.1586 174.983 44.3195 175.225C44.5608 175.466 44.7217 175.788 44.8021 176.11C44.8825 176.432 44.963 176.834 44.963 177.156C44.963 177.559 44.8825 177.881 44.8021 178.283C44.7217 178.605 44.4804 178.927 44.239 179.169C43.9977 179.41 43.7564 179.571 43.4347 179.732C43.1129 179.893 42.7107 179.973 42.389 179.893C42.2281 179.893 42.0672 179.893 41.8259 179.812C41.6651 179.732 41.5042 179.732 41.3433 179.651C41.1824 179.571 41.102 179.49 40.9411 179.41C40.8607 179.329 40.7803 179.249 40.6998 179.088V179.732H39.252L39.3324 171.603ZM40.8607 177.156C40.8607 177.478 40.9411 177.881 41.1824 178.122C41.4238 178.364 41.7455 178.525 42.1477 178.525C42.4694 178.525 42.8716 178.444 43.1129 178.122C43.3542 177.881 43.4347 177.478 43.4347 177.156C43.4347 176.834 43.3542 176.432 43.1129 176.19C42.5499 175.707 41.7455 175.707 41.1824 176.19C40.9411 176.432 40.8607 176.754 40.8607 177.156Z" fill="white"/>
<path d="M45.8477 172.89C45.8477 172.649 45.9281 172.407 46.089 172.246C46.4912 171.844 47.0542 171.844 47.4564 172.246C47.6173 172.407 47.6977 172.649 47.6977 172.89C47.6173 173.373 47.2151 173.776 46.652 173.776C46.2498 173.695 45.9281 173.293 45.8477 172.89ZM46.0085 174.5H47.6173V179.732H46.0085V174.5Z" fill="white"/>
<path d="M54.2931 179.732H52.8452V179.007C52.7647 179.088 52.6843 179.168 52.6039 179.329C52.5234 179.41 52.3626 179.49 52.2017 179.571C52.0408 179.651 51.8799 179.732 51.7191 179.732C51.5582 179.812 51.3973 179.812 51.156 179.812C50.8343 179.812 50.4321 179.732 50.1103 179.651C49.7886 179.49 49.5473 179.329 49.306 179.088C49.0647 178.846 48.9038 178.525 48.7429 178.203C48.582 177.881 48.582 177.478 48.582 177.076C48.582 176.754 48.6625 176.351 48.7429 176.029C48.8233 175.707 48.9842 175.385 49.2255 175.144C49.3864 174.903 49.7081 174.661 49.9495 174.5C50.2712 174.339 50.593 174.259 50.9147 174.259C51.2364 174.259 51.5582 174.339 51.8799 174.42C52.2017 174.5 52.443 174.742 52.6039 174.983V171.522H54.2126L54.2931 179.732ZM52.8452 177.156C52.8452 176.834 52.7648 176.432 52.5234 176.19C52.2821 175.949 51.9604 175.788 51.5582 175.788C51.2364 175.788 50.8343 175.868 50.593 176.19C50.3516 176.432 50.2712 176.834 50.2712 177.156C50.2712 177.478 50.3516 177.881 50.593 178.122C50.8343 178.364 51.156 178.525 51.5582 178.525C51.8799 178.525 52.2821 178.444 52.5234 178.122C52.7648 177.8 52.8452 177.478 52.8452 177.156Z" fill="white"/>
<path d="M185.567 335.719H188.382C188.704 335.719 189.026 335.719 189.348 335.8C189.669 335.8 189.991 335.961 190.232 336.041C190.474 336.202 190.715 336.363 190.876 336.605C191.037 336.927 191.117 337.249 191.117 337.571C191.117 337.973 191.037 338.376 190.715 338.617C190.474 338.939 190.152 339.1 189.75 339.261C189.991 339.261 190.232 339.341 190.474 339.502C190.635 339.583 190.876 339.744 191.037 339.905C191.198 340.066 191.278 340.227 191.359 340.468C191.439 340.71 191.439 340.951 191.439 341.193C191.439 341.515 191.359 341.917 191.198 342.159C191.037 342.4 190.796 342.642 190.554 342.803C190.232 342.964 189.991 343.125 189.589 343.205C189.267 343.285 188.945 343.285 188.543 343.285H185.406V335.719H185.567ZM187.256 338.778H188.463C188.624 338.778 188.704 338.778 188.865 338.778C188.945 338.778 189.106 338.698 189.187 338.617C189.267 338.537 189.348 338.456 189.428 338.376C189.509 338.295 189.509 338.134 189.509 337.973C189.509 337.812 189.509 337.732 189.428 337.571C189.348 337.49 189.267 337.41 189.187 337.329C189.106 337.249 188.945 337.249 188.785 337.168C188.624 337.168 188.543 337.168 188.382 337.168H187.256V338.778ZM187.256 341.917H188.785C188.945 341.917 189.026 341.917 189.187 341.917C189.348 341.917 189.428 341.837 189.589 341.756C189.669 341.676 189.75 341.595 189.83 341.515C189.911 341.354 189.911 341.273 189.911 341.112C189.911 340.951 189.911 340.79 189.75 340.71C189.669 340.629 189.509 340.468 189.428 340.468C189.267 340.388 189.106 340.388 189.026 340.307C188.865 340.307 188.704 340.307 188.624 340.307H187.337L187.256 341.917Z" fill="white"/>
<path d="M192.324 336.444C192.324 335.961 192.726 335.478 193.209 335.478C193.45 335.478 193.692 335.559 193.852 335.72C194.255 336.122 194.255 336.685 193.852 337.088C193.692 337.249 193.45 337.329 193.209 337.329C192.726 337.41 192.324 336.927 192.324 336.444ZM192.405 338.054H194.013V343.366H192.405V338.054Z" fill="white"/>
<path d="M200.69 343.366H199.242V342.642C199.161 342.722 199.081 342.883 199 342.964C198.92 343.044 198.759 343.125 198.598 343.205C198.437 343.285 198.276 343.366 198.116 343.366C197.955 343.446 197.794 343.446 197.553 343.446C197.15 343.446 196.829 343.366 196.507 343.285C196.185 343.125 195.944 342.964 195.702 342.722C195.461 342.481 195.3 342.159 195.139 341.837C194.979 341.515 194.979 341.112 194.979 340.79C194.979 340.468 195.059 340.066 195.139 339.744C195.22 339.422 195.381 339.1 195.622 338.859C195.863 338.617 196.105 338.376 196.346 338.215C196.668 338.054 196.989 337.973 197.311 337.973C197.633 337.973 197.955 338.054 198.276 338.134C198.598 338.215 198.839 338.456 199 338.698V335.237H200.609L200.69 343.366ZM199.242 340.71C199.242 340.388 199.161 339.985 198.92 339.744C198.679 339.503 198.357 339.342 197.955 339.342C197.633 339.342 197.231 339.422 196.989 339.744C196.748 339.985 196.668 340.388 196.668 340.71C196.668 341.032 196.748 341.434 196.989 341.676C197.231 341.917 197.553 342.078 197.955 342.078C198.276 342.078 198.679 341.998 198.92 341.676C199.161 341.434 199.242 341.112 199.242 340.71Z" fill="white"/>
<path d="M185.566 347.31H188.543C188.945 347.31 189.267 347.31 189.669 347.391C189.99 347.471 190.312 347.552 190.553 347.793C190.795 347.954 191.036 348.195 191.197 348.517C191.358 348.839 191.438 349.242 191.438 349.644C191.438 350.127 191.277 350.61 191.036 351.013C190.714 351.415 190.312 351.656 189.83 351.737L191.76 354.957H189.749L188.14 351.898H187.336V354.957H185.647V347.31H185.566ZM187.256 350.449H188.221C188.382 350.449 188.543 350.449 188.703 350.449C188.864 350.449 189.025 350.449 189.186 350.369C189.347 350.288 189.427 350.208 189.508 350.127C189.669 349.805 189.669 349.483 189.508 349.161C189.427 349.081 189.347 348.92 189.186 348.92C189.025 348.839 188.945 348.839 188.784 348.759C188.623 348.759 188.462 348.759 188.301 348.759H187.175L187.256 350.449Z" fill="white"/>
<path d="M197.391 353.991C197.15 354.313 196.828 354.554 196.426 354.796C196.024 354.956 195.621 355.037 195.219 355.037C194.817 355.037 194.415 354.956 194.093 354.876C193.771 354.715 193.45 354.554 193.128 354.313C192.002 353.266 191.921 351.495 192.967 350.449C193.047 350.369 193.047 350.369 193.128 350.288C193.369 350.047 193.691 349.886 194.093 349.725C194.495 349.564 194.817 349.564 195.219 349.564C195.541 349.564 195.943 349.644 196.265 349.725C196.587 349.805 196.828 350.047 197.069 350.288C197.311 350.53 197.471 350.852 197.552 351.174C197.632 351.576 197.713 351.898 197.713 352.3V352.783H193.932C194.013 353.105 194.093 353.347 194.334 353.508C194.737 353.83 195.38 353.91 195.782 353.588C195.943 353.427 196.104 353.347 196.265 353.105L197.391 353.991ZM196.024 351.737C196.024 351.495 195.943 351.254 195.782 351.013C195.621 350.852 195.3 350.691 195.058 350.691C194.897 350.691 194.737 350.691 194.576 350.771C194.415 350.852 194.334 350.932 194.254 351.013C194.174 351.093 194.093 351.174 194.013 351.334C193.932 351.415 193.932 351.576 193.932 351.737H196.024Z" fill="white"/>
<path d="M204.068 357.371H202.459V354.313C202.298 354.554 202.057 354.715 201.735 354.876C201.414 354.956 201.092 355.037 200.77 355.037C200.448 355.037 200.046 354.956 199.805 354.795C199.483 354.634 199.242 354.393 199.081 354.152C198.84 353.91 198.679 353.588 198.598 353.266C198.518 352.944 198.438 352.542 198.438 352.22C198.438 351.817 198.518 351.495 198.598 351.093C198.679 350.771 198.92 350.449 199.161 350.208C199.403 349.966 199.644 349.805 199.966 349.644C200.288 349.483 200.69 349.403 201.011 349.483C201.172 349.483 201.333 349.483 201.575 349.564C201.735 349.644 201.896 349.644 202.057 349.725C202.218 349.805 202.298 349.886 202.459 349.966C202.54 350.047 202.62 350.127 202.701 350.208V349.483H204.149V357.371H204.068ZM202.62 352.3C202.62 351.978 202.54 351.576 202.298 351.334C202.057 351.093 201.735 350.932 201.333 350.932C201.011 350.932 200.609 351.013 200.368 351.334C199.885 351.898 199.885 352.703 200.368 353.266C200.609 353.508 200.931 353.669 201.333 353.669C201.655 353.669 202.057 353.588 202.298 353.266C202.54 353.025 202.62 352.622 202.62 352.3Z" fill="white"/>
<path d="M210.422 354.956H208.894V354.232C208.814 354.312 208.733 354.473 208.653 354.554C208.572 354.634 208.411 354.715 208.331 354.795C208.17 354.876 208.009 354.956 207.929 354.956C207.768 355.037 207.607 355.037 207.366 355.037C207.044 355.037 206.642 354.956 206.4 354.876C206.159 354.795 205.918 354.554 205.837 354.312C205.676 354.071 205.596 353.83 205.596 353.508C205.516 353.186 205.516 352.864 205.516 352.542V349.644H207.124V352.22C207.124 352.381 207.124 352.542 207.124 352.703C207.124 352.864 207.124 353.025 207.205 353.105C207.285 353.266 207.366 353.347 207.446 353.427C207.607 353.508 207.768 353.588 207.929 353.588C208.09 353.588 208.25 353.588 208.411 353.508C208.572 353.427 208.653 353.347 208.733 353.186C208.814 353.025 208.894 352.944 208.894 352.783C208.894 352.622 208.894 352.461 208.894 352.3V349.725H210.503L210.422 354.956Z" fill="white"/>
<path d="M216.535 353.991C216.293 354.313 215.972 354.554 215.569 354.796C215.167 354.956 214.765 355.037 214.363 355.037C213.961 355.037 213.559 354.956 213.237 354.876C212.915 354.715 212.593 354.554 212.272 354.313C212.03 354.071 211.789 353.749 211.628 353.427C211.306 352.703 211.306 351.898 211.628 351.174C211.789 350.852 211.95 350.53 212.272 350.288C212.513 350.047 212.835 349.886 213.237 349.725C213.639 349.564 213.961 349.564 214.363 349.564C214.685 349.564 215.087 349.644 215.409 349.725C215.73 349.805 215.972 350.047 216.213 350.288C216.454 350.53 216.615 350.852 216.696 351.174C216.856 351.576 216.856 351.898 216.856 352.3V352.783H213.076C213.156 353.105 213.317 353.347 213.478 353.508C213.719 353.669 213.961 353.83 214.282 353.749C214.524 353.749 214.765 353.669 214.926 353.588C215.087 353.427 215.248 353.347 215.409 353.105L216.535 353.991ZM215.167 351.737C215.167 351.495 215.087 351.254 214.926 351.013C214.765 350.852 214.443 350.691 214.202 350.691C214.041 350.691 213.88 350.691 213.719 350.771C213.559 350.852 213.478 350.932 213.398 351.013C213.317 351.093 213.237 351.174 213.156 351.334C213.076 351.415 213.076 351.576 213.076 351.737H215.167Z" fill="white"/>
<path d="M220.719 351.254C220.477 350.932 220.155 350.771 219.753 350.851C219.592 350.851 219.512 350.851 219.351 350.932C219.19 351.012 219.11 351.093 219.19 351.254C219.19 351.415 219.271 351.495 219.351 351.495C219.512 351.576 219.673 351.656 219.834 351.656L220.477 351.817C220.719 351.898 220.96 351.978 221.121 352.059C221.603 352.3 221.845 352.783 221.845 353.347C221.845 353.669 221.764 353.91 221.603 354.152C221.442 354.393 221.282 354.554 221.04 354.715C220.799 354.876 220.558 354.956 220.236 354.956C219.995 355.037 219.673 355.037 219.351 355.037C218.949 355.037 218.627 354.956 218.225 354.876C217.903 354.795 217.501 354.554 217.26 354.312L218.225 353.266C218.386 353.427 218.547 353.588 218.708 353.669C218.868 353.749 219.11 353.83 219.351 353.83C219.512 353.83 219.673 353.83 219.834 353.749C219.995 353.749 220.075 353.588 220.075 353.427C220.075 353.266 219.995 353.186 219.914 353.105C219.753 353.025 219.592 352.944 219.432 352.944L218.788 352.783C218.547 352.703 218.305 352.622 218.145 352.542C217.662 352.3 217.421 351.817 217.421 351.254C217.421 351.012 217.501 350.69 217.582 350.449C217.742 350.208 217.903 350.047 218.064 349.886C218.305 349.725 218.547 349.644 218.788 349.564C219.029 349.483 219.351 349.483 219.592 349.483C219.914 349.483 220.316 349.564 220.638 349.644C220.96 349.725 221.282 349.886 221.523 350.208L220.719 351.254Z" fill="white"/>
<path d="M226.349 350.932H224.901V352.703C224.901 352.864 224.901 352.944 224.901 353.105C224.901 353.186 224.981 353.347 224.981 353.427C225.062 353.508 225.142 353.588 225.223 353.588C225.383 353.669 225.464 353.669 225.625 353.669H225.947C226.027 353.669 226.188 353.588 226.268 353.508V354.876C226.107 354.956 225.866 354.956 225.705 355.037C225.544 355.037 225.303 355.037 225.142 355.037C224.901 355.037 224.66 355.037 224.418 354.956C224.177 354.876 224.016 354.795 223.775 354.715C223.614 354.554 223.453 354.393 223.373 354.232C223.292 353.99 223.212 353.749 223.212 353.508V350.932H222.166V349.644H223.212V348.115H224.82V349.644H226.268L226.349 350.932Z" fill="white"/>
<path d="M230.129 351.254C229.888 350.932 229.566 350.771 229.164 350.851C229.003 350.851 228.923 350.851 228.762 350.932C228.601 351.012 228.52 351.093 228.601 351.254C228.601 351.415 228.681 351.495 228.762 351.495C228.923 351.576 229.083 351.656 229.244 351.656L229.888 351.817C230.129 351.898 230.37 351.978 230.531 352.059C230.773 352.139 230.933 352.3 231.014 352.542C231.175 352.783 231.255 353.105 231.175 353.347C231.175 353.669 231.094 353.91 230.933 354.152C230.773 354.393 230.612 354.554 230.37 354.715C230.129 354.876 229.888 354.956 229.566 354.956C229.325 355.037 229.003 355.037 228.681 355.037C228.279 355.037 227.957 354.956 227.555 354.876C227.233 354.795 226.831 354.554 226.59 354.312L227.555 353.266C227.716 353.427 227.877 353.588 228.038 353.669C228.199 353.749 228.44 353.83 228.681 353.83C228.842 353.83 229.003 353.83 229.164 353.749C229.325 353.749 229.405 353.588 229.405 353.427C229.405 353.266 229.325 353.186 229.244 353.105C229.083 353.025 228.923 352.944 228.762 352.944L228.118 352.783C227.877 352.703 227.636 352.622 227.475 352.542C227.233 352.461 227.072 352.3 226.992 352.059C226.831 351.817 226.751 351.576 226.831 351.254C226.831 351.012 226.912 350.69 226.992 350.449C227.072 350.208 227.314 350.047 227.475 349.886C227.716 349.725 227.957 349.644 228.199 349.564C228.44 349.483 228.762 349.483 229.003 349.483C229.325 349.483 229.727 349.564 230.049 349.644C230.37 349.725 230.692 349.886 230.933 350.208L230.129 351.254Z" fill="white"/>
<path d="M33.7832 335.719H36.5985C36.9202 335.719 37.242 335.719 37.5637 335.8C37.8855 335.8 38.2072 335.961 38.4485 336.041C38.6899 336.202 38.9312 336.363 39.092 336.605C39.2529 336.927 39.3334 337.249 39.3334 337.571C39.3334 337.973 39.2529 338.376 38.9312 338.617C38.6899 338.939 38.3681 339.1 37.9659 339.261C38.2072 339.261 38.4485 339.341 38.6899 339.502C38.8507 339.583 39.092 339.744 39.2529 339.905C39.4138 340.066 39.4942 340.227 39.5747 340.468C39.6551 340.71 39.6551 340.951 39.6551 341.193C39.6551 341.515 39.5747 341.917 39.4138 342.159C39.2529 342.4 39.0116 342.642 38.7703 342.803C38.4485 342.964 38.2072 343.125 37.8051 343.205C37.4833 343.285 37.1616 343.285 36.7594 343.285H33.7832V335.719ZM35.3919 338.778H36.5985C36.7594 338.778 36.8398 338.778 37.0007 338.778C37.0811 338.778 37.242 338.698 37.3224 338.617C37.4029 338.537 37.4833 338.456 37.5637 338.376C37.6442 338.295 37.6442 338.134 37.6442 337.973C37.6442 337.812 37.6442 337.732 37.5637 337.571C37.4833 337.49 37.4029 337.41 37.3224 337.329C37.242 337.249 37.0811 337.249 36.9202 337.249C36.7594 337.249 36.6789 337.168 36.5181 337.249H35.3919V338.778ZM35.3919 341.917H37.0007C37.1616 341.917 37.242 341.917 37.4029 341.917C37.5637 341.917 37.6442 341.837 37.8051 341.756C37.8855 341.676 37.9659 341.595 38.0464 341.434C38.1268 341.273 38.1268 341.193 38.1268 341.032C38.1268 340.871 38.1268 340.71 37.9659 340.629C37.8855 340.549 37.7246 340.388 37.6442 340.388C37.4833 340.307 37.3224 340.307 37.242 340.307C37.0811 340.307 36.9202 340.307 36.8398 340.307H35.5528L35.3919 341.917Z" fill="white"/>
<path d="M40.459 336.444C40.459 335.961 40.8612 335.478 41.4242 335.478C41.6655 335.478 41.9069 335.559 42.0677 335.72C42.4699 336.122 42.4699 336.685 42.0677 337.007C41.9069 337.168 41.6655 337.249 41.4242 337.249C40.8612 337.41 40.459 337.007 40.459 336.444ZM40.6199 338.134H42.2286V343.366H40.6199V338.134Z" fill="white"/>
<path d="M48.8243 343.366H47.3764V342.642C47.296 342.722 47.2156 342.883 47.1351 342.964C47.0547 343.044 46.8938 343.125 46.7329 343.205C46.5721 343.285 46.4112 343.366 46.2503 343.366C46.0894 343.446 45.9286 343.446 45.6873 343.446C45.2851 343.446 44.9633 343.366 44.6416 343.285C44.3198 343.125 44.0785 342.964 43.8372 342.722C43.5959 342.481 43.435 342.159 43.2742 341.837C43.1133 341.515 43.1133 341.112 43.1133 340.79C43.1133 340.468 43.1937 340.066 43.2742 339.744C43.3546 339.422 43.5155 339.1 43.7568 338.859C43.9981 338.617 44.2394 338.376 44.4807 338.215C44.8025 338.054 45.1242 337.973 45.446 337.973C45.7677 337.973 46.0895 338.054 46.4112 338.134C46.7329 338.215 46.9743 338.456 47.1351 338.698V335.237H48.7439V343.366H48.8243ZM47.3764 340.71C47.3764 340.388 47.296 339.985 47.0547 339.744C46.8134 339.503 46.4916 339.342 46.0894 339.342C45.7677 339.342 45.3655 339.422 45.1242 339.744C44.8829 339.985 44.8025 340.388 44.8025 340.71C44.8025 341.032 44.8829 341.434 45.1242 341.676C45.3655 341.917 45.6873 342.078 46.0894 342.078C46.4112 342.078 46.8134 341.998 47.0547 341.676C47.296 341.434 47.3764 341.112 47.3764 340.71Z" fill="white"/>
<path d="M53.0881 339.663C52.8467 339.342 52.525 339.181 52.1228 339.261C51.9619 339.261 51.8815 339.261 51.7206 339.342C51.5598 339.422 51.4793 339.503 51.5597 339.663C51.5597 339.824 51.6402 339.905 51.7206 339.905C51.8815 339.985 52.0424 340.066 52.2032 340.066L52.8467 340.227C53.088 340.307 53.3294 340.388 53.4902 340.468C53.7315 340.549 53.8924 340.71 53.9729 340.951C54.1337 341.193 54.2142 341.434 54.1337 341.756C54.1337 342.078 54.0533 342.32 53.8924 342.561C53.7315 342.803 53.5707 342.964 53.3294 343.124C53.0881 343.285 52.8467 343.366 52.525 343.366C52.2837 343.446 51.9619 343.446 51.6402 343.446C51.238 343.446 50.9163 343.366 50.5141 343.285C50.1923 343.205 49.7901 342.964 49.5488 342.722L50.5141 341.595C50.6749 341.756 50.8358 341.917 50.9967 341.998C51.1576 342.078 51.3989 342.159 51.6402 342.159C51.8011 342.159 51.9619 342.159 52.1228 342.078C52.2837 342.078 52.3641 341.917 52.3641 341.756C52.3641 341.595 52.2837 341.515 52.2032 341.434C52.0424 341.354 51.8815 341.273 51.7206 341.273L51.0771 341.112C50.8358 341.032 50.5945 340.951 50.4336 340.871C50.1923 340.79 50.0314 340.629 49.951 340.388C49.7901 340.146 49.7097 339.905 49.7901 339.583C49.7901 339.342 49.8706 339.02 49.951 338.778C50.0314 338.537 50.2728 338.376 50.4336 338.215C50.6749 338.054 50.9163 337.973 51.1576 337.893C51.3989 337.812 51.7206 337.812 51.9619 337.812C52.2837 337.812 52.6859 337.893 53.0076 337.973C53.3294 338.054 53.6511 338.295 53.8924 338.537L53.0881 339.663Z" fill="white"/>
<path d="M16.7306 354.956C16.5698 355.198 16.3284 355.439 16.0067 355.6C15.685 355.761 15.3632 355.761 15.0415 355.761C14.8001 355.761 14.5588 355.761 14.3175 355.681C14.0762 355.6 13.9153 355.52 13.7545 355.359C13.5936 355.198 13.4327 355.037 13.3523 354.876C13.2718 354.634 13.1914 354.393 13.1914 354.151C13.1914 353.91 13.2718 353.588 13.3523 353.347C13.4327 353.105 13.5936 352.944 13.8349 352.864C13.9958 352.703 14.2371 352.622 14.4784 352.542C14.7197 352.461 15.0415 352.381 15.2828 352.381C15.5241 352.3 15.8458 352.3 16.0871 352.3H16.8111C16.8111 352.059 16.7306 351.817 16.4893 351.576C16.248 351.415 16.0067 351.334 15.7654 351.334C15.5241 351.334 15.2828 351.415 15.0415 351.495C14.8001 351.576 14.6393 351.737 14.4784 351.978L13.5936 351.093C13.9153 350.851 14.2371 350.61 14.6393 350.449C15.0415 350.288 15.4436 350.208 15.8458 350.208C16.248 350.208 16.6502 350.288 17.0524 350.368C17.3741 350.449 17.6154 350.69 17.7763 350.851C17.9372 351.093 18.0981 351.415 18.1785 351.656C18.2589 352.059 18.2589 352.461 18.2589 352.783V355.439H16.8111L16.7306 354.956ZM16.3284 353.347H15.8458C15.685 353.347 15.5241 353.347 15.2828 353.427C15.1219 353.508 14.961 353.588 14.8806 353.669C14.7197 353.749 14.7197 353.91 14.7197 354.071C14.7197 354.232 14.8001 354.393 14.961 354.473C15.1219 354.554 15.2828 354.634 15.4436 354.634C15.6045 354.634 15.7654 354.634 15.9263 354.554C16.0871 354.473 16.1676 354.473 16.3284 354.393C16.4089 354.312 16.5698 354.232 16.5698 354.071C16.6502 353.91 16.6502 353.83 16.6502 353.669V353.347H16.3284Z" fill="white"/>
<path d="M19.2246 350.369H20.7529V351.093C20.8333 351.012 20.9138 350.851 20.9942 350.771C21.0747 350.691 21.2355 350.61 21.316 350.53C21.4768 350.449 21.6377 350.369 21.7182 350.369C21.879 350.288 22.0399 350.288 22.2812 350.288C22.603 350.288 22.9247 350.369 23.2465 350.449C23.4878 350.53 23.7291 350.771 23.8095 350.932C23.9704 351.173 24.0508 351.415 24.1313 351.737C24.2117 352.059 24.2117 352.381 24.2117 352.703V355.6H22.603V353.025C22.603 352.864 22.603 352.703 22.603 352.542C22.603 352.381 22.603 352.22 22.5225 352.059C22.4421 351.898 22.3616 351.817 22.2812 351.737C22.1203 351.656 21.9595 351.576 21.7986 351.576C21.6377 351.576 21.4768 351.576 21.316 351.656C21.1551 351.737 21.0747 351.817 20.9942 351.978C20.9138 352.139 20.9138 352.22 20.8333 352.381C20.8333 352.542 20.8333 352.703 20.8333 352.864V355.439H19.2246V350.369Z" fill="white"/>
<path d="M30.8868 355.6H29.4389V354.956C29.2781 355.198 29.0368 355.359 28.7954 355.52C28.6346 355.6 28.4737 355.681 28.3128 355.681C28.1519 355.761 27.9911 355.761 27.7498 355.761C27.3476 355.761 27.0258 355.681 26.7041 355.6C26.3823 355.439 26.141 355.278 25.8997 355.037C25.6584 354.795 25.4975 354.473 25.3367 354.151C25.1758 353.829 25.1758 353.427 25.1758 353.105C25.1758 352.783 25.2562 352.381 25.3367 352.059C25.4171 351.737 25.578 351.415 25.8193 351.173C25.9801 350.932 26.3019 350.69 26.5432 350.529C26.865 350.368 27.1867 350.288 27.5085 350.288C27.8302 350.288 28.1519 350.368 28.4737 350.449C28.7954 350.529 29.0368 350.771 29.1976 351.012V347.551H30.8064V355.6H30.8868ZM29.4389 353.025C29.4389 352.703 29.3585 352.3 29.1172 352.059C28.5541 351.576 27.7498 351.576 27.1867 352.059C26.9454 352.3 26.865 352.703 26.865 353.025C26.865 353.347 26.9454 353.749 27.1867 353.99C27.7498 354.473 28.5541 354.473 29.1172 353.99C29.2781 353.668 29.4389 353.347 29.4389 353.025Z" fill="white"/>
<path d="M38.046 347.954H39.4134L42.7917 355.6H40.8613L40.2178 353.991H37.2416L36.5981 355.6H34.748L38.046 347.954ZM38.6895 350.208L37.8046 352.542H39.6547L38.6895 350.208Z" fill="white"/>
<path d="M48.9063 355.6H47.4585V354.956C47.378 355.037 47.2976 355.117 47.2172 355.198C47.1367 355.278 46.9758 355.359 46.815 355.439C46.6541 355.52 46.4932 355.6 46.3323 355.6C46.1715 355.681 46.0106 355.681 45.7693 355.681C45.4475 355.681 45.0454 355.6 44.7236 355.52C44.0801 355.278 43.5975 354.715 43.3562 354.071C43.1953 353.749 43.1953 353.347 43.1953 352.944C43.1953 352.622 43.2757 352.22 43.3562 351.898C43.4366 351.576 43.5975 351.254 43.8388 351.012C43.9997 350.771 44.3214 350.529 44.5627 350.368C44.8845 350.207 45.2062 350.127 45.528 350.127C45.8497 350.127 46.1715 350.207 46.4932 350.288C46.815 350.368 47.0563 350.61 47.2172 350.851V347.39H48.8259L48.9063 355.6ZM47.378 353.025C47.378 352.703 47.2976 352.3 47.0563 352.059C46.815 351.817 46.4932 351.656 46.091 351.656C45.7693 351.656 45.3671 351.737 45.1258 352.059C44.8845 352.3 44.8041 352.703 44.8041 353.025C44.8041 353.347 44.8845 353.749 45.1258 353.99C45.3671 354.232 45.6889 354.393 46.091 354.393C46.4128 354.393 46.815 354.312 47.0563 353.99C47.2976 353.668 47.378 353.347 47.378 353.025Z" fill="white"/>
<path d="M53.0877 351.898C52.8464 351.576 52.5246 351.415 52.1225 351.495C51.9616 351.495 51.8811 351.495 51.7203 351.576C51.5594 351.656 51.479 351.737 51.5594 351.898C51.5594 352.059 51.6398 352.139 51.7203 352.22C51.8811 352.3 52.042 352.3 52.2029 352.381L52.8464 352.542C53.0877 352.622 53.329 352.703 53.4899 352.783C53.7312 352.864 53.8921 353.025 53.9725 353.266C54.1334 353.507 54.2138 353.749 54.1334 354.071C54.1334 354.393 54.0529 354.634 53.8921 354.876C53.7312 355.117 53.5703 355.278 53.329 355.439C53.0877 355.6 52.8464 355.681 52.5246 355.681C52.2833 355.761 51.9616 355.761 51.7203 355.761C51.3181 355.761 50.9963 355.681 50.5942 355.6C50.2724 355.52 49.9507 355.278 49.6289 355.037L50.5942 353.91C50.755 354.071 50.9159 354.232 51.0768 354.312C51.2376 354.393 51.479 354.473 51.7203 354.473C51.8811 354.473 52.042 354.473 52.2029 354.393C52.3638 354.393 52.4442 354.232 52.4442 354.071C52.4442 353.91 52.3638 353.829 52.2833 353.749C52.1225 353.668 51.9616 353.588 51.8007 353.588L51.1572 353.427C50.9159 353.347 50.6746 353.266 50.5137 353.186C50.2724 353.105 50.1115 352.944 50.0311 352.703C49.8702 352.461 49.7898 352.139 49.8702 351.898C49.8702 351.656 49.9507 351.334 50.0311 351.093C50.192 350.851 50.3528 350.69 50.5137 350.529C50.755 350.368 50.9963 350.288 51.2376 350.207C51.479 350.127 51.8007 350.127 52.042 350.127C52.3638 350.127 52.7659 350.207 53.0877 350.288C53.4094 350.368 53.7312 350.529 53.9725 350.851L53.0877 351.898Z" fill="white"/>
<path d="M93.9512 86.928V58.0325H114.463V86.928C114.463 90.7915 116.313 94.333 119.53 96.5062L161.357 125.402C170.045 131.438 175.192 141.339 175.192 151.883V237.684H154.681V151.963C154.681 148.1 152.831 144.558 149.614 142.385L107.786 113.489C99.0991 107.372 93.9512 97.4721 93.9512 86.928Z" fill="url(#paint0_linear_3972_20090)"/>
<path d="M132.881 118.721C132.881 118.56 132.961 118.399 133.042 118.319C133.283 117.997 133.685 117.916 134.087 118.158L155.645 133.451C160.953 137.073 166.986 145.041 166.745 155.263C166.745 155.666 166.423 155.988 166.021 155.988C165.619 155.988 165.297 155.666 165.297 155.263C165.538 145.604 159.827 138.119 154.84 134.658L133.283 119.365C133.042 119.204 132.881 118.963 132.881 118.721Z" fill="url(#paint1_linear_3972_20090)"/>
<path d="M161.115 152.768C161.115 152.366 161.437 152.044 161.839 152.044C162 152.044 162.161 152.124 162.322 152.205L165.781 155.424L169.561 152.366C169.883 152.124 170.365 152.124 170.607 152.446C170.848 152.768 170.768 153.251 170.526 153.493L166.263 156.954C166.022 157.195 165.62 157.195 165.298 156.954L161.357 153.332C161.196 153.251 161.115 153.01 161.115 152.768Z" fill="url(#paint2_linear_3972_20090)"/>
<path d="M64.9922 229.554V151.963C64.9922 141.419 70.2206 131.519 78.8273 125.482L120.655 96.5867C123.792 94.4135 125.722 90.7915 125.722 87.0085V58.0325H146.233V86.928C146.233 97.4721 141.005 107.372 132.398 113.409L90.5711 142.304C87.4341 144.478 85.5036 148.1 85.5036 151.883V229.474H64.9922V229.554Z" fill="url(#paint3_linear_3972_20090)"/>
<path d="M74.002 180.456L74.1628 154.056C74.0824 147.617 77.0586 138.119 85.6653 132.404C85.9871 132.163 86.4697 132.163 86.711 132.485C86.9523 132.807 86.9523 133.29 86.6305 133.531L86.5501 133.612C78.5064 138.924 75.6911 147.939 75.6911 154.056L75.5303 180.537C75.5303 180.939 75.2085 181.261 74.8063 181.261C74.3237 181.181 74.002 180.859 74.002 180.456Z" fill="url(#paint4_linear_3972_20090)"/>
<path d="M81 130.955C81 130.875 81 130.795 81 130.714C81.0804 130.312 81.4826 130.07 81.8848 130.231L87.1132 131.76C87.435 131.841 87.6763 132.243 87.6763 132.565L87.0328 137.878C86.9523 138.28 86.5501 138.521 86.148 138.441C85.8262 138.36 85.5849 138.039 85.5849 137.717L86.148 133.048L81.4826 131.68C81.1609 131.519 81 131.277 81 130.955Z" fill="url(#paint5_linear_3972_20090)"/>
<path d="M93.9512 427.557V422.567C93.9512 412.023 99.1796 402.123 107.786 396.086L149.614 367.191C152.751 365.017 154.601 361.395 154.601 357.612V271.731H175.112V357.532C175.112 368.076 169.884 377.976 161.277 384.013L119.45 412.908C116.313 415.082 114.382 418.704 114.382 422.487V427.477H93.9512V427.557Z" fill="url(#paint6_linear_3972_20090)"/>
<path d="M137.145 387.796C137.145 387.554 137.225 387.313 137.466 387.232L154.841 374.837C159.828 371.376 165.619 363.891 165.297 354.232C165.297 353.83 165.619 353.508 166.021 353.508C166.424 353.508 166.745 353.83 166.745 354.232C166.987 364.535 160.954 372.422 155.645 376.125L138.351 388.52C138.029 388.762 137.547 388.681 137.305 388.359C137.145 388.118 137.145 387.957 137.145 387.796Z" fill="url(#paint7_linear_3972_20090)"/>
<path d="M137.225 387.796L137.385 382.323C137.466 381.92 137.788 381.598 138.19 381.679C138.512 381.679 138.833 382.001 138.833 382.323L138.753 387.152L143.418 387.957C143.82 388.037 144.062 388.44 143.981 388.842C143.901 389.245 143.579 389.486 143.177 389.406L137.949 388.44C137.546 388.359 137.225 388.118 137.225 387.796Z" fill="url(#paint8_linear_3972_20090)"/>
<path d="M64.9922 357.532V267.626H85.5036V357.532C85.5036 361.395 87.3536 364.937 90.5711 367.11L132.398 396.006C141.086 402.042 146.233 411.942 146.233 422.487V427.477H125.722V422.487C125.722 418.623 123.792 415.082 120.655 412.908L78.8273 384.013C70.1401 377.976 64.9922 368.076 64.9922 357.532Z" fill="url(#paint9_linear_3972_20090)"/>
<path d="M73.7598 355.278C73.7598 355.037 73.7598 354.876 73.7598 354.634C73.7598 354.232 74.0815 353.91 74.4837 353.91C74.8859 353.91 75.2076 354.232 75.2076 354.634C74.9663 364.293 80.6773 371.778 85.6644 375.239L111.324 392.947C111.646 393.189 111.646 393.671 111.324 393.993C111.083 394.235 110.761 394.315 110.519 394.154L84.8601 376.447C79.7121 372.905 73.7598 365.259 73.7598 355.278Z" fill="url(#paint10_linear_3972_20090)"/>
<path d="M69.8185 357.129C69.8185 356.888 69.8989 356.727 70.0598 356.566L74.0012 352.944C74.2425 352.703 74.6447 352.703 74.9664 352.944L79.2296 356.405C79.5513 356.647 79.6318 357.129 79.31 357.451C79.0687 357.773 78.5861 357.854 78.2644 357.532L74.4838 354.473L70.9446 357.693C70.6228 357.934 70.2207 357.934 69.8989 357.612C69.8185 357.532 69.738 357.29 69.8185 357.129Z" fill="url(#paint11_linear_3972_20090)"/>
<path d="M97.6504 1.77075H100.224C100.546 1.77075 100.948 1.77075 101.27 1.85124C101.592 1.93173 101.833 2.01222 102.074 2.1732C102.316 2.33417 102.477 2.57564 102.637 2.81711C102.798 3.13906 102.879 3.46102 102.879 3.86347C102.879 4.18542 102.798 4.58787 102.718 4.90982C102.637 5.15129 102.396 5.39276 102.155 5.55373C101.914 5.71471 101.672 5.87569 101.35 5.87569C101.029 5.95618 100.707 5.95618 100.305 5.95618H99.1787V8.6928H97.6504V1.77075ZM99.1787 4.66836H100.224C100.385 4.66836 100.466 4.66836 100.627 4.66836C100.787 4.66836 100.868 4.58787 100.948 4.50738C101.029 4.42689 101.109 4.3464 101.19 4.26591C101.27 4.10493 101.27 4.02444 101.27 3.86347C101.27 3.70249 101.27 3.54151 101.109 3.46102C101.029 3.38053 100.948 3.30004 100.787 3.21955C100.627 3.13906 100.546 3.13906 100.385 3.13906H99.9026H99.0983L99.1787 4.66836Z" fill="white"/>
<path d="M110.842 6.03667C110.842 6.43911 110.762 6.84156 110.681 7.16351C110.44 7.88791 109.877 8.37085 109.233 8.6928C108.429 9.01476 107.544 9.01476 106.66 8.6928C105.936 8.45134 105.453 7.88791 105.212 7.16351C105.051 6.76107 105.051 6.43911 105.051 6.03667V1.77075H106.579V5.95618C106.579 6.19765 106.579 6.35862 106.66 6.5196C106.82 7.08302 107.383 7.40498 107.947 7.40498C108.107 7.40498 108.349 7.40498 108.51 7.32449C108.67 7.244 108.831 7.16351 108.912 7.00253C109.073 6.84156 109.153 6.68058 109.233 6.5196C109.314 6.35862 109.314 6.11716 109.314 5.95618V1.77075H110.842V6.03667Z" fill="white"/>
<path d="M113.416 1.77075H115.99C116.312 1.77075 116.634 1.77075 116.875 1.85124C117.116 1.93173 117.438 2.01222 117.68 2.09271C117.921 2.25369 118.162 2.41466 118.243 2.65613C118.403 2.8976 118.484 3.21955 118.484 3.54151C118.484 3.86347 118.403 4.26591 118.162 4.50738C117.921 4.74884 117.599 4.99031 117.277 5.0708C117.519 5.0708 117.68 5.15129 117.921 5.23178C118.082 5.31227 118.243 5.47324 118.403 5.63422C118.564 5.7952 118.645 5.95618 118.725 6.11716C118.806 6.35862 118.806 6.5196 118.806 6.76107C118.806 7.08302 118.725 7.40498 118.564 7.64645C118.403 7.88791 118.162 8.12938 117.921 8.20987C117.68 8.37085 117.438 8.45134 117.116 8.53183C116.795 8.61231 116.473 8.61231 116.151 8.61231H113.336L113.416 1.77075ZM115.025 4.50738H116.151C116.232 4.50738 116.393 4.50738 116.473 4.50738C116.553 4.50738 116.714 4.42689 116.795 4.3464C116.875 4.26591 116.956 4.18542 117.036 4.10493C117.116 4.02444 117.116 3.86346 117.116 3.78298C117.116 3.622 117.116 3.54151 117.036 3.46102C116.956 3.38053 116.875 3.30004 116.795 3.21955C116.714 3.13906 116.553 3.13906 116.473 3.13906C116.393 3.13906 116.232 3.13906 116.071 3.13906H115.025V4.50738ZM115.025 7.40498H116.393C116.473 7.40498 116.634 7.40498 116.795 7.40498C116.875 7.40498 117.036 7.32449 117.116 7.244C117.197 7.16351 117.277 7.08302 117.358 7.00253C117.438 6.92205 117.438 6.76107 117.438 6.60009C117.438 6.43911 117.438 6.35862 117.277 6.19764C117.197 6.11716 117.116 6.03667 116.956 5.95618C116.795 5.87569 116.714 5.87569 116.553 5.87569H116.151H115.025V7.40498Z" fill="white"/>
<path d="M121.057 1.77075H122.585V7.32449H125.4V8.77329H121.057V1.77075Z" fill="white"/>
<path d="M127.412 1.77075H128.94V8.77329H127.412V1.77075Z" fill="white"/>
<path d="M134.973 3.46103C134.812 3.30005 134.651 3.13908 134.49 3.13908C134.329 3.05859 134.088 3.05859 133.847 3.05859C133.766 3.05859 133.605 3.05859 133.525 3.05859C133.444 3.05859 133.283 3.13908 133.203 3.21957C133.123 3.30005 133.042 3.38054 132.962 3.46103C132.881 3.54152 132.881 3.7025 132.881 3.78299C132.881 3.94397 132.962 4.18543 133.123 4.26592C133.283 4.34641 133.525 4.50739 133.686 4.50739C133.927 4.58788 134.168 4.66837 134.49 4.74886C134.812 4.82934 135.053 4.90983 135.294 5.07081C135.536 5.23179 135.697 5.39277 135.857 5.63423C136.018 5.95619 136.099 6.27815 136.099 6.6001C136.099 6.92206 136.018 7.3245 135.857 7.64646C135.697 7.96841 135.536 8.20988 135.294 8.37086C135.053 8.53184 134.731 8.69281 134.41 8.7733C134.088 8.85379 133.766 8.93428 133.364 8.93428C132.962 8.93428 132.479 8.85379 132.077 8.69282C131.675 8.53184 131.273 8.29037 131.031 8.0489L132.157 6.84157C132.318 7.08304 132.479 7.24401 132.72 7.3245C132.962 7.40499 133.203 7.48548 133.444 7.48548C133.605 7.48548 133.686 7.48548 133.847 7.40499C134.007 7.40499 134.088 7.3245 134.168 7.24401C134.249 7.16352 134.329 7.08304 134.41 7.00255C134.49 6.92206 134.49 6.76108 134.49 6.68059C134.49 6.51961 134.41 6.27815 134.249 6.19766C134.088 6.03668 133.847 5.95619 133.605 5.8757L132.801 5.63423C132.56 5.55375 132.238 5.47326 131.997 5.31228C131.755 5.1513 131.514 4.99032 131.353 4.74886C131.192 4.50739 131.112 4.10494 131.112 3.78299C131.112 3.46103 131.192 3.13908 131.353 2.81712C131.514 2.57565 131.675 2.33419 131.916 2.09272C132.157 1.93174 132.479 1.77076 132.801 1.69027C133.123 1.60979 133.444 1.5293 133.766 1.5293C134.168 1.5293 134.57 1.60979 134.892 1.69027C135.294 1.77076 135.616 2.01223 135.857 2.2537L134.973 3.46103Z" fill="white"/>
<path d="M138.352 1.77075H139.88V4.3464H142.856V1.77075H144.384V8.77329H142.856V5.71471H139.96V8.6928H138.432L138.352 1.77075Z" fill="white"/>
<path d="M147.119 1.77075H151.865V3.21955H148.647V4.50738H151.704V5.95618H148.728V7.40498H152.106V8.85378H147.2L147.119 1.77075Z" fill="white"/>
<path d="M154.439 1.77075H157.094C157.416 1.77075 157.737 1.77075 158.059 1.85124C158.381 1.93173 158.622 2.01222 158.863 2.1732C159.105 2.33417 159.266 2.57564 159.427 2.81711C159.587 3.13906 159.668 3.46102 159.668 3.86346C159.668 4.3464 159.507 4.74884 159.266 5.15129C159.024 5.47324 158.622 5.71471 158.14 5.7952L159.909 8.77329H158.059L156.611 5.95618H155.807V8.77329H154.439V1.77075ZM155.968 4.58786H156.853H157.255C157.416 4.58786 157.576 4.58786 157.657 4.50738C157.979 4.42689 158.14 4.10493 158.059 3.86346C158.059 3.70249 158.059 3.54151 157.979 3.46102C157.898 3.38053 157.818 3.30004 157.737 3.21955C157.657 3.13906 157.496 3.13906 157.335 3.05858H156.933H155.968V4.58786Z" fill="white"/>
<path d="M86.068 10.2221C85.9876 10.2221 85.8267 10.2221 85.7463 10.1416L81.8853 7.96841H75.2895C74.7264 7.96841 74.3242 7.56596 74.3242 7.00254V3.21956C74.3242 2.65614 74.7264 2.25369 75.2895 2.25369H81.8853L85.7463 0.080489C86.068 -0.080489 86.4702 0 86.6311 0.321956C86.7115 0.402445 86.7115 0.563423 86.7115 0.643912V9.4977C86.7115 9.73916 86.5506 9.90014 86.3898 10.0611C86.3093 10.1416 86.2289 10.2221 86.068 10.2221ZM75.2895 3.05858C75.209 3.05858 75.1286 3.13907 75.1286 3.21956V7.00254C75.1286 7.08303 75.209 7.16352 75.2895 7.16352H82.0462L85.9071 9.25623V0.965868L82.0462 3.05858H75.2895Z" fill="#829BC4"/>
<path d="M86.4688 7.08295V6.27806C87.1122 6.27806 87.5949 5.79513 87.5949 5.15122C87.5949 4.50731 87.1122 4.02437 86.4688 4.02437V3.21948C87.5144 3.21948 88.3992 4.10486 88.3992 5.15122C88.3992 6.19757 87.5144 7.08295 86.4688 7.08295Z" fill="#829BC4"/>
<path d="M77.3005 2.73657H76.4961V10.7855H77.3005V2.73657Z" fill="#829BC4"/>
<path d="M94.6734 495.41H95.9604L99.017 502.412H97.2474L96.6039 500.963H93.8691L93.306 502.412H91.6973L94.6734 495.41ZM95.2365 497.422L94.4321 499.595H96.1213L95.2365 497.422Z" fill="white"/>
<path d="M100.787 495.41H103.12C103.683 495.41 104.165 495.49 104.729 495.571C105.211 495.651 105.613 495.893 106.016 496.215C106.418 496.537 106.659 496.858 106.9 497.261C107.142 497.744 107.222 498.307 107.222 498.871C107.222 499.354 107.142 499.917 106.9 500.319C106.659 500.722 106.418 501.124 106.016 501.366C105.613 501.688 105.211 501.929 104.809 502.01C104.326 502.171 103.844 502.251 103.361 502.251H100.868L100.787 495.41ZM102.315 500.963H103.12C103.442 500.963 103.763 500.963 104.085 500.883C104.407 500.802 104.648 500.722 104.889 500.48C105.131 500.319 105.292 500.078 105.452 499.837C105.613 499.515 105.613 499.193 105.613 498.871C105.613 498.549 105.533 498.227 105.452 497.985C105.292 497.744 105.131 497.502 104.889 497.341C104.648 497.18 104.407 497.019 104.165 496.939C103.844 496.858 103.522 496.778 103.2 496.778H102.315V500.963Z" fill="white"/>
<path d="M108.75 495.41H110.52L112.209 499.998L113.978 495.41H115.587L112.691 502.412H111.485L108.75 495.41Z" fill="white"/>
<path d="M117.6 495.41H122.345V496.858H119.128V498.146H122.185V499.515H119.128V500.963H122.506V502.412H117.6V495.41Z" fill="white"/>
<path d="M124.918 495.41H127.572C127.894 495.41 128.296 495.41 128.618 495.49C128.94 495.571 129.181 495.651 129.422 495.812C129.664 495.973 129.825 496.215 129.985 496.456C130.146 496.778 130.227 497.1 130.227 497.502C130.227 497.985 130.146 498.388 129.825 498.79C129.583 499.112 129.181 499.354 128.698 499.434L130.468 502.412H128.698L127.251 499.595H126.446V502.412H124.918V495.41ZM126.446 498.307H127.331H127.733C127.894 498.307 128.055 498.307 128.135 498.227C128.457 498.146 128.618 497.824 128.538 497.583C128.538 497.422 128.538 497.261 128.457 497.18C128.377 497.1 128.296 497.019 128.216 496.939C128.135 496.858 127.975 496.858 127.814 496.858C127.653 496.858 127.492 496.858 127.412 496.858H126.446V498.307Z" fill="white"/>
<path d="M133.687 496.778H131.676V495.41H137.145V496.778H135.135V502.412H133.606L133.687 496.778Z" fill="white"/>
<path d="M139.156 495.41H140.685V502.412H139.156V495.41Z" fill="white"/>
<path d="M146.637 497.1C146.476 496.939 146.315 496.778 146.154 496.778C145.993 496.697 145.752 496.697 145.511 496.697C145.43 496.697 145.269 496.697 145.189 496.697C145.108 496.697 144.948 496.778 144.867 496.858C144.787 496.939 144.706 497.019 144.626 497.1C144.545 497.18 144.545 497.341 144.545 497.422C144.545 497.583 144.626 497.824 144.787 497.905C144.948 498.066 145.189 498.146 145.35 498.146L146.154 498.388C146.476 498.468 146.717 498.549 146.958 498.71C147.2 498.871 147.441 499.032 147.522 499.273C147.682 499.595 147.763 499.917 147.763 500.239C147.763 500.561 147.682 500.963 147.522 501.285C147.361 501.527 147.2 501.849 146.958 502.01C146.717 502.171 146.395 502.332 146.074 502.412C145.752 502.493 145.43 502.573 145.028 502.573C144.626 502.573 144.143 502.493 143.741 502.332C143.339 502.171 142.937 501.929 142.695 501.688L143.741 500.48C144.063 500.883 144.545 501.124 145.108 501.124C145.269 501.124 145.35 501.124 145.511 501.124C145.591 501.124 145.752 501.044 145.832 500.963C145.913 500.883 145.993 500.802 146.074 500.722C146.154 500.641 146.154 500.48 146.154 500.4C146.154 500.239 146.074 499.997 145.913 499.917C145.752 499.756 145.511 499.675 145.269 499.595C145.028 499.514 144.787 499.434 144.465 499.353C144.224 499.273 143.902 499.192 143.661 499.032C143.419 498.871 143.178 498.71 143.017 498.468C142.856 498.227 142.776 497.824 142.776 497.502C142.776 497.18 142.856 496.858 143.017 496.536C143.178 496.295 143.339 496.053 143.58 495.812C143.821 495.651 144.063 495.49 144.384 495.41C144.706 495.329 145.028 495.249 145.35 495.249C145.752 495.249 146.154 495.329 146.476 495.41C146.878 495.49 147.2 495.731 147.441 495.973L146.637 497.1Z" fill="white"/>
<path d="M150.096 495.41H154.841V496.858H151.624V498.146H154.681V499.515H151.624V500.963H155.002V502.412H150.096V495.41Z" fill="white"/>
<path d="M157.415 495.41H160.069C160.391 495.41 160.713 495.41 161.034 495.49C161.356 495.571 161.598 495.651 161.839 495.812C162.08 495.973 162.241 496.215 162.402 496.456C162.563 496.778 162.643 497.1 162.643 497.502C162.643 497.985 162.563 498.388 162.241 498.79C162 499.112 161.598 499.354 161.115 499.434L162.885 502.412H161.034L159.587 499.595H158.782V502.412H157.254L157.415 495.41ZM158.943 498.307H159.828H160.23C160.391 498.307 160.552 498.307 160.632 498.227C160.954 498.146 161.115 497.824 161.034 497.583C161.034 497.422 161.034 497.261 160.954 497.18C160.874 497.1 160.793 497.019 160.713 496.939C160.632 496.858 160.471 496.858 160.311 496.858C160.15 496.858 159.989 496.858 159.908 496.858H158.943V498.307Z" fill="white"/>
<path d="M80.5182 507H75.6116C74.8876 507 74.2441 506.356 74.2441 505.632V495.892C74.2441 495.168 74.8876 494.524 75.6116 494.524H80.5182C81.2422 494.524 81.8857 495.168 81.8857 495.892V505.632C81.8052 506.356 81.2422 507 80.5182 507ZM75.6116 495.329C75.2898 495.329 75.0485 495.57 75.0485 495.892V505.632C75.0485 505.954 75.2898 506.195 75.6116 506.195H80.5182C80.84 506.195 81.0813 505.954 81.0813 505.632V495.892C81.0813 495.57 80.84 495.329 80.5182 495.329H75.6116Z" fill="#829BC4"/>
<path d="M78.0235 505.551C77.5409 505.551 77.1387 505.149 77.1387 504.666C77.1387 504.183 77.5409 503.781 78.0235 503.781C78.5061 503.781 78.9083 504.183 78.9083 504.666C78.9887 505.149 78.5865 505.551 78.0235 505.551ZM78.0235 504.585C77.943 504.585 78.0235 504.585 78.0235 504.585C77.943 504.666 77.943 504.666 78.0235 504.585C78.1039 504.746 77.943 504.746 78.0235 504.585C78.1039 504.585 78.1039 504.585 78.0235 504.585Z" fill="#829BC4"/>
<path d="M79.3911 495.973H76.6562V497.18H79.3911V495.973Z" fill="#829BC4"/>
<path d="M72.7151 504.102C71.9912 504.102 71.3477 503.458 71.3477 502.734V492.995C71.3477 492.27 71.9912 491.626 72.7151 491.626H77.6217C78.3457 491.626 78.9892 492.27 78.9892 492.995H78.1848C78.1848 492.673 77.9435 492.431 77.6217 492.431H72.7151C72.3933 492.431 72.152 492.673 72.152 492.995V502.734C72.152 503.056 72.3933 503.297 72.7151 503.297V504.102Z" fill="#829BC4"/>
<g opacity="0.35">
<path opacity="0.35" d="M43.5974 282.597C61.2935 324.612 109.717 344.332 151.785 326.624C193.773 308.917 213.48 260.462 195.784 218.367C178.088 176.351 129.665 156.632 87.5964 174.339C57.0304 187.217 37.1625 217.24 37.082 250.401C37.082 261.509 39.2538 272.455 43.5974 282.597Z" fill="#829BC4"/>
</g>
<path d="M166.056 296.98C191.72 271.3 191.72 229.664 166.056 203.983C140.392 178.303 98.7827 178.303 73.1189 203.983C47.455 229.664 47.455 271.3 73.1189 296.98C98.7827 322.661 140.392 322.661 166.056 296.98Z" fill="white"/>
<path d="M160.632 32.5175V65.9205C160.632 69.14 157.978 71.7962 154.76 71.7962H79.5516C76.3341 71.7962 73.6797 69.14 73.6797 65.9205V32.5175C73.6797 29.298 76.3341 26.6418 79.5516 26.6418H154.76C158.058 26.6418 160.632 29.298 160.632 32.5175Z" fill="white"/>
<path d="M158.139 33.3224V65.0351C158.139 67.4497 156.128 69.4619 153.715 69.4619H80.5979C78.1848 69.4619 76.1738 67.4497 76.1738 65.0351V33.3224C76.1738 30.9077 78.1848 28.8955 80.5979 28.8955H153.715C156.209 28.8955 158.139 30.9077 158.139 33.3224Z" fill="#D7DAE2"/>
<g opacity="0.7">
<path opacity="0.7" d="M83.3333 33.9663H88.6421C89.0443 33.9663 89.3661 34.2883 89.3661 34.6907V40.003C89.3661 40.4054 89.0443 40.7274 88.6421 40.7274H83.3333C82.9311 40.7274 82.6094 40.4054 82.6094 40.003V34.6907C82.6094 34.2883 82.9311 33.9663 83.3333 33.9663Z" fill="white"/>
<path opacity="0.7" d="M111.326 35.415H92.9062V36.3809H111.326V35.415Z" fill="white"/>
<path opacity="0.7" d="M104.57 37.9102H92.9062V38.876H104.57V37.9102Z" fill="white"/>
</g>
<g opacity="0.7">
<path opacity="0.7" d="M83.3333 44.9934H88.6421C89.0443 44.9934 89.3661 45.3154 89.3661 45.7178V51.0301C89.3661 51.4325 89.0443 51.7545 88.6421 51.7545H83.3333C82.9311 51.7545 82.6094 51.4325 82.6094 51.0301V45.7178C82.6094 45.3154 82.9311 44.9934 83.3333 44.9934Z" fill="white"/>
<path opacity="0.7" d="M111.326 46.5227H92.9062V47.4886H111.326V46.5227Z" fill="white"/>
<path opacity="0.7" d="M104.57 49.0178H92.9062V49.9837H104.57V49.0178Z" fill="white"/>
</g>
<g opacity="0.7">
<path opacity="0.7" d="M83.3333 56.1008H88.6421C89.0443 56.1008 89.3661 56.4228 89.3661 56.8252V62.1375C89.3661 62.5399 89.0443 62.8619 88.6421 62.8619H83.3333C82.9311 62.8619 82.6094 62.5399 82.6094 62.1375V56.8252C82.6094 56.4228 82.9311 56.1008 83.3333 56.1008Z" fill="white"/>
<path opacity="0.7" d="M111.326 57.6301H92.9062V58.596H111.326V57.6301Z" fill="white"/>
<path opacity="0.7" d="M104.57 60.0447H92.9062V61.0105H104.57V60.0447Z" fill="white"/>
</g>
<g opacity="0.7">
<path opacity="0.7" d="M119.691 33.9663H125C125.402 33.9663 125.723 34.2883 125.723 34.6907V40.003C125.723 40.4054 125.402 40.7274 125 40.7274H119.691C119.289 40.7274 118.967 40.4054 118.967 40.003V34.6907C118.967 34.2883 119.289 33.9663 119.691 33.9663Z" fill="white"/>
<path opacity="0.7" d="M147.602 35.415H129.182V36.3809H147.602V35.415Z" fill="white"/>
<path opacity="0.7" d="M140.845 37.9102H129.182V38.876H140.845V37.9102Z" fill="white"/>
</g>
<g opacity="0.7">
<path opacity="0.7" d="M119.691 44.9934H125C125.402 44.9934 125.723 45.3154 125.723 45.7178V51.0301C125.723 51.4325 125.402 51.7545 125 51.7545H119.691C119.289 51.7545 118.967 51.4325 118.967 51.0301V45.7178C118.967 45.3154 119.289 44.9934 119.691 44.9934Z" fill="white"/>
<path opacity="0.7" d="M147.602 46.5227H129.182V47.4886H147.602V46.5227Z" fill="white"/>
<path opacity="0.7" d="M140.845 49.0178H129.182V49.9837H140.845V49.0178Z" fill="white"/>
</g>
<g opacity="0.7">
<path opacity="0.7" d="M119.691 56.1008H125C125.402 56.1008 125.723 56.4228 125.723 56.8252V62.1375C125.723 62.5399 125.402 62.8619 125 62.8619H119.691C119.289 62.8619 118.967 62.5399 118.967 62.1375V56.8252C118.967 56.4228 119.289 56.1008 119.691 56.1008Z" fill="white"/>
<path opacity="0.7" d="M147.602 57.6301H129.182V58.596H147.602V57.6301Z" fill="white"/>
<path opacity="0.7" d="M140.845 60.0447H129.182V61.0105H140.845V60.0447Z" fill="white"/>
</g>
<path d="M27.75 474.322L66.9228 427.638H170.606L206.561 473.839L27.75 474.322Z" fill="url(#paint12_linear_3972_20090)"/>
<path d="M136.823 454.763L152.347 467.077C153.956 468.285 156.208 468.285 157.898 467.077L173.422 454.763C174.629 453.877 174.95 452.268 174.065 450.98C173.905 450.738 173.663 450.497 173.422 450.336L157.898 438.021C156.289 436.814 154.037 436.814 152.347 438.021L136.823 450.336C135.617 451.221 135.375 452.911 136.18 454.119C136.341 454.441 136.582 454.602 136.823 454.763Z" fill="white"/>
<path d="M174.387 452.67H166.504L157.736 445.667C156.127 444.46 153.875 444.46 152.186 445.667L143.338 452.67H135.455V455.407C135.455 455.407 135.455 460.558 135.536 460.558C135.616 461.282 136.018 462.007 136.662 462.49L152.186 474.804C153.795 476.012 156.047 476.012 157.736 474.804L173.26 462.49C173.824 462.007 174.226 461.443 174.306 460.719L174.387 452.67Z" fill="#EEF0F6"/>
<path d="M136.743 454.602L152.267 466.917C153.876 468.124 156.128 468.124 157.817 466.917L173.342 454.602C174.548 453.716 174.87 452.026 173.985 450.819C173.824 450.577 173.583 450.336 173.342 450.175L157.737 437.86C156.128 436.653 153.876 436.653 152.187 437.86L136.743 450.175C135.536 451.06 135.215 452.67 136.099 453.958C136.26 454.199 136.421 454.441 136.743 454.602Z" fill="#D7DAE2"/>
<path d="M144.223 450.094H145.992C146.394 450.094 146.797 450.175 147.199 450.255C147.601 450.336 147.923 450.497 148.245 450.738C148.566 450.98 148.808 451.221 148.968 451.624C149.129 452.026 149.21 452.428 149.21 452.911C149.21 453.314 149.129 453.716 148.968 454.119C148.808 454.441 148.566 454.763 148.325 454.924C148.003 455.165 147.681 455.326 147.36 455.487C146.958 455.568 146.555 455.648 146.153 455.648H144.223V450.094ZM145.429 454.36H146.073C146.314 454.36 146.636 454.36 146.877 454.28C147.118 454.199 147.279 454.119 147.521 454.038C147.681 453.877 147.842 453.716 147.923 453.555C148.003 453.314 148.084 452.992 148.084 452.75C148.084 452.509 148.003 452.267 147.923 452.026C147.842 451.865 147.681 451.704 147.521 451.543C147.36 451.382 147.118 451.302 146.958 451.302C146.716 451.221 146.475 451.221 146.234 451.221H145.51L145.429 454.36Z" fill="#778299"/>
<path d="M152.911 451.382C152.831 451.221 152.67 451.141 152.509 451.141C152.187 450.98 151.785 450.98 151.544 451.141C151.463 451.221 151.383 451.221 151.383 451.302C151.303 451.382 151.303 451.463 151.303 451.543C151.303 451.704 151.383 451.865 151.463 451.946C151.624 452.026 151.785 452.107 151.946 452.187L152.59 452.348C152.831 452.429 152.992 452.509 153.233 452.589C153.394 452.67 153.555 452.831 153.716 453.072C153.877 453.314 153.877 453.555 153.877 453.797C153.877 454.038 153.796 454.36 153.716 454.602C153.635 454.843 153.474 455.004 153.233 455.165C153.072 455.326 152.831 455.407 152.59 455.487C152.348 455.568 152.027 455.568 151.785 455.568C151.463 455.568 151.142 455.487 150.82 455.407C150.498 455.326 150.257 455.085 150.016 454.843L150.9 453.877C151.061 454.038 151.222 454.199 151.383 454.28C151.544 454.36 151.785 454.441 151.946 454.441C152.027 454.441 152.107 454.441 152.268 454.441C152.348 454.441 152.429 454.36 152.509 454.36C152.59 454.28 152.67 454.28 152.67 454.199C152.75 454.119 152.75 454.038 152.75 453.958C152.75 453.797 152.67 453.636 152.59 453.555C152.429 453.475 152.268 453.394 152.107 453.314L151.463 453.153C151.222 453.072 151.061 452.992 150.82 452.911C150.659 452.831 150.498 452.67 150.337 452.428C150.176 452.187 150.096 451.946 150.176 451.704C150.176 451.463 150.257 451.141 150.337 450.899C150.418 450.658 150.579 450.497 150.82 450.336C150.981 450.175 151.222 450.094 151.463 450.014C151.705 449.933 152.027 449.933 152.268 449.933C152.59 449.933 152.911 450.014 153.153 450.094C153.474 450.175 153.716 450.336 153.957 450.497L152.911 451.382Z" fill="#778299"/>
<path d="M154.842 450.094H156.853C157.094 450.094 157.416 450.094 157.657 450.175C157.898 450.255 158.14 450.336 158.301 450.416C158.461 450.577 158.622 450.738 158.783 450.899C158.864 451.141 158.944 451.463 158.944 451.704C158.944 451.946 158.864 452.267 158.783 452.509C158.703 452.75 158.542 452.911 158.381 452.992C158.22 453.153 157.979 453.233 157.738 453.233C157.496 453.314 157.174 453.314 156.933 453.314H156.048V455.407H154.842V450.094ZM156.048 452.348H156.853C156.933 452.348 157.094 452.348 157.174 452.348C157.255 452.348 157.335 452.267 157.416 452.267C157.496 452.187 157.577 452.106 157.657 452.026C157.738 451.945 157.738 451.785 157.738 451.704C157.738 451.624 157.738 451.463 157.657 451.382C157.577 451.302 157.496 451.221 157.416 451.221C157.335 451.141 157.174 451.141 157.094 451.141H156.772H156.048V452.348Z" fill="#778299"/>
<path d="M163.447 452.187H163.849H164.171C164.251 452.187 164.332 452.106 164.412 452.106C164.493 452.026 164.573 452.026 164.573 451.945C164.654 451.865 164.654 451.704 164.654 451.623C164.654 451.462 164.573 451.301 164.493 451.221C164.332 451.141 164.171 451.06 164.01 451.06C163.849 451.06 163.688 451.141 163.527 451.221C163.447 451.301 163.367 451.462 163.286 451.623L161.999 451.382C162.08 451.141 162.16 450.98 162.24 450.738C162.321 450.577 162.482 450.416 162.643 450.336C162.803 450.255 163.045 450.175 163.206 450.094C163.447 450.014 163.608 450.014 163.849 450.014C164.09 450.014 164.332 450.014 164.573 450.094C164.814 450.175 164.975 450.255 165.136 450.336C165.297 450.497 165.458 450.658 165.538 450.819C165.619 451.06 165.699 451.221 165.699 451.463C165.699 451.784 165.619 452.026 165.458 452.267C165.297 452.509 165.056 452.67 164.734 452.67C164.895 452.67 165.056 452.75 165.136 452.831C165.297 452.911 165.377 452.992 165.458 453.072C165.538 453.153 165.619 453.314 165.619 453.475C165.699 453.636 165.699 453.797 165.699 453.958C165.699 454.199 165.619 454.441 165.538 454.682C165.458 454.924 165.297 455.085 165.136 455.165C164.975 455.326 164.734 455.406 164.493 455.487C164.251 455.567 164.01 455.567 163.769 455.567C163.367 455.567 162.884 455.487 162.482 455.245C162.08 455.004 161.838 454.602 161.758 454.199L162.964 453.958C162.964 454.119 163.045 454.28 163.206 454.441C163.367 454.602 163.527 454.602 163.769 454.602C164.01 454.602 164.171 454.521 164.332 454.441C164.493 454.28 164.493 454.119 164.493 453.958C164.493 453.797 164.493 453.716 164.412 453.636C164.332 453.555 164.251 453.475 164.171 453.475C164.09 453.394 163.93 453.394 163.849 453.394H163.206L163.447 452.187Z" fill="#778299"/>
<path d="M99.741 454.763L115.265 467.077C116.874 468.285 119.126 468.285 120.816 467.077L136.34 454.763C137.546 453.877 137.868 452.187 136.983 450.98C136.822 450.738 136.581 450.497 136.34 450.336L120.816 438.021C119.207 436.814 116.955 436.814 115.265 438.021L99.741 450.416C98.5345 451.302 98.2127 452.992 99.0975 454.199C99.2584 454.441 99.4997 454.602 99.741 454.763Z" fill="white"/>
<path d="M137.306 452.67H129.424L120.656 445.667C119.047 444.46 116.795 444.46 115.106 445.667L106.258 452.67H98.375V455.407C98.375 455.407 98.375 460.558 98.4554 460.558C98.6163 461.282 98.9381 462.007 99.5816 462.49L115.106 474.804C116.715 476.012 118.967 476.012 120.656 474.804L136.18 462.49C136.743 462.007 137.146 461.443 137.226 460.719L137.306 452.67Z" fill="#EEF0F6"/>
<path d="M99.5809 454.602L115.105 466.917C116.714 468.124 118.966 468.124 120.655 466.917L136.18 454.602C137.386 453.716 137.708 452.107 136.823 450.819C136.662 450.577 136.421 450.336 136.18 450.175L120.655 437.86C119.047 436.653 116.794 436.653 115.105 437.86L99.5809 450.175C98.3743 451.06 98.0526 452.67 98.9374 453.958C99.0983 454.199 99.3396 454.441 99.5809 454.602Z" fill="#D7DAE2"/>
<path d="M107.062 449.772H108.832C109.234 449.772 109.636 449.853 110.039 449.933C110.441 450.014 110.763 450.175 111.084 450.416C111.406 450.658 111.647 450.899 111.808 451.221C111.969 451.623 112.05 452.026 112.05 452.509C112.05 452.911 111.969 453.314 111.808 453.716C111.647 454.038 111.406 454.28 111.165 454.521C110.843 454.763 110.521 454.924 110.2 455.004C109.797 455.085 109.395 455.165 109.073 455.165H107.143V449.772H107.062ZM108.269 454.119H108.913C109.154 454.119 109.476 454.119 109.717 454.038C109.958 453.958 110.119 453.877 110.36 453.797C110.521 453.636 110.682 453.475 110.763 453.314C110.843 453.072 110.923 452.75 110.923 452.509C110.923 452.267 110.843 452.026 110.763 451.784C110.682 451.623 110.521 451.463 110.36 451.302C110.2 451.141 109.958 451.06 109.797 450.98C109.556 450.899 109.315 450.899 109.073 450.899H108.349L108.269 454.119Z" fill="#778299"/>
<path d="M115.829 451.06C115.749 450.899 115.588 450.819 115.427 450.819C115.266 450.738 115.105 450.738 114.945 450.738C114.864 450.738 114.784 450.738 114.703 450.738C114.623 450.738 114.542 450.819 114.462 450.819C114.381 450.899 114.301 450.899 114.301 450.98C114.14 451.221 114.221 451.463 114.381 451.624C114.542 451.704 114.703 451.785 114.864 451.865L115.508 452.026C115.749 452.107 115.91 452.187 116.151 452.268C116.312 452.348 116.473 452.509 116.634 452.75C116.795 452.992 116.875 453.314 116.795 453.555C116.795 453.797 116.714 454.119 116.634 454.36C116.553 454.602 116.392 454.763 116.151 454.924C115.99 455.085 115.749 455.165 115.508 455.246C115.266 455.326 114.945 455.326 114.703 455.326C114.381 455.326 114.06 455.246 113.738 455.165C113.416 455.085 113.094 454.843 112.934 454.602L113.818 453.636C113.979 453.797 114.06 453.958 114.301 454.038C114.462 454.119 114.703 454.199 114.864 454.199C114.945 454.199 115.025 454.199 115.186 454.199C115.266 454.199 115.347 454.119 115.427 454.119C115.508 454.038 115.588 454.038 115.588 453.958C115.668 453.877 115.668 453.797 115.668 453.716C115.668 453.555 115.588 453.394 115.508 453.314C115.347 453.233 115.186 453.153 115.025 453.072C114.864 452.992 114.623 452.911 114.381 452.911C114.14 452.831 113.979 452.75 113.738 452.67C113.577 452.59 113.416 452.429 113.255 452.187C113.094 451.946 113.094 451.704 113.094 451.463C113.094 451.221 113.175 450.899 113.255 450.658C113.336 450.416 113.497 450.255 113.738 450.094C113.899 449.933 114.14 449.853 114.381 449.772C114.623 449.692 114.945 449.692 115.186 449.692C115.508 449.692 115.829 449.772 116.071 449.853C116.392 449.933 116.634 450.094 116.875 450.255L115.829 451.06Z" fill="#778299"/>
<path d="M117.76 449.772H119.771C120.012 449.772 120.334 449.772 120.575 449.853C120.816 449.933 121.058 450.014 121.219 450.094C121.379 450.255 121.54 450.416 121.701 450.577C121.942 451.06 121.942 451.704 121.701 452.187C121.621 452.428 121.46 452.589 121.299 452.67C121.138 452.831 120.897 452.911 120.656 452.911C120.414 452.992 120.092 452.992 119.851 452.992H118.966V455.085H117.76V449.772ZM118.886 452.026H119.69C119.771 452.026 119.932 452.026 120.012 452.026C120.092 452.026 120.173 451.945 120.253 451.945C120.334 451.865 120.414 451.865 120.414 451.784C120.495 451.704 120.495 451.543 120.495 451.463C120.495 451.382 120.495 451.221 120.414 451.141C120.334 451.06 120.253 450.98 120.173 450.98C120.092 450.899 119.932 450.899 119.851 450.899H119.529H118.886V452.026Z" fill="#778299"/>
<path d="M125.08 453.958L127.171 452.026C127.252 451.946 127.413 451.785 127.493 451.704C127.574 451.624 127.654 451.463 127.654 451.302C127.654 451.141 127.574 450.98 127.493 450.899C127.332 450.819 127.171 450.738 127.011 450.738C126.85 450.738 126.608 450.819 126.528 450.899C126.367 451.06 126.367 451.221 126.287 451.382L125.161 451.302C125.161 451.06 125.241 450.819 125.321 450.577C125.402 450.416 125.563 450.175 125.724 450.094C125.884 449.933 126.126 449.853 126.287 449.772C126.528 449.692 126.769 449.611 127.091 449.611C127.332 449.611 127.574 449.611 127.815 449.692C128.056 449.772 128.217 449.853 128.378 450.014C128.539 450.175 128.7 450.336 128.78 450.497C128.861 450.738 128.941 450.98 128.941 451.221C128.941 451.382 128.941 451.543 128.861 451.704C128.861 451.865 128.78 451.946 128.7 452.107C128.619 452.187 128.539 452.348 128.458 452.428L128.217 452.67L126.528 454.119H128.941V455.165H125.161L125.08 453.958Z" fill="#778299"/>
<path d="M62.3387 454.763L77.863 467.077C79.4718 468.285 81.724 468.285 83.4132 467.077L98.9375 454.763C100.144 453.877 100.466 452.268 99.581 450.98C99.4201 450.738 99.1788 450.497 98.9375 450.336L83.4132 438.021C81.8044 436.814 79.5522 436.814 77.863 438.021L62.3387 450.336C61.1321 451.221 60.8104 452.911 61.6952 454.119C61.8561 454.441 62.0974 454.602 62.3387 454.763Z" fill="white"/>
<path d="M99.9022 452.67H92.0194L83.2517 445.667C81.643 444.46 79.3908 444.46 77.7016 445.667L68.8535 452.67H60.9707V455.407C60.9707 455.407 60.9707 460.558 61.0511 460.558C61.212 461.282 61.5338 462.007 62.1773 462.49L77.7016 474.804C79.3103 476.012 81.5626 476.012 83.2517 474.804L98.7761 462.49C99.3391 462.007 99.7413 461.443 99.8217 460.719L99.9022 452.67Z" fill="#EEF0F6"/>
<path d="M62.259 454.602L77.7833 466.917C79.392 468.124 81.6443 468.124 83.3335 466.917L98.8578 454.602C100.064 453.716 100.386 452.107 99.5013 450.819C99.3404 450.577 99.0991 450.336 98.8578 450.175L83.253 437.86C81.6443 436.653 79.392 436.653 77.7029 437.86L62.1785 450.175C60.972 451.06 60.6502 452.67 61.535 453.958C61.7764 454.199 62.0177 454.441 62.259 454.602Z" fill="#D7DAE2"/>
<path d="M69.7383 449.45H71.5883C71.9905 449.45 72.3927 449.531 72.7949 449.611C73.1971 449.692 73.5188 449.853 73.8406 450.094C74.1623 450.336 74.4036 450.577 74.5645 450.899C74.7254 451.302 74.8058 451.704 74.8058 452.187C74.8058 452.589 74.7254 452.992 74.5645 453.394C74.4036 453.716 74.1623 453.958 73.921 454.199C73.5993 454.441 73.2775 454.602 72.9558 454.682C72.5536 454.763 72.1514 454.843 71.8296 454.843H69.8992L69.7383 449.45ZM70.9448 453.797H71.5883C71.8296 453.797 72.1514 453.797 72.3927 453.716C72.634 453.636 72.7949 453.555 73.0362 453.475C73.1971 453.314 73.358 453.153 73.4384 452.992C73.5188 452.75 73.5993 452.429 73.5993 452.187C73.5993 451.946 73.5188 451.704 73.4384 451.463C73.358 451.302 73.1971 451.141 73.0362 450.98C72.8753 450.819 72.634 450.738 72.4731 450.658C72.2318 450.577 71.9905 450.577 71.7492 450.577H71.0253L70.9448 453.797Z" fill="#778299"/>
<path d="M78.4254 450.738C78.345 450.577 78.1841 450.497 78.0232 450.497C77.8623 450.416 77.7015 450.416 77.5406 450.416C77.4601 450.416 77.3797 450.416 77.2993 450.416C77.2188 450.416 77.1384 450.497 77.058 450.497C76.9775 450.497 76.8971 450.577 76.8971 450.658C76.8166 450.738 76.8166 450.819 76.8166 450.899C76.8166 451.06 76.8971 451.221 76.9775 451.302C77.1384 451.382 77.2993 451.463 77.4601 451.543C77.621 451.624 77.8623 451.704 78.1036 451.704C78.345 451.785 78.5058 451.865 78.7471 451.946C78.908 452.026 79.0689 452.187 79.2298 452.429C79.3906 452.67 79.4711 452.992 79.3906 453.233C79.3906 453.475 79.3102 453.797 79.2298 454.038C79.1493 454.28 78.9884 454.441 78.7471 454.602C78.5863 454.763 78.345 454.843 78.1036 454.924C77.8623 455.004 77.5406 455.004 77.2993 455.004C76.9775 455.004 76.6558 454.924 76.334 454.843C76.0123 454.763 75.6905 454.521 75.4492 454.28L76.334 453.314C76.4949 453.475 76.6558 453.636 76.8166 453.716C76.9775 453.797 77.2188 453.877 77.3797 453.877C77.4601 453.877 77.5406 453.877 77.7015 453.877C77.7819 453.877 77.8623 453.797 77.9428 453.797C78.0232 453.716 78.1036 453.716 78.1036 453.636C78.2645 453.394 78.1841 453.153 77.9428 452.992C77.7819 452.911 77.621 452.831 77.4601 452.75C77.2993 452.67 77.058 452.589 76.8166 452.589C76.5753 452.509 76.4145 452.429 76.1731 452.348C76.0123 452.268 75.8514 452.107 75.6905 451.946C75.5297 451.704 75.4492 451.463 75.5297 451.221C75.5297 450.98 75.6101 450.658 75.6905 450.416C75.771 450.175 75.9318 450.014 76.1731 449.853C76.334 449.692 76.5753 449.611 76.8166 449.531C77.058 449.45 77.3797 449.45 77.621 449.45C77.9428 449.45 78.2645 449.531 78.5058 449.611C78.8276 449.692 79.0689 449.853 79.3102 450.014L78.4254 450.738Z" fill="#778299"/>
<path d="M80.3558 449.45H82.3667C82.6081 449.45 82.9298 449.45 83.1711 449.531C83.4124 449.611 83.6537 449.692 83.8146 449.772C83.9755 449.933 84.1364 450.094 84.2168 450.255C84.2972 450.497 84.3777 450.819 84.3777 451.06C84.3777 451.302 84.2972 451.624 84.2168 451.865C84.1364 452.107 83.9755 452.268 83.8146 452.348C83.6537 452.509 83.4124 452.589 83.1711 452.589C82.9298 452.67 82.6081 452.67 82.3667 452.67H81.4819V454.763H80.2754L80.3558 449.45ZM81.5624 451.704H82.3667C82.4472 451.704 82.6081 451.704 82.6885 451.704C82.7689 451.704 82.8494 451.624 82.9298 451.624C83.0102 451.543 83.0907 451.543 83.0907 451.463C83.1711 451.382 83.1711 451.221 83.1711 451.141C83.1711 451.06 83.1711 450.899 83.0907 450.819C83.0102 450.738 82.9298 450.658 82.8494 450.658C82.7689 450.577 82.6081 450.577 82.5276 450.577H82.2059H81.5624V451.704Z" fill="#778299"/>
<path d="M89.5271 450.738L88.4814 451.704L87.8379 450.98L89.6075 449.45H90.6532V454.924H89.5271V450.738Z" fill="#778299"/>
<path d="M95.2366 268.189H96.5236L99.5802 275.272H97.8106L97.1671 273.743H94.4323L93.8692 275.272H92.0996L95.2366 268.189ZM95.8801 270.201L94.9953 272.455H96.7649L95.8801 270.201Z" fill="#181625"/>
<path d="M107.544 272.536C107.544 272.938 107.464 273.341 107.383 273.743C107.222 274.065 107.061 274.387 106.82 274.709C106.579 274.95 106.257 275.192 105.855 275.353C105.453 275.514 104.97 275.594 104.568 275.594C104.085 275.594 103.683 275.514 103.281 275.353C102.557 275.111 101.994 274.548 101.753 273.824C101.592 273.421 101.592 273.019 101.592 272.616V268.27H103.201V272.616C103.201 272.858 103.201 273.019 103.281 273.26C103.361 273.421 103.442 273.582 103.603 273.743C103.764 273.904 103.844 273.984 104.085 274.065C104.246 274.145 104.488 274.226 104.648 274.226C104.809 274.226 105.051 274.226 105.211 274.065C105.372 273.984 105.533 273.904 105.694 273.743C105.855 273.582 105.935 273.421 106.016 273.26C106.096 273.099 106.096 272.858 106.096 272.616V268.27H107.625L107.544 272.536Z" fill="#181625"/>
<path d="M114.863 270.04C114.703 269.879 114.542 269.718 114.3 269.638C113.496 269.316 112.611 269.477 112.048 270.121C111.887 270.362 111.726 270.604 111.646 270.845C111.405 271.409 111.405 272.053 111.646 272.697C111.726 272.938 111.887 273.18 112.048 273.421C112.209 273.662 112.45 273.823 112.692 273.904C112.933 273.984 113.255 274.065 113.496 274.065C113.818 274.065 114.059 273.984 114.381 273.904C114.622 273.743 114.863 273.582 115.024 273.34L116.311 274.306C115.99 274.709 115.587 275.031 115.185 275.272C114.703 275.433 114.22 275.594 113.737 275.594C113.174 275.594 112.692 275.514 112.209 275.353C111.726 275.192 111.324 274.95 111.002 274.628C110.681 274.306 110.359 273.904 110.198 273.421C109.796 272.455 109.796 271.328 110.198 270.362C110.359 269.879 110.681 269.477 111.002 269.155C111.324 268.833 111.807 268.592 112.209 268.431C112.692 268.27 113.255 268.189 113.737 268.189C113.979 268.189 114.14 268.189 114.381 268.27C114.622 268.27 114.783 268.35 115.024 268.431C115.266 268.511 115.427 268.592 115.668 268.753C115.829 268.914 116.07 269.075 116.231 269.236L114.863 270.04Z" fill="#181625"/>
<path d="M119.691 269.558H117.68V268.189H123.31V269.558H121.299V275.272H119.691V269.558Z" fill="#181625"/>
<path d="M125.24 268.189H126.849V275.272H125.24V268.189Z" fill="#181625"/>
<path d="M129.101 271.731C129.101 271.167 129.182 270.684 129.343 270.202C129.504 269.719 129.825 269.316 130.147 268.994C130.469 268.672 130.952 268.431 131.354 268.27C132.319 267.948 133.445 267.948 134.41 268.27C134.893 268.431 135.295 268.672 135.617 268.994C135.939 269.316 136.26 269.719 136.421 270.202C136.823 271.167 136.823 272.294 136.421 273.26C136.26 273.743 135.939 274.146 135.617 274.467C135.295 274.789 134.893 275.031 134.41 275.192C133.445 275.514 132.319 275.514 131.354 275.192C130.871 275.031 130.469 274.789 130.147 274.467C129.825 274.146 129.504 273.743 129.343 273.26C129.182 272.777 129.021 272.294 129.101 271.731ZM130.71 271.731C130.71 272.053 130.791 272.375 130.871 272.616C130.952 272.858 131.112 273.099 131.354 273.341C131.515 273.582 131.756 273.743 132.078 273.824C132.399 273.904 132.641 273.985 132.962 273.985C133.284 273.985 133.606 273.904 133.847 273.824C134.089 273.743 134.33 273.582 134.571 273.341C134.732 273.099 134.893 272.858 135.054 272.616C135.295 272.053 135.295 271.409 135.054 270.765C134.973 270.523 134.813 270.282 134.571 270.041C134.41 269.799 134.169 269.638 133.847 269.558C133.526 269.477 133.284 269.397 132.962 269.397C132.641 269.397 132.319 269.477 132.078 269.558C131.515 269.799 131.112 270.202 130.952 270.765C130.71 271.087 130.71 271.409 130.71 271.731Z" fill="#181625"/>
<path d="M138.994 268.189H141.166L144.223 273.099V268.189H145.831V275.272H143.82L140.683 270.201V275.272H139.075L138.994 268.189Z" fill="#181625"/>
<path d="M151.865 269.879C151.704 269.719 151.543 269.558 151.382 269.558C151.221 269.477 150.98 269.477 150.739 269.477C150.658 269.477 150.497 269.477 150.417 269.477C150.337 269.477 150.176 269.558 150.095 269.638C150.015 269.719 149.934 269.799 149.854 269.879C149.774 269.96 149.774 270.121 149.774 270.201C149.774 270.362 149.854 270.604 150.015 270.684C150.176 270.845 150.417 270.926 150.658 271.006L151.463 271.248C151.784 271.328 152.026 271.409 152.267 271.57C152.508 271.731 152.75 271.892 152.911 272.133C153.071 272.455 153.152 272.777 153.152 273.099C153.152 273.421 153.071 273.823 152.911 274.145C152.75 274.467 152.589 274.709 152.348 274.87C152.106 275.111 151.784 275.192 151.463 275.272C150.658 275.514 149.854 275.433 149.13 275.192C148.728 275.031 148.326 274.789 148.004 274.467L149.13 273.26C149.291 273.501 149.532 273.662 149.774 273.743C150.015 273.823 150.256 273.904 150.497 273.904C150.658 273.904 150.739 273.904 150.9 273.823C151.061 273.823 151.141 273.743 151.221 273.662C151.302 273.582 151.382 273.501 151.463 273.421C151.543 273.341 151.543 273.18 151.543 273.099C151.543 272.938 151.463 272.697 151.302 272.616C151.141 272.455 150.9 272.375 150.658 272.294C150.417 272.214 150.176 272.133 149.854 272.053C149.613 271.972 149.291 271.811 149.05 271.731C148.808 271.57 148.567 271.409 148.406 271.167C148.245 270.845 148.165 270.523 148.165 270.201C148.165 269.558 148.406 268.914 148.969 268.511C149.21 268.35 149.532 268.189 149.854 268.109C150.176 268.028 150.497 267.948 150.9 267.948C151.302 267.948 151.704 268.028 152.106 268.109C152.508 268.189 152.83 268.431 153.152 268.672L151.865 269.879Z" fill="#181625"/>
<path d="M126.719 246.803H126.636L123.969 254.456H122.199L119.526 246.803H119.448L118.832 254.534H115.59L116.812 241.483H120.189L123.081 249.006L125.973 241.483H129.403L130.572 254.534H127.335L126.719 246.803Z" fill="black"/>
<path d="M141.584 249.683L140.054 244.896L138.556 249.683H141.584ZM142.482 252.481H137.632L136.99 254.533H133.717L138.154 241.482H141.96L146.386 254.533H143.134L142.482 252.481Z" fill="black"/>
<path d="M161.939 254.523L157.131 247.716L161.527 241.494H157.867L155.299 245.127L152.736 241.494H148.868L153.368 247.862L148.664 254.523H152.318L155.2 250.451L158.076 254.523H161.939Z" fill="black"/>
<g clip-path="url(#clip0_3972_20090)">
<path d="M91.418 242.73L86.5832 236.292C86.438 236.097 86.2184 236 86 236V252.979C86.2184 252.979 86.4368 253.076 86.5832 253.27L91.418 259.708C91.5632 259.903 91.7816 260 92 260V243.02C91.7816 243.02 91.5632 242.923 91.418 242.728V242.73Z" fill="#7B32CD"/>
<path d="M85.418 236.292L80.1464 243.31C80.0516 243.436 80 243.59 80 243.748V258.301C80 259 80.8916 259.298 81.3116 258.739L85.418 253.272C85.5632 253.077 85.7828 252.98 86.0012 252.98V236C85.7828 236 85.5644 236.097 85.418 236.292Z" fill="#5803AF"/>
<path d="M103.855 243.31L98.5832 236.292C98.4368 236.097 98.2184 236 98 236V252.979C98.2184 252.979 98.4368 253.076 98.5832 253.27L102.69 258.738C103.11 259.297 104.001 259 104.001 258.3V243.747C104.001 243.589 103.95 243.436 103.855 243.309V243.31Z" fill="#6E5BF6"/>
<path d="M97.418 236.292L92.5832 242.73C92.438 242.924 92.2184 243.021 92 243.021V260C92.2184 260 92.4368 259.903 92.5832 259.708L97.418 253.27C97.5632 253.076 97.7816 252.98 98 252.979V236C97.7816 236 97.5632 236.097 97.418 236.292Z" fill="#5406C6"/>
</g>
<defs>
<linearGradient id="paint0_linear_3972_20090" x1="134.54" y1="58.0407" x2="134.54" y2="237.756" gradientUnits="userSpaceOnUse">
<stop stop-color="#105FFB" stop-opacity="0.8"/>
<stop offset="1" stop-color="#105FFB" stop-opacity="0.5"/>
</linearGradient>
<linearGradient id="paint1_linear_3972_20090" x1="149.825" y1="156.004" x2="149.825" y2="118" gradientUnits="userSpaceOnUse">
<stop stop-color="white" stop-opacity="0.5"/>
<stop offset="1" stop-color="white" stop-opacity="0.2"/>
</linearGradient>
<linearGradient id="paint2_linear_3972_20090" x1="165.999" y1="152.301" x2="165.999" y2="157.364" gradientUnits="userSpaceOnUse">
<stop stop-color="white" stop-opacity="0.5"/>
<stop offset="1" stop-color="white"/>
</linearGradient>
<linearGradient id="paint3_linear_3972_20090" x1="105.581" y1="58.0407" x2="105.581" y2="229.555" gradientUnits="userSpaceOnUse">
<stop stop-color="#00B6E0" stop-opacity="0.2"/>
<stop offset="1" stop-color="#12E3A3" stop-opacity="0.8"/>
</linearGradient>
<linearGradient id="paint4_linear_3972_20090" x1="90.3515" y1="149.787" x2="59.2277" y2="171.408" gradientUnits="userSpaceOnUse">
<stop stop-color="white" stop-opacity="0.5"/>
<stop offset="1" stop-color="white" stop-opacity="0.2"/>
</linearGradient>
<linearGradient id="paint5_linear_3972_20090" x1="57.552" y1="152.728" x2="61.7025" y2="149.845" gradientUnits="userSpaceOnUse">
<stop stop-color="white" stop-opacity="0.5"/>
<stop offset="1" stop-color="white"/>
</linearGradient>
<linearGradient id="paint6_linear_3972_20090" x1="134.536" y1="271.739" x2="134.536" y2="427.533" gradientUnits="userSpaceOnUse">
<stop stop-color="#105FFB" stop-opacity="0.5"/>
<stop offset="1" stop-color="#84DFFF" stop-opacity="0.2"/>
</linearGradient>
<linearGradient id="paint7_linear_3972_20090" x1="151.905" y1="353.483" x2="151.905" y2="388.582" gradientUnits="userSpaceOnUse">
<stop stop-color="white" stop-opacity="0.1"/>
<stop offset="1" stop-color="white" stop-opacity="0.33"/>
</linearGradient>
<linearGradient id="paint8_linear_3972_20090" x1="168.914" y1="363.693" x2="164.908" y2="366.783" gradientUnits="userSpaceOnUse">
<stop stop-color="white" stop-opacity="0.33"/>
<stop offset="1" stop-color="white" stop-opacity="0.7"/>
</linearGradient>
<linearGradient id="paint9_linear_3972_20090" x1="105.577" y1="427.533" x2="105.577" y2="267.594" gradientUnits="userSpaceOnUse">
<stop stop-color="#12E3A3" stop-opacity="0.8"/>
<stop offset="1" stop-color="#12E3A3" stop-opacity="0.5"/>
</linearGradient>
<linearGradient id="paint10_linear_3972_20090" x1="92.668" y1="353.926" x2="92.668" y2="394.323" gradientUnits="userSpaceOnUse">
<stop stop-color="white" stop-opacity="0.5"/>
<stop offset="1" stop-color="white" stop-opacity="0.3"/>
</linearGradient>
<linearGradient id="paint11_linear_3972_20090" x1="74.6477" y1="357.773" x2="74.6477" y2="352.711" gradientUnits="userSpaceOnUse">
<stop stop-color="white" stop-opacity="0.5"/>
<stop offset="1" stop-color="white"/>
</linearGradient>
<linearGradient id="paint12_linear_3972_20090" x1="117.16" y1="356.896" x2="117.16" y2="473.042" gradientUnits="userSpaceOnUse">
<stop stop-color="#829BC4" stop-opacity="0.4"/>
<stop offset="1" stop-color="#829BC4" stop-opacity="0"/>
</linearGradient>
<clipPath id="clip0_3972_20090">
<rect width="24" height="24" fill="white" transform="translate(80 236)"/>
</clipPath>
</defs>
</svg>
