<svg width="127" height="40" viewBox="0 0 127 40" fill="none" xmlns="http://www.w3.org/2000/svg">
<path d="M66.6101 9.88803L65.8892 7.78155H61.9194C61.8103 8.11069 61.6965 8.46333 61.5732 8.84419L61.2459 9.89273H59.3203L62.8822 0.12207H64.9501L68.4124 9.89273H66.6101V9.88803ZM63.8972 2.24265C63.6553 2.90563 63.4277 3.54979 63.2095 4.17515C62.9913 4.80051 62.7494 5.46349 62.4886 6.16408H65.3201L63.8972 2.24265Z" fill="#777777"/>
<path d="M74.1869 0.155273H70.5586V9.91653H72.2328V6.59225H74.1822C76.1694 6.59225 77.1322 5.7647 77.1322 4.05789V2.67552C77.1417 0.978116 76.1742 0.155273 74.1869 0.155273ZM72.2376 1.68811H74.1442C75.2778 1.68811 75.4627 1.98433 75.4627 2.68492V4.05319C75.4627 4.74438 75.273 5.05001 74.1442 5.05001H72.2376V1.68811Z" fill="#777777"/>
<path d="M82.7084 0.155273H79.0801V9.91653H80.7543V6.59225H82.7036C84.6909 6.59225 85.6537 5.7647 85.6537 4.05789V2.67552C85.6585 0.978116 84.6909 0.155273 82.7084 0.155273ZM80.7543 1.68811H82.661C83.7945 1.68811 83.9795 1.98433 83.9795 2.68492V4.05319C83.9795 4.74438 83.7898 5.05001 82.661 5.05001H80.7543V1.68811Z" fill="#777777"/>
<path d="M89.2725 8.93888H93.8209V9.91689H88.2812V0.165039H89.2725V8.93888Z" fill="#777777"/>
<path d="M104.043 0.165039H105.025L108.202 8.93888L111.39 0.165039H112.395L108.857 9.91689H107.548L104.043 0.165039Z" fill="#777777"/>
<path d="M115.448 9.91689H114.457V0.165039H115.448V9.91689Z" fill="#777777"/>
<path d="M120.199 1.33582V9.91219H119.27V0.165039H120.735L125.018 8.51101V0.165039H125.948V9.91689H124.762L120.199 1.33582Z" fill="#777777"/>
<path d="M102.533 7.07643C102.533 8.70331 101.513 10.034 98.976 10.034C96.4338 10.034 95.4141 8.70331 95.4141 7.07643V2.95753C95.4141 1.33065 96.4338 0 98.976 0C101.518 0 102.533 1.33065 102.533 2.95753V7.07643ZM96.3342 7.09054C96.3342 8.49172 97.1974 9.27695 99.0044 9.27695C100.816 9.27695 101.675 8.49172 101.675 7.09054V2.94342C101.675 1.54224 100.811 0.757014 99.0044 0.757014C97.1927 0.757014 96.3342 1.54224 96.3342 2.94342V7.09054Z" fill="#777777"/>
<path d="M74.0659 36.5775H65.9082L64.8078 40.0005H59.3203L66.7856 18.2305H73.1838L80.6491 40.0005H75.1568L74.0659 36.5775ZM72.5577 31.9131L69.9871 23.9198L67.4164 31.9131H72.5577Z" fill="black"/>
<path d="M99.8355 35.2092V40.0005H85.4219V18.2305H90.4398V35.2139H99.8355V35.2092Z" fill="black"/>
<path d="M126.727 39.9993L118.621 28.6206L126.029 18.2246H119.859L115.538 24.2948L111.213 18.2246H104.696L112.28 28.8651L104.35 39.9993H110.515L115.363 33.1956L120.21 39.9993H126.727Z" fill="black"/>
<g clip-path="url(#clip0_1686_1682)">
<path d="M24.9773 10.3994C21.5343 10.3994 17.1437 17.9335 13.7151 17.9335L6.95926 17.9407C6.32997 17.9407 5.81641 18.4531 5.81641 19.0809V29.4367L12.4782 29.4294C15.8996 29.4294 20.2901 21.9531 23.7404 21.9531H32.7603C33.5487 21.8809 34.1635 21.2314 34.1635 20.4232V10.3994H24.9773Z" fill="#0092FF"/>
<path d="M5.82277 19.0806C5.82277 18.4527 6.33633 17.9403 6.96562 17.9403L13.7215 17.9331C17.1428 17.9331 21.5334 10.399 24.9837 10.399H34.1699V1.19795C34.1699 0.685572 33.4755 0 32.6292 0H23.1464C19.7034 0 14.6329 7.31036 11.2043 7.31036H1.54068C0.687158 7.31036 0 8.00315 0 8.84749V27.8847C0 28.7363 0.694391 29.4219 1.54068 29.4219H5.82277V19.0806Z" fill="#105FFB"/>
<path d="M39.0683 10.3984H34.1713V20.4222C34.1713 21.2233 33.5493 21.88 32.7681 21.9521H23.7482C20.3052 21.9521 15.9146 29.4285 12.486 29.4285L5.82422 29.4357V38.745C5.82422 39.3729 6.33778 39.8852 6.96707 39.8852L15.3432 39.878C18.6705 39.878 23.7482 32.5388 26.2871 32.5388H38.8585C39.4878 32.5388 40.0013 32.0264 40.0013 31.3986V11.5387C40.0013 10.9108 39.4878 10.3984 39.0683 10.3984Z" fill="#84DFFF"/>
</g>
<defs>
<clipPath id="clip0_1686_1682">
<rect width="40" height="40" fill="white"/>
</clipPath>
</defs>
</svg>
