<svg width="62" height="20" viewBox="0 0 62 20" fill="none" xmlns="http://www.w3.org/2000/svg">
<g clip-path="url(#clip0_1134_3093)">
<path d="M36.658 13.2153H32.8533L32.3419 14.8219H29.7812L33.2631 4.60663H36.2482L39.73 14.8219H37.1694L36.658 13.2153ZM35.958 11.026L34.7575 7.27354L33.5569 11.026H35.958Z" fill="black"/>
<path d="M48.6739 12.5711V14.8183H41.9531V4.60297H44.2925V12.5711H48.6739Z" fill="black"/>
<path d="M61.2122 14.8219L57.4328 9.48084L60.8857 4.60297H58.0132L55.9966 7.45081L53.98 4.60297H50.9406L54.4769 9.59664L50.7773 14.8219H53.6535L55.9131 11.6267L58.1764 14.8219H61.2122Z" fill="black"/>
<path d="M12.5239 5.21454C10.7974 5.21454 8.59586 8.99236 6.87667 8.99236L3.48908 8.99597C3.17353 8.99597 2.91602 9.25289 2.91602 9.56771V14.7604L6.25646 14.7568C7.97202 14.7568 10.1736 11.0079 11.9037 11.0079H16.4265C16.8218 10.9717 17.1301 10.6461 17.1301 10.2408V5.21454H12.5239Z" fill="#0092FF"/>
<path d="M2.91972 9.56758C2.91972 9.25276 3.17723 8.99584 3.49278 8.99584L6.88037 8.99222C8.59593 8.99222 10.7975 5.2144 12.5276 5.2144H17.1338V0.600688C17.1338 0.343767 16.7856 0 16.3613 0H11.6063C9.87988 0 7.33737 3.66564 5.61819 3.66564H0.772546C0.344562 3.66564 0 4.01303 0 4.4364V13.9823C0 14.4093 0.348189 14.753 0.772546 14.753H2.91972V9.56758Z" fill="#105FFB"/>
<path d="M19.5895 5.21423H17.134V10.2405C17.134 10.6421 16.8221 10.9714 16.4304 11.0076H11.9076C10.1811 11.0076 7.97956 14.7565 6.26037 14.7565L2.91992 14.7601V19.4281C2.91992 19.7429 3.17744 19.9998 3.49298 19.9998L7.69302 19.9962C9.36143 19.9962 11.9076 16.3161 13.1806 16.3161H19.4843C19.7999 16.3161 20.0574 16.0592 20.0574 15.7444V5.78597C20.0574 5.47115 19.7999 5.21423 19.5895 5.21423Z" fill="#84DFFF"/>
</g>
<defs>
<clipPath id="clip0_1134_3093">
<rect width="61.25" height="20" fill="white"/>
</clipPath>
</defs>
</svg>
