<svg width="102" height="32" viewBox="0 0 102 32" fill="none" xmlns="http://www.w3.org/2000/svg">
<g clip-path="url(#clip0_2675_22676)">
<path d="M59.3263 21.9515H52.8076L51.928 24.6864H47.543L53.5084 7.29126H58.6207L64.5862 24.6864H60.1971L59.3255 21.9515H59.3263ZM58.1212 18.2247L56.067 11.8375L54.0127 18.2247H58.1212Z" fill="black"/>
<path d="M79.9175 20.8586V24.6873H68.4004V7.29126H72.4102V20.8618H79.9183V20.8578L79.9175 20.8586Z" fill="black"/>
<path d="M101.406 24.6866L94.9287 15.5941L100.848 7.28735H95.9181L92.4655 12.1375L89.0097 7.28735H83.802L89.8621 15.7897L83.5254 24.6866H88.4517L92.3252 19.2503L96.1979 24.6866H101.406Z" fill="black"/>
<g clip-path="url(#clip1_2675_22676)">
<path d="M19.9811 8.31909C17.2266 8.31909 13.7142 14.3464 10.9713 14.3464L5.56663 14.3521C5.06319 14.3521 4.65234 14.762 4.65234 15.2643V23.5489L9.9818 23.5431C12.7189 23.5431 16.2313 17.562 18.9915 17.562H26.2074C26.8382 17.5043 27.33 16.9847 27.33 16.3381V8.31909H19.9811Z" fill="#0092FF"/>
<path d="M4.65822 15.2642C4.65822 14.7619 5.06906 14.352 5.5725 14.352L10.9772 14.3463C13.7142 14.3463 17.2267 8.31899 19.9869 8.31899H27.3359V0.958113C27.3359 0.548213 26.7804 -0.000244141 26.1034 -0.000244141H18.5171C15.7627 -0.000244141 11.7063 5.84805 8.96345 5.84805H1.23255C0.549727 5.84805 0 6.40228 0 7.07775V22.3075C0 22.9888 0.555513 23.5372 1.23255 23.5372H4.65822V15.2642Z" fill="#105FFB"/>
<path d="M31.2534 8.3186H27.3359V16.3376C27.3359 16.9785 26.8383 17.5038 26.2133 17.5616H18.9974C16.243 17.5616 12.7305 23.5426 9.98766 23.5426L4.6582 23.5484V30.9959C4.6582 31.4981 5.06905 31.9081 5.57249 31.9081L12.2734 31.9023C14.9352 31.9023 18.9974 26.0309 21.0285 26.0309H31.0856C31.5891 26.0309 31.9999 25.621 31.9999 25.1187V9.23078C31.9999 8.7285 31.5891 8.3186 31.2534 8.3186Z" fill="#84DFFF"/>
</g>
</g>
<defs>
<clipPath id="clip0_2675_22676">
<rect width="102" height="32" fill="white"/>
</clipPath>
<clipPath id="clip1_2675_22676">
<rect width="32" height="32" fill="white" transform="translate(0 -0.000244141)"/>
</clipPath>
</defs>
</svg>
