<svg xmlns="http://www.w3.org/2000/svg" viewBox="0 0 360 180"><defs><style>.cls-1{fill:#fff;}</style></defs><title>Asset 2</title><g id="Layer_2" data-name="Layer 2"><g id="Layer_1-2" data-name="Layer 1"><g id="Layer_1-2-2" data-name="Layer 1-2"><path class="cls-1" d="M124.543,52.439l-2.809-8.219h-15.4c-.416,1.248-.832,2.7-1.352,4.162l-1.249,4.057H96.243L110.081,14.15h8.011l13.422,38.289ZM113.931,22.474c-.937,2.6-1.873,5.1-2.706,7.595s-1.768,5-2.809,7.8h11.029Z"/><path class="cls-1" d="M153.884,14.254H139.838V52.439h6.451v-12.9h7.595c7.7,0,11.445-3.226,11.445-9.885v-5.41c0-6.659-3.745-9.885-11.445-9.989m-7.595,6.139h7.387c4.37,0,5.1,1.145,5.1,3.954v5.306c0,2.7-.729,3.954-5.1,3.954h-7.387Z"/><path class="cls-1" d="M186.971,14.254H172.925V52.439h6.451v-12.9h7.595c7.7,0,11.445-3.226,11.445-9.885v-5.41c0-6.659-3.745-9.885-11.445-9.989m-7.595,6.139h7.387c4.37,0,5.1,1.145,5.1,3.954v5.306c0,2.7-.728,3.954-5.1,3.954h-7.387Z"/><polygon class="cls-1" points="217.665 48.694 235.249 48.694 235.249 52.543 213.815 52.543 213.815 14.358 217.665 14.358 217.665 48.694"/><path class="cls-1" d="M269.064,41.41c0,6.347-3.954,11.55-13.839,11.55s-13.838-5.2-13.838-11.55V25.179c0-6.347,3.954-11.549,13.838-11.549s13.839,5.2,13.839,11.549Zm-24.035,0c0,5.515,3.329,8.532,10.405,8.532s10.4-3.121,10.4-8.532V25.179c0-5.514-3.329-8.532-10.4-8.532s-10.4,3.122-10.4,8.532Z"/><polygon class="cls-1" points="274.994 14.358 278.74 14.358 291.121 48.694 303.503 14.358 307.353 14.358 293.619 52.543 288.624 52.543 274.994 14.358"/><rect class="cls-1" x="315.364" y="14.358" width="3.85" height="38.185"/><polygon class="cls-1" points="337.734 18.936 337.734 52.543 334.092 52.543 334.092 14.358 339.711 14.358 356.358 47.029 356.358 14.358 360 14.358 360 52.543 355.422 52.543 337.734 18.936"/><path class="cls-1" d="M67.318,47.445a8.636,8.636,0,1,0,8.636,8.636,8.615,8.615,0,0,0-8.636-8.636m5.2,8.74a5.15,5.15,0,1,1-10.3-.1,5.15,5.15,0,1,1,10.3.1h0"/><path class="cls-1" d="M8.636,47.445A8.7,8.7,0,0,0,0,56.185a8.636,8.636,0,0,0,17.272,0,8.7,8.7,0,0,0-8.636-8.74m5.2,8.74a5.2,5.2,0,0,1-5.2,5.1,5.2,5.2,0,0,1-5.1-5.2,5.15,5.15,0,1,1,10.3.1h0"/><path class="cls-1" d="M37.977,0a8.636,8.636,0,1,0,8.636,8.636A8.615,8.615,0,0,0,37.977,0m5.2,8.636a5.1,5.1,0,1,1-5.1-5.1,5.106,5.106,0,0,1,5.1,5.1h0"/><path class="cls-1" d="M64.2,48.486,45.052,13.942l-.208-.312-.208.312a7.381,7.381,0,0,1-2.393,1.977l-.208.1.1.208L59.1,46.821A100.116,100.116,0,0,0,38.289,44.74a93.034,93.034,0,0,0-21.434,2.081l16.96-30.486.1-.208-.208-.1a7.381,7.381,0,0,1-2.393-1.977l-.208-.312-.208.312L11.757,48.486l-.1.208.312.1c.937.312,1.769,1.456,2.6,2.185l.1.1.1-.1h.1a92.646,92.646,0,0,1,23.41-2.6,88.571,88.571,0,0,1,22.786,2.6l.1.208.208-.208h0c.833-.729,1.665-1.873,2.6-2.185l.313-.1Z"/></g><g id="Layer_1-2-3" data-name="Layer 1-2"><path d="M124.543,167.618l-2.809-8.219h-15.4c-.416,1.248-.832,2.705-1.352,4.162l-1.249,4.057H96.243l13.838-38.289h8.011l13.422,38.289Zm-10.612-29.965c-.937,2.6-1.873,5.1-2.706,7.6s-1.768,4.994-2.809,7.8h11.029Z"/><path d="M153.884,129.434H139.838v38.184h6.451v-12.9h7.595c7.7,0,11.445-3.226,11.445-9.885v-5.41c0-6.659-3.745-9.884-11.445-9.988m-7.595,6.138h7.387c4.37,0,5.1,1.145,5.1,3.954v5.306c0,2.706-.729,3.954-5.1,3.954h-7.387Z"/><path d="M186.971,129.434H172.925v38.184h6.451v-12.9h7.595c7.7,0,11.445-3.226,11.445-9.885v-5.41c0-6.659-3.745-9.884-11.445-9.988m-7.595,6.138h7.387c4.37,0,5.1,1.145,5.1,3.954v5.306c0,2.706-.728,3.954-5.1,3.954h-7.387Z"/><polygon points="217.665 163.873 235.249 163.873 235.249 167.723 213.815 167.723 213.815 129.538 217.665 129.538 217.665 163.873"/><path d="M269.064,156.59c0,6.346-3.954,11.549-13.839,11.549s-13.838-5.2-13.838-11.549V140.358c0-6.346,3.954-11.549,13.838-11.549s13.839,5.2,13.839,11.549Zm-24.035,0c0,5.514,3.329,8.531,10.405,8.531s10.4-3.121,10.4-8.531V140.358c0-5.514-3.329-8.531-10.4-8.531s-10.4,3.121-10.4,8.531Z"/><polygon points="274.994 129.538 278.74 129.538 291.121 163.873 303.503 129.538 307.353 129.538 293.619 167.723 288.624 167.723 274.994 129.538"/><rect x="315.364" y="129.538" width="3.85" height="38.185"/><polygon points="337.734 134.116 337.734 167.723 334.092 167.723 334.092 129.538 339.711 129.538 356.358 162.208 356.358 129.538 360 129.538 360 167.723 355.422 167.723 337.734 134.116"/><path d="M67.318,162.624a8.636,8.636,0,1,0,8.636,8.636,8.615,8.615,0,0,0-8.636-8.636m5.2,8.74a5.15,5.15,0,0,1-10.3-.1,5.15,5.15,0,1,1,10.3.1h0"/><path d="M8.636,162.624A8.7,8.7,0,0,0,0,171.364a8.636,8.636,0,1,0,17.272,0,8.7,8.7,0,0,0-8.636-8.74m5.2,8.74a5.2,5.2,0,0,1-5.2,5.1,5.2,5.2,0,0,1-5.1-5.2,5.15,5.15,0,0,1,10.3.1h0"/><path d="M37.977,115.179a8.636,8.636,0,1,0,8.636,8.636,8.615,8.615,0,0,0-8.636-8.636m5.2,8.636a5.1,5.1,0,1,1-5.1-5.1,5.106,5.106,0,0,1,5.1,5.1h0"/><path d="M64.2,163.665,45.052,129.121l-.208-.312-.208.312a7.381,7.381,0,0,1-2.393,1.977l-.208.1.1.208L59.1,162a100.116,100.116,0,0,0-20.809-2.081A93.034,93.034,0,0,0,16.855,162l16.96-30.486.1-.208-.208-.1a7.381,7.381,0,0,1-2.393-1.977l-.208-.312-.208.312-19.145,34.44-.1.208.312.1c.937.312,1.769,1.457,2.6,2.185l.1.1.1-.1h.1a92.651,92.651,0,0,1,23.41-2.6,88.57,88.57,0,0,1,22.786,2.6l.1.208.208-.208h0c.833-.728,1.665-1.873,2.6-2.185l.313-.1Z"/></g></g></g></svg>