<svg xmlns="http://www.w3.org/2000/svg" viewBox="0 0 475.296 86.613"><g id="Layer_2" data-name="Layer 2"><g id="Isolation_Mode" data-name="Isolation Mode"><path d="M164.369,70.047l-3.686-11.029H140.33q-.848,2.565-1.767,5.554l-1.689,5.475H127l18.243-51.111h10.6l17.753,51.111Zm-13.9-40q-1.845,5.211-3.531,10.1T143.249,50.55h14.515Z" style="fill:#fff"/><path d="M203.211,19.1H184.627V70.163h8.586V52.777h10c10.174,0,15.12-4.337,15.12-13.258V32.287C218.331,23.415,213.385,19.1,203.211,19.1Zm-10,8.033H203c5.812,0,6.75,1.54,6.75,5.225v7.159c0,3.613-.975,5.225-6.75,5.225h-9.782Z" style="fill:#fff"/><path d="M246.846,19.1H228.262V70.163h8.586V52.777h10c10.174,0,15.12-4.337,15.12-13.258V32.287C261.966,23.415,257.02,19.1,246.846,19.1Zm-10,8.033h9.782c5.812,0,6.75,1.54,6.75,5.225v7.159c0,3.613-.975,5.225-6.75,5.225h-9.782Z" style="fill:#fff"/><path d="M287.348,65.063h23.3V70.18H282.269V19.159h5.079Z" style="fill:#fff"/><path d="M355.293,55.318c0,8.5-5.223,15.474-18.24,15.474s-18.241-6.97-18.241-15.474v-21.6c0-8.5,5.222-15.474,18.241-15.474s18.24,6.97,18.24,15.474Zm-31.754.075c0,7.332,4.416,11.443,13.69,11.443s13.689-4.111,13.689-11.443V33.64c0-7.33-4.415-11.443-13.689-11.443s-13.69,4.113-13.69,11.443Z" style="fill:#fff"/><path d="M363.019,19.159h5.041l16.293,45.9,16.33-45.9h5.163L387.726,70.18h-6.7Z" style="fill:#fff"/><path d="M421.5,70.18h-5.078V19.159H421.5Z" style="fill:#fff"/><path d="M445.847,25.3V70.18h-4.776V19.159h7.5L470.52,62.825V19.159H475.3V70.18h-6.069Z" style="fill:#fff"/><path d="M88.925,63.447A11.584,11.584,0,1,0,100.369,75.03,11.527,11.527,0,0,0,88.925,63.447ZM95.692,75.03a6.767,6.767,0,1,1-6.767-6.849A6.817,6.817,0,0,1,95.692,75.03Z" style="fill:#fff"/><path d="M11.444,63.447a11.584,11.584,0,0,0,0,23.166,11.584,11.584,0,0,0,0-23.166ZM18.212,75.03a6.768,6.768,0,1,1-6.768-6.849A6.817,6.817,0,0,1,18.212,75.03Z" style="fill:#fff"/><path d="M50.185,0A11.584,11.584,0,1,0,61.629,11.583,11.527,11.527,0,0,0,50.185,0Zm6.767,11.583a6.767,6.767,0,1,1-6.767-6.849A6.816,6.816,0,0,1,56.952,11.583Z" style="fill:#fff"/><path d="M84.7,64.734,59.431,18.675l-.244-.445-.316.4a10.282,10.282,0,0,1-3.148,2.641l-.3.165.167.3,22.369,40.77a128.7,128.7,0,0,0-27.439-2.739c-10.959,0-20.7.94-28.246,2.723L44.63,21.737l.168-.3-.3-.165a10.224,10.224,0,0,1-3.144-2.64l-.316-.4-.245.446L15.522,64.734l-.2.356.38.134c1.239.438,2.374,2,3.375,2.891l.167.149.2-.1.083-.017c8.064-2.262,18.775-3.456,30.983-3.456A122.1,122.1,0,0,1,80.547,68.13l.168.331.325-.267.069-.056c1.018-.909,2.159-2.476,3.4-2.913l.381-.134Z" style="fill:#fff"/></g></g></svg>