<svg xmlns="http://www.w3.org/2000/svg" viewBox="0 0 345.99 62.29"><defs><style>.cls-1{fill:#099ac6;}</style></defs><title>Asset 1</title><g id="Layer_2" data-name="Layer 2"><g id="Layer_1-2" data-name="Layer 1"><path class="cls-1" d="M119.65,50.38,117,42.45H102.15c-.41,1.23-.83,2.56-1.28,4l-1.23,3.94H92.45l13.28-36.76h7.72l12.92,36.76ZM109.53,21.61c-.89,2.5-1.75,4.91-2.57,7.26s-1.71,4.84-2.68,7.49h10.57Z"/><path class="cls-1" d="M147.93,13.74H134.4V50.46h6.25V38h7.28c7.41,0,11-3.12,11-9.54v-5.2c0-6.38-3.59-9.48-11-9.48m-7.28,5.78h7.12c4.23,0,4.91,1.1,4.91,3.75v5.15c0,2.6-.7,3.76-4.91,3.76h-7.12Z"/><path class="cls-1" d="M179.69,13.74H166.17V50.46h6.25V38h7.27c7.41,0,11-3.12,11-9.54v-5.2c0-6.38-3.6-9.48-11-9.48m-7.27,5.78h7.12c4.23,0,4.91,1.1,4.91,3.75v5.15c0,2.6-.71,3.76-4.91,3.76h-7.12Z"/><polygon class="cls-1" points="209.18 46.79 226.14 46.79 226.14 50.48 205.48 50.48 205.48 13.78 209.18 13.78 209.18 46.79"/><path class="cls-1" d="M258.64,39.79c0,6.11-3.8,11.12-13.28,11.12s-13.28-5-13.28-11.12V24.25c0-6.12,3.8-11.13,13.28-11.13s13.28,5,13.28,11.13Zm-23.12.05c0,5.27,3.22,8.23,10,8.23s10-3,10-8.23V24.19c0-5.27-3.21-8.23-10-8.23s-10,3-10,8.23Z"/><polygon class="cls-1" points="264.26 13.78 267.93 13.78 279.79 46.79 291.68 13.78 295.44 13.78 282.25 50.47 277.37 50.47 264.26 13.78"/><rect class="cls-1" x="303.13" y="13.78" width="3.7" height="36.7"/><polygon class="cls-1" points="324.56 18.19 324.56 50.47 321.08 50.47 321.08 13.78 326.54 13.78 342.52 45.18 342.52 13.78 345.99 13.78 345.99 50.47 341.58 50.47 324.56 18.19"/><path class="cls-1" d="M64.73,45.63A8.33,8.33,0,1,0,73.06,54a8.34,8.34,0,0,0-8.33-8.33M69.66,54A4.93,4.93,0,1,1,64.73,49,4.93,4.93,0,0,1,69.66,54"/><path class="cls-1" d="M8.33,45.63A8.33,8.33,0,1,0,16.66,54a8.34,8.34,0,0,0-8.33-8.33M13.26,54A4.93,4.93,0,1,1,8.33,49,4.93,4.93,0,0,1,13.26,54"/><path class="cls-1" d="M36.53,0a8.33,8.33,0,1,0,8.33,8.33A8.34,8.34,0,0,0,36.53,0m4.93,8.33A4.93,4.93,0,1,1,36.53,3.4a4.93,4.93,0,0,1,4.93,4.93"/><path class="cls-1" d="M61.65,46.56,43.26,13.43l-.17-.32-.23.29a7.67,7.67,0,0,1-2.3,1.9l-.22.11.13.22L56.75,45a94.3,94.3,0,0,0-20-2,93.85,93.85,0,0,0-20.56,1.95L32.49,15.63l.12-.22-.22-.11a7.51,7.51,0,0,1-2.29-1.9l-.23-.29-.18.32L11.3,46.56l-.14.25.27.1c.91.32,1.73,1.44,2.46,2.08l.12.11.15-.07.06,0c5.87-1.62,13.67-2.48,22.55-2.48A90,90,0,0,1,58.63,49l.13.24.23-.19,0,0c.75-.65,1.58-1.78,2.48-2.09l.28-.1Z"/></g></g></svg>