<svg viewBox="0 0 656 385" fill="none" xmlns="http://www.w3.org/2000/svg">
<path d="M299.571 225.593H290.399L289.166 229.469H283L291.387 204.798H298.583L306.97 229.478H300.804L299.571 225.593ZM297.874 220.305L294.985 211.243L292.096 220.305H297.874V220.305Z" fill="white"/>
<path d="M319.485 211.496V217.493C317.297 217.138 314.197 218.025 314.197 221.513V229.478H308.91V211.842H314.197V214.984C314.898 212.619 317.263 211.496 319.485 211.496Z" fill="white"/>
<path d="M332.526 211.496V217.493C330.338 217.138 327.238 218.025 327.238 221.513V229.478H321.951V211.842H327.238V214.984C327.948 212.619 330.304 211.496 332.526 211.496Z" fill="white"/>
<path d="M352.554 211.842V229.469H347.267V227.814C346.101 229.157 344.378 229.968 342.013 229.968C337.393 229.968 333.584 225.914 333.584 220.66C333.584 215.407 337.393 211.353 342.013 211.353C344.378 211.353 346.101 212.163 347.267 213.506V211.851L352.554 211.842V211.842ZM347.267 220.66C347.267 218.016 345.501 216.361 343.069 216.361C340.636 216.361 338.871 218.016 338.871 220.66C338.871 223.304 340.636 224.959 343.069 224.959C345.501 224.959 347.267 223.304 347.267 220.66V220.66Z" fill="white"/>
<path d="M373.177 211.842L367.147 228.946C365.171 234.554 362.037 236.775 357.096 236.522V231.589C359.562 231.589 360.728 230.812 361.505 228.667L354.486 211.851H360.306L364.216 222.636L367.527 211.851H373.177V211.842Z" fill="white"/>
<path d="M357.854 149.84L353.816 142.408L352.378 145.074C352.297 145.219 352.2 145.365 352.119 145.51C352.103 145.542 352.071 145.575 352.055 145.607C351.962 145.748 351.859 145.883 351.748 146.011L351.716 146.043C351.616 146.169 351.508 146.288 351.392 146.399L351.344 146.447L350.956 146.786C350.94 146.786 350.94 146.802 350.924 146.802C350.644 147.015 350.347 147.204 350.035 147.368H350.019C349.698 147.522 349.362 147.647 349.018 147.739C348.545 147.877 348.056 147.948 347.564 147.949H311.7L310.246 145.252C309.794 144.412 309.556 143.475 309.552 142.521C309.552 142.311 309.552 142.085 309.568 141.875C309.452 143.038 309.688 144.209 310.246 145.235L332.249 185.849C332.676 186.69 333.327 187.398 334.131 187.892C334.936 188.386 335.861 188.647 336.805 188.647C337.749 188.647 338.674 188.386 339.478 187.892C340.282 187.398 340.934 186.69 341.36 185.849L357.854 155.413C358.316 154.557 358.557 153.599 358.557 152.626C358.557 151.653 358.316 150.696 357.854 149.84V149.84Z" fill="#2155AA"/>
<path d="M370.135 95.5435L337.115 95.6081C336.175 95.6219 335.255 95.8887 334.454 96.3804C333.652 96.8722 332.998 97.5708 332.559 98.4028L328.246 106.335H331.38C332.321 106.347 333.241 106.613 334.043 107.105C334.845 107.597 335.499 108.296 335.936 109.13L353.835 142.392L352.656 144.573C352.656 144.571 352.656 144.569 352.657 144.567C352.658 144.565 352.659 144.563 352.661 144.562C352.662 144.56 352.664 144.559 352.666 144.558C352.668 144.557 352.67 144.557 352.672 144.557L374.707 103.944C376.727 100.196 374.19 95.5435 370.135 95.5435Z" fill="#12E3A3"/>
<path d="M310.229 145.219C310.149 145.088 310.084 144.947 310.036 144.799C310.019 144.751 310.003 144.719 309.987 144.67C309.931 144.538 309.883 144.403 309.842 144.266C309.826 144.218 309.809 144.169 309.793 144.105C309.761 144.008 309.745 143.911 309.712 143.814C309.696 143.733 309.68 143.669 309.664 143.588C309.645 143.508 309.634 143.427 309.632 143.346C309.615 143.216 309.599 143.071 309.583 142.942C309.583 142.893 309.567 142.845 309.567 142.796C309.567 142.699 309.551 142.586 309.551 142.489C309.52 141.458 309.766 140.438 310.262 139.533L328.258 106.335H287.273C283.219 106.335 280.682 111.004 282.718 114.735L299.276 145.123C299.713 145.956 300.367 146.656 301.169 147.148C301.971 147.64 302.891 147.906 303.832 147.917H311.683L310.229 145.219V145.219Z" fill="#2464F2"/>
<path d="M352.055 145.591C352.071 145.558 352.104 145.526 352.12 145.494C352.217 145.348 352.297 145.203 352.378 145.058L353.832 142.392L335.949 109.129C335.512 108.296 334.858 107.596 334.056 107.104C333.254 106.612 332.334 106.346 331.393 106.335H328.259L310.247 139.533C309.75 140.443 309.505 141.469 309.536 142.505C309.548 143.458 309.786 144.393 310.23 145.235L311.684 147.933H347.564C348.056 147.931 348.546 147.861 349.018 147.723C349.366 147.641 349.702 147.516 350.02 147.352H350.036C350.35 147.194 350.648 147.005 350.924 146.786C350.94 146.786 350.94 146.77 350.957 146.77C351.086 146.657 351.215 146.56 351.344 146.431L351.393 146.382C351.509 146.272 351.617 146.153 351.716 146.027L351.748 145.995C351.861 145.865 351.958 145.72 352.055 145.591Z" fill="#357EE1"/>
<path d="M480.694 320.672L485.622 332H482.806L481.83 329.6H477.43L476.486 332H473.734L478.63 320.672H480.694ZM478.214 327.488H480.982L479.59 323.968L478.214 327.488ZM492.049 320.672C494.865 320.672 496.273 321.819 496.273 324.112C496.273 326.427 494.903 327.584 492.161 327.584H490.257V332H487.761V320.672H492.049ZM491.969 325.472C492.471 325.472 492.881 325.365 493.201 325.152C493.521 324.928 493.681 324.581 493.681 324.112C493.681 323.227 492.988 322.784 491.601 322.784H490.257V325.472H491.969ZM503.128 320.672C505.944 320.672 507.352 321.819 507.352 324.112C507.352 326.427 505.981 327.584 503.24 327.584H501.336V332H498.84V320.672H503.128ZM503.048 325.472C503.549 325.472 503.96 325.365 504.28 325.152C504.6 324.928 504.76 324.581 504.76 324.112C504.76 323.227 504.066 322.784 502.68 322.784H501.336V325.472H503.048ZM512.51 320.672V329.696H517.134V332H510.014V320.672H512.51ZM525.015 320.384C526.829 320.384 528.301 320.928 529.431 322.016C530.562 323.104 531.127 324.544 531.127 326.336C531.127 328.117 530.557 329.557 529.415 330.656C528.274 331.744 526.807 332.288 525.015 332.288C523.202 332.288 521.73 331.739 520.599 330.64C519.469 329.541 518.903 328.107 518.903 326.336C518.903 324.565 519.463 323.131 520.583 322.032C521.714 320.933 523.191 320.384 525.015 320.384ZM521.495 326.336C521.495 327.435 521.821 328.32 522.471 328.992C523.133 329.653 523.981 329.984 525.015 329.984C526.071 329.984 526.919 329.643 527.559 328.96C528.21 328.277 528.535 327.403 528.535 326.336C528.535 325.248 528.205 324.368 527.543 323.696C526.893 323.024 526.045 322.688 524.999 322.688C523.954 322.688 523.106 323.029 522.455 323.712C521.815 324.395 521.495 325.269 521.495 326.336ZM535.552 320.672L538.352 328.096H538.384L541.232 320.672H543.904L539.232 332H537.232L532.704 320.672H535.552ZM548.554 320.672V332H546.058V320.672H548.554ZM555.216 320.672L560.032 328.544H560.064V320.672H562.56V332H559.296L554.352 323.936H554.32V332H551.824V320.672H555.216ZM581.749 319.408H584.053V327.904H581.749V325.072H580.517V327.68H578.341V319.728H580.517V323.04H581.749V319.408ZM574.469 324.24H574.453C574.357 324.752 574.08 325.333 573.621 325.984C573.173 326.635 572.682 327.163 572.149 327.568L570.645 326C571.008 325.787 571.349 325.499 571.669 325.136C572 324.773 572.288 324.368 572.533 323.92C572.789 323.461 572.986 322.976 573.125 322.464C573.264 321.941 573.333 321.429 573.333 320.928V320.144H575.637V320.928C575.637 321.707 575.765 322.421 576.021 323.072C576.288 323.712 576.613 324.235 576.997 324.64C577.392 325.045 577.754 325.349 578.085 325.552L576.709 327.232C576.336 326.987 575.968 326.667 575.605 326.272C575.253 325.867 574.986 325.488 574.805 325.136C574.624 324.773 574.512 324.475 574.469 324.24ZM578.517 328.24C579.658 328.24 580.656 328.352 581.509 328.576C582.362 328.8 582.997 329.109 583.413 329.504C583.84 329.888 584.053 330.32 584.053 330.8C584.053 331.195 583.92 331.557 583.653 331.888C583.397 332.219 583.024 332.501 582.533 332.736C582.053 332.971 581.466 333.147 580.773 333.264C580.09 333.392 579.338 333.456 578.517 333.456C577.696 333.456 576.938 333.392 576.245 333.264C575.562 333.147 574.976 332.971 574.485 332.736C574.005 332.501 573.632 332.219 573.365 331.888C573.109 331.557 572.981 331.195 572.981 330.8C572.981 330.32 573.189 329.888 573.605 329.504C574.032 329.109 574.672 328.8 575.525 328.576C576.378 328.352 577.376 328.24 578.517 328.24ZM578.517 331.696C578.933 331.696 579.376 331.669 579.845 331.616C580.314 331.552 580.698 331.445 580.997 331.296C581.306 331.147 581.461 330.965 581.461 330.752C581.461 330.581 581.349 330.427 581.125 330.288C580.912 330.149 580.576 330.037 580.117 329.952C579.669 329.867 579.136 329.824 578.517 329.824C578.101 329.824 577.68 329.851 577.253 329.904C576.826 329.957 576.496 330.027 576.261 330.112C576.037 330.197 575.872 330.283 575.765 330.368C575.669 330.453 575.61 330.533 575.589 330.608C575.568 330.683 575.557 330.731 575.557 330.752C575.557 330.965 575.706 331.147 576.005 331.296C576.314 331.445 576.704 331.552 577.173 331.616C577.653 331.669 578.101 331.696 578.517 331.696ZM598.112 319.392H600.544V333.184H598.112V326.544H596.944V332.512H594.736V319.712H596.944V324.464H598.112V319.392ZM591.184 328.352C591.686 328.341 592.23 328.315 592.816 328.272C593.414 328.219 593.888 328.165 594.24 328.112L594.272 330.112C593.59 330.24 592.379 330.331 590.64 330.384C589.67 330.405 589.003 330.352 588.64 330.224C588.288 330.096 588.054 329.877 587.936 329.568C587.819 329.259 587.76 328.773 587.76 328.112V320.384H593.776V322.352H589.952V324.336H593.504V326.256H589.952V327.712C589.952 327.829 589.958 327.931 589.968 328.016C589.99 328.101 590.027 328.171 590.08 328.224C590.134 328.267 590.224 328.304 590.352 328.336C590.48 328.357 590.758 328.363 591.184 328.352ZM614.457 319.392H616.841V333.184H614.457V319.392ZM611.353 322.752V319.712H613.417V332.512H611.353V328.16H609.529V326.192H611.353V324.72H610.121V322.752H611.353ZM610.105 320.432V321.52C610.105 323.408 609.689 325.125 608.857 326.672C608.025 328.219 606.82 329.477 605.241 330.448L603.609 328.512C604.281 328.16 604.878 327.744 605.401 327.264C605.934 326.784 606.377 326.283 606.729 325.76C607.081 325.227 607.342 324.688 607.513 324.144C607.694 323.6 607.785 323.083 607.785 322.592V322.512H604.441V320.432H610.105Z" fill="white"/>
<path d="M498.442 349.088H499.156V359H498.316V350.25L496.51 351.734L495.992 351.09L498.442 349.088ZM503.014 355.808H506.542V350.012H506.514L503.014 355.808ZM507.382 349.088V355.808H508.894V356.564H507.382V359H506.542V356.564H502.258V355.57L506.22 349.088H507.382ZM510.497 354.044C510.497 355.463 510.693 356.545 511.085 357.292C511.486 358.029 512.074 358.403 512.849 358.412C514.389 358.403 515.173 356.947 515.201 354.044C515.201 352.635 515.005 351.557 514.613 350.81C514.221 350.063 513.628 349.685 512.835 349.676C512.079 349.676 511.5 350.049 511.099 350.796C510.707 351.543 510.506 352.625 510.497 354.044ZM512.849 348.92C513.922 348.92 514.734 349.354 515.285 350.222C515.836 351.09 516.116 352.364 516.125 354.044C516.125 355.724 515.845 356.998 515.285 357.866C514.734 358.725 513.922 359.159 512.849 359.168C511.766 359.168 510.954 358.729 510.413 357.852C509.872 356.975 509.592 355.705 509.573 354.044C509.573 352.373 509.848 351.104 510.399 350.236C510.95 349.368 511.766 348.929 512.849 348.92ZM519.086 357.74L518.008 360.932H517.182L518.106 357.74H519.086ZM521.407 354.044C521.407 355.463 521.603 356.545 521.995 357.292C522.396 358.029 522.984 358.403 523.759 358.412C525.299 358.403 526.083 356.947 526.111 354.044C526.111 352.635 525.915 351.557 525.523 350.81C525.131 350.063 524.538 349.685 523.745 349.676C522.989 349.676 522.41 350.049 522.009 350.796C521.617 351.543 521.416 352.625 521.407 354.044ZM523.759 348.92C524.832 348.92 525.644 349.354 526.195 350.222C526.746 351.09 527.026 352.364 527.035 354.044C527.035 355.724 526.755 356.998 526.195 357.866C525.644 358.725 524.832 359.159 523.759 359.168C522.676 359.168 521.864 358.729 521.323 357.852C520.782 356.975 520.502 355.705 520.483 354.044C520.483 352.373 520.758 351.104 521.309 350.236C521.86 349.368 522.676 348.929 523.759 348.92ZM528.681 354.044C528.681 355.463 528.877 356.545 529.269 357.292C529.67 358.029 530.258 358.403 531.033 358.412C532.573 358.403 533.357 356.947 533.385 354.044C533.385 352.635 533.189 351.557 532.797 350.81C532.405 350.063 531.812 349.685 531.019 349.676C530.263 349.676 529.684 350.049 529.283 350.796C528.891 351.543 528.69 352.625 528.681 354.044ZM531.033 348.92C532.106 348.92 532.918 349.354 533.469 350.222C534.019 351.09 534.299 352.364 534.309 354.044C534.309 355.724 534.029 356.998 533.469 357.866C532.918 358.725 532.106 359.159 531.033 359.168C529.95 359.168 529.138 358.729 528.597 357.852C528.055 356.975 527.775 355.705 527.757 354.044C527.757 352.373 528.032 351.104 528.583 350.236C529.133 349.368 529.95 348.929 531.033 348.92ZM535.954 354.044C535.954 355.463 536.15 356.545 536.542 357.292C536.943 358.029 537.531 358.403 538.306 358.412C539.846 358.403 540.63 356.947 540.658 354.044C540.658 352.635 540.462 351.557 540.07 350.81C539.678 350.063 539.085 349.685 538.292 349.676C537.536 349.676 536.957 350.049 536.556 350.796C536.164 351.543 535.963 352.625 535.954 354.044ZM538.306 348.92C539.379 348.92 540.191 349.354 540.742 350.222C541.293 351.09 541.573 352.364 541.582 354.044C541.582 355.724 541.302 356.998 540.742 357.866C540.191 358.725 539.379 359.159 538.306 359.168C537.223 359.168 536.411 358.729 535.87 357.852C535.329 356.975 535.049 355.705 535.03 354.044C535.03 352.373 535.305 351.104 535.856 350.236C536.407 349.368 537.223 348.929 538.306 348.92ZM552.607 347.968H553.517V360.036H552.607V353.568H550.521V359.294H549.625V348.248H550.521V352.77H552.607V347.968ZM543.185 349.956V349.13H548.071V349.62C548.071 350.637 547.871 351.65 547.469 352.658C547.068 353.666 546.508 354.581 545.789 355.402C545.08 356.223 544.268 356.914 543.353 357.474L542.681 356.704C543.185 356.424 543.694 356.065 544.207 355.626C544.73 355.187 545.22 354.651 545.677 354.016C546.144 353.381 546.508 352.714 546.769 352.014C547.031 351.314 547.161 350.656 547.161 350.04V349.956H543.185ZM568.654 347.968H569.592V360.036H568.654V347.968ZM566.176 353.106C566.176 354.021 566.036 354.809 565.756 355.472C565.476 356.135 565.084 356.629 564.58 356.956C564.085 357.283 563.525 357.446 562.9 357.446C562.274 357.446 561.71 357.283 561.206 356.956C560.711 356.629 560.324 356.135 560.044 355.472C559.764 354.809 559.624 354.021 559.624 353.106C559.624 352.191 559.764 351.403 560.044 350.74C560.324 350.068 560.711 349.569 561.206 349.242C561.71 348.915 562.274 348.752 562.9 348.752C563.525 348.752 564.085 348.915 564.58 349.242C565.084 349.569 565.476 350.068 565.756 350.74C566.036 351.403 566.176 352.191 566.176 353.106ZM565.28 353.106C565.28 352.714 565.242 352.313 565.168 351.902C565.093 351.491 564.976 351.141 564.818 350.852C564.659 350.553 564.486 350.32 564.3 350.152C564.113 349.975 563.898 349.839 563.656 349.746C563.422 349.653 563.17 349.606 562.9 349.606C562.638 349.606 562.386 349.653 562.144 349.746C561.91 349.839 561.7 349.975 561.514 350.152C561.327 350.32 561.154 350.553 560.996 350.852C560.837 351.141 560.72 351.491 560.646 351.902C560.571 352.313 560.534 352.714 560.534 353.106C560.534 353.498 560.571 353.899 560.646 354.31C560.72 354.711 560.846 355.08 561.024 355.416C561.21 355.752 561.42 356.009 561.654 356.186C561.896 356.354 562.12 356.466 562.326 356.522C562.54 356.569 562.732 356.592 562.9 356.592C563.254 356.592 563.581 356.513 563.88 356.354C564.178 356.195 564.43 355.967 564.636 355.668C564.841 355.36 565 354.987 565.112 354.548C565.224 354.109 565.28 353.629 565.28 353.106ZM581.911 351.482H584.179V352.294H581.911V355.444H581.001V347.968H581.911V351.482ZM575.891 351.258C575.854 351.482 575.756 351.739 575.597 352.028C575.448 352.308 575.261 352.593 575.037 352.882C574.813 353.171 574.575 353.442 574.323 353.694C574.071 353.937 573.801 354.17 573.511 354.394C573.222 354.609 572.937 354.791 572.657 354.94L572.055 354.24C572.447 354.072 572.844 353.829 573.245 353.512C573.647 353.185 574.011 352.807 574.337 352.378C574.673 351.949 574.939 351.487 575.135 350.992C575.341 350.488 575.443 349.993 575.443 349.508V348.528H576.353V349.508C576.353 350.003 576.442 350.469 576.619 350.908C576.797 351.347 577.035 351.748 577.333 352.112C577.641 352.467 577.982 352.779 578.355 353.05C578.729 353.321 579.107 353.54 579.489 353.708L578.887 354.408C578.542 354.231 578.197 354.016 577.851 353.764C577.515 353.512 577.207 353.241 576.927 352.952C576.657 352.663 576.428 352.373 576.241 352.084C576.064 351.785 575.952 351.51 575.905 351.258H575.891ZM577.837 355.612C578.463 355.612 579.037 355.668 579.559 355.78C580.082 355.883 580.53 356.032 580.903 356.228C581.277 356.424 581.561 356.667 581.757 356.956C581.953 357.236 582.051 357.544 582.051 357.88C582.051 358.132 581.995 358.375 581.883 358.608C581.771 358.832 581.608 359.037 581.393 359.224C581.179 359.411 580.889 359.579 580.525 359.728C580.171 359.887 579.751 360.003 579.265 360.078C578.78 360.153 578.304 360.19 577.837 360.19C577.212 360.19 576.638 360.134 576.115 360.022C575.593 359.919 575.145 359.765 574.771 359.56C574.398 359.355 574.109 359.112 573.903 358.832C573.707 358.543 573.609 358.225 573.609 357.88C573.609 357.544 573.707 357.236 573.903 356.956C574.109 356.667 574.393 356.424 574.757 356.228C575.131 356.032 575.579 355.883 576.101 355.78C576.633 355.668 577.212 355.612 577.837 355.612ZM577.837 359.364C578.827 359.364 579.62 359.229 580.217 358.958C580.824 358.678 581.127 358.314 581.127 357.866C581.127 357.418 580.824 357.059 580.217 356.788C579.62 356.508 578.827 356.368 577.837 356.368C577.604 356.368 577.315 356.382 576.969 356.41C576.624 356.438 576.274 356.503 575.919 356.606C575.565 356.709 575.289 356.83 575.093 356.97C574.897 357.101 574.753 357.241 574.659 357.39C574.575 357.539 574.533 357.698 574.533 357.866C574.533 357.969 574.557 358.09 574.603 358.23C574.659 358.361 574.757 358.491 574.897 358.622C575.037 358.743 575.233 358.865 575.485 358.986C575.747 359.098 576.083 359.187 576.493 359.252C576.904 359.327 577.352 359.364 577.837 359.364ZM594.398 347.968H595.322V360.036H594.398V347.968ZM592.382 351.51C592.382 351.818 592.326 352.14 592.214 352.476C592.111 352.803 591.929 353.111 591.668 353.4C591.407 353.689 591.113 353.909 590.786 354.058C590.459 354.207 590.156 354.305 589.876 354.352C589.596 354.399 589.344 354.422 589.12 354.422C588.532 354.422 587.986 354.31 587.482 354.086C586.987 353.853 586.591 353.512 586.292 353.064C586.003 352.607 585.858 352.089 585.858 351.51C585.858 351.202 585.909 350.88 586.012 350.544C586.124 350.208 586.311 349.895 586.572 349.606C586.833 349.317 587.127 349.097 587.454 348.948C587.781 348.799 588.084 348.701 588.364 348.654C588.644 348.607 588.896 348.584 589.12 348.584C589.465 348.584 589.797 348.626 590.114 348.71C590.441 348.794 590.735 348.911 590.996 349.06C591.257 349.209 591.481 349.391 591.668 349.606C591.864 349.821 592.018 350.063 592.13 350.334C592.251 350.605 592.321 350.847 592.34 351.062C592.368 351.277 592.382 351.426 592.382 351.51ZM591.472 351.51C591.472 351.202 591.411 350.917 591.29 350.656C591.178 350.385 591.015 350.157 590.8 349.97C590.595 349.774 590.347 349.625 590.058 349.522C589.769 349.419 589.456 349.368 589.12 349.368C588.784 349.368 588.471 349.419 588.182 349.522C587.893 349.625 587.641 349.774 587.426 349.97C587.221 350.157 587.057 350.385 586.936 350.656C586.824 350.917 586.768 351.202 586.768 351.51C586.768 351.734 586.801 351.953 586.866 352.168C586.931 352.373 587.025 352.565 587.146 352.742C587.267 352.91 587.431 353.069 587.636 353.218C587.841 353.358 588.075 353.465 588.336 353.54C588.607 353.605 588.868 353.638 589.12 353.638C589.372 353.638 589.629 353.605 589.89 353.54C590.161 353.465 590.399 353.358 590.604 353.218C590.809 353.069 590.973 352.91 591.094 352.742C591.215 352.565 591.309 352.373 591.374 352.168C591.439 351.953 591.472 351.734 591.472 351.51ZM585.214 357.502L585.088 356.634C585.751 356.634 586.563 356.625 587.524 356.606C588.485 356.578 589.54 356.536 590.688 356.48C591.845 356.415 592.83 356.345 593.642 356.27L593.67 357.096C592.625 357.189 591.271 357.278 589.61 357.362C587.949 357.437 586.483 357.483 585.214 357.502ZM500.95 368.982H501.832V375.52H500.95V372.93H498.934V375.52H498.066V369.262H498.934V372.174H500.95V368.982ZM496.694 372.342C496.694 372.734 496.624 373.103 496.484 373.448C496.353 373.793 496.162 374.092 495.91 374.344C495.658 374.596 495.359 374.792 495.014 374.932C494.668 375.072 494.3 375.142 493.908 375.142C493.516 375.142 493.147 375.072 492.802 374.932C492.456 374.792 492.158 374.596 491.906 374.344C491.654 374.092 491.458 373.793 491.318 373.448C491.187 373.103 491.122 372.734 491.122 372.342C491.122 371.95 491.187 371.581 491.318 371.236C491.458 370.881 491.654 370.578 491.906 370.326C492.158 370.074 492.456 369.878 492.802 369.738C493.147 369.598 493.516 369.528 493.908 369.528C494.3 369.528 494.668 369.598 495.014 369.738C495.359 369.878 495.658 370.074 495.91 370.326C496.162 370.578 496.353 370.881 496.484 371.236C496.624 371.581 496.694 371.95 496.694 372.342ZM491.99 372.342C491.99 372.631 492.036 372.902 492.13 373.154C492.223 373.406 492.354 373.625 492.522 373.812C492.699 373.999 492.904 374.143 493.138 374.246C493.38 374.349 493.637 374.4 493.908 374.4C494.178 374.4 494.43 374.349 494.664 374.246C494.906 374.143 495.112 373.999 495.28 373.812C495.457 373.625 495.592 373.406 495.686 373.154C495.779 372.902 495.826 372.631 495.826 372.342C495.826 372.053 495.779 371.782 495.686 371.53C495.592 371.278 495.457 371.059 495.28 370.872C495.112 370.685 494.906 370.541 494.664 370.438C494.43 370.335 494.178 370.284 493.908 370.284C493.637 370.284 493.38 370.335 493.138 370.438C492.904 370.541 492.699 370.685 492.522 370.872C492.354 371.059 492.223 371.278 492.13 371.53C492.036 371.782 491.99 372.053 491.99 372.342ZM500.95 377.774V375.982H501.832V381.106H493.39V375.982H494.258V377.774H500.95ZM494.258 380.336H500.95V378.53H494.258V380.336ZM509.991 373.056C509.683 373.056 509.296 373.037 508.829 373C508.372 372.963 507.91 372.879 507.443 372.748C506.986 372.608 506.626 372.449 506.365 372.272C506.104 372.085 505.912 371.894 505.791 371.698C505.679 371.493 505.623 371.283 505.623 371.068C505.623 370.779 505.726 370.513 505.931 370.27C506.136 370.018 506.43 369.808 506.813 369.64C507.196 369.463 507.658 369.327 508.199 369.234C508.75 369.141 509.347 369.094 509.991 369.094C510.635 369.094 511.228 369.141 511.769 369.234C512.32 369.327 512.786 369.463 513.169 369.64C513.552 369.808 513.846 370.018 514.051 370.27C514.256 370.513 514.359 370.779 514.359 371.068C514.359 371.283 514.298 371.493 514.177 371.698C514.065 371.894 513.878 372.085 513.617 372.272C513.356 372.449 512.992 372.608 512.525 372.748C512.068 372.879 511.606 372.963 511.139 373C510.682 373.037 510.299 373.056 509.991 373.056ZM509.991 372.342C510.486 372.342 510.943 372.314 511.363 372.258C511.783 372.193 512.142 372.104 512.441 371.992C512.74 371.88 512.968 371.745 513.127 371.586C513.286 371.427 513.365 371.255 513.365 371.068C513.365 370.788 513.188 370.545 512.833 370.34C512.488 370.135 512.049 369.995 511.517 369.92C510.994 369.845 510.486 369.808 509.991 369.808C509.496 369.808 508.983 369.845 508.451 369.92C507.928 369.995 507.49 370.135 507.135 370.34C506.79 370.545 506.617 370.788 506.617 371.068C506.617 371.208 506.668 371.353 506.771 371.502C506.883 371.642 507.07 371.777 507.331 371.908C507.592 372.029 507.942 372.132 508.381 372.216C508.829 372.3 509.366 372.342 509.991 372.342ZM504.097 374.204H515.871V374.974H504.097V374.204ZM507.975 381.176C507.284 381.176 506.813 381.157 506.561 381.12C506.318 381.083 506.146 381.017 506.043 380.924C505.95 380.84 505.884 380.723 505.847 380.574C505.81 380.434 505.791 380.191 505.791 379.846V378.348H513.309V377.032H505.679V376.304H514.219V379.048H506.715V379.86C506.715 379.963 506.72 380.051 506.729 380.126C506.748 380.201 506.785 380.257 506.841 380.294C506.897 380.331 506.99 380.359 507.121 380.378C507.261 380.406 507.583 380.42 508.087 380.42H514.695V381.176H507.975ZM527.035 378.908H532.439V379.762H520.707V378.908H526.097V376.514H522.359V369.668H523.283V372.272H529.877V369.668H530.787V376.514H527.035V378.908ZM523.283 373.084V375.674H529.877V373.084H523.283ZM539.479 374.75C538.845 374.75 538.247 374.685 537.687 374.554C537.137 374.414 536.661 374.223 536.259 373.98C535.858 373.737 535.545 373.448 535.321 373.112C535.107 372.776 534.999 372.417 534.999 372.034C534.999 371.539 535.177 371.087 535.531 370.676C535.886 370.256 536.409 369.925 537.099 369.682C537.799 369.43 538.593 369.304 539.479 369.304C539.965 369.304 540.459 369.351 540.963 369.444C541.477 369.528 541.967 369.687 542.433 369.92C542.909 370.153 543.283 370.457 543.553 370.83C543.833 371.194 543.973 371.595 543.973 372.034C543.973 372.417 543.861 372.776 543.637 373.112C543.423 373.448 543.115 373.737 542.713 373.98C542.312 374.223 541.831 374.414 541.271 374.554C540.711 374.685 540.114 374.75 539.479 374.75ZM539.479 370.158C538.975 370.158 538.504 370.205 538.065 370.298C537.636 370.391 537.263 370.522 536.945 370.69C536.628 370.858 536.381 371.059 536.203 371.292C536.035 371.525 535.951 371.777 535.951 372.048C535.951 372.309 536.035 372.557 536.203 372.79C536.381 373.023 536.628 373.224 536.945 373.392C537.263 373.56 537.636 373.691 538.065 373.784C538.504 373.877 538.975 373.924 539.479 373.924C539.983 373.924 540.455 373.877 540.893 373.784C541.332 373.691 541.71 373.56 542.027 373.392C542.345 373.224 542.587 373.023 542.755 372.79C542.933 372.557 543.021 372.309 543.021 372.048C543.021 371.777 542.933 371.525 542.755 371.292C542.587 371.059 542.345 370.858 542.027 370.69C541.71 370.522 541.332 370.391 540.893 370.298C540.455 370.205 539.983 370.158 539.479 370.158ZM545.359 376.178V377.032H542.293V381.12H541.369V377.032H537.603V381.12H536.693V377.032H533.627V376.178H545.359ZM556.249 372.972H558.517V373.798H556.249V377.956H555.339V368.968H556.249V372.972ZM553.827 370.382V371.166H546.477V370.382H549.683V369.024H550.607V370.382H553.827ZM552.987 374.12C552.987 374.428 552.917 374.717 552.777 374.988C552.637 375.259 552.441 375.492 552.189 375.688C551.937 375.884 551.634 376.038 551.279 376.15C550.925 376.253 550.547 376.304 550.145 376.304C549.744 376.304 549.366 376.253 549.011 376.15C548.666 376.038 548.363 375.884 548.101 375.688C547.849 375.492 547.653 375.259 547.513 374.988C547.373 374.717 547.303 374.428 547.303 374.12C547.303 373.971 547.327 373.803 547.373 373.616C547.42 373.42 547.504 373.229 547.625 373.042C547.756 372.855 547.933 372.678 548.157 372.51C548.381 372.342 548.666 372.207 549.011 372.104C549.366 371.992 549.744 371.936 550.145 371.936C550.444 371.936 550.733 371.969 551.013 372.034C551.293 372.09 551.545 372.174 551.769 372.286C552.003 372.398 552.217 372.552 552.413 372.748C552.609 372.935 552.754 373.154 552.847 373.406C552.941 373.649 552.987 373.887 552.987 374.12ZM548.185 374.078C548.185 374.237 548.218 374.4 548.283 374.568C548.349 374.736 548.47 374.904 548.647 375.072C548.825 375.231 549.049 375.352 549.319 375.436C549.59 375.52 549.865 375.562 550.145 375.562C550.715 375.562 551.181 375.422 551.545 375.142C551.919 374.862 552.105 374.507 552.105 374.078C552.105 373.873 552.054 373.681 551.951 373.504C551.858 373.327 551.723 373.173 551.545 373.042C551.377 372.911 551.172 372.813 550.929 372.748C550.687 372.673 550.425 372.636 550.145 372.636C549.865 372.636 549.604 372.673 549.361 372.748C549.128 372.813 548.923 372.911 548.745 373.042C548.568 373.173 548.428 373.327 548.325 373.504C548.232 373.681 548.185 373.873 548.185 374.078ZM549.473 379.622C549.473 379.818 549.501 379.944 549.557 380C549.613 380.065 549.697 380.107 549.809 380.126C549.921 380.154 550.057 380.168 550.215 380.168C550.374 380.177 550.579 380.182 550.831 380.182H556.823V380.994H550.733C549.931 380.994 549.417 380.966 549.193 380.91C548.969 380.863 548.806 380.77 548.703 380.63C548.61 380.49 548.563 380.173 548.563 379.678V377.62H549.473V379.622ZM573.676 372.202V372.958H564.254V372.202H566.298C566.176 371.315 566.102 370.578 566.074 369.99H564.478V369.234H573.452V369.99H571.856C571.846 370.279 571.776 371.017 571.646 372.202H573.676ZM566.97 369.99C566.988 370.55 567.049 371.287 567.152 372.202H570.792C570.894 371.241 570.95 370.503 570.96 369.99H566.97ZM563.078 374.204H574.852V374.974H563.078V374.204ZM565.696 379.86C565.696 379.963 565.7 380.051 565.71 380.126C565.728 380.201 565.766 380.257 565.822 380.294C565.878 380.331 565.971 380.359 566.102 380.378C566.242 380.406 566.564 380.42 567.068 380.42H573.676V381.176H566.956C566.265 381.176 565.794 381.157 565.542 381.12C565.299 381.083 565.126 381.017 565.024 380.924C564.93 380.84 564.865 380.723 564.828 380.574C564.79 380.434 564.772 380.191 564.772 379.846V378.348H572.29V377.032H564.66V376.304H573.2V379.048H565.696V379.86ZM583.89 373.588V376.906H583.036V369.262H583.89V372.832H585.92V368.982H586.802V377.774H585.92V373.588H583.89ZM578.71 376.234C578.328 376.243 578.01 376.243 577.758 376.234C577.506 376.215 577.296 376.187 577.128 376.15C576.97 376.103 576.839 376.038 576.736 375.954C576.643 375.87 576.573 375.753 576.526 375.604C576.48 375.445 576.456 375.207 576.456 374.89V372.608H580.544V370.55H576.428V369.794H581.398V373.336H577.31V374.82C577.31 375.044 577.352 375.203 577.436 375.296C577.52 375.38 577.665 375.436 577.87 375.464C578.076 375.492 578.393 375.501 578.822 375.492C580.25 375.436 581.347 375.319 582.112 375.142L582.168 375.912C581.459 376.061 580.306 376.169 578.71 376.234ZM582.602 378.012C582.602 378.227 582.677 378.455 582.826 378.698C582.976 378.931 583.256 379.183 583.666 379.454C584.086 379.725 584.642 379.967 585.332 380.182C586.023 380.397 586.672 380.537 587.278 380.602L586.83 381.302C586.205 381.237 585.505 381.069 584.73 380.798C583.956 380.527 583.354 380.243 582.924 379.944C582.504 379.636 582.234 379.351 582.112 379.09C581.935 379.454 581.576 379.795 581.034 380.112C580.502 380.439 579.905 380.705 579.242 380.91C578.589 381.115 577.982 381.246 577.422 381.302L576.974 380.602C577.32 380.565 577.726 380.49 578.192 380.378C578.659 380.275 579.163 380.117 579.704 379.902C580.246 379.678 580.698 379.403 581.062 379.076C581.436 378.74 581.622 378.385 581.622 378.012V377.41H582.602V378.012ZM595.41 375.03H600.842V375.842H589.068V375.03H594.486V373.504H590.244V372.748H592.274C592.143 371.675 592.064 370.774 592.036 370.046H590.468V369.276H599.442V370.046H597.79C597.752 370.942 597.673 371.843 597.552 372.748H599.666V373.504H595.41V375.03ZM592.918 370.046C592.955 371.073 593.02 371.973 593.114 372.748H596.712C596.814 371.731 596.875 370.83 596.894 370.046H592.918ZM590.664 381.106V377.088H599.26V381.106H590.664ZM591.56 377.858V380.322H598.364V377.858H591.56Z" fill="white"/>
<path d="M563.165 277.313C562.143 277.313 561.144 277.616 560.294 278.184C559.443 278.752 558.781 279.559 558.39 280.504C557.998 281.448 557.896 282.488 558.095 283.49C558.295 284.493 558.787 285.414 559.51 286.137C560.233 286.86 561.154 287.352 562.157 287.552C563.159 287.751 564.199 287.649 565.143 287.258C566.088 286.866 566.895 286.204 567.463 285.354C568.031 284.504 568.334 283.505 568.334 282.482C568.333 281.112 567.788 279.798 566.819 278.829C565.85 277.86 564.536 277.315 563.165 277.313ZM563.165 285.539C562.561 285.539 561.97 285.36 561.467 285.024C560.964 284.688 560.573 284.211 560.341 283.652C560.11 283.094 560.049 282.479 560.167 281.886C560.285 281.293 560.576 280.748 561.004 280.321C561.431 279.893 561.976 279.602 562.569 279.484C563.162 279.366 563.776 279.427 564.335 279.658C564.893 279.89 565.371 280.281 565.707 280.784C566.042 281.287 566.222 281.878 566.222 282.482C566.221 283.293 565.898 284.069 565.326 284.642C564.753 285.215 563.976 285.538 563.165 285.539V285.539Z" fill="white"/>
<path d="M528.169 277.313C527.147 277.313 526.147 277.616 525.297 278.184C524.447 278.752 523.785 279.559 523.393 280.504C523.002 281.448 522.9 282.488 523.099 283.49C523.299 284.493 523.791 285.414 524.514 286.137C525.237 286.86 526.158 287.352 527.16 287.552C528.163 287.751 529.203 287.649 530.147 287.258C531.092 286.866 531.899 286.204 532.467 285.354C533.035 284.504 533.338 283.505 533.338 282.482C533.337 281.112 532.792 279.798 531.822 278.829C530.853 277.86 529.54 277.314 528.169 277.313V277.313ZM528.169 285.539C527.565 285.539 526.974 285.359 526.471 285.024C525.968 284.688 525.577 284.21 525.345 283.652C525.114 283.093 525.054 282.479 525.172 281.886C525.289 281.293 525.581 280.748 526.008 280.321C526.436 279.893 526.98 279.602 527.573 279.484C528.166 279.366 528.781 279.427 529.339 279.658C529.898 279.89 530.375 280.281 530.711 280.784C531.047 281.287 531.226 281.878 531.226 282.482C531.225 283.293 530.903 284.07 530.33 284.643C529.756 285.216 528.979 285.538 528.169 285.539V285.539Z" fill="white"/>
<path d="M545.669 249C544.646 249 543.647 249.303 542.797 249.871C541.947 250.439 541.285 251.246 540.893 252.191C540.502 253.135 540.4 254.175 540.599 255.177C540.799 256.18 541.291 257.101 542.014 257.824C542.737 258.547 543.658 259.039 544.661 259.238C545.663 259.438 546.702 259.335 547.647 258.944C548.591 258.553 549.399 257.891 549.967 257.041C550.535 256.191 550.838 255.191 550.838 254.169C550.836 252.798 550.291 251.485 549.322 250.516C548.353 249.547 547.039 249.001 545.669 249V249ZM545.669 257.225C545.064 257.225 544.473 257.046 543.971 256.71C543.468 256.374 543.077 255.897 542.845 255.338C542.614 254.78 542.554 254.165 542.672 253.572C542.789 252.98 543.081 252.435 543.508 252.008C543.935 251.58 544.48 251.289 545.073 251.171C545.666 251.053 546.28 251.114 546.839 251.345C547.397 251.577 547.874 251.968 548.21 252.471C548.546 252.974 548.725 253.564 548.725 254.169C548.724 254.979 548.402 255.756 547.829 256.329C547.256 256.902 546.479 257.224 545.669 257.225V257.225Z" fill="white"/>
<path d="M549.845 257.333L549.735 257.135L549.592 257.311C549.202 257.796 548.718 258.197 548.17 258.49L548.033 258.564L548.108 258.7L558.212 276.894C554.135 276.049 549.981 275.639 545.818 275.671C540.868 275.671 536.468 276.091 533.06 276.886L543.16 258.7L543.235 258.564L543.098 258.49C542.55 258.197 542.067 257.796 541.678 257.312L541.535 257.134L541.425 257.333L530.012 277.887L529.924 278.046L530.095 278.106C530.655 278.301 531.168 278.999 531.62 279.396L531.695 279.462L531.786 279.419L531.824 279.412C535.466 278.403 540.304 277.87 545.818 277.87C550.78 277.87 555.593 278.414 559.383 279.403L559.458 279.55L559.605 279.431L559.636 279.406C560.096 279 560.611 278.301 561.173 278.106L561.345 278.046L561.256 277.887L549.845 257.333Z" fill="white"/>
<path d="M17.8123 320.384C19.6256 320.384 21.0976 320.928 22.2283 322.016C23.3589 323.104 23.9243 324.544 23.9243 326.336C23.9243 328.117 23.3536 329.557 22.2123 330.656C21.0709 331.744 19.6043 332.288 17.8123 332.288C15.9989 332.288 14.5269 331.739 13.3963 330.64C12.2656 329.541 11.7003 328.107 11.7003 326.336C11.7003 324.565 12.2603 323.131 13.3803 322.032C14.5109 320.933 15.9883 320.384 17.8123 320.384ZM14.2923 326.336C14.2923 327.435 14.6176 328.32 15.2682 328.992C15.9296 329.653 16.7776 329.984 17.8123 329.984C18.8683 329.984 19.7163 329.643 20.3563 328.96C21.0069 328.277 21.3323 327.403 21.3323 326.336C21.3323 325.248 21.0016 324.368 20.3403 323.696C19.6896 323.024 18.8416 322.688 17.7963 322.688C16.7509 322.688 15.9029 323.029 15.2523 323.712C14.6123 324.395 14.2923 325.269 14.2923 326.336ZM34.4128 320.672V322.976H29.2128V325.088H34.1248V327.392H29.2128V329.696H34.7008V332H26.7168V320.672H34.4128ZM41.4749 320.672L44.0829 328.064H44.1149L46.7389 320.672H50.4989V332H48.0029V323.312H47.9709L44.9949 332H43.0909L40.2269 323.312H40.1949V332H37.6989V320.672H41.4749ZM69.8466 319.392H72.2786V333.184H69.8466V319.392ZM66.5986 324.288V319.744H68.8066V332.512H66.5986V326.496H65.0306V324.288H66.5986ZM63.7666 323.456C63.7666 323.883 63.8253 324.352 63.9426 324.864C64.06 325.376 64.2253 325.872 64.4386 326.352C64.6626 326.832 64.924 327.28 65.2226 327.696C65.5213 328.101 65.852 328.421 66.2146 328.656L64.6146 330.24C64.1666 329.867 63.7453 329.355 63.3506 328.704C62.956 328.043 62.7213 327.467 62.6466 326.976H62.6306C62.556 327.339 62.3746 327.787 62.0866 328.32C61.8093 328.843 61.5106 329.296 61.1906 329.68C60.8706 330.053 60.5933 330.331 60.3586 330.512L58.7586 328.928C59.036 328.736 59.3026 328.491 59.5586 328.192C59.8253 327.893 60.0813 327.547 60.3266 327.152C60.572 326.747 60.7853 326.309 60.9666 325.84C61.148 325.36 61.276 324.923 61.3506 324.528C61.436 324.133 61.4786 323.776 61.4786 323.456V322.512H59.3986V320.432H65.8466V322.512H63.7666V323.456ZM76.0155 326.128C76.7408 325.936 77.3968 325.696 77.9835 325.408C78.5702 325.109 79.0662 324.789 79.4715 324.448C79.8768 324.107 80.1862 323.76 80.3995 323.408C80.6128 323.056 80.7355 322.715 80.7675 322.384H76.7675V320.192H87.5515V322.384H83.5515C83.6048 322.896 83.8555 323.408 84.3035 323.92C84.7622 324.432 85.3488 324.88 86.0635 325.264C86.7782 325.637 87.5248 325.925 88.3035 326.128L86.9755 328.256C86.6022 328.139 86.1808 327.973 85.7115 327.76C85.2528 327.547 84.7728 327.269 84.2715 326.928C83.7702 326.576 83.3275 326.192 82.9435 325.776C82.5702 325.36 82.3088 324.949 82.1595 324.544C82.0315 324.907 81.8075 325.275 81.4875 325.648C81.1782 326.011 80.7995 326.363 80.3515 326.704C79.9035 327.045 79.4182 327.349 78.8955 327.616C78.3728 327.883 77.8555 328.096 77.3435 328.256L76.0155 326.128ZM83.3915 329.952H88.8635V332.096H75.4555V329.952H80.9275V327.312H83.3915V329.952ZM105.633 324.432V326.736H103.329V333.184H100.817V319.392H103.329V324.432H105.633ZM96.945 321.616C96.945 322.693 97.0623 323.691 97.297 324.608C97.5317 325.515 97.8837 326.352 98.353 327.12C98.8223 327.877 99.4143 328.517 100.129 329.04L98.513 330.672C98.2037 330.416 97.889 330.101 97.569 329.728C97.249 329.355 96.9557 328.96 96.689 328.544C96.433 328.128 96.2143 327.723 96.033 327.328C95.8517 326.923 95.7343 326.571 95.681 326.272H95.665C95.569 326.944 95.249 327.765 94.705 328.736C94.1717 329.707 93.569 330.459 92.897 330.992L91.073 329.44C91.5317 329.099 91.9637 328.667 92.369 328.144C92.7743 327.611 93.1263 327.008 93.425 326.336C93.7343 325.664 93.9743 324.928 94.145 324.128C94.3157 323.317 94.401 322.48 94.401 321.616V320.128H96.945V321.616ZM118.992 322.768V326.144H122.368V328.16H118.992V331.536H116.976V328.16H113.6V326.144H116.976V322.768H118.992ZM140.495 319.392H142.991V333.184H140.495V319.392ZM138.847 325.2C138.847 326.203 138.698 327.099 138.399 327.888C138.1 328.677 137.647 329.296 137.039 329.744C136.431 330.192 135.706 330.416 134.863 330.416C134.415 330.416 133.994 330.347 133.599 330.208C133.204 330.069 132.847 329.872 132.527 329.616C132.218 329.349 131.946 329.029 131.711 328.656C131.487 328.283 131.306 327.856 131.167 327.376C131.039 326.885 130.959 326.437 130.927 326.032C130.906 325.627 130.895 325.349 130.895 325.2C130.895 324.411 130.986 323.696 131.167 323.056C131.348 322.405 131.61 321.856 131.951 321.408C132.303 320.949 132.724 320.603 133.215 320.368C133.716 320.123 134.266 320 134.863 320C135.151 320 135.471 320.043 135.823 320.128C136.186 320.203 136.538 320.352 136.879 320.576C137.22 320.789 137.519 321.067 137.775 321.408C138.031 321.739 138.244 322.128 138.415 322.576C138.586 323.024 138.698 323.483 138.751 323.952C138.815 324.411 138.847 324.827 138.847 325.2ZM136.431 325.2C136.431 324.869 136.404 324.533 136.351 324.192C136.308 323.851 136.218 323.52 136.079 323.2C135.94 322.869 135.759 322.629 135.535 322.48C135.322 322.32 135.098 322.24 134.863 322.24C134.564 322.24 134.303 322.347 134.079 322.56C133.855 322.773 133.668 323.099 133.519 323.536C133.38 323.973 133.311 324.528 133.311 325.2C133.311 325.648 133.354 326.101 133.439 326.56C133.535 327.019 133.706 327.403 133.951 327.712C134.207 328.011 134.511 328.16 134.863 328.16C135.034 328.16 135.21 328.117 135.391 328.032C135.572 327.936 135.738 327.776 135.887 327.552C136.047 327.317 136.175 327.008 136.271 326.624C136.378 326.229 136.431 325.755 136.431 325.2ZM154.376 325.728H160.008V327.744H146.472V325.728H152.056V324.768L150.391 324.784C149.677 324.784 149.181 324.763 148.904 324.72C148.626 324.667 148.424 324.581 148.296 324.464C148.178 324.347 148.104 324.187 148.072 323.984C148.04 323.781 148.024 323.547 148.024 323.28V319.52H158.472V321.472H150.536V322.624C150.536 322.752 150.557 322.843 150.6 322.896C150.653 322.949 150.872 322.976 151.256 322.976C154.296 322.997 156.722 322.955 158.536 322.848L158.568 324.624C157.33 324.677 155.933 324.72 154.376 324.752V325.728ZM153.272 328.384C154.061 328.384 154.797 328.448 155.48 328.576C156.173 328.693 156.738 328.853 157.176 329.056C157.613 329.248 157.954 329.451 158.2 329.664C158.445 329.877 158.61 330.096 158.696 330.32C158.792 330.533 158.84 330.725 158.84 330.896C158.84 331.067 158.792 331.264 158.696 331.488C158.61 331.712 158.445 331.931 158.2 332.144C157.954 332.368 157.645 332.565 157.272 332.736C156.898 332.917 156.472 333.061 155.992 333.168C155.512 333.285 155.032 333.365 154.552 333.408C154.072 333.451 153.645 333.472 153.272 333.472C152.888 333.472 152.456 333.451 151.976 333.408C151.496 333.365 151.016 333.285 150.536 333.168C150.056 333.061 149.629 332.917 149.256 332.736C148.882 332.565 148.573 332.368 148.328 332.144C148.082 331.931 147.912 331.712 147.816 331.488C147.73 331.264 147.688 331.067 147.688 330.896C147.688 330.395 147.938 329.952 148.44 329.568C148.952 329.173 149.634 328.88 150.488 328.688C151.341 328.485 152.269 328.384 153.272 328.384ZM153.272 331.68C154.082 331.68 154.749 331.6 155.272 331.44C155.794 331.28 156.056 331.083 156.056 330.848C156.056 330.699 155.949 330.565 155.736 330.448C155.533 330.331 155.218 330.235 154.792 330.16C154.365 330.075 153.858 330.032 153.272 330.032C152.685 330.032 152.178 330.075 151.752 330.16C151.325 330.235 151.005 330.331 150.792 330.448C150.589 330.565 150.488 330.699 150.488 330.848C150.488 331.083 150.749 331.28 151.272 331.44C151.794 331.6 152.461 331.68 153.272 331.68ZM170.421 326.272H176.117V328.16H162.581V326.272H168.229V325.456L166.469 325.472C165.882 325.472 165.434 325.456 165.125 325.424C164.816 325.392 164.592 325.333 164.453 325.248C164.314 325.163 164.208 325.04 164.133 324.88C164.069 324.72 164.037 324.405 164.037 323.936V319.536H174.549V321.072H166.261V321.776H174.341V323.184H166.261V323.584C166.261 323.755 166.298 323.861 166.373 323.904C166.448 323.936 166.656 323.952 166.997 323.952C170.485 323.931 172.528 323.915 173.125 323.904C173.733 323.893 174.25 323.877 174.677 323.856V325.36C173.674 325.403 172.256 325.435 170.421 325.456V326.272ZM169.349 328.784C169.946 328.784 170.56 328.821 171.189 328.896C171.829 328.971 172.378 329.088 172.837 329.248C173.296 329.397 173.664 329.568 173.941 329.76C174.218 329.941 174.432 330.149 174.581 330.384C174.73 330.619 174.805 330.864 174.805 331.12C174.805 331.461 174.677 331.776 174.421 332.064C174.165 332.352 173.824 332.587 173.397 332.768C172.981 332.949 172.538 333.088 172.069 333.184C171.6 333.28 171.125 333.344 170.645 333.376C170.165 333.419 169.733 333.44 169.349 333.44C168.965 333.44 168.533 333.419 168.053 333.376C167.573 333.344 167.098 333.28 166.629 333.184C166.17 333.088 165.728 332.949 165.301 332.768C164.885 332.587 164.549 332.352 164.293 332.064C164.037 331.776 163.909 331.461 163.909 331.12C163.909 330.864 163.984 330.619 164.133 330.384C164.282 330.149 164.49 329.941 164.757 329.76C165.034 329.579 165.37 329.419 165.765 329.28C166.17 329.141 166.618 329.035 167.109 328.96C167.61 328.875 168.069 328.827 168.485 328.816C168.912 328.795 169.2 328.784 169.349 328.784ZM169.349 331.824C169.989 331.824 170.528 331.787 170.965 331.712C171.413 331.637 171.744 331.547 171.957 331.44C172.17 331.323 172.277 331.189 172.277 331.04C172.277 330.805 172 330.619 171.445 330.48C170.89 330.341 170.192 330.272 169.349 330.272C168.506 330.272 167.808 330.341 167.253 330.48C166.698 330.619 166.421 330.805 166.421 331.04C166.421 331.189 166.528 331.323 166.741 331.44C166.954 331.547 167.28 331.637 167.717 331.712C168.165 331.787 168.709 331.824 169.349 331.824ZM188.594 319.392H191.026V329.6H188.594V319.392ZM179.858 328.032L178.274 326.496C178.733 326.272 179.176 325.963 179.602 325.568C180.04 325.173 180.424 324.72 180.754 324.208C181.096 323.685 181.362 323.12 181.554 322.512C181.746 321.904 181.842 321.296 181.842 320.688V320H184.274V320.688C184.274 321.285 184.36 321.861 184.53 322.416C184.701 322.971 184.941 323.477 185.25 323.936C185.56 324.384 185.917 324.784 186.322 325.136C186.738 325.488 187.181 325.776 187.65 326L186.322 327.76C185.629 327.397 184.957 326.864 184.306 326.16C183.666 325.456 183.245 324.837 183.042 324.304H183.026C182.909 324.677 182.685 325.109 182.354 325.6C182.034 326.091 181.65 326.555 181.202 326.992C180.765 327.429 180.317 327.776 179.858 328.032ZM183.33 333.264C182.616 333.264 182.12 333.237 181.842 333.184C181.565 333.141 181.362 333.061 181.234 332.944C181.117 332.827 181.042 332.667 181.01 332.464C180.978 332.261 180.962 332.027 180.962 331.76V328.576H183.394V331.008C183.394 331.136 183.416 331.227 183.458 331.28C183.512 331.333 183.73 331.36 184.114 331.36H191.282V333.264H183.33ZM208.555 324.432V326.736H206.251V333.184H203.739V319.392H206.251V324.432H208.555ZM199.867 321.616C199.867 322.693 199.984 323.691 200.219 324.608C200.454 325.515 200.806 326.352 201.275 327.12C201.744 327.877 202.336 328.517 203.051 329.04L201.435 330.672C201.126 330.416 200.811 330.101 200.491 329.728C200.171 329.355 199.878 328.96 199.611 328.544C199.355 328.128 199.136 327.723 198.955 327.328C198.774 326.923 198.656 326.571 198.603 326.272H198.587C198.491 326.944 198.171 327.765 197.627 328.736C197.094 329.707 196.491 330.459 195.819 330.992L193.995 329.44C194.454 329.099 194.886 328.667 195.291 328.144C195.696 327.611 196.048 327.008 196.347 326.336C196.656 325.664 196.896 324.928 197.067 324.128C197.238 323.317 197.323 322.48 197.323 321.616V320.128H199.867V321.616Z" fill="white"/>
<path d="M76.3245 357.908H81.7285V358.762H69.9965V357.908H75.3865V354.66H71.4105V348.794H80.3145V354.66H76.3245V357.908ZM72.3345 349.606V353.848H79.3765V349.606H72.3345ZM95.2785 353.008V353.876H92.7725V360.036H91.8345V347.968H92.7725V353.008H95.2785ZM88.6285 352.266V348.822H89.5245V357.334H83.6165V348.822H84.5125V352.266H88.6285ZM84.5125 356.494H88.6285V353.05H84.5125V356.494ZM105.293 347.968H106.203V354.17H105.293V347.968ZM102.857 351.118C102.857 351.51 102.777 351.879 102.619 352.224C102.46 352.569 102.231 352.868 101.933 353.12C101.643 353.372 101.293 353.568 100.883 353.708C100.481 353.848 100.047 353.918 99.5808 353.918C99.2355 353.918 98.8762 353.871 98.5028 353.778C98.1388 353.685 97.8122 353.54 97.5228 353.344C97.2428 353.148 97.0188 352.938 96.8508 352.714C96.6828 352.49 96.5522 352.243 96.4588 351.972C96.3655 351.692 96.3188 351.407 96.3188 351.118C96.3188 350.763 96.3842 350.423 96.5148 350.096C96.6455 349.76 96.8602 349.452 97.1588 349.172C97.4575 348.892 97.8168 348.682 98.2368 348.542C98.6662 348.393 99.1142 348.318 99.5808 348.318C99.9262 348.318 100.257 348.36 100.575 348.444C100.901 348.519 101.195 348.631 101.457 348.78C101.718 348.92 101.947 349.093 102.143 349.298C102.339 349.503 102.493 349.737 102.605 349.998C102.726 350.25 102.796 350.483 102.815 350.698C102.843 350.903 102.857 351.043 102.857 351.118ZM101.933 351.132C101.933 350.927 101.895 350.712 101.821 350.488C101.746 350.255 101.601 350.026 101.387 349.802C101.172 349.578 100.901 349.41 100.575 349.298C100.248 349.186 99.9168 349.13 99.5808 349.13C99.4222 349.13 99.2402 349.149 99.0348 349.186C98.8388 349.214 98.6382 349.275 98.4328 349.368C98.2368 349.452 98.0455 349.573 97.8588 349.732C97.6815 349.891 97.5322 350.096 97.4108 350.348C97.2988 350.591 97.2428 350.852 97.2428 351.132C97.2428 351.421 97.2988 351.692 97.4108 351.944C97.5322 352.187 97.6955 352.401 97.9008 352.588C98.1155 352.765 98.3675 352.905 98.6568 353.008C98.9462 353.101 99.2542 353.148 99.5808 353.148C99.7395 353.148 99.9215 353.134 100.127 353.106C100.332 353.069 100.533 353.008 100.729 352.924C100.934 352.831 101.125 352.705 101.303 352.546C101.489 352.387 101.639 352.187 101.751 351.944C101.872 351.692 101.933 351.421 101.933 351.132ZM100.183 360.19C99.4828 360.19 99.0208 360.171 98.7968 360.134C98.5728 360.106 98.4048 360.059 98.2928 359.994C98.1808 359.929 98.0922 359.826 98.0268 359.686C97.9708 359.546 97.9428 359.261 97.9428 358.832V357.11H105.265V355.64H97.8308V354.87H106.175V357.866H98.8528V358.832C98.8528 359.037 98.8855 359.173 98.9508 359.238C99.0162 359.313 99.1375 359.359 99.3148 359.378C99.5015 359.397 99.8142 359.406 100.253 359.406H106.651V360.19H100.183ZM124.605 353.008V353.876H122.099V360.036H121.161V347.968H122.099V353.008H124.605ZM116.569 350.642C116.569 351.277 116.676 351.911 116.891 352.546C117.115 353.181 117.395 353.764 117.731 354.296C118.076 354.819 118.454 355.304 118.865 355.752C119.285 356.2 119.723 356.587 120.181 356.914L119.537 357.614C119.275 357.427 118.977 357.171 118.641 356.844C118.314 356.517 117.964 356.111 117.591 355.626C117.217 355.131 116.891 354.627 116.611 354.114C116.331 353.591 116.163 353.139 116.107 352.756H116.093C116.065 353.008 115.995 353.302 115.883 353.638C115.771 353.965 115.612 354.324 115.407 354.716C115.201 355.099 114.949 355.495 114.651 355.906C114.361 356.317 114.067 356.676 113.769 356.984C113.47 357.283 113.176 357.539 112.887 357.754L112.201 357.138C112.583 356.886 112.952 356.559 113.307 356.158C113.671 355.747 113.983 355.332 114.245 354.912C114.515 354.483 114.753 354.03 114.959 353.554C115.173 353.078 115.341 352.588 115.463 352.084C115.584 351.58 115.645 351.099 115.645 350.642V348.808H116.569V350.642ZM134.619 347.954H135.529V354.268H134.619V351.51H132.071V350.698H134.619V347.954ZM131.833 351.174C131.833 351.547 131.749 351.911 131.581 352.266C131.422 352.611 131.198 352.915 130.909 353.176C130.629 353.437 130.298 353.643 129.915 353.792C129.532 353.941 129.136 354.016 128.725 354.016C128.314 354.016 127.918 353.941 127.535 353.792C127.162 353.643 126.83 353.437 126.541 353.176C126.261 352.915 126.042 352.611 125.883 352.266C125.724 351.911 125.645 351.547 125.645 351.174C125.645 350.791 125.724 350.427 125.883 350.082C126.042 349.737 126.261 349.433 126.541 349.172C126.83 348.911 127.162 348.705 127.535 348.556C127.918 348.407 128.314 348.332 128.725 348.332C129.033 348.332 129.336 348.374 129.635 348.458C129.934 348.542 130.228 348.677 130.517 348.864C130.806 349.041 131.049 349.265 131.245 349.536C131.45 349.797 131.6 350.068 131.693 350.348C131.786 350.619 131.833 350.894 131.833 351.174ZM126.569 351.188C126.569 351.319 126.588 351.473 126.625 351.65C126.662 351.818 126.728 351.991 126.821 352.168C126.924 352.345 127.064 352.518 127.241 352.686C127.418 352.845 127.638 352.98 127.899 353.092C128.16 353.195 128.436 353.246 128.725 353.246C129.089 353.246 129.43 353.167 129.747 353.008C130.064 352.84 130.312 352.63 130.489 352.378C130.676 352.126 130.792 351.897 130.839 351.692C130.886 351.487 130.909 351.319 130.909 351.188C130.909 350.917 130.848 350.656 130.727 350.404C130.615 350.152 130.456 349.933 130.251 349.746C130.055 349.559 129.822 349.415 129.551 349.312C129.29 349.2 129.014 349.144 128.725 349.144C128.361 349.144 128.006 349.237 127.661 349.424C127.316 349.601 127.045 349.853 126.849 350.18C126.662 350.507 126.569 350.843 126.569 351.188ZM134.619 356.774V354.926H135.529V360.12H127.353V354.926H128.263V356.774H134.619ZM128.263 359.308H134.619V357.558H128.263V359.308ZM150.335 353.008V353.876H147.829V360.036H146.891V347.968H147.829V353.008H150.335ZM142.551 351.426C142.551 351.715 142.584 352.051 142.649 352.434C142.724 352.817 142.85 353.213 143.027 353.624C143.204 354.035 143.419 354.422 143.671 354.786C143.923 355.15 144.194 355.486 144.483 355.794C144.782 356.093 145.062 356.345 145.323 356.55C145.594 356.746 145.827 356.905 146.023 357.026L145.337 357.74C145.057 357.553 144.749 357.311 144.413 357.012C144.086 356.713 143.75 356.354 143.405 355.934C143.06 355.505 142.766 355.066 142.523 354.618C142.29 354.161 142.145 353.755 142.089 353.4H142.075C142.038 353.68 141.926 354.021 141.739 354.422C141.552 354.823 141.286 355.253 140.941 355.71C140.605 356.158 140.241 356.569 139.849 356.942C139.457 357.315 139.06 357.628 138.659 357.88L137.987 357.152C138.528 356.825 139.032 356.424 139.499 355.948C139.966 355.472 140.362 354.973 140.689 354.45C141.016 353.918 141.249 353.395 141.389 352.882C141.538 352.359 141.613 351.874 141.613 351.426V349.914H138.449V349.06H145.687V349.914H142.551V351.426Z" fill="white"/>
<path d="M117.871 253.905H102.553C101.143 253.905 100 255.048 100 256.458V289.647C100 291.057 101.143 292.2 102.553 292.2H117.871C119.281 292.2 120.424 291.057 120.424 289.647V256.458C120.424 255.048 119.281 253.905 117.871 253.905Z" stroke="#F9F9F9" stroke-width="1.96503" stroke-linecap="round" stroke-linejoin="round"/>
<path d="M99.8427 286.973H90.8587C90.3662 286.972 89.8942 286.775 89.546 286.427C89.1977 286.079 89.0014 285.607 89 285.114V260.951C89.0016 260.459 89.1979 259.987 89.5461 259.638C89.8944 259.29 90.3662 259.094 90.8587 259.092H100.092" stroke="#F9F9F9" stroke-width="1.96503" stroke-linecap="round" stroke-linejoin="round"/>
<path d="M120.686 286.973H129.67C130.163 286.972 130.635 286.775 130.983 286.427C131.331 286.079 131.528 285.607 131.529 285.114V260.951C131.528 260.459 131.331 259.987 130.983 259.638C130.635 259.29 130.163 259.094 129.67 259.092H120.438" stroke="#F9F9F9" stroke-width="1.96503" stroke-linecap="round" stroke-linejoin="round"/>
<path d="M107.658 288.54H112.764" stroke="#F9F9F9" stroke-width="1.96503" stroke-linecap="round" stroke-linejoin="round"/>
<path d="M94.5781 283.612H98.2956" stroke="#F9F9F9" stroke-width="1.96503" stroke-linecap="round" stroke-linejoin="round"/>
<path d="M125.952 283.612H122.234" stroke="#F9F9F9" stroke-width="1.96503" stroke-linecap="round" stroke-linejoin="round"/>
<path d="M124.426 252.999C124.425 251.693 123.907 250.442 122.984 249.519C122.061 248.596 120.809 248.077 119.504 248.076" stroke="#F9F9F9" stroke-width="1.96503" stroke-linecap="round" stroke-linejoin="round"/>
<path d="M127.504 252.383C127.503 250.425 126.725 248.548 125.341 247.164C123.956 245.779 122.079 245.001 120.121 245" stroke="#F9F9F9" stroke-width="1.96503" stroke-linecap="round" stroke-linejoin="round"/>
<path d="M110 230.118C110 109.708 207.612 12.0967 328.022 12.0967C448.432 12.0967 546.044 109.708 546.044 230.118" stroke="url(#paint0_linear_4798_1661)" stroke-width="24" stroke-miterlimit="10"/>
<defs>
<linearGradient id="paint0_linear_4798_1661" x1="97.7692" y1="114.992" x2="558.274" y2="114.992" gradientUnits="userSpaceOnUse">
<stop stop-color="#11E3A3"/>
<stop offset="0.99948" stop-color="#2464F2"/>
</linearGradient>
</defs>
</svg>
