<svg viewBox="0 0 656 385" fill="none" xmlns="http://www.w3.org/2000/svg">
<path d="M299.571 225.593H290.399L289.166 229.469H283L291.387 204.798H298.583L306.97 229.478H300.804L299.571 225.593ZM297.874 220.305L294.985 211.243L292.096 220.305H297.874V220.305Z" fill="white"/>
<path d="M319.485 211.496V217.493C317.297 217.138 314.197 218.025 314.197 221.513V229.478H308.91V211.842H314.197V214.984C314.898 212.619 317.263 211.496 319.485 211.496Z" fill="white"/>
<path d="M332.526 211.496V217.493C330.338 217.138 327.238 218.025 327.238 221.513V229.478H321.951V211.842H327.238V214.984C327.948 212.619 330.304 211.496 332.526 211.496Z" fill="white"/>
<path d="M352.554 211.842V229.469H347.267V227.814C346.101 229.157 344.378 229.968 342.013 229.968C337.393 229.968 333.584 225.914 333.584 220.66C333.584 215.407 337.393 211.353 342.013 211.353C344.378 211.353 346.101 212.163 347.267 213.506V211.851L352.554 211.842V211.842ZM347.267 220.66C347.267 218.016 345.501 216.361 343.069 216.361C340.636 216.361 338.871 218.016 338.871 220.66C338.871 223.304 340.636 224.959 343.069 224.959C345.501 224.959 347.267 223.304 347.267 220.66V220.66Z" fill="white"/>
<path d="M373.177 211.842L367.147 228.946C365.171 234.554 362.037 236.775 357.096 236.522V231.589C359.562 231.589 360.728 230.812 361.505 228.667L354.486 211.851H360.306L364.216 222.636L367.527 211.851H373.177V211.842Z" fill="white"/>
<path d="M357.854 149.84L353.816 142.408L352.378 145.074C352.297 145.219 352.2 145.365 352.119 145.51C352.103 145.542 352.071 145.575 352.055 145.607C351.962 145.748 351.859 145.883 351.748 146.011L351.716 146.043C351.616 146.169 351.508 146.288 351.392 146.399L351.344 146.447L350.956 146.786C350.94 146.786 350.94 146.802 350.924 146.802C350.644 147.015 350.347 147.204 350.035 147.368H350.019C349.698 147.522 349.362 147.647 349.018 147.739C348.545 147.877 348.056 147.948 347.564 147.949H311.7L310.246 145.252C309.794 144.412 309.556 143.475 309.552 142.521C309.552 142.311 309.552 142.085 309.568 141.875C309.452 143.038 309.688 144.209 310.246 145.235L332.249 185.849C332.676 186.69 333.327 187.398 334.131 187.892C334.936 188.386 335.861 188.647 336.805 188.647C337.749 188.647 338.674 188.386 339.478 187.892C340.282 187.398 340.934 186.69 341.36 185.849L357.854 155.413C358.316 154.557 358.557 153.599 358.557 152.626C358.557 151.653 358.316 150.696 357.854 149.84V149.84Z" fill="#2155AA"/>
<path d="M370.135 95.5435L337.115 95.6081C336.175 95.6219 335.255 95.8887 334.454 96.3804C333.652 96.8722 332.998 97.5708 332.559 98.4028L328.246 106.335H331.38C332.321 106.347 333.241 106.613 334.043 107.105C334.845 107.597 335.499 108.296 335.936 109.13L353.835 142.392L352.656 144.573C352.656 144.571 352.656 144.569 352.657 144.567C352.658 144.565 352.659 144.563 352.661 144.562C352.662 144.56 352.664 144.559 352.666 144.558C352.668 144.557 352.67 144.557 352.672 144.557L374.707 103.944C376.727 100.196 374.19 95.5435 370.135 95.5435Z" fill="#12E3A3"/>
<path d="M310.229 145.219C310.149 145.088 310.084 144.947 310.036 144.799C310.019 144.751 310.003 144.719 309.987 144.67C309.931 144.538 309.883 144.403 309.842 144.266C309.826 144.218 309.809 144.169 309.793 144.105C309.761 144.008 309.745 143.911 309.712 143.814C309.696 143.733 309.68 143.669 309.664 143.588C309.645 143.508 309.634 143.427 309.632 143.346C309.615 143.216 309.599 143.071 309.583 142.942C309.583 142.893 309.567 142.845 309.567 142.796C309.567 142.699 309.551 142.586 309.551 142.489C309.52 141.458 309.766 140.438 310.262 139.533L328.258 106.335H287.273C283.219 106.335 280.682 111.004 282.718 114.735L299.276 145.123C299.713 145.956 300.367 146.656 301.169 147.148C301.971 147.64 302.891 147.906 303.832 147.917H311.683L310.229 145.219V145.219Z" fill="#2464F2"/>
<path d="M352.055 145.591C352.071 145.558 352.104 145.526 352.12 145.494C352.217 145.348 352.297 145.203 352.378 145.058L353.832 142.392L335.949 109.129C335.512 108.296 334.858 107.596 334.056 107.104C333.254 106.612 332.334 106.346 331.393 106.335H328.259L310.247 139.533C309.75 140.443 309.505 141.469 309.536 142.505C309.548 143.458 309.786 144.393 310.23 145.235L311.684 147.933H347.564C348.056 147.931 348.546 147.861 349.018 147.723C349.366 147.641 349.702 147.516 350.02 147.352H350.036C350.35 147.194 350.648 147.005 350.924 146.786C350.94 146.786 350.94 146.77 350.957 146.77C351.086 146.657 351.215 146.56 351.344 146.431L351.393 146.382C351.509 146.272 351.617 146.153 351.716 146.027L351.748 145.995C351.861 145.865 351.958 145.72 352.055 145.591Z" fill="#357EE1"/>
<path d="M450.327 320.672L455.255 332H452.439L451.463 329.6H447.063L446.119 332H443.367L448.263 320.672H450.327ZM447.847 327.488H450.615L449.223 323.968L447.847 327.488ZM461.682 320.672C464.498 320.672 465.906 321.819 465.906 324.112C465.906 326.427 464.536 327.584 461.794 327.584H459.89V332H457.394V320.672H461.682ZM461.602 325.472C462.104 325.472 462.514 325.365 462.834 325.152C463.154 324.928 463.314 324.581 463.314 324.112C463.314 323.227 462.621 322.784 461.234 322.784H459.89V325.472H461.602ZM472.76 320.672C475.576 320.672 476.984 321.819 476.984 324.112C476.984 326.427 475.614 327.584 472.872 327.584H470.968V332H468.472V320.672H472.76ZM472.68 325.472C473.182 325.472 473.592 325.365 473.912 325.152C474.232 324.928 474.392 324.581 474.392 324.112C474.392 323.227 473.699 322.784 472.312 322.784H470.968V325.472H472.68ZM482.142 320.672V329.696H486.766V332H479.646V320.672H482.142ZM494.648 320.384C496.462 320.384 497.934 320.928 499.064 322.016C500.195 323.104 500.76 324.544 500.76 326.336C500.76 328.117 500.19 329.557 499.048 330.656C497.907 331.744 496.44 332.288 494.648 332.288C492.835 332.288 491.363 331.739 490.232 330.64C489.102 329.541 488.536 328.107 488.536 326.336C488.536 324.565 489.096 323.131 490.216 322.032C491.347 320.933 492.824 320.384 494.648 320.384ZM491.128 326.336C491.128 327.435 491.454 328.32 492.104 328.992C492.766 329.653 493.614 329.984 494.648 329.984C495.704 329.984 496.552 329.643 497.192 328.96C497.843 328.277 498.168 327.403 498.168 326.336C498.168 325.248 497.838 324.368 497.176 323.696C496.526 323.024 495.678 322.688 494.632 322.688C493.587 322.688 492.739 323.029 492.088 323.712C491.448 324.395 491.128 325.269 491.128 326.336ZM505.185 320.672L507.985 328.096H508.017L510.865 320.672H513.537L508.865 332H506.865L502.337 320.672H505.185ZM518.186 320.672V332H515.69V320.672H518.186ZM524.849 320.672L529.665 328.544H529.697V320.672H532.193V332H528.929L523.985 323.936H523.953V332H521.457V320.672H524.849ZM542.592 320.288C543.04 320.288 543.552 320.331 544.128 320.416C544.704 320.501 545.28 320.667 545.856 320.912C546.432 321.147 546.949 321.456 547.408 321.84C547.866 322.213 548.245 322.656 548.544 323.168C548.853 323.669 549.061 324.187 549.168 324.72C549.285 325.243 549.344 325.723 549.344 326.16C549.344 326.885 549.232 327.584 549.008 328.256C548.794 328.928 548.458 329.547 548 330.112C547.541 330.667 546.96 331.163 546.256 331.6C545.552 332.027 544.72 332.379 543.76 332.656L542.352 330.656C543.141 330.475 543.829 330.235 544.416 329.936C545.013 329.627 545.493 329.275 545.856 328.88C546.229 328.475 546.501 328.032 546.672 327.552C546.853 327.072 546.944 326.571 546.944 326.048C546.944 325.504 546.864 325.013 546.704 324.576C546.544 324.128 546.336 323.771 546.08 323.504C545.824 323.227 545.546 323.013 545.248 322.864C544.96 322.704 544.666 322.592 544.368 322.528C544.069 322.453 543.797 322.405 543.552 322.384C543.477 323.12 543.36 323.888 543.2 324.688C543.04 325.477 542.837 326.245 542.592 326.992C542.346 327.739 542.064 328.4 541.744 328.976C541.434 329.552 541.104 330.027 540.752 330.4C540.41 330.773 540.048 331.045 539.664 331.216C539.28 331.387 538.901 331.472 538.528 331.472C538.069 331.472 537.637 331.371 537.232 331.168C536.837 330.965 536.49 330.677 536.192 330.304C535.904 329.92 535.68 329.467 535.52 328.944C535.37 328.421 535.296 327.851 535.296 327.232C535.296 326.261 535.472 325.355 535.824 324.512C536.186 323.659 536.693 322.917 537.344 322.288C538.005 321.648 538.784 321.157 539.68 320.816C540.576 320.464 541.546 320.288 542.592 320.288ZM538.624 329.232C538.752 329.232 538.901 329.168 539.072 329.04C539.253 328.912 539.466 328.651 539.712 328.256C539.968 327.851 540.224 327.296 540.48 326.592C540.736 325.877 540.938 325.147 541.088 324.4C541.237 323.653 541.338 322.976 541.392 322.368C540.666 322.464 540 322.725 539.392 323.152C538.794 323.579 538.32 324.139 537.968 324.832C537.616 325.525 537.44 326.256 537.44 327.024C537.44 327.291 537.461 327.557 537.504 327.824C537.546 328.091 537.616 328.331 537.712 328.544C537.818 328.747 537.946 328.912 538.096 329.04C538.256 329.168 538.432 329.232 538.624 329.232ZM565.064 329.328L566.264 329.264V331.6L565.064 331.536H553.624L552.424 331.6V329.264L553.624 329.328H558.12V323.104H554.632L553.608 323.152V320.896L554.632 320.96H564.072L565.096 320.896V323.152L564.072 323.104H560.584V329.328H565.064ZM582.224 332.448L579.616 332.432L579.68 331.392H572.064L570.544 331.472V329.04L572.064 329.136H579.712V323.104H572.144L570.624 323.2V320.752L572.144 320.848H582.128L582.112 330.928L582.224 332.448ZM591.784 323.408C591.25 323.067 590.573 322.72 589.752 322.368C588.941 322.005 588.2 321.707 587.528 321.472L588.44 319.424C589.112 319.648 589.853 319.941 590.664 320.304C591.485 320.656 592.205 321.019 592.824 321.392L591.784 323.408ZM598.696 321.824L600.36 323.808C599.848 324.661 599.288 325.467 598.68 326.224C598.072 326.981 597.373 327.707 596.584 328.4C595.805 329.083 594.856 329.755 593.736 330.416C592.616 331.067 591.16 331.733 589.368 332.416L588.6 332.704L586.936 330.416L587.816 330.208C588.296 330.08 588.85 329.904 589.48 329.68C590.109 329.456 590.77 329.173 591.464 328.832C592.168 328.48 592.824 328.096 593.432 327.68C594.05 327.264 594.653 326.8 595.24 326.288C595.826 325.765 596.424 325.131 597.032 324.384C597.64 323.637 598.194 322.784 598.696 321.824ZM590.84 327.248C590.274 326.939 589.597 326.624 588.808 326.304C588.029 325.973 587.261 325.691 586.504 325.456L587.32 323.36C588.002 323.541 588.786 323.803 589.672 324.144C590.568 324.485 591.282 324.811 591.816 325.12L590.84 327.248ZM611.371 326.288C612.054 326.725 612.736 327.216 613.419 327.76C614.112 328.304 614.71 328.816 615.211 329.296C615.712 329.765 616.118 330.171 616.427 330.512L614.619 332.384C614.043 331.712 613.467 331.083 612.891 330.496C612.326 329.909 611.787 329.408 611.275 328.992C610.774 328.565 610.336 328.229 609.963 327.984C609.323 328.667 608.656 329.285 607.963 329.84C607.28 330.395 606.576 330.896 605.851 331.344C605.126 331.781 604.363 332.181 603.563 332.544L601.771 330.672C602.816 330.267 603.819 329.76 604.779 329.152C605.739 328.544 606.608 327.883 607.387 327.168C608.166 326.443 608.843 325.691 609.419 324.912C610.006 324.133 610.464 323.371 610.795 322.624L605.195 322.608L603.675 322.688V320.272L605.195 320.368H611.835L612.171 320.08L614.283 321.472L613.899 321.84C613.654 322.416 613.382 322.987 613.083 323.552C612.795 324.117 612.496 324.635 612.187 325.104C611.888 325.563 611.616 325.957 611.371 326.288ZM629.58 321.888H620.876L619.932 321.936V319.68L620.876 319.728H629.58L630.524 319.68V321.936L629.58 321.888ZM630.796 323.68L631.948 323.616V325.888L630.796 325.824H627.148C627.052 326.592 626.881 327.323 626.636 328.016C626.401 328.709 626.076 329.36 625.66 329.968C625.255 330.565 624.737 331.115 624.108 331.616C623.489 332.117 622.769 332.544 621.948 332.896L620.332 330.992C620.663 330.864 621.02 330.699 621.404 330.496C621.788 330.293 622.156 330.059 622.508 329.792C622.86 329.525 623.191 329.211 623.5 328.848C623.809 328.475 624.071 328.032 624.284 327.52C624.497 327.008 624.647 326.443 624.732 325.824H619.548L618.396 325.888V323.616L619.548 323.68H630.796ZM647.865 331.456L645.529 332.544C645.391 332.117 645.177 331.563 644.889 330.88C643.887 331.008 642.137 331.184 639.641 331.408C637.145 331.632 635.7 331.765 635.305 331.808L634.057 332.08L633.673 329.328L635.017 329.376L635.593 329.36C637.151 326.309 638.303 323.237 639.049 320.144L639.129 319.472L641.881 320.288L641.657 320.768C641.22 322.197 640.708 323.653 640.121 325.136C639.535 326.608 638.937 327.973 638.329 329.232C640.207 329.125 642.052 328.96 643.865 328.736C643.14 327.403 642.495 326.4 641.929 325.728L643.865 324.608C644.271 325.056 644.697 325.616 645.145 326.288C645.604 326.96 646.089 327.776 646.601 328.736C647.113 329.685 647.535 330.592 647.865 331.456Z" fill="white"/>
<path d="M453.205 359.224V353.176C453.205 352.401 453.233 351.454 453.289 350.334H453.261C452.72 350.847 452.351 351.188 452.155 351.356L451.609 351.832L450.769 350.838L453.359 348.668H454.717V359.224H453.205ZM463.229 359.224V356.914H458.245V355.668L462.585 348.668H464.643V355.668H466.057V356.914H464.643V359.224H463.229ZM463.229 352.714C463.229 351.613 463.248 350.577 463.285 349.606H463.257C463.201 349.727 463.103 349.919 462.963 350.18C462.832 350.441 462.674 350.74 462.487 351.076C462.31 351.403 462.165 351.655 462.053 351.832L459.729 355.668H463.229V352.714ZM474.471 354.044C474.471 355.099 474.34 356.037 474.079 356.858C473.827 357.679 473.425 358.314 472.875 358.762C472.333 359.201 471.671 359.42 470.887 359.42C469.72 359.42 468.833 358.944 468.227 357.992C467.62 357.04 467.317 355.677 467.317 353.904C467.317 353.503 467.34 353.055 467.387 352.56C467.443 352.065 467.541 351.589 467.681 351.132C467.821 350.665 468.003 350.259 468.227 349.914C468.46 349.559 468.731 349.275 469.039 349.06C469.356 348.836 469.683 348.687 470.019 348.612C470.355 348.528 470.663 348.486 470.943 348.486C471.736 348.486 472.399 348.715 472.931 349.172C473.463 349.62 473.85 350.264 474.093 351.104C474.345 351.944 474.471 352.924 474.471 354.044ZM472.931 353.932C472.931 352.588 472.753 351.552 472.399 350.824C472.044 350.096 471.545 349.732 470.901 349.732C470.583 349.732 470.294 349.825 470.033 350.012C469.781 350.189 469.566 350.46 469.389 350.824C469.211 351.179 469.076 351.617 468.983 352.14C468.899 352.663 468.857 353.255 468.857 353.918C468.857 355.309 469.034 356.368 469.389 357.096C469.753 357.815 470.266 358.174 470.929 358.174C471.582 358.174 472.077 357.815 472.413 357.096C472.758 356.368 472.931 355.313 472.931 353.932ZM475.786 361.254L476.738 357.53H478.32L477.004 361.254H475.786ZM486.857 354.044C486.857 355.099 486.727 356.037 486.465 356.858C486.213 357.679 485.812 358.314 485.261 358.762C484.72 359.201 484.057 359.42 483.273 359.42C482.107 359.42 481.22 358.944 480.613 357.992C480.007 357.04 479.703 355.677 479.703 353.904C479.703 353.503 479.727 353.055 479.773 352.56C479.829 352.065 479.927 351.589 480.067 351.132C480.207 350.665 480.389 350.259 480.613 349.914C480.847 349.559 481.117 349.275 481.425 349.06C481.743 348.836 482.069 348.687 482.405 348.612C482.741 348.528 483.049 348.486 483.329 348.486C484.123 348.486 484.785 348.715 485.317 349.172C485.849 349.62 486.237 350.264 486.479 351.104C486.731 351.944 486.857 352.924 486.857 354.044ZM485.317 353.932C485.317 352.588 485.14 351.552 484.785 350.824C484.431 350.096 483.931 349.732 483.287 349.732C482.97 349.732 482.681 349.825 482.419 350.012C482.167 350.189 481.953 350.46 481.775 350.824C481.598 351.179 481.463 351.617 481.369 352.14C481.285 352.663 481.243 353.255 481.243 353.918C481.243 355.309 481.421 356.368 481.775 357.096C482.139 357.815 482.653 358.174 483.315 358.174C483.969 358.174 484.463 357.815 484.799 357.096C485.145 356.368 485.317 355.313 485.317 353.932ZM495.621 354.044C495.621 355.099 495.49 356.037 495.229 356.858C494.977 357.679 494.576 358.314 494.025 358.762C493.484 359.201 492.821 359.42 492.037 359.42C490.87 359.42 489.984 358.944 489.377 357.992C488.77 357.04 488.467 355.677 488.467 353.904C488.467 353.503 488.49 353.055 488.537 352.56C488.593 352.065 488.691 351.589 488.831 351.132C488.971 350.665 489.153 350.259 489.377 349.914C489.61 349.559 489.881 349.275 490.189 349.06C490.506 348.836 490.833 348.687 491.169 348.612C491.505 348.528 491.813 348.486 492.093 348.486C492.886 348.486 493.549 348.715 494.081 349.172C494.613 349.62 495 350.264 495.243 351.104C495.495 351.944 495.621 352.924 495.621 354.044ZM494.081 353.932C494.081 352.588 493.904 351.552 493.549 350.824C493.194 350.096 492.695 349.732 492.051 349.732C491.734 349.732 491.444 349.825 491.183 350.012C490.931 350.189 490.716 350.46 490.539 350.824C490.362 351.179 490.226 351.617 490.133 352.14C490.049 352.663 490.007 353.255 490.007 353.918C490.007 355.309 490.184 356.368 490.539 357.096C490.903 357.815 491.416 358.174 492.079 358.174C492.732 358.174 493.227 357.815 493.563 357.096C493.908 356.368 494.081 355.313 494.081 353.932ZM504.385 354.044C504.385 355.099 504.254 356.037 503.993 356.858C503.741 357.679 503.339 358.314 502.789 358.762C502.247 359.201 501.585 359.42 500.801 359.42C499.634 359.42 498.747 358.944 498.141 357.992C497.534 357.04 497.231 355.677 497.231 353.904C497.231 353.503 497.254 353.055 497.301 352.56C497.357 352.065 497.455 351.589 497.595 351.132C497.735 350.665 497.917 350.259 498.141 349.914C498.374 349.559 498.645 349.275 498.953 349.06C499.27 348.836 499.597 348.687 499.933 348.612C500.269 348.528 500.577 348.486 500.857 348.486C501.65 348.486 502.313 348.715 502.845 349.172C503.377 349.62 503.764 350.264 504.007 351.104C504.259 351.944 504.385 352.924 504.385 354.044ZM502.845 353.932C502.845 352.588 502.667 351.552 502.313 350.824C501.958 350.096 501.459 349.732 500.815 349.732C500.497 349.732 500.208 349.825 499.947 350.012C499.695 350.189 499.48 350.46 499.303 350.824C499.125 351.179 498.99 351.617 498.897 352.14C498.813 352.663 498.771 353.255 498.771 353.918C498.771 355.309 498.948 356.368 499.303 357.096C499.667 357.815 500.18 358.174 500.843 358.174C501.496 358.174 501.991 357.815 502.327 357.096C502.672 356.368 502.845 355.313 502.845 353.932ZM515.57 355.164C515.906 355.855 516.373 356.564 516.97 357.292C517.577 358.02 518.156 358.594 518.706 359.014C518.622 359.126 518.529 359.257 518.426 359.406C518.333 359.555 518.268 359.663 518.23 359.728C518.193 359.793 518.17 359.835 518.16 359.854C518.114 359.817 518.02 359.737 517.88 359.616C517.75 359.495 517.526 359.271 517.208 358.944C516.891 358.617 516.532 358.188 516.13 357.656C515.729 357.115 515.384 356.573 515.094 356.032C514.702 356.629 514.245 357.161 513.722 357.628C513.209 358.085 512.644 358.501 512.028 358.874C511.422 359.238 510.731 359.588 509.956 359.924C509.779 359.681 509.569 359.42 509.326 359.14C510.698 358.589 511.809 357.983 512.658 357.32C513.508 356.657 514.156 355.911 514.604 355.08C515.062 354.249 515.379 353.302 515.556 352.238C515.743 351.165 515.85 349.877 515.878 348.374L515.85 347.702L516.844 347.772L516.83 348.136C516.793 349.312 516.723 350.315 516.62 351.146C516.527 351.977 516.392 352.719 516.214 353.372C516.046 354.025 515.832 354.623 515.57 355.164ZM511.986 354.534L511.888 355.556C511.86 355.565 511.79 355.593 511.678 355.64C511.576 355.687 510.866 355.985 509.55 356.536C508.234 357.087 507.268 357.483 506.652 357.726L506.078 357.992L505.868 356.998L506.512 356.788C506.68 356.732 507.082 356.583 507.716 356.34V348.318C507.716 348.169 507.707 348.01 507.688 347.842C507.791 347.842 507.959 347.851 508.192 347.87C508.435 347.879 508.603 347.889 508.696 347.898C508.678 348.029 508.668 348.173 508.668 348.332V355.948C508.986 355.817 509.364 355.663 509.802 355.486C510.241 355.299 510.675 355.113 511.104 354.926C511.543 354.739 511.837 354.609 511.986 354.534ZM513.022 352.602C512.873 352.359 512.663 352.056 512.392 351.692C512.122 351.319 511.809 350.931 511.454 350.53C511.1 350.129 510.773 349.797 510.474 349.536L511.146 349.018C511.389 349.223 511.683 349.513 512.028 349.886C512.374 350.259 512.696 350.637 512.994 351.02C513.302 351.393 513.559 351.725 513.764 352.014L513.022 352.602ZM531.208 358.3C531.75 358.3 532.132 358.295 532.356 358.286V359.238C532.142 359.229 531.759 359.224 531.208 359.224H521.128C520.587 359.224 520.204 359.229 519.98 359.238V358.286C520.204 358.295 520.587 358.3 521.128 358.3H525.37V348.136C525.37 347.968 525.361 347.791 525.342 347.604C525.604 347.604 525.958 347.618 526.406 347.646C526.388 347.833 526.378 348.001 526.378 348.15V351.986H530.788L531.46 351.972V352.896L530.788 352.882H526.378V358.3H531.208ZM540.448 349.158C541.503 349.158 542.446 349.354 543.276 349.746C544.116 350.129 544.756 350.679 545.194 351.398C545.633 352.107 545.852 352.924 545.852 353.848C545.852 354.473 545.75 355.066 545.544 355.626C545.348 356.177 545.059 356.676 544.676 357.124C544.294 357.572 543.836 357.959 543.304 358.286C542.782 358.613 542.194 358.874 541.54 359.07L540.77 358.328C541.48 358.151 542.1 357.899 542.632 357.572C543.164 357.245 543.589 356.881 543.906 356.48C544.233 356.069 544.471 355.64 544.62 355.192C544.77 354.744 544.844 354.296 544.844 353.848C544.844 353.288 544.746 352.775 544.55 352.308C544.354 351.841 544.074 351.445 543.71 351.118C543.356 350.791 542.926 350.539 542.422 350.362C541.918 350.175 541.368 350.073 540.77 350.054C540.714 351.118 540.598 352.07 540.42 352.91C540.252 353.75 540.052 354.469 539.818 355.066C539.594 355.663 539.328 356.186 539.02 356.634C538.712 357.082 538.367 357.427 537.984 357.67C537.602 357.913 537.186 358.034 536.738 358.034C536.477 358.034 536.211 357.969 535.94 357.838C535.679 357.698 535.436 357.493 535.212 357.222C534.988 356.951 534.806 356.611 534.666 356.2C534.536 355.789 534.47 355.323 534.47 354.8C534.47 353.736 534.732 352.765 535.254 351.888C535.777 351.011 536.491 350.339 537.396 349.872C538.311 349.396 539.328 349.158 540.448 349.158ZM536.836 357.054C537.004 357.054 537.2 356.998 537.424 356.886C537.658 356.774 537.896 356.564 538.138 356.256C538.381 355.948 538.6 355.561 538.796 355.094C539.002 354.627 539.179 354.095 539.328 353.498C539.487 352.901 539.604 352.299 539.678 351.692C539.753 351.076 539.804 350.53 539.832 350.054C539.002 350.11 538.255 350.343 537.592 350.754C536.93 351.155 536.412 351.701 536.038 352.392C535.665 353.083 535.478 353.829 535.478 354.632C535.478 355.089 535.534 355.5 535.646 355.864C535.768 356.228 535.94 356.517 536.164 356.732C536.388 356.947 536.612 357.054 536.836 357.054ZM558.83 348.99L559.992 349.872L559.53 350.096C559.362 350.525 559.115 351.011 558.788 351.552C558.462 352.084 558.032 352.611 557.5 353.134C556.978 353.657 556.422 354.105 555.834 354.478L555.092 353.82C555.662 353.484 556.184 353.097 556.66 352.658C557.136 352.21 557.514 351.767 557.794 351.328C558.084 350.88 558.303 350.474 558.452 350.11L549.758 350.152L548.988 350.194V349.144L549.758 349.186H558.662L558.83 348.99ZM553.482 352.28V351.692L554.602 351.916L554.49 352.462C554.332 354.039 553.888 355.388 553.16 356.508C552.442 357.628 551.457 358.515 550.206 359.168L549.394 358.384C550.038 358.095 550.603 357.749 551.088 357.348C551.583 356.937 551.994 356.475 552.32 355.962C552.656 355.449 552.918 354.884 553.104 354.268C553.291 353.652 553.417 352.989 553.482 352.28ZM573.684 346.89C574.048 346.89 574.352 347.016 574.594 347.268C574.846 347.52 574.972 347.833 574.972 348.206C574.972 348.579 574.846 348.892 574.594 349.144C574.352 349.387 574.048 349.508 573.684 349.508C573.311 349.508 572.998 349.387 572.746 349.144C572.494 348.892 572.368 348.579 572.368 348.206C572.368 347.833 572.494 347.52 572.746 347.268C572.998 347.016 573.311 346.89 573.684 346.89ZM573.684 349.018C573.908 349.018 574.1 348.939 574.258 348.78C574.417 348.621 574.496 348.43 574.496 348.206C574.496 347.982 574.417 347.791 574.258 347.632C574.1 347.473 573.908 347.394 573.684 347.394C573.46 347.394 573.269 347.473 573.11 347.632C572.961 347.791 572.886 347.982 572.886 348.206C572.886 348.43 572.961 348.621 573.11 348.78C573.269 348.939 573.46 349.018 573.684 349.018ZM571.878 349.424L572.186 349.284L573.096 350.096L572.788 350.362C572.21 352.453 571.346 354.193 570.198 355.584C569.06 356.975 567.576 358.095 565.746 358.944L564.962 358.216C565.392 358.029 565.872 357.787 566.404 357.488C566.936 357.189 567.464 356.83 567.986 356.41C568.509 355.981 569.013 355.477 569.498 354.898C569.984 354.31 570.418 353.624 570.8 352.84C571.192 352.056 571.496 351.225 571.71 350.348H564.066L563.296 350.39V349.382L564.066 349.424H571.878ZM578.372 348.864L578.33 348.276L579.45 348.36L579.38 348.92V354.058L579.436 354.828H578.316L578.372 354.058V348.864ZM580.542 359.07L579.898 358.244C581.065 357.88 581.956 357.465 582.572 356.998C583.188 356.531 583.631 355.976 583.902 355.332C584.182 354.688 584.322 353.909 584.322 352.994V348.864L584.28 348.276L585.4 348.36L585.33 348.92V352.798C585.33 354.497 584.957 355.831 584.21 356.802C583.473 357.763 582.25 358.519 580.542 359.07ZM601.304 353.358L600.52 353.456C599.195 353.699 598.112 353.96 597.272 354.24C597.309 354.679 597.328 355.243 597.328 355.934L597.37 356.704H596.362L596.404 355.878L596.362 354.576C595.951 354.735 595.517 354.931 595.06 355.164C594.603 355.397 594.229 355.668 593.94 355.976C593.651 356.275 593.506 356.597 593.506 356.942C593.506 357.866 594.393 358.328 596.166 358.328C596.726 358.328 597.314 358.286 597.93 358.202C598.555 358.118 599.195 358.006 599.848 357.866L599.904 358.986C598.597 359.173 597.365 359.266 596.208 359.266C595.536 359.266 594.906 359.187 594.318 359.028C593.73 358.869 593.277 358.622 592.96 358.286C592.652 357.941 592.498 357.53 592.498 357.054C592.498 356.793 592.554 356.522 592.666 356.242C592.787 355.953 592.993 355.668 593.282 355.388C593.581 355.108 593.968 354.837 594.444 354.576C594.92 354.305 595.527 354.025 596.264 353.736C596.227 353.521 596.166 353.321 596.082 353.134C595.998 352.947 595.877 352.812 595.718 352.728C595.569 352.644 595.373 352.602 595.13 352.602C594.253 352.602 593.427 352.915 592.652 353.54C592.167 353.932 591.747 354.385 591.392 354.898L590.93 355.5L590.006 354.674L590.58 354.212C591.439 353.409 592.12 352.7 592.624 352.084C593.137 351.459 593.525 350.908 593.786 350.432H591.308L590.664 350.474V349.466L591.308 349.508H594.178C594.309 349.107 594.444 348.598 594.584 347.982L595.69 348.094L595.48 348.444L595.13 349.508H598.812L599.456 349.466V350.474L598.812 350.432H594.766C594.561 350.843 594.211 351.393 593.716 352.084C593.959 351.981 594.211 351.902 594.472 351.846C594.743 351.79 594.976 351.762 595.172 351.762C595.555 351.762 595.872 351.813 596.124 351.916C596.376 352.019 596.586 352.191 596.754 352.434C596.931 352.667 597.067 352.994 597.16 353.414C597.599 353.265 598.075 353.12 598.588 352.98C599.101 352.831 599.661 352.681 600.268 352.532L601.01 352.336L601.304 353.358ZM614.618 349.116C615.131 349.116 615.495 349.107 615.71 349.088V349.97C615.495 349.961 615.131 349.956 614.618 349.956H608.724C608.584 350.255 608.425 350.567 608.248 350.894C608.071 351.221 607.893 351.524 607.716 351.804H613.764L613.75 352.294V357.908L613.764 358.664C613.764 358.823 613.741 358.963 613.694 359.084C613.647 359.205 613.568 359.313 613.456 359.406C613.344 359.499 613.195 359.574 613.008 359.63C612.831 359.695 612.583 359.747 612.266 359.784C611.958 359.831 611.538 359.854 611.006 359.854L610.502 358.874C610.95 358.93 611.361 358.958 611.734 358.958C612.051 358.958 612.313 358.93 612.518 358.874C612.733 358.809 612.84 358.678 612.84 358.482V357.908V357.096H607.674V359.364L607.702 359.938H606.736L606.764 359.364V353.12C606.269 353.717 605.77 354.221 605.266 354.632C604.771 355.033 604.291 355.36 603.824 355.612C603.721 355.435 603.53 355.192 603.25 354.884C604.23 354.324 605.103 353.624 605.868 352.784C606.633 351.935 607.263 350.992 607.758 349.956H604.832C604.319 349.956 603.955 349.961 603.74 349.97V349.088C603.955 349.107 604.319 349.116 604.832 349.116H608.122C608.365 348.509 608.561 347.879 608.71 347.226L609.648 347.436L609.592 347.548C609.545 347.735 609.466 347.991 609.354 348.318C609.251 348.635 609.158 348.901 609.074 349.116H614.618ZM612.84 354.128V352.588H607.674V354.128H612.84ZM607.674 356.382H612.84V354.842H607.674V356.382ZM628.674 349.914L629.458 349.886V350.894L628.674 350.866H625.09V353.26C625.183 353.484 625.258 353.75 625.314 354.058C625.37 354.357 625.398 354.655 625.398 354.954C625.398 355.943 625.104 356.844 624.516 357.656C623.928 358.459 623.125 359.056 622.108 359.448L621.408 358.65C621.753 358.547 622.131 358.375 622.542 358.132C622.953 357.889 623.326 357.577 623.662 357.194C624.007 356.811 624.222 356.443 624.306 356.088L624.208 356.074C624.133 356.158 624.026 356.237 623.886 356.312C623.755 356.377 623.597 356.429 623.41 356.466C623.233 356.494 623.065 356.508 622.906 356.508C622.561 356.508 622.243 356.405 621.954 356.2C621.665 355.985 621.445 355.729 621.296 355.43C621.147 355.131 621.072 354.805 621.072 354.45C621.072 354.151 621.123 353.857 621.226 353.568C621.338 353.279 621.492 353.022 621.688 352.798C621.884 352.574 622.117 352.401 622.388 352.28C622.659 352.149 622.948 352.084 623.256 352.084C623.601 352.084 623.914 352.149 624.194 352.28L624.18 350.866H618.748L617.964 350.894V349.886L618.748 349.914H624.166C624.166 349.503 624.157 349.093 624.138 348.682L624.068 348.094L625.216 348.178L625.104 348.738C625.085 349.158 625.081 349.55 625.09 349.914H628.674ZM623.172 355.654C623.368 355.654 623.564 355.607 623.76 355.514C623.956 355.421 624.115 355.267 624.236 355.052C624.357 354.837 624.418 354.613 624.418 354.38C624.418 354.081 624.367 353.811 624.264 353.568C624.161 353.325 624.017 353.157 623.83 353.064C623.653 352.961 623.471 352.91 623.284 352.91C622.892 352.91 622.579 353.036 622.346 353.288C622.113 353.54 621.996 353.885 621.996 354.324C621.996 354.548 622.038 354.767 622.122 354.982C622.206 355.187 622.341 355.351 622.528 355.472C622.715 355.593 622.929 355.654 623.172 355.654ZM637.031 352.588C637.628 352.588 638.179 352.672 638.683 352.84C639.187 353.008 639.616 353.241 639.971 353.54C640.325 353.829 640.596 354.17 640.783 354.562C640.979 354.954 641.077 355.369 641.077 355.808C641.077 356.321 640.969 356.807 640.755 357.264C640.54 357.712 640.204 358.113 639.747 358.468C639.299 358.813 638.776 359.07 638.179 359.238C637.581 359.406 636.989 359.49 636.401 359.49C636.046 359.49 635.682 359.457 635.309 359.392C634.945 359.327 634.623 359.219 634.343 359.07C634.063 358.93 633.839 358.753 633.671 358.538C633.512 358.314 633.433 358.057 633.433 357.768C633.433 357.581 633.475 357.395 633.559 357.208C633.652 357.012 633.811 356.835 634.035 356.676C634.268 356.508 634.543 356.387 634.861 356.312C635.178 356.228 635.463 356.186 635.715 356.186C636.107 356.186 636.503 356.275 636.905 356.452C637.306 356.62 637.656 356.858 637.955 357.166C638.263 357.465 638.501 357.768 638.669 358.076C638.893 357.955 639.112 357.782 639.327 357.558C639.551 357.334 639.723 357.068 639.845 356.76C639.975 356.443 640.041 356.125 640.041 355.808C640.041 355.444 639.957 355.113 639.789 354.814C639.63 354.515 639.406 354.263 639.117 354.058C638.827 353.853 638.491 353.699 638.109 353.596C637.735 353.484 637.339 353.428 636.919 353.428C636.349 353.428 635.813 353.489 635.309 353.61C634.814 353.722 634.343 353.89 633.895 354.114C633.456 354.338 633.031 354.618 632.621 354.954C632.219 355.29 631.841 355.649 631.487 356.032L630.717 355.22L631.207 354.926C631.272 354.879 631.403 354.781 631.599 354.632C631.804 354.483 632.733 353.806 634.385 352.602C636.037 351.389 637.236 350.46 637.983 349.816C637.077 349.844 635.589 349.872 633.517 349.9L632.747 349.942V348.948L633.517 348.99H638.893L639.215 348.864L639.663 349.858L639.271 349.984C639.056 350.152 638.482 350.572 637.549 351.244C636.615 351.916 635.873 352.453 635.323 352.854C635.92 352.677 636.489 352.588 637.031 352.588ZM636.289 358.608C636.839 358.608 637.325 358.552 637.745 358.44C637.633 358.188 637.469 357.945 637.255 357.712C637.049 357.479 636.807 357.297 636.527 357.166C636.247 357.035 635.976 356.97 635.715 356.97C635.416 356.97 635.155 357.012 634.931 357.096C634.707 357.18 634.553 357.283 634.469 357.404C634.394 357.525 634.357 357.637 634.357 357.74C634.357 357.88 634.408 358.006 634.511 358.118C634.623 358.23 634.758 358.319 634.917 358.384C635.075 358.449 635.267 358.505 635.491 358.552C635.715 358.589 635.981 358.608 636.289 358.608ZM504.388 367.89C504.752 367.89 505.056 368.016 505.298 368.268C505.55 368.52 505.676 368.833 505.676 369.206C505.676 369.579 505.55 369.892 505.298 370.144C505.056 370.387 504.752 370.508 504.388 370.508C504.015 370.508 503.702 370.387 503.45 370.144C503.198 369.892 503.072 369.579 503.072 369.206C503.072 368.833 503.198 368.52 503.45 368.268C503.702 368.016 504.015 367.89 504.388 367.89ZM504.388 370.018C504.612 370.018 504.804 369.939 504.962 369.78C505.121 369.621 505.2 369.43 505.2 369.206C505.2 368.982 505.121 368.791 504.962 368.632C504.804 368.473 504.612 368.394 504.388 368.394C504.164 368.394 503.973 368.473 503.814 368.632C503.665 368.791 503.59 368.982 503.59 369.206C503.59 369.43 503.665 369.621 503.814 369.78C503.973 369.939 504.164 370.018 504.388 370.018ZM502.582 370.424L502.89 370.284L503.8 371.096L503.492 371.362C502.914 373.453 502.05 375.193 500.902 376.584C499.764 377.975 498.28 379.095 496.45 379.944L495.666 379.216C496.096 379.029 496.576 378.787 497.108 378.488C497.64 378.189 498.168 377.83 498.69 377.41C499.213 376.981 499.717 376.477 500.202 375.898C500.688 375.31 501.122 374.624 501.504 373.84C501.896 373.056 502.2 372.225 502.414 371.348H494.77L494 371.39V370.382L494.77 370.424H502.582ZM515.631 370.438H508.883L508.281 370.48V369.472L508.883 369.514H515.631L516.233 369.472V370.48L515.631 370.438ZM516.583 372.706L517.535 373.56L517.213 373.868C516.961 374.475 516.685 375.011 516.387 375.478C516.097 375.945 515.799 376.36 515.491 376.724C515.192 377.079 514.823 377.457 514.385 377.858C513.955 378.25 513.405 378.656 512.733 379.076C512.07 379.496 511.309 379.879 510.451 380.224L509.695 379.44C510.031 379.328 510.413 379.179 510.843 378.992C511.272 378.805 511.734 378.563 512.229 378.264C512.733 377.956 513.237 377.587 513.741 377.158C514.245 376.719 514.716 376.201 515.155 375.604C515.603 374.997 515.939 374.363 516.163 373.7L508.057 373.742L507.287 373.784V372.776L508.057 372.818L516.303 372.846L516.583 372.706ZM526.075 374.526C526.028 374.283 525.958 373.999 525.865 373.672C525.771 373.336 525.65 372.977 525.501 372.594C525.351 372.211 525.207 371.875 525.067 371.586L525.935 371.166C526.037 371.343 526.149 371.581 526.271 371.88C526.401 372.169 526.537 372.529 526.677 372.958C526.817 373.387 526.933 373.798 527.026 374.19L526.075 374.526ZM524.115 379.412C524.441 379.272 524.787 379.104 525.151 378.908C525.524 378.703 525.911 378.446 526.312 378.138C526.714 377.821 527.12 377.438 527.531 376.99C527.941 376.542 528.324 376.015 528.679 375.408C529.043 374.801 529.341 374.148 529.575 373.448C529.817 372.739 529.985 372.025 530.079 371.306L531.073 371.684L530.975 371.95C530.499 373.985 529.747 375.683 528.721 377.046C527.694 378.409 526.369 379.459 524.745 380.196L524.115 379.412ZM522.953 375.226C522.841 374.787 522.663 374.283 522.421 373.714C522.187 373.145 521.954 372.65 521.721 372.23L522.575 371.74C522.799 372.123 523.027 372.589 523.261 373.14C523.503 373.691 523.718 374.227 523.905 374.75L522.953 375.226ZM544.373 376.472C543.533 375.968 542.637 375.501 541.685 375.072C540.742 374.633 539.804 374.279 538.871 374.008V379.496L538.927 380.266H537.793L537.849 379.496V369.388L537.807 368.8L538.941 368.884L538.871 369.444V373.056C539.953 373.383 541.017 373.765 542.062 374.204C543.108 374.633 544.055 375.105 544.905 375.618L544.373 376.472ZM557.646 370.284L558.556 371.096L558.248 371.362C557.67 373.453 556.806 375.193 555.658 376.584C554.52 377.975 553.036 379.095 551.206 379.944L550.422 379.216C550.852 379.029 551.332 378.787 551.864 378.488C552.396 378.189 552.924 377.83 553.446 377.41C553.969 376.981 554.473 376.477 554.958 375.898C555.444 375.31 555.878 374.624 556.26 373.84C556.652 373.056 556.956 372.225 557.17 371.348H549.526L548.756 371.39V370.382L549.526 370.424H557.338L557.646 370.284ZM571.027 372.86L571.671 372.818V373.77L571.027 373.728H569.417V379.244L569.459 380.014H568.409L568.451 379.244V375.226L568.507 374.414C568.273 374.769 567.984 375.151 567.639 375.562C567.293 375.973 566.887 376.397 566.421 376.836C565.963 377.265 565.445 377.699 564.867 378.138C564.288 378.567 563.663 378.969 562.991 379.342L562.445 378.544C563.014 378.273 563.565 377.956 564.097 377.592C564.638 377.219 565.137 376.822 565.595 376.402C566.061 375.973 566.486 375.534 566.869 375.086C567.251 374.629 567.587 374.176 567.877 373.728H563.593L562.963 373.77V372.818L563.593 372.86H568.451V371.376L568.409 370.788L569.473 370.872L569.417 371.432V372.86H571.027ZM576.039 374.106L576.781 374.148H585.657L586.399 374.106V375.17L585.657 375.128H576.781L576.039 375.17V374.106ZM598.714 379.482L597.79 379.93C597.724 379.753 597.636 379.524 597.524 379.244C597.421 378.964 597.332 378.745 597.258 378.586C596.203 378.726 594.794 378.88 593.03 379.048C591.266 379.216 589.819 379.337 588.69 379.412L587.682 379.552L587.444 378.334L588.326 378.39L588.998 378.376C589.492 377.517 589.982 376.551 590.468 375.478C590.953 374.405 591.354 373.415 591.672 372.51C591.989 371.595 592.222 370.83 592.372 370.214L592.456 369.626L593.646 369.962L593.408 370.494C593.09 371.577 592.689 372.743 592.204 373.994C591.718 375.235 591.056 376.682 590.216 378.334C591.289 378.278 592.451 378.194 593.702 378.082C594.952 377.961 595.993 377.839 596.824 377.718C596.544 377.195 596.259 376.715 595.97 376.276C595.69 375.828 595.456 375.483 595.27 375.24C595.083 374.997 594.957 374.834 594.892 374.75L595.62 374.19C595.928 374.526 596.273 374.983 596.656 375.562C597.048 376.131 597.444 376.794 597.846 377.55C598.247 378.306 598.536 378.95 598.714 379.482Z" fill="white"/>
<path d="M563.165 277.313C562.143 277.313 561.144 277.616 560.294 278.184C559.443 278.752 558.781 279.559 558.39 280.504C557.998 281.448 557.896 282.488 558.095 283.49C558.295 284.493 558.787 285.414 559.51 286.137C560.233 286.86 561.154 287.352 562.157 287.552C563.159 287.751 564.199 287.649 565.143 287.258C566.088 286.866 566.895 286.204 567.463 285.354C568.031 284.504 568.334 283.505 568.334 282.482C568.333 281.112 567.788 279.798 566.819 278.829C565.85 277.86 564.536 277.315 563.165 277.313ZM563.165 285.539C562.561 285.539 561.97 285.36 561.467 285.024C560.964 284.688 560.573 284.211 560.341 283.652C560.11 283.094 560.049 282.479 560.167 281.886C560.285 281.293 560.576 280.748 561.004 280.321C561.431 279.893 561.976 279.602 562.569 279.484C563.162 279.366 563.776 279.427 564.335 279.658C564.893 279.89 565.371 280.281 565.707 280.784C566.042 281.287 566.222 281.878 566.222 282.482C566.221 283.293 565.898 284.069 565.326 284.642C564.753 285.215 563.976 285.538 563.165 285.539V285.539Z" fill="white"/>
<path d="M528.169 277.313C527.147 277.313 526.147 277.616 525.297 278.184C524.447 278.752 523.785 279.559 523.393 280.504C523.002 281.448 522.9 282.488 523.099 283.49C523.299 284.493 523.791 285.414 524.514 286.137C525.237 286.86 526.158 287.352 527.16 287.552C528.163 287.751 529.203 287.649 530.147 287.258C531.092 286.866 531.899 286.204 532.467 285.354C533.035 284.504 533.338 283.505 533.338 282.482C533.337 281.112 532.792 279.798 531.822 278.829C530.853 277.86 529.54 277.314 528.169 277.313V277.313ZM528.169 285.539C527.565 285.539 526.974 285.359 526.471 285.024C525.968 284.688 525.577 284.21 525.345 283.652C525.114 283.093 525.054 282.479 525.172 281.886C525.289 281.293 525.581 280.748 526.008 280.321C526.436 279.893 526.98 279.602 527.573 279.484C528.166 279.366 528.781 279.427 529.339 279.658C529.898 279.89 530.375 280.281 530.711 280.784C531.047 281.287 531.226 281.878 531.226 282.482C531.225 283.293 530.903 284.07 530.33 284.643C529.756 285.216 528.979 285.538 528.169 285.539V285.539Z" fill="white"/>
<path d="M545.669 249C544.646 249 543.647 249.303 542.797 249.871C541.947 250.439 541.285 251.246 540.893 252.191C540.502 253.135 540.4 254.175 540.599 255.177C540.799 256.18 541.291 257.101 542.014 257.824C542.737 258.547 543.658 259.039 544.661 259.238C545.663 259.438 546.702 259.335 547.647 258.944C548.591 258.553 549.399 257.891 549.967 257.041C550.535 256.191 550.838 255.191 550.838 254.169C550.836 252.798 550.291 251.485 549.322 250.516C548.353 249.547 547.039 249.001 545.669 249V249ZM545.669 257.225C545.064 257.225 544.473 257.046 543.971 256.71C543.468 256.374 543.077 255.897 542.845 255.338C542.614 254.78 542.554 254.165 542.672 253.572C542.789 252.98 543.081 252.435 543.508 252.008C543.935 251.58 544.48 251.289 545.073 251.171C545.666 251.053 546.28 251.114 546.839 251.345C547.397 251.577 547.874 251.968 548.21 252.471C548.546 252.974 548.725 253.564 548.725 254.169C548.724 254.979 548.402 255.756 547.829 256.329C547.256 256.902 546.479 257.224 545.669 257.225V257.225Z" fill="white"/>
<path d="M549.845 257.333L549.735 257.135L549.592 257.311C549.202 257.796 548.718 258.197 548.17 258.49L548.033 258.564L548.108 258.7L558.212 276.894C554.135 276.049 549.981 275.639 545.818 275.671C540.868 275.671 536.468 276.091 533.06 276.886L543.16 258.7L543.235 258.564L543.098 258.49C542.55 258.197 542.067 257.796 541.678 257.312L541.535 257.134L541.425 257.333L530.012 277.887L529.924 278.046L530.095 278.106C530.655 278.301 531.168 278.999 531.62 279.396L531.695 279.462L531.786 279.419L531.824 279.412C535.466 278.403 540.304 277.87 545.818 277.87C550.78 277.87 555.593 278.414 559.383 279.403L559.458 279.55L559.605 279.431L559.636 279.406C560.096 279 560.611 278.301 561.173 278.106L561.345 278.046L561.256 277.887L549.845 257.333Z" fill="white"/>
<path d="M51.1326 320.384C52.9459 320.384 54.4179 320.928 55.5486 322.016C56.6792 323.104 57.2446 324.544 57.2446 326.336C57.2446 328.117 56.6739 329.557 55.5326 330.656C54.3912 331.744 52.9246 332.288 51.1326 332.288C49.3192 332.288 47.8472 331.739 46.7166 330.64C45.5859 329.541 45.0206 328.107 45.0206 326.336C45.0206 324.565 45.5806 323.131 46.7006 322.032C47.8312 320.933 49.3086 320.384 51.1326 320.384ZM47.6126 326.336C47.6126 327.435 47.9379 328.32 48.5886 328.992C49.2499 329.653 50.0979 329.984 51.1326 329.984C52.1886 329.984 53.0366 329.643 53.6766 328.96C54.3272 328.277 54.6526 327.403 54.6526 326.336C54.6526 325.248 54.3219 324.368 53.6606 323.696C53.0099 323.024 52.1619 322.688 51.1166 322.688C50.0712 322.688 49.2232 323.029 48.5726 323.712C47.9326 324.395 47.6126 325.269 47.6126 326.336ZM67.7331 320.672V322.976H62.5331V325.088H67.4451V327.392H62.5331V329.696H68.0211V332H60.0371V320.672H67.7331ZM74.7952 320.672L77.4032 328.064H77.4352L80.0592 320.672H83.8192V332H81.3232V323.312H81.2912L78.3152 332H76.4112L73.5472 323.312H73.5152V332H71.0192V320.672H74.7952ZM98.0469 322.768V326.144H101.423V328.16H98.0469V331.536H96.0309V328.16H92.6549V326.144H96.0309V322.768H98.0469ZM123.95 327.44L122.798 327.52L118.894 328.032L119.534 331.168L119.966 332.64L117.342 333.024L117.118 331.52L116.478 328.352L111.806 328.96L110.67 329.184L110.382 326.912L111.518 326.832L116.046 326.24L115.598 324L111.902 324.448L110.894 324.624L110.622 322.384L111.646 322.32L115.166 321.888L114.718 319.68L114.494 319.04L117.054 318.8L117.102 319.312L117.566 321.584L121.246 321.136L122.238 320.96L122.526 323.2L121.502 323.264L117.998 323.696L118.462 325.92L122.526 325.392L123.646 325.168L123.95 327.44ZM138.441 322.88L140.313 324.608L139.993 324.864C138.894 326.699 137.849 328.112 136.857 329.104L135.081 327.808C135.433 327.477 135.774 327.125 136.105 326.752C136.435 326.368 136.686 326.059 136.857 325.824C137.038 325.589 137.155 325.429 137.209 325.344L133.657 325.984L134.889 331.056L135.337 332.512L132.969 333.072L132.681 331.568L131.417 326.384L129.849 326.656L128.361 327.008L127.961 324.768L129.481 324.592L130.921 324.352L130.393 322.224L130.169 321.584L132.569 321.232L132.633 321.744L133.177 323.968L138.105 323.136L138.441 322.88ZM146.105 320.048L146.041 319.376L148.649 319.52L148.569 320.048L148.553 325.728L148.649 327.248H146.009L146.105 325.728V320.048ZM149.193 332.88L147.497 330.88C148.531 330.581 149.395 330.261 150.089 329.92C150.793 329.568 151.358 329.168 151.785 328.72C152.222 328.261 152.537 327.728 152.729 327.12C152.931 326.501 153.033 325.776 153.033 324.944V320.048L152.969 319.376L155.593 319.52L155.513 320.048V325.184C155.513 325.824 155.454 326.443 155.337 327.04C155.23 327.637 155.054 328.203 154.809 328.736C154.563 329.259 154.227 329.755 153.801 330.224C153.385 330.693 152.889 331.109 152.313 331.472C151.747 331.835 151.198 332.123 150.665 332.336C150.131 332.56 149.641 332.741 149.193 332.88ZM173.011 319.68L174.963 321.392L174.563 321.696C174.361 322.229 174.099 322.773 173.779 323.328C173.459 323.883 173.102 324.411 172.707 324.912C172.313 325.403 171.886 325.851 171.427 326.256C170.969 326.661 170.494 326.987 170.003 327.232L168.403 325.68C169.161 325.296 169.838 324.8 170.435 324.192C171.043 323.573 171.491 322.907 171.779 322.192L162.595 322.176L161.075 322.256V319.84L162.595 319.936H172.659L173.011 319.68ZM165.907 323.648L168.467 323.84L168.371 324.368C168.254 326.523 167.795 328.288 166.995 329.664C166.195 331.04 165.033 332.107 163.507 332.864L161.555 331.216C162.142 330.971 162.67 330.688 163.139 330.368C163.619 330.037 164.025 329.68 164.355 329.296C164.686 328.901 164.958 328.48 165.171 328.032C165.395 327.584 165.577 327.061 165.715 326.464C165.854 325.856 165.939 325.141 165.971 324.32L165.907 323.648Z" fill="white"/>
<path d="M73.1907 353.05L73.9607 353.008V354.016L73.1907 353.974H67.6467V356.592C67.6467 356.797 67.6747 356.979 67.7307 357.138C67.796 357.287 67.894 357.409 68.0247 357.502C68.1647 357.586 68.356 357.651 68.5987 357.698C68.8507 357.735 69.1633 357.754 69.5367 357.754C69.8727 357.754 70.2553 357.749 70.6847 357.74C71.1233 357.721 71.8047 357.67 72.7287 357.586L72.8407 358.538C71.8793 358.65 70.7173 358.706 69.3547 358.706C68.8693 358.706 68.4493 358.669 68.0947 358.594C67.7493 358.51 67.4647 358.389 67.2407 358.23C67.026 358.071 66.8673 357.871 66.7647 357.628C66.662 357.385 66.6107 357.101 66.6107 356.774V353.974H63.3627L62.5927 354.016V353.008L63.3627 353.05H66.6247V350.068H64.0347L63.3487 350.11V349.102L64.0347 349.144H72.2807L72.9667 349.102V350.11L72.2807 350.068H67.6467V353.05H73.1907ZM86.3579 347.156H87.1139V349.298H86.3579V347.156ZM87.7999 347.156H88.5559V349.298H87.7999V347.156ZM86.9739 358.216C86.8059 357.479 86.5679 356.648 86.2599 355.724C85.9612 354.791 85.5739 353.811 85.0979 352.784C84.6312 351.757 84.1319 350.824 83.5999 349.984L84.4539 349.606C85.1539 350.679 85.8306 351.991 86.4839 353.54C87.1465 355.08 87.6459 356.536 87.9819 357.908L86.9739 358.216ZM76.9499 358.398L76.0119 357.768C76.3292 357.451 76.6559 357.054 76.9919 356.578C77.3372 356.093 77.6592 355.528 77.9579 354.884C78.2659 354.231 78.5319 353.507 78.7559 352.714C78.9892 351.921 79.1432 351.099 79.2179 350.25V349.648L80.3379 349.97L80.1979 350.516C80.0672 351.496 79.8665 352.439 79.5959 353.344C79.3252 354.24 79.0125 355.043 78.6579 355.752C78.3032 356.452 77.9765 357.012 77.6779 357.432C77.3885 357.843 77.1459 358.165 76.9499 358.398ZM99.6439 347.772L100.554 348.416L100.148 348.85C99.2892 349.765 98.3512 350.619 97.3339 351.412L97.3619 358.146L97.4179 359.434H96.2419L96.2979 358.216L96.4239 352.112C94.7252 353.335 92.9332 354.361 91.0479 355.192L90.3479 354.366C91.2812 353.983 92.2005 353.549 93.1059 353.064C94.0205 352.569 94.8792 352.037 95.6819 351.468C96.4939 350.899 97.2359 350.301 97.9079 349.676C98.5892 349.041 99.1679 348.407 99.6439 347.772ZM115.505 353.036L116.037 353.89C115.487 354.73 114.763 355.519 113.867 356.256C112.971 356.993 112.033 357.595 111.053 358.062L110.591 358.3L109.751 357.684L109.877 357.418V349.13L109.835 348.542L110.955 348.626L110.885 349.186V356.998C111.315 356.811 111.809 356.536 112.369 356.172C112.939 355.808 113.503 355.346 114.063 354.786C114.633 354.217 115.113 353.633 115.505 353.036ZM106.279 349.214L106.237 348.626L107.357 348.71L107.287 349.27V351.566C107.287 352.527 107.236 353.377 107.133 354.114C107.031 354.842 106.863 355.495 106.629 356.074C106.396 356.643 106.074 357.171 105.663 357.656C105.262 358.132 104.763 358.585 104.165 359.014L103.381 358.202C104.063 357.782 104.609 357.297 105.019 356.746C105.439 356.195 105.752 355.509 105.957 354.688C106.172 353.867 106.279 352.779 106.279 351.426V349.214ZM129.407 355.276L129.813 355.262V356.032L129.407 356.018H128.497V358.244L128.511 358.706H127.601V357.796H123.947V358.006L123.975 358.748C123.975 359.056 123.882 359.289 123.695 359.448C123.509 359.607 123.224 359.719 122.841 359.784C122.468 359.859 121.959 359.896 121.315 359.896L120.839 358.972C121.399 359.028 121.791 359.056 122.015 359.056C122.221 359.056 122.407 359.042 122.575 359.014C122.753 358.986 122.879 358.935 122.953 358.86C123.037 358.785 123.079 358.687 123.079 358.566V358.006V357.796H119.117C118.688 357.796 118.38 357.805 118.193 357.824V357.068C118.38 357.087 118.688 357.096 119.117 357.096H123.079V356.018H118.179C117.713 356.018 117.377 356.027 117.171 356.046V355.248C117.377 355.267 117.713 355.276 118.179 355.276H123.079V354.212H119.187C118.767 354.212 118.459 354.221 118.263 354.24V353.484C118.459 353.493 118.767 353.498 119.187 353.498H123.079V352.532H119.145C119.164 352.383 119.173 352.271 119.173 352.196V350.446C119.173 350.353 119.164 350.241 119.145 350.11H123.079V349.228H118.697C118.184 349.228 117.82 349.237 117.605 349.256V348.416C117.82 348.435 118.184 348.444 118.697 348.444H123.079V347.842C123.079 347.683 123.07 347.52 123.051 347.352C123.303 347.352 123.611 347.366 123.975 347.394C123.957 347.562 123.947 347.711 123.947 347.842V348.444H128.511C129.015 348.444 129.379 348.435 129.603 348.416V349.256C129.379 349.237 129.015 349.228 128.511 349.228H123.947V350.11H127.937L127.923 350.446V352.196L127.937 352.532H123.947V353.498H128.511L128.497 353.96V355.276H129.407ZM120.041 351.902H123.079V350.74H120.041V351.902ZM127.041 350.74H123.947V351.902H127.041V350.74ZM123.947 354.212V355.276H127.601V354.212H123.947ZM123.947 357.096H127.601V356.018H123.947V357.096ZM142.427 350.39H132.725C132.231 350.39 131.876 350.395 131.661 350.404V349.62C131.876 349.639 132.231 349.648 132.725 349.648H134.125C133.864 349.209 133.481 348.687 132.977 348.08L133.803 347.814C134.205 348.318 134.615 348.911 135.035 349.592L134.825 349.648H135.889V347.828L135.861 347.464C136.095 347.464 136.393 347.478 136.757 347.506C136.739 347.618 136.729 347.73 136.729 347.842V349.648H138.423V347.828L138.395 347.464C138.629 347.464 138.927 347.478 139.291 347.506C139.273 347.618 139.263 347.73 139.263 347.842V349.648H140.215C140.421 349.396 140.64 349.083 140.873 348.71C141.116 348.327 141.298 347.996 141.419 347.716L142.245 348.066L142.147 348.192C142.101 348.276 142.003 348.444 141.853 348.696C141.704 348.939 141.485 349.256 141.195 349.648H142.427C142.922 349.648 143.277 349.639 143.491 349.62V350.404C143.277 350.395 142.922 350.39 142.427 350.39ZM143.449 359.56C142.889 359.439 142.339 359.285 141.797 359.098C141.256 358.911 140.747 358.697 140.271 358.454C139.795 358.211 139.357 357.95 138.955 357.67C138.554 357.381 138.209 357.087 137.919 356.788C137.947 357.665 137.961 358.575 137.961 359.518L137.975 359.924H137.079C137.089 359.849 137.093 359.714 137.093 359.518C137.093 358.631 137.107 357.74 137.135 356.844C136.697 357.283 136.141 357.703 135.469 358.104C134.807 358.505 134.144 358.827 133.481 359.07C132.819 359.313 132.235 359.495 131.731 359.616C131.582 359.364 131.414 359.098 131.227 358.818C132.245 358.622 133.225 358.319 134.167 357.908C135.119 357.497 135.871 357.031 136.421 356.508H132.487C131.974 356.508 131.61 356.513 131.395 356.522V355.724C131.61 355.743 131.974 355.752 132.487 355.752H137.107V354.562H133.817C133.407 354.562 133.108 354.571 132.921 354.59V353.834C133.108 353.843 133.407 353.848 133.817 353.848H137.107V352.784H133.271C132.814 352.784 132.487 352.793 132.291 352.812V352.028C132.487 352.047 132.814 352.056 133.271 352.056H135.385C135.199 351.72 134.942 351.319 134.615 350.852L135.455 350.572C135.707 350.964 135.997 351.459 136.323 352.056H138.871C139.254 351.468 139.52 350.969 139.669 350.558L140.537 350.866L140.453 350.992C140.313 351.272 140.108 351.627 139.837 352.056H141.895C142.353 352.056 142.679 352.047 142.875 352.028V352.812C142.679 352.793 142.353 352.784 141.895 352.784H137.947V353.848H141.307C141.718 353.848 142.017 353.843 142.203 353.834V354.59C142.017 354.571 141.718 354.562 141.307 354.562H137.947V355.752H142.623C143.137 355.752 143.505 355.743 143.729 355.724V356.522C143.505 356.513 143.137 356.508 142.623 356.508H138.619C139.17 357.012 139.935 357.469 140.915 357.88C141.895 358.281 142.913 358.571 143.967 358.748C143.715 359.112 143.543 359.383 143.449 359.56ZM156.707 351.454C157.23 351.454 157.603 351.449 157.827 351.44V352.28C157.603 352.271 157.23 352.266 156.707 352.266H152.787C152.377 352.574 151.943 352.873 151.485 353.162C151.037 353.442 150.58 353.703 150.113 353.946H155.755L155.741 354.422V359.406L155.755 359.896H154.775V359.224H149.511V359.896H148.573C148.592 359.691 148.601 359.527 148.601 359.406V354.66C147.724 355.043 146.781 355.383 145.773 355.682C145.717 355.561 145.531 355.285 145.213 354.856C147.509 354.333 149.567 353.47 151.387 352.266H146.529C146.007 352.266 145.633 352.271 145.409 352.28V351.44C145.633 351.449 146.007 351.454 146.529 351.454H150.659V349.774H147.593C147.239 349.774 146.977 349.783 146.809 349.802V348.948C146.977 348.967 147.239 348.976 147.593 348.976H150.659V347.73C150.659 347.609 150.65 347.473 150.631 347.324C150.865 347.324 151.191 347.338 151.611 347.366C151.593 347.497 151.583 347.618 151.583 347.73V348.976H153.375C153.73 348.976 153.996 348.967 154.173 348.948V349.802C153.996 349.783 153.73 349.774 153.375 349.774H151.583V351.454H152.521C153.893 350.381 155.088 349.111 156.105 347.646L156.875 348.122L156.791 348.206C156.334 348.822 155.853 349.401 155.349 349.942C154.855 350.483 154.337 350.987 153.795 351.454H156.707ZM154.775 356.172V354.688H149.511V356.172H154.775ZM149.511 358.482H154.775V356.886H149.511V358.482Z" fill="white"/>
<path d="M117.871 253.905H102.553C101.143 253.905 100 255.048 100 256.458V289.647C100 291.057 101.143 292.2 102.553 292.2H117.871C119.281 292.2 120.424 291.057 120.424 289.647V256.458C120.424 255.048 119.281 253.905 117.871 253.905Z" stroke="#F9F9F9" stroke-width="1.96503" stroke-linecap="round" stroke-linejoin="round"/>
<path d="M99.8427 286.973H90.8587C90.3662 286.972 89.8942 286.775 89.546 286.427C89.1977 286.079 89.0014 285.607 89 285.114V260.951C89.0016 260.459 89.1979 259.987 89.5461 259.638C89.8944 259.29 90.3662 259.094 90.8587 259.092H100.092" stroke="#F9F9F9" stroke-width="1.96503" stroke-linecap="round" stroke-linejoin="round"/>
<path d="M120.686 286.973H129.67C130.163 286.972 130.635 286.775 130.983 286.427C131.331 286.079 131.528 285.607 131.529 285.114V260.951C131.528 260.459 131.331 259.987 130.983 259.638C130.635 259.29 130.163 259.094 129.67 259.092H120.438" stroke="#F9F9F9" stroke-width="1.96503" stroke-linecap="round" stroke-linejoin="round"/>
<path d="M107.658 288.54H112.764" stroke="#F9F9F9" stroke-width="1.96503" stroke-linecap="round" stroke-linejoin="round"/>
<path d="M94.5781 283.612H98.2956" stroke="#F9F9F9" stroke-width="1.96503" stroke-linecap="round" stroke-linejoin="round"/>
<path d="M125.952 283.612H122.234" stroke="#F9F9F9" stroke-width="1.96503" stroke-linecap="round" stroke-linejoin="round"/>
<path d="M124.426 252.999C124.425 251.693 123.907 250.442 122.984 249.519C122.061 248.596 120.809 248.077 119.504 248.076" stroke="#F9F9F9" stroke-width="1.96503" stroke-linecap="round" stroke-linejoin="round"/>
<path d="M127.504 252.383C127.503 250.425 126.725 248.548 125.341 247.164C123.956 245.779 122.079 245.001 120.121 245" stroke="#F9F9F9" stroke-width="1.96503" stroke-linecap="round" stroke-linejoin="round"/>
<path d="M110 230.118C110 109.708 207.612 12.0967 328.022 12.0967C448.432 12.0967 546.044 109.708 546.044 230.118" stroke="url(#paint0_linear_4798_1626)" stroke-width="24" stroke-miterlimit="10"/>
<defs>
<linearGradient id="paint0_linear_4798_1626" x1="97.7692" y1="114.992" x2="558.274" y2="114.992" gradientUnits="userSpaceOnUse">
<stop stop-color="#11E3A3"/>
<stop offset="0.99948" stop-color="#2464F2"/>
</linearGradient>
</defs>
</svg>
