<svg viewBox="0 0 656 385" fill="none" xmlns="http://www.w3.org/2000/svg">
<path d="M299.571 225.593H290.399L289.166 229.469H283L291.387 204.798H298.583L306.97 229.478H300.804L299.571 225.593ZM297.874 220.305L294.985 211.243L292.096 220.305H297.874V220.305Z" fill="white"/>
<path d="M319.485 211.496V217.493C317.297 217.138 314.197 218.025 314.197 221.513V229.478H308.91V211.842H314.197V214.984C314.898 212.619 317.263 211.496 319.485 211.496Z" fill="white"/>
<path d="M332.526 211.496V217.493C330.338 217.138 327.238 218.025 327.238 221.513V229.478H321.951V211.842H327.238V214.984C327.948 212.619 330.304 211.496 332.526 211.496Z" fill="white"/>
<path d="M352.554 211.842V229.469H347.267V227.814C346.101 229.157 344.378 229.968 342.013 229.968C337.393 229.968 333.584 225.914 333.584 220.66C333.584 215.407 337.393 211.353 342.013 211.353C344.378 211.353 346.101 212.163 347.267 213.506V211.851L352.554 211.842V211.842ZM347.267 220.66C347.267 218.016 345.501 216.361 343.069 216.361C340.636 216.361 338.871 218.016 338.871 220.66C338.871 223.304 340.636 224.959 343.069 224.959C345.501 224.959 347.267 223.304 347.267 220.66V220.66Z" fill="white"/>
<path d="M373.177 211.842L367.147 228.946C365.171 234.554 362.037 236.775 357.096 236.522V231.589C359.562 231.589 360.728 230.812 361.505 228.667L354.486 211.851H360.306L364.216 222.636L367.527 211.851H373.177V211.842Z" fill="white"/>
<path d="M357.854 149.84L353.816 142.408L352.378 145.074C352.297 145.219 352.2 145.365 352.119 145.51C352.103 145.542 352.071 145.575 352.055 145.607C351.962 145.748 351.859 145.883 351.748 146.011L351.716 146.043C351.616 146.169 351.508 146.288 351.392 146.399L351.344 146.447L350.956 146.786C350.94 146.786 350.94 146.802 350.924 146.802C350.644 147.015 350.347 147.204 350.035 147.368H350.019C349.698 147.522 349.362 147.647 349.018 147.739C348.545 147.877 348.056 147.948 347.564 147.949H311.7L310.246 145.252C309.794 144.412 309.556 143.475 309.552 142.521C309.552 142.311 309.552 142.085 309.568 141.875C309.452 143.038 309.688 144.209 310.246 145.235L332.249 185.849C332.676 186.69 333.327 187.398 334.131 187.892C334.936 188.386 335.861 188.647 336.805 188.647C337.749 188.647 338.674 188.386 339.478 187.892C340.282 187.398 340.934 186.69 341.36 185.849L357.854 155.413C358.316 154.557 358.557 153.599 358.557 152.626C358.557 151.653 358.316 150.696 357.854 149.84V149.84Z" fill="#2155AA"/>
<path d="M370.135 95.5435L337.115 95.6081C336.175 95.6219 335.255 95.8887 334.454 96.3804C333.652 96.8722 332.998 97.5708 332.559 98.4028L328.246 106.335H331.38C332.321 106.347 333.241 106.613 334.043 107.105C334.845 107.597 335.499 108.296 335.936 109.13L353.835 142.392L352.656 144.573C352.656 144.571 352.656 144.569 352.657 144.567C352.658 144.565 352.659 144.563 352.661 144.562C352.662 144.56 352.664 144.559 352.666 144.558C352.668 144.557 352.67 144.557 352.672 144.557L374.707 103.944C376.727 100.196 374.19 95.5435 370.135 95.5435Z" fill="#12E3A3"/>
<path d="M310.229 145.219C310.149 145.088 310.084 144.947 310.036 144.799C310.019 144.751 310.003 144.719 309.987 144.67C309.931 144.538 309.883 144.403 309.842 144.266C309.826 144.218 309.809 144.169 309.793 144.105C309.761 144.008 309.745 143.911 309.712 143.814C309.696 143.733 309.68 143.669 309.664 143.588C309.645 143.508 309.634 143.427 309.632 143.346C309.615 143.216 309.599 143.071 309.583 142.942C309.583 142.893 309.567 142.845 309.567 142.796C309.567 142.699 309.551 142.586 309.551 142.489C309.52 141.458 309.766 140.438 310.262 139.533L328.258 106.335H287.273C283.219 106.335 280.682 111.004 282.718 114.735L299.276 145.123C299.713 145.956 300.367 146.656 301.169 147.148C301.971 147.64 302.891 147.906 303.832 147.917H311.683L310.229 145.219V145.219Z" fill="#2464F2"/>
<path d="M352.055 145.591C352.071 145.558 352.104 145.526 352.12 145.494C352.217 145.348 352.297 145.203 352.378 145.058L353.832 142.392L335.949 109.129C335.512 108.296 334.858 107.596 334.056 107.104C333.254 106.612 332.334 106.346 331.393 106.335H328.259L310.247 139.533C309.75 140.443 309.505 141.469 309.536 142.505C309.548 143.458 309.786 144.393 310.23 145.235L311.684 147.933H347.564C348.056 147.931 348.546 147.861 349.018 147.723C349.366 147.641 349.702 147.516 350.02 147.352H350.036C350.35 147.194 350.648 147.005 350.924 146.786C350.94 146.786 350.94 146.77 350.957 146.77C351.086 146.657 351.215 146.56 351.344 146.431L351.393 146.382C351.509 146.272 351.617 146.153 351.716 146.027L351.748 145.995C351.861 145.865 351.958 145.72 352.055 145.591Z" fill="#357EE1"/>
<path d="M482.46 320.672L487.388 332H484.572L483.596 329.6H479.196L478.252 332H475.5L480.396 320.672H482.46ZM479.98 327.488H482.748L481.356 323.968L479.98 327.488ZM493.815 320.672C496.631 320.672 498.039 321.819 498.039 324.112C498.039 326.427 496.668 327.584 493.927 327.584H492.023V332H489.527V320.672H493.815ZM493.735 325.472C494.236 325.472 494.647 325.365 494.967 325.152C495.287 324.928 495.447 324.581 495.447 324.112C495.447 323.227 494.754 322.784 493.367 322.784H492.023V325.472H493.735ZM504.893 320.672C507.709 320.672 509.117 321.819 509.117 324.112C509.117 326.427 507.746 327.584 505.005 327.584H503.101V332H500.605V320.672H504.893ZM504.813 325.472C505.314 325.472 505.725 325.365 506.045 325.152C506.365 324.928 506.525 324.581 506.525 324.112C506.525 323.227 505.832 322.784 504.445 322.784H503.101V325.472H504.813ZM514.275 320.672V329.696H518.899V332H511.779V320.672H514.275ZM526.781 320.384C528.594 320.384 530.066 320.928 531.197 322.016C532.328 323.104 532.893 324.544 532.893 326.336C532.893 328.117 532.322 329.557 531.181 330.656C530.04 331.744 528.573 332.288 526.781 332.288C524.968 332.288 523.496 331.739 522.365 330.64C521.234 329.541 520.669 328.107 520.669 326.336C520.669 324.565 521.229 323.131 522.349 322.032C523.48 320.933 524.957 320.384 526.781 320.384ZM523.261 326.336C523.261 327.435 523.586 328.32 524.237 328.992C524.898 329.653 525.746 329.984 526.781 329.984C527.837 329.984 528.685 329.643 529.325 328.96C529.976 328.277 530.301 327.403 530.301 326.336C530.301 325.248 529.97 324.368 529.309 323.696C528.658 323.024 527.81 322.688 526.765 322.688C525.72 322.688 524.872 323.029 524.221 323.712C523.581 324.395 523.261 325.269 523.261 326.336ZM537.318 320.672L540.118 328.096H540.15L542.998 320.672H545.67L540.998 332H538.998L534.47 320.672H537.318ZM550.319 320.672V332H547.823V320.672H550.319ZM556.982 320.672L561.798 328.544H561.83V320.672H564.326V332H561.062L556.118 323.936H556.086V332H553.59V320.672H556.982ZM580.116 330.496C581.002 330.496 581.588 330.485 581.876 330.464V332.896C581.588 332.875 581.002 332.864 580.116 332.864H569.028C568.132 332.864 567.54 332.875 567.252 332.896V330.464C567.54 330.485 568.132 330.496 569.028 330.496H573.348V328.032H570.884C570.202 328.032 569.743 328.043 569.508 328.064V325.824C569.22 326.229 568.98 326.533 568.788 326.736C568.596 326.501 568.314 326.197 567.94 325.824C567.578 325.451 567.236 325.125 566.916 324.848C567.13 324.635 567.364 324.352 567.62 324C567.876 323.637 568.132 323.2 568.388 322.688C568.655 322.176 568.9 321.589 569.124 320.928C569.359 320.267 569.535 319.568 569.652 318.832L572.132 319.344L572.02 319.584C571.871 320.267 571.722 320.848 571.572 321.328H573.348V319.52C573.348 319.168 573.338 318.843 573.316 318.544C574.639 318.587 575.524 318.619 575.972 318.64C575.951 318.832 575.94 319.131 575.94 319.536V321.328H579.284C579.956 321.328 580.41 321.317 580.644 321.296V323.664C580.42 323.643 579.967 323.632 579.284 323.632H575.94V325.776H578.916C579.588 325.776 580.036 325.765 580.26 325.744V328.064C580.036 328.043 579.588 328.032 578.916 328.032H575.94V330.496H580.116ZM570.884 325.776H573.348V323.632H570.708C570.388 324.357 570.004 325.061 569.556 325.744C569.791 325.765 570.234 325.776 570.884 325.776ZM593.34 330.704C593.447 330.565 593.522 330.373 593.564 330.128C593.618 329.883 593.644 329.52 593.644 329.04C594.327 329.413 595.084 329.803 595.916 330.208C595.895 331.008 595.74 331.616 595.452 332.032C595.164 332.459 594.727 332.768 594.14 332.96C593.554 333.152 592.764 333.248 591.772 333.248C590.812 333.248 590.087 333.221 589.596 333.168C589.116 333.115 588.759 332.987 588.524 332.784C588.322 332.603 588.178 332.368 588.092 332.08C588.007 331.792 587.964 331.349 587.964 330.752V328.144L587.948 327.792L590.092 327.92C589.794 327.6 589.591 327.397 589.484 327.312L591.068 326.256C590.514 325.947 589.996 325.691 589.516 325.488L590.236 324.368C589.564 324.923 588.791 325.413 587.916 325.84C587.042 326.267 586.156 326.592 585.26 326.816C585.175 326.656 584.999 326.352 584.732 325.904C584.466 325.445 584.178 325.008 583.868 324.592C584.498 324.464 585.09 324.309 585.644 324.128C586.21 323.947 586.722 323.749 587.18 323.536C587.65 323.312 588.066 323.072 588.428 322.816C588.802 322.549 589.122 322.277 589.388 322H585.548C585.111 322 584.796 322.005 584.604 322.016V319.808C584.786 319.819 585.1 319.824 585.548 319.824H590.348V318.832L590.316 318.496C591.703 318.539 592.514 318.571 592.748 318.592L592.716 318.848V319.824H597.388C597.836 319.824 598.151 319.819 598.332 319.808V322.016C598.151 322.005 597.836 322 597.388 322H593.692C594.322 322.629 595.106 323.163 596.044 323.6C596.994 324.037 598.034 324.357 599.164 324.56C599.058 324.72 598.882 325.013 598.636 325.44C598.402 325.856 598.156 326.315 597.9 326.816C596.386 326.368 595.111 325.835 594.076 325.216C593.052 324.597 592.226 323.851 591.596 322.976C591.404 323.232 591.127 323.541 590.764 323.904C591.095 324.032 591.522 324.229 592.044 324.496C592.567 324.763 593.058 325.024 593.516 325.28C593.452 325.376 593.362 325.52 593.244 325.712C593.138 325.893 592.876 326.352 592.46 327.088C592.279 326.949 591.922 326.731 591.388 326.432C591.559 326.581 591.799 326.811 592.108 327.12C592.428 327.429 592.716 327.728 592.972 328.016C593.228 328.304 593.415 328.517 593.532 328.656C593.5 328.677 593.452 328.715 593.388 328.768C593.335 328.811 593.079 329.008 592.62 329.36C592.162 329.701 591.874 329.915 591.756 330C591.671 329.872 591.559 329.712 591.42 329.52C591.282 329.328 591.111 329.109 590.908 328.864C590.706 328.608 590.514 328.379 590.332 328.176V328.224V330.736C590.332 330.907 590.423 331.008 590.604 331.04C590.796 331.072 591.255 331.088 591.98 331.088C592.364 331.088 592.658 331.061 592.86 331.008C593.063 330.955 593.223 330.853 593.34 330.704ZM594.844 328.464L596.748 327.472C596.983 327.76 597.255 328.149 597.564 328.64C597.874 329.12 598.156 329.605 598.412 330.096C598.668 330.587 598.882 331.019 599.052 331.392L597.02 332.624C596.786 331.952 596.45 331.205 596.012 330.384C595.575 329.552 595.186 328.912 594.844 328.464ZM583.916 331.52C584.098 331.264 584.295 330.944 584.508 330.56C584.722 330.165 584.935 329.717 585.148 329.216C585.372 328.715 585.543 328.224 585.66 327.744L587.756 328.448C587.735 328.48 587.714 328.523 587.692 328.576C587.682 328.629 587.671 328.672 587.66 328.704C587.447 329.483 587.175 330.24 586.844 330.976C586.514 331.701 586.194 332.299 585.884 332.768C585.543 332.48 584.887 332.064 583.916 331.52ZM609.972 328.016V329.808L610.004 331.36C610.004 331.659 609.93 331.931 609.78 332.176C609.631 332.432 609.402 332.651 609.092 332.832C608.783 333.013 608.383 333.152 607.892 333.248C607.412 333.355 606.858 333.408 606.228 333.408C606.132 333.163 605.978 332.811 605.764 332.352C605.562 331.893 605.38 331.504 605.22 331.184C604.826 331.568 604.404 331.92 603.956 332.24C603.519 332.56 603.066 332.837 602.596 333.072C601.924 332.24 601.418 331.653 601.076 331.312C601.599 331.067 602.111 330.768 602.612 330.416C603.114 330.053 603.54 329.701 603.892 329.36C604.244 329.008 604.522 328.704 604.724 328.448L606.74 329.552C606.655 329.605 606.586 329.669 606.532 329.744C606.404 329.915 606.218 330.139 605.972 330.416C605.727 330.683 605.524 330.896 605.364 331.056C605.823 331.109 606.223 331.136 606.564 331.136C606.863 331.136 607.082 331.099 607.22 331.024C607.359 330.949 607.428 330.821 607.428 330.64V329.808V328.208L603.332 328.544C602.788 328.597 602.426 328.651 602.244 328.704L601.668 326.368C602.383 326.283 603.21 326.091 604.148 325.792C605.087 325.483 606.1 325.056 607.188 324.512L604.276 324.736L603.124 324.88L602.66 323.024C603.087 322.971 603.556 322.853 604.068 322.672C604.591 322.48 605.06 322.272 605.476 322.048C605.903 321.824 606.26 321.621 606.548 321.44C605.908 321.472 605.247 321.493 604.564 321.504C603.882 321.515 603.247 321.515 602.66 321.504C602.564 321.099 602.276 320.309 601.796 319.136C602.842 319.2 604.031 319.232 605.364 319.232C606.708 319.221 608.127 319.147 609.62 319.008C611.114 318.869 612.319 318.677 613.236 318.432C614.122 319.317 614.756 319.979 615.14 320.416C614.81 320.448 614.57 320.48 614.42 320.512C613.14 320.757 611.828 320.96 610.484 321.12L610.1 321.344C609.684 321.6 609.183 321.883 608.596 322.192C608.02 322.501 607.466 322.779 606.932 323.024C608.351 322.981 609.37 322.944 609.988 322.912C610.714 322.443 611.295 322.016 611.732 321.632L613.876 322.784L613.428 323.04C612.639 323.573 611.78 324.085 610.852 324.576C609.935 325.067 609.082 325.477 608.292 325.808C607.514 326.128 606.847 326.373 606.292 326.544C607.871 326.448 609.727 326.288 611.86 326.064C611.466 325.531 611.178 325.163 610.996 324.96L612.98 324.176C613.172 324.379 613.428 324.677 613.748 325.072C614.068 325.456 614.431 325.941 614.836 326.528C615.242 327.115 615.604 327.685 615.924 328.24C615.562 328.379 614.858 328.688 613.812 329.168C613.556 328.688 613.29 328.224 613.012 327.776C612.319 327.84 611.306 327.92 609.972 328.016ZM610.532 329.536L612.356 328.336C612.932 328.795 613.54 329.312 614.18 329.888C614.831 330.464 615.412 331.008 615.924 331.52C615.786 331.637 615.503 331.883 615.076 332.256C614.66 332.629 614.335 332.907 614.1 333.088C613.898 332.832 613.62 332.512 613.268 332.128C612.927 331.744 612.506 331.317 612.004 330.848C611.514 330.368 611.023 329.931 610.532 329.536Z" fill="white"/>
<path d="M467.187 356.466L467.957 357.096C467.948 357.329 467.925 357.577 467.887 357.838C467.859 358.099 467.813 358.347 467.747 358.58C467.691 358.813 467.612 359.019 467.509 359.196C467.407 359.383 467.276 359.523 467.117 359.616C466.959 359.719 466.777 359.77 466.571 359.77C466.142 359.77 465.703 359.565 465.255 359.154C464.817 358.753 464.411 358.146 464.037 357.334C462.973 358.277 461.811 358.977 460.551 359.434C460.514 359.35 460.332 359.061 460.005 358.566C460.687 358.351 461.34 358.062 461.965 357.698C462.591 357.325 463.16 356.9 463.673 356.424C463.253 355.257 462.931 353.857 462.707 352.224L459.389 352.294V354.534C460.537 354.282 461.331 354.095 461.769 353.974L461.727 354.884L459.389 355.416V357.782L459.417 358.524C459.417 358.748 459.371 358.935 459.277 359.084C459.184 359.243 459.03 359.373 458.815 359.476C458.601 359.579 458.307 359.653 457.933 359.7C457.569 359.747 457.112 359.77 456.561 359.77L456.029 358.734C456.487 358.799 456.925 358.832 457.345 358.832C457.737 358.832 458.027 358.795 458.213 358.72C458.409 358.645 458.507 358.515 458.507 358.328V357.782V355.612L456.421 356.046L455.861 356.186L455.679 355.22L456.351 355.15C456.725 355.094 457.443 354.954 458.507 354.73V352.308L456.757 352.336C456.449 352.336 456.081 352.345 455.651 352.364V351.51C455.773 351.519 455.978 351.524 456.267 351.524C456.557 351.515 456.72 351.51 456.757 351.51L458.507 351.482V349.396C457.789 349.611 457.009 349.783 456.169 349.914C456.076 349.69 455.945 349.41 455.777 349.074C456.356 349.009 456.986 348.892 457.667 348.724C458.358 348.556 458.955 348.379 459.459 348.192C459.963 348.005 460.36 347.842 460.649 347.702L461.251 348.458C461.158 348.477 461.06 348.509 460.957 348.556C460.341 348.799 459.819 348.99 459.389 349.13V351.468L462.609 351.398C462.488 350.334 462.409 349.209 462.371 348.024L462.343 347.506C462.483 347.515 462.651 347.529 462.847 347.548C463.053 347.567 463.207 347.585 463.309 347.604C463.291 347.688 463.286 347.833 463.295 348.038C463.323 349.261 463.393 350.376 463.505 351.384L466.683 351.328C467.197 351.328 467.565 351.319 467.789 351.3L467.803 352.154H466.697L463.603 352.21C463.771 353.526 464.023 354.697 464.359 355.724C464.705 355.332 465.027 354.898 465.325 354.422C465.633 353.937 465.876 353.475 466.053 353.036L466.809 353.54C466.791 353.549 466.772 353.573 466.753 353.61C466.585 354.002 466.38 354.399 466.137 354.8C465.895 355.201 465.647 355.561 465.395 355.878C465.143 356.186 464.915 356.452 464.709 356.676C464.999 357.376 465.307 357.913 465.633 358.286C465.969 358.65 466.277 358.832 466.557 358.832C466.669 358.832 466.772 358.762 466.865 358.622C466.959 358.482 467.033 358.225 467.089 357.852C467.145 357.479 467.178 357.017 467.187 356.466ZM466.249 350.642C466.063 350.325 465.801 349.975 465.465 349.592C465.129 349.2 464.826 348.892 464.555 348.668L465.171 348.192C465.442 348.416 465.745 348.71 466.081 349.074C466.427 349.438 466.707 349.779 466.921 350.096L466.249 350.642ZM469.217 353.246C469.815 352.518 470.393 351.603 470.953 350.502C471.513 349.391 471.933 348.313 472.213 347.268C472.437 347.305 472.755 347.371 473.165 347.464L473.081 347.576C472.773 348.565 472.386 349.555 471.919 350.544V359.252L471.947 359.924H470.953C470.972 359.644 470.981 359.42 470.981 359.252C470.981 358.524 470.995 357.39 471.023 355.85C471.051 354.31 471.084 353.003 471.121 351.93C470.907 352.341 470.664 352.751 470.393 353.162C470.123 353.563 469.861 353.909 469.609 354.198C469.544 353.983 469.413 353.666 469.217 353.246ZM474.439 347.87L475.139 347.408C475.354 347.641 475.597 347.945 475.867 348.318C476.147 348.691 476.39 349.046 476.595 349.382L475.839 349.886C475.681 349.569 475.466 349.219 475.195 348.836C474.925 348.453 474.673 348.131 474.439 347.87ZM481.397 348.99V357.908L481.411 358.79C481.411 359.089 481.318 359.313 481.131 359.462C480.954 359.611 480.674 359.719 480.291 359.784C479.918 359.849 479.409 359.882 478.765 359.882C478.541 359.406 478.378 359.07 478.275 358.874C478.649 358.921 479.064 358.944 479.521 358.944C479.792 358.944 480.016 358.916 480.193 358.86C480.371 358.804 480.459 358.687 480.459 358.51V357.908V349.228H477.771L477.323 349.242V348.346L477.799 348.36H481.425L481.397 348.99ZM474.719 350.334V359.322L474.747 359.924H473.753C473.772 359.793 473.781 359.593 473.781 359.322V350.334C473.781 350.129 473.777 349.979 473.767 349.886C473.851 349.886 474.01 349.891 474.243 349.9C474.486 349.909 474.649 349.919 474.733 349.928L474.719 350.334ZM495.453 349.578L495.425 349.9C495.425 351.533 495.407 352.873 495.369 353.918C495.341 354.954 495.285 355.831 495.201 356.55C495.127 357.269 495.001 357.838 494.823 358.258C494.786 358.342 494.711 358.473 494.599 358.65C494.497 358.818 494.357 358.963 494.179 359.084C494.002 359.215 493.801 359.322 493.577 359.406C493.363 359.49 493.083 359.56 492.737 359.616C492.401 359.672 491.981 359.7 491.477 359.7C491.449 359.616 491.309 359.261 491.057 358.636C491.179 358.673 491.328 358.701 491.505 358.72C491.692 358.729 491.841 358.734 491.953 358.734C492.532 358.734 492.98 358.659 493.297 358.51C493.615 358.351 493.843 358.099 493.983 357.754C494.086 357.53 494.17 357.189 494.235 356.732C494.31 356.275 494.366 355.523 494.403 354.478C494.45 353.433 494.478 352.079 494.487 350.418H490.735C490.549 350.801 490.334 351.179 490.091 351.552C489.858 351.925 489.625 352.238 489.391 352.49C489.354 352.453 489.275 352.383 489.153 352.28C489.032 352.168 488.869 352.042 488.663 351.902C489.083 351.463 489.508 350.819 489.937 349.97C490.376 349.121 490.693 348.281 490.889 347.45L491.813 347.632L491.743 347.744C491.678 347.977 491.58 348.285 491.449 348.668C491.328 349.051 491.221 349.354 491.127 349.578H495.453ZM488.439 349.564L488.411 350.152V357.74L488.439 358.328H487.529V357.642H485.023V358.916H484.113L484.141 358.286V350.18L484.113 349.564H485.429C485.532 349.275 485.63 348.939 485.723 348.556C485.826 348.173 485.887 347.907 485.905 347.758C485.933 347.599 485.947 347.501 485.947 347.464L486.927 347.604L486.843 347.758C486.61 348.607 486.433 349.209 486.311 349.564H488.439ZM487.529 350.362H485.023V353.092H487.529V350.362ZM492.877 355.388L492.093 355.906C492 355.719 491.86 355.472 491.673 355.164C491.496 354.856 491.277 354.525 491.015 354.17C490.754 353.806 490.53 353.517 490.343 353.302L491.057 352.812C491.3 353.073 491.599 353.456 491.953 353.96C492.317 354.464 492.625 354.94 492.877 355.388ZM485.023 356.844H487.529V353.89H485.023V356.844ZM501.305 357.04V359.434L501.333 359.952H500.395L500.423 359.434V357.236L498.099 357.754L497.581 357.908L497.343 357.012L497.945 356.9L500.423 356.368V354.072H498.547C498.37 354.072 498.151 354.081 497.889 354.1L497.637 353.26C497.805 353.185 498.039 352.845 498.337 352.238C498.636 351.631 498.925 350.899 499.205 350.04H498.127C497.847 350.04 497.623 350.045 497.455 350.054V349.214C497.623 349.223 497.847 349.228 498.127 349.228H499.457C499.672 348.444 499.826 347.823 499.919 347.366L500.871 347.576L500.773 347.744C500.671 348.173 500.535 348.668 500.367 349.228H502.579C502.841 349.228 503.065 349.223 503.251 349.214V350.054L502.579 350.04H500.115C499.658 351.403 499.215 352.476 498.785 353.26H500.423V351.594C500.423 351.37 500.419 351.211 500.409 351.118C500.484 351.118 500.633 351.123 500.857 351.132C501.081 351.141 501.235 351.151 501.319 351.16C501.31 351.235 501.305 351.379 501.305 351.594V353.26H502.607C502.869 353.26 503.074 353.255 503.223 353.246V354.086C503.083 354.077 502.878 354.072 502.607 354.072H501.305V356.186C501.427 356.158 501.786 356.079 502.383 355.948C502.981 355.808 503.377 355.71 503.573 355.654C503.564 355.719 503.555 355.803 503.545 355.906C503.536 356.009 503.527 356.139 503.517 356.298C503.508 356.447 503.503 356.531 503.503 356.55L501.305 357.04ZM503.853 353.218C503.825 353.181 503.76 353.106 503.657 352.994C503.555 352.873 503.405 352.728 503.209 352.56C503.611 352.103 503.989 351.412 504.343 350.488C504.707 349.555 504.983 348.547 505.169 347.464L506.023 347.618L505.953 347.744C505.813 348.435 505.65 349.102 505.463 349.746H509.243L509.341 349.648C509.491 349.741 509.631 349.844 509.761 349.956C509.901 350.068 509.995 350.143 510.041 350.18L509.943 350.222C509.822 350.707 509.663 351.207 509.467 351.72C509.281 352.224 509.099 352.644 508.921 352.98C508.753 353.307 508.609 353.549 508.487 353.708C508.161 353.447 507.932 353.274 507.801 353.19C508.007 352.919 508.217 352.546 508.431 352.07C508.646 351.585 508.828 351.085 508.977 350.572H505.197C504.992 351.151 504.768 351.673 504.525 352.14C504.292 352.597 504.068 352.957 503.853 353.218ZM506.737 353.19C506.765 353.498 506.821 353.857 506.905 354.268C506.989 354.679 507.111 355.103 507.269 355.542C507.437 355.971 507.647 356.41 507.899 356.858C508.161 357.306 508.478 357.726 508.851 358.118C509.225 358.51 509.617 358.827 510.027 359.07C509.738 359.509 509.561 359.803 509.495 359.952C508.758 359.429 508.123 358.762 507.591 357.95C507.059 357.129 506.663 356.186 506.401 355.122C506.28 355.775 506.107 356.368 505.883 356.9C505.669 357.423 505.421 357.885 505.141 358.286C504.871 358.678 504.581 359.014 504.273 359.294C503.975 359.574 503.681 359.803 503.391 359.98C503.139 359.616 502.953 359.355 502.831 359.196C503.839 358.617 504.609 357.707 505.141 356.466C505.683 355.225 505.953 353.727 505.953 351.972C505.953 351.832 505.944 351.706 505.925 351.594L506.793 351.636L506.779 351.86C506.779 352.327 506.765 352.77 506.737 353.19ZM514.045 350.6V359.322L514.073 359.966H513.079C513.098 359.705 513.107 359.49 513.107 359.322C513.107 358.715 513.121 357.689 513.149 356.242C513.177 354.786 513.215 353.33 513.261 351.874C513.019 352.303 512.743 352.737 512.435 353.176C512.127 353.605 511.838 353.974 511.567 354.282C511.521 354.17 511.446 354.021 511.343 353.834C511.25 353.647 511.161 353.484 511.077 353.344C511.544 352.859 512.001 352.252 512.449 351.524C512.897 350.796 513.28 350.073 513.597 349.354C513.924 348.635 514.176 347.963 514.353 347.338L515.249 347.66L515.179 347.772C514.815 348.845 514.437 349.788 514.045 350.6ZM523.159 354.632C523.579 354.632 523.887 354.627 524.083 354.618V355.556C523.887 355.537 523.579 355.528 523.159 355.528H520.289V359.21L520.317 359.966H519.309L519.337 359.21V355.528H515.977C515.548 355.528 515.245 355.537 515.067 355.556V354.618C515.245 354.627 515.548 354.632 515.977 354.632H519.337V351.314H516.887C516.719 351.706 516.528 352.079 516.313 352.434C516.108 352.789 515.898 353.106 515.683 353.386C515.618 353.321 515.38 353.134 514.969 352.826C515.137 352.639 515.319 352.387 515.515 352.07C515.711 351.753 515.912 351.37 516.117 350.922C516.323 350.474 516.514 349.979 516.691 349.438C516.869 348.887 516.999 348.346 517.083 347.814L517.951 348.066L517.909 348.206C517.751 348.971 517.531 349.718 517.251 350.446H519.337V347.996C519.337 347.744 519.333 347.567 519.323 347.464C519.557 347.464 519.883 347.478 520.303 347.506C520.294 347.609 520.289 347.772 520.289 347.996V350.446H522.599L523.355 350.432V351.328L522.599 351.314H520.289V354.632H523.159ZM536.823 353.862C537.374 353.862 537.757 353.853 537.971 353.834V354.814C537.757 354.805 537.374 354.8 536.823 354.8H532.133V359.168L532.161 359.882H531.125L531.153 359.168V354.8H526.701C526.16 354.8 525.777 354.805 525.553 354.814V353.834C525.777 353.853 526.16 353.862 526.701 353.862H531.153V349.256H527.429C526.944 349.256 526.594 349.265 526.379 349.284V348.332C526.594 348.351 526.944 348.36 527.429 348.36H536.095C536.581 348.36 536.926 348.351 537.131 348.332V349.284C536.926 349.265 536.581 349.256 536.095 349.256H532.133V353.862H536.823ZM533.757 352.868C533.897 352.681 534.075 352.411 534.289 352.056C534.513 351.701 534.733 351.309 534.947 350.88C535.171 350.451 535.311 350.115 535.367 349.872L536.263 350.292L536.151 350.446C535.993 350.838 535.75 351.319 535.423 351.888C535.097 352.448 534.793 352.919 534.513 353.302L533.757 352.868ZM528.031 349.984C528.255 350.339 528.503 350.801 528.773 351.37C529.044 351.93 529.259 352.415 529.417 352.826C529.156 352.938 528.89 353.069 528.619 353.218C528.451 352.789 528.223 352.285 527.933 351.706C527.653 351.127 527.401 350.665 527.177 350.32L528.031 349.984ZM547.771 348.822C548.35 349.279 549.008 349.886 549.745 350.642C550.492 351.389 551.169 352.149 551.775 352.924L551.019 353.596C550.702 353.12 550.31 352.621 549.843 352.098C549.507 352.126 548.093 352.219 545.601 352.378C543.119 352.527 541.667 352.621 541.247 352.658C540.93 352.677 540.641 352.705 540.379 352.742C540.239 352.107 540.165 351.781 540.155 351.762C540.389 351.725 540.673 351.599 541.009 351.384C541.355 351.16 541.765 350.81 542.241 350.334C542.727 349.858 543.184 349.34 543.613 348.78C544.043 348.22 544.388 347.725 544.649 347.296C544.883 347.371 545.233 347.501 545.699 347.688L545.545 347.87C544.22 349.55 543.03 350.838 541.975 351.734C542.862 351.697 544.061 351.631 545.573 351.538C547.085 351.445 548.266 351.365 549.115 351.3C548.35 350.497 547.659 349.835 547.043 349.312L547.771 348.822ZM550.025 354.128L550.011 354.618V359.42L550.025 359.896H549.045V359.042H542.367V359.896H541.387C541.406 359.709 541.415 359.551 541.415 359.42V354.618C541.415 354.497 541.406 354.333 541.387 354.128H550.025ZM542.367 358.174H549.045V354.996H542.367V358.174ZM557.767 348.472H554.659C554.174 348.472 553.819 348.481 553.595 348.5V347.744C553.819 347.763 554.174 347.772 554.659 347.772H564.697C565.192 347.772 565.547 347.763 565.761 347.744V348.5C565.547 348.481 565.192 348.472 564.697 348.472H561.575V349.256H564.613C564.604 349.321 564.599 349.429 564.599 349.578V350.936L564.613 351.258H554.715C554.734 351.127 554.743 351.02 554.743 350.936V349.578C554.743 349.494 554.734 349.387 554.715 349.256H557.767V348.472ZM560.735 349.256V348.472H558.621V349.256H560.735ZM555.625 349.816V350.698H557.823V349.816H555.625ZM560.721 349.816H558.621V350.698H560.721V349.816ZM563.703 350.698V349.816H561.547V350.698H563.703ZM560.245 351.552L560.175 351.664C560.063 351.869 559.975 352.019 559.909 352.112H564.893C565.211 352.112 565.449 352.107 565.607 352.098V352.77C565.449 352.761 565.211 352.756 564.893 352.756H559.447C559.223 353.027 558.967 353.302 558.677 353.582C558.397 353.853 558.141 354.081 557.907 354.268C557.581 353.941 557.385 353.75 557.319 353.694C557.702 353.414 558.066 353.087 558.411 352.714C558.757 352.341 558.999 352.033 559.139 351.79C559.289 351.547 559.387 351.379 559.433 351.286L560.245 351.552ZM557.179 351.958C556.797 352.415 556.302 352.882 555.695 353.358C555.089 353.825 554.529 354.17 554.015 354.394C553.997 354.357 553.95 354.287 553.875 354.184C553.801 354.072 553.684 353.923 553.525 353.736C554.067 353.493 554.65 353.143 555.275 352.686C555.901 352.219 556.339 351.804 556.591 351.44L557.291 351.86L557.179 351.958ZM566.041 359.056C565.864 359.448 565.757 359.705 565.719 359.826C564.049 359.649 562.733 359.369 561.771 358.986C560.633 359.434 559.242 359.747 557.599 359.924L557.221 359.196C558.593 359.103 559.811 358.893 560.875 358.566C560.409 358.295 559.989 357.969 559.615 357.586C559.317 357.763 558.995 357.931 558.649 358.09C558.304 358.249 557.991 358.375 557.711 358.468C557.683 358.412 557.618 358.319 557.515 358.188C557.422 358.057 557.338 357.941 557.263 357.838C557.674 357.726 558.113 357.563 558.579 357.348C559.046 357.124 559.443 356.9 559.769 356.676C560.105 356.452 560.367 356.251 560.553 356.074H558.985C559.004 355.943 559.013 355.831 559.013 355.738V353.764C559.013 353.661 559.004 353.545 558.985 353.414H564.585C564.576 353.489 564.571 353.605 564.571 353.764V355.738L564.585 356.074H561.547C561.333 356.307 561.123 356.508 560.917 356.676H563.885L563.969 356.592C564.212 356.751 564.427 356.914 564.613 357.082L564.459 357.138C564.254 357.409 563.997 357.665 563.689 357.908C563.391 358.151 563.05 358.375 562.667 358.58C563.573 358.841 564.697 359 566.041 359.056ZM556.143 355.57V359.406C556.143 359.621 556.153 359.77 556.171 359.854H555.261C555.28 359.77 555.289 359.621 555.289 359.406C555.289 359.387 555.289 359.336 555.289 359.252C555.289 359.168 555.294 358.841 555.303 358.272C555.322 357.693 555.35 357.017 555.387 356.242C555.135 356.447 554.86 356.657 554.561 356.872C554.263 357.077 554.011 357.236 553.805 357.348C553.693 357.115 553.544 356.867 553.357 356.606C553.656 356.457 553.945 356.284 554.225 356.088C554.515 355.892 554.795 355.682 555.065 355.458C555.336 355.234 555.616 354.968 555.905 354.66C556.204 354.352 556.447 354.049 556.633 353.75L557.333 354.198L557.221 354.296C557.063 354.52 556.876 354.753 556.661 354.996C556.456 355.239 556.283 355.43 556.143 355.57ZM563.731 353.904H559.867V354.506H563.731V353.904ZM559.867 354.954V355.598H563.731V354.954H559.867ZM560.245 357.292C560.665 357.665 561.169 357.987 561.757 358.258C562.429 357.978 562.966 357.656 563.367 357.292H560.245ZM578.795 353.904H568.631C568.099 353.904 567.726 353.913 567.511 353.932V353.064C567.726 353.083 568.099 353.092 568.631 353.092H573.223V351.804H569.611C569.182 351.804 568.869 351.809 568.673 351.818V351.02C568.869 351.039 569.182 351.048 569.611 351.048H573.223V349.83H569.065C568.589 349.83 568.249 349.839 568.043 349.858V349.032C568.249 349.051 568.589 349.06 569.065 349.06H571.501C571.445 348.976 571.329 348.813 571.151 348.57C570.983 348.318 570.783 348.057 570.549 347.786L571.361 347.45C571.688 347.833 572.071 348.369 572.509 349.06H574.847C575.006 348.836 575.179 348.561 575.365 348.234C575.552 347.907 575.697 347.632 575.799 347.408L576.723 347.702C576.658 347.767 576.616 347.819 576.597 347.856C576.355 348.285 576.112 348.687 575.869 349.06H578.333C578.809 349.06 579.15 349.051 579.355 349.032V349.858C579.15 349.839 578.809 349.83 578.333 349.83H574.175V351.048H577.759C578.198 351.048 578.515 351.039 578.711 351.02V351.818C578.515 351.809 578.198 351.804 577.759 351.804H574.175V353.092H578.795C579.318 353.092 579.691 353.083 579.915 353.064V353.932C579.691 353.913 579.318 353.904 578.795 353.904ZM578.809 358.636C579.341 358.636 579.719 358.631 579.943 358.622V359.518C579.719 359.499 579.341 359.49 578.809 359.49H568.603C568.071 359.49 567.693 359.499 567.469 359.518V358.622C567.693 358.631 568.071 358.636 568.603 358.636H569.107V355.458C569.107 355.346 569.098 355.206 569.079 355.038H578.333L578.319 355.458V358.636H578.809ZM570.045 355.822V358.636H571.893V355.822H570.045ZM574.581 355.822H572.789V358.636H574.581V355.822ZM577.381 355.822H575.463V358.636H577.381V355.822ZM584.479 349.088H585.193V359H584.353V350.25L582.547 351.734L582.029 351.09L584.479 349.088ZM589.051 355.808H592.579V350.012H592.551L589.051 355.808ZM593.419 349.088V355.808H594.931V356.564H593.419V359H592.579V356.564H588.295V355.57L592.257 349.088H593.419ZM596.534 354.044C596.534 355.463 596.73 356.545 597.122 357.292C597.523 358.029 598.111 358.403 598.886 358.412C600.426 358.403 601.21 356.947 601.238 354.044C601.238 352.635 601.042 351.557 600.65 350.81C600.258 350.063 599.665 349.685 598.872 349.676C598.116 349.676 597.537 350.049 597.136 350.796C596.744 351.543 596.543 352.625 596.534 354.044ZM598.886 348.92C599.959 348.92 600.771 349.354 601.322 350.222C601.873 351.09 602.153 352.364 602.162 354.044C602.162 355.724 601.882 356.998 601.322 357.866C600.771 358.725 599.959 359.159 598.886 359.168C597.803 359.168 596.991 358.729 596.45 357.852C595.909 356.975 595.629 355.705 595.61 354.044C595.61 352.373 595.885 351.104 596.436 350.236C596.987 349.368 597.803 348.929 598.886 348.92ZM605.124 357.74L604.046 360.932H603.22L604.144 357.74H605.124ZM607.444 354.044C607.444 355.463 607.64 356.545 608.032 357.292C608.434 358.029 609.022 358.403 609.796 358.412C611.336 358.403 612.12 356.947 612.148 354.044C612.148 352.635 611.952 351.557 611.56 350.81C611.168 350.063 610.576 349.685 609.782 349.676C609.026 349.676 608.448 350.049 608.046 350.796C607.654 351.543 607.454 352.625 607.444 354.044ZM609.796 348.92C610.87 348.92 611.682 349.354 612.232 350.222C612.783 351.09 613.063 352.364 613.072 354.044C613.072 355.724 612.792 356.998 612.232 357.866C611.682 358.725 610.87 359.159 609.796 359.168C608.714 359.168 607.902 358.729 607.36 357.852C606.819 356.975 606.539 355.705 606.52 354.044C606.52 352.373 606.796 351.104 607.346 350.236C607.897 349.368 608.714 348.929 609.796 348.92ZM614.718 354.044C614.718 355.463 614.914 356.545 615.306 357.292C615.707 358.029 616.295 358.403 617.07 358.412C618.61 358.403 619.394 356.947 619.422 354.044C619.422 352.635 619.226 351.557 618.834 350.81C618.442 350.063 617.849 349.685 617.056 349.676C616.3 349.676 615.721 350.049 615.32 350.796C614.928 351.543 614.727 352.625 614.718 354.044ZM617.07 348.92C618.143 348.92 618.955 349.354 619.506 350.222C620.056 351.09 620.336 352.364 620.346 354.044C620.346 355.724 620.066 356.998 619.506 357.866C618.955 358.725 618.143 359.159 617.07 359.168C615.987 359.168 615.175 358.729 614.634 357.852C614.092 356.975 613.812 355.705 613.794 354.044C613.794 352.373 614.069 351.104 614.62 350.236C615.17 349.368 615.987 348.929 617.07 348.92ZM621.991 354.044C621.991 355.463 622.187 356.545 622.579 357.292C622.98 358.029 623.568 358.403 624.343 358.412C625.883 358.403 626.667 356.947 626.695 354.044C626.695 352.635 626.499 351.557 626.107 350.81C625.715 350.063 625.122 349.685 624.329 349.676C623.573 349.676 622.994 350.049 622.593 350.796C622.201 351.543 622 352.625 621.991 354.044ZM624.343 348.92C625.416 348.92 626.228 349.354 626.779 350.222C627.33 351.09 627.61 352.364 627.619 354.044C627.619 355.724 627.339 356.998 626.779 357.866C626.228 358.725 625.416 359.159 624.343 359.168C623.26 359.168 622.448 358.729 621.907 357.852C621.366 356.975 621.086 355.705 621.067 354.044C621.067 352.373 621.342 351.104 621.893 350.236C622.444 349.368 623.26 348.929 624.343 348.92ZM632.303 351.188H632.975V354.422H636.209V355.094H632.975V358.328H632.303V355.094H629.069V354.422H632.303V351.188ZM480.802 371.082H471.8V374.512C471.8 375.137 471.772 375.781 471.716 376.444C471.66 377.107 471.576 377.718 471.464 378.278C471.352 378.838 471.217 379.337 471.058 379.776C470.909 380.205 470.745 380.56 470.568 380.84C470.381 380.644 470.12 380.406 469.784 380.126C469.98 379.809 470.153 379.393 470.302 378.88C470.461 378.367 470.591 377.741 470.694 377.004C470.797 376.267 470.848 375.422 470.848 374.47V370.536L470.82 370.214H476.364C476.233 369.99 476.065 369.733 475.86 369.444C475.664 369.155 475.482 368.903 475.314 368.688L476.14 368.338C476.569 368.851 476.938 369.374 477.246 369.906L476.532 370.214H480.802C481.259 370.214 481.586 370.209 481.782 370.2V371.11C481.586 371.091 481.259 371.082 480.802 371.082ZM476.826 377.088C476.714 376.416 476.546 375.674 476.322 374.862C476.107 374.05 475.86 373.252 475.58 372.468L476.392 372.188C476.495 372.477 476.635 372.902 476.812 373.462C476.989 374.013 477.157 374.596 477.316 375.212C477.475 375.828 477.601 376.379 477.694 376.864C477.517 376.92 477.227 376.995 476.826 377.088ZM481.082 379.384C481.614 379.384 481.992 379.375 482.216 379.356V380.322C481.992 380.303 481.614 380.294 481.082 380.294H472.948C472.416 380.294 472.038 380.303 471.814 380.322V379.356C472.038 379.375 472.416 379.384 472.948 379.384H477.68C478.016 378.656 478.473 377.471 479.052 375.828C479.631 374.176 480.013 372.967 480.2 372.202L481.096 372.496C481.068 372.543 481.045 372.599 481.026 372.664C481.007 372.72 480.965 372.855 480.9 373.07C480.835 373.275 480.671 373.765 480.41 374.54C480.149 375.315 479.831 376.197 479.458 377.186C479.094 378.175 478.809 378.908 478.604 379.384H481.082ZM474.362 377.844C474.175 377.135 473.933 376.36 473.634 375.52C473.335 374.68 473.027 373.919 472.71 373.238L473.494 372.902C474.147 374.321 474.721 375.87 475.216 377.55L474.362 377.844ZM495.026 369.864V378.824L495.04 379.636C495.04 379.785 495.017 379.916 494.97 380.028C494.923 380.149 494.849 380.257 494.746 380.35C494.643 380.443 494.508 380.518 494.34 380.574C494.181 380.639 493.957 380.691 493.668 380.728C493.379 380.775 492.996 380.798 492.52 380.798L492.03 379.776C492.263 379.813 492.487 379.841 492.702 379.86C492.917 379.869 493.061 379.874 493.136 379.874C493.5 379.874 493.747 379.837 493.878 379.762C494.018 379.687 494.088 379.575 494.088 379.426V378.824V376.626H490.49V379.888L490.518 380.616H489.538L489.566 379.888V376.626H486.094C486.047 376.981 485.982 377.354 485.898 377.746C485.814 378.138 485.702 378.521 485.562 378.894C485.422 379.267 485.249 379.627 485.044 379.972C484.848 380.308 484.615 380.611 484.344 380.882C484.139 380.677 483.887 380.453 483.588 380.21C483.812 379.977 484.027 379.701 484.232 379.384C484.437 379.067 484.615 378.693 484.764 378.264C484.923 377.825 485.044 377.312 485.128 376.724C485.221 376.136 485.268 375.431 485.268 374.61V369.542L485.254 369.234H495.054L495.026 369.864ZM489.566 370.074H486.206V372.468H489.566V370.074ZM494.088 370.074H490.49V372.468H494.088V370.074ZM486.164 375.8H489.566V373.308H486.206V374.652C486.206 375.053 486.192 375.436 486.164 375.8ZM490.49 375.8H494.088V373.308H490.49V375.8ZM499.128 381.008C499.436 380.831 499.665 380.597 499.814 380.308C499.963 380.028 500.038 379.734 500.038 379.426H499.268V377.956H500.724V378.936C500.724 379.496 500.612 379.991 500.388 380.42C500.173 380.849 499.837 381.19 499.38 381.442L499.128 381.008ZM523.474 371.698C523.455 371.847 523.446 371.964 523.446 372.048C523.437 373.439 523.418 374.629 523.39 375.618C523.362 376.598 523.311 377.41 523.236 378.054C523.161 378.689 523.026 379.174 522.83 379.51C522.597 379.93 522.191 380.238 521.612 380.434C521.033 380.639 520.179 380.742 519.05 380.742C518.994 380.555 518.849 380.177 518.616 379.608C518.905 379.701 519.297 379.748 519.792 379.748C520.912 379.748 521.635 379.487 521.962 378.964C522.111 378.712 522.214 378.325 522.27 377.802C522.335 377.27 522.382 376.584 522.41 375.744C522.438 374.895 522.457 373.859 522.466 372.636H517.678C517.529 373.672 517.309 374.629 517.02 375.506C516.74 376.374 516.385 377.153 515.956 377.844C515.527 378.525 515.018 379.123 514.43 379.636C513.851 380.149 513.198 380.569 512.47 380.896C512.386 380.784 512.269 380.658 512.12 380.518C511.98 380.378 511.854 380.271 511.742 380.196C514.505 379.02 516.175 376.5 516.754 372.636H512.862C512.47 372.636 512.176 372.641 511.98 372.65V371.684C512.176 371.693 512.47 371.698 512.862 371.698H516.866C516.95 370.886 516.992 370.027 516.992 369.122C516.992 368.935 516.983 368.711 516.964 368.45C517.328 368.45 517.655 368.469 517.944 368.506L517.93 368.828C517.93 369.892 517.883 370.849 517.79 371.698H523.474ZM514.934 370.956C514.654 370.62 514.341 370.289 513.996 369.962C513.651 369.626 513.329 369.351 513.03 369.136C513.058 369.108 513.156 369.033 513.324 368.912C513.492 368.781 513.604 368.702 513.66 368.674C514.239 369.085 514.892 369.663 515.62 370.41L514.934 370.956ZM520.38 377.522C520.081 377.121 519.703 376.677 519.246 376.192C518.798 375.697 518.397 375.301 518.042 375.002L518.672 374.484C519.027 374.773 519.423 375.151 519.862 375.618C520.31 376.075 520.707 376.528 521.052 376.976L520.38 377.522ZM530.348 371.922C530.105 371.726 529.858 371.544 529.606 371.376C529.905 371.161 530.194 370.905 530.474 370.606C530.763 370.298 531.034 369.948 531.286 369.556C531.538 369.164 531.729 368.758 531.86 368.338L532.742 368.534L532.658 368.716C532.574 368.921 532.462 369.169 532.322 369.458H537.208L537.292 369.36C537.6 369.565 537.852 369.761 538.048 369.948L537.922 370.004C537.782 370.359 537.609 370.713 537.404 371.068C537.208 371.423 537.021 371.707 536.844 371.922C536.797 371.885 536.639 371.815 536.368 371.712C536.097 371.609 535.948 371.553 535.92 371.544C536.06 371.395 536.214 371.199 536.382 370.956C536.559 370.713 536.709 370.471 536.83 370.228H531.874C531.669 370.555 531.431 370.872 531.16 371.18C530.889 371.488 530.619 371.735 530.348 371.922ZM528.584 370.508V375.674L528.598 376.164H527.632L527.646 375.674C527.646 375.637 527.646 375.553 527.646 375.422C527.646 375.282 527.655 374.806 527.674 373.994C527.693 373.182 527.725 372.319 527.772 371.404C527.52 371.684 527.24 371.964 526.932 372.244C526.624 372.524 526.349 372.753 526.106 372.93C525.985 372.706 525.817 372.449 525.602 372.16C525.985 371.908 526.395 371.572 526.834 371.152C527.282 370.723 527.683 370.261 528.038 369.766C528.402 369.271 528.673 368.819 528.85 368.408L529.676 368.73L529.55 368.912C529.326 369.397 529.004 369.929 528.584 370.508ZM534.604 375.086C534.604 375.254 534.567 375.408 534.492 375.548C534.427 375.688 534.305 375.8 534.128 375.884C533.951 375.968 533.717 376.033 533.428 376.08C533.139 376.117 532.784 376.136 532.364 376.136C532.243 375.875 532.093 375.576 531.916 375.24C532.168 375.287 532.481 375.31 532.854 375.31C533.106 375.31 533.311 375.287 533.47 375.24C533.638 375.184 533.722 375.072 533.722 374.904V374.274V370.956H534.576V374.274L534.604 375.086ZM532.518 372.286L532.448 372.44C531.944 373.513 531.286 374.484 530.474 375.352L529.83 374.722C530.213 374.386 530.577 373.966 530.922 373.462C531.277 372.949 531.547 372.449 531.734 371.964L532.518 372.286ZM535.486 372.37L536.172 371.978C536.377 372.193 536.615 372.473 536.886 372.818C537.166 373.163 537.413 373.499 537.628 373.826C537.852 374.143 538.034 374.419 538.174 374.652L537.488 375.212C537.208 374.727 536.881 374.223 536.508 373.7C536.144 373.177 535.803 372.734 535.486 372.37ZM532.896 378.292C532.728 378.105 532.471 377.863 532.126 377.564C531.781 377.265 531.421 376.995 531.048 376.752L531.664 376.29C531.785 376.355 531.967 376.472 532.21 376.64C532.453 376.799 532.705 376.985 532.966 377.2C533.237 377.415 533.442 377.592 533.582 377.732L532.896 378.292ZM534.058 379.664C534.226 379.552 534.347 379.393 534.422 379.188C534.497 378.983 534.534 378.689 534.534 378.306L535.444 378.796C535.407 379.272 535.304 379.65 535.136 379.93C534.968 380.201 534.674 380.406 534.254 380.546C533.843 380.695 533.181 380.77 532.266 380.77C531.855 380.77 531.477 380.765 531.132 380.756C530.787 380.747 530.507 380.723 530.292 380.686C530.077 380.649 529.923 380.602 529.83 380.546C529.671 380.453 529.555 380.313 529.48 380.126C529.415 379.949 529.382 379.711 529.382 379.412V377.102C529.382 377.037 529.373 376.967 529.354 376.892C529.597 376.92 529.928 376.943 530.348 376.962C530.329 377.018 530.32 377.079 530.32 377.144V379.412C530.32 379.561 530.353 379.673 530.418 379.748C530.483 379.813 530.567 379.86 530.67 379.888C530.95 379.925 531.515 379.944 532.364 379.944C532.681 379.944 532.989 379.93 533.288 379.902C533.596 379.865 533.853 379.785 534.058 379.664ZM536.186 376.906C536.485 377.158 536.835 377.527 537.236 378.012C537.647 378.488 538.025 378.987 538.37 379.51L537.6 380.028C537.357 379.599 537.026 379.123 536.606 378.6C536.195 378.068 535.822 377.639 535.486 377.312L536.186 376.906ZM525.77 379.608C526.097 379.375 526.456 379.006 526.848 378.502C527.24 377.989 527.52 377.517 527.688 377.088L528.542 377.396C528.495 377.443 528.467 377.48 528.458 377.508C528.225 378.04 527.921 378.563 527.548 379.076C527.184 379.58 526.829 379.977 526.484 380.266C526.381 380.154 526.143 379.935 525.77 379.608ZM542.57 375.618V378.81L542.584 379.734C542.584 379.902 542.547 380.056 542.472 380.196C542.397 380.336 542.281 380.453 542.122 380.546C541.963 380.639 541.753 380.709 541.492 380.756C541.231 380.803 540.913 380.826 540.54 380.826C540.465 380.63 540.316 380.285 540.092 379.79C540.129 379.79 540.237 379.799 540.414 379.818C540.601 379.837 540.773 379.846 540.932 379.846C541.147 379.846 541.324 379.823 541.464 379.776C541.604 379.729 541.674 379.622 541.674 379.454V378.81V375.94C541.254 376.099 540.871 376.229 540.526 376.332C540.451 376.36 540.358 376.397 540.246 376.444C540.143 376.491 540.064 376.528 540.008 376.556L539.826 375.59L540.386 375.464C540.722 375.371 541.151 375.231 541.674 375.044V372.076H540.47L539.896 372.09V371.236L540.47 371.25H541.674V368.982L541.646 368.506C541.889 368.506 542.206 368.52 542.598 368.548C542.579 368.716 542.57 368.865 542.57 368.996V371.25H543.466L544.04 371.236V372.09L543.466 372.076H542.57V374.736C543.401 374.428 543.877 374.246 543.998 374.19V375.1L542.57 375.618ZM545.118 373.364C545.137 373.196 545.146 373.056 545.146 372.944V369.276C545.146 369.164 545.137 369.024 545.118 368.856H551.054L551.04 369.276V372.944L551.054 373.364H545.118ZM550.158 369.542H546.014V370.76H550.158V369.542ZM546.014 372.678H550.158V371.404H546.014V372.678ZM549.542 379.916C550.699 379.916 551.665 379.865 552.44 379.762C552.412 379.893 552.375 380.051 552.328 380.238C552.291 380.425 552.258 380.56 552.23 380.644C551.539 380.709 550.573 380.742 549.332 380.742C548.865 380.742 548.417 380.695 547.988 380.602C547.559 380.518 547.171 380.387 546.826 380.21C546.49 380.042 546.177 379.823 545.888 379.552C545.599 379.272 545.356 378.917 545.16 378.488C544.721 379.533 544.194 380.359 543.578 380.966L542.906 380.35C543.121 380.145 543.34 379.888 543.564 379.58C543.788 379.263 543.998 378.903 544.194 378.502C544.399 378.101 544.572 377.671 544.712 377.214C544.861 376.747 544.969 376.276 545.034 375.8L545.888 376.038L545.832 376.164C545.767 376.547 545.673 376.957 545.552 377.396C545.664 377.928 545.893 378.385 546.238 378.768C546.593 379.151 547.055 379.44 547.624 379.636V375.212H545.146C544.782 375.212 544.511 375.221 544.334 375.24V374.386C544.502 374.405 544.773 374.414 545.146 374.414H551.348C551.721 374.414 551.997 374.405 552.174 374.386V375.24C551.997 375.221 551.721 375.212 551.348 375.212H548.52V377.004H550.9L551.432 376.99V377.802L550.9 377.788H548.52V379.846C548.875 379.893 549.215 379.916 549.542 379.916ZM556.22 371.474V380.224L556.248 380.896H555.226L555.254 380.224C555.254 379.468 555.268 378.343 555.296 376.85C555.333 375.357 555.375 374.027 555.422 372.86C555.189 373.299 554.932 373.733 554.652 374.162C554.372 374.582 554.106 374.937 553.854 375.226C553.677 374.853 553.513 374.54 553.364 374.288C553.663 373.952 553.952 373.569 554.232 373.14C554.512 372.711 554.778 372.263 555.03 371.796C555.282 371.329 555.539 370.779 555.8 370.144C556.071 369.5 556.285 368.879 556.444 368.282L557.326 368.618L557.27 368.716C556.943 369.752 556.593 370.671 556.22 371.474ZM565.404 376.066C565.833 376.066 566.141 376.061 566.328 376.052V376.976C566.141 376.957 565.833 376.948 565.404 376.948H557.956C557.527 376.948 557.219 376.957 557.032 376.976V376.052C557.219 376.061 557.527 376.066 557.956 376.066H559.412V372.538H558.334C557.933 372.538 557.639 372.547 557.452 372.566V371.656C557.639 371.665 557.933 371.67 558.334 371.67H559.412V368.996C559.412 368.847 559.403 368.697 559.384 368.548C559.841 368.548 560.173 368.562 560.378 368.59C560.359 368.739 560.35 368.879 560.35 369.01V371.67H562.884V369.01C562.884 368.851 562.875 368.697 562.856 368.548C563.332 368.548 563.668 368.562 563.864 368.59C563.845 368.739 563.836 368.879 563.836 369.01V371.67H565.152C565.553 371.67 565.843 371.665 566.02 371.656V372.566C565.843 372.547 565.553 372.538 565.152 372.538H563.836V376.066H565.404ZM560.35 372.538V376.066H562.884V372.538H560.35ZM563.444 377.494C563.733 377.727 564.065 378.026 564.438 378.39C564.821 378.745 565.157 379.081 565.446 379.398C565.735 379.706 565.964 379.963 566.132 380.168L565.446 380.952C565.073 380.476 564.648 379.995 564.172 379.51C563.705 379.015 563.22 378.539 562.716 378.082L563.444 377.494ZM556.99 380.056C557.261 379.925 557.578 379.729 557.942 379.468C558.315 379.207 558.684 378.894 559.048 378.53C559.421 378.166 559.706 377.83 559.902 377.522L560.602 378.124C560.294 378.581 559.86 379.067 559.3 379.58C558.749 380.084 558.18 380.518 557.592 380.882C557.377 380.565 557.177 380.289 556.99 380.056ZM573.062 370.634C572.847 371.007 572.609 371.376 572.348 371.74C572.087 372.095 571.835 372.393 571.592 372.636C571.452 372.449 571.251 372.216 570.99 371.936C571.382 371.553 571.788 371.021 572.208 370.34C572.628 369.659 572.936 368.996 573.132 368.352L574 368.59L573.93 368.716C573.883 368.856 573.813 369.043 573.72 369.276C573.627 369.5 573.547 369.677 573.482 369.808H579.278C579.633 369.808 579.894 369.799 580.062 369.78V370.662C579.894 370.643 579.633 370.634 579.278 370.634H573.062ZM571.032 370.256L570.514 370.942C570.187 370.662 569.814 370.368 569.394 370.06C568.974 369.752 568.591 369.5 568.246 369.304L568.806 368.674C569.151 368.879 569.529 369.127 569.94 369.416C570.351 369.705 570.715 369.985 571.032 370.256ZM579.432 375.688H579.236C579.227 376.556 579.194 377.359 579.138 378.096H579.348C579.703 378.096 579.964 378.091 580.132 378.082V378.908C579.964 378.899 579.703 378.894 579.348 378.894H579.04C578.984 379.239 578.919 379.51 578.844 379.706C578.732 380.005 578.555 380.243 578.312 380.42C578.079 380.597 577.785 380.714 577.43 380.77C577.075 380.826 576.697 380.854 576.296 380.854C576.231 380.658 576.105 380.327 575.918 379.86C576.021 379.888 576.151 379.916 576.31 379.944C576.478 379.963 576.609 379.972 576.702 379.972C577.113 379.972 577.416 379.925 577.612 379.832C577.817 379.729 577.957 379.571 578.032 379.356C578.079 379.225 578.116 379.071 578.144 378.894H571.858C572.017 378.073 572.175 377.004 572.334 375.688H571.998C571.578 375.688 571.275 375.693 571.088 375.702V374.862C571.275 374.871 571.578 374.876 571.998 374.876H572.432C572.507 374.288 572.563 373.737 572.6 373.224C572.647 372.701 572.675 372.272 572.684 371.936H579.292L579.278 372.23C579.278 372.986 579.269 373.868 579.25 374.876H579.432C579.852 374.876 580.155 374.871 580.342 374.862V375.702C580.155 375.693 579.852 375.688 579.432 375.688ZM570.514 373.56L570.024 374.274C569.669 373.985 569.287 373.705 568.876 373.434C568.465 373.154 568.097 372.925 567.77 372.748L568.26 372.076C568.587 372.253 568.969 372.487 569.408 372.776C569.856 373.065 570.225 373.327 570.514 373.56ZM573.496 372.734C573.468 373.107 573.398 373.821 573.286 374.876H578.354C578.373 374.055 578.382 373.341 578.382 372.734H573.496ZM575.232 373.042C575.325 373.089 575.47 373.173 575.666 373.294C575.871 373.406 576.095 373.546 576.338 373.714C576.59 373.873 576.781 373.999 576.912 374.092L576.464 374.68C576.371 374.587 576.235 374.475 576.058 374.344C575.881 374.204 575.671 374.059 575.428 373.91C575.195 373.751 574.989 373.621 574.812 373.518L575.232 373.042ZM578.242 378.096C578.298 377.396 578.331 376.593 578.34 375.688H573.188C573.113 376.351 573.011 377.153 572.88 378.096H578.242ZM568.106 379.622C568.489 379.109 568.909 378.465 569.366 377.69C569.823 376.906 570.155 376.271 570.36 375.786L570.962 376.57C570.859 376.785 570.701 377.093 570.486 377.494C570.271 377.886 570.005 378.339 569.688 378.852C569.371 379.365 569.086 379.804 568.834 380.168C568.778 380.252 568.685 380.425 568.554 380.686L567.798 379.958C567.863 379.902 567.966 379.79 568.106 379.622ZM576.296 377.802C576.1 377.606 575.82 377.377 575.456 377.116C575.101 376.855 574.812 376.663 574.588 376.542L575.008 376.066C575.251 376.187 575.545 376.365 575.89 376.598C576.235 376.831 576.515 377.037 576.73 377.214L576.296 377.802ZM583.632 371.964C583.651 371.815 583.66 371.689 583.66 371.586V369.136C583.66 369.043 583.651 368.921 583.632 368.772H592.256C592.247 368.856 592.242 368.982 592.242 369.15V371.586L592.256 371.964H583.632ZM591.332 369.346H584.556V370.102H591.332V369.346ZM584.556 371.404H591.332V370.634H584.556V371.404ZM592.998 373.392H583.016C582.531 373.392 582.181 373.401 581.966 373.42V372.678C582.181 372.697 582.531 372.706 583.016 372.706H592.998C593.493 372.706 593.847 372.697 594.062 372.678V373.42C593.847 373.401 593.493 373.392 592.998 373.392ZM593.04 379.79C593.535 379.79 593.894 379.781 594.118 379.762V380.574C593.894 380.555 593.535 380.546 593.04 380.546H583.016C582.512 380.546 582.148 380.555 581.924 380.574V379.762C582.148 379.781 582.512 379.79 583.016 379.79H587.538V378.838H583.674C583.226 378.838 582.899 378.847 582.694 378.866V378.138C582.899 378.157 583.226 378.166 583.674 378.166H587.538V377.312H583.716C583.735 377.163 583.744 377.041 583.744 376.948V374.498C583.744 374.405 583.735 374.283 583.716 374.134H592.298C592.289 374.209 592.284 374.33 592.284 374.498V376.948L592.298 377.312H588.434V378.166H592.438C592.886 378.166 593.208 378.157 593.404 378.138V378.866C593.208 378.847 592.886 378.838 592.438 378.838H588.434V379.79H593.04ZM587.566 374.694H584.612V375.478H587.566V374.694ZM591.416 375.478V374.694H588.406V375.478H591.416ZM584.612 376.01V376.752H587.566V376.01H584.612ZM588.406 376.752H591.416V376.01H588.406V376.752ZM600.306 371.894C600.25 371.829 600.133 371.726 599.956 371.586C599.788 371.446 599.69 371.362 599.662 371.334C599.895 371.175 600.143 370.97 600.404 370.718C600.665 370.457 600.941 370.121 601.23 369.71C601.519 369.29 601.743 368.842 601.902 368.366L602.728 368.59L602.672 368.702C602.569 368.954 602.448 369.211 602.308 369.472H606.984L607.11 369.346C607.446 369.589 607.647 369.738 607.712 369.794C607.777 369.841 607.833 369.887 607.88 369.934L607.726 369.99C607.651 370.13 607.53 370.331 607.362 370.592C607.194 370.844 607.007 371.096 606.802 371.348C606.606 371.6 606.433 371.791 606.284 371.922C606.256 371.894 606.2 371.866 606.116 371.838C606.041 371.801 605.962 371.768 605.878 371.74C605.794 371.703 605.696 371.665 605.584 371.628C605.472 371.581 605.411 371.558 605.402 371.558C605.85 371.194 606.275 370.737 606.676 370.186H601.888C601.673 370.503 601.426 370.821 601.146 371.138C600.866 371.446 600.586 371.698 600.306 371.894ZM599.41 370.046L598.976 370.802C598.043 370.27 597.161 369.827 596.33 369.472L596.778 368.744C597.618 369.127 598.229 369.421 598.612 369.626C598.995 369.822 599.261 369.962 599.41 370.046ZM608.174 373.672C608.109 373.775 607.978 374.027 607.782 374.428C607.119 374.316 606.489 374.134 605.892 373.882C605.295 373.63 604.814 373.345 604.45 373.028C604.095 372.711 603.825 372.393 603.638 372.076C603.498 372.356 603.307 372.622 603.064 372.874C602.821 373.117 602.527 373.341 602.182 373.546C601.846 373.742 601.449 373.915 600.992 374.064C600.544 374.213 600.045 374.33 599.494 374.414L599.074 373.644C599.755 373.579 600.353 373.453 600.866 373.266C601.379 373.079 601.795 372.851 602.112 372.58C602.439 372.309 602.677 372.011 602.826 371.684C602.975 371.357 603.05 371.012 603.05 370.648L603.036 370.41C603.465 370.41 603.778 370.424 603.974 370.452L603.96 370.662V370.872C604.035 371.301 604.24 371.707 604.576 372.09C604.921 372.473 605.411 372.804 606.046 373.084C606.69 373.364 607.399 373.56 608.174 373.672ZM596.582 374.302C596.423 374.377 596.274 374.465 596.134 374.568L595.854 373.616L596.33 373.448C596.759 373.271 597.324 373.009 598.024 372.664C598.724 372.319 599.191 372.062 599.424 371.894L599.396 372.832C599.209 372.944 598.915 373.107 598.514 373.322C598.113 373.537 597.735 373.733 597.38 373.91C597.035 374.078 596.769 374.209 596.582 374.302ZM606.228 374.89L606.214 375.324V377.956L606.228 378.39H605.304V375.59H598.864V378.432H597.926L597.954 377.998V375.324C597.954 375.203 597.945 375.058 597.926 374.89H606.228ZM601.51 376.15C601.911 376.15 602.243 376.159 602.504 376.178C602.485 376.271 602.476 376.36 602.476 376.444V376.766C602.476 377.802 601.986 378.675 601.006 379.384C600.035 380.084 598.598 380.593 596.694 380.91C596.535 380.639 596.349 380.378 596.134 380.126C597.889 379.893 599.228 379.487 600.152 378.908C601.076 378.329 601.538 377.606 601.538 376.738V376.444L601.51 376.15ZM602.49 378.81L602.952 378.124C603.839 378.432 604.707 378.759 605.556 379.104C606.415 379.449 607.227 379.804 607.992 380.168L607.418 380.966C606.643 380.555 605.813 380.159 604.926 379.776C604.039 379.384 603.227 379.062 602.49 378.81ZM613.046 370.2L612.528 370.956C612.211 370.676 611.851 370.387 611.45 370.088C611.058 369.789 610.708 369.551 610.4 369.374L610.932 368.618C611.277 368.842 611.646 369.103 612.038 369.402C612.43 369.691 612.766 369.957 613.046 370.2ZM621.208 369.976H614.6V374.106C614.6 375.599 614.479 376.948 614.236 378.152C613.993 379.347 613.667 380.247 613.256 380.854C613.097 380.686 612.831 380.462 612.458 380.182C613.289 378.894 613.704 376.855 613.704 374.064V369.444L613.676 369.15H621.208C621.581 369.15 621.857 369.145 622.034 369.136V369.99C621.866 369.981 621.591 369.976 621.208 369.976ZM619.108 376.178V378.964L619.122 379.818C619.122 380.042 619.057 380.233 618.926 380.392C618.795 380.551 618.562 380.667 618.226 380.742C617.89 380.817 617.47 380.854 616.966 380.854C616.798 380.462 616.658 380.154 616.546 379.93C616.882 379.967 617.176 379.986 617.428 379.986C617.661 379.986 617.853 379.963 618.002 379.916C618.151 379.869 618.226 379.767 618.226 379.608V378.964V376.178H615.944L615.972 375.744V371.95C615.972 371.847 615.963 371.703 615.944 371.516H617.932C618.044 371.311 618.151 371.082 618.254 370.83C618.366 370.578 618.441 370.377 618.478 370.228L619.486 370.438L619.388 370.55C619.229 370.914 619.066 371.236 618.898 371.516H621.404L621.39 371.95V375.744L621.404 376.178H619.108ZM612.458 373.42L611.954 374.19C611.655 373.929 611.31 373.663 610.918 373.392C610.526 373.112 610.167 372.879 609.84 372.692L610.316 371.95C610.624 372.127 610.983 372.356 611.394 372.636C611.805 372.916 612.159 373.177 612.458 373.42ZM620.536 372.258H616.826V373.476H620.536V372.258ZM616.826 374.162V375.436H620.536V374.162H616.826ZM612.164 375.716C612.453 376.08 612.673 376.346 612.822 376.514C612.635 376.971 612.346 377.592 611.954 378.376C611.562 379.16 611.231 379.781 610.96 380.238C610.885 380.378 610.801 380.555 610.708 380.77L609.882 380.042L610.162 379.706C610.311 379.473 610.503 379.137 610.736 378.698C610.979 378.25 611.235 377.741 611.506 377.172C611.777 376.593 611.996 376.108 612.164 375.716ZM617.134 377.256L617.064 377.368C616.98 377.657 616.854 377.989 616.686 378.362C616.518 378.735 616.308 379.104 616.056 379.468C615.804 379.823 615.566 380.117 615.342 380.35C615.221 380.238 614.978 380.037 614.614 379.748C614.791 379.589 615.001 379.351 615.244 379.034C615.487 378.707 615.706 378.348 615.902 377.956C616.098 377.564 616.233 377.195 616.308 376.85L617.134 377.256ZM620.816 376.864C621.087 377.228 621.371 377.676 621.67 378.208C621.978 378.731 622.225 379.207 622.412 379.636L621.642 380.168C621.437 379.692 621.194 379.193 620.914 378.67C620.634 378.138 620.363 377.676 620.102 377.284L620.816 376.864Z" fill="white"/>
<path d="M563.165 277.313C562.143 277.313 561.144 277.616 560.294 278.184C559.443 278.752 558.781 279.559 558.39 280.504C557.998 281.448 557.896 282.488 558.095 283.49C558.295 284.493 558.787 285.414 559.51 286.137C560.233 286.86 561.154 287.352 562.157 287.552C563.159 287.751 564.199 287.649 565.143 287.258C566.088 286.866 566.895 286.204 567.463 285.354C568.031 284.504 568.334 283.505 568.334 282.482C568.333 281.112 567.788 279.798 566.819 278.829C565.85 277.86 564.536 277.315 563.165 277.313ZM563.165 285.539C562.561 285.539 561.97 285.36 561.467 285.024C560.964 284.688 560.573 284.211 560.341 283.652C560.11 283.094 560.049 282.479 560.167 281.886C560.285 281.293 560.576 280.748 561.004 280.321C561.431 279.893 561.976 279.602 562.569 279.484C563.162 279.366 563.776 279.427 564.335 279.658C564.893 279.89 565.371 280.281 565.707 280.784C566.042 281.287 566.222 281.878 566.222 282.482C566.221 283.293 565.898 284.069 565.326 284.642C564.753 285.215 563.976 285.538 563.165 285.539V285.539Z" fill="white"/>
<path d="M528.169 277.313C527.147 277.313 526.147 277.616 525.297 278.184C524.447 278.752 523.785 279.559 523.393 280.504C523.002 281.448 522.9 282.488 523.099 283.49C523.299 284.493 523.791 285.414 524.514 286.137C525.237 286.86 526.158 287.352 527.16 287.552C528.163 287.751 529.203 287.649 530.147 287.258C531.092 286.866 531.899 286.204 532.467 285.354C533.035 284.504 533.338 283.505 533.338 282.482C533.337 281.112 532.792 279.798 531.822 278.829C530.853 277.86 529.54 277.314 528.169 277.313V277.313ZM528.169 285.539C527.565 285.539 526.974 285.359 526.471 285.024C525.968 284.688 525.577 284.21 525.345 283.652C525.114 283.093 525.054 282.479 525.172 281.886C525.289 281.293 525.581 280.748 526.008 280.321C526.436 279.893 526.98 279.602 527.573 279.484C528.166 279.366 528.781 279.427 529.339 279.658C529.898 279.89 530.375 280.281 530.711 280.784C531.047 281.287 531.226 281.878 531.226 282.482C531.225 283.293 530.903 284.07 530.33 284.643C529.756 285.216 528.979 285.538 528.169 285.539V285.539Z" fill="white"/>
<path d="M545.669 249C544.646 249 543.647 249.303 542.797 249.871C541.947 250.439 541.285 251.246 540.893 252.191C540.502 253.135 540.4 254.175 540.599 255.177C540.799 256.18 541.291 257.101 542.014 257.824C542.737 258.547 543.658 259.039 544.661 259.238C545.663 259.438 546.702 259.335 547.647 258.944C548.591 258.553 549.399 257.891 549.967 257.041C550.535 256.191 550.838 255.191 550.838 254.169C550.836 252.798 550.291 251.485 549.322 250.516C548.353 249.547 547.039 249.001 545.669 249V249ZM545.669 257.225C545.064 257.225 544.473 257.046 543.971 256.71C543.468 256.374 543.077 255.897 542.845 255.338C542.614 254.78 542.554 254.165 542.672 253.572C542.789 252.98 543.081 252.435 543.508 252.008C543.935 251.58 544.48 251.289 545.073 251.171C545.666 251.053 546.28 251.114 546.839 251.345C547.397 251.577 547.874 251.968 548.21 252.471C548.546 252.974 548.725 253.564 548.725 254.169C548.724 254.979 548.402 255.756 547.829 256.329C547.256 256.902 546.479 257.224 545.669 257.225V257.225Z" fill="white"/>
<path d="M549.845 257.333L549.735 257.135L549.592 257.311C549.202 257.796 548.718 258.197 548.17 258.49L548.033 258.564L548.108 258.7L558.212 276.894C554.135 276.049 549.981 275.639 545.818 275.671C540.868 275.671 536.468 276.091 533.06 276.886L543.16 258.7L543.235 258.564L543.098 258.49C542.55 258.197 542.067 257.796 541.678 257.312L541.535 257.134L541.425 257.333L530.012 277.887L529.924 278.046L530.095 278.106C530.655 278.301 531.168 278.999 531.62 279.396L531.695 279.462L531.786 279.419L531.824 279.412C535.466 278.403 540.304 277.87 545.818 277.87C550.78 277.87 555.593 278.414 559.383 279.403L559.458 279.55L559.605 279.431L559.636 279.406C560.096 279 560.611 278.301 561.173 278.106L561.345 278.046L561.256 277.887L549.845 257.333Z" fill="white"/>
<path d="M59.3435 320.384C61.1568 320.384 62.6288 320.928 63.7595 322.016C64.8902 323.104 65.4555 324.544 65.4555 326.336C65.4555 328.117 64.8848 329.557 63.7435 330.656C62.6022 331.744 61.1355 332.288 59.3435 332.288C57.5302 332.288 56.0582 331.739 54.9275 330.64C53.7968 329.541 53.2315 328.107 53.2315 326.336C53.2315 324.565 53.7915 323.131 54.9115 322.032C56.0422 320.933 57.5195 320.384 59.3435 320.384ZM55.8235 326.336C55.8235 327.435 56.1488 328.32 56.7995 328.992C57.4608 329.653 58.3088 329.984 59.3435 329.984C60.3995 329.984 61.2475 329.643 61.8875 328.96C62.5382 328.277 62.8635 327.403 62.8635 326.336C62.8635 325.248 62.5328 324.368 61.8715 323.696C61.2208 323.024 60.3728 322.688 59.3275 322.688C58.2822 322.688 57.4342 323.029 56.7835 323.712C56.1435 324.395 55.8235 325.269 55.8235 326.336ZM75.944 320.672V322.976H70.744V325.088H75.656V327.392H70.744V329.696H76.232V332H68.248V320.672H75.944ZM83.0061 320.672L85.6141 328.064H85.6461L88.2701 320.672H92.0301V332H89.5341V323.312H89.5021L86.5261 332H84.6221L81.7581 323.312H81.7261V332H79.2301V320.672H83.0061ZM106.258 322.768V326.144H109.634V328.16H106.258V331.536H104.242V328.16H100.866V326.144H104.242V322.768H106.258ZM122.321 321.552L120.385 323.184C120.257 322.939 120.07 322.635 119.825 322.272C119.59 321.909 119.307 321.525 118.977 321.12C118.657 320.704 118.369 320.357 118.113 320.08L119.841 318.736C120.193 319.056 120.603 319.477 121.073 320C121.542 320.523 121.958 321.04 122.321 321.552ZM130.401 321.264H124.657C123.974 321.264 123.51 321.269 123.265 321.28V319.088C123.51 319.099 123.974 319.104 124.657 319.104H130.401C131.073 319.104 131.531 319.099 131.777 319.088V321.28C131.542 321.269 131.083 321.264 130.401 321.264ZM125.121 324.784H124.161C123.318 324.784 122.753 324.789 122.465 324.8V322.544C122.753 322.555 123.318 322.56 124.161 322.56H131.009C131.851 322.56 132.411 322.555 132.689 322.544V324.8C132.411 324.789 131.851 324.784 131.009 324.784H127.665C127.227 325.552 126.619 326.491 125.841 327.6C126.331 327.568 127.371 327.477 128.961 327.328C128.534 326.677 128.198 326.197 127.953 325.888L129.921 325.024C129.963 325.067 130.038 325.157 130.145 325.296C130.262 325.424 130.459 325.669 130.737 326.032C131.014 326.384 131.355 326.859 131.761 327.456C132.166 328.043 132.539 328.619 132.881 329.184C132.497 329.397 131.787 329.787 130.753 330.352C130.646 330.128 130.454 329.771 130.177 329.28C129.846 329.323 128.955 329.424 127.505 329.584C126.054 329.733 124.977 329.851 124.273 329.936C123.75 330.011 123.419 330.064 123.281 330.096C122.897 328.869 122.651 328.101 122.545 327.792C122.907 327.707 123.323 327.376 123.793 326.8C124.273 326.224 124.715 325.552 125.121 324.784ZM126.529 330.784C127.595 330.784 128.747 330.747 129.985 330.672C131.233 330.597 132.225 330.507 132.961 330.4C132.577 331.872 132.363 332.699 132.321 332.88C131.713 332.955 130.806 333.019 129.601 333.072C128.395 333.136 127.339 333.168 126.433 333.168C125.835 333.168 125.185 333.131 124.481 333.056C123.787 332.981 123.142 332.821 122.545 332.576C121.947 332.341 121.462 332 121.089 331.552C120.758 331.819 120.193 332.219 119.393 332.752L118.753 333.232C118.262 332.197 117.894 331.413 117.649 330.88C117.734 330.848 117.995 330.709 118.433 330.464C118.763 330.272 119.174 330.011 119.664 329.68V326.592H118.561L117.953 326.608V324.352L118.561 324.368H121.937C121.926 324.496 121.921 324.709 121.921 325.008V329.136C122.059 329.701 122.507 330.117 123.265 330.384C124.033 330.651 125.121 330.784 126.529 330.784ZM147.881 319.376C148.681 319.376 149.219 319.371 149.497 319.36V321.312C149.219 321.301 148.681 321.296 147.881 321.296H146.057V321.424C146.057 321.584 146.067 321.771 146.089 321.984H143.609C143.63 321.792 143.641 321.605 143.641 321.424V321.296H141.017V321.424L141.033 321.984H138.553C138.574 321.792 138.585 321.605 138.585 321.424V321.296H136.857C136.057 321.296 135.518 321.301 135.241 321.312V319.36C135.518 319.371 136.057 319.376 136.857 319.376H138.585V318.96C138.585 318.736 138.579 318.571 138.569 318.464C138.59 318.464 138.611 318.464 138.633 318.464C138.665 318.464 139.011 318.475 139.673 318.496C140.345 318.517 140.798 318.533 141.033 318.544L141.017 318.96V319.376H143.641V318.96C143.641 318.736 143.635 318.571 143.625 318.464C143.646 318.464 143.667 318.464 143.689 318.464C143.71 318.464 144.051 318.475 144.713 318.496C145.385 318.517 145.838 318.533 146.073 318.544L146.057 318.96V319.376H147.881ZM149.321 322.288C149.31 322.384 149.305 322.539 149.305 322.752V325.056L149.321 325.504H147.097V324H137.593V325.52H135.368C135.39 325.349 135.401 325.195 135.401 325.056V322.752C135.401 322.613 135.39 322.459 135.368 322.288H149.321ZM138.105 328.16C138.115 328.053 138.121 327.861 138.121 327.584V324.992C138.121 324.725 138.115 324.539 138.105 324.432H146.601L146.585 324.992V327.584L146.601 328.16H138.105ZM144.217 325.904H140.457V326.592H144.217V325.904ZM148.009 328.64L147.993 329.248V332.752L148.009 333.36H145.641V332.88H139.225V333.36H136.841C136.862 333.125 136.873 332.923 136.873 332.752V329.248C136.873 329.056 136.862 328.853 136.841 328.64H148.009ZM139.225 331.152H145.641V330.304H139.225V331.152ZM163.425 321.68L163.393 321.744L162.897 322.768H165.841L165.825 323.504V330.016L165.857 331.472C165.857 331.749 165.798 331.989 165.681 332.192C165.563 332.395 165.409 332.565 165.217 332.704C165.035 332.843 164.806 332.96 164.529 333.056C164.262 333.163 163.942 333.243 163.569 333.296C163.195 333.349 162.785 333.376 162.337 333.376C162.305 333.291 162.054 332.725 161.585 331.68H158.289V332.688H156.177C156.187 332.581 156.193 332.379 156.193 332.08V327.776L155.409 328.176C155.259 327.792 155.131 327.493 155.025 327.28V332.432C155.025 332.891 155.035 333.211 155.057 333.392H152.753C152.774 333.221 152.785 332.901 152.785 332.432V323.424L152.769 322.768H155.697L155.217 321.68H153.745C152.923 321.68 152.374 321.691 152.097 321.712V319.648C152.374 319.659 152.923 319.664 153.745 319.664H158.097C157.979 319.397 157.819 319.083 157.617 318.72L159.969 318.24C160.033 318.336 160.129 318.512 160.257 318.768C160.385 319.013 160.529 319.312 160.689 319.664H164.881C165.691 319.664 166.235 319.659 166.513 319.648V321.712C166.235 321.691 165.691 321.68 164.881 321.68H163.425ZM158.129 322.768H160.417C160.513 322.576 160.678 322.213 160.913 321.68H157.665L158.129 322.768ZM155.025 326.064C155.409 325.904 155.83 325.707 156.289 325.472C156.747 325.227 157.163 324.987 157.537 324.752H155.025V326.064ZM158.145 324.752L159.233 325.952L158.977 326.096C158.763 326.235 158.475 326.421 158.113 326.656C157.761 326.88 157.473 327.056 157.249 327.184H161.665C160.811 326.683 160.054 326.272 159.392 325.952L160.352 324.752H158.145ZM163.601 325.984V324.752H161.153C162.017 325.147 162.833 325.557 163.601 325.984ZM163.601 330.832V330.064V327.376L163.169 328.16C162.87 327.947 162.641 327.792 162.481 327.696V327.712V331.312H162.705C163.025 331.312 163.254 331.275 163.393 331.2C163.531 331.125 163.601 331.003 163.601 330.832ZM158.289 329.872H160.369V328.976H158.289V329.872Z" fill="white"/>
<path d="M81.076 351.426C81.0107 351.333 80.8193 351.118 80.502 350.782C80.8287 350.651 81.1693 350.474 81.524 350.25C81.888 350.017 82.238 349.755 82.574 349.466C82.91 349.167 83.218 348.85 83.498 348.514C83.778 348.178 84.0067 347.837 84.184 347.492L85.066 347.688L84.982 347.786C84.9073 347.926 84.7907 348.113 84.632 348.346C84.4733 348.57 84.3427 348.747 84.24 348.878H86.718L86.802 348.794C86.8953 348.85 87.012 348.934 87.152 349.046C87.3013 349.149 87.4273 349.247 87.53 349.34L87.39 349.41C87.0633 350.017 86.5967 350.637 85.99 351.272C85.3833 351.897 84.6787 352.453 83.876 352.938C83.0827 353.414 82.2987 353.773 81.524 354.016C81.4307 353.857 81.23 353.624 80.922 353.316C81.4353 353.176 81.972 352.971 82.532 352.7C83.1013 352.429 83.6147 352.14 84.072 351.832C83.7827 351.58 83.3627 351.286 82.812 350.95L83.302 350.432C83.4887 350.525 83.7127 350.661 83.974 350.838C84.2447 351.006 84.4873 351.179 84.702 351.356C85.01 351.104 85.3087 350.824 85.598 350.516C85.8967 350.208 86.1393 349.914 86.326 349.634H83.568C83.288 349.914 82.9893 350.18 82.672 350.432C82.3547 350.684 82.056 350.889 81.776 351.048C81.5053 351.207 81.272 351.333 81.076 351.426ZM80.362 355.822C79.998 355.113 79.5453 354.394 79.004 353.666V359.28L79.032 359.854H78.08L78.108 359.28C78.108 358.832 78.1173 357.945 78.136 356.62C78.164 355.295 78.192 354.184 78.22 353.288C77.9213 354.175 77.576 354.996 77.184 355.752C76.792 356.499 76.4 357.087 76.008 357.516C75.9333 357.339 75.784 357.063 75.56 356.69C75.812 356.429 76.078 356.083 76.358 355.654C76.638 355.225 76.918 354.721 77.198 354.142C77.478 353.554 77.716 352.943 77.912 352.308H76.47L75.854 352.322V351.482L76.47 351.496H78.122V349.34C77.534 349.536 76.9693 349.685 76.428 349.788C76.3813 349.667 76.2693 349.415 76.092 349.032C76.5587 348.957 77.072 348.836 77.632 348.668C78.192 348.5 78.6773 348.332 79.088 348.164C79.508 347.987 79.8347 347.833 80.068 347.702C80.1707 347.823 80.264 347.94 80.348 348.052C80.4413 348.155 80.5393 348.257 80.642 348.36L80.376 348.458C79.9 348.673 79.4427 348.864 79.004 349.032V351.496H80.138L80.754 351.482V352.322L80.138 352.308H79.004V353.554L79.48 353.19C80.0027 353.834 80.4927 354.534 80.95 355.29C80.726 355.477 80.53 355.654 80.362 355.822ZM88.538 354.408L88.398 354.464C88.1273 355.061 87.796 355.621 87.404 356.144C87.0213 356.657 86.5593 357.147 86.018 357.614C85.486 358.071 84.8187 358.51 84.016 358.93C83.2227 359.341 82.2893 359.681 81.216 359.952C81.1787 359.887 81.1087 359.784 81.006 359.644C80.9127 359.513 80.7913 359.364 80.642 359.196C81.4167 359.037 82.168 358.804 82.896 358.496C83.624 358.188 84.282 357.829 84.87 357.418C84.786 357.343 84.6087 357.213 84.338 357.026C84.0767 356.83 83.7593 356.625 83.386 356.41L83.904 355.934C84.1187 356.037 84.3753 356.181 84.674 356.368C84.9727 356.555 85.248 356.741 85.5 356.928C85.892 356.592 86.2233 356.261 86.494 355.934C86.774 355.598 86.9793 355.323 87.11 355.108C87.2407 354.893 87.3247 354.749 87.362 354.674H84.814C84.59 354.879 84.3147 355.108 83.988 355.36C83.6613 355.612 83.2973 355.855 82.896 356.088C82.4947 356.321 82.1073 356.513 81.734 356.662C81.6593 356.531 81.482 356.303 81.202 355.976C81.594 355.827 81.9767 355.649 82.35 355.444C82.7233 355.229 83.092 354.991 83.456 354.73C83.8293 354.469 84.2213 354.137 84.632 353.736C85.0427 353.335 85.388 352.91 85.668 352.462L86.536 352.686L86.452 352.77C86.1813 353.19 85.8873 353.573 85.57 353.918H87.698L87.796 353.82C87.8987 353.885 88.02 353.974 88.16 354.086C88.3 354.198 88.426 354.305 88.538 354.408ZM101.81 350.138L101.782 350.446C101.782 351.93 101.768 353.218 101.74 354.31C101.721 355.393 101.679 356.284 101.614 356.984C101.558 357.684 101.46 358.225 101.32 358.608C101.245 358.813 101.115 359.019 100.928 359.224C100.751 359.439 100.461 359.611 100.06 359.742C99.668 359.873 99.1453 359.938 98.492 359.938C98.464 359.789 98.338 359.439 98.114 358.888C98.338 358.963 98.632 359 98.996 359C99.3973 359 99.7193 358.93 99.962 358.79C100.214 358.641 100.391 358.421 100.494 358.132C100.597 357.833 100.667 357.418 100.704 356.886C100.751 356.354 100.788 355.659 100.816 354.8C100.844 353.941 100.863 352.681 100.872 351.02H98.52V351.678C98.52 352.247 98.4827 352.863 98.408 353.526C98.3427 354.189 98.198 354.94 97.974 355.78C97.7593 356.62 97.4467 357.423 97.036 358.188C96.6253 358.944 96.1727 359.537 95.678 359.966C95.5753 359.873 95.4447 359.77 95.286 359.658C95.1273 359.546 94.9873 359.457 94.866 359.392C95.258 359.084 95.622 358.678 95.958 358.174C96.294 357.661 96.588 357.068 96.84 356.396C97.092 355.715 97.288 354.968 97.428 354.156C97.568 353.344 97.638 352.504 97.638 351.636V351.02H96.476C96.1773 351.02 95.9533 351.025 95.804 351.034V350.124C95.9533 350.133 96.1773 350.138 96.476 350.138H97.638V347.758L97.61 347.38L98.534 347.422C98.5247 347.478 98.52 347.59 98.52 347.758V350.138H101.81ZM94.614 349.368H91.1C90.764 349.368 90.5167 349.373 90.358 349.382V348.472C90.5167 348.481 90.764 348.486 91.1 348.486H94.614L95.342 348.472V349.382L94.614 349.368ZM95.552 358.02L94.712 358.328L94.474 357.474C94.2033 357.549 93.5593 357.731 92.542 358.02C91.534 358.309 90.8667 358.496 90.54 358.58C90.3533 358.617 90.1807 358.664 90.022 358.72L89.77 357.698C89.8913 357.651 89.994 357.558 90.078 357.418C90.8807 356.046 91.4967 354.483 91.926 352.728H90.694C90.3207 352.728 90.05 352.733 89.882 352.742V351.832C90.05 351.841 90.3207 351.846 90.694 351.846H94.936C95.3093 351.846 95.5847 351.841 95.762 351.832V352.742C95.5847 352.733 95.3093 352.728 94.936 352.728H92.92C92.7147 353.447 92.514 354.086 92.318 354.646C92.1313 355.197 91.9213 355.719 91.688 356.214C91.464 356.709 91.24 357.161 91.016 357.572C91.8653 357.367 92.9387 357.068 94.236 356.676C94.1987 356.536 94.1147 356.275 93.984 355.892C93.8627 355.509 93.7273 355.127 93.578 354.744L94.376 354.506C94.488 354.739 94.6513 355.164 94.866 355.78C95.0807 356.396 95.3093 357.143 95.552 358.02ZM106.794 350.152L106.08 350.726C105.865 350.381 105.59 349.989 105.254 349.55C104.918 349.111 104.61 348.743 104.33 348.444L105.002 347.926C105.338 348.243 105.669 348.617 105.996 349.046C106.323 349.466 106.589 349.835 106.794 350.152ZM114.284 349.158H109.286C108.857 349.158 108.544 349.167 108.348 349.186V348.304C108.544 348.313 108.857 348.318 109.286 348.318H114.284C114.723 348.318 115.04 348.313 115.236 348.304V349.186C115.04 349.167 114.723 349.158 114.284 349.158ZM110.658 352.308H108.53C107.998 352.308 107.62 352.313 107.396 352.322V351.412C107.62 351.431 107.998 351.44 108.53 351.44H115.11C115.642 351.44 116.02 351.431 116.244 351.412V352.322C116.02 352.313 115.642 352.308 115.11 352.308H111.694C111.386 352.905 111.008 353.582 110.56 354.338C110.112 355.094 109.72 355.687 109.384 356.116C110.681 356.004 112.245 355.841 114.074 355.626C113.57 354.87 113.075 354.221 112.59 353.68L113.332 353.274C113.715 353.694 114.116 354.189 114.536 354.758C114.956 355.318 115.287 355.789 115.53 356.172C115.782 356.555 115.95 356.816 116.034 356.956C115.847 357.068 115.563 357.222 115.18 357.418C115.012 357.091 114.816 356.755 114.592 356.41L108.768 357.11L108.208 357.18L107.886 356.242C108.063 356.214 108.297 356.046 108.586 355.738C108.885 355.421 109.235 354.926 109.636 354.254C110.037 353.573 110.378 352.924 110.658 352.308ZM111.302 358.776C111.703 358.776 112.198 358.767 112.786 358.748C113.383 358.72 114.009 358.678 114.662 358.622C115.325 358.566 115.875 358.501 116.314 358.426L116.048 359.392C115.535 359.467 114.811 359.527 113.878 359.574C112.945 359.63 112.072 359.658 111.26 359.658C110.737 359.658 110.205 359.625 109.664 359.56C109.123 359.495 108.656 359.397 108.264 359.266C107.872 359.145 107.536 359.009 107.256 358.86C106.985 358.701 106.766 358.538 106.598 358.37C106.43 358.202 106.304 358.048 106.22 357.908C106.015 358.123 105.735 358.375 105.38 358.664C105.035 358.944 104.713 359.191 104.414 359.406L104.106 359.644L103.63 358.748L104.008 358.538C104.26 358.389 104.545 358.197 104.862 357.964C105.189 357.721 105.469 357.493 105.702 357.278V353.778H104.288L103.84 353.792V352.91L104.288 352.924H106.612L106.598 353.358V356.984C106.663 357.301 106.869 357.595 107.214 357.866C107.569 358.137 108.096 358.356 108.796 358.524C109.505 358.692 110.341 358.776 111.302 358.776ZM129.054 348.486C129.577 348.486 129.945 348.481 130.16 348.472V349.326C129.945 349.317 129.577 349.312 129.054 349.312H126.646V350.026C126.646 350.213 126.651 350.343 126.66 350.418H125.694C125.703 350.343 125.708 350.213 125.708 350.026V349.312H122.362V350.026C122.362 350.213 122.367 350.343 122.376 350.418H121.41C121.419 350.343 121.424 350.213 121.424 350.026V349.312H119.072C118.549 349.312 118.181 349.317 117.966 349.326V348.472C118.181 348.481 118.549 348.486 119.072 348.486H121.424V347.772L121.41 347.394C121.513 347.394 121.676 347.403 121.9 347.422C122.124 347.431 122.283 347.441 122.376 347.45L122.362 347.772V348.486H125.708V347.772L125.694 347.394C125.797 347.394 125.96 347.403 126.184 347.422C126.408 347.431 126.567 347.441 126.66 347.45L126.646 347.772V348.486H129.054ZM129.852 350.88C129.843 350.945 129.838 351.057 129.838 351.216V353.078L129.852 353.4H128.914V351.65H119.142V353.414H118.19C118.209 353.283 118.218 353.171 118.218 353.078V351.216C118.218 351.123 118.209 351.011 118.19 350.88H129.852ZM120.654 355.374C120.673 355.225 120.682 355.099 120.682 354.996V352.868C120.682 352.775 120.673 352.653 120.654 352.504H127.5C127.491 352.579 127.486 352.7 127.486 352.868V354.996L127.5 355.374H120.654ZM126.548 353.218H121.606V354.66H126.548V353.218ZM128.48 356.256L128.466 356.676V359.532L128.48 359.952H127.528V359.49H120.696V359.952H119.73C119.749 359.784 119.758 359.644 119.758 359.532V356.676L119.73 356.256H128.48ZM120.696 358.692H127.528V357.068H120.696V358.692ZM143.978 349.704C143.763 349.685 143.404 349.676 142.9 349.676H140.604L140.996 349.83L140.898 349.984C140.665 350.441 140.417 350.885 140.156 351.314H143.25L143.236 351.818V357.978L143.264 358.734C143.264 358.939 143.217 359.117 143.124 359.266C143.04 359.415 142.891 359.537 142.676 359.63C142.471 359.723 142.186 359.793 141.822 359.84C141.458 359.887 141.005 359.91 140.464 359.91C140.436 359.835 140.268 359.509 139.96 358.93C140.38 358.986 140.791 359.014 141.192 359.014C141.519 359.014 141.785 358.986 141.99 358.93C142.205 358.865 142.312 358.734 142.312 358.538V358.048V352.112H133.674V359.364C133.674 359.523 133.683 359.723 133.702 359.966H132.722L132.75 359.364V351.608C132.75 351.524 132.741 351.426 132.722 351.314H135.704C135.368 350.679 135.097 350.217 134.892 349.928L135.494 349.676H133.114C132.591 349.676 132.223 349.685 132.008 349.704V348.808C132.223 348.817 132.591 348.822 133.114 348.822H137.608C137.393 348.365 137.141 347.931 136.852 347.52L137.65 347.17C137.986 347.627 138.28 348.127 138.532 348.668C138.448 348.696 138.331 348.747 138.182 348.822H142.9C143.404 348.822 143.763 348.817 143.978 348.808V349.704ZM139.12 351.314C139.279 351.071 139.437 350.805 139.596 350.516C139.755 350.227 139.895 349.947 140.016 349.676H135.788C135.928 349.9 136.077 350.157 136.236 350.446C136.404 350.735 136.558 351.025 136.698 351.314H139.12ZM137.468 353.218L137.328 353.288C137.057 353.484 136.74 353.699 136.376 353.932C136.021 354.165 135.662 354.385 135.298 354.59C134.943 354.786 134.621 354.959 134.332 355.108C134.192 354.8 134.057 354.543 133.926 354.338C134.159 354.245 134.453 354.109 134.808 353.932C135.163 353.745 135.536 353.526 135.928 353.274C136.329 353.022 136.67 352.779 136.95 352.546L137.468 353.218ZM142.032 354.31L141.64 355.108C141.36 354.893 140.926 354.604 140.338 354.24C139.75 353.876 139.148 353.535 138.532 353.218L138.966 352.546C139.339 352.723 139.839 352.994 140.464 353.358C141.099 353.713 141.621 354.03 142.032 354.31ZM140.282 357.838L140.296 358.188H136.586V359.168H135.718C135.737 359 135.746 358.865 135.746 358.762V355.388C135.746 355.285 135.737 355.15 135.718 354.982H140.296C140.287 355.057 140.282 355.178 140.282 355.346V357.838ZM136.586 357.432H139.442V355.738H136.586V357.432Z" fill="white"/>
<path d="M117.871 253.905H102.553C101.143 253.905 100 255.048 100 256.458V289.647C100 291.057 101.143 292.2 102.553 292.2H117.871C119.281 292.2 120.424 291.057 120.424 289.647V256.458C120.424 255.048 119.281 253.905 117.871 253.905Z" stroke="#F9F9F9" stroke-width="1.96503" stroke-linecap="round" stroke-linejoin="round"/>
<path d="M99.8427 286.973H90.8587C90.3662 286.972 89.8942 286.775 89.546 286.427C89.1977 286.079 89.0014 285.607 89 285.114V260.951C89.0016 260.459 89.1979 259.987 89.5461 259.638C89.8944 259.29 90.3662 259.094 90.8587 259.092H100.092" stroke="#F9F9F9" stroke-width="1.96503" stroke-linecap="round" stroke-linejoin="round"/>
<path d="M120.686 286.973H129.67C130.163 286.972 130.635 286.775 130.983 286.427C131.331 286.079 131.528 285.607 131.529 285.114V260.951C131.528 260.459 131.331 259.987 130.983 259.638C130.635 259.29 130.163 259.094 129.67 259.092H120.438" stroke="#F9F9F9" stroke-width="1.96503" stroke-linecap="round" stroke-linejoin="round"/>
<path d="M107.658 288.54H112.764" stroke="#F9F9F9" stroke-width="1.96503" stroke-linecap="round" stroke-linejoin="round"/>
<path d="M94.5781 283.612H98.2956" stroke="#F9F9F9" stroke-width="1.96503" stroke-linecap="round" stroke-linejoin="round"/>
<path d="M125.952 283.612H122.234" stroke="#F9F9F9" stroke-width="1.96503" stroke-linecap="round" stroke-linejoin="round"/>
<path d="M124.426 252.999C124.425 251.693 123.907 250.442 122.984 249.519C122.061 248.596 120.809 248.077 119.504 248.076" stroke="#F9F9F9" stroke-width="1.96503" stroke-linecap="round" stroke-linejoin="round"/>
<path d="M127.504 252.383C127.503 250.425 126.725 248.548 125.341 247.164C123.956 245.779 122.079 245.001 120.121 245" stroke="#F9F9F9" stroke-width="1.96503" stroke-linecap="round" stroke-linejoin="round"/>
<path d="M110 230.118C110 109.708 207.612 12.0967 328.022 12.0967C448.432 12.0967 546.044 109.708 546.044 230.118" stroke="url(#paint0_linear_4798_1591)" stroke-width="24" stroke-miterlimit="10"/>
<defs>
<linearGradient id="paint0_linear_4798_1591" x1="97.7692" y1="114.992" x2="558.274" y2="114.992" gradientUnits="userSpaceOnUse">
<stop stop-color="#11E3A3"/>
<stop offset="0.99948" stop-color="#2464F2"/>
</linearGradient>
</defs>
</svg>
