<svg viewBox="0 0 656 385" fill="none" xmlns="http://www.w3.org/2000/svg">
<path d="M299.571 225.593H290.399L289.166 229.469H283L291.387 204.798H298.583L306.97 229.478H300.804L299.571 225.593ZM297.874 220.305L294.985 211.243L292.096 220.305H297.874V220.305Z" fill="white"/>
<path d="M319.485 211.496V217.493C317.297 217.138 314.197 218.025 314.197 221.513V229.478H308.91V211.842H314.197V214.984C314.898 212.619 317.263 211.496 319.485 211.496Z" fill="white"/>
<path d="M332.526 211.496V217.493C330.338 217.138 327.238 218.025 327.238 221.513V229.478H321.951V211.842H327.238V214.984C327.948 212.619 330.304 211.496 332.526 211.496Z" fill="white"/>
<path d="M352.554 211.842V229.469H347.267V227.814C346.101 229.157 344.378 229.968 342.013 229.968C337.393 229.968 333.584 225.914 333.584 220.66C333.584 215.407 337.393 211.353 342.013 211.353C344.378 211.353 346.101 212.163 347.267 213.506V211.851L352.554 211.842V211.842ZM347.267 220.66C347.267 218.016 345.501 216.361 343.069 216.361C340.636 216.361 338.871 218.016 338.871 220.66C338.871 223.304 340.636 224.959 343.069 224.959C345.501 224.959 347.267 223.304 347.267 220.66V220.66Z" fill="white"/>
<path d="M373.177 211.842L367.147 228.946C365.171 234.554 362.037 236.775 357.096 236.522V231.589C359.562 231.589 360.728 230.812 361.505 228.667L354.486 211.851H360.306L364.216 222.636L367.527 211.851H373.177V211.842Z" fill="white"/>
<path d="M357.854 149.84L353.816 142.408L352.378 145.074C352.297 145.219 352.2 145.365 352.119 145.51C352.103 145.542 352.071 145.575 352.055 145.607C351.962 145.748 351.859 145.883 351.748 146.011L351.716 146.043C351.616 146.169 351.508 146.288 351.392 146.399L351.344 146.447L350.956 146.786C350.94 146.786 350.94 146.802 350.924 146.802C350.644 147.015 350.347 147.204 350.035 147.368H350.019C349.698 147.522 349.362 147.647 349.018 147.739C348.545 147.877 348.056 147.948 347.564 147.949H311.7L310.246 145.252C309.794 144.412 309.556 143.475 309.552 142.521C309.552 142.311 309.552 142.085 309.568 141.875C309.452 143.038 309.688 144.209 310.246 145.235L332.249 185.849C332.676 186.69 333.327 187.398 334.131 187.892C334.936 188.386 335.861 188.647 336.805 188.647C337.749 188.647 338.674 188.386 339.478 187.892C340.282 187.398 340.934 186.69 341.36 185.849L357.854 155.413C358.316 154.557 358.557 153.599 358.557 152.626C358.557 151.653 358.316 150.696 357.854 149.84V149.84Z" fill="#2155AA"/>
<path d="M370.135 95.5435L337.115 95.6081C336.175 95.6219 335.255 95.8887 334.454 96.3804C333.652 96.8722 332.998 97.5708 332.559 98.4028L328.246 106.335H331.38C332.321 106.347 333.241 106.613 334.043 107.105C334.845 107.597 335.499 108.296 335.936 109.13L353.835 142.392L352.656 144.573C352.656 144.571 352.656 144.569 352.657 144.567C352.658 144.565 352.659 144.563 352.661 144.562C352.662 144.56 352.664 144.559 352.666 144.558C352.668 144.557 352.67 144.557 352.672 144.557L374.707 103.944C376.727 100.196 374.19 95.5435 370.135 95.5435Z" fill="#12E3A3"/>
<path d="M310.229 145.219C310.149 145.088 310.084 144.947 310.036 144.799C310.019 144.751 310.003 144.719 309.987 144.67C309.931 144.538 309.883 144.403 309.842 144.266C309.826 144.218 309.809 144.169 309.793 144.105C309.761 144.008 309.745 143.911 309.712 143.814C309.696 143.733 309.68 143.669 309.664 143.588C309.645 143.508 309.634 143.427 309.632 143.346C309.615 143.216 309.599 143.071 309.583 142.942C309.583 142.893 309.567 142.845 309.567 142.796C309.567 142.699 309.551 142.586 309.551 142.489C309.52 141.458 309.766 140.438 310.262 139.533L328.258 106.335H287.273C283.219 106.335 280.682 111.004 282.718 114.735L299.276 145.123C299.713 145.956 300.367 146.656 301.169 147.148C301.971 147.64 302.891 147.906 303.832 147.917H311.683L310.229 145.219V145.219Z" fill="#2464F2"/>
<path d="M352.055 145.591C352.071 145.558 352.104 145.526 352.12 145.494C352.217 145.348 352.297 145.203 352.378 145.058L353.832 142.392L335.949 109.129C335.512 108.296 334.858 107.596 334.056 107.104C333.254 106.612 332.334 106.346 331.393 106.335H328.259L310.247 139.533C309.75 140.443 309.505 141.469 309.536 142.505C309.548 143.458 309.786 144.393 310.23 145.235L311.684 147.933H347.564C348.056 147.931 348.546 147.861 349.018 147.723C349.366 147.641 349.702 147.516 350.02 147.352H350.036C350.35 147.194 350.648 147.005 350.924 146.786C350.94 146.786 350.94 146.77 350.957 146.77C351.086 146.657 351.215 146.56 351.344 146.431L351.393 146.382C351.509 146.272 351.617 146.153 351.716 146.027L351.748 145.995C351.861 145.865 351.958 145.72 352.055 145.591Z" fill="#357EE1"/>
<path d="M451.858 318.672L456.786 330H453.97L452.994 327.6H448.594L447.65 330H444.898L449.794 318.672H451.858ZM449.378 325.488H452.146L450.754 321.968L449.378 325.488ZM463.213 318.672C466.029 318.672 467.437 319.819 467.437 322.112C467.437 324.427 466.067 325.584 463.325 325.584H461.421V330H458.925V318.672H463.213ZM463.133 323.472C463.635 323.472 464.045 323.365 464.365 323.152C464.685 322.928 464.845 322.581 464.845 322.112C464.845 321.227 464.152 320.784 462.765 320.784H461.421V323.472H463.133ZM474.292 318.672C477.108 318.672 478.516 319.819 478.516 322.112C478.516 324.427 477.145 325.584 474.404 325.584H472.5V330H470.004V318.672H474.292ZM474.212 323.472C474.713 323.472 475.124 323.365 475.444 323.152C475.764 322.928 475.924 322.581 475.924 322.112C475.924 321.227 475.23 320.784 473.844 320.784H472.5V323.472H474.212ZM483.674 318.672V327.696H488.298V330H481.178V318.672H483.674ZM496.179 318.384C497.993 318.384 499.465 318.928 500.595 320.016C501.726 321.104 502.291 322.544 502.291 324.336C502.291 326.117 501.721 327.557 500.579 328.656C499.438 329.744 497.971 330.288 496.179 330.288C494.366 330.288 492.894 329.739 491.763 328.64C490.633 327.541 490.067 326.107 490.067 324.336C490.067 322.565 490.627 321.131 491.747 320.032C492.878 318.933 494.355 318.384 496.179 318.384ZM492.659 324.336C492.659 325.435 492.985 326.32 493.635 326.992C494.297 327.653 495.145 327.984 496.179 327.984C497.235 327.984 498.083 327.643 498.723 326.96C499.374 326.277 499.699 325.403 499.699 324.336C499.699 323.248 499.369 322.368 498.707 321.696C498.057 321.024 497.209 320.688 496.163 320.688C495.118 320.688 494.27 321.029 493.619 321.712C492.979 322.395 492.659 323.269 492.659 324.336ZM506.716 318.672L509.516 326.096H509.548L512.396 318.672H515.068L510.396 330H508.396L503.868 318.672H506.716ZM519.718 318.672V330H517.222V318.672H519.718ZM526.38 318.672L531.196 326.544H531.228V318.672H533.724V330H530.46L525.516 321.936H525.484V330H522.988V318.672H526.38ZM550.561 318.672V320.976H545.361V323.088H550.273V325.392H545.361V327.696H550.849V330H542.865V318.672H550.561ZM559.351 318.384C560.098 318.384 560.813 318.528 561.495 318.816C562.189 319.093 562.749 319.504 563.175 320.048L561.255 321.616C560.733 320.997 560.018 320.688 559.111 320.688C558.173 320.688 557.389 321.035 556.759 321.728C556.141 322.411 555.831 323.28 555.831 324.336C555.831 325.349 556.13 326.213 556.727 326.928C557.325 327.632 558.093 327.984 559.031 327.984C560.034 327.984 560.813 327.579 561.367 326.768L563.447 328.32C563.042 328.917 562.477 329.397 561.751 329.76C561.037 330.112 560.237 330.288 559.351 330.288C557.549 330.288 556.077 329.739 554.935 328.64C553.805 327.541 553.239 326.107 553.239 324.336C553.239 322.587 553.805 321.157 554.935 320.048C556.066 318.939 557.538 318.384 559.351 318.384ZM571.304 318.384C573.118 318.384 574.59 318.928 575.72 320.016C576.851 321.104 577.416 322.544 577.416 324.336C577.416 326.117 576.846 327.557 575.704 328.656C574.563 329.744 573.096 330.288 571.304 330.288C569.491 330.288 568.019 329.739 566.888 328.64C565.758 327.541 565.192 326.107 565.192 324.336C565.192 322.565 565.752 321.131 566.872 320.032C568.003 318.933 569.48 318.384 571.304 318.384ZM567.784 324.336C567.784 325.435 568.11 326.32 568.76 326.992C569.422 327.653 570.27 327.984 571.304 327.984C572.36 327.984 573.208 327.643 573.848 326.96C574.499 326.277 574.824 325.403 574.824 324.336C574.824 323.248 574.494 322.368 573.832 321.696C573.182 321.024 572.334 320.688 571.288 320.688C570.243 320.688 569.395 321.029 568.744 321.712C568.104 322.395 567.784 323.269 567.784 324.336ZM583.953 318.384C585.361 318.384 586.518 318.779 587.425 319.568L585.713 321.44C585.51 321.184 585.233 320.997 584.881 320.88C584.54 320.752 584.214 320.688 583.905 320.688C583.436 320.688 583.036 320.795 582.705 321.008C582.385 321.221 582.225 321.504 582.225 321.856C582.225 322.165 582.348 322.427 582.593 322.64C582.849 322.843 583.244 323.019 583.777 323.168C585.004 323.531 585.814 323.845 586.209 324.112C586.614 324.379 586.918 324.715 587.121 325.12C587.334 325.515 587.441 325.995 587.441 326.56C587.441 327.701 587.041 328.608 586.241 329.28C585.452 329.952 584.396 330.288 583.073 330.288C581.548 330.288 580.278 329.813 579.265 328.864L581.041 326.912C581.596 327.627 582.321 327.984 583.217 327.984C583.697 327.984 584.102 327.877 584.433 327.664C584.774 327.451 584.945 327.163 584.945 326.8C584.945 326.203 584.433 325.744 583.409 325.424C582.108 325.029 581.26 324.699 580.865 324.432C580.47 324.155 580.166 323.829 579.953 323.456C579.74 323.083 579.633 322.619 579.633 322.064C579.633 320.976 580.033 320.091 580.833 319.408C581.644 318.725 582.684 318.384 583.953 318.384ZM591.932 318.672L594.332 322.912L596.876 318.672H599.836L595.58 325.168V330H593.084V325.168L588.828 318.672H591.932ZM605.515 318.384C606.923 318.384 608.081 318.779 608.987 319.568L607.275 321.44C607.073 321.184 606.795 320.997 606.443 320.88C606.102 320.752 605.777 320.688 605.467 320.688C604.998 320.688 604.598 320.795 604.267 321.008C603.947 321.221 603.787 321.504 603.787 321.856C603.787 322.165 603.91 322.427 604.155 322.64C604.411 322.843 604.806 323.019 605.339 323.168C606.566 323.531 607.377 323.845 607.771 324.112C608.177 324.379 608.481 324.715 608.683 325.12C608.897 325.515 609.003 325.995 609.003 326.56C609.003 327.701 608.603 328.608 607.803 329.28C607.014 329.952 605.958 330.288 604.635 330.288C603.11 330.288 601.841 329.813 600.827 328.864L602.603 326.912C603.158 327.627 603.883 327.984 604.779 327.984C605.259 327.984 605.665 327.877 605.995 327.664C606.337 327.451 606.507 327.163 606.507 326.8C606.507 326.203 605.995 325.744 604.971 325.424C603.67 325.029 602.822 324.699 602.427 324.432C602.033 324.155 601.729 323.829 601.515 323.456C601.302 323.083 601.195 322.619 601.195 322.064C601.195 320.976 601.595 320.091 602.395 319.408C603.206 318.725 604.246 318.384 605.515 318.384ZM619.783 318.672V320.88H616.551V330H614.055V320.88H610.823V318.672H619.783ZM629.842 318.672V320.976H624.642V323.088H629.554V325.392H624.642V327.696H630.13V330H622.146V318.672H629.842ZM636.905 318.672L639.513 326.064H639.545L642.169 318.672H645.929V330H643.433V321.312H643.401L640.425 330H638.521L635.657 321.312H635.625V330H633.129V318.672H636.905Z" fill="white"/>
<path d="M439.552 347.088V353.038C439.552 354.111 439.771 354.937 440.21 355.516C440.658 356.095 441.335 356.393 442.24 356.412C444.013 356.412 444.909 355.241 444.928 352.898V347.088H445.852V353.136C445.852 354.433 445.549 355.441 444.942 356.16C444.335 356.879 443.435 357.243 442.24 357.252C441.064 357.252 440.168 356.897 439.552 356.188C438.945 355.469 438.637 354.475 438.628 353.206V347.088H439.552ZM451.222 350.364C452.062 350.364 452.678 350.593 453.07 351.05C453.472 351.498 453.677 352.207 453.686 353.178V357H452.846V353.22C452.846 352.501 452.711 351.974 452.44 351.638C452.179 351.293 451.773 351.12 451.222 351.12C450.541 351.12 450 351.358 449.598 351.834C449.197 352.301 448.992 352.954 448.982 353.794V357H448.142V352.282C448.133 352.011 448.11 351.428 448.072 350.532H448.912C448.931 351.269 448.95 351.647 448.968 351.666H449.01C449.197 351.274 449.491 350.961 449.892 350.728C450.303 350.485 450.746 350.364 451.222 350.364ZM459.002 350.364C459.478 350.364 459.884 350.485 460.22 350.728C460.565 350.971 460.808 351.316 460.948 351.764C461.134 351.316 461.428 350.971 461.83 350.728C462.231 350.485 462.674 350.364 463.16 350.364C464.793 350.364 465.61 351.279 465.61 353.108V357H464.77V353.15C464.77 351.806 464.228 351.129 463.146 351.12C462.492 351.12 462.002 351.335 461.676 351.764C461.349 352.193 461.186 352.749 461.186 353.43V357H460.346V353.066C460.346 352.478 460.234 352.011 460.01 351.666C459.786 351.311 459.445 351.129 458.988 351.12C458.316 351.12 457.779 351.358 457.378 351.834C456.976 352.301 456.771 352.954 456.762 353.794V357H455.922V352.282C455.912 351.965 455.889 351.381 455.852 350.532H456.692C456.71 351.223 456.729 351.601 456.748 351.666H456.79C456.976 351.265 457.275 350.947 457.686 350.714C458.096 350.481 458.535 350.364 459.002 350.364ZM468.39 355.208C468.39 355.563 468.53 355.852 468.81 356.076C469.099 356.3 469.454 356.412 469.874 356.412C470.63 356.412 471.19 356.216 471.554 355.824C471.927 355.423 472.114 354.881 472.114 354.2V353.752H471.106C470.247 353.752 469.58 353.883 469.104 354.144C468.628 354.405 468.39 354.76 468.39 355.208ZM470.294 350.364C471.162 350.364 471.806 350.565 472.226 350.966C472.646 351.367 472.86 351.927 472.87 352.646V354.564C472.87 355.609 472.912 356.421 472.996 357H472.212C472.156 356.711 472.128 356.361 472.128 355.95H472.1C471.633 356.762 470.882 357.168 469.846 357.168C469.146 357.168 468.59 356.995 468.18 356.65C467.769 356.305 467.559 355.838 467.55 355.25C467.55 354.531 467.858 353.99 468.474 353.626C469.099 353.262 469.967 353.08 471.078 353.08H472.114V352.702C472.114 352.17 471.95 351.773 471.624 351.512C471.297 351.251 470.854 351.12 470.294 351.12C469.547 351.12 468.889 351.363 468.32 351.848L467.83 351.274C468.138 350.975 468.516 350.751 468.964 350.602C469.421 350.443 469.864 350.364 470.294 350.364ZM475.579 348.67H476.419V350.532H478.267V351.288H476.419V355.516C476.419 355.787 476.499 356.006 476.657 356.174C476.816 356.333 477.035 356.412 477.315 356.412C477.623 356.412 477.941 356.337 478.267 356.188L478.337 356.944C477.917 357.093 477.549 357.168 477.231 357.168C476.681 357.168 476.265 357.014 475.985 356.706C475.715 356.398 475.579 356.001 475.579 355.516V351.288H474.179V350.532H475.579V348.67ZM482.804 350.364C483.737 350.364 484.54 350.737 485.212 351.484L484.54 351.988C483.998 351.409 483.415 351.12 482.79 351.12C482.062 351.12 481.455 351.367 480.97 351.862C480.494 352.357 480.251 352.991 480.242 353.766C480.242 354.541 480.484 355.175 480.97 355.67C481.455 356.155 482.062 356.403 482.79 356.412C483.48 356.412 484.064 356.113 484.54 355.516L485.184 356.048C484.558 356.785 483.765 357.159 482.804 357.168C481.824 357.168 481.016 356.851 480.382 356.216C479.747 355.581 479.42 354.765 479.402 353.766C479.402 352.805 479.714 352.002 480.34 351.358C480.974 350.714 481.796 350.383 482.804 350.364ZM486.506 346.416H487.346V351.666H487.374C487.56 351.265 487.854 350.947 488.256 350.714C488.666 350.481 489.11 350.364 489.586 350.364C491.228 350.364 492.05 351.274 492.05 353.094V357H491.21V353.178C491.21 351.806 490.668 351.12 489.586 351.12C488.886 351.12 488.335 351.363 487.934 351.848C487.542 352.324 487.346 352.954 487.346 353.738V357H486.506V346.416ZM499.353 353.22C499.353 352.632 499.134 352.137 498.695 351.736C498.256 351.325 497.724 351.12 497.099 351.12C496.492 351.12 495.97 351.325 495.531 351.736C495.092 352.137 494.836 352.632 494.761 353.22H499.353ZM497.155 350.364C498.051 350.364 498.779 350.653 499.339 351.232C499.899 351.811 500.184 352.557 500.193 353.472V353.976H494.761C494.798 354.704 495.036 355.292 495.475 355.74C495.923 356.179 496.502 356.403 497.211 356.412C497.65 356.412 498.065 356.309 498.457 356.104C498.858 355.889 499.166 355.609 499.381 355.264L499.997 355.782C499.39 356.706 498.457 357.168 497.197 357.168C496.208 357.159 495.414 356.837 494.817 356.202C494.229 355.567 493.93 354.751 493.921 353.752C493.921 352.781 494.224 351.979 494.831 351.344C495.447 350.7 496.222 350.373 497.155 350.364ZM502.54 353.766C502.54 354.541 502.783 355.175 503.268 355.67C503.754 356.165 504.365 356.412 505.102 356.412C505.83 356.412 506.456 356.165 506.978 355.67C507.51 355.166 507.786 354.531 507.804 353.766C507.804 353.038 507.543 352.417 507.02 351.904C506.507 351.391 505.863 351.129 505.088 351.12C504.36 351.12 503.754 351.367 503.268 351.862C502.792 352.357 502.55 352.991 502.54 353.766ZM507.72 346.416H508.56V357H507.72V355.866H507.692C507.459 356.277 507.1 356.599 506.614 356.832C506.138 357.056 505.634 357.168 505.102 357.168C504.141 357.168 503.338 356.855 502.694 356.23C502.05 355.595 501.719 354.774 501.7 353.766C501.7 352.805 502.013 352.002 502.638 351.358C503.273 350.714 504.094 350.383 505.102 350.364C505.653 350.364 506.162 350.481 506.628 350.714C507.095 350.938 507.45 351.255 507.692 351.666H507.72V346.416ZM516.024 350.364C517.116 350.364 517.872 350.77 518.292 351.582L517.536 352.03C517.218 351.423 516.714 351.12 516.024 351.12C515.65 351.12 515.324 351.223 515.044 351.428C514.773 351.624 514.638 351.867 514.638 352.156C514.638 352.445 514.754 352.679 514.988 352.856C515.221 353.024 515.627 353.159 516.206 353.262C517.064 353.411 517.657 353.635 517.984 353.934C518.31 354.223 518.474 354.634 518.474 355.166C518.474 355.773 518.254 356.258 517.816 356.622C517.386 356.986 516.822 357.168 516.122 357.168C514.89 357.159 514.026 356.72 513.532 355.852L514.274 355.348C514.432 355.675 514.689 355.936 515.044 356.132C515.408 356.319 515.776 356.412 516.15 356.412C516.579 356.412 516.934 356.295 517.214 356.062C517.494 355.819 517.634 355.539 517.634 355.222C517.634 354.933 517.517 354.695 517.284 354.508C517.06 354.321 516.565 354.153 515.8 354.004C515.137 353.873 514.638 353.673 514.302 353.402C513.966 353.131 513.798 352.739 513.798 352.226C513.798 351.675 514.008 351.227 514.428 350.882C514.848 350.537 515.38 350.364 516.024 350.364ZM523.259 350.364C524.192 350.364 524.995 350.737 525.667 351.484L524.995 351.988C524.453 351.409 523.87 351.12 523.245 351.12C522.517 351.12 521.91 351.367 521.425 351.862C520.949 352.357 520.706 352.991 520.697 353.766C520.697 354.541 520.939 355.175 521.425 355.67C521.91 356.155 522.517 356.403 523.245 356.412C523.935 356.412 524.519 356.113 524.995 355.516L525.639 356.048C525.013 356.785 524.22 357.159 523.259 357.168C522.279 357.168 521.471 356.851 520.837 356.216C520.202 355.581 519.875 354.765 519.857 353.766C519.857 352.805 520.169 352.002 520.795 351.358C521.429 350.714 522.251 350.383 523.259 350.364ZM527.507 355.208C527.507 355.563 527.647 355.852 527.927 356.076C528.216 356.3 528.571 356.412 528.991 356.412C529.747 356.412 530.307 356.216 530.671 355.824C531.044 355.423 531.231 354.881 531.231 354.2V353.752H530.223C529.364 353.752 528.697 353.883 528.221 354.144C527.745 354.405 527.507 354.76 527.507 355.208ZM529.411 350.364C530.279 350.364 530.923 350.565 531.343 350.966C531.763 351.367 531.977 351.927 531.987 352.646V354.564C531.987 355.609 532.029 356.421 532.113 357H531.329C531.273 356.711 531.245 356.361 531.245 355.95H531.217C530.75 356.762 529.999 357.168 528.963 357.168C528.263 357.168 527.707 356.995 527.297 356.65C526.886 356.305 526.676 355.838 526.667 355.25C526.667 354.531 526.975 353.99 527.591 353.626C528.216 353.262 529.084 353.08 530.195 353.08H531.231V352.702C531.231 352.17 531.067 351.773 530.741 351.512C530.414 351.251 529.971 351.12 529.411 351.12C528.664 351.12 528.006 351.363 527.437 351.848L526.947 351.274C527.255 350.975 527.633 350.751 528.081 350.602C528.538 350.443 528.981 350.364 529.411 350.364ZM534.361 346.416H535.201V357H534.361V346.416ZM542.652 353.22C542.652 352.632 542.433 352.137 541.994 351.736C541.555 351.325 541.023 351.12 540.398 351.12C539.791 351.12 539.269 351.325 538.83 351.736C538.391 352.137 538.135 352.632 538.06 353.22H542.652ZM540.454 350.364C541.35 350.364 542.078 350.653 542.638 351.232C543.198 351.811 543.483 352.557 543.492 353.472V353.976H538.06C538.097 354.704 538.335 355.292 538.774 355.74C539.222 356.179 539.801 356.403 540.51 356.412C540.949 356.412 541.364 356.309 541.756 356.104C542.157 355.889 542.465 355.609 542.68 355.264L543.296 355.782C542.689 356.706 541.756 357.168 540.496 357.168C539.507 357.159 538.713 356.837 538.116 356.202C537.528 355.567 537.229 354.751 537.22 353.752C537.22 352.781 537.523 351.979 538.13 351.344C538.746 350.7 539.521 350.373 540.454 350.364ZM549.476 353.766C549.476 354.541 549.719 355.175 550.204 355.67C550.689 356.165 551.301 356.412 552.038 356.412C552.803 356.412 553.419 356.16 553.886 355.656C554.362 355.152 554.6 354.522 554.6 353.766C554.6 353.019 554.367 352.394 553.9 351.89C553.433 351.386 552.808 351.129 552.024 351.12C551.268 351.12 550.657 351.372 550.19 351.876C549.723 352.38 549.485 353.01 549.476 353.766ZM552.038 350.364C553.027 350.364 553.839 350.686 554.474 351.33C555.109 351.974 555.431 352.786 555.44 353.766C555.44 354.765 555.113 355.581 554.46 356.216C553.816 356.841 553.009 357.159 552.038 357.168C551.021 357.159 550.199 356.832 549.574 356.188C548.958 355.544 548.645 354.737 548.636 353.766C548.636 352.767 548.953 351.955 549.588 351.33C550.232 350.695 551.049 350.373 552.038 350.364ZM559.72 346.248C560.112 346.248 560.434 346.304 560.686 346.416L560.518 347.144C560.332 347.051 560.08 347.004 559.762 347.004C559.006 347.004 558.628 347.559 558.628 348.67V350.532H560.14V351.288H558.628V357H557.788V351.288H556.444V350.532H557.788V348.362C557.788 347.727 557.966 347.219 558.32 346.836C558.675 346.453 559.142 346.257 559.72 346.248ZM567.752 347.088H568.466V357H567.626V348.25L565.82 349.734L565.302 349.09L567.752 347.088ZM572.323 353.808H575.851V348.012H575.823L572.323 353.808ZM576.691 347.088V353.808H578.203V354.564H576.691V357H575.851V354.564H571.567V353.57L575.529 347.088H576.691ZM579.807 352.044C579.807 353.463 580.003 354.545 580.395 355.292C580.796 356.029 581.384 356.403 582.159 356.412C583.699 356.403 584.483 354.947 584.511 352.044C584.511 350.635 584.315 349.557 583.923 348.81C583.531 348.063 582.938 347.685 582.145 347.676C581.389 347.676 580.81 348.049 580.409 348.796C580.017 349.543 579.816 350.625 579.807 352.044ZM582.159 346.92C583.232 346.92 584.044 347.354 584.595 348.222C585.145 349.09 585.425 350.364 585.435 352.044C585.435 353.724 585.155 354.998 584.595 355.866C584.044 356.725 583.232 357.159 582.159 357.168C581.076 357.168 580.264 356.729 579.723 355.852C579.181 354.975 578.901 353.705 578.883 352.044C578.883 350.373 579.158 349.104 579.709 348.236C580.259 347.368 581.076 346.929 582.159 346.92ZM588.396 355.74L587.318 358.932H586.492L587.416 355.74H588.396ZM590.717 352.044C590.717 353.463 590.913 354.545 591.305 355.292C591.706 356.029 592.294 356.403 593.069 356.412C594.609 356.403 595.393 354.947 595.421 352.044C595.421 350.635 595.225 349.557 594.833 348.81C594.441 348.063 593.848 347.685 593.055 347.676C592.299 347.676 591.72 348.049 591.319 348.796C590.927 349.543 590.726 350.625 590.717 352.044ZM593.069 346.92C594.142 346.92 594.954 347.354 595.505 348.222C596.055 349.09 596.335 350.364 596.345 352.044C596.345 353.724 596.065 354.998 595.505 355.866C594.954 356.725 594.142 357.159 593.069 357.168C591.986 357.168 591.174 356.729 590.633 355.852C590.091 354.975 589.811 353.705 589.793 352.044C589.793 350.373 590.068 349.104 590.619 348.236C591.169 347.368 591.986 346.929 593.069 346.92ZM597.99 352.044C597.99 353.463 598.186 354.545 598.578 355.292C598.979 356.029 599.567 356.403 600.342 356.412C601.882 356.403 602.666 354.947 602.694 352.044C602.694 350.635 602.498 349.557 602.106 348.81C601.714 348.063 601.121 347.685 600.328 347.676C599.572 347.676 598.993 348.049 598.592 348.796C598.2 349.543 597.999 350.625 597.99 352.044ZM600.342 346.92C601.415 346.92 602.227 347.354 602.778 348.222C603.329 349.09 603.609 350.364 603.618 352.044C603.618 353.724 603.338 354.998 602.778 355.866C602.227 356.725 601.415 357.159 600.342 357.168C599.259 357.168 598.447 356.729 597.906 355.852C597.365 354.975 597.085 353.705 597.066 352.044C597.066 350.373 597.341 349.104 597.892 348.236C598.443 347.368 599.259 346.929 600.342 346.92ZM605.264 352.044C605.264 353.463 605.46 354.545 605.852 355.292C606.253 356.029 606.841 356.403 607.616 356.412C609.156 356.403 609.94 354.947 609.968 352.044C609.968 350.635 609.772 349.557 609.38 348.81C608.988 348.063 608.395 347.685 607.602 347.676C606.846 347.676 606.267 348.049 605.866 348.796C605.474 349.543 605.273 350.625 605.264 352.044ZM607.616 346.92C608.689 346.92 609.501 347.354 610.052 348.222C610.602 349.09 610.882 350.364 610.892 352.044C610.892 353.724 610.612 354.998 610.052 355.866C609.501 356.725 608.689 357.159 607.616 357.168C606.533 357.168 605.721 356.729 605.18 355.852C604.638 354.975 604.358 353.705 604.34 352.044C604.34 350.373 604.615 349.104 605.166 348.236C605.716 347.368 606.533 346.929 607.616 346.92ZM615.575 349.188H616.247V352.422H619.481V353.094H616.247V356.328H615.575V353.094H612.341V352.422H615.575V349.188ZM625.876 355.208C625.876 355.563 626.016 355.852 626.296 356.076C626.585 356.3 626.94 356.412 627.36 356.412C628.116 356.412 628.676 356.216 629.04 355.824C629.413 355.423 629.6 354.881 629.6 354.2V353.752H628.592C627.733 353.752 627.066 353.883 626.59 354.144C626.114 354.405 625.876 354.76 625.876 355.208ZM627.78 350.364C628.648 350.364 629.292 350.565 629.712 350.966C630.132 351.367 630.347 351.927 630.356 352.646V354.564C630.356 355.609 630.398 356.421 630.482 357H629.698C629.642 356.711 629.614 356.361 629.614 355.95H629.586C629.119 356.762 628.368 357.168 627.332 357.168C626.632 357.168 626.077 356.995 625.666 356.65C625.255 356.305 625.045 355.838 625.036 355.25C625.036 354.531 625.344 353.99 625.96 353.626C626.585 353.262 627.453 353.08 628.564 353.08H629.6V352.702C629.6 352.17 629.437 351.773 629.11 351.512C628.783 351.251 628.34 351.12 627.78 351.12C627.033 351.12 626.375 351.363 625.806 351.848L625.316 351.274C625.624 350.975 626.002 350.751 626.45 350.602C626.907 350.443 627.351 350.364 627.78 350.364ZM633.164 353.766C633.164 354.503 633.425 355.124 633.948 355.628C634.47 356.132 635.11 356.393 635.866 356.412C636.622 356.412 637.233 356.165 637.7 355.67C638.176 355.166 638.418 354.531 638.428 353.766C638.428 353.019 638.194 352.394 637.728 351.89C637.261 351.386 636.636 351.129 635.852 351.12C635.096 351.12 634.461 351.377 633.948 351.89C633.434 352.403 633.173 353.029 633.164 353.766ZM635.866 350.364C636.855 350.364 637.667 350.686 638.302 351.33C638.936 351.965 639.258 352.777 639.268 353.766C639.268 354.755 638.95 355.567 638.316 356.202C637.681 356.837 636.864 357.159 635.866 357.168C635.315 357.168 634.802 357.051 634.326 356.818C633.859 356.585 633.509 356.267 633.276 355.866H633.248V360.192H632.408V350.532H633.248V351.666H633.276C633.5 351.274 633.85 350.961 634.326 350.728C634.802 350.485 635.315 350.364 635.866 350.364ZM641.722 353.766C641.722 354.503 641.984 355.124 642.506 355.628C643.029 356.132 643.668 356.393 644.424 356.412C645.18 356.412 645.792 356.165 646.258 355.67C646.734 355.166 646.977 354.531 646.986 353.766C646.986 353.019 646.753 352.394 646.286 351.89C645.82 351.386 645.194 351.129 644.41 351.12C643.654 351.12 643.02 351.377 642.506 351.89C641.993 352.403 641.732 353.029 641.722 353.766ZM644.424 350.364C645.414 350.364 646.226 350.686 646.86 351.33C647.495 351.965 647.817 352.777 647.826 353.766C647.826 354.755 647.509 355.567 646.874 356.202C646.24 356.837 645.423 357.159 644.424 357.168C643.874 357.168 643.36 357.051 642.884 356.818C642.418 356.585 642.068 356.267 641.834 355.866H641.806V360.192H640.966V350.532H641.806V351.666H641.834C642.058 351.274 642.408 350.961 642.884 350.728C643.36 350.485 643.874 350.364 644.424 350.364ZM651.471 350.364C652.563 350.364 653.319 350.77 653.739 351.582L652.983 352.03C652.666 351.423 652.162 351.12 651.471 351.12C651.098 351.12 650.771 351.223 650.491 351.428C650.22 351.624 650.085 351.867 650.085 352.156C650.085 352.445 650.202 352.679 650.435 352.856C650.668 353.024 651.074 353.159 651.653 353.262C652.512 353.411 653.104 353.635 653.431 353.934C653.758 354.223 653.921 354.634 653.921 355.166C653.921 355.773 653.702 356.258 653.263 356.622C652.834 356.986 652.269 357.168 651.569 357.168C650.337 357.159 649.474 356.72 648.979 355.852L649.721 355.348C649.88 355.675 650.136 355.936 650.491 356.132C650.855 356.319 651.224 356.412 651.597 356.412C652.026 356.412 652.381 356.295 652.661 356.062C652.941 355.819 653.081 355.539 653.081 355.222C653.081 354.933 652.964 354.695 652.731 354.508C652.507 354.321 652.012 354.153 651.247 354.004C650.584 353.873 650.085 353.673 649.749 353.402C649.413 353.131 649.245 352.739 649.245 352.226C649.245 351.675 649.455 351.227 649.875 350.882C650.295 350.537 650.827 350.364 651.471 350.364ZM471.075 374.766C471.075 375.541 471.317 376.175 471.803 376.67C472.288 377.165 472.899 377.412 473.637 377.412C474.402 377.412 475.018 377.16 475.485 376.656C475.961 376.152 476.199 375.522 476.199 374.766C476.199 374.019 475.965 373.394 475.499 372.89C475.032 372.386 474.407 372.129 473.623 372.12C472.867 372.12 472.255 372.372 471.789 372.876C471.322 373.38 471.084 374.01 471.075 374.766ZM473.637 371.364C474.626 371.364 475.438 371.686 476.073 372.33C476.707 372.974 477.029 373.786 477.039 374.766C477.039 375.765 476.712 376.581 476.059 377.216C475.415 377.841 474.607 378.159 473.637 378.168C472.619 378.159 471.798 377.832 471.173 377.188C470.557 376.544 470.244 375.737 470.235 374.766C470.235 373.767 470.552 372.955 471.187 372.33C471.831 371.695 472.647 371.373 473.637 371.364ZM481.991 371.364C482.831 371.364 483.447 371.593 483.839 372.05C484.24 372.498 484.446 373.207 484.455 374.178V378H483.615V374.22C483.615 373.501 483.48 372.974 483.209 372.638C482.948 372.293 482.542 372.12 481.991 372.12C481.31 372.12 480.768 372.358 480.367 372.834C479.966 373.301 479.76 373.954 479.751 374.794V378H478.911V373.282C478.902 373.011 478.878 372.428 478.841 371.532H479.681C479.7 372.269 479.718 372.647 479.737 372.666H479.779C479.966 372.274 480.26 371.961 480.661 371.728C481.072 371.485 481.515 371.364 481.991 371.364ZM490.803 374.766C490.803 375.541 491.046 376.175 491.531 376.67C492.016 377.165 492.628 377.412 493.365 377.412C494.13 377.412 494.746 377.16 495.213 376.656C495.689 376.152 495.927 375.522 495.927 374.766C495.927 374.019 495.694 373.394 495.227 372.89C494.76 372.386 494.135 372.129 493.351 372.12C492.595 372.12 491.984 372.372 491.517 372.876C491.05 373.38 490.812 374.01 490.803 374.766ZM493.365 371.364C494.354 371.364 495.166 371.686 495.801 372.33C496.436 372.974 496.758 373.786 496.767 374.766C496.767 375.765 496.44 376.581 495.787 377.216C495.143 377.841 494.336 378.159 493.365 378.168C492.348 378.159 491.526 377.832 490.901 377.188C490.285 376.544 489.972 375.737 489.963 374.766C489.963 373.767 490.28 372.955 490.915 372.33C491.559 371.695 492.376 371.373 493.365 371.364ZM501.034 378.168C500.212 378.168 499.596 377.939 499.186 377.482C498.775 377.015 498.57 376.306 498.57 375.354V371.532H499.41V375.312C499.41 376.012 499.54 376.539 499.802 376.894C500.072 377.239 500.483 377.412 501.034 377.412C501.715 377.412 502.256 377.179 502.658 376.712C503.059 376.245 503.264 375.587 503.274 374.738V371.532H504.114V376.25C504.132 376.726 504.156 377.309 504.184 378H503.344C503.334 377.468 503.316 377.09 503.288 376.866H503.246C503.059 377.267 502.76 377.585 502.35 377.818C501.948 378.051 501.51 378.168 501.034 378.168ZM509.303 371.364C509.461 371.364 509.625 371.387 509.793 371.434L509.695 372.26C509.592 372.223 509.48 372.204 509.359 372.204C508.677 372.204 508.155 372.414 507.791 372.834C507.436 373.254 507.259 373.8 507.259 374.472V378H506.419V373.282C506.419 373.189 506.395 372.605 506.349 371.532H507.189C507.207 372.176 507.226 372.554 507.245 372.666C507.73 371.798 508.416 371.364 509.303 371.364ZM516.482 371.364C517.574 371.364 518.33 371.77 518.75 372.582L517.994 373.03C517.676 372.423 517.172 372.12 516.482 372.12C516.108 372.12 515.782 372.223 515.502 372.428C515.231 372.624 515.096 372.867 515.096 373.156C515.096 373.445 515.212 373.679 515.446 373.856C515.679 374.024 516.085 374.159 516.664 374.262C517.522 374.411 518.115 374.635 518.442 374.934C518.768 375.223 518.932 375.634 518.932 376.166C518.932 376.773 518.712 377.258 518.274 377.622C517.844 377.986 517.28 378.168 516.58 378.168C515.348 378.159 514.484 377.72 513.99 376.852L514.732 376.348C514.89 376.675 515.147 376.936 515.502 377.132C515.866 377.319 516.234 377.412 516.608 377.412C517.037 377.412 517.392 377.295 517.672 377.062C517.952 376.819 518.092 376.539 518.092 376.222C518.092 375.933 517.975 375.695 517.742 375.508C517.518 375.321 517.023 375.153 516.258 375.004C515.595 374.873 515.096 374.673 514.76 374.402C514.424 374.131 514.256 373.739 514.256 373.226C514.256 372.675 514.466 372.227 514.886 371.882C515.306 371.537 515.838 371.364 516.482 371.364ZM521.155 374.766C521.155 375.541 521.397 376.175 521.883 376.67C522.368 377.165 522.979 377.412 523.717 377.412C524.482 377.412 525.098 377.16 525.565 376.656C526.041 376.152 526.279 375.522 526.279 374.766C526.279 374.019 526.045 373.394 525.579 372.89C525.112 372.386 524.487 372.129 523.703 372.12C522.947 372.12 522.335 372.372 521.869 372.876C521.402 373.38 521.164 374.01 521.155 374.766ZM523.717 371.364C524.706 371.364 525.518 371.686 526.153 372.33C526.787 372.974 527.109 373.786 527.119 374.766C527.119 375.765 526.792 376.581 526.139 377.216C525.495 377.841 524.687 378.159 523.717 378.168C522.699 378.159 521.878 377.832 521.253 377.188C520.637 376.544 520.324 375.737 520.315 374.766C520.315 373.767 520.632 372.955 521.267 372.33C521.911 371.695 522.727 371.373 523.717 371.364ZM531.399 367.248C531.791 367.248 532.113 367.304 532.365 367.416L532.197 368.144C532.01 368.051 531.758 368.004 531.441 368.004C530.685 368.004 530.307 368.559 530.307 369.67V371.532H531.819V372.288H530.307V378H529.467V372.288H528.123V371.532H529.467V369.362C529.467 368.727 529.644 368.219 529.999 367.836C530.354 367.453 530.82 367.257 531.399 367.248ZM533.61 369.67H534.45V371.532H536.298V372.288H534.45V376.516C534.45 376.787 534.529 377.006 534.688 377.174C534.846 377.333 535.066 377.412 535.346 377.412C535.654 377.412 535.971 377.337 536.298 377.188L536.368 377.944C535.948 378.093 535.579 378.168 535.262 378.168C534.711 378.168 534.296 378.014 534.016 377.706C533.745 377.398 533.61 377.001 533.61 376.516V372.288H532.21V371.532H533.61V369.67ZM537.81 371.532L539.378 376.95H539.406L541.212 371.532H542.01L543.928 376.95H543.956L545.482 371.532H546.322L544.418 378H543.55L541.618 372.708H541.59L539.784 378H538.916L536.886 371.532H537.81ZM548.199 376.208C548.199 376.563 548.339 376.852 548.619 377.076C548.909 377.3 549.263 377.412 549.683 377.412C550.439 377.412 550.999 377.216 551.363 376.824C551.737 376.423 551.923 375.881 551.923 375.2V374.752H550.915C550.057 374.752 549.389 374.883 548.913 375.144C548.437 375.405 548.199 375.76 548.199 376.208ZM550.103 371.364C550.971 371.364 551.615 371.565 552.035 371.966C552.455 372.367 552.67 372.927 552.679 373.646V375.564C552.679 376.609 552.721 377.421 552.805 378H552.021C551.965 377.711 551.937 377.361 551.937 376.95H551.909C551.443 377.762 550.691 378.168 549.655 378.168C548.955 378.168 548.4 377.995 547.989 377.65C547.579 377.305 547.369 376.838 547.359 376.25C547.359 375.531 547.667 374.99 548.283 374.626C548.909 374.262 549.777 374.08 550.887 374.08H551.923V373.702C551.923 373.17 551.76 372.773 551.433 372.512C551.107 372.251 550.663 372.12 550.103 372.12C549.357 372.12 548.699 372.363 548.129 372.848L547.639 372.274C547.947 371.975 548.325 371.751 548.773 371.602C549.231 371.443 549.674 371.364 550.103 371.364ZM557.797 371.364C557.956 371.364 558.119 371.387 558.287 371.434L558.189 372.26C558.086 372.223 557.974 372.204 557.853 372.204C557.172 372.204 556.649 372.414 556.285 372.834C555.93 373.254 555.753 373.8 555.753 374.472V378H554.913V373.282C554.913 373.189 554.89 372.605 554.843 371.532H555.683C555.702 372.176 555.72 372.554 555.739 372.666C556.224 371.798 556.91 371.364 557.797 371.364ZM564.397 374.22C564.397 373.632 564.178 373.137 563.739 372.736C563.3 372.325 562.768 372.12 562.143 372.12C561.536 372.12 561.014 372.325 560.575 372.736C560.136 373.137 559.88 373.632 559.805 374.22H564.397ZM562.199 371.364C563.095 371.364 563.823 371.653 564.383 372.232C564.943 372.811 565.228 373.557 565.237 374.472V374.976H559.805C559.842 375.704 560.08 376.292 560.519 376.74C560.967 377.179 561.546 377.403 562.255 377.412C562.694 377.412 563.109 377.309 563.501 377.104C563.902 376.889 564.21 376.609 564.425 376.264L565.041 376.782C564.434 377.706 563.501 378.168 562.241 378.168C561.252 378.159 560.458 377.837 559.861 377.202C559.273 376.567 558.974 375.751 558.965 374.752C558.965 373.781 559.268 372.979 559.875 372.344C560.491 371.7 561.266 371.373 562.199 371.364ZM571.319 374.766C571.319 375.503 571.58 376.124 572.103 376.628C572.626 377.132 573.265 377.393 574.021 377.412C574.777 377.412 575.388 377.165 575.855 376.67C576.331 376.166 576.574 375.531 576.583 374.766C576.583 374.019 576.35 373.394 575.883 372.89C575.416 372.386 574.791 372.129 574.007 372.12C573.251 372.12 572.616 372.377 572.103 372.89C571.59 373.403 571.328 374.029 571.319 374.766ZM574.021 371.364C575.01 371.364 575.822 371.686 576.457 372.33C577.092 372.965 577.414 373.777 577.423 374.766C577.423 375.755 577.106 376.567 576.471 377.202C575.836 377.837 575.02 378.159 574.021 378.168C573.47 378.168 572.957 378.051 572.481 377.818C572.014 377.585 571.664 377.267 571.431 376.866H571.403V381.192H570.563V371.532H571.403V372.666H571.431C571.655 372.274 572.005 371.961 572.481 371.728C572.957 371.485 573.47 371.364 574.021 371.364ZM579.444 367.416H580.284V378H579.444V367.416ZM583.213 376.208C583.213 376.563 583.353 376.852 583.633 377.076C583.922 377.3 584.277 377.412 584.697 377.412C585.453 377.412 586.013 377.216 586.377 376.824C586.75 376.423 586.937 375.881 586.937 375.2V374.752H585.929C585.07 374.752 584.403 374.883 583.927 375.144C583.451 375.405 583.213 375.76 583.213 376.208ZM585.117 371.364C585.985 371.364 586.629 371.565 587.049 371.966C587.469 372.367 587.684 372.927 587.693 373.646V375.564C587.693 376.609 587.735 377.421 587.819 378H587.035C586.979 377.711 586.951 377.361 586.951 376.95H586.923C586.456 377.762 585.705 378.168 584.669 378.168C583.969 378.168 583.414 377.995 583.003 377.65C582.592 377.305 582.382 376.838 582.373 376.25C582.373 375.531 582.681 374.99 583.297 374.626C583.922 374.262 584.79 374.08 585.901 374.08H586.937V373.702C586.937 373.17 586.774 372.773 586.447 372.512C586.12 372.251 585.677 372.12 585.117 372.12C584.37 372.12 583.712 372.363 583.143 372.848L582.653 372.274C582.961 371.975 583.339 371.751 583.787 371.602C584.244 371.443 584.688 371.364 585.117 371.364ZM590.403 369.67H591.243V371.532H593.091V372.288H591.243V376.516C591.243 376.787 591.322 377.006 591.481 377.174C591.639 377.333 591.859 377.412 592.139 377.412C592.447 377.412 592.764 377.337 593.091 377.188L593.161 377.944C592.741 378.093 592.372 378.168 592.055 378.168C591.504 378.168 591.089 378.014 590.809 377.706C590.538 377.398 590.403 377.001 590.403 376.516V372.288H589.003V371.532H590.403V369.67ZM597.01 367.248C597.402 367.248 597.724 367.304 597.976 367.416L597.808 368.144C597.622 368.051 597.37 368.004 597.052 368.004C596.296 368.004 595.918 368.559 595.918 369.67V371.532H597.43V372.288H595.918V378H595.078V372.288H593.734V371.532H595.078V369.362C595.078 368.727 595.256 368.219 595.61 367.836C595.965 367.453 596.432 367.257 597.01 367.248ZM599.221 374.766C599.221 375.541 599.464 376.175 599.949 376.67C600.434 377.165 601.046 377.412 601.783 377.412C602.548 377.412 603.164 377.16 603.631 376.656C604.107 376.152 604.345 375.522 604.345 374.766C604.345 374.019 604.112 373.394 603.645 372.89C603.178 372.386 602.553 372.129 601.769 372.12C601.013 372.12 600.402 372.372 599.935 372.876C599.468 373.38 599.23 374.01 599.221 374.766ZM601.783 371.364C602.772 371.364 603.584 371.686 604.219 372.33C604.854 372.974 605.176 373.786 605.185 374.766C605.185 375.765 604.858 376.581 604.205 377.216C603.561 377.841 602.754 378.159 601.783 378.168C600.766 378.159 599.944 377.832 599.319 377.188C598.703 376.544 598.39 375.737 598.381 374.766C598.381 373.767 598.698 372.955 599.333 372.33C599.977 371.695 600.794 371.373 601.783 371.364ZM609.942 371.364C610.1 371.364 610.264 371.387 610.432 371.434L610.334 372.26C610.231 372.223 610.119 372.204 609.998 372.204C609.316 372.204 608.794 372.414 608.43 372.834C608.075 373.254 607.898 373.8 607.898 374.472V378H607.058V373.282C607.058 373.189 607.034 372.605 606.988 371.532H607.828C607.846 372.176 607.865 372.554 607.884 372.666C608.369 371.798 609.055 371.364 609.942 371.364ZM614.8 371.364C615.276 371.364 615.682 371.485 616.018 371.728C616.363 371.971 616.606 372.316 616.746 372.764C616.932 372.316 617.226 371.971 617.628 371.728C618.029 371.485 618.472 371.364 618.958 371.364C620.591 371.364 621.408 372.279 621.408 374.108V378H620.568V374.15C620.568 372.806 620.026 372.129 618.944 372.12C618.29 372.12 617.8 372.335 617.474 372.764C617.147 373.193 616.984 373.749 616.984 374.43V378H616.144V374.066C616.144 373.478 616.032 373.011 615.808 372.666C615.584 372.311 615.243 372.129 614.786 372.12C614.114 372.12 613.577 372.358 613.176 372.834C612.774 373.301 612.569 373.954 612.56 374.794V378H611.72V373.282C611.71 372.965 611.687 372.381 611.65 371.532H612.49C612.508 372.223 612.527 372.601 612.546 372.666H612.588C612.774 372.265 613.073 371.947 613.484 371.714C613.894 371.481 614.333 371.364 614.8 371.364Z" fill="white"/>
<path d="M563.165 277.313C562.143 277.313 561.144 277.616 560.294 278.184C559.443 278.752 558.781 279.559 558.39 280.504C557.998 281.448 557.896 282.488 558.095 283.49C558.295 284.493 558.787 285.414 559.51 286.137C560.233 286.86 561.154 287.352 562.157 287.552C563.159 287.751 564.199 287.649 565.143 287.258C566.088 286.866 566.895 286.204 567.463 285.354C568.031 284.504 568.334 283.505 568.334 282.482C568.333 281.112 567.788 279.798 566.819 278.829C565.85 277.86 564.536 277.315 563.165 277.313ZM563.165 285.539C562.561 285.539 561.97 285.36 561.467 285.024C560.964 284.688 560.573 284.211 560.341 283.652C560.11 283.094 560.049 282.479 560.167 281.886C560.285 281.293 560.576 280.748 561.004 280.321C561.431 279.893 561.976 279.602 562.569 279.484C563.162 279.366 563.776 279.427 564.335 279.658C564.893 279.89 565.371 280.281 565.707 280.784C566.042 281.287 566.222 281.878 566.222 282.482C566.221 283.293 565.898 284.069 565.326 284.642C564.753 285.215 563.976 285.538 563.165 285.539V285.539Z" fill="white"/>
<path d="M528.169 277.313C527.147 277.313 526.147 277.616 525.297 278.184C524.447 278.752 523.785 279.559 523.393 280.504C523.002 281.448 522.9 282.488 523.099 283.49C523.299 284.493 523.791 285.414 524.514 286.137C525.237 286.86 526.158 287.352 527.16 287.552C528.163 287.751 529.203 287.649 530.147 287.258C531.092 286.866 531.899 286.204 532.467 285.354C533.035 284.504 533.338 283.505 533.338 282.482C533.337 281.112 532.792 279.798 531.822 278.829C530.853 277.86 529.54 277.314 528.169 277.313V277.313ZM528.169 285.539C527.565 285.539 526.974 285.359 526.471 285.024C525.968 284.688 525.577 284.21 525.345 283.652C525.114 283.093 525.054 282.479 525.172 281.886C525.289 281.293 525.581 280.748 526.008 280.321C526.436 279.893 526.98 279.602 527.573 279.484C528.166 279.366 528.781 279.427 529.339 279.658C529.898 279.89 530.375 280.281 530.711 280.784C531.047 281.287 531.226 281.878 531.226 282.482C531.225 283.293 530.903 284.07 530.33 284.643C529.756 285.216 528.979 285.538 528.169 285.539V285.539Z" fill="white"/>
<path d="M545.669 249C544.646 249 543.647 249.303 542.797 249.871C541.947 250.439 541.285 251.246 540.893 252.191C540.502 253.135 540.4 254.175 540.599 255.177C540.799 256.18 541.291 257.101 542.014 257.824C542.737 258.547 543.658 259.039 544.661 259.238C545.663 259.438 546.702 259.335 547.647 258.944C548.591 258.553 549.399 257.891 549.967 257.041C550.535 256.191 550.838 255.191 550.838 254.169C550.836 252.798 550.291 251.485 549.322 250.516C548.353 249.547 547.039 249.001 545.669 249V249ZM545.669 257.225C545.064 257.225 544.473 257.046 543.971 256.71C543.468 256.374 543.077 255.897 542.845 255.338C542.614 254.78 542.554 254.165 542.672 253.572C542.789 252.98 543.081 252.435 543.508 252.008C543.935 251.58 544.48 251.289 545.073 251.171C545.666 251.053 546.28 251.114 546.839 251.345C547.397 251.577 547.874 251.968 548.21 252.471C548.546 252.974 548.725 253.564 548.725 254.169C548.724 254.979 548.402 255.756 547.829 256.329C547.256 256.902 546.479 257.224 545.669 257.225V257.225Z" fill="white"/>
<path d="M549.845 257.333L549.735 257.135L549.592 257.311C549.202 257.796 548.718 258.197 548.17 258.49L548.033 258.564L548.108 258.7L558.212 276.894C554.135 276.049 549.981 275.639 545.818 275.671C540.868 275.671 536.468 276.091 533.06 276.886L543.16 258.7L543.235 258.564L543.098 258.49C542.55 258.197 542.067 257.796 541.678 257.312L541.535 257.134L541.425 257.333L530.012 277.887L529.924 278.046L530.095 278.106C530.655 278.301 531.168 278.999 531.62 279.396L531.695 279.462L531.786 279.419L531.824 279.412C535.466 278.403 540.304 277.87 545.818 277.87C550.78 277.87 555.593 278.414 559.383 279.403L559.458 279.55L559.605 279.431L559.636 279.406C560.096 279 560.611 278.301 561.173 278.106L561.345 278.046L561.256 277.887L549.845 257.333Z" fill="white"/>
<path d="M33.9138 318.384C35.7271 318.384 37.1991 318.928 38.3298 320.016C39.4605 321.104 40.0258 322.544 40.0258 324.336C40.0258 326.117 39.4551 327.557 38.3138 328.656C37.1725 329.744 35.7058 330.288 33.9138 330.288C32.1005 330.288 30.6285 329.739 29.4978 328.64C28.3671 327.541 27.8018 326.107 27.8018 324.336C27.8018 322.565 28.3618 321.131 29.4818 320.032C30.6125 318.933 32.0898 318.384 33.9138 318.384ZM30.3938 324.336C30.3938 325.435 30.7191 326.32 31.3698 326.992C32.0311 327.653 32.8791 327.984 33.9138 327.984C34.9698 327.984 35.8178 327.643 36.4578 326.96C37.1085 326.277 37.4338 325.403 37.4338 324.336C37.4338 323.248 37.1031 322.368 36.4418 321.696C35.7911 321.024 34.9431 320.688 33.8978 320.688C32.8525 320.688 32.0045 321.029 31.3538 321.712C30.7138 322.395 30.3938 323.269 30.3938 324.336ZM50.5143 318.672V320.976H45.3143V323.088H50.2263V325.392H45.3143V327.696H50.8023V330H42.8183V318.672H50.5143ZM57.5764 318.672L60.1844 326.064H60.2164L62.8404 318.672H66.6004V330H64.1044V321.312H64.0724L61.0964 330H59.1924L56.3284 321.312H56.2964V330H53.8004V318.672H57.5764ZM72.8698 318.672L71.4298 323.184H69.3818L70.5658 318.672H72.8698ZM79.4842 318.384C80.8922 318.384 82.0495 318.779 82.9562 319.568L81.2442 321.44C81.0415 321.184 80.7642 320.997 80.4122 320.88C80.0709 320.752 79.7455 320.688 79.4362 320.688C78.9669 320.688 78.5669 320.795 78.2362 321.008C77.9162 321.221 77.7562 321.504 77.7562 321.856C77.7562 322.165 77.8789 322.427 78.1242 322.64C78.3802 322.843 78.7749 323.019 79.3082 323.168C80.5349 323.531 81.3455 323.845 81.7402 324.112C82.1455 324.379 82.4495 324.715 82.6522 325.12C82.8655 325.515 82.9722 325.995 82.9722 326.56C82.9722 327.701 82.5722 328.608 81.7722 329.28C80.9829 329.952 79.9269 330.288 78.6042 330.288C77.0789 330.288 75.8095 329.813 74.7962 328.864L76.5722 326.912C77.1269 327.627 77.8522 327.984 78.7482 327.984C79.2282 327.984 79.6335 327.877 79.9642 327.664C80.3055 327.451 80.4762 327.163 80.4762 326.8C80.4762 326.203 79.9642 325.744 78.9402 325.424C77.6389 325.029 76.7909 324.699 76.3962 324.432C76.0015 324.155 75.6975 323.829 75.4842 323.456C75.2709 323.083 75.1642 322.619 75.1642 322.064C75.1642 320.976 75.5642 320.091 76.3642 319.408C77.1749 318.725 78.2149 318.384 79.4842 318.384ZM96.7501 320.768V324.144H100.126V326.16H96.7501V329.536H94.7341V326.16H91.3581V324.144H94.7341V320.768H96.7501ZM114.461 318.384C115.207 318.384 115.922 318.528 116.605 318.816C117.298 319.093 117.858 319.504 118.285 320.048L116.365 321.616C115.842 320.997 115.127 320.688 114.221 320.688C113.282 320.688 112.498 321.035 111.869 321.728C111.25 322.411 110.941 323.28 110.941 324.336C110.941 325.349 111.239 326.213 111.837 326.928C112.434 327.632 113.202 327.984 114.141 327.984C115.143 327.984 115.922 327.579 116.477 326.768L118.557 328.32C118.151 328.917 117.586 329.397 116.861 329.76C116.146 330.112 115.346 330.288 114.461 330.288C112.658 330.288 111.186 329.739 110.045 328.64C108.914 327.541 108.349 326.107 108.349 324.336C108.349 322.587 108.914 321.157 110.045 320.048C111.175 318.939 112.647 318.384 114.461 318.384ZM126.702 318.672L131.63 330H128.814L127.838 327.6H123.438L122.494 330H119.742L124.638 318.672H126.702ZM124.222 325.488H126.99L125.598 321.968L124.222 325.488ZM138.233 318.672C139.62 318.672 140.665 318.971 141.369 319.568C142.073 320.155 142.425 321.003 142.425 322.112C142.425 322.944 142.207 323.632 141.769 324.176C141.343 324.72 140.745 325.067 139.977 325.216L142.857 330H139.865L137.497 325.472H136.265V330H133.769V318.672H138.233ZM137.817 323.36C138.553 323.36 139.071 323.264 139.369 323.072C139.679 322.869 139.833 322.544 139.833 322.096C139.833 321.221 139.209 320.784 137.961 320.784H136.265V323.36H137.817ZM149.608 318.672C150.995 318.672 152.04 318.971 152.744 319.568C153.448 320.155 153.8 321.003 153.8 322.112C153.8 322.944 153.582 323.632 153.144 324.176C152.718 324.72 152.12 325.067 151.352 325.216L154.232 330H151.24L148.872 325.472H147.64V330H145.144V318.672H149.608ZM149.192 323.36C149.928 323.36 150.446 323.264 150.744 323.072C151.054 322.869 151.208 322.544 151.208 322.096C151.208 321.221 150.584 320.784 149.336 320.784H147.64V323.36H149.192ZM158.983 318.672V330H156.487V318.672H158.983ZM170.046 318.672V320.976H164.846V323.088H169.758V325.392H164.846V327.696H170.334V330H162.35V318.672H170.046ZM177.796 318.672C179.182 318.672 180.228 318.971 180.932 319.568C181.636 320.155 181.988 321.003 181.988 322.112C181.988 322.944 181.769 323.632 181.332 324.176C180.905 324.72 180.308 325.067 179.54 325.216L182.42 330H179.428L177.06 325.472H175.828V330H173.332V318.672H177.796ZM177.38 323.36C178.116 323.36 178.633 323.264 178.932 323.072C179.241 322.869 179.396 322.544 179.396 322.096C179.396 321.221 178.772 320.784 177.524 320.784H175.828V323.36H177.38ZM188.547 318.384C189.955 318.384 191.112 318.779 192.019 319.568L190.307 321.44C190.104 321.184 189.827 320.997 189.475 320.88C189.133 320.752 188.808 320.688 188.499 320.688C188.029 320.688 187.629 320.795 187.299 321.008C186.979 321.221 186.819 321.504 186.819 321.856C186.819 322.165 186.941 322.427 187.187 322.64C187.443 322.843 187.837 323.019 188.371 323.168C189.597 323.531 190.408 323.845 190.803 324.112C191.208 324.379 191.512 324.715 191.715 325.12C191.928 325.515 192.035 325.995 192.035 326.56C192.035 327.701 191.635 328.608 190.835 329.28C190.045 329.952 188.989 330.288 187.667 330.288C186.141 330.288 184.872 329.813 183.859 328.864L185.635 326.912C186.189 327.627 186.915 327.984 187.811 327.984C188.291 327.984 188.696 327.877 189.027 327.664C189.368 327.451 189.539 327.163 189.539 326.8C189.539 326.203 189.027 325.744 188.003 325.424C186.701 325.029 185.853 324.699 185.459 324.432C185.064 324.155 184.76 323.829 184.547 323.456C184.333 323.083 184.227 322.619 184.227 322.064C184.227 320.976 184.627 320.091 185.427 319.408C186.237 318.725 187.277 318.384 188.547 318.384Z" fill="white"/>
<path d="M57.1519 347.088L60.7639 355.404L64.3759 347.088H65.6919V357H64.7679V348.264H64.7399L60.9599 357H60.5539L56.7179 348.264H56.6899V357H55.7659V347.088H57.1519ZM68.5433 353.766C68.5433 354.541 68.7859 355.175 69.2713 355.67C69.7566 356.165 70.3679 356.412 71.1053 356.412C71.8706 356.412 72.4866 356.16 72.9533 355.656C73.4293 355.152 73.6673 354.522 73.6673 353.766C73.6673 353.019 73.4339 352.394 72.9673 351.89C72.5006 351.386 71.8753 351.129 71.0913 351.12C70.3353 351.12 69.7239 351.372 69.2573 351.876C68.7906 352.38 68.5526 353.01 68.5433 353.766ZM71.1053 350.364C72.0946 350.364 72.9066 350.686 73.5413 351.33C74.1759 351.974 74.4979 352.786 74.5073 353.766C74.5073 354.765 74.1806 355.581 73.5273 356.216C72.8833 356.841 72.0759 357.159 71.1053 357.168C70.0879 357.159 69.2666 356.832 68.6413 356.188C68.0253 355.544 67.7126 354.737 67.7033 353.766C67.7033 352.767 68.0206 351.955 68.6553 351.33C69.2993 350.695 70.1159 350.373 71.1053 350.364ZM76.9538 353.766C76.9538 354.513 77.2198 355.138 77.7518 355.642C78.2931 356.137 78.9278 356.393 79.6558 356.412C80.4118 356.412 81.0278 356.16 81.5038 355.656C81.9798 355.143 82.2178 354.513 82.2178 353.766C82.2178 353.001 81.9751 352.371 81.4898 351.876C81.0138 351.372 80.3978 351.12 79.6418 351.12C78.9044 351.12 78.2744 351.377 77.7518 351.89C77.2384 352.394 76.9724 353.019 76.9538 353.766ZM76.1978 346.416H77.0378V351.666H77.0658C77.3084 351.246 77.6678 350.924 78.1438 350.7C78.6198 350.476 79.1238 350.364 79.6558 350.364C80.6638 350.364 81.4804 350.691 82.1058 351.344C82.7404 351.997 83.0578 352.805 83.0578 353.766C83.0578 354.765 82.7358 355.581 82.0918 356.216C81.4478 356.841 80.6358 357.159 79.6558 357.168C79.1051 357.168 78.5871 357.047 78.1018 356.804C77.6258 356.561 77.2804 356.249 77.0658 355.866H77.0378V357H76.1978V346.416ZM85.0784 350.532H85.9184V357H85.0784V350.532ZM85.4984 347.34C85.685 347.34 85.8344 347.401 85.9464 347.522C86.0677 347.643 86.1284 347.793 86.1284 347.97C86.1284 348.147 86.0677 348.297 85.9464 348.418C85.8344 348.539 85.685 348.6 85.4984 348.6C85.321 348.6 85.1717 348.539 85.0504 348.418C84.929 348.297 84.8684 348.147 84.8684 347.97C84.8684 347.793 84.929 347.643 85.0504 347.522C85.1717 347.401 85.321 347.34 85.4984 347.34ZM88.4416 346.416H89.2816V357H88.4416V346.416ZM96.7329 353.22C96.7329 352.632 96.5136 352.137 96.0749 351.736C95.6363 351.325 95.1043 351.12 94.4789 351.12C93.8723 351.12 93.3496 351.325 92.9109 351.736C92.4723 352.137 92.2156 352.632 92.1409 353.22H96.7329ZM94.5349 350.364C95.4309 350.364 96.1589 350.653 96.7189 351.232C97.2789 351.811 97.5636 352.557 97.5729 353.472V353.976H92.1409C92.1783 354.704 92.4163 355.292 92.8549 355.74C93.3029 356.179 93.8816 356.403 94.5909 356.412C95.0296 356.412 95.4449 356.309 95.8369 356.104C96.2383 355.889 96.5463 355.609 96.7609 355.264L97.3769 355.782C96.7703 356.706 95.8369 357.168 94.5769 357.168C93.5876 357.159 92.7943 356.837 92.1969 356.202C91.6089 355.567 91.3103 354.751 91.3009 353.752C91.3009 352.781 91.6043 351.979 92.2109 351.344C92.8269 350.7 93.6016 350.373 94.5349 350.364ZM103.599 352.044C103.599 353.304 103.986 354.345 104.761 355.166C105.536 355.978 106.548 356.393 107.799 356.412C109.059 356.412 110.072 356.001 110.837 355.18C111.602 354.349 111.99 353.304 111.999 352.044C111.999 350.765 111.616 349.725 110.851 348.922C110.086 348.11 109.064 347.695 107.785 347.676C106.534 347.676 105.526 348.087 104.761 348.908C103.996 349.729 103.608 350.775 103.599 352.044ZM107.799 346.836C108.807 346.836 109.698 347.06 110.473 347.508C111.248 347.947 111.845 348.567 112.265 349.37C112.694 350.163 112.914 351.055 112.923 352.044C112.923 353.565 112.442 354.811 111.481 355.782C110.52 356.743 109.292 357.233 107.799 357.252C106.296 357.252 105.074 356.767 104.131 355.796C103.188 354.816 102.703 353.565 102.675 352.044C102.684 350.523 103.16 349.281 104.103 348.32C105.046 347.359 106.278 346.864 107.799 346.836ZM115.331 353.766C115.331 354.503 115.592 355.124 116.115 355.628C116.637 356.132 117.277 356.393 118.033 356.412C118.789 356.412 119.4 356.165 119.867 355.67C120.343 355.166 120.585 354.531 120.595 353.766C120.595 353.019 120.361 352.394 119.895 351.89C119.428 351.386 118.803 351.129 118.019 351.12C117.263 351.12 116.628 351.377 116.115 351.89C115.601 352.403 115.34 353.029 115.331 353.766ZM118.033 350.364C119.022 350.364 119.834 350.686 120.469 351.33C121.103 351.965 121.425 352.777 121.435 353.766C121.435 354.755 121.117 355.567 120.483 356.202C119.848 356.837 119.031 357.159 118.033 357.168C117.482 357.168 116.969 357.051 116.493 356.818C116.026 356.585 115.676 356.267 115.443 355.866H115.415V360.192H114.575V350.532H115.415V351.666H115.443C115.667 351.274 116.017 350.961 116.493 350.728C116.969 350.485 117.482 350.364 118.033 350.364ZM128.383 353.22C128.383 352.632 128.164 352.137 127.725 351.736C127.287 351.325 126.755 351.12 126.129 351.12C125.523 351.12 125 351.325 124.561 351.736C124.123 352.137 123.866 352.632 123.791 353.22H128.383ZM126.185 350.364C127.081 350.364 127.809 350.653 128.369 351.232C128.929 351.811 129.214 352.557 129.223 353.472V353.976H123.791C123.829 354.704 124.067 355.292 124.505 355.74C124.953 356.179 125.532 356.403 126.241 356.412C126.68 356.412 127.095 356.309 127.487 356.104C127.889 355.889 128.197 355.609 128.411 355.264L129.027 355.782C128.421 356.706 127.487 357.168 126.227 357.168C125.238 357.159 124.445 356.837 123.847 356.202C123.259 355.567 122.961 354.751 122.951 353.752C122.951 352.781 123.255 351.979 123.861 351.344C124.477 350.7 125.252 350.373 126.185 350.364ZM133.979 350.364C134.137 350.364 134.301 350.387 134.469 350.434L134.371 351.26C134.268 351.223 134.156 351.204 134.035 351.204C133.353 351.204 132.831 351.414 132.467 351.834C132.112 352.254 131.935 352.8 131.935 353.472V357H131.095V352.282C131.095 352.189 131.071 351.605 131.025 350.532H131.865C131.883 351.176 131.902 351.554 131.921 351.666C132.406 350.798 133.092 350.364 133.979 350.364ZM136.303 355.208C136.303 355.563 136.443 355.852 136.723 356.076C137.012 356.3 137.367 356.412 137.787 356.412C138.543 356.412 139.103 356.216 139.467 355.824C139.84 355.423 140.027 354.881 140.027 354.2V353.752H139.019C138.16 353.752 137.493 353.883 137.017 354.144C136.541 354.405 136.303 354.76 136.303 355.208ZM138.207 350.364C139.075 350.364 139.719 350.565 140.139 350.966C140.559 351.367 140.773 351.927 140.783 352.646V354.564C140.783 355.609 140.825 356.421 140.909 357H140.125C140.069 356.711 140.041 356.361 140.041 355.95H140.013C139.546 356.762 138.795 357.168 137.759 357.168C137.059 357.168 136.503 356.995 136.093 356.65C135.682 356.305 135.472 355.838 135.463 355.25C135.463 354.531 135.771 353.99 136.387 353.626C137.012 353.262 137.88 353.08 138.991 353.08H140.027V352.702C140.027 352.17 139.863 351.773 139.537 351.512C139.21 351.251 138.767 351.12 138.207 351.12C137.46 351.12 136.802 351.363 136.233 351.848L135.743 351.274C136.051 350.975 136.429 350.751 136.877 350.602C137.334 350.443 137.777 350.364 138.207 350.364ZM143.492 348.67H144.332V350.532H146.18V351.288H144.332V355.516C144.332 355.787 144.412 356.006 144.57 356.174C144.729 356.333 144.948 356.412 145.228 356.412C145.536 356.412 145.854 356.337 146.18 356.188L146.25 356.944C145.83 357.093 145.462 357.168 145.144 357.168C144.594 357.168 144.178 357.014 143.898 356.706C143.628 356.398 143.492 356.001 143.492 355.516V351.288H142.092V350.532H143.492V348.67ZM148.155 353.766C148.155 354.541 148.397 355.175 148.883 355.67C149.368 356.165 149.979 356.412 150.717 356.412C151.482 356.412 152.098 356.16 152.565 355.656C153.041 355.152 153.279 354.522 153.279 353.766C153.279 353.019 153.045 352.394 152.579 351.89C152.112 351.386 151.487 351.129 150.703 351.12C149.947 351.12 149.335 351.372 148.869 351.876C148.402 352.38 148.164 353.01 148.155 353.766ZM150.717 350.364C151.706 350.364 152.518 350.686 153.153 351.33C153.787 351.974 154.109 352.786 154.119 353.766C154.119 354.765 153.792 355.581 153.139 356.216C152.495 356.841 151.687 357.159 150.717 357.168C149.699 357.159 148.878 356.832 148.253 356.188C147.637 355.544 147.324 354.737 147.315 353.766C147.315 352.767 147.632 351.955 148.267 351.33C148.911 350.695 149.727 350.373 150.717 350.364ZM158.875 350.364C159.034 350.364 159.197 350.387 159.365 350.434L159.267 351.26C159.164 351.223 159.052 351.204 158.931 351.204C158.25 351.204 157.727 351.414 157.363 351.834C157.008 352.254 156.831 352.8 156.831 353.472V357H155.991V352.282C155.991 352.189 155.968 351.605 155.921 350.532H156.761C156.78 351.176 156.798 351.554 156.817 351.666C157.302 350.798 157.988 350.364 158.875 350.364ZM162.417 350.364C163.509 350.364 164.265 350.77 164.685 351.582L163.929 352.03C163.612 351.423 163.108 351.12 162.417 351.12C162.044 351.12 161.717 351.223 161.437 351.428C161.167 351.624 161.031 351.867 161.031 352.156C161.031 352.445 161.148 352.679 161.381 352.856C161.615 353.024 162.021 353.159 162.599 353.262C163.458 353.411 164.051 353.635 164.377 353.934C164.704 354.223 164.867 354.634 164.867 355.166C164.867 355.773 164.648 356.258 164.209 356.622C163.78 356.986 163.215 357.168 162.515 357.168C161.283 357.159 160.42 356.72 159.925 355.852L160.667 355.348C160.826 355.675 161.083 355.936 161.437 356.132C161.801 356.319 162.17 356.412 162.543 356.412C162.973 356.412 163.327 356.295 163.607 356.062C163.887 355.819 164.027 355.539 164.027 355.222C164.027 354.933 163.911 354.695 163.677 354.508C163.453 354.321 162.959 354.153 162.193 354.004C161.531 353.873 161.031 353.673 160.695 353.402C160.359 353.131 160.191 352.739 160.191 352.226C160.191 351.675 160.401 351.227 160.821 350.882C161.241 350.537 161.773 350.364 162.417 350.364Z" fill="white"/>
<path d="M117.871 253.905H102.553C101.143 253.905 100 255.048 100 256.458V289.647C100 291.057 101.143 292.2 102.553 292.2H117.871C119.281 292.2 120.424 291.057 120.424 289.647V256.458C120.424 255.048 119.281 253.905 117.871 253.905Z" stroke="#F9F9F9" stroke-width="1.96503" stroke-linecap="round" stroke-linejoin="round"/>
<path d="M99.8427 286.973H90.8587C90.3662 286.972 89.8942 286.775 89.546 286.427C89.1977 286.079 89.0014 285.607 89 285.114V260.951C89.0016 260.459 89.1979 259.987 89.5461 259.638C89.8944 259.29 90.3662 259.094 90.8587 259.092H100.092" stroke="#F9F9F9" stroke-width="1.96503" stroke-linecap="round" stroke-linejoin="round"/>
<path d="M120.686 286.973H129.67C130.163 286.972 130.635 286.775 130.983 286.427C131.331 286.079 131.528 285.607 131.529 285.114V260.951C131.528 260.459 131.331 259.987 130.983 259.638C130.635 259.29 130.163 259.094 129.67 259.092H120.438" stroke="#F9F9F9" stroke-width="1.96503" stroke-linecap="round" stroke-linejoin="round"/>
<path d="M107.658 288.54H112.764" stroke="#F9F9F9" stroke-width="1.96503" stroke-linecap="round" stroke-linejoin="round"/>
<path d="M94.5781 283.612H98.2956" stroke="#F9F9F9" stroke-width="1.96503" stroke-linecap="round" stroke-linejoin="round"/>
<path d="M125.952 283.612H122.234" stroke="#F9F9F9" stroke-width="1.96503" stroke-linecap="round" stroke-linejoin="round"/>
<path d="M124.426 252.999C124.425 251.693 123.907 250.442 122.984 249.519C122.061 248.596 120.809 248.077 119.504 248.076" stroke="#F9F9F9" stroke-width="1.96503" stroke-linecap="round" stroke-linejoin="round"/>
<path d="M127.504 252.383C127.503 250.425 126.725 248.548 125.341 247.164C123.956 245.779 122.079 245.001 120.121 245" stroke="#F9F9F9" stroke-width="1.96503" stroke-linecap="round" stroke-linejoin="round"/>
<path d="M110 230.118C110 109.708 207.612 12.0967 328.022 12.0967C448.432 12.0967 546.044 109.708 546.044 230.118" stroke="url(#paint0_linear_4798_1556)" stroke-width="24" stroke-miterlimit="10"/>
<defs>
<linearGradient id="paint0_linear_4798_1556" x1="97.7692" y1="114.992" x2="558.274" y2="114.992" gradientUnits="userSpaceOnUse">
<stop stop-color="#11E3A3"/>
<stop offset="0.99948" stop-color="#2464F2"/>
</linearGradient>
</defs>
</svg>
