<svg width="112" height="32" viewBox="0 0 112 32" fill="none" xmlns="http://www.w3.org/2000/svg">
<g clip-path="url(#clip0_2675_22178)">
<g clip-path="url(#clip1_2675_22178)">
<path d="M25.9865 18.5995L24.6055 16.0513L24.1104 16.9638C24.0822 17.0156 24.0513 17.065 24.0192 17.1132C24.0122 17.1237 24.0052 17.1342 23.998 17.1446C23.9653 17.1917 23.931 17.2373 23.8947 17.2807C23.8913 17.2847 23.8878 17.2884 23.8844 17.2923C23.8488 17.3341 23.8115 17.3738 23.7728 17.4118C23.7673 17.4173 23.7618 17.4229 23.7562 17.4283C23.714 17.4688 23.6701 17.5071 23.6246 17.5431C23.6215 17.5456 23.6183 17.5479 23.6151 17.5503C23.52 17.6246 23.4177 17.689 23.3096 17.7426L23.3062 17.7442C23.0425 17.8681 22.7558 17.9358 22.4644 17.943H10.1704L9.67056 17.0206C9.48632 16.6639 9.4056 16.2627 9.43756 15.8625C9.39805 16.2614 9.47829 16.663 9.66802 17.0161L17.214 30.9401C17.9076 32.2199 19.6442 32.2197 20.3377 30.9398L25.9865 20.514C26.1446 20.2197 26.2273 19.8908 26.2273 19.5567C26.2273 19.2227 26.1446 18.8938 25.9865 18.5995Z" fill="#2155AA"/>
<path d="M30.1912 2.94396e-06L18.8772 0.0204253C18.2342 0.0215875 17.6404 0.386928 17.319 0.979202L15.8438 3.69755H16.9162C17.5592 3.69755 18.1536 4.06182 18.4759 4.65353L24.6045 16.0517L24.1982 16.8004C24.1993 16.7984 24.2006 16.7965 24.2017 16.7945L31.7556 2.87545C32.4499 1.59612 31.5802 -0.00250363 30.1912 2.94396e-06Z" fill="#12E3A3"/>
<path d="M9.66787 17.0158C9.64262 16.9689 9.62008 16.9209 9.5989 16.8724C9.59238 16.8575 9.58602 16.8426 9.57988 16.8276C9.56104 16.7814 9.54345 16.7347 9.52823 16.6874C9.52246 16.6696 9.51779 16.6515 9.51254 16.6336C9.50287 16.6004 9.49391 16.567 9.48599 16.5333C9.48004 16.5083 9.47437 16.4834 9.4694 16.4582C9.46408 16.431 9.45988 16.4037 9.45568 16.3764C9.44843 16.3298 9.44283 16.283 9.43887 16.2361C9.43743 16.219 9.43604 16.2018 9.43503 16.1846C9.43296 16.1497 9.43137 16.1148 9.43109 16.0799C9.4208 15.7269 9.50448 15.3776 9.67356 15.0676L15.8443 3.69727H1.80535C0.416414 3.69727 -0.450733 5.29753 0.245623 6.57567L5.918 16.9871C6.24038 17.5788 6.83471 17.9431 7.47773 17.9431H10.1701L9.67025 17.0207C9.66937 17.0191 9.66874 17.0174 9.66787 17.0158Z" fill="#2464F2"/>
<path d="M23.9977 17.1447C24.0049 17.1344 24.0118 17.1239 24.0189 17.1134C24.051 17.0651 24.0819 17.0157 24.11 16.9639L24.6052 16.0514L18.4767 4.65326C18.1543 4.06154 17.5599 3.69727 16.9169 3.69727H15.8442L9.67347 15.0676C9.51456 15.3685 9.43123 15.7035 9.43067 16.0438C9.4301 16.384 9.51232 16.7193 9.67023 17.0207L10.1701 17.9431H22.4641C22.7555 17.936 23.0421 17.8683 23.3059 17.7443L23.3092 17.7427C23.4173 17.6891 23.5197 17.6247 23.6148 17.5505C23.6179 17.548 23.6211 17.5457 23.6242 17.5432C23.6697 17.5073 23.7136 17.469 23.7559 17.4285C23.7615 17.4231 23.7669 17.4174 23.7725 17.412C23.8112 17.3739 23.8485 17.3342 23.884 17.2925C23.8874 17.2885 23.891 17.2848 23.8943 17.2808C23.9307 17.2374 23.9649 17.1918 23.9977 17.1447Z" fill="#357EE1"/>
</g>
<path d="M59.89 21.9801H53.43L52.56 24.7101H48.21L54.13 7.31006H59.2L65.12 24.7101H60.77L59.9 21.9801H59.89ZM58.7 18.2501L56.66 11.8601L54.62 18.2501H58.7Z" fill="black"/>
<path d="M73.9405 12.03V16.26C72.4005 16.01 70.2105 16.63 70.2105 19.09V24.71H66.4805V12.28H70.2105V14.49C70.7105 12.83 72.3705 12.03 73.9405 12.03Z" fill="black"/>
<path d="M83.1299 12.03V16.26C81.5899 16.01 79.3999 16.63 79.3999 19.09V24.71H75.6699V12.28H79.3999V14.49C79.8999 12.83 81.5599 12.03 83.1299 12.03Z" fill="black"/>
<path d="M97.2499 12.2799V24.7099H93.5199V23.5399C92.6999 24.4799 91.4799 25.0599 89.8199 25.0599C86.5599 25.0599 83.8799 22.1999 83.8799 18.4999C83.8799 14.7999 86.5599 11.9399 89.8199 11.9399C91.4899 11.9399 92.6999 12.5099 93.5199 13.4599V12.2899H97.2499V12.2799ZM93.5199 18.4899C93.5199 16.6299 92.2799 15.4599 90.5599 15.4599C88.8399 15.4599 87.5999 16.6299 87.5999 18.4899C87.5999 20.3499 88.8399 21.5199 90.5599 21.5199C92.2799 21.5199 93.5199 20.3499 93.5199 18.4899Z" fill="black"/>
<path d="M111.79 12.28L107.54 24.34C106.15 28.29 103.94 29.86 100.46 29.68V26.2C102.2 26.2 103.02 25.65 103.57 24.14L98.6201 12.28H102.72L105.48 19.89L107.82 12.28H111.8H111.79Z" fill="black"/>
</g>
<defs>
<clipPath id="clip0_2675_22178">
<rect width="112" height="32" fill="white"/>
</clipPath>
<clipPath id="clip1_2675_22178">
<rect width="32" height="32" fill="white"/>
</clipPath>
</defs>
</svg>
