<svg id="array-cycle-og" xmlns="http://www.w3.org/2000/svg" xmlns:xlink="http://www.w3.org/1999/xlink" viewBox="0 0 320 185" shape-rendering="geometricPrecision" text-rendering="geometricPrecision" project-id="9181b3c809164ab6bc9fe49d5ccb321c" export-id="1d70fc1c6ff84033b3768a118ae059a0" cached="false">
<style><![CDATA[
#array-cycle-og-u-chaser-path {animation-name: array-cycle-og-u-chaser-path_c_o, array-cycle-og-u-chaser-path_s_do;animation-duration: 3000ms;animation-fill-mode: forwards;animation-timing-function: linear;animation-direction: normal;animation-iteration-count: infinite;}@keyframes array-cycle-og-u-chaser-path_c_o { 0% {opacity: 1} 66.666667% {opacity: 1} 100% {opacity: 0}}@keyframes array-cycle-og-u-chaser-path_s_do { 0% {stroke-dashoffset: 326.78} 66.666667% {stroke-dashoffset: 0} 100% {stroke-dashoffset: 0}}
]]></style>
<defs><linearGradient id="array-cycle-og-u-bg-arc-fill" x1="44.334438" y1="110.4" x2="264.334442" y2="110.4" spreadMethod="pad" gradientUnits="userSpaceOnUse" gradientTransform="translate(0 0)"><stop id="array-cycle-og-u-bg-arc-fill-0" offset="0%" stop-color="#11e3a3"/><stop id="array-cycle-og-u-bg-arc-fill-1" offset="100%" stop-color="#2464f2"/></linearGradient><filter id="array-cycle-og-u-chaser-path-filter" x="-150%" width="400%" y="-150%" height="400%"><feGaussianBlur id="array-cycle-og-u-chaser-path-filter-blur-0" stdDeviation="0,0" result="result"/></filter><linearGradient id="array-cycle-og-u-chaser-path-stroke" x1="0" y1="0.5" x2="1" y2="0.5" spreadMethod="pad" gradientUnits="objectBoundingBox" gradientTransform="translate(0 0)"><stop id="array-cycle-og-u-chaser-path-stroke-0" offset="0%" stop-color="#1d8adf"/><stop id="array-cycle-og-u-chaser-path-stroke-1" offset="100%" stop-color="#48ecc2"/></linearGradient><linearGradient id="array-cycle-og-u-bg-arc2-fill" x1="44.334438" y1="110.4" x2="264.334442" y2="110.4" spreadMethod="pad" gradientUnits="userSpaceOnUse" gradientTransform="translate(0 0)"><stop id="array-cycle-og-u-bg-arc2-fill-0" offset="0%" stop-color="#11e3a3"/><stop id="array-cycle-og-u-bg-arc2-fill-1" offset="100%" stop-color="#2464f2"/></linearGradient><linearGradient id="array-cycle-og-s-path22-stroke" x1="97.7692" y1="114.992" x2="558.274" y2="114.992" spreadMethod="pad" gradientUnits="userSpaceOnUse" gradientTransform="translate(0 0)"><stop id="array-cycle-og-s-path22-stroke-0" offset="0%" stop-color="#11e3a3"/><stop id="array-cycle-og-s-path22-stroke-1" offset="99.948%" stop-color="#2464f2"/></linearGradient></defs><g id="array-cycle-og-u-array-logo"><path id="array-cycle-og-s-path1" d="M141.9,107.3h-4.3l-.6,1.8h-3l4-11.7h3.4l4,11.7h-2.9l-.6-1.8Zm-.8-2.5l-1.4-4.3-1.4,4.3h2.8Z" fill="#fff"/><path id="array-cycle-og-s-path2" d="M151.3,100.6v2.8c-1-.2-2.5.3-2.5,1.9v3.8h-2.5v-8.4h2.5v1.5c.4-1,1.5-1.6,2.5-1.6Z" fill="#fff"/><path id="array-cycle-og-s-path3" d="M157.5,100.6v2.8c-1-.2-2.5.3-2.5,1.9v3.8h-2.5v-8.4h2.5v1.5c.3-1,1.5-1.6,2.5-1.6Z" fill="#fff"/><path id="array-cycle-og-s-path4" d="M167,100.8v8.4h-2.5v-.8c-.6.6-1.4,1-2.5,1-2.2,0-4-1.9-4-4.4s1.8-4.4,4-4.4c1.1,0,1.9.4,2.5,1v-.8h2.5v0Zm-2.5,4.2c0-1.3-.8-2-2-2s-2,.8-2,2s.8,2,2,2s2-.8,2-2v0Z" fill="#fff"/><path id="array-cycle-og-s-path5" d="M176.8,100.8l-2.9,8.1c-.9,2.7-2.4,3.7-4.8,3.6v-2.3c1.2,0,1.7-.4,2.1-1.4l-3.3-8h2.8l1.9,5.1l1.6-5.1h2.6v0v0Z" fill="#fff"/><path id="array-cycle-og-s-path6" d="M169.5,71.4l-1.9-3.5-.7,1.3c0,.1-.1.1-.1.2c0,0,0,0,0,0c0,.1-.1.1-.1.2v0c0,.1-.1.1-.2.2v0l-.2.2c0,0,0,0,0,0-.1.1-.3.2-.4.3v0c-.2.1-.3.1-.5.2s-.5.1-.7.1h-17l-.7-1.3c-.2-.4-.3-.8-.3-1.3c0-.1,0-.2,0-.3-.1.6.1,1.1.3,1.6l10.4,19.2c.2.4.5.7.9,1s.8.4,1.3.4.9-.1,1.3-.4.7-.6.9-1l7.8-14.4c.2-.4.3-.9.3-1.3-.1-.5-.2-1-.4-1.4Z" fill="#2155aa"/><path id="array-cycle-og-s-path7" d="M175.3,45.7h-15.6c-.4,0-.9.1-1.3.4s-.7.6-.9,1l-2,3.8h1.5c.4,0,.9.1,1.3.4.4.2.7.6.9,1l8.5,15.8-.6,1c0,0,0,0,0,0s0,0,0,0s0,0,0,0s0,0,0,0l10.4-19.2c1-2-.3-4.2-2.2-4.2Z" fill="#12e3a3"/><path id="array-cycle-og-s-path8" d="M146.9,69.2c0-.1-.1-.1-.1-.2c0,0,0,0,0-.1s0-.1-.1-.2c0,0,0,0,0-.1c0,0,0-.1,0-.1s0-.1,0-.1s0-.1,0-.1c0-.1,0-.1,0-.2c0,0,0,0,0-.1c0,0,0-.1,0-.1c0-.5.1-1,.3-1.4l8.5-15.7h-19.4c-1.9,0-3.1,2.2-2.2,4l7.8,14.4c.2.4.5.7.9,1s.8.4,1.3.4h3.7l-.7-1.4v0Z" fill="#2464f2"/><path id="array-cycle-og-s-path9" d="M166.8,69.4c0,0,0,0,0,0c.1-.1.1-.2.2-.3l.7-1.3L159.2,52c-.2-.4-.5-.7-.9-1-.4-.2-.8-.4-1.3-.4h-1.5L147,66.5c-.2.4-.4.9-.3,1.4c0,.5.1.9.3,1.3l.7,1.3h17c.2,0,.5,0,.7-.1.2,0,.3-.1.5-.2v0c.1-.1.3-.2.4-.3c0,0,0,0,0,0c.1-.1.1-.1.2-.2v0c.1-.1.1-.1.2-.2v0c0,0,0,0,.1-.1Z" fill="#357ee1"/></g><g id="array-cycle-og-u-arc-group" transform="translate(-34.365425-17.647209)"><path id="array-cycle-og-u-bg-arc" d="M44.33444,110.4c0-60.75132,49.24868-110,110-110s110,49.24868,110,110m-12,.00001c0-54.12391-43.87609-98-98-98s-98,43.87609-98,98" transform="translate(36.030996 18.647205)" fill="url(#array-cycle-og-u-bg-arc-fill)" stroke-width="0"/><g id="array-cycle-og-u-mask-group" mask="url(#array-cycle-og-u-masks)"><path id="array-cycle-og-u-chaser-path" d="M-104,0c0-57.437614,46.562386-104,104-104s104,46.562386,104,104" transform="translate(190.365437 129.047215)" filter="url(#array-cycle-og-u-chaser-path-filter)" fill="none" stroke="url(#array-cycle-og-u-chaser-path-stroke)" stroke-width="12" stroke-linecap="round" stroke-dashoffset="326.78" stroke-dasharray="326.78"/><mask id="array-cycle-og-u-masks" mask-type="luminance" x="-150%" y="-150%" height="400%" width="400%"><path id="array-cycle-og-u-bg-arc2" d="M44.33444,110.4c0-60.75132,49.24868-110,110-110s110,49.24868,110,110m-12,.00001c0-54.12391-43.87609-98-98-98s-98,43.87609-98,98" transform="translate(36.030996 18.647205)" fill="url(#array-cycle-og-u-bg-arc2-fill)" stroke-width="0"/></mask></g></g><g id="array-cycle-og-u-array-diagram-en" transform="matrix(.481059 0 0 0.481059-1.974444 0.902464)"><path id="array-cycle-og-s-path10" d="M563.165,277.313c-1.022,0-2.021.303-2.871.871-.851.568-1.513,1.375-1.904,2.32-.392.944-.494,1.984-.295,2.986.2,1.003.692,1.924,1.415,2.647s1.644,1.215,2.647,1.415c1.002.199,2.042.097,2.986-.294.945-.392,1.752-1.054,2.32-1.904s.871-1.849.871-2.872c-.001-1.37-.546-2.684-1.515-3.653s-2.283-1.514-3.654-1.516Zm0,8.226c-.604,0-1.195-.179-1.698-.515s-.894-.813-1.126-1.372c-.231-.558-.292-1.173-.174-1.766s.409-1.138.837-1.565c.427-.428.972-.719,1.565-.837s1.207-.057,1.766.174c.558.232,1.036.623,1.372,1.126.335.503.515,1.094.515,1.698-.001.811-.324,1.587-.896,2.16-.573.573-1.35.896-2.161.897v0Z" fill="#fff"/><path id="array-cycle-og-s-path11" d="M528.169,277.313c-1.022,0-2.022.303-2.872.871s-1.512,1.375-1.904,2.32c-.391.944-.493,1.984-.294,2.986.2,1.003.692,1.924,1.415,2.647s1.644,1.215,2.646,1.415c1.003.199,2.043.097,2.987-.294.945-.392,1.752-1.054,2.32-1.904s.871-1.849.871-2.872c-.001-1.37-.546-2.684-1.516-3.653-.969-.969-2.282-1.515-3.653-1.516v0Zm0,8.226c-.604,0-1.195-.18-1.698-.515-.503-.336-.894-.814-1.126-1.372-.231-.559-.291-1.173-.173-1.766.117-.593.409-1.138.836-1.565.428-.428.972-.719,1.565-.837s1.208-.057,1.766.174c.559.232,1.036.623,1.372,1.126s.515,1.094.515,1.698c-.001.811-.323,1.588-.896,2.161-.574.573-1.351.895-2.161.896v0Z" fill="#fff"/><path id="array-cycle-og-s-path12" d="M545.669,249c-1.023,0-2.022.303-2.872.871s-1.512,1.375-1.904,2.32c-.391.944-.493,1.984-.294,2.986.2,1.003.692,1.924,1.415,2.647s1.644,1.215,2.647,1.414c1.002.2,2.041.097,2.986-.294.944-.391,1.752-1.053,2.32-1.903s.871-1.85.871-2.872c-.002-1.371-.547-2.684-1.516-3.653s-2.283-1.515-3.653-1.516v0Zm0,8.225c-.605,0-1.196-.179-1.698-.515-.503-.336-.894-.813-1.126-1.372-.231-.558-.291-1.173-.173-1.766.117-.592.409-1.137.836-1.564.427-.428.972-.719,1.565-.837s1.207-.057,1.766.174c.558.232,1.035.623,1.371,1.126s.515,1.093.515,1.698c-.001.81-.323,1.587-.896,2.16s-1.35.895-2.16.896v0Z" fill="#fff"/><path id="array-cycle-og-s-path13" d="M549.845,257.333l-.11-.198-.143.176c-.39.485-.874.886-1.422,1.179l-.137.074.075.136l10.104,18.194c-4.077-.845-8.231-1.255-12.394-1.223-4.95,0-9.35.42-12.758,1.215l10.1-18.186.075-.136-.137-.074c-.548-.293-1.031-.694-1.42-1.178l-.143-.178-.11.199-11.413,20.554-.088.159.171.06c.56.195,1.073.893,1.525,1.29l.075.066.091-.043.038-.007c3.642-1.009,8.48-1.542,13.994-1.542c4.962,0,9.775.544,13.565,1.533l.075.147.147-.119.031-.025c.46-.406.975-1.105,1.537-1.3l.172-.06-.089-.159-11.411-20.554Z" fill="#fff"/><path id="array-cycle-og-s-path14" d="M117.871,253.905h-15.318c-1.41,0-2.553,1.143-2.553,2.553v33.189c0,1.41,1.143,2.553,2.553,2.553h15.318c1.41,0,2.553-1.143,2.553-2.553v-33.189c0-1.41-1.143-2.553-2.553-2.553Z" fill="none" stroke="#f9f9f9" stroke-width="1.96503" stroke-linecap="round" stroke-linejoin="round"/><path id="array-cycle-og-s-path15" d="M99.8427,286.973h-8.984c-.4925-.001-.9645-.198-1.3127-.546-.3483-.348-.5446-.82-.546-1.313v-24.163c.0016-.492.1979-.964.5461-1.313.3483-.348.8201-.544,1.3126-.546h9.2333" fill="none" stroke="#f9f9f9" stroke-width="1.96503" stroke-linecap="round" stroke-linejoin="round"/><path id="array-cycle-og-s-path16" d="M120.686,286.973h8.984c.493-.001.965-.198,1.313-.546s.545-.82.546-1.313v-24.163c-.001-.492-.198-.964-.546-1.313-.348-.348-.82-.544-1.313-.546h-9.232" fill="none" stroke="#f9f9f9" stroke-width="1.96503" stroke-linecap="round" stroke-linejoin="round"/><path id="array-cycle-og-s-path17" d="M107.658,288.54h5.106" fill="none" stroke="#f9f9f9" stroke-width="1.96503" stroke-linecap="round" stroke-linejoin="round"/><path id="array-cycle-og-s-path18" d="M94.5781,283.612h3.7175" fill="none" stroke="#f9f9f9" stroke-width="1.96503" stroke-linecap="round" stroke-linejoin="round"/><path id="array-cycle-og-s-path19" d="M125.952,283.612h-3.718" fill="none" stroke="#f9f9f9" stroke-width="1.96503" stroke-linecap="round" stroke-linejoin="round"/><path id="array-cycle-og-s-path20" d="M124.426,252.999c-.001-1.306-.519-2.557-1.442-3.48s-2.175-1.442-3.48-1.443" fill="none" stroke="#f9f9f9" stroke-width="1.96503" stroke-linecap="round" stroke-linejoin="round"/><path id="array-cycle-og-s-path21" d="M127.504,252.383c-.001-1.958-.779-3.835-2.163-5.219-1.385-1.385-3.262-2.163-5.22-2.164" fill="none" stroke="#f9f9f9" stroke-width="1.96503" stroke-linecap="round" stroke-linejoin="round"/><path id="array-cycle-og-s-path22" d="" fill="none" stroke="url(#array-cycle-og-s-path22-stroke)" stroke-width="24" stroke-miterlimit="10"/></g><g id="array-cycle-og-u-array-label-1-web" transform="matrix(.48 0 0 0.48 13.09075 152.489098)"><path id="array-cycle-og-s-path23" d="M0.6113,8.9995c0-1.0195.1719-1.9438.5137-2.772s.8184-1.5327,1.4307-2.1147s1.3379-1.0288,2.1777-1.3413c.8398-.312,1.7578-.4678,2.7539-.4678s1.9141.1558,2.7549.4678c.8398.3125,1.5654.7593,2.1777,1.3413s1.0889,1.2866,1.4307,2.1147.5127,1.7524.5127,2.772-.1709,1.9438-.5127,2.772-.8184,1.5332-1.4307,2.1152-1.3379,1.0288-2.1777,1.3408c-.8408.312-1.7588.4683-2.7549.4683s-1.9141-.1562-2.7539-.4683-1.5654-.7588-2.1777-1.3408-1.0889-1.2871-1.4307-2.1152-.5137-1.752-.5137-2.772Zm2.916,0c0,.6001.0928,1.1494.2793,1.647.1855.498.4531.9302.8008,1.2959.3486.3662.7656.6514,1.251.855.4863.2046,1.0293.3062,1.6289.3062.6006,0,1.1436-.1016,1.6299-.3062.4854-.2036.9023-.4888,1.251-.855.3477-.3657.6143-.7979.8008-1.2959.1855-.4976.2793-1.0469.2793-1.647c0-.5879-.0938-1.1338-.2793-1.6377-.1865-.5044-.4531-.939-.8008-1.3052-.3486-.3657-.7656-.6509-1.251-.855-.4863-.2041-1.0293-.3062-1.6299-.3062-.5996,0-1.1426.1021-1.6289.3062-.4854.2041-.9023.4893-1.251.855-.3477.3662-.6152.8008-.8008,1.3052-.1865.5039-.2793,1.0498-.2793,1.6377Z" fill="#fff"/><path id="array-cycle-og-s-path24" d="M16.3789,2.6274h8.6582v2.5923h-5.8496v2.376h5.5254v2.5918h-5.5254v2.5923h6.1738v2.5918h-8.9824v-12.7442Z" fill="#fff"/><path id="array-cycle-og-s-path25" d="M27.6113,2.6274h4.248l2.9336,8.3159h.0361l2.9521-8.3159h4.2295v12.7441h-2.8076v-9.7738h-.0361l-3.3477,9.7739h-2.1426L30.4549,5.5977h-.0361v9.7739h-2.8076v-12.7442Z" fill="#fff"/><path id="array-cycle-og-s-path26" d="M49.2109,9.1978c-.3965-.4922-.918-.7383-1.5664-.7383-.2275,0-.4492.0542-.666.1621-.2158.1079-.3232.2939-.3232.5581c0,.2158.1104.375.333.4771.2217.1021.5039.1919.8457.27s.708.1616,1.0977.252c.3896.0898.7559.231,1.0986.4229.3418.1919.623.4531.8457.7832.2217.3301.333.771.333,1.3228c0,.5645-.123,1.0293-.3691,1.395-.2461.3662-.5615.6602-.9453.8818-.3838.2222-.8154.3784-1.2959.4683-.4795.0898-.9541.1348-1.4219.1348-.6123,0-1.2305-.0869-1.8535-.2607-.624-.1738-1.1523-.4829-1.584-.9272l1.6377-1.8179c.252.312.5312.5488.8369.7109s.6631.2432,1.0713.2432c.3115,0,.5938-.0449.8457-.1353.252-.0898.3779-.2544.3779-.4946c0-.228-.1113-.3989-.333-.5132-.2217-.1138-.5039-.21-.8457-.2881-.3418-.0776-.708-.1621-1.0986-.252-.3896-.0898-.7559-.2251-1.0977-.4048-.3418-.1802-.624-.4351-.8457-.7651-.2227-.3301-.333-.771-.333-1.3232c0-.5156.1045-.9595.3145-1.332.21-.3716.4863-.6777.8281-.918.3418-.2397.7354-.4165,1.1797-.5308.4434-.1138.8936-.1709,1.3496-.1709.5762,0,1.1582.084,1.7461.252s1.0859.4678,1.4941.8999L49.211,9.198l-.0001-.0002Z" fill="#fff"/><path id="array-cycle-og-s-path27" d="M58.0312,8.7837h3.7979v-3.7983h2.2676v3.7983h3.7979v2.2681h-3.7979v3.7979h-2.2676v-3.7979h-3.7979v-2.2681Z" fill="#fff"/><path id="array-cycle-og-s-path28" d="M83.9141,5.9395c-.2754-.3354-.6143-.5938-1.0166-.7739s-.8672-.27-1.3955-.27c-.5273,0-1.0166.1021-1.4668.3062s-.8398.4893-1.1699.855c-.3301.3662-.5879.8008-.7734,1.3052-.1865.5039-.2793,1.0498-.2793,1.6377c0,.6001.0928,1.1494.2793,1.647.1855.498.4404.9302.7646,1.2959.3242.3662.7051.6514,1.1426.855.4385.2046.9092.3062,1.4131.3062.5762,0,1.0859-.1196,1.5303-.3599.4443-.2397.8096-.5762,1.0977-1.0083l2.3408,1.7461c-.54.7563-1.2246,1.314-2.0527,1.6743-.8281.3599-1.6797.54-2.5557.54-.9961,0-1.9141-.1562-2.7539-.4683s-1.5664-.7588-2.1777-1.3408c-.6123-.582-1.0898-1.2871-1.4316-2.1152s-.5127-1.752-.5127-2.772.1709-1.9438.5127-2.772.8193-1.5327,1.4316-2.1147c.6113-.582,1.3379-1.0288,2.1777-1.3413.8398-.312,1.7578-.4678,2.7539-.4678.3604,0,.7354.0332,1.125.0986.3896.0664.7744.1714,1.1523.3154s.7402.3359,1.0889.5757c.3477.2402.6592.5342.9355.8823L83.9141,5.9396v-.0001Z" fill="#fff"/><path id="array-cycle-og-s-path29" d="M92.1045,2.6274h2.3223l5.5439,12.7441h-3.168l-1.0986-2.7002h-4.9492l-1.0625,2.7002h-3.0957L92.1045,2.6274Zm1.0801,3.708l-1.5479,3.96h3.1143l-1.5664-3.96Z" fill="#fff"/><path id="array-cycle-og-s-path30" d="M101.248,2.6274h4.9326c.6475,0,1.2627.063,1.8447.189s1.0918.3364,1.5303.6304c.4375.2939.7852.6899,1.0439,1.188.2578.498.3867,1.1191.3867,1.8628c0,.8999-.2344,1.665-.7021,2.2949s-1.1514,1.0293-2.0518,1.1973l3.2402,5.3818h-3.3662l-2.6641-5.0942h-1.3857v5.0942h-2.8086v-12.7442h.0001Zm2.8086,5.274h1.6553c.2529,0,.5195-.0088.8018-.0269.2812-.0181.5371-.0718.7646-.1621.2275-.0898.417-.231.5674-.4229.1494-.1919.2246-.4619.2246-.8101c0-.3237-.0664-.582-.1982-.7739s-.2998-.3389-.5039-.4409-.4375-.1709-.7021-.207c-.2637-.0361-.5215-.0542-.7734-.0542h-1.8359v2.8979l-.0002.0001Z" fill="#fff"/><path id="array-cycle-og-s-path31" d="M112.9121,2.6274h4.9316c.6484,0,1.2627.063,1.8457.189.5811.126,1.0918.3364,1.5293.6304.4385.2939.7861.6899,1.0439,1.188s.3877,1.1191.3877,1.8628c0,.8999-.2344,1.665-.7021,2.2949-.4688.6299-1.1523,1.0293-2.0527,1.1973l3.2402,5.3818h-3.3662l-2.6631-5.0942h-1.3867v5.0942h-2.8076v-12.7442Zm2.8076,5.274h1.6562c.252,0,.5186-.0088.8008-.0269s.5371-.0718.7656-.1621c.2275-.0898.416-.231.5664-.4229s.2256-.4619.2256-.8101c0-.3237-.0664-.582-.1982-.7739-.1328-.1919-.2998-.3389-.5039-.4409s-.4385-.1709-.7021-.207c-.2646-.0361-.5225-.0542-.7744-.0542h-1.8359v2.8979l-.0001.0001Z" fill="#fff"/><path id="array-cycle-og-s-path32" d="M124.54,2.6274h2.8076v12.7441h-2.8076v-12.7441Z" fill="#fff"/><path id="array-cycle-og-s-path33" d="M130.0117,2.6274h8.6582v2.5923h-5.8506v2.376h5.5264v2.5918h-5.5264v2.5923h6.1748v2.5918h-8.9824v-12.7442Z" fill="#fff"/><path id="array-cycle-og-s-path34" d="M141.2432,2.6274h4.9326c.6475,0,1.2627.063,1.8447.189s1.0918.3364,1.5303.6304c.4375.2939.7852.6899,1.0439,1.188.2578.498.3867,1.1191.3867,1.8628c0,.8999-.2344,1.665-.7021,2.2949s-1.1514,1.0293-2.0518,1.1973l3.2402,5.3818h-3.3662l-2.6641-5.0942h-1.3857v5.0942h-2.8086v-12.7442Zm2.8086,5.274h1.6553c.2529,0,.5195-.0088.8018-.0269.2812-.0181.5371-.0718.7646-.1621.2275-.0898.417-.231.5674-.4229.1494-.1919.2246-.4619.2246-.8101c0-.3237-.0664-.582-.1982-.7739s-.2998-.3389-.5039-.4409-.4375-.1709-.7021-.207c-.2637-.0361-.5215-.0542-.7734-.0542h-1.8359v2.8979l-.0002.0001Z" fill="#fff"/><path id="array-cycle-og-s-path35" d="M159.208,5.7417c-.2285-.2881-.5381-.501-.9277-.6392-.3896-.1377-.7588-.207-1.1064-.207-.2041,0-.4141.0244-.6299.0723-.2168.0479-.4209.123-.6123.2246-.1924.1021-.3486.2373-.4678.4053-.1201.168-.1807.3721-.1807.6118c0,.3843.1445.6782.4326.8823s.6504.3779,1.0889.522c.4375.144.9092.2876,1.4131.4316s.9746.3481,1.4131.6123c.4375.2642.8008.6182,1.0889,1.062s.4316,1.0381.4316,1.7817c0,.7085-.1318,1.3262-.3955,1.854-.2646.5283-.6211.9663-1.0713,1.314-.4502.3481-.9717.6064-1.5664.7739-.5938.168-1.2207.2524-1.8809.2524-.8281,0-1.5957-.126-2.3037-.3784-.708-.252-1.3682-.6597-1.9805-1.2236l1.998-2.1963c.2881.3843.6514.6812,1.0898.8911.4375.21.8906.3149,1.3584.3149.2275,0,.459-.0269.6934-.0811.2334-.0537.4434-.1348.6299-.2427.1855-.1084.3359-.2461.4502-.4141.1133-.168.1709-.3662.1709-.5942c0-.3838-.1475-.6865-.4414-.9087s-.6631-.4111-1.1064-.5674c-.4443-.1558-.9248-.3115-1.4404-.4678-.5156-.1558-.9961-.3657-1.4395-.6299-.4443-.2642-.8135-.6123-1.1074-1.0439-.2939-.4321-.4414-1.002-.4414-1.7104c0-.6836.1357-1.2837.4053-1.7998.2705-.5156.6299-.9478,1.0801-1.2959s.9688-.6089,1.5566-.7832c.5879-.1738,1.1943-.2607,1.8184-.2607.7197,0,1.416.1021,2.0879.3057.6719.2046,1.2783.5464,1.8184,1.0264l-1.9258,2.106Z" fill="#fff"/><path id="array-cycle-og-s-path36" d="M29.8818,39.4204l3.585-8.6401h1.6504v10.6201h-1.0801v-9.1802h-.0303L30.167,41.4004h-.5693l-3.8408-9.1802h-.0293v9.1802h-1.0801v-10.6201h1.6494l3.585,8.6401Z" fill="#fff"/><path id="array-cycle-og-s-path37" d="M44.7324,37.8906c0,.5298-.0928,1.0195-.2773,1.4697-.1855.4502-.4424.8398-.7725,1.1699s-.7227.5879-1.1777.7725c-.4551.1851-.958.2778-1.5078.2778-.54,0-1.0371-.0928-1.4922-.2778-.4551-.1846-.8477-.4424-1.1777-.7725s-.5869-.7197-.7725-1.1699c-.1846-.4502-.2773-.9399-.2773-1.4697c0-.5303.0928-1.02.2773-1.4702.1855-.4502.4424-.8398.7725-1.1699s.7227-.5874,1.1777-.7725.9521-.2778,1.4922-.2778c.5498,0,1.0527.0928,1.5078.2778s.8477.4424,1.1777.7725.5869.7197.7725,1.1699c.1846.4502.2773.9399.2773,1.4702Zm-1.0801,0c0-.3901-.0625-.7554-.1875-1.0952s-.3027-.6348-.5322-.8853c-.2305-.2495-.5078-.4473-.833-.5923s-.6924-.2173-1.1025-.2173-.7773.0723-1.1025.2173-.5996.3428-.8242.5923c-.2256.2505-.4004.5454-.5254.8853s-.1875.7051-.1875,1.0952c0,.3896.0625.7549.1875,1.0947.125.3403.2998.6353.5254.8853.2246.25.499.4473.8242.5923s.6924.2173,1.1025.2173.7773-.0723,1.1025-.2173.6025-.3423.833-.5923c.2295-.25.4072-.5449.5322-.8853.125-.3398.1875-.7051.1875-1.0947Z" fill="#fff"/><path id="array-cycle-og-s-path38" d="M46.5322,30.0605h.9893v5.4897h.0303c.1602-.2397.3496-.4448.5703-.6147.2197-.1699.4502-.3101.6895-.4199.2402-.1104.4883-.1899.7432-.2402.2549-.0498.4971-.0752.7275-.0752.5498,0,1.0518.0928,1.5068.2778s.8477.4424,1.1777.7725.5879.7197.7725,1.1699c.1855.4502.2773.9399.2773,1.4702c0,.5298-.0918,1.0195-.2773,1.4697-.1846.4502-.4424.8398-.7725,1.1699s-.7227.5879-1.1777.7725c-.4551.1851-.957.2778-1.5068.2778-.2305,0-.4727-.0254-.7275-.0752-.2549-.0503-.5029-.1299-.7432-.2397-.2393-.1104-.4697-.25-.6895-.4204-.2207-.1699-.4102-.375-.5703-.6147h-.0303v1.1699h-.9893v-11.3398Zm6.4043,7.8301c0-.3901-.0625-.7554-.1875-1.0952s-.3018-.6348-.5322-.8853c-.2305-.2495-.5078-.4473-.832-.5923-.3252-.145-.6934-.2173-1.1025-.2173-.4102,0-.7852.0723-1.125.2173-.3408.145-.6357.3428-.8857.5923-.25.2505-.4443.5454-.585.8853-.1396.3398-.21.7051-.21,1.0952c0,.3896.0703.7549.21,1.0947.1406.3403.335.6353.585.8853s.5449.4473.8857.5923c.3398.145.7148.2173,1.125.2173.4092,0,.7773-.0723,1.1025-.2173.3242-.145.6016-.3423.832-.5923s.4072-.5449.5322-.8853c.125-.3398.1875-.7051.1875-1.0947Z" fill="#fff"/><path id="array-cycle-og-s-path39" d="M57.1367,31.6802c0,.2104-.0752.3828-.2246.5176-.1504.1353-.3154.2026-.4951.2026s-.3447-.0674-.4951-.2026c-.1504-.1348-.2246-.3071-.2246-.5176c0-.21.0742-.3823.2246-.5171.1504-.1353.3154-.2026.4951-.2026s.3447.0674.4951.2026c.1494.1348.2246.3071.2246.5171Zm-.2246,9.7202h-.9902v-7.02h.9902v7.02Z" fill="#fff"/><path id="array-cycle-og-s-path40" d="M60.5117,41.4004h-.9893v-11.3398h.9893v11.3398Z" fill="#fff"/><path id="array-cycle-og-s-path41" d="M63.5869,38.1602c.0293.3506.1143.6802.2549.9902.1396.3101.3242.5776.5547.8027.2305.2246.4951.4023.7949.5322s.625.1948.9756.1948c.5293,0,.9873-.1221,1.3721-.3672s.6777-.5273.8779-.8477l.7646.6299c-.4199.5303-.8828.9102-1.3877,1.1401s-1.0479.3452-1.627.3452c-.5205,0-1.0029-.0928-1.4482-.2778-.4443-.1846-.8271-.4424-1.1475-.7725-.3193-.3301-.5723-.7197-.7568-1.1699-.1855-.4502-.2773-.9399-.2773-1.4697c0-.5303.0898-1.02.2695-1.4702s.4297-.8398.75-1.1699.6953-.5874,1.125-.7725.8945-.2778,1.3945-.2778c.5303,0,1.0059.0952,1.4258.2852s.7725.4424,1.0576.7573c.2842.3154.502.6851.6523,1.1104.1494.4248.2246.8774.2246,1.3574v.4497h-5.8496l.0001.0001Zm4.7695-.8096c0-.6699-.2002-1.2124-.5996-1.6279-.4004-.4146-.96-.6221-1.6807-.6221-.3193,0-.6299.0625-.9297.1875s-.5625.2925-.7871.5024c-.2256.21-.4053.4497-.54.7197s-.2031.5503-.2031.8403h4.7402Z" fill="#fff"/><path id="array-cycle-og-s-path42" d="M82.502,37.8906c0,.5298-.0928,1.0195-.2773,1.4697-.1855.4502-.4424.8398-.7725,1.1699s-.7227.5879-1.1777.7725c-.4551.1851-.958.2778-1.5078.2778-.54,0-1.0371-.0928-1.4922-.2778-.4551-.1846-.8477-.4424-1.1777-.7725s-.5869-.7197-.7725-1.1699c-.1846-.4502-.2773-.9399-.2773-1.4697c0-.5303.0928-1.02.2773-1.4702.1855-.4502.4424-.8398.7725-1.1699s.7227-.5874,1.1777-.7725.9521-.2778,1.4922-.2778c.5498,0,1.0527.0928,1.5078.2778s.8477.4424,1.1777.7725.5869.7197.7725,1.1699c.1846.4502.2773.9399.2773,1.4702Zm-1.0801,0c0-.3901-.0625-.7554-.1875-1.0952s-.3027-.6348-.5322-.8853c-.2305-.2495-.5078-.4473-.833-.5923s-.6924-.2173-1.1025-.2173-.7773.0723-1.1025.2173-.5996.3428-.8242.5923c-.2256.2505-.4004.5454-.5254.8853s-.1875.7051-.1875,1.0952c0,.3896.0625.7549.1875,1.0947.125.3403.2998.6353.5254.8853.2246.25.499.4473.8242.5923s.6924.2173,1.1025.2173.7773-.0723,1.1025-.2173.6025-.3423.833-.5923c.2295-.25.4072-.5449.5322-.8853.125-.3398.1875-.7051.1875-1.0947Z" fill="#fff"/><path id="array-cycle-og-s-path43" d="M84.3018,34.3804h.9893v1.1699h.0303c.1602-.2397.3496-.4448.5703-.6147.2197-.1699.4502-.3101.6895-.4199.2402-.1104.4883-.1899.7432-.2402.2549-.0498.4971-.0752.7275-.0752.5498,0,1.0518.0928,1.5068.2778s.8477.4424,1.1777.7725.5879.7197.7725,1.1699c.1855.4502.2773.9399.2773,1.4702c0,.5298-.0918,1.0195-.2773,1.4697-.1846.4502-.4424.8398-.7725,1.1699s-.7227.5879-1.1777.7725c-.4551.1851-.957.2778-1.5068.2778-.2305,0-.4727-.0254-.7275-.0752-.2549-.0503-.5029-.1299-.7432-.2397-.2393-.1104-.4697-.25-.6895-.4204-.2207-.1699-.4102-.375-.5703-.6147h-.0303v5.4897h-.9893v-11.3398Zm6.4043,3.5102c0-.3901-.0625-.7554-.1875-1.0952s-.3018-.6348-.5322-.8853c-.2305-.2495-.5078-.4473-.832-.5923-.3252-.145-.6934-.2173-1.1025-.2173-.4102,0-.7852.0723-1.125.2173-.3408.145-.6357.3428-.8857.5923-.25.2505-.4443.5454-.585.8853-.1396.3398-.21.7051-.21,1.0952c0,.3896.0703.7549.21,1.0947.1406.3403.335.6353.585.8853s.5449.4473.8857.5923c.3398.145.7148.2173,1.125.2173.4092,0,.7773-.0723,1.1025-.2173.3242-.145.6016-.3423.832-.5923s.4072-.5449.5322-.8853c.125-.3398.1875-.7051.1875-1.0947Z" fill="#fff"/><path id="array-cycle-og-s-path44" d="M94.1562,38.1602c.0303.3506.1152.6802.2549.9902.1406.3101.3252.5776.5557.8027.2295.2246.4951.4023.7949.5322s.625.1948.9746.1948c.5303,0,.9873-.1221,1.373-.3672.3848-.2451.6768-.5273.877-.8477l.7656.6299c-.4209.5303-.8828.9102-1.3877,1.1401s-1.0479.3452-1.6279.3452c-.5195,0-1.0029-.0928-1.4473-.2778-.4453-.1846-.8281-.4424-1.1475-.7725-.3203-.3301-.5723-.7197-.7578-1.1699-.1846-.4502-.2773-.9399-.2773-1.4697c0-.5303.0898-1.02.2705-1.4702.1797-.4502.4297-.8398.75-1.1699.3193-.3301.6943-.5874,1.125-.7725.4297-.1851.8945-.2778,1.3945-.2778.5303,0,1.0049.0952,1.4248.2852s.7725.4424,1.0576.7573c.2852.3154.5029.6851.6523,1.1104.1504.4248.2256.8774.2256,1.3574v.4497h-5.8506Zm4.7706-.8096c0-.6699-.2002-1.2124-.6006-1.6279-.3994-.4146-.96-.6221-1.6797-.6221-.3203,0-.6299.0625-.9297.1875-.3008.125-.5625.2925-.7881.5024-.2246.21-.4043.4497-.54.7197-.1348.27-.2021.5503-.2021.8403h4.7402Z" fill="#fff"/><path id="array-cycle-og-s-path45" d="M101.9111,36.5703c0-.3096-.0068-.625-.0225-.9448-.0146-.3198-.0273-.7349-.0371-1.2451h.9746v1.3052h.0303c.0693-.1899.1699-.3726.2998-.5479.1299-.1748.2871-.332.4727-.4722.1846-.1401.3994-.2524.6445-.3374s.5225-.1279.833-.1279c.2793,0,.5244.0303.7354.0903l-.1953.9751c-.1299-.0503-.3203-.0752-.5703-.0752-.3799,0-.7051.0728-.9746.2173-.2705.145-.4951.3301-.6748.5552-.1807.2251-.3135.4678-.3975.7275-.0859.2603-.1279.5098-.1279.75v3.96h-.9902v-4.8301h-.0001Z" fill="#fff"/><path id="array-cycle-og-s-path46" d="M111.2861,37.0952v-.1797c0-1.21-.5996-1.8149-1.7998-1.8149-.8203,0-1.5352.2749-2.1455.8247l-.5996-.7051c.6602-.6797,1.6504-1.02,2.9697-1.02.3398,0,.668.0503.9824.1504.3154.1001.5879.2524.8184.4575.2295.2051.4141.4624.5547.7725.1396.3101.21.6802.21,1.1099v3.1348c0,.27.0127.5527.0371.8477.0254.2949.0527.5376.083.7275h-.96c-.0303-.1699-.0527-.355-.0674-.5552-.0156-.1997-.0225-.3945-.0225-.585h-.0303c-.29.4702-.6328.8076-1.0273,1.0127-.3955.2046-.8779.3076-1.4482.3076-.3096,0-.6094-.043-.8994-.1274-.29-.085-.5479-.2153-.7725-.3901-.2256-.1748-.4053-.3901-.54-.645s-.2021-.5527-.2021-.8926c0-.5698.1465-1.0176.4424-1.3423.2949-.3252.665-.5679,1.1094-.7275.4453-.1602.9199-.2603,1.4248-.3003.5049-.0396.9678-.0601,1.3877-.0601h.4951l-.0001-.0001Zm-.5097.8101c-.25,0-.5625.0127-.9375.0376s-.7354.085-1.0801.1802-.6396.2422-.8848.4424-.3682.4751-.3682.8252c0,.23.0479.4272.1426.5923.0957.165.2227.2998.3828.4048s.3379.1802.5322.2251c.1953.0449.3926.0674.5928.0674.3604,0,.6729-.0596.9375-.1797s.4873-.2827.668-.4878c.1797-.2046.3115-.4448.3975-.7197.084-.2749.127-.5674.127-.8774v-.5103h-.5098Z" fill="#fff"/><path id="array-cycle-og-s-path47" d="M118.2012,35.2803h-2.0254v4.1401c0,.2603.0254.4727.0752.6377.0498.1646.1201.2925.21.3823s.1973.1523.3223.1875.2627.0522.4131.0522c.1699,0,.3447-.0244.5244-.0747.1807-.0498.3457-.1147.4951-.1953l.0449.915c-.3701.1699-.8145.2554-1.335.2554-.1895,0-.3877-.0254-.5928-.0752-.2051-.0503-.3926-.145-.5625-.2852-.1699-.1396-.3096-.3296-.4199-.5698-.1094-.2402-.165-.5552-.165-.9448v-4.4253h-1.4844v-.8999h1.4844v-1.98h.9902v1.98h2.0254v.8999.0001Z" fill="#fff"/><path id="array-cycle-og-s-path48" d="M126.6455,37.8906c0,.5298-.0918,1.0195-.2773,1.4697-.1846.4502-.4424.8398-.7725,1.1699s-.7227.5879-1.1777.7725c-.4551.1851-.957.2778-1.5068.2778-.54,0-1.0381-.0928-1.4932-.2778-.4551-.1846-.8467-.4424-1.1768-.7725s-.5879-.7197-.7725-1.1699c-.1855-.4502-.2773-.9399-.2773-1.4697c0-.5303.0918-1.02.2773-1.4702.1846-.4502.4424-.8398.7725-1.1699s.7217-.5874,1.1768-.7725.9531-.2778,1.4932-.2778c.5498,0,1.0518.0928,1.5068.2778s.8477.4424,1.1777.7725.5879.7197.7725,1.1699c.1855.4502.2773.9399.2773,1.4702Zm-1.0791,0c0-.3901-.0635-.7554-.1875-1.0952-.126-.3398-.3027-.6348-.5332-.8853-.2295-.2495-.5078-.4473-.832-.5923-.3252-.145-.6924-.2173-1.1025-.2173s-.7783.0723-1.1025.2173c-.3252.145-.6006.3428-.8252.5923-.2246.2505-.4004.5454-.5254.8853s-.1875.7051-.1875,1.0952c0,.3896.0625.7549.1875,1.0947.125.3403.3008.6353.5254.8853s.5.4473.8252.5923c.3242.145.6924.2173,1.1025.2173s.7773-.0723,1.1025-.2173c.3242-.145.6025-.3423.832-.5923.2305-.25.4072-.5449.5332-.8853.124-.3398.1875-.7051.1875-1.0947Z" fill="#fff"/><path id="array-cycle-og-s-path49" d="M128.5508,36.5703c0-.3096-.0078-.625-.0225-.9448-.0156-.3198-.0283-.7349-.0381-1.2451h.9756v1.3052h.0293c.0703-.1899.1699-.3726.3008-.5479.1299-.1748.2871-.332.4717-.4722.1855-.1401.4004-.2524.6455-.3374s.5225-.1279.832-.1279c.2803,0,.5254.0303.7354.0903l-.1953.9751c-.1299-.0503-.3203-.0752-.5693-.0752-.3809,0-.7051.0728-.9756.2173-.2695.145-.4951.3301-.6748.5552s-.3125.4678-.3975.7275c-.085.2603-.1279.5098-.1279.75v3.96h-.9893v-4.8301Z" fill="#fff"/><path id="array-cycle-og-s-path50" d="M137.1455,36.0454c-.1504-.29-.3506-.52-.5996-.6899-.251-.1699-.5557-.2549-.915-.2549-.1709,0-.3428.02-.5176.0596-.1758.0405-.333.103-.4727.1875-.1406.0854-.2529.1929-.3379.3228s-.127.29-.127.48c0,.3301.1143.5698.3447.7202.2295.1499.5752.2798,1.0352.3896l1.0049.2402c.4902.1099.8975.3325,1.2227.6675.3242.335.4873.7524.4873,1.2524c0,.3804-.0771.7075-.2324.9824-.1553.2754-.3604.5-.6152.6753-.2549.1748-.5479.3022-.877.3823-.3301.0801-.666.1201-1.0059.1201-.54,0-1.042-.103-1.5068-.3076-.4648-.2051-.8623-.5576-1.1924-1.0576l.8545-.585c.2002.3203.4521.5752.7578.7651.3047.1899.667.2847,1.0869.2847.2002,0,.4004-.0225.6006-.0674s.377-.1147.5322-.21c.1553-.0947.2803-.2173.375-.3677.0947-.1499.1426-.3247.1426-.5249c0-.3496-.1299-.6021-.3896-.7573-.2607-.1548-.5752-.2773-.9453-.3677l-.96-.2251c-.1201-.0298-.2822-.0796-.4873-.1499-.2051-.0698-.4053-.1748-.6006-.3149-.1943-.1396-.3623-.3223-.502-.5474-.1406-.2251-.21-.5024-.21-.8325c0-.3599.0723-.6748.2168-.9448.1455-.27.3398-.4902.5859-.6602.2441-.1699.5215-.2974.832-.3823.3096-.085.6299-.1279.96-.1279.4902,0,.9453.0952,1.3652.2852s.7451.5151.9746.9751l-.8848.585h.0002Z" fill="#fff"/></g><g id="array-cycle-og-u-array-label-2-web" transform="matrix(.48 0 0 0.48 210.230319 152.489098)"><path id="array-cycle-og-s-path51" d="M5.5083,2.6274h2.3218L13.374,15.3715h-3.168L9.1079,12.6713h-4.9497l-1.062,2.7002h-3.0962L5.5083,2.6274Zm1.0796,3.708L5.04,10.2954h3.1143l-1.5664-3.96Z" fill="#fff"/><path id="array-cycle-og-s-path52" d="M14.6519,2.6274h4.7339c.6602,0,1.2842.0605,1.8721.1802.5879.1201,1.1011.3271,1.5391.6211s.7861.6899,1.0439,1.188.3872,1.125.3872,1.8809c0,.7441-.1201,1.3682-.3599,1.8721-.2402.5039-.5703.9062-.9902,1.2061s-.918.5127-1.4941.6387c-.5757.1265-1.1997.1895-1.8721.1895h-2.0518v4.9678h-2.8081v-12.7444ZM17.46,8.0273h1.8721c.252,0,.4951-.0234.729-.0718.2339-.0479.4438-.1289.6299-.2432.186-.1138.3359-.27.4502-.4678.1138-.1982.1709-.4468.1709-.7471c0-.3242-.0752-.585-.2251-.7832-.1499-.1978-.3418-.3506-.5762-.459-.2339-.1079-.4946-.1768-.7827-.207-.2881-.0298-.5645-.0449-.8281-.0449h-1.4399v3.0239Z" fill="#fff"/><path id="array-cycle-og-s-path53" d="M25.9917,2.6274h4.7339c.6602,0,1.2842.0605,1.8721.1802.5879.1201,1.1011.3271,1.5391.6211s.7861.6899,1.0439,1.188.3872,1.125.3872,1.8809c0,.7441-.1201,1.3682-.3599,1.8721-.2402.5039-.5703.9062-.9902,1.2061s-.918.5127-1.4941.6387c-.5757.1265-1.1997.1895-1.8721.1895h-2.0518v4.9678h-2.8081v-12.7444Zm2.8081,5.3999h1.8721c.252,0,.4951-.0234.729-.0718.2339-.0479.4438-.1289.6299-.2432.186-.1138.3359-.27.4502-.4678.1138-.1982.1709-.4468.1709-.7471c0-.3242-.0752-.585-.2251-.7832-.1499-.1978-.3418-.3506-.5762-.459-.2339-.1079-.4946-.1768-.7827-.207-.2881-.0298-.5645-.0449-.8281-.0449h-1.4399v3.0239l-.0001.0001Z" fill="#fff"/><path id="array-cycle-og-s-path54" d="M37.4395,2.6274h2.8081v10.1523h5.2021v2.5918h-8.0103v-12.7441Z" fill="#fff"/><path id="array-cycle-og-s-path55" d="M46.313,8.9995c0-1.0195.1714-1.9438.5132-2.772s.8188-1.5327,1.4312-2.1147c.6118-.582,1.3379-1.0288,2.1777-1.3413.8398-.312,1.7578-.4678,2.7539-.4678s1.9141.1558,2.7544.4678c.8398.3125,1.5659.7593,2.1777,1.3413.6123.582,1.0889,1.2866,1.4312,2.1147.3418.8281.5127,1.7524.5127,2.772s-.1709,1.9438-.5127,2.772c-.3423.8281-.8188,1.5332-1.4312,2.1152-.6118.582-1.3379,1.0288-2.1777,1.3408-.8403.312-1.7583.4683-2.7544.4683s-1.9141-.1562-2.7539-.4683-1.5659-.7588-2.1777-1.3408c-.6123-.582-1.0894-1.2871-1.4312-2.1152s-.5132-1.752-.5132-2.772Zm2.916,0c0,.6001.0928,1.1494.2793,1.647.1855.498.4526.9302.8008,1.2959.3481.3662.7651.6514,1.251.855.4863.2046,1.0288.3062,1.6289.3062s1.1431-.1016,1.6294-.3062c.4858-.2036.9028-.4888,1.251-.855.3477-.3657.6147-.7979.8008-1.2959.186-.4976.2793-1.0469.2793-1.647c0-.5879-.0933-1.1338-.2793-1.6377-.186-.5044-.4531-.939-.8008-1.3052-.3481-.3657-.7651-.6509-1.251-.855-.4863-.2041-1.0293-.3062-1.6294-.3062s-1.1426.1021-1.6289.3062c-.4858.2041-.9028.4893-1.251.855-.3481.3662-.6152.8008-.8008,1.3052-.1865.5039-.2793,1.0498-.2793,1.6377Z" fill="#fff"/><path id="array-cycle-og-s-path56" d="M60.7134,2.6274h3.2041l3.1499,8.3521h.0356l3.2041-8.3521h3.0063L68.0571,15.3715h-2.25L60.7133,2.6274h.0001Z" fill="#fff"/><path id="array-cycle-og-s-path57" d="M74.6089,2.6274h2.8081v12.7441h-2.8081v-12.7441Z" fill="#fff"/><path id="array-cycle-og-s-path58" d="M79.9727,2.6274h3.8154l5.418,8.856h.0361v-8.856h2.8086v12.7441h-3.6719L82.8164,6.2997h-.0361v9.0718h-2.8076v-12.7441Z" fill="#fff"/><path id="array-cycle-og-s-path59" d="M100.0781,2.6274h8.6582v2.5923h-5.8506v2.376h5.5264v2.5918h-5.5264v2.5923h6.1748v2.5918h-8.9824v-12.7442Z" fill="#fff"/><path id="array-cycle-og-s-path60" d="M119.6436,5.9395c-.2754-.3354-.6143-.5938-1.0166-.7739s-.8672-.27-1.3955-.27c-.5273,0-1.0166.1021-1.4668.3062s-.8398.4893-1.1699.855c-.3301.3662-.5879.8008-.7734,1.3052-.1865.5039-.2793,1.0498-.2793,1.6377c0,.6001.0928,1.1494.2793,1.647.1855.498.4404.9302.7646,1.2959.3242.3662.7051.6514,1.1426.855.4385.2046.9092.3062,1.4131.3062.5762,0,1.0859-.1196,1.5303-.3599.4443-.2397.8096-.5762,1.0977-1.0083l2.3408,1.7461c-.54.7563-1.2246,1.314-2.0527,1.6743-.8281.3599-1.6797.54-2.5557.54-.9961,0-1.9141-.1562-2.7539-.4683s-1.5664-.7588-2.1777-1.3408c-.6123-.582-1.0898-1.2871-1.4316-2.1152s-.5127-1.752-.5127-2.772.1709-1.9438.5127-2.772.8193-1.5327,1.4316-2.1147c.6113-.582,1.3379-1.0288,2.1777-1.3413.8398-.312,1.7578-.4678,2.7539-.4678.3604,0,.7354.0332,1.125.0986.3896.0664.7744.1714,1.1523.3154s.7402.3359,1.0889.5757c.3477.2402.6592.5342.9355.8823l-2.1602,1.7637v-.0001Z" fill="#fff"/><path id="array-cycle-og-s-path61" d="M122.9561,8.9995c0-1.0195.1709-1.9438.5127-2.772s.8193-1.5327,1.4316-2.1147c.6113-.582,1.3379-1.0288,2.1777-1.3413.8398-.312,1.7578-.4678,2.7539-.4678s1.9141.1558,2.7539.4678c.8398.3125,1.5664.7593,2.1777,1.3413.6123.582,1.0889,1.2866,1.4316,2.1147.3418.8281.5127,1.7524.5127,2.772s-.1709,1.9438-.5127,2.772c-.3428.8281-.8193,1.5332-1.4316,2.1152-.6113.582-1.3379,1.0288-2.1777,1.3408s-1.7578.4683-2.7539.4683-1.9141-.1562-2.7539-.4683-1.5664-.7588-2.1777-1.3408c-.6123-.582-1.0898-1.2871-1.4316-2.1152s-.5127-1.752-.5127-2.772Zm2.916,0c0,.6001.0928,1.1494.2793,1.647.1855.498.4521.9302.8008,1.2959.3477.3662.7646.6514,1.251.855.4863.2046,1.0283.3062,1.6289.3062.5996,0,1.1426-.1016,1.6289-.3062.4863-.2036.9033-.4888,1.251-.855.3477-.3657.6152-.7979.8008-1.2959.1865-.4976.2793-1.0469.2793-1.647c0-.5879-.0928-1.1338-.2793-1.6377-.1855-.5044-.4531-.939-.8008-1.3052-.3477-.3657-.7646-.6509-1.251-.855s-1.0293-.3062-1.6289-.3062c-.6006,0-1.1426.1021-1.6289.3062s-.9033.4893-1.251.855c-.3486.3662-.6152.8008-.8008,1.3052-.1865.5039-.2793,1.0498-.2793,1.6377Z" fill="#fff"/><path id="array-cycle-og-s-path62" d="M144.916,5.7417c-.2285-.2881-.5381-.501-.9277-.6392-.3896-.1377-.7588-.207-1.1064-.207-.2041,0-.4141.0244-.6299.0723-.2168.0479-.4209.123-.6123.2246-.1924.1021-.3486.2373-.4678.4053-.1201.168-.1807.3721-.1807.6118c0,.3843.1445.6782.4326.8823s.6504.3779,1.0889.522c.4375.144.9092.2876,1.4131.4316s.9746.3481,1.4131.6123c.4375.2642.8008.6182,1.0889,1.062s.4316,1.0381.4316,1.7817c0,.7085-.1318,1.3262-.3955,1.854-.2646.5283-.6211.9663-1.0713,1.314-.4502.3481-.9717.6064-1.5664.7739-.5938.168-1.2207.2524-1.8809.2524-.8281,0-1.5957-.126-2.3037-.3784-.708-.252-1.3682-.6597-1.9805-1.2236l1.998-2.1963c.2881.3843.6514.6812,1.0898.8911.4375.21.8906.3149,1.3584.3149.2275,0,.459-.0269.6934-.0811.2334-.0537.4434-.1348.6299-.2427.1855-.1084.3359-.2461.4502-.4141.1133-.168.1709-.3662.1709-.5942c0-.3838-.1475-.6865-.4414-.9087s-.6631-.4111-1.1064-.5674c-.4443-.1558-.9248-.3115-1.4404-.4678-.5156-.1558-.9961-.3657-1.4395-.6299-.4443-.2642-.8135-.6123-1.1074-1.0439-.2939-.4321-.4414-1.002-.4414-1.7104c0-.6836.1357-1.2837.4053-1.7998.2705-.5156.6299-.9478,1.0801-1.2959s.9688-.6089,1.5566-.7832c.5879-.1738,1.1943-.2607,1.8184-.2607.7197,0,1.416.1021,2.0879.3057.6719.2046,1.2783.5464,1.8184,1.0264l-1.9258,2.106Z" fill="#fff"/><path id="array-cycle-og-s-path63" d="M152.0801,9.9355L147.292,2.6274h3.4912l2.7002,4.77l2.8623-4.77h3.3301l-4.7881,7.3081v5.436h-2.8076v-5.436Z" fill="#fff"/><path id="array-cycle-og-s-path64" d="M166.9121,5.7417c-.2285-.2881-.5381-.501-.9277-.6392-.3896-.1377-.7588-.207-1.1064-.207-.2041,0-.4141.0244-.6299.0723-.2168.0479-.4209.123-.6123.2246-.1924.1021-.3486.2373-.4678.4053-.1201.168-.1807.3721-.1807.6118c0,.3843.1445.6782.4326.8823s.6504.3779,1.0889.522c.4375.144.9092.2876,1.4131.4316s.9746.3481,1.4131.6123c.4375.2642.8008.6182,1.0889,1.062s.4316,1.0381.4316,1.7817c0,.7085-.1318,1.3262-.3955,1.854-.2646.5283-.6211.9663-1.0713,1.314-.4502.3481-.9717.6064-1.5664.7739-.5938.168-1.2207.2524-1.8809.2524-.8281,0-1.5957-.126-2.3037-.3784-.708-.252-1.3682-.6597-1.9805-1.2236l1.998-2.1963c.2881.3843.6514.6812,1.0898.8911.4375.21.8906.3149,1.3584.3149.2275,0,.459-.0269.6934-.0811.2334-.0537.4434-.1348.6299-.2427.1855-.1084.3359-.2461.4502-.4141.1133-.168.1709-.3662.1709-.5942c0-.3838-.1475-.6865-.4414-.9087s-.6631-.4111-1.1064-.5674c-.4443-.1558-.9248-.3115-1.4404-.4678-.5156-.1558-.9961-.3657-1.4395-.6299-.4443-.2642-.8135-.6123-1.1074-1.0439-.2939-.4321-.4414-1.002-.4414-1.7104c0-.6836.1357-1.2837.4053-1.7998.2705-.5156.6299-.9478,1.0801-1.2959s.9688-.6089,1.5566-.7832c.5879-.1738,1.1943-.2607,1.8184-.2607.7197,0,1.416.1021,2.0879.3057.6719.2046,1.2783.5464,1.8184,1.0264l-1.9258,2.106Z" fill="#fff"/><path id="array-cycle-og-s-path65" d="M173.4092,5.1118h-3.6357v-2.4844h10.0801v2.4844h-3.6367v10.2598h-2.8076v-10.2598h-.0001Z" fill="#fff"/><path id="array-cycle-og-s-path66" d="M181.3828,2.6274h8.6582v2.5923h-5.8496v2.376h5.5254v2.5918h-5.5254v2.5923h6.1738v2.5918h-8.9824v-12.7442Z" fill="#fff"/><path id="array-cycle-og-s-path67" d="M192.6152,2.6274h4.248l2.9336,8.3159h.0361l2.9521-8.3159h4.2295v12.7441h-2.8076v-9.7738h-.0361l-3.3477,9.7739h-2.1426l-3.2217-9.7739h-.0361v9.7739h-2.8076v-12.7442h.0001Z" fill="#fff"/><path id="array-cycle-og-s-path68" d="M55.8032,37.4404c0,.4399-.0522.9072-.1572,1.4023s-.3027.9526-.5928,1.3726-.6875.7676-1.1924,1.0425-1.1523.4126-1.9424.4126c-.8003,0-1.4502-.1377-1.9502-.4126s-.895-.6226-1.1851-1.0425-.4873-.8774-.5923-1.3726-.1577-.9624-.1577-1.4023v-6.6602h1.0801v6.54c0,.5103.0503.9478.1504,1.3125.0996.3652.2324.6729.3975.9224.165.2505.3496.4478.5547.5928s.4102.2573.6152.3374c.2046.0801.4023.1328.5923.1577s.355.0371.4951.0371c.1299,0,.2925-.0122.4873-.0371.1953-.0249.395-.0776.6001-.1577s.4102-.1924.6152-.3374c.2046-.145.3896-.3423.5547-.5928.165-.2495.2974-.5571.3975-.9224.1001-.3647.1504-.8022.1504-1.3125v-6.54h1.0796v6.6602Z" fill="#fff"/><path id="array-cycle-og-s-path69" d="M59.0884,34.3804c.02.1899.0322.3774.0376.5625.0049.1851.0073.3726.0073.5625h.0303c.1099-.1899.2495-.3647.4199-.5249.1699-.1602.3599-.2974.5698-.4126.21-.1147.4326-.2046.6675-.27.2349-.0649.4673-.0977.6978-.0977.8999,0,1.5649.2378,1.9951.7129.4297.4751.645,1.1523.645,2.0322v4.4551h-.9902v-3.8848c0-.7803-.1348-1.3774-.4048-1.793-.27-.4146-.7705-.6221-1.5-.6221-.0503,0-.1904.02-.4204.0596-.23.0405-.4722.1504-.7271.3301-.2554.1802-.4829.4502-.6826.8101-.2002.3599-.3003.8604-.3003,1.5v3.6001h-.9897v-5.4751c0-.1899-.0078-.4297-.0225-.7197-.0151-.29-.0327-.5649-.0527-.8252h1.02Z" fill="#fff"/><path id="array-cycle-og-s-path70" d="M66.4834,35.9404c0-.2598-.0078-.52-.0225-.7803-.0151-.2598-.0327-.5195-.0527-.7798h1.0649v1.0649h.0303c.2397-.4097.5723-.7197.9976-.9297.4248-.2104.8472-.3154,1.2676-.3154.1895,0,.3921.0205.6074.0601.2148.04.4224.1128.6226.2178.1997.105.3872.2524.5625.4424.1748.1899.3223.4351.4424.7349.1997-.4497.5176-.8047.9526-1.0649.4346-.2598.8872-.3901,1.3574-.3901.8999,0,1.5649.2378,1.9946.7129.4302.4751.645,1.1523.645,2.0322v4.4551h-.9897v-4.0952c0-.7095-.125-1.2544-.375-1.6348-.25-.3799-.7153-.5698-1.395-.5698-.3701,0-.6802.0723-.9302.2173s-.4526.3374-.6074.5776c-.1553.2397-.2676.5127-.3374.8174-.0703.3052-.105.6226-.105.9526v3.7349h-.9902v-4.0952c0-.7095-.125-1.2544-.375-1.6348-.25-.3799-.7148-.5698-1.395-.5698-.0596,0-.1973.02-.4121.0596-.2153.0405-.438.1504-.6675.3301-.2305.1802-.438.4502-.6226.8101-.1855.3599-.2778.8604-.2778,1.5v3.6001h-.9897v-5.46l-.0001-.0002Z" fill="#fff"/><path id="array-cycle-og-s-path71" d="M83.7637,37.0952v-.1797c0-1.21-.6006-1.8149-1.8008-1.8149-.8193,0-1.5352.2749-2.1445.8247l-.5996-.7051c.6592-.6797,1.6494-1.02,2.9697-1.02.3398,0,.667.0503.9824.1504s.5869.2524.8174.4575.415.4624.5547.7725c.1406.3101.21.6802.21,1.1099v3.1348c0,.27.0127.5527.0381.8477.0244.2949.0527.5376.082.7275h-.96c-.0293-.1699-.0518-.355-.0674-.5552-.0146-.1997-.0225-.3945-.0225-.585h-.0303c-.29.4702-.6318.8076-1.0273,1.0127-.3945.2046-.877.3076-1.4473.3076-.3105,0-.6104-.043-.9004-.1274-.29-.085-.5469-.2153-.7725-.3901-.2246-.1748-.4043-.3901-.54-.645-.1348-.2549-.2021-.5527-.2021-.8926c0-.5698.1475-1.0176.4424-1.3423.2949-.3252.665-.5679,1.1104-.7275.4443-.1602.9199-.2603,1.4248-.3003.5049-.0396.9678-.0601,1.3877-.0601h.4951v-.0001Zm-.5108.8101c-.25,0-.5625.0127-.9375.0376s-.7344.085-1.0791.1802c-.3457.0952-.6406.2422-.8857.4424s-.3672.4751-.3672.8252c0,.23.0469.4272.1426.5923.0947.165.2227.2998.3828.4048.1592.105.3369.1802.5322.2251s.3926.0674.5928.0674c.3594,0,.6719-.0596.9375-.1797.2646-.1201.4873-.2827.667-.4878.1797-.2046.3125-.4448.3975-.7197s.1279-.5674.1279-.8774v-.5103h-.5107l-.0001-.0001Z" fill="#fff"/><path id="array-cycle-og-s-path72" d="M90.6787,35.2803h-2.0254v4.1401c0,.2603.0254.4727.0752.6377.0498.1646.1201.2925.21.3823s.1973.1523.3223.1875.2627.0522.4131.0522c.1699,0,.3447-.0244.5244-.0747.1807-.0498.3457-.1147.4951-.1953l.0449.915c-.3701.1699-.8145.2554-1.335.2554-.1895,0-.3877-.0254-.5928-.0752-.2051-.0503-.3926-.145-.5625-.2852-.1699-.1396-.3096-.3296-.4199-.5698-.1094-.2402-.165-.5552-.165-.9448v-4.4253h-1.4844v-.8999h1.4844v-1.98h.9902v1.98h2.0254v.8999.0001Z" fill="#fff"/><path id="array-cycle-og-s-path73" d="M97.1426,36.0303c-.1699-.2598-.4072-.48-.7119-.6597-.3057-.1802-.6523-.27-1.043-.27-.4102-.0103-.7773.0547-1.1025.1948s-.6025.335-.832.585c-.2305.25-.4053.5474-.5254.8926-.1201.3447-.1797.7178-.1797,1.1177s.0596.7725.1797,1.1172c.1201.3452.2949.6426.5254.8926.2295.25.5068.4453.832.585.3252.1401.6924.2051,1.1025.1948.3906,0,.7373-.0898,1.043-.27.3047-.1797.542-.3994.7119-.6597l.8105.6147c-.3506.4102-.7451.7129-1.1855.9077-.4395.1948-.8994.2974-1.3799.3076-.5693.0098-1.085-.0776-1.5449-.2627s-.8525-.4424-1.1777-.7725c-.3242-.3301-.5723-.7222-.7422-1.1777-.1699-.4546-.2549-.9473-.2549-1.4771c0-.5303.085-1.0225.2549-1.4775s.418-.8477.7422-1.1777c.3252-.3301.7178-.5874,1.1777-.7725s.9756-.2725,1.5449-.2627c.4805.0103.9404.1128,1.3799.3076.4404.1953.835.4976,1.1855.9077l-.8105.6147v.0001Z" fill="#fff"/><path id="array-cycle-og-s-path74" d="M99.2578,30.0605h.9902v5.4448h.0303c.1094-.1899.249-.3647.4199-.5249.1699-.1602.3594-.2974.5693-.4126.21-.1147.4326-.2046.668-.27.2344-.0649.4668-.0977.6973-.0977.9004,0,1.5654.2378,1.9951.7129s.6455,1.1523.6455,2.0322v4.4551h-.9902v-3.8848c0-.7803-.1348-1.3774-.4053-1.793-.2695-.4146-.7705-.6221-1.5-.6221-.0498,0-.1904.02-.4199.0596-.2305.0405-.4727.1504-.7275.3301-.2549.1802-.4824.4502-.6826.8101s-.2998.8604-.2998,1.5v3.6001h-.9902v-11.3398Z" fill="#fff"/><path id="array-cycle-og-s-path75" d="M108.2881,38.1602c.0293.3506.1143.6802.2549.9902.1396.3101.3242.5776.5547.8027.2305.2246.4951.4023.7949.5322s.625.1948.9756.1948c.5293,0,.9873-.1221,1.3721-.3672s.6777-.5273.8779-.8477l.7646.6299c-.4199.5303-.8828.9102-1.3877,1.1401s-1.0479.3452-1.627.3452c-.5205,0-1.0029-.0928-1.4482-.2778-.4443-.1846-.8271-.4424-1.1475-.7725-.3193-.3301-.5723-.7197-.7568-1.1699-.1855-.4502-.2773-.9399-.2773-1.4697c0-.5303.0898-1.02.2695-1.4702s.4297-.8398.75-1.1699.6953-.5874,1.125-.7725.8945-.2778,1.3945-.2778c.5303,0,1.0059.0952,1.4258.2852s.7725.4424,1.0576.7573c.2842.3154.502.6851.6523,1.1104.1494.4248.2246.8774.2246,1.3574v.4497h-5.8496l.0001.0001Zm4.7695-.8096c0-.6699-.2002-1.2124-.5996-1.6279-.4004-.4146-.96-.6221-1.6807-.6221-.3193,0-.6299.0625-.9297.1875s-.5625.2925-.7871.5024c-.2256.21-.4053.4497-.54.7197s-.2031.5503-.2031.8403h4.7402Z" fill="#fff"/><path id="array-cycle-og-s-path76" d="M122.9434,41.4004h-.9902v-1.1699h-.0303c-.1602.2397-.3496.4448-.5693.6147-.2207.1704-.4502.3101-.6904.4204-.2402.1099-.4873.1895-.7422.2397-.2549.0498-.498.0752-.7275.0752-.5498,0-1.0527-.0928-1.5078-.2778-.4551-.1846-.8477-.4424-1.1777-.7725s-.5869-.7197-.7725-1.1699c-.1846-.4502-.2773-.9399-.2773-1.4697c0-.5303.0928-1.02.2773-1.4702.1855-.4502.4424-.8398.7725-1.1699s.7227-.5874,1.1777-.7725.958-.2778,1.5078-.2778c.2295,0,.4727.0254.7275.0752.2549.0503.502.1299.7422.2402.2402.1099.4697.25.6904.4199.2197.1699.4092.375.5693.6147h.0303v-5.4897h.9902v11.3398Zm-6.4053-3.5098c0,.3896.0625.7549.1875,1.0947.125.3403.3027.6353.5322.8853.2305.25.5078.4473.833.5923.3242.145.6924.2173,1.1025.2173.3994,0,.7725-.0723,1.1172-.2173s.6426-.3423.8926-.5923.4453-.5449.585-.8853c.1396-.3398.21-.7051.21-1.0947c0-.3901-.0703-.7554-.21-1.0952s-.335-.6348-.585-.8853c-.25-.2495-.5479-.4473-.8926-.5923s-.7178-.2173-1.1172-.2173c-.4102,0-.7783.0723-1.1025.2173-.3252.145-.6025.3428-.833.5923-.2295.2505-.4072.5454-.5322.8853s-.1875.7051-.1875,1.0952Z" fill="#fff"/><path id="array-cycle-og-s-path77" d="M132.9932,36.0454c-.1504-.29-.3506-.52-.5996-.6899-.251-.1699-.5557-.2549-.915-.2549-.1709,0-.3428.02-.5176.0596-.1758.0405-.333.103-.4727.1875-.1406.0854-.2529.1929-.3379.3228s-.127.29-.127.48c0,.3301.1143.5698.3447.7202.2295.1499.5752.2798,1.0352.3896l1.0049.2402c.4902.1099.8975.3325,1.2227.6675.3242.335.4873.7524.4873,1.2524c0,.3804-.0771.7075-.2324.9824-.1553.2754-.3604.5-.6152.6753-.2549.1748-.5479.3022-.877.3823-.3301.0801-.666.1201-1.0059.1201-.54,0-1.042-.103-1.5068-.3076-.4648-.2051-.8623-.5576-1.1924-1.0576l.8545-.585c.2002.3203.4521.5752.7578.7651.3047.1899.667.2847,1.0869.2847.2002,0,.4004-.0225.6006-.0674s.377-.1147.5322-.21c.1553-.0947.2803-.2173.375-.3677.0947-.1499.1426-.3247.1426-.5249c0-.3496-.1299-.6021-.3896-.7573-.2607-.1548-.5752-.2773-.9453-.3677l-.96-.2251c-.1201-.0298-.2822-.0796-.4873-.1499-.2051-.0698-.4053-.1748-.6006-.3149-.1943-.1396-.3623-.3223-.502-.5474-.1406-.2251-.21-.5024-.21-.8325c0-.3599.0723-.6748.2168-.9448.1455-.27.3398-.4902.5859-.6602.2441-.1699.5215-.2974.832-.3823.3096-.085.6299-.1279.96-.1279.4902,0,.9453.0952,1.3652.2852s.7451.5151.9746.9751l-.8848.585h.0002Z" fill="#fff"/><path id="array-cycle-og-s-path78" d="M140.7773,36.0303c-.1699-.2598-.4072-.48-.7119-.6597-.3057-.1802-.6523-.27-1.043-.27-.4102-.0103-.7773.0547-1.1025.1948s-.6025.335-.832.585c-.2305.25-.4053.5474-.5254.8926-.1201.3447-.1797.7178-.1797,1.1177s.0596.7725.1797,1.1172c.1201.3452.2949.6426.5254.8926.2295.25.5068.4453.832.585.3252.1401.6924.2051,1.1025.1948.3906,0,.7373-.0898,1.043-.27.3047-.1797.542-.3994.7119-.6597l.8105.6147c-.3506.4102-.7451.7129-1.1855.9077-.4395.1948-.8994.2974-1.3799.3076-.5693.0098-1.085-.0776-1.5449-.2627s-.8525-.4424-1.1777-.7725c-.3242-.3301-.5723-.7222-.7422-1.1777-.1699-.4546-.2549-.9473-.2549-1.4771c0-.5303.085-1.0225.2549-1.4775s.418-.8477.7422-1.1777c.3252-.3301.7178-.5874,1.1777-.7725s.9756-.2725,1.5449-.2627c.4805.0103.9404.1128,1.3799.3076.4404.1953.835.4976,1.1855.9077l-.8105.6147v.0001Z" fill="#fff"/><path id="array-cycle-og-s-path79" d="M147.3926,37.0952v-.1797c0-1.21-.5996-1.8149-1.7998-1.8149-.8203,0-1.5352.2749-2.1455.8247l-.5996-.7051c.6602-.6797,1.6504-1.02,2.9697-1.02.3398,0,.668.0503.9824.1504.3154.1001.5879.2524.8184.4575.2295.2051.4141.4624.5547.7725.1396.3101.21.6802.21,1.1099v3.1348c0,.27.0127.5527.0371.8477.0254.2949.0527.5376.083.7275h-.96c-.0303-.1699-.0527-.355-.0674-.5552-.0156-.1997-.0225-.3945-.0225-.585h-.0303c-.29.4702-.6328.8076-1.0273,1.0127-.3955.2046-.8779.3076-1.4482.3076-.3096,0-.6094-.043-.8994-.1274-.29-.085-.5479-.2153-.7725-.3901-.2256-.1748-.4053-.3901-.54-.645s-.2021-.5527-.2021-.8926c0-.5698.1465-1.0176.4424-1.3423.2949-.3252.665-.5679,1.1094-.7275.4453-.1602.9199-.2603,1.4248-.3003.5049-.0396.9678-.0601,1.3877-.0601h.4951l-.0001-.0001Zm-.5098.8101c-.25,0-.5625.0127-.9375.0376s-.7354.085-1.0801.1802-.6396.2422-.8848.4424-.3682.4751-.3682.8252c0,.23.0479.4272.1426.5923.0957.165.2227.2998.3828.4048s.3379.1802.5322.2251c.1953.0449.3926.0674.5928.0674.3604,0,.6729-.0596.9375-.1797s.4873-.2827.668-.4878c.1797-.2046.3115-.4448.3975-.7197.084-.2749.127-.5674.127-.8774v-.5103h-.5098Z" fill="#fff"/><path id="array-cycle-og-s-path80" d="M151.8926,41.4004h-.9893v-11.3398h.9893v11.3398Z" fill="#fff"/><path id="array-cycle-og-s-path81" d="M154.9678,38.1602c.0293.3506.1143.6802.2549.9902.1396.3101.3242.5776.5547.8027.2305.2246.4951.4023.7949.5322s.625.1948.9756.1948c.5293,0,.9873-.1221,1.3721-.3672s.6777-.5273.8779-.8477l.7646.6299c-.4199.5303-.8828.9102-1.3877,1.1401s-1.0479.3452-1.627.3452c-.5205,0-1.0029-.0928-1.4482-.2778-.4443-.1846-.8271-.4424-1.1475-.7725-.3193-.3301-.5723-.7197-.7568-1.1699-.1855-.4502-.2773-.9399-.2773-1.4697c0-.5303.0898-1.02.2695-1.4702s.4297-.8398.75-1.1699.6953-.5874,1.125-.7725.8945-.2778,1.3945-.2778c.5303,0,1.0059.0952,1.4258.2852s.7725.4424,1.0576.7573c.2842.3154.502.6851.6523,1.1104.1494.4248.2246.8774.2246,1.3574v.4497h-5.8496l.0001.0001Zm4.7695-.8096c0-.6699-.2002-1.2124-.5996-1.6279-.4004-.4146-.96-.6221-1.6807-.6221-.3193,0-.6299.0625-.9297.1875s-.5625.2925-.7871.5024c-.2256.21-.4053.4497-.54.7197s-.2031.5503-.2031.8403h4.7402Z" fill="#fff"/></g></svg>
