<svg width="99" height="28" viewBox="0 0 99 28" fill="none" xmlns="http://www.w3.org/2000/svg">
<g clip-path="url(#clip0_236_7163)">
<g clip-path="url(#clip1_236_7163)">
<path d="M23.0748 16.2746L21.8665 14.045L21.4332 14.8433C21.4086 14.8887 21.3816 14.9319 21.3535 14.9741C21.3473 14.9833 21.3412 14.9925 21.3349 15.0015C21.3063 15.0427 21.2763 15.0827 21.2445 15.1206C21.2416 15.1241 21.2385 15.1274 21.2355 15.1308C21.2044 15.1673 21.1717 15.2021 21.1379 15.2354C21.133 15.2402 21.1283 15.2451 21.1233 15.2498C21.0864 15.2853 21.048 15.3187 21.0082 15.3503C21.0054 15.3524 21.0026 15.3544 20.9999 15.3566C20.9167 15.4215 20.8271 15.4779 20.7326 15.5248L20.7296 15.5262C20.4988 15.6346 20.248 15.6939 19.9931 15.7001H9.2358L8.79841 14.8931C8.6372 14.5809 8.56657 14.2299 8.59453 13.8798C8.55996 14.2288 8.63017 14.5802 8.79619 14.8891L15.3989 27.0726C16.0058 28.1924 17.5253 28.1923 18.1321 27.0724L23.0749 17.9498C23.2132 17.6923 23.2856 17.4045 23.2856 17.1122C23.2856 16.8199 23.2132 16.5321 23.0748 16.2746Z" fill="#2155AA"/>
<path d="M26.7572 2.57597e-06L16.8574 0.0178721C16.2947 0.0188891 15.7752 0.338562 15.494 0.856802L14.2031 3.23535H15.1415C15.7042 3.23535 16.2242 3.5541 16.5063 4.07184L21.8688 14.0452L21.5133 14.7004C21.5142 14.6986 21.5153 14.6969 21.5163 14.6952L28.126 2.51602C28.7335 1.39661 27.9725 -0.00219068 26.7572 2.57597e-06Z" fill="#12E3A3"/>
<path d="M8.79533 14.889C8.77323 14.8479 8.7535 14.8059 8.73498 14.7635C8.72927 14.7505 8.72371 14.7374 8.71833 14.7243C8.70184 14.6838 8.68646 14.643 8.67314 14.6016C8.66809 14.586 8.664 14.5702 8.65941 14.5545C8.65095 14.5254 8.64311 14.4962 8.63617 14.4668C8.63097 14.4449 8.62601 14.4231 8.62166 14.401C8.61701 14.3773 8.61333 14.3534 8.60965 14.3294C8.60332 14.2887 8.59841 14.2478 8.59494 14.2067C8.59369 14.1917 8.59248 14.1767 8.59159 14.1617C8.58978 14.1311 8.58838 14.1006 8.58814 14.07C8.57914 13.7612 8.65236 13.4555 8.8003 13.1843L14.1997 3.23523H1.91562C0.7003 3.23523 -0.0584535 4.63546 0.550858 5.75384L5.51419 14.8638C5.79627 15.3816 6.31631 15.7003 6.87895 15.7003H9.23479L8.7974 14.8933C8.79664 14.8919 8.79609 14.8904 8.79533 14.889Z" fill="#2464F2"/>
<path d="M21.3321 15.0017C21.3384 14.9927 21.3445 14.9835 21.3506 14.9743C21.3787 14.9321 21.4058 14.8889 21.4304 14.8435L21.8637 14.0451L16.5012 4.07172C16.2191 3.55397 15.6991 3.23523 15.1364 3.23523H14.1978L8.79839 13.1843C8.65935 13.4476 8.58643 13.7407 8.58594 14.0384C8.58545 14.3362 8.65739 14.6295 8.79556 14.8933L9.23294 15.7003H19.9902C20.2451 15.6941 20.496 15.6349 20.7268 15.5264L20.7297 15.525C20.8243 15.4781 20.9139 15.4217 20.997 15.3568C20.9998 15.3546 21.0026 15.3526 21.0053 15.3505C21.0451 15.319 21.0835 15.2855 21.1205 15.25C21.1254 15.2453 21.1302 15.2404 21.135 15.2356C21.1689 15.2023 21.2015 15.1676 21.2326 15.131C21.2356 15.1276 21.2387 15.1244 21.2417 15.1209C21.2735 15.0829 21.3034 15.043 21.3321 15.0017Z" fill="#357EE1"/>
</g>
<g clip-path="url(#clip2_236_7163)">
<path d="M52.7434 19.2325H47.0909L46.3297 21.6212H42.5234L47.7034 6.39624H52.1397L57.3197 21.6212H53.5134L52.7522 19.2325H52.7434ZM51.7022 15.9687L49.9172 10.3775L48.1322 15.9687H51.7022Z" fill="black"/>
<path d="M65.0353 10.5262V14.2275C63.6878 14.0087 61.7716 14.5512 61.7716 16.7037V21.6212H58.5078V10.745H61.7716V12.6787C62.2091 11.2262 63.6616 10.5262 65.0353 10.5262Z" fill="black"/>
<path d="M73.0744 10.5262V14.2275C71.7269 14.0087 69.8106 14.5512 69.8106 16.7037V21.6212H66.5469V10.745H69.8106V12.6787C70.2481 11.2262 71.7006 10.5262 73.0744 10.5262Z" fill="black"/>
<path d="M85.4331 10.745V21.6213H82.1694V20.5975C81.4519 21.42 80.3844 21.9275 78.9319 21.9275C76.0794 21.9275 73.7344 19.425 73.7344 16.1875C73.7344 12.95 76.0794 10.4475 78.9319 10.4475C80.3931 10.4475 81.4519 10.9463 82.1694 11.7775V10.7538H85.4331V10.745ZM82.1694 16.1788C82.1694 14.5513 81.0844 13.5275 79.5794 13.5275C78.0744 13.5275 76.9894 14.5513 76.9894 16.1788C76.9894 17.8063 78.0744 18.83 79.5794 18.83C81.0844 18.83 82.1694 17.8063 82.1694 16.1788Z" fill="black"/>
<path d="M98.1488 10.745L94.43 21.2975C93.2138 24.7537 91.28 26.1275 88.235 25.97V22.925C89.7575 22.925 90.475 22.4437 90.9563 21.1225L86.625 10.745H90.2125L92.6275 17.4037L94.675 10.745H98.1575H98.1488Z" fill="black"/>
</g>
</g>
<defs>
<clipPath id="clip0_236_7163">
<rect width="98" height="28" fill="white" transform="translate(0.335938)"/>
</clipPath>
<clipPath id="clip1_236_7163">
<rect width="28" height="28" fill="white" transform="translate(0.335938)"/>
</clipPath>
<clipPath id="clip2_236_7163">
<rect width="56" height="28" fill="white" transform="translate(42.3359)"/>
</clipPath>
</defs>
</svg>
