<svg width="32" height="32" viewBox="0 0 32 32" fill="none" xmlns="http://www.w3.org/2000/svg">
<g id="UI icon/arrow_down">
<path id="Vector" d="M27.0609 14.94C26.4809 14.36 25.5209 14.36 24.9409 14.94L17.5009 22.38V6C17.5009 5.18 16.8209 4.5 16.0009 4.5C15.1809 4.5 14.5009 5.18 14.5009 6V22.38L7.06085 14.94C6.48085 14.36 5.52086 14.36 4.94086 14.94C4.36086 15.52 4.36086 16.48 4.94086 17.06L14.9409 27.06C15.2409 27.36 15.6209 27.5 16.0009 27.5C16.3809 27.5 16.7609 27.36 17.0609 27.06L27.0609 17.06C27.6409 16.48 27.6409 15.52 27.0609 14.94Z" />
</g>
</svg>
