<svg width="16" height="16" viewBox="0 0 16 16" fill="none" xmlns="http://www.w3.org/2000/svg">
<g id="UI icon/arrow_forward">
<path id="Vector" d="M13.53 7.46994L8.53 2.46994C8.24 2.17994 7.76 2.17994 7.47 2.46994C7.18 2.75994 7.18 3.23994 7.47 3.52994L11.19 7.24994H3C2.59 7.24994 2.25 7.58994 2.25 7.99994C2.25 8.40994 2.59 8.74994 3 8.74994H11.19L7.47 12.4699C7.18 12.7599 7.18 13.2399 7.47 13.5299C7.62 13.6799 7.81 13.7499 8 13.7499C8.19 13.7499 8.38 13.6799 8.53 13.5299L13.53 8.52994C13.82 8.23994 13.82 7.75994 13.53 7.46994Z" fill="#00B6E0"/>
</g>
</svg>
