<svg width="32" height="32" viewBox="0 0 32 32" fill="none" xmlns="http://www.w3.org/2000/svg">
<g id="UI icon/arrow_up">
<path id="Vector" d="M27.0609 14.94L17.0609 4.94C16.4809 4.36 15.5209 4.36 14.9409 4.94L4.94086 14.94C4.36086 15.52 4.36086 16.48 4.94086 17.06C5.52086 17.64 6.48086 17.64 7.06086 17.06L14.5009 9.62V26C14.5009 26.82 15.1809 27.5 16.0009 27.5C16.8209 27.5 17.5009 26.82 17.5009 26V9.62L24.9409 17.06C25.2409 17.36 25.6209 17.5 26.0009 17.5C26.3809 17.5 26.7609 17.36 27.0609 17.06C27.6409 16.48 27.6409 15.52 27.0609 14.94Z" />
</g>
</svg>
