<svg width="169" height="32" viewBox="0 0 169 32" fill="none" xmlns="http://www.w3.org/2000/svg">
<g clip-path="url(#clip0_7971_38452)">
<path d="M59.8714 21.9759H53.4887L52.6297 24.7111H48.334L54.1759 7.30731H59.1834L65.0254 24.7111H60.7296L59.8714 21.9759ZM58.6934 18.2464L56.6809 11.8563L54.6684 18.2464H58.6934Z" fill="black"/>
<path d="M77.8649 12.2789V24.7103H74.1827V23.5419C73.52 24.4617 72.2921 25.0583 70.6723 25.0583C68.1927 25.0583 66.082 23.2685 66.082 19.9119V12.2789H69.7642V19.365C69.7642 20.9062 70.7214 21.6271 71.8994 21.6271C73.2501 21.6271 74.1827 20.8316 74.1827 19.0667V12.2789H77.8649Z" fill="black"/>
<path d="M93.1515 7.30641V24.7102H89.4693V23.5419C88.6594 24.4865 87.4568 25.0582 85.8116 25.0582C82.5957 25.0582 79.9443 22.1987 79.9443 18.4941C79.9443 14.7894 82.5957 11.93 85.8116 11.93C87.456 11.93 88.6594 12.5017 89.4693 13.4463V7.3056L93.1515 7.30641ZM89.4693 18.4949C89.4693 16.6297 88.2421 15.4614 86.5479 15.4614C84.8545 15.4614 83.6273 16.6297 83.6273 18.4949C83.6273 20.36 84.8545 21.5284 86.5479 21.5284C88.2421 21.5284 89.4693 20.36 89.4693 18.4949Z" fill="black"/>
<path d="M95.4795 8.94798C95.4795 7.72994 96.4857 6.70996 97.6891 6.70996C98.8925 6.70996 99.8988 7.72914 99.8988 8.94798C99.8988 10.166 98.8925 11.186 97.6891 11.186C96.4857 11.186 95.4795 10.166 95.4795 8.94798ZM95.8476 12.2789H99.5298V24.7103H95.8476V12.2789Z" fill="black"/>
<path d="M108.465 21.7273C109.472 21.7273 110.331 21.3296 110.822 20.7827L113.768 22.4979C112.565 24.1883 110.749 25.0591 108.416 25.0591C104.219 25.0591 101.617 22.1996 101.617 18.495C101.617 14.7904 104.269 11.9309 108.147 11.9309C111.731 11.9309 114.382 14.7399 114.382 18.495C114.382 19.017 114.333 19.5142 114.235 19.9865H105.52C105.986 21.2791 107.115 21.7273 108.465 21.7273ZM110.723 17.2024C110.331 15.7606 109.225 15.2378 108.121 15.2378C106.722 15.2378 105.789 15.9338 105.446 17.2024H110.723Z" fill="black"/>
<path d="M128.245 17.078V24.711H124.564V17.6249C124.564 16.0837 123.606 15.3628 122.428 15.3628C121.077 15.3628 120.145 16.1582 120.145 17.9232V24.711H116.463V12.2788H120.145V13.4471C120.808 12.5274 122.035 11.9308 123.655 11.9308C126.134 11.9308 128.245 13.7214 128.245 17.078Z" fill="black"/>
<path d="M130.159 18.4951C130.159 14.7904 132.932 11.931 136.664 11.931C139.045 11.931 141.156 13.1995 142.212 15.1136L138.996 17.0028C138.579 16.1328 137.695 15.6107 136.615 15.6107C135.019 15.6107 133.841 16.7799 133.841 18.4951C133.841 20.2103 135.019 21.3794 136.615 21.3794C137.695 21.3794 138.603 20.8574 138.996 19.9873L142.212 21.8525C141.157 23.7914 139.07 25.06 136.664 25.06C132.932 25.0584 130.159 22.1989 130.159 18.4951Z" fill="black"/>
<path d="M149.669 21.7273C150.676 21.7273 151.535 21.3296 152.026 20.7827L154.972 22.4979C153.77 24.1882 151.954 25.0591 149.621 25.0591C145.424 25.0591 142.821 22.1996 142.821 18.4949C142.821 14.7903 145.473 11.9308 149.351 11.9308C152.935 11.9308 155.586 14.7398 155.586 18.4949C155.586 19.017 155.537 19.5141 155.439 19.9864H146.724C147.19 21.279 148.32 21.7273 149.669 21.7273ZM151.927 17.2023C151.535 15.7606 150.43 15.2378 149.326 15.2378C147.926 15.2378 146.994 15.9338 146.65 17.2023H151.927Z" fill="black"/>
<path d="M168.348 20.0611H164.42V24.0392H160.983V20.0611H157.056V16.5802H160.983V12.6021H164.42V16.5802H168.348V20.0611Z" fill="black"/>
<path d="M6.39844 10.8539V2.74173C6.39844 1.06969 7.88323 -0.213541 9.53763 0.0296647L27.4128 2.65213V10.8539H6.39844Z" fill="#AF0E91"/>
<path d="M5.4375 11.6877H29.4967V5.10674C29.4967 3.3563 27.7367 2.15467 26.1063 2.79149L5.4375 10.8637V11.6877Z" fill="#FC326C"/>
<path d="M5.6589 32.0001H29.4877C31.0605 32.0001 32.3341 30.7249 32.3341 29.1536V13.7005C32.3341 12.1276 31.0589 10.854 29.4877 10.854H5.6589C4.0861 10.854 2.8125 12.1292 2.8125 13.7005V29.1536C2.8109 30.7249 4.0861 32.0001 5.6589 32.0001Z" fill="#FF9E1D"/>
<path d="M2.21878 19.7581H15.0076V15.9868H2.21878C1.17718 15.9868 0.333984 16.8316 0.333984 17.8717C0.333984 18.9133 1.17878 19.7581 2.21878 19.7581Z" fill="#FCDB9B"/>
</g>
<defs>
<clipPath id="clip0_7971_38452">
<rect width="168" height="32" fill="white" transform="translate(0.333984)"/>
</clipPath>
</defs>
</svg>
