<svg width="168" height="32" viewBox="0 0 168 32" fill="none" xmlns="http://www.w3.org/2000/svg">
<g clip-path="url(#clip0_4151_2010)">
<path d="M59.5374 21.9759H53.1548L52.2958 24.7111H48L53.842 7.30731H58.8495L64.6914 24.7111H60.3956L59.5374 21.9759ZM58.3594 18.2464L56.3469 11.8563L54.3344 18.2464H58.3594Z" fill="black"/>
<path d="M77.5309 12.2789V24.7103H73.8487V23.5419C73.1861 24.4617 71.9581 25.0583 70.3383 25.0583C67.8587 25.0583 65.748 23.2685 65.748 19.9119V12.2789H69.4302V19.365C69.4302 20.9062 70.3874 21.6271 71.5655 21.6271C72.9161 21.6271 73.8487 20.8316 73.8487 19.0667V12.2789H77.5309Z" fill="black"/>
<path d="M92.8175 7.30641V24.7102H89.1353V23.5419C88.3254 24.4865 87.1228 25.0582 85.4776 25.0582C82.2618 25.0582 79.6104 22.1987 79.6104 18.4941C79.6104 14.7894 82.2618 11.93 85.4776 11.93C87.122 11.93 88.3254 12.5017 89.1353 13.4463V7.3056L92.8175 7.30641ZM89.1353 18.4949C89.1353 16.6297 87.9082 15.4614 86.2139 15.4614C84.5205 15.4614 83.2933 16.6297 83.2933 18.4949C83.2933 20.36 84.5205 21.5284 86.2139 21.5284C87.9082 21.5284 89.1353 20.36 89.1353 18.4949Z" fill="black"/>
<path d="M95.1455 8.94798C95.1455 7.72994 96.1518 6.70996 97.3551 6.70996C98.5585 6.70996 99.5648 7.72914 99.5648 8.94798C99.5648 10.166 98.5585 11.186 97.3551 11.186C96.1518 11.186 95.1455 10.166 95.1455 8.94798ZM95.5136 12.2789H99.1958V24.7103H95.5136V12.2789Z" fill="black"/>
<path d="M108.131 21.7273C109.138 21.7273 109.997 21.3296 110.488 20.7827L113.434 22.4979C112.231 24.1883 110.415 25.0591 108.082 25.0591C103.885 25.0591 101.283 22.1996 101.283 18.495C101.283 14.7904 103.935 11.9309 107.813 11.9309C111.397 11.9309 114.048 14.7399 114.048 18.495C114.048 19.017 113.999 19.5142 113.901 19.9865H105.186C105.652 21.2791 106.781 21.7273 108.131 21.7273ZM110.389 17.2024C109.997 15.7606 108.891 15.2378 107.787 15.2378C106.388 15.2378 105.455 15.9338 105.112 17.2024H110.389Z" fill="black"/>
<path d="M127.911 17.078V24.711H124.23V17.6249C124.23 16.0837 123.272 15.3628 122.094 15.3628C120.743 15.3628 119.811 16.1582 119.811 17.9232V24.711H116.129V12.2788H119.811V13.4471C120.474 12.5274 121.701 11.9308 123.321 11.9308C125.8 11.9308 127.911 13.7214 127.911 17.078Z" fill="black"/>
<path d="M129.825 18.4951C129.825 14.7904 132.599 11.931 136.33 11.931C138.711 11.931 140.822 13.1995 141.878 15.1136L138.662 17.0028C138.245 16.1328 137.361 15.6107 136.282 15.6107C134.685 15.6107 133.507 16.7799 133.507 18.4951C133.507 20.2103 134.685 21.3794 136.282 21.3794C137.361 21.3794 138.269 20.8574 138.662 19.9873L141.878 21.8525C140.823 23.7914 138.736 25.06 136.33 25.06C132.599 25.0584 129.825 22.1989 129.825 18.4951Z" fill="black"/>
<path d="M149.336 21.7273C150.342 21.7273 151.201 21.3296 151.692 20.7827L154.638 22.4979C153.436 24.1882 151.62 25.0591 149.287 25.0591C145.09 25.0591 142.487 22.1996 142.487 18.4949C142.487 14.7903 145.139 11.9308 149.017 11.9308C152.601 11.9308 155.252 14.7398 155.252 18.4949C155.252 19.017 155.203 19.5141 155.105 19.9864H146.39C146.856 21.279 147.986 21.7273 149.336 21.7273ZM151.593 17.2023C151.201 15.7606 150.096 15.2378 148.992 15.2378C147.592 15.2378 146.66 15.9338 146.316 17.2023H151.593Z" fill="black"/>
<path d="M168.014 20.0611H164.086V24.0392H160.649V20.0611H156.722V16.5802H160.649V12.6021H164.086V16.5802H168.014V20.0611Z" fill="black"/>
<path d="M6.06445 10.8539V2.74173C6.06445 1.06969 7.54925 -0.213541 9.20365 0.0296647L27.0788 2.65213V10.8539H6.06445Z" fill="#AF0E91"/>
<path d="M5.10449 11.6874H29.1637V5.1065C29.1637 3.35606 27.4037 2.15443 25.7733 2.79124L5.10449 10.8634V11.6874Z" fill="#FC326C"/>
<path d="M5.32491 32.0001H29.1537C30.7265 32.0001 32.0001 30.7249 32.0001 29.1536V13.7005C32.0001 12.1276 30.7249 10.854 29.1537 10.854H5.32491C3.75212 10.854 2.47852 12.1292 2.47852 13.7005V29.1536C2.47692 30.7249 3.75212 32.0001 5.32491 32.0001Z" fill="#FF9E1D"/>
<path d="M1.8848 19.7581H14.6736V15.9868H1.8848C0.843199 15.9868 0 16.8316 0 17.8717C0 18.9133 0.844799 19.7581 1.8848 19.7581Z" fill="#FCDB9B"/>
</g>
<defs>
<clipPath id="clip0_4151_2010">
<rect width="168" height="32" fill="white"/>
</clipPath>
</defs>
</svg>
