<svg width="92" height="28" viewBox="0 0 92 28" fill="none" xmlns="http://www.w3.org/2000/svg">
<g clip-path="url(#clip0_236_7206)">
<path d="M51.952 18.9769H46.4075L45.6613 21.3227H41.9297L47.0044 6.39624H51.3543L56.4291 21.3227H52.6975L51.952 18.9769ZM50.9286 15.7783L49.1804 10.2977L47.4322 15.7783H50.9286Z" fill="black"/>
<path d="M64.2744 21.3228L62.2917 18.5079L60.3083 21.3228H56.6406L60.4575 15.9069L56.7685 10.6616H60.4362L62.2917 13.3059L64.1465 10.6616H67.8141L64.1252 15.9069L67.9421 21.3228H64.2744Z" fill="black"/>
<path d="M67.8327 15.9915C67.8327 12.8142 70.3491 10.3617 73.4838 10.3617C76.6185 10.3617 79.1342 12.8142 79.1342 15.9915C79.1342 19.1688 76.6178 21.6212 73.4838 21.6212C70.3498 21.6212 67.8327 19.1688 67.8327 15.9915ZM75.9356 15.9915C75.9356 14.4771 74.8696 13.4751 73.4838 13.4751C72.098 13.4751 71.0314 14.4771 71.0314 15.9915C71.0314 17.5059 72.0973 18.5079 73.4838 18.5079C74.8703 18.5079 75.9356 17.5059 75.9356 15.9915Z" fill="black"/>
<path d="M91.1806 14.7763V21.3228H87.9819V15.2453C87.9819 13.9235 87.1505 13.3052 86.1271 13.3052C84.9545 13.3052 84.1437 13.9875 84.1437 15.5011V21.3228H80.9458V10.6609H84.1437V11.6629C84.7193 10.8741 85.786 10.3624 87.1931 10.3624C89.3464 10.3624 91.1806 11.8974 91.1806 14.7763Z" fill="black"/>
<g clip-path="url(#clip1_236_7206)">
<path d="M4.85334 15.9094L5.27332 14.9448C6.16928 12.9582 8.57716 12.0496 10.6155 12.9176L24.7156 18.9698C26.7539 19.8378 27.6862 22.194 26.7917 24.1806L26.3703 25.1452C25.4743 27.1332 23.0664 28.0404 21.0281 27.1724L6.92804 21.1202C4.86174 20.2536 3.95739 17.896 4.85194 15.9094H4.85334Z" fill="#E6AD3E"/>
<path d="M21.7432 21.1202L7.64312 27.1724C5.60482 28.0404 3.19694 27.1318 2.30099 25.1452L1.87961 24.1806C0.983652 22.194 1.91741 19.8364 3.9557 18.9698L18.0558 12.9176C20.0941 12.0496 22.502 12.9582 23.3979 14.9448L23.8179 15.9094C24.7139 17.896 23.8081 20.2536 21.7418 21.1202H21.7432Z" fill="#E27600"/>
<path d="M27.8845 21.5905L18.7471 2.95093C19.1153 3.90013 19.1027 4.97113 18.5861 6.03373L14.3359 14.7039L19.6067 25.4573C20.6972 27.6987 23.4369 28.6241 25.73 27.5587C28.0231 26.4933 28.9736 23.8039 27.8831 21.5905H27.8845Z" fill="#FFC045"/>
<path d="M18.747 2.95096L18.544 2.53656C18.4852 2.41616 18.4208 2.30136 18.3522 2.18936C17.5262 0.814556 16.0395 0.0235559 14.4814 -0.000244141C14.4324 -0.000244141 14.2378 -0.000244141 14.1902 -0.000244141C12.5047 0.0249559 10.9004 0.947556 10.1276 2.53656L0.787267 21.5906C-0.303279 23.804 0.647274 26.4934 2.94036 27.5588C5.23345 28.6228 7.97311 27.6988 9.06366 25.4574L14.3344 14.704L18.5846 6.03376C19.1012 4.97116 19.1138 3.90016 18.7456 2.95096H18.747Z" fill="#FF9E1D"/>
</g>
</g>
<defs>
<clipPath id="clip0_236_7206">
<rect width="91" height="28" fill="white" transform="translate(0.335938)"/>
</clipPath>
<clipPath id="clip1_236_7206">
<rect width="27.9986" height="28" fill="white" transform="translate(0.335938 -0.000244141)"/>
</clipPath>
</defs>
</svg>
