<svg width="77" height="24" viewBox="0 0 77 24" fill="none" xmlns="http://www.w3.org/2000/svg">
<g id="Frame" clip-path="url(#clip0_2504_49)">
<path id="Vector" d="M64.9754 0.766968C61.9858 0.768466 59.119 1.9536 57.005 4.062C54.891 6.1704 53.7027 9.02958 53.7012 12.0113C53.7027 14.9925 54.8912 17.8511 57.0053 19.9586C59.1195 22.0661 61.9863 23.25 64.9754 23.25C67.964 23.25 70.8302 22.0659 72.9435 19.9583C75.0568 17.8506 76.244 14.992 76.244 12.0113C76.244 9.0301 75.057 6.17091 72.9439 4.06235C70.8308 1.95379 67.9646 0.768467 64.9754 0.766968ZM64.9754 18.4956C64.1216 18.4956 63.2762 18.3279 62.4874 18.002C61.6986 17.6761 60.9819 17.1985 60.3781 16.5964C59.7744 15.9943 59.2955 15.2794 58.9688 14.4927C58.642 13.706 58.4739 12.8628 58.4739 12.0113C58.4731 11.1596 58.6408 10.316 58.9673 9.529C59.2937 8.74195 59.7726 8.02684 60.3765 7.42457C60.9803 6.82229 61.6974 6.34468 62.4865 6.01908C63.2756 5.69348 64.1214 5.52626 64.9754 5.52701C66.6997 5.52701 68.3534 6.21018 69.5727 7.42622C70.792 8.64226 71.477 10.2916 71.477 12.0113C71.4755 13.7306 70.79 15.379 69.571 16.5948C68.3521 17.8105 66.6993 18.4941 64.9754 18.4956Z" fill="#999999"/>
<path id="Vector_2" d="M38.8279 5.80399C39.4457 5.61915 40.0874 5.5258 40.7325 5.52697C40.0864 5.50911 39.442 5.60284 38.8279 5.80399ZM37.8076 1.157C38.2914 1.0249 38.7839 0.926679 39.2814 0.863037C38.7838 0.91542 38.2911 1.00614 37.8076 1.13439V1.157Z" fill="#999999"/>
<path id="Vector_3" d="M32.1277 4.75244L31.9519 4.96727L31.8442 5.10294C31.9066 5.01249 31.9803 4.92205 32.054 4.8316C32.0755 4.80257 32.1002 4.77601 32.1277 4.75244Z" fill="#999999"/>
<path id="Vector_4" d="M32.054 4.83167L31.9519 4.96734L31.8442 5.10301C31.9066 5.01256 31.9803 4.92212 32.054 4.83167Z" fill="#999999"/>
<path id="Vector_5" d="M32.1277 4.75244L31.9519 4.96727L31.8442 5.10294C31.9066 5.01249 31.9803 4.92205 32.054 4.8316C32.0755 4.80257 32.1002 4.77601 32.1277 4.75244Z" fill="#999999"/>
<path id="Vector_6" d="M37.796 6.25061C37.3955 6.47408 37.016 6.73333 36.6624 7.02512C36.1928 7.40125 35.772 7.83423 35.4097 8.31407C35.5633 8.09521 35.7299 7.88566 35.9085 7.68655C35.9992 7.58479 36.0899 7.49433 36.1806 7.40388C36.6567 6.93926 37.2015 6.5503 37.796 6.25061Z" fill="#999999"/>
<path id="Vector_7" d="M38.2215 6.0415C38.0741 6.10369 37.9381 6.18283 37.7964 6.25067C37.9381 6.17718 38.0798 6.10369 38.2215 6.0415Z" fill="#999999"/>
<path id="Vector_8" d="M44.1616 6.49936L43.7761 6.30715C43.0154 5.92382 42.1952 5.67151 41.3501 5.56091C42.348 5.64971 43.3111 5.97117 44.1616 6.49936Z" fill="#999999"/>
<path id="Vector_9" d="M46.6783 2.45724C45.2437 1.566 43.6258 1.00945 41.9453 0.829102C43.4871 0.98178 44.9787 1.45968 46.3212 2.23111C46.4459 2.3046 46.565 2.37809 46.6783 2.45724Z" fill="#999999"/>
<path id="Vector_10" d="M52.0009 12.0113C52.0038 13.4551 51.7247 14.8857 51.179 16.223V16.2682C50.333 18.3339 48.889 20.1013 47.0313 21.3448C45.1737 22.5884 42.9866 23.2517 40.7493 23.25C38.268 23.2593 35.8529 22.4515 33.8789 20.952C31.905 19.4524 30.4825 17.345 29.8322 14.9567L29.7472 14.6344C29.7131 14.4931 29.6791 14.3574 29.6508 14.2161C29.1136 11.6596 29.5012 8.99599 30.7448 6.69724C31.0161 6.20561 31.327 5.73673 31.6744 5.29522L31.7481 5.19347C31.7694 5.16087 31.7941 5.13055 31.8217 5.10301L31.9294 4.96734L32.1052 4.75251C32.2129 4.62249 32.3262 4.49247 32.4453 4.3681L32.4849 4.32288L32.825 3.97802L33.1821 3.65014C33.2898 3.55403 33.4032 3.45227 33.5166 3.36182C33.6299 3.27136 33.7433 3.1696 33.8567 3.0848C33.97 3 34.2194 2.81345 34.4235 2.68908C34.6276 2.5647 34.894 2.3838 35.1377 2.24812C35.3814 2.11244 35.5061 2.0446 35.7045 1.95415L36.0446 1.79021C36.2714 1.68845 36.5038 1.59234 36.7362 1.50189L37.0933 1.37751L37.4504 1.2588L37.8131 1.15704C38.2969 1.02494 38.7894 0.926714 39.2869 0.863072L39.6497 0.817845C40.0049 0.783926 40.362 0.766968 40.721 0.766968C40.9874 0.766968 41.2481 0.766961 41.5145 0.795227L41.917 0.829154C43.5975 1.0095 45.2154 1.56606 46.65 2.45729C47.7383 3.22048 48.1181 4.22111 47.727 5.3348C47.531 5.86797 47.1499 6.31343 46.6528 6.59036C46.1557 6.86729 45.5755 6.95736 45.0176 6.84423C44.7042 6.7665 44.4029 6.64669 44.122 6.48807C43.2648 5.95653 42.2936 5.63494 41.2878 5.54963L40.9477 5.52137C40.8552 5.51571 40.7625 5.51571 40.67 5.52137C40.0239 5.50351 39.3795 5.59722 38.7654 5.79837H38.7031L38.431 5.90013C38.3383 5.93298 38.2475 5.97072 38.1589 6.0132C37.3888 6.32597 36.6892 6.7892 36.1013 7.37564C36.0106 7.46609 35.9199 7.55654 35.8292 7.6583C35.6506 7.85742 35.4841 8.06695 35.3304 8.28581L35.2567 8.38756C34.6687 9.26418 34.3065 10.272 34.2024 11.3216C34.1968 11.3496 34.1968 11.3784 34.2024 11.4064C34.1668 12.1138 34.2472 12.8222 34.4405 13.5038C35.166 16.1834 37.0423 17.7437 39.7914 18.2299C41.2195 18.4282 42.6734 18.152 43.9285 17.4439C45.1835 16.7358 46.1698 15.6352 46.7351 14.3122C45.5617 14.3122 44.2693 14.3122 43.1697 14.3122C41.3445 14.2726 40.3355 13.3964 40.3355 11.8983C40.3355 10.4001 41.3162 9.56911 43.1697 9.55215C44.343 9.55215 45.5107 9.55215 46.6784 9.55215C47.5399 9.55215 48.3789 9.55215 49.2461 9.55215C50.8899 9.58042 51.7572 10.304 51.9215 11.723C52.0009 11.8304 52.0009 11.9209 52.0009 12.0113Z" fill="#999999"/>
<path id="Vector_11" d="M51.1792 16.223C51.7249 14.8857 52.004 13.4551 52.0011 12.0113C52.0011 11.9209 52.0011 11.8304 52.0011 11.7456C52.0255 11.9538 52.0349 12.1636 52.0294 12.3731C51.9976 13.6991 51.7089 15.0064 51.1792 16.223Z" fill="#999999"/>
<path id="Vector_12" d="M67.1639 11.3103L64.5565 9.81221C64.4502 9.75036 64.3294 9.71765 64.2064 9.71741C64.0834 9.71717 63.9624 9.74939 63.8559 9.81083C63.7494 9.87227 63.6611 9.96072 63.6 10.0672C63.5389 10.1737 63.5071 10.2944 63.5078 10.4171V13.4133C63.5088 13.5354 63.5416 13.6551 63.6032 13.7605C63.6647 13.866 63.7528 13.9537 63.8588 14.0148C63.9647 14.0759 64.0848 14.1083 64.2071 14.1089C64.3295 14.1095 64.4499 14.0783 64.5565 14.0182L67.1639 12.5201C67.2697 12.4583 67.3575 12.37 67.4185 12.2638C67.4794 12.1577 67.5115 12.0375 67.5115 11.9152C67.5115 11.7929 67.4794 11.6727 67.4185 11.5666C67.3575 11.4605 67.2697 11.3721 67.1639 11.3103Z" fill="#999999"/>
<path id="Vector_13" d="M18.4449 12.5879C18.3712 12.392 18.3426 12.182 18.3613 11.9736C18.3799 11.7652 18.4453 11.5636 18.5525 11.3837C21.4604 6.44844 18.2805 0.834746 12.4875 0.766906C9.3869 0.732987 6.29201 0.766906 3.19145 0.766906C0.822098 0.766906 0.0285346 1.56966 0.0285346 3.92142C0.0285346 9.33725 0.0625444 14.7531 0.0285346 20.1689C0.00781308 20.7045 0.108569 21.2379 0.323289 21.7292C0.331518 21.7649 0.344878 21.7991 0.362962 21.831C0.547371 22.1871 0.797351 22.5055 1.09984 22.7694C1.42854 23.0227 1.82069 23.1811 2.2335 23.2273H2.42056L14.4147 23.1708L14.7208 23.086C15.0328 22.9951 15.3378 22.8817 15.6334 22.7468C16.5478 22.3275 17.3593 21.7139 18.0111 20.9492C18.663 20.1844 19.1395 19.2868 19.4072 18.3193C19.675 17.3517 19.7276 16.3374 19.5614 15.3474C19.3952 14.3575 19.0141 13.4157 18.4449 12.5879ZM5.01664 5.58914C7.68074 5.58914 10.1918 5.54392 12.6972 5.58914C12.9608 5.57204 13.2251 5.60932 13.4736 5.69866C13.7221 5.788 13.9494 5.92747 14.1415 6.10837C14.3335 6.28927 14.486 6.50772 14.5896 6.75007C14.6932 6.99242 14.7456 7.25347 14.7435 7.51691C14.7813 7.7805 14.7612 8.04913 14.6847 8.30422C14.6081 8.55931 14.4768 8.79476 14.3 8.99425C14.1232 9.19374 13.905 9.35251 13.6605 9.45956C13.416 9.56662 13.1512 9.61941 12.8842 9.61426C10.2882 9.71602 7.68641 9.64818 5.01664 9.64818V5.58914ZM5.01664 18.5295V14.5722C7.73176 14.5722 10.3845 14.51 13.0316 14.6004C13.2726 14.6055 13.51 14.6602 13.7287 14.7612C13.9474 14.8622 14.1428 15.0073 14.3026 15.1873C14.4623 15.3674 14.583 15.5785 14.6569 15.8073C14.7308 16.0361 14.7564 16.2777 14.7321 16.5169C14.7557 16.7684 14.7266 17.022 14.6466 17.2617C14.5665 17.5013 14.4374 17.7218 14.2673 17.9089C14.0972 18.0961 13.89 18.2459 13.6587 18.3488C13.4274 18.4518 13.1772 18.5056 12.9239 18.5069C11.8243 18.5521 10.7246 18.5634 9.61364 18.5634C8.11154 18.5521 6.59243 18.5295 5.02231 18.5295H5.01664Z" fill="#999999"/>
<path id="Vector_14" d="M1.07694 22.7752C1.40563 23.0285 1.79779 23.1869 2.2106 23.2331C1.79645 23.1923 1.40285 23.0333 1.07694 22.7752C0.757832 22.5302 0.507855 22.2068 0.3514 21.8367C0.337535 21.8037 0.326159 21.7697 0.317383 21.735C0.325612 21.7706 0.338981 21.8049 0.357065 21.8367C0.536417 22.1915 0.780554 22.5097 1.07694 22.7752Z" fill="#999999"/>
<path id="Vector_15" d="M14.7094 23.103C14.4545 23.2011 14.1835 23.251 13.9102 23.25H2.35821H2.22217H2.40922L14.4034 23.1935L14.7094 23.103Z" fill="#999999"/>
<path id="Vector_16" d="M26.8789 3.1696C26.8789 1.83329 25.7927 0.75 24.4529 0.75C23.113 0.75 22.0269 1.83329 22.0269 3.1696V20.8304C22.0269 22.1667 23.113 23.25 24.4529 23.25C25.7927 23.25 26.8789 22.1667 26.8789 20.8304V3.1696Z" fill="#999999"/>
</g>
<defs>
<clipPath id="clip0_2504_49">
<rect width="76.25" height="22.5" fill="white" transform="translate(0 0.75)"/>
</clipPath>
</defs>
</svg>
