<svg width="144" height="24" viewBox="0 0 144 24" fill="none" xmlns="http://www.w3.org/2000/svg">
<path d="M56.5 2.16569C56.5 1.76569 56.6 1.26569 56.9 0.965685C57.1 0.565685 57.5 0.365685 57.9 0.165685C58.2 -0.0343146 58.7 -0.0343146 59.1 0.0656854C59.5 0.165685 59.9 0.365685 60.2 0.665685C60.5 0.965685 60.7 1.36569 60.8 1.76569C60.9 2.16569 60.8 2.66569 60.7 3.06569C60.5 3.46569 60.3 3.76569 59.9 4.06569C59.5 4.26569 59.1 4.46569 58.7 4.46569C58.4 4.46569 58.1 4.36569 57.9 4.26569C57.6 4.16569 57.4 3.96569 57.2 3.76569C57 3.56569 56.8 3.36569 56.7 3.06569C56.5 2.76569 56.5 2.46569 56.5 2.16569ZM93.2 18.9657C93.6 18.9657 94.1 18.8657 94.4 18.5657C94.8 18.3657 95 17.9657 95.2 17.5657C95.4 17.1657 95.4 16.7657 95.3 16.2657C95.2 15.8657 95 15.4657 94.7 15.1657C94.4 14.8657 94 14.6657 93.6 14.5657C93.2 14.4657 92.7 14.5657 92.3 14.6657C91.9 14.8657 91.6 15.0657 91.3 15.4657C91.1 15.9657 91 16.3657 91 16.7657C91 17.3657 91.2 17.8657 91.6 18.3657C92.1 18.7657 92.6 18.9657 93.2 18.9657ZM20.6 5.36569C19.3 5.36569 17.9 5.76569 16.8 6.56569C15.7 7.36569 14.8 8.36569 14.3 9.66569C13.8 10.9657 13.7 12.2657 13.9 13.5657C14.2 14.8657 14.8 16.0657 15.8 17.0657C16.8 18.0657 18 18.6657 19.3 18.9657C20.6 19.2657 22 19.0657 23.2 18.5657C24.4 18.0657 25.5 17.1657 26.3 16.0657C27 14.9657 27.4 13.6657 27.4 12.2657C27.4 11.3657 27.3 10.4657 26.9 9.56569C26.6 8.76569 26.1 7.96569 25.4 7.26569C24.8 6.66569 24 6.16569 23.1 5.76569C22.4 5.46569 21.5 5.26569 20.6 5.36569ZM20.6 15.8657C18.7 15.8657 17.4 14.3657 17.4 12.2657C17.4 10.1657 18.7 8.66569 20.6 8.66569C22.5 8.66569 23.8 10.1657 23.8 12.2657C23.8 14.3657 22.5 15.8657 20.6 15.8657ZM52.2 12.5657C52.1 12.2657 51.9 12.0657 51.7 11.8657L51.6 11.7657L51.7 11.6657C51.9 11.4657 52.1 11.1657 52.3 10.9657L55.8 5.76569H51.5L48.9 9.86569C48.8 9.96569 48.6 10.0657 48.5 10.1657C48.3 10.2657 48.2 10.2657 48 10.2657H47.4V2.26569C47.4 0.765685 46.4 0.465685 45.4 0.465685H43.6V18.7657H47.4V13.2657H47.8C48.2 13.2657 48.5 13.2657 48.7 13.5657L50.8 17.4657C51 17.8657 51.3 18.2657 51.7 18.4657C52.1 18.6657 52.6 18.7657 53 18.6657H55.9L53.7 15.0657L52.2 12.5657ZM70.6 5.36569C69.9 5.36569 69.2 5.46569 68.5 5.76569C67.9 5.96569 67.3 6.36569 66.8 6.96569L66.6 7.16569L66.5 6.86569C66.4 6.46569 66.1 6.16569 65.8 5.86569C65.5 5.66569 65 5.56569 64.6 5.66569H62.9V18.8657H66.7V12.7657C66.7 12.2657 66.8 11.6657 66.9 11.1657C67.1 10.4657 67.5 9.86569 68 9.46569C68.6 9.06569 69.2 8.86569 69.9 8.86569C71.1 8.86569 71.5 9.46569 71.5 11.0657V16.8657C71.5 17.1657 71.5 17.4657 71.6 17.6657C71.7 17.9657 71.8 18.1657 72 18.3657C72.2 18.5657 72.4 18.6657 72.7 18.7657C73 18.8657 73.2 18.8657 73.5 18.8657H75.3V10.4657C75.3 7.06569 73.7 5.36569 70.6 5.36569ZM58.7 5.56569H56.9V18.7657H60.7V7.66569C60.7 7.36568 60.7 7.16569 60.6 6.86569C60.5 6.56569 60.4 6.36568 60.2 6.16569C60 5.96569 59.8 5.76569 59.5 5.66569C59.3 5.56569 59 5.56569 58.7 5.56569ZM35.3 5.36569C34 5.36569 32.6 5.76569 31.5 6.56569C30.4 7.36569 29.5 8.36569 29 9.66569C28.5 10.9657 28.4 12.2657 28.6 13.5657C28.8 14.8657 29.5 16.0657 30.5 17.0657C31.5 18.0657 32.7 18.6657 34 18.9657C35.3 19.2657 36.7 19.0657 37.9 18.5657C39.1 18.0657 40.2 17.1657 41 16.0657C41.7 14.9657 42.1 13.6657 42.1 12.2657C42.1 11.3657 42 10.4657 41.6 9.56569C41.3 8.76569 40.8 7.96569 40.1 7.26569C39.5 6.66569 38.7 6.16569 37.8 5.76569C37.2 5.46569 36.2 5.26569 35.3 5.36569ZM35.3 15.8657C33.4 15.8657 32.1 14.3657 32.1 12.2657C32.1 10.1657 33.4 8.66569 35.3 8.66569C37.2 8.66569 38.5 10.1657 38.5 12.2657C38.5 14.3657 37.3 15.8657 35.3 15.8657ZM115.9 5.36569C114.5 5.36569 113.2 5.76569 112.1 6.56569C111 7.36569 110.1 8.36569 109.6 9.66569C109.1 10.9657 109 12.2657 109.2 13.5657C109.5 14.8657 110.1 16.0657 111.1 17.0657C112.1 17.9657 113.3 18.6657 114.6 18.9657C115.9 19.2657 117.3 19.0657 118.5 18.5657C119.7 18.0657 120.8 17.1657 121.6 16.0657C122.3 14.9657 122.7 13.6657 122.7 12.2657C122.7 11.3657 122.6 10.4657 122.2 9.56569C121.9 8.76569 121.4 7.96569 120.7 7.26569C120.1 6.66569 119.3 6.16569 118.4 5.76569C117.7 5.46569 116.8 5.26569 115.9 5.36569ZM115.9 15.8657C114 15.8657 112.7 14.3657 112.7 12.2657C112.7 10.1657 114 8.66569 115.9 8.66569C117.8 8.66569 119.1 10.1657 119.1 12.2657C119.1 14.3657 117.8 15.8657 115.9 15.8657ZM87.8 5.56569C87.5 5.56569 87.2 5.56569 86.9 5.76569C86.6 5.86569 86.4 6.16569 86.2 6.36569L86.1 6.56569L86 6.46569C85 5.66569 83.8 5.26569 82.5 5.26569C79 5.26569 76.6 7.86569 76.6 11.8657C76.6 15.7657 79.1 18.5657 82.6 18.5657C83.6 18.5657 84.7 18.2657 85.5 17.7657L85.8 17.5657V17.9657C85.8 19.7657 84.7 20.6657 82.6 20.6657C81.7 20.6657 80.9 20.4657 80.1 20.1657C79.9 20.0657 79.8 20.0657 79.6 20.0657C79.4 20.0657 79.3 20.0657 79.1 20.1657C78.9 20.2657 78.8 20.3657 78.7 20.4657C78.6 20.5657 78.5 20.7657 78.5 20.9657L77.8 22.7657L78.1 22.8657C79.5 23.5657 81.1 23.9657 82.7 23.9657C85.9 23.9657 89.6 22.3657 89.6 17.6657V5.56569H87.8ZM83.2 15.2657C81.2 15.2657 80.4 13.4657 80.4 11.7657C80.4 11.0657 80.6 8.56569 83 8.56569C84.2 8.56569 85.8 8.86569 85.8 11.8657C85.8 14.6657 84.4 15.2657 83.2 15.2657ZM10.5 9.46569L9.9 9.16569L10.4 8.76569C10.9 8.36569 11.3 7.76569 11.5 7.16569C11.7 6.56569 11.9 5.96569 11.9 5.26569C11.9 2.36569 9.7 0.565685 6.2 0.565685H1.8C1.3 0.565685 0.8 0.765685 0.5 1.16569C0.2 1.46569 0 1.96569 0 2.46569V18.7657H6.3C10.1 18.7657 12.6 16.6657 12.6 13.4657C12.6 12.6657 12.5 11.8657 12.1 11.1657C11.7 10.4657 11.2 9.86569 10.5 9.46569ZM3.5 4.86569C3.5 4.06569 3.9 3.66569 4.6 3.56569H6.2C6.5 3.56569 6.8 3.56569 7.1 3.66569C7.4 3.76569 7.6 3.96569 7.8 4.16569C8 4.26569 8.2 4.56569 8.3 4.86569C8.4 5.16569 8.4 5.46569 8.4 5.76569C8.4 6.06569 8.4 6.36568 8.3 6.66569C8.2 6.86568 8 7.06569 7.8 7.26569C7.6 7.56569 7.4 7.66569 7.1 7.76569C6.8 7.86569 6.6 7.96569 6.3 7.96569H3.5V4.86569ZM6.6 15.6657H3.5V11.9657C3.5 11.1657 3.8 10.7657 4.5 10.6657H6.6C7.2 10.6657 7.8 10.9657 8.3 11.4657C8.7 11.9657 9 12.5657 9 13.1657C9 13.7657 8.8 14.3657 8.3 14.8657C7.8 15.3657 7.2 15.6657 6.6 15.6657ZM139.6 5.36569C138.8 5.36569 138.1 5.56569 137.4 5.86569C136.7 6.16569 136.1 6.66569 135.6 7.26569L135.3 7.66569L135.1 7.26569C134.8 6.66569 134.2 6.16569 133.6 5.76569C133 5.46569 132.3 5.26569 131.5 5.36569C130.8 5.36569 130.2 5.56569 129.6 5.76569C129 6.06569 128.5 6.46569 128 6.86569L127.6 7.26569L127.5 6.76569C127.4 6.36569 127.1 6.06569 126.8 5.86569C126.5 5.66569 126.1 5.56569 125.7 5.66569H124.1V18.8657H127.7V12.9657C127.7 12.4657 127.8 11.9657 127.9 11.4657C128.2 10.0657 129.2 8.56569 130.8 8.66569C131.8 8.76569 132.3 9.46569 132.3 10.9657V18.7657H135.9V12.9657C135.9 12.4657 136 11.8657 136.1 11.3657C136.4 10.0657 137.4 8.66569 138.9 8.66569C140 8.66569 140.4 9.26569 140.4 10.9657V16.8657C140.4 18.1657 141 18.7657 142.3 18.7657H144V10.3657C144 7.06569 142.5 5.36569 139.6 5.36569ZM107 14.2657C106.1 15.2657 104.8 15.8657 103.4 15.9657C102.9 15.9657 102.4 15.9657 101.9 15.7657C101.4 15.5657 101 15.3657 100.7 14.9657C100.3 14.6657 100.1 14.1657 99.9 13.7657C99.7 13.2657 99.6 12.7657 99.7 12.3657C99.7 11.8657 99.7 11.3657 99.9 10.9657C100.1 10.4657 100.3 10.0657 100.7 9.76569C101 9.36569 101.4 9.16569 101.9 8.96569C102.4 8.76569 102.8 8.66569 103.3 8.66569C104 8.66569 104.7 8.86569 104.9 9.26569V9.36569C105 9.66569 105.1 9.86569 105.4 10.0657C105.6 10.2657 105.9 10.3657 106.2 10.3657H108.2V8.46569C108.2 6.16569 105.3 5.36569 103.4 5.36569C99 5.36569 96 8.26569 96 12.2657C96 16.2657 99 19.1657 103.1 19.1657C104.2 19.1657 105.2 18.9657 106.2 18.4657C107.2 18.0657 108 17.3657 108.7 16.6657L107.2 14.0657L107 14.2657Z" fill="#999999"/>
</svg>
