<svg xmlns="http://www.w3.org/2000/svg" viewBox="0 0 425.676 367.457"><defs><style>.cls-1{fill:#fff;}</style></defs><title>Asset 1</title><g id="Layer_2" data-name="Layer 2"><g id="Layer_1-2" data-name="Layer 1"><path class="cls-1" d="M62.594,46.6l-3.356-9.922H40.706q-.773,2.307-1.609,5L37.559,46.6H28.571L45.182.625h9.647L70.993,46.6ZM49.935,10.617Q48.255,15.3,46.72,19.7t-3.356,9.362H56.58Z"/><path class="cls-1" d="M97.96.775H81.04V46.708h7.817V31.068h9.1c9.264,0,13.767-3.9,13.767-11.927v-6.5C111.727,4.654,107.224.775,97.96.775ZM88.857,8h8.906c5.292,0,6.147,1.386,6.147,4.7v6.44c0,3.251-.888,4.7-6.147,4.7H88.857Z"/><path class="cls-1" d="M137.691.775H120.77V46.708h7.817V31.068h9.1c9.263,0,13.767-3.9,13.767-11.927v-6.5C151.458,4.654,146.954.775,137.691.775ZM128.587,8h8.907c5.292,0,6.146,1.386,6.146,4.7v6.44c0,3.251-.887,4.7-6.146,4.7h-8.907Z"/><path class="cls-1" d="M168.33,42.12h21.219v4.6H163.706V.826h4.624Z"/><path class="cls-1" d="M230.2,33.354c0,7.65-4.755,13.92-16.607,13.92s-16.61-6.27-16.61-13.92V13.92c0-7.65,4.756-13.92,16.61-13.92S230.2,6.27,230.2,13.92Zm-28.912.067c0,6.6,4.021,10.294,12.465,10.294s12.463-3.7,12.463-10.294V13.853c0-6.594-4.02-10.294-12.463-10.294s-12.465,3.7-12.465,10.294Z"/><path class="cls-1" d="M237.23.826h4.59L256.655,42.12,271.524.826h4.7l-16.5,45.9h-6.1Z"/><path class="cls-1" d="M290.475,46.724H285.85V.826h4.625Z"/><path class="cls-1" d="M312.646,6.346V46.724H308.3V.826h6.829l19.985,39.281V.826h4.348v45.9h-5.526Z"/><path class="cls-1" d="M174.283,271.694a9.618,9.618,0,1,1,9.618,9.618A9.62,9.62,0,0,1,174.283,271.694Zm-3.764,0A13.382,13.382,0,1,0,183.9,258.313,13.384,13.384,0,0,0,170.519,271.694Zm52.691,82.382a9.618,9.618,0,1,1,9.618,9.618A9.619,9.619,0,0,1,223.21,354.076Zm-3.764,0a13.382,13.382,0,1,0,13.382-13.382A13.383,13.383,0,0,0,219.446,354.076Zm-94.09,0a9.618,9.618,0,1,1,9.618,9.618A9.619,9.619,0,0,1,125.356,354.076Zm-3.764,0a13.382,13.382,0,1,0,13.382-13.382A13.383,13.383,0,0,0,121.592,354.076ZM172.41,282.09,140.5,339.56a13.371,13.371,0,0,1,4.4,2.58c.016-.008.184-.049.184-.049,10.475-2.9,24.317-4.324,39.233-4.324,14.369,0,27.909,1.635,38.222,4.348l.058.114.088-.071a13.258,13.258,0,0,1,4.424-2.6L195.2,282.09a13.444,13.444,0,0,1-4.106,3.4l28.716,51.712a161.317,161.317,0,0,0-35.5-3.621c-13.662,0-26.445,1.138-36.52,3.613l28.713-51.7A13.37,13.37,0,0,1,172.41,282.09Z"/><path class="cls-1" d="M117.1,229.34c0,.779.007,1.553-1.412,1.5.35-1.022-.36-1.31-.363-2.09-1.772-.324-.344,1.807-2.122,1.477a13.023,13.023,0,0,0,1.405-3.831c-.71-.028-1.419-.055-1.42-.316,1.057-2.292-2.854-5.028-1.091-7.554a28.314,28.314,0,0,0-4.975-2.782c-1.052,3.322-2.464,7.155-2.808,10.248-14.464,23.784-30.349,48.284-56.561,62.794-4.249,2.428-9.207,5.341-15.592,5.867-7.1-.8-11.379-7.437-12.462-12.4-2.488-.616-3.213-5.559-3.224-8.671,0-.518.357-.247.707-.49,0-.775-1.421-.578-1.422-1.608,1.06-1.512.343-3.359-.727-4.695,1.393-7.976,1.011-16.274,1.7-22.721l1.061.041c-1.431-3.423.343-4.908.68-8.78-1.069-1.077-1.415.72-1.77-.068,3.9-1.657,1.4-6.159,4.223-9.42-1.065-1.077-1.06,1-1.773-.071,2.121-2.243,3.526-5.813,2.1-8.718,2.84-.928,2.113-4.842,3.526-6.858-3.194-.382-.7,1.787-2.12,2.509-3.2-1.424,2.119-2.766.69-5.67,4.319-.8,3.644-5.173,2.951-6.816.428.248,1.287.459,1.285-.016a2.253,2.253,0,0,0-1.424-.313c.353-.5-.355-1.567.71-1.526.709.03.357,1.31,1.42,1.092.348-2.057-.36-1.828-1.43-3.163,1.063-.218,1.065.3,2.13.341.344-3.094,4.237-6.309,1.038-7.992,0-.77,1.417-.195,2.129-.429a3.077,3.077,0,0,1,1.056-2.548c-1.421-.577-1.06,1.769-1.774.706,4.239-6.052,6.7-13.461,10.224-19.546-1.064-.041-1.062.482-1.771.455,1.771-1.229,1.412-2.278,2.828-3.515-.005-1.041-1.416,1.237-1.777-.069.707-.5.349-2.062,1.768-2.008,1.064.044-.706.747,1.068,1.079,1.058-1.251-1.072-1.853-1.073-2.893,3.544-1.153,3.89-3.99,5.659-5.734-.358-.531-2.129-.084-1.779-1.106,1.061-.731,1.419.057,2.481-.42.148-1.446,1.615-2.842,3.093-4.277l-.978-.039,0-.523c.355.013.712.03,1.067.043,0,.217,0,.279,0,.433,1.921-1.867,3.818-3.8,2.817-6.024,1.418-.2.7-1.78,2.834-1.441a3.72,3.72,0,0,0,.7-2.044c15.209-14.167,27.214-32.089,49.542-39.762,8.181,5.5,6.1,18.63,13.215,25.122,2.132.343,2.483-.417,4.258-.095,8.852-5.35,5.963-20.743-1.158-26.978,0-.262,0-.775,0-1.036-5.329-2.8-9.951-6.087-18.824-6.172-1.064-.041-.706.752-1.774.708-27.323.225-36.491,16.442-50.646,27.8.713.8,0,.775.006,2.071-5.315,2.643-6.714,8.287-10.961,11.745-.351.76.716.8.362,1.567-5.311,4.2-6.7,11.657-11.656,16.638,0,.518,0,1.3,0,1.81-2.12,2.512-4.241,4.755-4.227,8.646-.714-.289-.712.229-1.418.2-1.046,5.4-5.645,9.36-5.983,14.79-.713-.291-.71.488-1.065.475-.338,3.611-2.455,8.189-4.218,11.229.709.028.71.289.713.8-1.42.463-1.412,2.278-2.117,3.286-2.1,10.794-8.094,20.663-8.055,32.321-1.764,2.774-2.807,9.731-3.145,14.116-1.381,12.12-2.751,26.571.845,40.7,3.212,4.534,5.71,9.287,9.271,13.316,4.973,1.747,8.883,4.489,12.8,6.974,1.416-.463-2.848-1.665-1.075-2.376,8.185,7.834,32.313,6.707,38.673-.819,3.546-.118,3.537-2.968,7.8-2.545,4.593-5.254,12.034-8.331,15.562-14.666a8.565,8.565,0,0,1,2.483-.684c.7-1.526,2.122-1.986,2.117-3.8,6.384-.787,4.219-10.451,10.6-12.022-1.424-1.864,3.536-3.742,1.046-5.391-3.529,5.3-8.481,9.767-12.729,13.747.709.028,1.065-.476,1.067.042a6.46,6.46,0,0,1-4.253,2.166c-.357-1.311,1.06-1.779-.008-2.589,12.026-11.709,20.852-25.091,30.032-38.716a4.211,4.211,0,0,0,2.13-.177C117.812,230.4,118.162,229.381,117.1,229.34ZM17.045,233.2c0-.261,0-.518,0-.779l.709.027c0,.262,0,.518,0,.779Zm1.7-22.211c.712-.744-.361-2.085.35-2.575C20.865,208.484,19.811,211.288,18.742,210.988ZM8.884,233.142c.306-14.756,6.652-26.68,11.567-42.286.71.027.712.545,2.131.6.361,1.31-1.414.986-2.124,1.732.362,1.567.008,1.554.012,3.368-.269.49-.437,1.033-.692,1.531a2.269,2.269,0,0,0,1.407.306c.359,1.054-1.417.468-1.413,1.243-1.051-.295.284-1,0-1.525C14.375,208.683,12.227,220.911,8.884,233.142Zm8.444-21.173a1.7,1.7,0,0,0-1.066-.3c-.358-.793-.006-1.292,1.058-1.251C16.617,210.907,17.325,211.19,17.328,211.969Zm3.83-21.6c-.009-3.629,2.46-7.417,3.866-10.992C25.036,182.746,22.566,187.052,21.158,190.37Zm-.65,17.582c-3.2-.9.7-4.376-.725-4.948.349-.5,1.064.041,1.419.054a7.723,7.723,0,0,1,1.407-3.313C23.683,202.638,20.853,204.854,20.508,207.952ZM23.283,188.9c-.355-.79.709-.746.348-1.539C24.344,187.384,24.7,189.469,23.283,188.9Zm2.805-9.477a3.57,3.57,0,0,0,1.778.333c.362,2.341-1.768,2.779-2.47,4.3,0,.774,1.781,1.622.008,1.815C22.555,183.945,27.159,181.019,26.088,179.419Zm.036,11.145c1.425.57.005,1.809-.342,2.57C24.359,192.305,26.128,191.338,26.124,190.564ZM24.05,205.5c.7-1.265.7-2.824,1.4-3.832A2.932,2.932,0,0,1,24.05,205.5Zm3.141-15.159c-1.071-.821-1.072-1.861-.007-2.333C28.25,188.567,26.474,189.275,27.191,190.344ZM27.913,194c0-.262,0-.262,0-.518l1.064.041c0,.256,0,.256,0,.518Zm1.416-.725a1.385,1.385,0,0,1-1.068-1.594l1.419.055C29.682,192.251,28.973,192.224,29.329,193.273Zm1.058-2.543c0,.513-.358-.014-.712-.027C29.673,190.18,30.386,190.469,30.387,190.73Zm-2.539-15.644c-.355-.787,1.418-.975-.356-1.044a4.693,4.693,0,0,1-.347,2.312c0,.522.353-.241,1.064.043.36,1.311.008,2.594-1.41,2.793-.361-.793.352-.765.35-1.283-1.417-.311-.709,1.013-1.414,1.242-1.072-1.855.692-3.858,1.757-5.107A10.844,10.844,0,0,1,29.6,169.2c.355.013.715.55.713.027,1.061.305,1.422.837,1.425,1.611C29.967,171.544,30.689,174.422,27.848,175.086Zm2.462-7.67c1.061.3.357.531,0,1.035C29.6,168.162,30.311,167.677,30.31,167.416Zm2.118-1.987c1.776-.193.716,1.319,1.074,2.112C30.664,167.429,32.43,166.459,32.428,165.429Zm-.007-2.333c1.066-.476,1.417.316,2.841-.152.356,1.313-1.775.455-1.418,1.76A2.7,2.7,0,0,1,32.421,163.1Zm-.645,18.623c0-.257,0-.257,0-.518.355.014.354-.248.354-.248C33.193,180.738,32.843,182.273,31.776,181.719Zm2.121-1.477c-1.068-1.594,1.766-3.031,1.758-4.85C37.433,176.5,34.6,178.978,33.9,180.242Zm1.393-9.526c1.417-.2.71,1.065.357,1.313C34.936,171.738,35.292,171.234,35.29,170.716Zm2.08-13.644c-.354,1.021.359,1.049.362,1.828-2.482.164-1.058,2.03-2.117,3.8-2.844-1.409-.019-5.7,1.049-5.659-.367-1.829,1.409-2.017,1.407-3.314,2.484.621-1.413,2.017.009,2.85.359.788.7-.752,1.772-.185C39.5,157.412,38.084,158.135,37.37,157.072Zm2.117-3.8c-1.422-.836,1.77-.711.7-2.305,1.069.3,1.069,1.081,1.781,1.622A3.151,3.151,0,0,0,39.487,153.27Zm5.646-8.586c2.49.877.716,1.581.723,3.139-1.065.472-.713-.027-1.774-.068,0,1.553.011,3.107-1.409,3.306,0,.522-.709.234,0,0,.353-1.017-.36-1.045-1.777-.848-.361-2.084,1.767-2,1.759-3.812,1.42-.466,1.778.327,2.482-.164-1.776-1.1-.712-1.837-.364-3.376,1.777.068,2.486.613,3.906.926C48.683,144.823,46.2,144.207,45.133,144.684ZM48.32,143c.354-1.027-1.417-.575-2.128-.864-.358-.793.707-.49.348-1.54,1.773.071,1.779,1.363,3.553,1.431A1.779,1.779,0,0,1,48.32,143Zm.7-1.788c-1.066-.3-.712-1.324-.715-2.1l1.064.041C49.73,140.2,48.669,140.163,49.025,141.212Zm.347-2.314,0-.522,1.068.041,0,.523Zm1.417-1.247c-1.781-1.616,2.826-4.03,3.525-6.336C55.035,133.937,51.488,135.351,50.789,137.651Zm4.945-6.8c-1.064-.043-.005-1.036-.007-1.292C56.8,129.6,56.087,130.607,55.734,130.855Zm11.645-19.486c1.415-.2,0,1.035,0,1.553C65.963,112.606,67.378,111.886,67.379,111.369ZM2.224,258c0,.251,0,.513,0,1.03,1.059-.987-.362-2.341.7-3.079,1.777,1.624-.344,3.093.725,4.951-1.064-.043-1.067-.561-1.775-.332-.356-1.044.353-1.017.351-1.54C.811,259.239.8,257.424,2.224,258Zm1.436,5.234c-1.417.461-.71-.8-1.068-1.6A1.588,1.588,0,0,1,3.66,263.236Zm-2.126-.345c.707-.486.007,2.332.719,2.878C.476,265.7,1.889,263.684,1.534,262.891Zm1.071,2.373c1.422.837.357,1.311,1.072,2.371C1.547,267.294,2.962,266.575,2.605,265.264Zm3.811-26.786c-.7,1.013-1.416,1.5-1.765,2.52,1.091,6.778-.68,8.78-.663,14.224-.707.491-2.13-.607-1.767,1.222-1.42-.316-.365-2.347.345-2.837-1.784-3.175-.028-8.546.312-12.418,1.425.575-.352,1.278.713,1.583,1.418-.207-.357-1.306.707-2.044,0-1.291-1.42.461-1.423-.318.684-7.737,2.784-16.98,4.883-25.7,1.065.3.707-.49,1.416-.463.351-1.027-.713-.806-1.068-1.082-.357-1.044,1.064-.733,1.06-1.512a6.052,6.052,0,0,1,1.756-4.592c-1.423-1.608,1.767-3.553.339-4.905,10.538-32.22,24.992-60.4,48.334-83.833.707-.5,1.771-.455,2.128-.7-.358-.793-.362-1.568,1.056-1.774-.715-1.32,1.064.043,0,0-.7,2.566-1.757,5.114-5.305,5.488.005,1.819-2.464,5.6-4.95,5.507,0,.522-.346,1.283.364,1.31-17.32,21.078-30,47-38.434,72.83-.707,1.782.012,4.142-2.114,5.87.02,5.444-2.8,10.767-3.134,16.715-.356-.275-.358-.793-.713-.807-1.055,2.81-.34,3.873-.687,6.448-.709-.027-.712-.54-1.066-.556.717,2.352.722,3.654-1.045,5.654,1.42.314,0-1.553,1.417-.983-.351,1.542-.345,3.613-2.117,4.58A2.238,2.238,0,0,0,6.416,238.478Zm.362.793a13.691,13.691,0,0,1,1.4-5.383C8.535,235.2,7.837,238.274,6.778,239.271Zm.042,13.21c1.064.044.712.548,1.069,1.079-.355-.013-.711-.283-1.066-.3C6.822,253,6.821,252.738,6.82,252.481Zm.015,4.66c1.419.319,1.072,1.858-.352,1.54C6.125,257.893,7.192,257.936,6.835,257.141Zm-.693,5.417c1.068.044,1.421.313,1.78,1.363C6.5,263.863,6.142,263.071,6.142,262.558ZM6.9,275.012c0-.518,1.065-.474,1.064.043C7.605,275.3,7.6,275.042,6.9,275.012Zm3.789-33.779c0-.257.354-.243.708-.227C11.394,241.263,11.039,241.247,10.684,241.233ZM12.8,236.14c-2.487-.872-.369-2.608-.014-3.886-.009-2.85,1.041-5.916,1.742-9.257C15.255,227.946,12.779,230.962,12.8,236.14Zm4.185-20.812a41.08,41.08,0,0,1-1.4,6.933c-2.484-.354-.36-2.6-.01-3.106,0-.518-.709-.548-1.063-.561,1.771-.447.34-3.873,3.178-3.761a3.645,3.645,0,0,1,1.055-2.809C19.459,212.833,18.4,216.157,16.984,215.328Zm-1.332,25.845c0-.262,0-.518,0-.775l1.068.042c0,.256,0,.512,0,.774Zm78.513,27.153c-1.062.477-.712-.545-.715-1.063C94.16,267.291,94.517,267.822,94.165,268.326Zm-2.832,1.965c2.483.1-.352,1.278.007,2.327C90.277,272.06,91.335,270.8,91.333,270.291ZM76.469,282.4c-.359-1.57,1.417-.981,1.06-2.292C78.949,280.422,77.535,282.178,76.469,282.4Zm2.479-2.237c-1.779-.586.345-2.058,1.764-2C81.073,279.466,78.943,279.13,78.948,280.161Zm5.646-7.805c-1.061-.043-.358-1.574.71-1.269C84.952,271.591,84.6,271.838,84.594,272.356Zm3.172-7.387q0-.784,0-1.553C89.178,262.955,89.187,265.544,87.766,264.969Zm2.478-2.5c0-.517,0-.779,0-1.03C91.656,260.974,91.664,262.789,90.244,262.473Zm3.183-2.725c-2.131-.6.35-1.017-.01-2.332l1.067.041C94.485,258.5,93.778,258.988,93.427,259.748Zm.346-2.575c0-.256,0-.513,0-.774l1.419.054C94.48,256.688,94.836,257.47,93.773,257.173Zm2.829-1.96c-.352-.015-.354-.533-.353-1.051.706.03.707.291,1.061.822A.411.411,0,0,0,96.6,255.213Zm1.763-2.777a19.7,19.7,0,0,1,2.118-4.582C102.617,249.23,100.5,252.257,98.365,252.436Zm5.664-6.258c-1.072-.3.347-1.022-.008-1.815C105.793,244.178,104.375,245.935,104.029,246.178Zm4.587-6.039c-.708-.283-.709-.544-1.42-.828a3.007,3.007,0,0,1-2.473,4.305c-.707-1.062,0-1.3-.007-2.332,2.846,1.147,1.057-3.063,3.54-2.968,0-.518.711-.231,0,0C108.258,238.834,108.972,239.125,108.616,240.139Z"/><path class="cls-1" d="M272.344,151.28c-6.23-13.743-26.885-6.143-35.272-.224-9.1,7.853-18.195,15.418-25.62,24.806,2.059-8.922,8.226-21.788-4.579-25.524-2.854,3.867-4.04,10.905-6.112,16.785-14.783,12.245-30.621,23.844-53.574,25.708-1.755-4.933,3.959-10.759,1.573-15.176,4.073-3.388,3.864-13.881-1.324-16.232-3.8-.835-6.6,1.231-8.964,1.063,1.952-2.691,3.905-5.387,3.589-9.653-.69-7.692-8.235-10.208-14.638-12.079-6.791-.48-12.046,2.829-16.379,5.638C99.232,159.432,87.179,171.6,81.773,191.04c.793,1.47,1.3,2.923,2.089,4.4-.072,1.127,1.237-.765,1.144.646.482,1.735,1.57,3.228,2.035,5.239,16.7,7.692,33.616-15.458,46.187-21.934,1.848-1,3.621-.876,4.89-2.2-.223-1.153,2.175-1.546,3.409-2.308.019-.285.055-.848.314-.264a.281.281,0,0,1-.314.264c-1.285,6.138-1.554,14.894-1.621,20.557,1.83,3.8,3.161,6.163,7.494,7.886,2.658.189,4.673,1.176,7.345,1.085,15.814-5.8,29.618-12.5,41.45-21.8-3.052,11.628-5.742,24.9,4.854,30.457,5.735-1.58,9.236-5.294,10.54-11.717,7.937-12.742,17.541-23.675,27.159-34.885,2.4-.395,3.7-2.288,4.458-4.779,8.464-2.518,15.468-9.947,25.151-12.948A19.953,19.953,0,0,1,272.344,151.28ZM87.623,192.3c.038-.558,2.1-.411,1.437.666C88.473,192.925,88.213,192.341,87.623,192.3Zm3.574-4.841c-.111,1.69-1.032,2.192-1.675,2.993-.555-.6,1.028-2.192,1.675-2.993C91.214,187.18,91.79,187.5,91.2,187.459Zm2.142,3.548c9.616-15.74,17.844-33,37.709-37.54.428,2.579-1.486,9.242.748,11.384C119.059,173.857,108.851,185.026,93.339,191.007Zm39.849-20.118c-.295-.021-.277-.306-.575-.327-.054.848-.922.507-.958,1.071-.589-.044.09-1.406.958-1.071.035-.558.351-.816.938-.775C133.515,170.351,133.5,170.624,133.188,170.889ZM134.5,169c-.224-1.148,1.2-.2,1.251-1.042C136.892,168.6,134.752,169.586,134.5,169Zm29.758,21.355c1.677,1.535,2.377-.109,3.04-1.2,1.477.106-.036.564-.073,1.132,1.217-.483,2.712-.659,3.372-1.75l-.882-.062a1.848,1.848,0,0,1-1.533.745c.331-.543.666-1.091,1.533-.745.038-.558.622-.517.882.062,10.545-4.9,19.628-11.392,28.744-17.978-.117.238-.216.5-.34.733-.094.516-.218,1.069-.336,1.615-10.008,8.041-22.157,14.606-34.554,19.707C162.924,192.53,163.9,191.181,164.254,190.357Zm-.957,5.595c-.347.828-1.527.745-2.138.988C160.936,195.787,162.116,195.87,163.3,195.952Zm-1.619,2.151c.661-1.081,1.859-1.283,3.058-1.482C164.366,197.727,162.894,197.622,161.678,198.1Zm34.958-17.914c-.465-2.011-1.457-.385-2.1.416.572.325,1.529-.737,1.77.126-10.621,3.783-18.913,12.821-31.269,15.911.055-.848,1.217-.481,1.565-1.3-1.162-.367-2.45,1.241-2.988.349,7.578-2.572,12.817-5.6,19.842-8.789,4.331-3.713,9.5-6.974,14.375-10.463-.277,1.079-.576,2.2-.88,3.334C196.86,179.9,196.7,180.064,196.636,180.189ZM237.8,162.718c-.295-.021-.259-.585-.241-.869.608-.24.572.328.554.607A.279.279,0,0,0,237.8,162.718Zm3.1-2.045c-1.107-1.215,1.86-1.285,1.673-3l.885.062C243.352,159.429,241.565,159.585,240.9,160.673ZM211.645,182.1c9.872-15.159,23.806-28.894,40.623-36.768.867.349,2.655.188,4.759-.228-.423,1.948-3.558.034-2.8,2.065-1.443-.661-1.551,1.029-3.6.6C234.956,156.285,222.885,168.741,211.645,182.1Zm33.4-25.954c-.816-1.189,1.564-1.3,2.489-1.807C247.168,155.452,245.969,155.654,245.049,156.147Zm9.513-4.986c-2.363-.168-4.333,2.8-7.007,2.9,1.9-1.848,4.92-2.761,6.82-4.617C255.869,149.277,254.321,150.292,254.562,151.161Zm1.531-.742c-.8-1.471,1.013-1.907,2.155-1.262C257.62,149.674,257.274,150.5,256.093,150.419Zm2.45-1.241a1.447,1.447,0,0,0,.665-1.088,7.119,7.119,0,0,0,2.4-.4C261.219,149.082,259.741,148.979,258.543,149.178Z"/><path class="cls-1" d="M424.273,122.276c-8.405,6.2-17.327,11.231-25.753,17.714.59.041,1.5-.176,1.144.651-.3-.021-.315.258-.61.237-.591-.041-.555-.6-.534-.888-4.814,1.083-6.2,4.094-9.9,6.376-.239-.857.962-1.059-.221-1.142-.606.244-.036.564-.074,1.122-4.739-.049-5.842,3.273-9.46,4.149-.328.543.262.584.227,1.148-12.208,5.369-24.928,14.1-37.209,20.586-.867-18.75,2.294-30.983,11.928-47.008,1.743-2.9,4.813,3.429,4.968,4.663.529,4.2-1.071,11.146-3.67,14.616-.177.237-.729.641-.334.872a2.571,2.571,0,0,0,.694.081c.616.08,1.232.165,1.851.248,3.375.451,7.661-2.661,8.73-5.733,2.031-5.835,3.1-10.694,2.151-16.96a18.453,18.453,0,0,0-4.916-10.389,11.048,11.048,0,0,0-6.19-3.276c-5.366-.715-10.532,5.16-13.23,8.925a59.288,59.288,0,0,0-8.248,15.654c-1.893,5.684-2.046,11.522-2.9,17.388a72.594,72.594,0,0,0-.925,16.524c-.292-.02-.888-.062-1.18-.085-.514,3.365.189,6.246-.308,9.321-3.394,2.827-6.8,5.621-10.132,8.469-4.378,1.7-8.657,3.482-12.706,5.315-12.633,2.795-31.039,12.25-42.609,3.219,1.873-6.1,2.494-11.15,6.017-15.148,5.076,4.047,12.1.856,17.781.127,1.531-.2,4.388-3,5.747-3.857,2.058-1.3,4.136-2.583,6.089-4.026,4.08-3.015,6.581-7.087,10.232-10.378,1.981-1.785,3.944-6.409,2.594-8.954a19.418,19.418,0,0,0-2.235-2.5c-2.373-3.027-2.026-5.663-6.33-6.982a16.047,16.047,0,0,0-9.878.047c-16.722,6.461-29.344,22.837-35.655,37.965-2.556,11.994-1.638,25.369,12.347,29.187,10.332.731,15.791-1.146,23.98-3.964.642-.807-.5-1.452,1.008-1.913,1.526,1.124,4.469-1.28,7.666-2.428a69.937,69.937,0,0,0-9.627,14.64c-1.4,3.3-.992,6.156-.654,10.147,2.055,9.487,5.347,18.215,13.026,23.284,10.685,4.437,21.158-1.62,27.682-6.252,3.556-4.562,6.891-10.271,8.379-14.98,2.994-14.228-1.427-28.411-1.5-41.158,11.615-9.943,26.829-15.943,38.995-25.277.274.305.238.868.533.889,7.746-5.118,18.4-9.459,25.63-15.739-.3-.021-.554-.61-.518-1.174,1.421.954,2.747-1.217,4.514-1.091.057-.848.093-1.411.129-1.975-2.655-.188-3.758,3.131-6.345,1.815-.659,1.086.227,1.148.154,2.281-1.459-.391-1.533.73-2.418.668.055-.836.92-.5.682-1.364-3.54-.25-4.719,4.2-7.284,2.6,3.668-1.719,7.174-5.438,11.322-5.431,1.675-2.991,3.5-3.714,6.819-4.612.351-.821-.811-1.188.092-1.406,1.439.67,3.356-1.46,4.647-3.07-.593-.042-1.809.436-1.144-.649,4.553-1.66,6.562-5.2,8.345-9.881C424.791,123.449,424.532,122.865,424.273,122.276ZM293.458,155.045c-.81-1.191-1.841,1-3,.639,3.2-3.735,9.2-4.736,14.344-6.35-6.149,8.055-15.373,13.069-25.422,17.172A67.488,67.488,0,0,1,293.458,155.045Zm-3.83,45.593c-1.18-.083-.071,1.127-.7,1.649-1.386-1.509-2.307-1.01-3.839-.271.442-2.233-.795-1.468-1.662-1.817,3.65-1.432,9.166.368,13.743-1.572C295.329,199.624,291.7,200.785,289.628,200.638Zm19.385-1.571c.736-2.213,2.84-2.629,3.853-4.536C313.325,196.541,310.839,198.348,309.013,199.067Zm5.781-6.25c.775-.35,1.526-.747,2.285-1.123-.656.737-1.665,1.143-1.521,2.456-.3-.023-.59-.043-.573-.322l-.59-.042A3.654,3.654,0,0,1,314.794,192.817ZM331.515,176.6c-.777-1.758-.038-3.969-.169-6.528A16.35,16.35,0,0,1,331.515,176.6Zm-3.94,5.947c.331-.542.661-1.08,1.546-1.018-.33.537-.661,1.08-1.546,1.018a1.829,1.829,0,0,1-1.532.742C326.376,182.744,326.708,182.2,327.575,182.542ZM304.2,199.977c.562-.223,1.109-.394,1.585-.64-.262.3-.5.615-.756.914C304.653,200.22,304.181,200.266,304.2,199.977Zm-3.973,11.209c-.241-.868.644-.8.4-1.669C301.236,209.281,301.09,211.535,300.226,211.186Zm1.968-2.975c-.237-.863.336-.542.944-.78C303.1,207.994,302.786,208.253,302.194,208.211Zm.684-1.364c.073-1.132,2.138-.985.4-1.675.035-.558.646-.8,1.513-.452C304.426,205.818,304.354,206.95,302.878,206.847Zm1.955-2.69c.642-.807.752-2.5,2.23-2.394C306.673,203.148,306.032,203.955,304.833,204.157Zm2.01-5.943a2.018,2.018,0,0,0,.16-.315c-2.749,1.23-7.175.916-9.243.771a118.91,118.91,0,0,0,12.365-3.939C309,195.862,307.918,197.037,306.843,198.214Zm15.927,35.8c-5.163,1.906-13.717,5.836-18.775,1.51,1.693-21.685,17.527-32.738,29.768-43.2a.286.286,0,0,1,.28.306C337.243,207.3,334.5,226.92,322.77,234.012Zm93.319-104.385c-.019.284-.609.243,0,0Zm-14.84,9.43c.349-.828,2.212-2.11,2.766-1.507-.92.5-1.567,1.3-2.766,1.507C401.231,139.341,400.638,139.3,401.249,139.057Zm-4.02,2.546a1.569,1.569,0,0,1-1.216.478C396.032,141.8,396.344,141.538,397.229,141.6Zm-14.046,10.9c.074-1.126.978-1.349,1.863-1.287C385.266,152.365,384.363,152.583,383.183,152.5Zm1.767-4.4c-.628.517-1,1.628-2.175,1.543C382.85,148.507,383.752,148.3,384.95,148.1Zm-38.644,24.445-.037.569-.59-.041.037-.569Zm-2.833,7.162c.054-.848-.226-1.148-1.126-.93,1.9-1.843-.465-2.011,0-4.528,1.2-.2,1.55-1.029,3.042-1.2-.644.8-1.029,2.192-1.937,2.406-.053.842.816,1.192.762,2.039.59.042,1.587-1.592,1.014-1.912.367-1.106.573.32.865.34.926-.5-.219-1.141.423-1.948.831.912.795,1.476.684,3.166.907-.222,1.235-.766,1.866-1.287C348.671,177.242,345.6,179,343.473,179.7Zm31.415-18.164c-3.594.6-5.028,4.459-8.83,3.624-1.13-.928.975-1.349.718-1.933-1.18-.082-1.829.721-2.47,1.523.241.868,2.029.71,1.957,1.842-3.024.913-5.256,3.3-8.3,4.508.683-1.37.093-1.411-1.126-.933.331-.543.963-1.062.405-1.664-2.378.114-.405,1.664-1.067,2.755l.885.062c.224,1.147-.92.5-.974,1.344-1.163-.362.349-.827.089-1.406-1.51.455-1.657,2.709-3.448,2.866,0,0-.018.285-.035.564-1.181-.083-1.533.744-2.158,1.264-1.16-.361-.555-.605-.5-1.453-1.46-.382-.7,1.649-2.155,1.268.272-4.229,2.922-8.571,7.535-6.546-1.311-2.643,4.775-5.048,7.522-6.265.238.868-.629.522-.665,1.091.832.9,1.312-1.9,2.233-2.394a3,3,0,0,1,2.325.726c.59.041.625-.517,1.215-.475.054-.848-1.162-.367-1.752-.409,1.621-2.15,7.484-5.7,9.167-4.166,1.18.085,1.511-.458,2.119-.7.036-.564-.885-.062-.849-.626,1.031-2.191,3.722-2.567,6.154-3.526.244.864-1.2.2-1.252,1.042a.84.84,0,0,0,.65.681c-1.293,1.456-4.7,3.6-6.274,3.736C375.9,159.634,374.373,160.365,374.888,161.539Zm21.5-16.036c.795,1.47-1.643,2.434-2.579,3.22-.054.843,1.052,2.052,1.44.662.461,2.021-3.67,1.729-4.927,2.768.223,1.153.647-.8,1.5-.176-3.779,3.415-8.646,5.336-13.238,7.559,4.479-5.061,11.321-5.429,14.674-11.417-2.693.375-4.836,1.354-5.566,3.567-.835-.905-1.181-.083-2.328-.732,2.2-1.827,4.388-3.657,8.241-3.663a2.556,2.556,0,0,1,2.787-1.788c.035-.564-.26-.584-.224-1.148.9-.214,3.079-1.766,3.248.23C398.561,143.96,397.861,145.608,396.386,145.5Zm-6.51,4.355.591.041c-.019.285-.019.285-.036.564l-.59-.041C389.858,150.142,389.858,150.142,389.876,149.858Zm9.609-6.4c.68-1.37,5.711-5.826,5.1-1.055C402.949,140.3,401.824,143.91,399.485,143.458Zm5.269-3.588c.017-.279.315-.258.333-.542.552.6,1.44.666,1.365,1.793C405.255,141.318,405.621,140.211,404.754,139.87Zm5.367-.473c-1.2.2-2.011-.993-2.655-.186-.8-1.476,1.919-2.129,3.135-2.61C410.211,137.985,409.031,137.9,410.121,139.4Zm.716-6.461a10.073,10.073,0,0,1-4.038,2.83,10.071,10.071,0,0,1,4.038-2.83c.036-.564.623-.52.659-1.084C412.366,132.2,411.407,133.258,410.837,132.936Zm1.293,2.922c1.291-1.607,1.935-2.414,4.038-2.825-.28-.3-.262-.584-.226-1.153.593.042,1.553-1.023,1.794-.154C416.791,132.511,415.116,135.509,412.13,135.858Zm6.267-5.215c-.262-.585.608-.238.94-.787C420.222,129.918,419.265,130.983,418.4,130.643Zm1.345-2.456c-1.163-.361-.464-2.016.7-1.649C420.4,127.1,419.519,127.039,419.742,128.187Z"/></g></g></svg>