<svg width="384" height="165" viewBox="0 0 384 165" fill="none" xmlns="http://www.w3.org/2000/svg">
<g clip-path="url(#clip0_4455_7699)">
<path fill-rule="evenodd" clip-rule="evenodd" d="M449.918 164.559C439.911 215.19 407.312 252.297 368.641 252.297C351.227 252.297 335.044 244.772 321.601 231.875C310.613 244.662 296.724 252.296 281.622 252.296C246.023 252.296 217.164 209.874 217.164 157.543C217.164 105.211 246.023 62.7887 281.622 62.7887C287.257 62.7887 292.723 63.8514 297.932 65.8479C313.01 32.9538 339.048 11.2219 368.641 11.2219C392.413 11.2219 413.89 25.2438 429.236 47.8096C435.585 40.1987 443.375 35.7163 451.793 35.7163C473.152 35.7163 490.468 64.5753 490.468 100.175C490.468 135.774 473.152 164.633 451.793 164.633C451.164 164.633 450.539 164.608 449.918 164.559Z" fill="#4F5A7D"/>
</g>
<defs>
<clipPath id="clip0_4455_7699">
<rect width="384" height="165" fill="white"/>
</clipPath>
</defs>
</svg>
