<svg xmlns="http://www.w3.org/2000/svg" width="22" height="22" viewBox="0 0 22 22">
  <path fill="#FFFFFF" fill-rule="evenodd" d="M137,127 L126.991244,127 C125.899898,127 125,127.895431 125,129 C125,130.11227 125.89151,131 126.991244,131 L137,131 L137,141.008756 C137,142.100102 137.895431,143 139,143 C140.11227,143 141,142.10849 141,141.008756 L141,131 L151.008756,131 C152.100102,131 153,130.104569 153,129 C153,127.88773 152.10849,127 151.008756,127 L141,127 L141,116.991244 C141,115.899898 140.104569,115 139,115 C137.88773,115 137,115.89151 137,116.991244 L137,127 Z" transform="rotate(45 217.439 -84.51)"/>
</svg>
