<svg width="104" height="20" viewBox="0 0 104 20" fill="none" xmlns="http://www.w3.org/2000/svg">
<path d="M37.9046 18.3013L34.3828 13.2216C34.2523 13.0337 34.2044 12.803 34.2498 12.5807C34.2952 12.3584 34.4301 12.1629 34.6244 12.0378C36.2375 10.9869 37.2493 9.10672 37.2493 6.938C37.2493 3.22443 34.0547 0.286621 30.1183 0.286621H21.6561C21.5025 0.286621 21.3552 0.346038 21.2466 0.451776C21.1381 0.557513 21.0773 0.700889 21.0775 0.850297V4.45018C21.0767 4.5985 21.1954 4.72148 21.3477 4.73011C24.2113 4.88011 26.511 7.28098 26.511 10.0201C26.511 12.7849 24.1867 15.1342 21.3477 15.2833C21.1954 15.2919 21.0767 15.4149 21.0775 15.5632V19.0551C21.0775 19.3659 21.3366 19.6179 21.6561 19.6179H26.5729C26.8925 19.6179 27.1515 19.3659 27.1515 19.0551V17.3727C27.1515 16.1737 28.2164 15.8833 29.0308 16.8234L31.0938 19.3351C31.2791 19.5174 31.5315 19.6206 31.7952 19.6217H37.1825C37.5052 19.6233 37.8023 19.4508 37.9538 19.1737C38.1053 18.8966 38.0864 18.5606 37.9046 18.3013Z" fill="#999999"/>
<path d="M40.6024 0.276978H44.864C45.1837 0.277505 45.4426 0.529717 45.4426 0.840654V19.0483C45.4426 19.3591 45.1835 19.6111 44.864 19.6111H40.6024C40.2827 19.6111 40.0234 19.3593 40.0228 19.0483V0.840654C40.0228 0.529344 40.2823 0.276978 40.6024 0.276978Z" fill="#999999"/>
<path d="M52.3602 5.04816H47.8698C47.5521 5.04817 47.2938 4.79913 47.2911 4.49022V0.840654C47.2911 0.529717 47.55 0.277505 47.8698 0.276978H62.7419C63.0616 0.277505 63.3205 0.529717 63.3205 0.840654V4.49022C63.3205 4.801 63.0614 5.05294 62.7419 5.05294H58.3615C58.2029 5.056 58.0753 5.18056 58.0727 5.33478V19.0483C58.0727 19.3591 57.8136 19.6111 57.494 19.6111H53.2325C52.9128 19.6111 52.6535 19.3593 52.6529 19.0483V5.33C52.6503 5.17432 52.5203 5.04918 52.3602 5.04816Z" fill="#999999"/>
<path d="M65.8309 0.276978H79.3336C79.6534 0.277505 79.9123 0.529717 79.9122 0.840654V4.45774C79.9122 4.60698 79.8513 4.75011 79.7428 4.85564C79.6343 4.96117 79.4871 5.02046 79.3336 5.02046H70.9609C70.7981 5.02046 70.6662 5.14878 70.6662 5.30707V7.40892C70.6662 7.48441 70.6974 7.55674 70.7528 7.60958C70.8083 7.66243 70.8833 7.69134 70.9609 7.6898H78.7344C79.0541 7.69033 79.313 7.94254 79.313 8.25347V11.455C79.313 11.7657 79.054 12.0177 78.7344 12.0177H70.9609C70.8004 12.0177 70.6694 12.1425 70.6662 12.2986V14.6765C70.6694 14.8326 70.8004 14.9574 70.9609 14.9574H79.5615C79.8813 14.9579 80.1402 15.2101 80.1402 15.5211V19.056C80.1402 19.3668 79.8811 19.6187 79.5615 19.6187H65.8309C65.5114 19.6187 65.2523 19.3668 65.2523 19.056V0.840654C65.2521 0.691245 65.3129 0.54787 65.4214 0.442132C65.53 0.336395 65.6773 0.276978 65.8309 0.276978Z" fill="#999999"/>
<path d="M92.5101 0C86.4351 0 81.5576 4.4903 81.5576 10.0134C81.5576 15.5364 86.4351 20 92.5101 20C98.6136 20 103.491 15.5336 103.491 10.0134C103.491 4.49317 98.6136 0 92.5101 0ZM92.5101 15.2862C91.0715 15.2902 89.6906 14.7362 88.6735 13.7468C87.6563 12.7574 87.0869 11.4144 87.0913 10.0153C87.0913 7.15869 89.5158 4.71768 92.5101 4.71768C95.5044 4.71768 97.9583 7.1864 97.9583 10.0153C97.9632 12.8709 95.4867 15.2862 92.515 15.2862H92.5101Z" fill="#999999"/>
<path d="M10.8385 0C13.931 0 16.6993 1.28404 18.6778 3.33142C18.7852 3.44475 18.8402 3.59589 18.83 3.74966C18.8197 3.90344 18.7453 4.04644 18.6238 4.14541L15.8162 6.43355C15.5874 6.61728 15.2528 6.60326 15.0411 6.40107C13.9193 5.33035 12.4132 4.72598 10.8415 4.71577C7.8462 4.71577 5.42171 6.93513 5.42171 9.95796C5.42171 12.9808 7.8462 15.1734 10.8415 15.1734C12.4131 15.1628 13.9191 14.5585 15.0411 13.4881C15.2526 13.2856 15.5871 13.2712 15.8162 13.4547L18.6258 15.7428C18.7476 15.8415 18.8225 15.9845 18.8329 16.1383C18.8433 16.2922 18.7883 16.4435 18.6808 16.5568C16.7023 18.6042 13.934 19.8882 10.8415 19.8882C4.84899 19.8882 0 15.6998 0 9.95796C0 4.21611 4.84899 0 10.8385 0Z" fill="#999999"/>
</svg>
