<svg width="32" height="32" viewBox="0 0 32 32" fill="none" xmlns="http://www.w3.org/2000/svg">
<g id="UI icon/cross_circle_fill">
<path id="Vector" fill-rule="evenodd" clip-rule="evenodd" d="M32 16C32 24.8366 24.8366 32 16 32C7.16344 32 0 24.8366 0 16C0 7.16344 7.16344 0 16 0C24.8366 0 32 7.16344 32 16ZM19.86 21.64L15.9998 17.7798L12.1395 21.64C11.8995 21.86 11.5995 22 11.2595 22C10.5795 22 10.0195 21.46 10.0195 20.76C10.0195 20.44 10.1395 20.12 10.3795 19.88L14.2398 16.0198L10.36 12.14C10.12 11.9 10 11.58 10 11.26C10 10.56 10.56 10.02 11.24 10.02C11.58 10.02 11.88 10.16 12.12 10.38L15.9998 14.2598L19.8795 10.38C20.1195 10.16 20.4195 10.02 20.7595 10.02C21.4395 10.02 21.9995 10.56 21.9995 11.26C21.9995 11.58 21.8795 11.9 21.6395 12.14L17.7598 16.0198L21.62 19.88C21.86 20.12 21.98 20.44 21.98 20.76C21.98 21.46 21.42 22 20.74 22C20.4 22 20.1 21.86 19.86 21.64Z" fill="white"/>
</g>
</svg>
