<svg width="120" height="28" viewBox="0 0 120 28" fill="none" xmlns="http://www.w3.org/2000/svg">
<path d="M104.06 14C104.06 9.55687 107.441 6.45506 111.921 6.45506C116.402 6.45506 119.783 9.59877 119.783 14C119.783 18.3592 116.402 21.5448 111.921 21.5448C107.441 21.5448 104.06 18.3592 104.06 14ZM115.303 14C115.303 11.9041 113.993 10.3952 111.921 10.3952C109.85 10.3952 108.54 11.9041 108.54 14C108.54 16.0958 109.85 17.6047 111.921 17.6047C113.993 17.6047 115.303 16.0958 115.303 14ZM101.101 10.479C101.397 11.0658 101.524 11.6946 101.524 12.3652C101.524 14 100.679 15.4251 99.3261 16.5987C101.186 17.5209 102.285 19.6167 102.285 21.6706C102.285 25.4849 99.1991 28 94.5078 28C89.8161 28 86.7307 25.4849 86.7307 21.6706C86.7307 19.6167 87.8296 17.5209 89.6891 16.5987C88.2946 15.4251 87.4914 14 87.4914 12.3652C87.4914 9.05385 90.1121 6.58083 94.2542 6.58083C96.7055 6.58083 97.4241 6.99998 98.8189 6.99998C99.7487 6.99998 100.383 6.87424 101.524 6.28742C101.904 6.07781 102.2 5.99398 102.454 5.99398C103.003 5.99398 103.299 6.53889 103.299 7.25148C103.341 8.71854 102.623 9.93408 101.101 10.479ZM97.8888 21.5448C97.8888 19.8263 96.5788 18.6526 94.5078 18.6526C92.4367 18.6526 91.1264 19.8263 91.1264 21.5448C91.1264 23.1795 92.5633 24.437 94.5078 24.437C96.4519 24.437 97.8888 23.1376 97.8888 21.5448ZM91.8026 12.6167C91.8026 14.0419 93.0284 15.2155 94.5078 15.2155C96.0292 15.2155 97.2126 14.0419 97.2126 12.6167C97.2126 11.0658 96.1138 10.0179 94.5078 10.0179C92.9015 10.0598 91.8026 11.1078 91.8026 12.6167ZM84.7018 14.2934V19.5748C84.7018 20.5807 84.3216 21.0418 83.2224 21.0418H81.7433C80.6442 21.0418 80.264 20.6227 80.264 19.5748V14.4191C80.264 13.1197 80.0525 12.1976 79.5878 11.5688C79.0803 10.9401 78.3195 10.6047 77.3473 10.6047C76.4175 10.6047 75.5723 10.9401 75.0227 11.5688C74.5155 12.1557 74.1774 13.1197 74.1774 14.3772V19.5328C74.1774 20.6227 73.7548 20.9999 72.6981 20.9999H71.2187C70.2044 20.9999 69.7396 20.6227 69.7396 19.5328V7.71254C69.7396 7.04188 70.0777 6.70657 70.5849 6.70657C71.3456 6.70657 72.4024 7.33529 73.2052 8.55086C74.3889 7.16765 76.2064 6.45506 77.9814 6.45506C80.137 6.45506 81.87 7.20955 83.0112 8.50896C84.1101 9.80834 84.7018 11.485 84.7018 14.2934ZM61.6245 2.38922C61.6245 1.0479 62.7233 0 64.1603 0C65.513 0 66.6964 1.0479 66.6964 2.38922C66.6964 3.68863 65.513 4.77843 64.1603 4.77843C62.7233 4.77843 61.6245 3.68863 61.6245 2.38922ZM61.9202 19.5748V8.46703C61.9202 7.46106 62.3007 6.99998 63.3995 6.99998H64.8789C65.9777 6.99998 66.3583 7.41913 66.3583 8.46703V19.5748C66.3583 20.5807 65.9777 21.0418 64.8789 21.0418H63.3995C62.3007 20.9999 61.9202 20.5807 61.9202 19.5748ZM54.101 19.5748V5.61676C54.101 2.13771 56.0875 0.125739 57.6935 0.125739C58.2007 0.125739 58.5388 0.461082 58.5388 1.13174V19.5748C58.5388 20.6646 58.1162 21.0418 57.0597 21.0418H55.5804C54.566 20.9999 54.101 20.6227 54.101 19.5748ZM35.7996 14C35.7996 9.55687 39.181 6.45506 43.6612 6.45506C48.1414 6.45506 51.5228 9.59877 51.5228 14C51.5228 18.3592 48.1414 21.5448 43.6612 21.5448C39.181 21.5448 35.7996 18.3592 35.7996 14ZM47.0847 14C47.0847 11.9041 45.7744 10.3952 43.7033 10.3952C41.6323 10.3952 40.3222 11.9041 40.3222 14C40.3222 16.0958 41.6323 17.6047 43.7033 17.6047C45.7744 17.6047 47.0847 16.0958 47.0847 14ZM33.5595 8.46703V20.3293C33.5595 20.9999 33.2214 21.3352 32.7142 21.3352C31.9535 21.3352 30.8968 20.7065 30.136 19.5328C29.0369 20.8323 27.3463 21.6287 25.4443 21.6287C23.5423 21.6287 22.0209 20.958 20.8796 19.9101C19.5693 18.6526 18.8506 16.6826 18.8506 13.8742V8.46703C18.8506 7.46106 19.2312 6.99998 20.33 6.99998H21.8094C22.9082 6.99998 23.2888 7.41913 23.2888 8.46703V13.455C23.2888 15.1317 23.5848 16.0538 24.134 16.6406C24.5991 17.1436 25.2753 17.3951 26.1206 17.3951C26.9658 17.3951 27.769 17.0598 28.234 16.5149C28.7833 15.9281 29.0793 14.964 29.0793 13.5808V8.46703C29.0793 7.37722 29.5019 6.99998 30.5587 6.99998H32.038C33.0944 6.99998 33.5595 7.37722 33.5595 8.46703ZM15.8077 1.13174V20.3293C15.8077 20.9999 15.4696 21.3352 14.9621 21.3352C14.2014 21.3352 13.145 20.7065 12.3839 19.5328C11.4541 20.6227 9.55211 21.5868 7.35443 21.5868C2.95874 21.5868 0 18.3592 0 14.0419C0 9.76644 3.00084 6.49699 7.35443 6.49699C8.96043 6.49699 10.3553 6.99998 11.412 7.71254V5.65866C11.412 2.17964 13.3985 0.167672 15.0045 0.167672C15.5117 0.125738 15.8077 0.461082 15.8077 1.13174ZM11.3696 14C11.3696 11.8203 9.84811 10.3952 7.94611 10.3952C6.00169 10.3952 4.48021 11.8203 4.48021 14C4.48021 16.1796 6.00169 17.6047 7.94611 17.6047C9.84811 17.6047 11.3696 16.1796 11.3696 14Z" fill="#999999"/>
</svg>
