<svg width="16" height="17" viewBox="0 0 16 17" fill="none" xmlns="http://www.w3.org/2000/svg">
<g clip-path="url(#clip0_1239_50579)">
<path d="M0.5 2.5H6.5" stroke="black" stroke-linecap="round" stroke-linejoin="round"/>
<path d="M9.5 2.5H15.5" stroke="black" stroke-linecap="round" stroke-linejoin="round"/>
<path d="M0.5 14.5H9.5" stroke="black" stroke-linecap="round" stroke-linejoin="round"/>
<path d="M12.5 14.5H15.5" stroke="black" stroke-linecap="round" stroke-linejoin="round"/>
<path d="M0.5 8.5H3.5" stroke="black" stroke-linecap="round" stroke-linejoin="round"/>
<path d="M6.5 8.5H15.5" stroke="black" stroke-linecap="round" stroke-linejoin="round"/>
<path d="M5 10C5.82843 10 6.5 9.32843 6.5 8.5C6.5 7.67157 5.82843 7 5 7C4.17157 7 3.5 7.67157 3.5 8.5C3.5 9.32843 4.17157 10 5 10Z" stroke="black" stroke-linecap="round" stroke-linejoin="round"/>
<path d="M11 16C11.8284 16 12.5 15.3284 12.5 14.5C12.5 13.6716 11.8284 13 11 13C10.1716 13 9.5 13.6716 9.5 14.5C9.5 15.3284 10.1716 16 11 16Z" stroke="black" stroke-linecap="round" stroke-linejoin="round"/>
<path d="M8 4C8.82843 4 9.5 3.32843 9.5 2.5C9.5 1.67157 8.82843 1 8 1C7.17157 1 6.5 1.67157 6.5 2.5C6.5 3.32843 7.17157 4 8 4Z" stroke="black" stroke-linecap="round" stroke-linejoin="round"/>
</g>
<defs>
<clipPath id="clip0_1239_50579">
<rect width="16" height="16" fill="white" transform="translate(0 0.5)"/>
</clipPath>
</defs>
</svg>
