<svg width="28" height="24" viewBox="0 0 28 24" fill="none" xmlns="http://www.w3.org/2000/svg">
<path d="M14 0C7.37258 0 2 5.40541 2 12.0733C2 18.0994 6.3882 23.0943 12.125 24V15.5633H9.07812V12.0733H12.125V9.41343C12.125 6.38755 13.9166 4.71615 16.6576 4.71615C17.95 4.71615 19.3009 4.94464 19.3427 4.95179L19.3438 4.95195V7.92313H17.8306C16.34 7.92313 15.875 8.8548 15.875 9.80959V12.0733H19.2031L18.6711 15.5633H15.875V24C21.6118 23.0943 26 18.0994 26 12.0733C26 5.40541 20.6274 0 14 0Z" fill="#829BC4"/>
</svg>
