<svg width="127" height="40" viewBox="0 0 127 40" fill="none" xmlns="http://www.w3.org/2000/svg">
<g id="logo_fastic_white">
<path id="Vector" d="M24.2871 1.71212C24.1507 1.37879 23.9386 1.07576 23.6961 0.818182C23.4386 0.560606 23.1355 0.363636 22.8022 0.227273C22.4689 0.0757576 22.1204 0 21.7567 0C20.0598 0 18.4386 0.681818 17.2264 1.87879C16.0295 3.07576 15.3477 4.71212 15.3477 6.40909V15.2727V18.1061V18.1212C15.3477 18.8485 15.6355 19.5455 16.1507 20.0606C16.6658 20.5758 17.3628 20.8636 18.0901 20.8636C18.8174 20.8636 19.5143 20.5758 20.0295 20.0606C20.5446 19.5455 20.8325 18.8485 20.8325 18.1212V18.1061V7.92424C20.8325 7.48485 20.9386 7.04545 21.1355 6.65152C21.181 6.54545 21.2416 6.45455 21.3174 6.36364C21.6355 5.90909 22.0901 5.54545 22.6052 5.34848C23.1507 5.16667 23.6204 4.81818 23.9537 4.34848C24.3174 3.87879 24.4992 3.33333 24.4992 2.75758C24.4992 2.39394 24.4234 2.04545 24.2871 1.71212Z" fill="#999999"/>
<path id="Vector_2" d="M49.4389 11.7276C48.742 12.4852 48.3935 13.4852 48.3935 14.7276V15.561H52.0147C52.3935 15.5458 52.7723 15.6822 53.0601 15.9246C53.1965 16.0458 53.3026 16.1973 53.3632 16.364C53.4389 16.5307 53.4692 16.7125 53.4541 16.8943C53.4541 17.061 53.4238 17.2428 53.348 17.3943C53.2723 17.5458 53.1814 17.6973 53.045 17.8034C52.7571 18.061 52.3783 18.1822 51.9995 18.167H48.3783V30.1064C48.3935 30.3186 48.348 30.5155 48.2874 30.7125C48.2117 30.9095 48.1056 31.0913 47.9541 31.2428C47.6662 31.5307 47.2723 31.667 46.7571 31.667C46.5601 31.667 46.3632 31.6367 46.1814 31.561C45.9995 31.4852 45.8329 31.3792 45.6965 31.2428C45.545 31.0913 45.4389 30.9246 45.348 30.7276C45.2723 30.5307 45.242 30.3186 45.242 30.1064V18.1822H43.9389C43.5601 18.1973 43.1814 18.061 42.8935 17.8186C42.7723 17.6973 42.6662 17.561 42.5904 17.4095C42.5147 17.2579 42.4844 17.0761 42.4844 16.9095C42.4692 16.7276 42.5147 16.5458 42.5753 16.3792C42.651 16.2125 42.742 16.061 42.8783 15.9398C43.1662 15.6822 43.545 15.561 43.9238 15.5761H45.242V15.061C45.242 13.6064 45.5298 12.3337 46.1207 11.2428C46.6814 10.1822 47.5298 9.28825 48.5753 8.69734C49.6662 8.07613 50.9086 7.7731 52.1814 7.78825C52.5904 7.7731 52.9844 7.90946 53.3026 8.18219C53.4389 8.3034 53.5601 8.47007 53.6359 8.63673C53.7117 8.8034 53.7571 9.00037 53.7571 9.18219C53.7571 9.364 53.7117 9.56097 53.6359 9.72764C53.5601 9.89431 53.4541 10.061 53.3026 10.1822C52.9995 10.4549 52.5904 10.5913 52.1814 10.5761C51.045 10.5913 50.1207 10.9701 49.4389 11.7276ZM67.348 15.8792C66.045 15.1216 64.5753 14.7428 63.0753 14.7579C61.5601 14.7428 60.0753 15.1216 58.7723 15.8792C57.4995 16.6064 56.4389 17.667 55.7268 18.9398C54.9844 20.2579 54.6056 21.7579 54.6207 23.2731C54.6056 24.7731 54.9541 26.2731 55.651 27.6064C56.3026 28.864 57.2723 29.9095 58.4692 30.6519C60.045 31.6216 61.9238 31.9852 63.742 31.667C65.5601 31.364 67.2117 30.3943 68.3783 28.9701V30.1064C68.3783 30.5155 68.545 30.9246 68.8329 31.2125C69.1207 31.5004 69.5298 31.667 69.9389 31.667C70.348 31.667 70.7571 31.5004 71.045 31.2125C71.3329 30.9246 71.4995 30.5155 71.4995 30.1064V23.2731C71.5147 21.7579 71.1359 20.2579 70.3783 18.9398C69.6511 17.667 68.6056 16.6064 67.348 15.8792ZM67.7874 26.1973C67.4389 26.8337 66.9692 27.3943 66.3935 27.8337C65.8177 28.2882 65.1662 28.6064 64.4692 28.8034C63.7723 29.0004 63.045 29.0458 62.3177 28.9549C61.6056 28.864 60.9086 28.6216 60.2874 28.2579C59.4692 27.7579 58.7874 27.0458 58.3329 26.1973C57.848 25.3034 57.5904 24.2882 57.6056 23.2731C57.5904 22.2428 57.8329 21.2276 58.3329 20.3337C58.7874 19.4852 59.4692 18.7731 60.2874 18.2579C60.9086 17.8792 61.6056 17.6367 62.3177 17.5307C63.045 17.4246 63.7723 17.4852 64.4692 17.667C65.1662 17.864 65.8329 18.1973 66.3935 18.6519C66.9541 19.1064 67.4238 19.6822 67.7723 20.3186C68.242 21.2276 68.4844 22.2428 68.4692 23.2579C68.4995 24.2882 68.2723 25.3034 67.7874 26.1973ZM100.242 28.5761H98.6965C98.3783 28.5761 98.0601 28.5004 97.7723 28.364C97.4844 28.2276 97.242 28.0155 97.045 27.7579C96.5904 27.1822 96.348 26.4549 96.3632 25.7125V18.1519H99.4692C99.848 18.167 100.227 18.0307 100.515 17.7882C100.636 17.667 100.742 17.5307 100.818 17.3792C100.893 17.2276 100.924 17.0458 100.924 16.8792C100.939 16.6973 100.893 16.5155 100.833 16.3489C100.757 16.1822 100.666 16.0307 100.53 15.9095C100.242 15.6519 99.8632 15.5307 99.4844 15.5458H96.3783V11.0761C96.3783 10.667 96.2117 10.2731 95.9238 10.0004C95.6359 9.71249 95.242 9.54582 94.848 9.54582C94.4389 9.54582 94.045 9.71249 93.7723 10.0004C93.4844 10.2882 93.3177 10.6822 93.3177 11.0761V15.4852H91.9086C91.5298 15.4701 91.1511 15.6064 90.8632 15.8489C90.7268 15.9701 90.6208 16.1216 90.5601 16.2882C90.4844 16.4549 90.4541 16.6367 90.4692 16.8186C90.4692 16.9852 90.4995 17.167 90.5753 17.3186C90.651 17.4701 90.742 17.6216 90.8783 17.7276C91.1662 17.9852 91.545 18.1064 91.9238 18.0913H93.3329V25.6519C93.3177 26.6973 93.5601 27.7428 94.045 28.6822C94.4844 29.561 95.1662 30.2882 95.9844 30.8186C96.8026 31.3337 97.7571 31.6064 98.7268 31.5913H99.7723C100.242 31.6064 100.712 31.4549 101.075 31.167C101.242 31.0307 101.363 30.864 101.454 30.667C101.545 30.4701 101.59 30.2731 101.575 30.061C101.59 29.6519 101.454 29.2579 101.197 28.9549C101.075 28.8186 100.939 28.7125 100.772 28.6367C100.59 28.6064 100.424 28.5761 100.242 28.5761ZM82.045 21.7731C79.1965 21.1367 78.045 20.6822 78.0904 19.2882C78.1359 17.8943 79.9389 17.4852 81.3026 17.4852C82.9692 17.4852 84.242 17.7276 85.5147 18.7882C86.242 19.3792 87.0601 19.3186 87.4995 18.8792C87.9692 18.4095 87.848 17.7125 87.4238 17.1822C86.5298 16.0458 84.4238 14.7579 81.3632 14.7579C78.4692 14.7579 75.0753 16.0761 75.0753 19.3792C75.0753 22.6822 78.6359 23.7731 80.9541 24.2125C83.2723 24.6519 85.1207 25.3337 85.1207 26.8489C85.1207 28.364 83.348 29.0004 81.4389 29.0004C79.9389 29.0155 78.4692 28.5307 77.2874 27.6064C76.6056 27.0913 75.8632 27.0458 75.242 27.5307C74.545 28.0761 74.5147 29.1216 75.2723 29.8489C76.5904 31.1216 78.7723 31.7731 81.5601 31.7731C85.0753 31.7731 88.151 30.1519 88.151 26.7428C88.151 23.3337 84.8935 22.4095 82.045 21.7731ZM126.242 27.2125C125.697 26.7731 124.893 26.7882 124.136 27.5155C123.651 28.0004 123.06 28.3943 122.424 28.6519C121.787 28.9095 121.09 29.0307 120.409 29.0155C118.833 29.0155 117.56 28.4852 116.575 27.4398C115.59 26.3943 115.106 25.0004 115.106 23.2579H115.09C115.09 21.5458 115.59 20.167 116.56 19.1216C117.53 18.0761 118.803 17.561 120.393 17.5458C121.09 17.5307 121.772 17.6519 122.409 17.9095C123.045 18.167 123.636 18.5458 124.121 19.0458C124.878 19.7579 125.681 19.7731 126.227 19.3489C126.363 19.2428 126.469 19.1216 126.56 18.9701C126.651 18.8186 126.697 18.6519 126.712 18.4852C126.727 18.3186 126.712 18.1519 126.651 17.9852C126.59 17.8186 126.515 17.6822 126.393 17.5458C124.803 15.7125 122.803 14.7882 120.393 14.7882C118.893 14.7579 117.409 15.1367 116.106 15.8792C114.848 16.5913 113.833 17.6367 113.151 18.9095C112.439 20.2579 112.075 21.7579 112.09 23.2731H112.106C112.09 24.8034 112.454 26.3034 113.166 27.6519C113.848 28.9246 114.863 29.9701 116.121 30.6822C117.424 31.4246 118.909 31.7882 120.409 31.7731C122.818 31.7731 124.818 30.8489 126.409 29.0155C126.53 28.8943 126.606 28.7428 126.666 28.5761C126.727 28.4095 126.742 28.2428 126.727 28.0761C126.712 27.9095 126.666 27.7428 126.575 27.5913C126.484 27.4398 126.378 27.3034 126.242 27.2125ZM106.833 12.1519C107.303 12.1519 107.772 12.0004 108.136 11.6973C108.5 11.3943 108.757 10.9852 108.848 10.5155C108.939 10.0458 108.878 9.57613 108.651 9.15188C108.424 8.72764 108.075 8.40946 107.636 8.22764C107.197 8.04582 106.712 8.01552 106.257 8.15188C105.803 8.28825 105.409 8.57613 105.151 8.97007C104.893 9.36401 104.772 9.8337 104.818 10.3034C104.863 10.7731 105.075 11.2125 105.409 11.5458C105.59 11.7428 105.818 11.8943 106.06 11.9852C106.303 12.0761 106.56 12.1519 106.833 12.1519ZM106.833 14.8792C106.621 14.8792 106.424 14.9095 106.227 14.9852C106.03 15.061 105.863 15.167 105.712 15.3186C105.56 15.4701 105.439 15.6367 105.363 15.8337C105.287 16.0307 105.257 16.2428 105.257 16.4398V30.0761C105.257 30.2882 105.287 30.4852 105.363 30.6822C105.439 30.8792 105.56 31.0458 105.697 31.1973C105.848 31.3489 106.015 31.4549 106.212 31.5307C106.409 31.6064 106.606 31.6367 106.818 31.6367C107.03 31.6519 107.242 31.6064 107.439 31.5307C107.636 31.4549 107.818 31.3337 107.954 31.1822C108.09 31.0307 108.212 30.864 108.287 30.667C108.363 30.4701 108.393 30.2731 108.393 30.061V16.4246C108.409 16.2125 108.378 16.0004 108.303 15.8186C108.227 15.6216 108.121 15.4398 107.969 15.3034C107.818 15.1519 107.651 15.0458 107.454 14.9701C107.242 14.8943 107.03 14.864 106.833 14.8792Z" fill="#999999"/>
<g id="Group">
<path id="Vector_3" d="M31.2424 9.31877L31.1818 9.25817C31.0909 9.15211 30.9848 9.04604 30.8939 8.95514L30.8182 8.87938C30.1818 8.24301 29.4848 7.65211 28.7576 7.1218C28.2273 6.74301 27.5758 6.54604 26.9242 6.60665C26.2727 6.6521 25.6515 6.93998 25.197 7.40968C24.9091 7.69756 24.697 8.03089 24.5606 8.39453C24.4242 8.77332 24.3636 9.16726 24.3939 9.5612C24.4242 9.95514 24.5455 10.3491 24.7424 10.6824C24.9394 11.0309 25.197 11.3339 25.5303 11.5612C26.0606 11.9551 26.5606 12.3794 27.0303 12.8339C29.3939 15.1976 30.7273 18.3945 30.7273 21.743C30.7273 25.0763 29.3939 28.2733 27.0455 30.637C27.0303 30.6521 27.0303 30.6673 27.0152 30.6673C24.6515 33.0309 21.4545 34.3642 18.1061 34.3642C15.2121 34.3642 11.4091 33.1976 9.16667 30.6673C9.16667 30.6673 10.9242 32.6521 9.16667 30.6673C6.80303 28.3036 5.4697 25.1067 5.4697 21.7582C5.4697 18.8794 6.45455 16.1067 8.24242 13.8794C8.54545 13.5157 8.86364 13.1673 9.19697 12.8339C9.66667 12.3642 10.1667 11.94 10.697 11.546C11.0909 11.2582 11.4091 10.8642 11.5909 10.4097C11.7879 9.95514 11.8485 9.45514 11.7879 8.97029H11.803C11.7424 8.50059 11.5606 8.04604 11.2727 7.66726C10.9848 7.28847 10.6061 6.98544 10.1667 6.80362C9.72727 6.6218 9.25758 6.54604 8.77273 6.5915C8.30303 6.63695 7.84848 6.81877 7.45455 7.0915C5.15152 8.78847 3.27273 10.9854 1.9697 13.5309C0.666667 16.0763 0 18.8945 0 21.7582C0 25.9854 1.48485 30.0915 4.18182 33.3339C4.51515 33.7582 4.87879 34.1673 5.27273 34.546L5.34848 34.6218C8.68182 37.9248 13.1667 39.7885 17.8636 39.8491C22.5455 39.9097 27.0758 38.137 30.5 34.9248C30.5 34.9248 28.9848 36.4248 30.8636 34.546C30.8939 34.5157 30.9091 34.5006 30.9394 34.4703C34.2424 31.137 36.1061 26.6521 36.1667 21.9551C36.2273 17.2733 34.4545 12.743 31.2424 9.31877Z" fill="#999999"/>
</g>
</g>
</svg>
