<svg width="24" height="24" viewBox="0 0 24 24" fill="none" xmlns="http://www.w3.org/2000/svg">
<g clip-path="url(#clip0_1983_4052)">
<path d="M8.33203 15.6675L16.7134 7.28613" stroke="#829BC4" stroke-width="2" stroke-linecap="round" stroke-linejoin="round"/>
<path d="M11.4768 16.0533V16.752C11.4758 17.8635 11.0335 18.9293 10.2471 19.7148L8.15098 21.7762C7.36494 22.5613 6.29942 23.0017 5.18849 23.0017C4.07756 23.0017 3.01206 22.5613 2.22602 21.7762V21.7762C1.44097 20.9901 1 19.9244 1 18.8134C1 17.7024 1.44097 16.6367 2.22602 15.8507L4.28719 13.7545C5.07262 12.9681 6.13819 12.5259 7.24965 12.5249H7.94835" stroke="#829BC4" stroke-width="2" stroke-linecap="round" stroke-linejoin="round"/>
<path d="M11.4746 8.64318V7.87458C11.4757 6.65193 11.9639 5.47956 12.8318 4.61555L15.1067 2.34805C15.9742 1.48445 17.1502 1 18.3763 1C19.6024 1 20.7784 1.48445 21.6459 2.34805V2.34805C22.5124 3.21272 22.999 4.385 22.999 5.60707C22.999 6.82914 22.5124 8.00143 21.6459 8.8661L19.3711 11.1719C18.5042 12.037 17.3281 12.5234 16.1014 12.5244H15.3303" stroke="#829BC4" stroke-width="2" stroke-linecap="round" stroke-linejoin="round"/>
</g>
<defs>
<clipPath id="clip0_1983_4052">
<rect width="24" height="24" fill="white"/>
</clipPath>
</defs>
</svg>
