<svg xmlns="http://www.w3.org/2000/svg" viewBox="0 0 47.713 78.076"><g id="Layer_2" data-name="Layer 2"><g id="hand-tap"><g id="hand"><path d="M11.213,53.476v-37.4a4.85,4.85,0,0,1,9.7,0v25.6" style="fill:none;stroke:#9fa3bb;stroke-linecap:round;stroke-linejoin:round;stroke-width:3px"/><path d="M21.013,41.676v-9.5a4.85,4.85,0,0,1,9.7,0v11.1" style="fill:none;stroke:#9fa3bb;stroke-linecap:round;stroke-linejoin:round;stroke-width:3px"/><path d="M30.713,43.276v-7.5a4.9,4.9,0,1,1,9.8,0v10.5" style="fill:none;stroke:#9fa3bb;stroke-linecap:round;stroke-linejoin:round;stroke-width:3px"/><path d="M41.313,36.576a4.908,4.908,0,0,1,4.9,4.9v13.8a21.25,21.25,0,1,1-42.5-.1v-11.7a4.908,4.908,0,0,1,4.9-4.9h1.8" style="fill:none;stroke:#9fa3bb;stroke-linecap:round;stroke-linejoin:round;stroke-width:3px"/></g><path id="wave1" d="M25.113,19.676a9.694,9.694,0,1,0-18-7.2,10.205,10.205,0,0,0,0,7.3" style="fill:none;stroke:#fff;stroke-linecap:round;stroke-linejoin:round;stroke-width:3px"/><path id="wave2" d="M5.913,26.476a14.458,14.458,0,0,1-.2-20.6,14.667,14.667,0,0,1,20.7-.2,14.5,14.5,0,0,1,3,16.5" style="fill:none;stroke:#fff;stroke-linecap:round;stroke-linejoin:round;stroke-width:3px"/></g></g></svg>