<?xml version="1.0" encoding="utf-8"?>
<!-- Generator: Adobe Illustrator 25.0.1, SVG Export Plug-In . SVG Version: 6.00 Build 0)  -->
<svg version="1.1" id="Layer_1" xmlns="http://www.w3.org/2000/svg" xmlns:xlink="http://www.w3.org/1999/xlink" x="0px" y="0px"
	 viewBox="0 0 78 156" style="enable-background:new 0 0 78 156;" xml:space="preserve">
<style type="text/css">
	.st0{fill:#C7C8CC;}
	.st1{fill:#0E8FBF;}
	.st2{fill:none;}
	.st3{fill:#FFFFFF;}
</style>
<g id="Layer_2_1_">
	<g id="Layer_1-2">
		<circle class="st0" cx="39" cy="117" r="39"/>
		<path class="st1" d="M52.7,121.1c0,1.9-0.3,3.8-1.1,5.5c-0.7,1.6-1.6,3-2.9,4.2c-1.2,1.2-2.7,2.1-4.3,2.7c-3.5,1.2-7.3,1.2-10.8,0
			c-1.6-0.6-3.1-1.5-4.3-2.7c-1.2-1.2-2.2-2.6-2.9-4.2c-0.7-1.8-1.1-3.6-1-5.5V99.6h6v21.3c0,0.9,0.1,1.8,0.4,2.6
			c0.3,0.9,0.7,1.8,1.3,2.5c0.6,0.8,1.4,1.5,2.4,1.9c1.1,0.5,2.4,0.8,3.6,0.7c1.2,0,2.5-0.2,3.6-0.7c0.9-0.4,1.7-1.1,2.4-1.9
			c0.6-0.8,1-1.6,1.3-2.5c0.2-0.9,0.4-1.7,0.4-2.6V99.6h6V121.1z"/>
		<circle class="st2" cx="39" cy="39" r="39"/>
		<path class="st3" d="M52.7,43.1c0,1.9-0.3,3.8-1.1,5.5c-0.7,1.6-1.6,3-2.9,4.2c-1.2,1.2-2.7,2.1-4.3,2.7c-3.5,1.2-7.3,1.2-10.8,0
			c-1.6-0.6-3.1-1.5-4.3-2.7c-1.2-1.2-2.2-2.6-2.9-4.2c-0.7-1.8-1.1-3.6-1-5.5V21.6h6v21.3c0,0.9,0.1,1.8,0.4,2.6
			c0.3,0.9,0.7,1.8,1.3,2.5c0.6,0.8,1.4,1.5,2.4,1.9c1.1,0.5,2.4,0.8,3.6,0.7c1.2,0,2.5-0.2,3.6-0.7c0.9-0.4,1.7-1.1,2.4-1.9
			c0.6-0.8,1-1.6,1.3-2.5c0.2-0.9,0.4-1.7,0.4-2.6V21.6h6V43.1z"/>
	</g>
</g>
</svg>
