<svg width="20" height="20" viewBox="0 0 20 20" fill="none" xmlns="http://www.w3.org/2000/svg">
<path fill-rule="evenodd" clip-rule="evenodd" d="M11.4999 2.50024L17.5 8.50032C18.3284 9.32876 18.3284 10.6719 17.5 11.5004L11.4999 17.5005C10.6714 18.3289 9.32827 18.3289 8.49983 17.5005L2.49975 11.5004C1.67131 10.6719 1.67131 9.32876 2.49975 8.50032L8.49984 2.50024C9.32828 1.6718 10.6714 1.6718 11.4999 2.50024ZM7.56159 7.56385C7.86909 7.87135 7.86909 8.38136 7.56159 8.68887L7.03109 9.21936L12.968 9.21936L12.4375 8.68887C12.13 8.38136 12.13 7.87135 12.4375 7.56385C12.7451 7.25635 13.2551 7.25635 13.5626 7.56385L15.4376 9.43888C15.7451 9.74638 15.7451 10.2564 15.4376 10.5639L13.5626 12.4389C13.2551 12.7464 12.745 12.7464 12.4375 12.4389C12.13 12.1314 12.13 11.6214 12.4375 11.3139L12.9696 10.7819L7.02954 10.7819L7.56158 11.3139C7.86909 11.6214 7.86909 12.1314 7.56158 12.4389C7.25408 12.7464 6.74407 12.7464 6.43657 12.4389L4.56154 10.5639C4.25404 10.2564 4.25404 9.74638 4.56154 9.43888L6.43657 7.56385C6.74407 7.25635 7.25408 7.25635 7.56159 7.56385Z" fill="#AFB7CF"/>
</svg>
