<svg xmlns="http://www.w3.org/2000/svg" xmlns:xlink="http://www.w3.org/1999/xlink" viewBox="0 0 23.09 25.721"><defs><style>.cls-1{fill:url(#linear-gradient);}.cls-2{fill:url(#linear-gradient-2);}.cls-3{fill:url(#linear-gradient-3);}.cls-4{fill:url(#linear-gradient-4);}.cls-5{opacity:0.2;}.cls-5,.cls-6,.cls-7{isolation:isolate;}.cls-6{opacity:0.12;}.cls-7{fill:#fff;opacity:0.25;}</style><linearGradient id="linear-gradient" x1="11.827" y1="166.15" x2="-4.955" y2="149.367" gradientTransform="matrix(1, 0, 0, -1, 0, 167.719)" gradientUnits="userSpaceOnUse"><stop offset="0" stop-color="#00a0ff"/><stop offset="0.007" stop-color="#00a1ff"/><stop offset="0.26" stop-color="#00beff"/><stop offset="0.512" stop-color="#00d2ff"/><stop offset="0.76" stop-color="#00dfff"/><stop offset="1" stop-color="#00e3ff"/></linearGradient><linearGradient id="linear-gradient-2" x1="23.862" y1="154.858" x2="-0.335" y2="154.858" gradientTransform="matrix(1, 0, 0, -1, 0, 167.719)" gradientUnits="userSpaceOnUse"><stop offset="0" stop-color="#ffe000"/><stop offset="0.409" stop-color="#ffbd00"/><stop offset="0.775" stop-color="orange"/><stop offset="1" stop-color="#ff9c00"/></linearGradient><linearGradient id="linear-gradient-3" x1="14.854" y1="152.563" x2="-7.904" y2="129.805" gradientTransform="matrix(1, 0, 0, -1, 0, 167.719)" gradientUnits="userSpaceOnUse"><stop offset="0" stop-color="#ff3a44"/><stop offset="1" stop-color="#c31162"/></linearGradient><linearGradient id="linear-gradient-4" x1="-2.675" y1="174.683" x2="7.487" y2="164.521" gradientTransform="matrix(1, 0, 0, -1, 0, 167.719)" gradientUnits="userSpaceOnUse"><stop offset="0" stop-color="#32a071"/><stop offset="0.069" stop-color="#2da771"/><stop offset="0.476" stop-color="#15cf74"/><stop offset="0.801" stop-color="#06e775"/><stop offset="1" stop-color="#00f076"/></linearGradient></defs><title>Asset 1</title><g id="Layer_2" data-name="Layer 2"><g id="artwork"><path class="cls-1" d="M.463.4A2,2,0,0,0,0,1.8V23.919a2,2,0,0,0,.463,1.4l.074.073L12.926,13.007v-.293L.537.325Z"/><path class="cls-2" d="M17.055,17.138l-4.129-4.131v-.293l4.13-4.13.093.053,4.893,2.78c1.4.794,1.4,2.093,0,2.888l-4.893,2.78Z"/><path class="cls-3" d="M17.149,17.084l-4.223-4.223L.463,25.323a1.626,1.626,0,0,0,2.078.062l14.608-8.3"/><path class="cls-4" d="M17.149,8.637,2.541.336A1.626,1.626,0,0,0,.463.4L12.926,12.861Z"/><path class="cls-5" d="M17.056,16.991,2.541,25.239a1.666,1.666,0,0,1-2,.01h0l-.074.075h0l.074.072h0a1.667,1.667,0,0,0,2-.011l14.608-8.3Z"/><path class="cls-6" d="M.463,25.178A2,2,0,0,1,0,23.773v.146a2,2,0,0,0,.463,1.405l.074-.075Z"/><path class="cls-6" d="M22.042,14.158l-4.986,2.833.093.093,4.893-2.78a1.753,1.753,0,0,0,1.048-1.443h0A1.859,1.859,0,0,1,22.042,14.158Z"/><path class="cls-7" d="M2.541.483l19.5,11.08a1.858,1.858,0,0,1,1.048,1.3h0a1.751,1.751,0,0,0-1.048-1.444L2.541.337C1.143-.457,0,.2,0,1.8v.146C0,.348,1.143-.311,2.541.483Z"/></g></g></svg>