<svg width="32" height="33" viewBox="0 0 32 33" fill="none" xmlns="http://www.w3.org/2000/svg">
<g clip-path="url(#clip0_1708_3998)">
<path d="M32 16.75C32 7.91344 24.8366 0.75 16 0.75C7.16344 0.75 0 7.91344 0 16.75C0 25.5866 7.16344 32.75 16 32.75C20.2435 32.75 24.3131 31.0643 27.3137 28.0637C30.3143 25.0631 32 20.9935 32 16.75Z" fill="#FC336B"/>
<path d="M26.6501 16.75C26.6501 10.8681 21.8819 6.09998 16.0001 6.09998C10.1183 6.09998 5.3501 10.8681 5.3501 16.75C5.3501 22.6318 10.1183 27.4 16.0001 27.4C18.8247 27.4 21.5335 26.2779 23.5308 24.2807C25.528 22.2834 26.6501 19.5745 26.6501 16.75Z" fill="#FF5C3B"/>
<path d="M21.3002 16.75C21.3002 13.8228 18.9273 11.45 16.0002 11.45C13.0731 11.45 10.7002 13.8228 10.7002 16.75C10.7002 19.6771 13.0731 22.05 16.0002 22.05C17.4062 22.0513 18.7551 21.4933 19.7493 20.4991C20.7436 19.5049 21.3015 18.156 21.3002 16.75Z" fill="#FF9E1C"/>
<path d="M29.0003 7.43994L24.5303 10.3749C27.3603 14.1612 27.3603 19.3587 24.5303 23.1449L29.0003 26.0849C30.9238 23.4136 31.9719 20.2116 32.0003 16.9199V16.8049V16.7499V16.6099C31.9693 13.3264 30.9212 10.1332 29.0003 7.46994" fill="#FFADC4"/>
<path d="M24.5352 10.375L20.0352 13.32C21.7217 15.3032 21.7217 18.2168 20.0352 20.2L24.5352 23.145C27.3685 19.3598 27.3685 14.1602 24.5352 10.375Z" fill="#FFBDB0"/>
<path d="M20.0449 13.3201L16.8149 15.4401C15.7049 16.1701 15.7049 17.3601 16.8149 18.0901L20.0249 20.2001C21.7115 18.2168 21.7115 15.3033 20.0249 13.3201" fill="#FFD9A6"/>
</g>
<defs>
<clipPath id="clip0_1708_3998">
<rect width="32" height="32" fill="white" transform="translate(0 0.75)"/>
</clipPath>
</defs>
</svg>