<svg width="48" height="48" viewBox="0 0 48 48" xmlns="http://www.w3.org/2000/svg">
  <defs>
    <style>
      .st0 {
        fill-rule: evenodd;
      }
    </style>
  </defs>
  <path class="st0" d="M23.9859,3.144c-3.0314,0-5.4888,2.4575-5.4888,5.4889,0,1.2121.3928,2.3325,1.0582,3.2406l-.0608.1077-11.9591,21.5263c-.6324-.2543-1.3231-.3942-2.0465-.3942-3.0314,0-5.4889,2.4574-5.4889,5.4889s2.4574,5.4888,5.4889,5.4888,5.4888-2.4574,5.4888-5.4888c0-1.2755-.435-2.4493-1.1647-3.3812,4.6966-1.1024,9.5132-1.6139,14.3379-1.5222,4.719-.0473,9.4262.4701,14.0215,1.5409-.7209.9289-1.1501,2.0955-1.1501,3.3625,0,3.0314,2.4574,5.4888,5.4888,5.4888s5.4889-2.4574,5.4889-5.4888-2.4575-5.4889-5.4889-5.4889c-.7519,0-1.4685.1512-2.121.4248l-11.9762-21.5752-.0275-.0487c.6836-.9153,1.0884-2.051,1.0884-3.2813,0-1.4557-.5783-2.8519-1.6076-3.8812-1.0294-1.0294-2.4255-1.6077-3.8813-1.6077ZM26.5954,13.463c-.7761.4202-1.6649.6588-2.6095.6588-.9611,0-1.8646-.2471-2.6503-.6811l-.0023.0042-10.685,19.211c4.4399-.9233,8.9683-1.3528,13.5026-1.2807,4.406-.0338,8.8033.3986,13.1184,1.2899l-10.6739-19.2021ZM27.2244,8.6329c0,1.3098-.7891,2.4907-1.9992,2.9919-1.2101.5013-2.603.2242-3.5292-.702-.9262-.9262-1.2032-2.3191-.702-3.5292.5013-1.2101,1.6821-1.9991,2.9919-1.9991,1.7865.005,3.2334,1.452,3.2385,3.2384ZM5.4767,41.8223c1.7861.0067,3.2405-1.434,3.2506-3.2201l-.0183-.0183c0-1.7815-1.4388-3.2284-3.2201-3.2385-1.7862,0-3.235,1.4462-3.2384,3.2324-.0033,1.7861,1.4401,3.2378,3.2262,3.2445ZM43.7392,41.5949c1.2112-.5007,2.0012-1.6821,2.0012-2.9927v-.0183c-.005-1.78-1.4494-3.2202-3.2293-3.2202-1.3106-.0037-2.4943.783-2.9984,1.9928-.5041,1.2098-.2293,2.6042.6961,3.5323.9255.9281,2.3191,1.2069,3.5304.7061Z"/>
</svg>
