<svg width="20" height="20" viewBox="0 0 20 20" fill="none" xmlns="http://www.w3.org/2000/svg">
<g clip-path="url(#clip0_3168_12007)">
<path d="M7.35041 7.6875C7.02541 8.0125 6.90041 8.4625 7.00041 8.9C7.10041 9.3375 7.42541 9.6875 7.85041 9.8375C8.32541 9.9875 8.82541 9.875 9.17541 9.525L10.3504 8.35C10.8379 7.8625 11.6254 7.8625 12.1129 8.35L16.5254 12.7625C16.7629 13 17.0754 13.125 17.4129 13.125H18.4254C18.6004 13.125 18.7379 12.9875 18.7379 12.8125V7.1875C18.7379 7.0125 18.6004 6.875 18.4254 6.875H16.7504C16.4129 6.875 16.1004 6.7375 15.8629 6.5125L14.4629 5.1125C13.9879 4.6375 13.3629 4.375 12.7004 4.375H11.1629C10.8254 4.375 10.5129 4.5125 10.2754 4.7375L7.33791 7.675L7.35041 7.6875Z" fill="#AFB7CF"/>
<path d="M11.475 9.01279C11.35 8.88779 11.15 8.88779 11.0375 9.01279L9.8625 10.1878C9.2625 10.7878 8.3875 11.0003 7.575 10.7253C6.8375 10.4753 6.2875 9.87529 6.1 9.11279C5.9125 8.35029 6.1375 7.57529 6.7 7.01279L8.8125 4.90029C9.0125 4.70029 8.875 4.36279 8.5875 4.36279H7.2875C6.625 4.36279 5.9875 4.62529 5.525 5.10029L4.125 6.50029C3.8875 6.73779 3.575 6.86279 3.2375 6.86279H1.5625C1.3875 6.86279 1.25 7.00029 1.25 7.17529V12.8003C1.25 12.9753 1.3875 13.1128 1.5625 13.1128H3.2375C3.575 13.1128 3.8875 13.2503 4.125 13.4753L6.4375 15.7878C7.025 16.3753 7.9875 16.3753 8.575 15.7878L8.7625 15.6003L8.95 15.7878C9.5375 16.3753 10.5 16.3753 11.0875 15.7878L11.275 15.6003L11.4625 15.7878C12.05 16.3753 13.0125 16.3753 13.6 15.7878L15.725 13.6628C15.85 13.5378 15.85 13.3378 15.725 13.2253L11.5 9.00029L11.475 9.01279Z" fill="#AFB7CF"/>
</g>
<defs>
<clipPath id="clip0_3168_12007">
<rect width="20" height="20" fill="white"/>
</clipPath>
</defs>
</svg>
