<svg width="20" height="20" viewBox="0 0 20 20" fill="none" xmlns="http://www.w3.org/2000/svg">
<g clip-path="url(#clip0_3168_12014)">
<path d="M16.25 5H13.75V3.75C13.75 3.0625 13.1875 2.5 12.5 2.5H7.5C6.8125 2.5 6.25 3.0625 6.25 3.75V5H3.75C3.0625 5 2.5 5.5625 2.5 6.25V15C2.5 15.6875 3.0625 16.25 3.75 16.25H16.25C16.9375 16.25 17.5 15.6875 17.5 15V6.25C17.5 5.5625 16.9375 5 16.25 5ZM7.8125 4.0625H12.1875V5H7.8125V4.0625ZM10.7875 14.6875H9.225C8.9625 14.6875 8.75 14.475 8.75 14.2125C8.75 13.95 8.9625 13.7375 9.225 13.7375H10.7875C11.05 13.7375 11.2625 13.95 11.2625 14.2125C11.2625 14.475 11.05 14.6875 10.7875 14.6875ZM14.5375 12.5H5.475C5.2125 12.5 5 12.2875 5 12.025C5 11.7625 5.2125 11.55 5.475 11.55H14.5375C14.8 11.55 15.0125 11.7625 15.0125 12.025C15.0125 12.2875 14.8 12.5 14.5375 12.5Z" fill="#AFB7CF"/>
</g>
<defs>
<clipPath id="clip0_3168_12014">
<rect width="20" height="20" fill="white"/>
</clipPath>
</defs>
</svg>
