<svg width="20" height="20" viewBox="0 0 20 20" fill="none" xmlns="http://www.w3.org/2000/svg">
<path d="M16.875 8.325V13.75C16.875 14.4375 16.3125 15 15.625 15H6.1375C5.8 15 5.4875 15.1375 5.25 15.3625L3.65 16.9625C3.45 17.1625 3.125 17.025 3.125 16.7375V6.25C3.125 5.5625 3.6875 5 4.375 5H11.05C11.325 5 11.4625 5.3375 11.275 5.5375L9.4625 7.35C8.8125 8 8.45 8.875 8.45 9.8V11.25C8.45 11.7625 8.875 12.1875 9.3875 12.1875H10.8375C11.75 12.1875 12.6375 11.825 13.2875 11.175L16.35 8.1125C16.55 7.9125 16.8875 8.05 16.8875 8.3375L16.875 8.325Z" fill="#AFB7CF"/>
<path d="M17.6875 5.4377L12.6125 10.5127C12.1375 10.9877 11.5 11.2502 10.8375 11.2502H9.6875C9.5125 11.2502 9.375 11.1127 9.375 10.9377V9.78769C9.375 9.1252 9.6375 8.4877 10.1125 8.0127L15.1875 2.9377C15.3 2.8252 15.4625 2.7627 15.625 2.7627C15.7875 2.7627 15.95 2.8252 16.0625 2.9377L17.6875 4.5627C17.925 4.8002 17.925 5.2002 17.6875 5.4377Z" fill="#AFB7CF"/>
</svg>
