<svg width="35" height="25" viewBox="0 0 35 25" fill="none" xmlns="http://www.w3.org/2000/svg">
<g clip-path="url(#clip0_4705_4399)">
<path fill-rule="evenodd" clip-rule="evenodd" d="M28.7034 13.9814C32.4809 13.9814 35 11.517 35 7.81799C35 3.79105 31.811 0.666016 27.6962 0.666016C22.8301 0.666016 19.4737 4.11902 19.4737 9.54215C19.4737 16.8581 25.1794 23.0215 34.6627 24.666V19.9808C30.299 19.3225 27.7799 17.4344 26.7727 13.8174C27.4474 13.9814 28.1172 13.9814 28.7034 13.9814ZM9.23206 13.9814C13.0072 13.9814 15.5263 11.517 15.5263 7.81799C15.5263 3.79105 12.3373 0.666016 8.22488 0.666016C3.35646 0.666016 0 4.11902 0 9.54215C0 16.8581 5.70813 23.0215 15.1938 24.666V19.9808C10.8254 19.3225 8.311 17.4344 7.30383 13.8174C7.97368 13.9814 8.64354 13.9814 9.23206 13.9814Z" fill="#E3E7F2"/>
</g>
<defs>
<clipPath id="clip0_4705_4399">
<rect width="35" height="24" fill="white" transform="matrix(1 0 0 -1 0 24.666)"/>
</clipPath>
</defs>
</svg>
