<svg width="32" height="32" viewBox="0 0 32 32" fill="none" xmlns="http://www.w3.org/2000/svg">
<g clip-path="url(#clip0_470_2825)">
<path d="M19.9809 8.31946C17.2265 8.31946 13.714 14.3467 10.9712 14.3467L5.5665 14.3525C5.06307 14.3525 4.65222 14.7624 4.65222 15.2647V23.5493L9.98168 23.5435C12.7187 23.5435 16.2312 17.5624 18.9914 17.5624H26.2073C26.8381 17.5047 27.3299 16.9851 27.3299 16.3385V8.31946H19.9809Z" fill="#0092FF"/>
<path d="M4.65822 15.2644C4.65822 14.7622 5.06906 14.3523 5.5725 14.3523L10.9772 14.3465C13.7142 14.3465 17.2267 8.31924 19.9869 8.31924H27.3359V0.958358C27.3359 0.548458 26.7804 0 26.1034 0H18.5171C15.7627 0 11.7063 5.84829 8.96345 5.84829H1.23255C0.549727 5.84829 0 6.40252 0 7.07799V22.3078C0 22.989 0.555513 23.5375 1.23255 23.5375H4.65822V15.2644Z" fill="#105FFB"/>
<path d="M31.2536 8.31897H27.336V16.338C27.336 16.9788 26.8384 17.5042 26.2134 17.5619H18.9975C16.2431 17.5619 12.7306 23.543 9.98779 23.543L4.65833 23.5488V30.9962C4.65833 31.4985 5.06917 31.9084 5.57261 31.9084L12.2735 31.9026C14.9353 31.9026 18.9975 26.0313 21.0286 26.0313H31.0857C31.5892 26.0313 32 25.6214 32 25.1191V9.23114C32 8.72887 31.5892 8.31897 31.2536 8.31897Z" fill="#84DFFF"/>
</g>
<defs>
<clipPath id="clip0_470_2825">
<rect width="32" height="32" fill="white"/>
</clipPath>
</defs>
</svg>
