<?xml version="1.0" encoding="utf-8"?>
<!-- Generator: Adobe Illustrator 25.0.1, SVG Export Plug-In . SVG Version: 6.00 Build 0)  -->
<svg version="1.1" id="Layer_1" xmlns="http://www.w3.org/2000/svg" xmlns:xlink="http://www.w3.org/1999/xlink" x="0px" y="0px"
	 viewBox="0 0 78 156" style="enable-background:new 0 0 78 156;" xml:space="preserve">
<style type="text/css">
	.st0{fill:#C7C8CC;}
	.st1{fill:#0E8FBF;}
	.st2{fill:none;}
	.st3{fill:#FFFFFF;}
</style>
<g id="Layer_2_1_">
	<g id="Layer_1-2">
		<circle class="st0" cx="39" cy="117" r="39"/>
		<path class="st1" d="M23.7,100h13.4c2.2,0,4.4,0.3,6.5,1c2,0.7,3.9,1.7,5.5,3.1c1.6,1.5,3,3.3,3.8,5.3c1,2.4,1.5,4.9,1.4,7.5
			c0.2,5-2,9.7-5.9,12.8c-1.7,1.4-3.7,2.4-5.8,3.1c-2,0.7-4.1,1-6.3,1H23.7V100z M34.2,128.5c1.8,0,3.6-0.2,5.4-0.6
			c1.6-0.4,3.1-1.1,4.4-2c1.3-0.9,2.3-2.1,3-3.6c0.8-1.7,1.1-3.5,1.1-5.3c0-1.8-0.3-3.6-1-5.3c-0.6-1.4-1.5-2.6-2.7-3.6
			c-1.2-0.9-2.6-1.6-4-2c-1.7-0.4-3.4-0.7-5.1-0.6h-5.5v23H34.2z"/>
		<circle class="st2" cx="39" cy="39" r="39"/>
		<path class="st3" d="M23.7,22h13.4c2.2,0,4.4,0.3,6.5,1c2,0.7,3.9,1.7,5.5,3.1c1.6,1.5,3,3.3,3.8,5.3c1,2.4,1.5,4.9,1.4,7.5
			c0.2,5-2,9.7-5.9,12.8c-1.7,1.4-3.7,2.4-5.8,3.1c-2,0.7-4.1,1-6.3,1H23.7V22z M34.2,50.5c1.8,0,3.6-0.2,5.4-0.6
			c1.6-0.4,3.1-1.1,4.4-2c1.3-0.9,2.3-2.1,3-3.6c0.8-1.7,1.1-3.5,1.1-5.3c0-1.8-0.3-3.6-1-5.3c-0.6-1.4-1.5-2.6-2.7-3.6
			c-1.2-0.9-2.6-1.6-4-2c-1.7-0.4-3.4-0.7-5.1-0.6h-5.5v23H34.2z"/>
	</g>
</g>
</svg>
