<?xml version="1.0" encoding="utf-8"?>
<!-- Generator: Adobe Illustrator 23.0.4, SVG Export Plug-In . SVG Version: 6.00 Build 0)  -->
<svg version="1.1" id="Layer_1" xmlns="http://www.w3.org/2000/svg" xmlns:xlink="http://www.w3.org/1999/xlink" x="0px" y="0px"
	 viewBox="0 0 260 260" style="enable-background:new 0 0 260 260;" xml:space="preserve">
<style type="text/css">
	.st0{fill:none;}
	.st1{fill:#00B6E0;}
</style>
<title>Asset 3A</title>
<g>
	<g id="Layer_1-2">
		<rect class="st0" width="260" height="260"/>
		<path class="st1" d="M208.9,201.6l-15.8-15.8c-1.6-1.6-4.3-1.6-5.9,0c-31.2,31.3-81.8,31.3-113.1,0.2
			c-13.4-13.3-21.6-31-23.2-49.8h17.4c3.9,0,7-3.1,7-7c0-1.3-0.4-2.6-1-3.7l-30-48.6c-2-3.3-6.3-4.3-9.6-2.3
			c-0.9,0.6-1.7,1.4-2.3,2.3l-30,48.6c-2,3.3-1,7.6,2.3,9.6c1.1,0.7,2.4,1,3.7,1h11.7c3.8,61,56.3,107.4,117.3,103.6
			c27-1.7,52.4-13.1,71.5-32.3C210.6,205.9,210.6,203.3,208.9,201.6z"/>
		<path class="st1" d="M51.1,58.4l15.8,15.8c1.6,1.6,4.3,1.6,5.9,0C104,42.9,154.6,42.8,185.9,74c13.4,13.3,21.6,31,23.2,49.8h-17.4
			c-3.9,0-7,3.1-7,7c0,1.3,0.4,2.6,1,3.7l30,48.6c2,3.3,6.3,4.3,9.6,2.3c0.9-0.6,1.7-1.4,2.3-2.3l30-48.6c2-3.3,1-7.6-2.3-9.6
			c-1.1-0.7-2.4-1-3.7-1h-11.7c-3.8-61-56.3-107.4-117.3-103.6c-27,1.7-52.4,13.1-71.5,32.3C49.4,54.1,49.4,56.7,51.1,58.4z"/>
	</g>
</g>
</svg>
