<?xml version="1.0" encoding="utf-8"?>
<!-- Generator: Adobe Illustrator 25.0.1, SVG Export Plug-In . SVG Version: 6.00 Build 0)  -->
<svg version="1.1" id="Layer_1" xmlns="http://www.w3.org/2000/svg" xmlns:xlink="http://www.w3.org/1999/xlink" x="0px" y="0px"
	 viewBox="0 0 78 156" style="enable-background:new 0 0 78 156;" xml:space="preserve">
<style type="text/css">
	.st0{fill:#C7C8CC;}
	.st1{fill:#0E8FBF;}
	.st2{fill:none;}
	.st3{fill:#FFFFFF;}
</style>
<g id="Layer_2_1_">
	<g id="Layer_1-2">
		<circle class="st0" cx="39" cy="117" r="39"/>
		<path class="st1" d="M26.4,100h13.3c1.3,0,2.6,0.2,3.8,0.5c1.2,0.3,2.3,0.8,3.3,1.5c2.1,1.5,3.4,4,3.3,6.6
			c0.1,1.7-0.5,3.4-1.6,4.7c-1.1,1.3-2.6,2.2-4.3,2.7v0.1c1,0.1,2,0.4,3,0.9c0.9,0.4,1.7,1,2.3,1.8c0.6,0.7,1.2,1.6,1.5,2.5
			c0.4,1,0.6,2,0.6,3c0.1,1.6-0.3,3.2-1.1,4.6c-0.7,1.2-1.7,2.2-2.9,3c-1.3,0.8-2.7,1.3-4.1,1.6c-1.6,0.3-3.1,0.5-4.7,0.5H26.4V100z
			 M32.5,113.8H38c1.6,0.1,3.2-0.3,4.5-1.2c1.8-1.4,2-4,0.6-5.7c-0.2-0.2-0.4-0.5-0.6-0.6c-1.5-0.8-3.3-1.2-5-1.1h-5V113.8z
			 M32.5,128.8h5.6c0.8,0,1.7-0.1,2.5-0.1c0.8-0.1,1.7-0.3,2.4-0.7c0.7-0.3,1.4-0.9,1.8-1.5c0.5-0.8,0.8-1.7,0.7-2.7
			c0.2-1.5-0.5-2.9-1.8-3.7c-1.7-0.8-3.6-1.2-5.4-1.1h-5.8V128.8z"/>
		<circle class="st2" cx="39" cy="39" r="39"/>
		<path class="st3" d="M26.4,22h13.3c1.3,0,2.6,0.2,3.8,0.5c1.2,0.3,2.3,0.8,3.3,1.5c2.1,1.5,3.4,4,3.3,6.6c0.1,1.7-0.5,3.4-1.6,4.7
			c-1.1,1.3-2.6,2.2-4.3,2.7v0.1c1,0.1,2,0.4,3,0.9c0.9,0.4,1.7,1,2.3,1.8c0.6,0.7,1.2,1.6,1.5,2.5c0.4,1,0.6,2,0.6,3
			c0.1,1.6-0.3,3.2-1.1,4.6c-0.7,1.2-1.7,2.2-2.9,3c-1.3,0.8-2.7,1.3-4.1,1.6c-1.6,0.3-3.1,0.5-4.7,0.5H26.4V22z M32.5,35.8H38
			c1.6,0.1,3.2-0.3,4.5-1.2c1-0.7,1.5-1.9,1.5-3.1c0.1-1.3-0.5-2.5-1.6-3.3c-1.5-0.8-3.3-1.2-5-1.1h-5V35.8z M32.5,50.8h5.6
			c0.8,0,1.7-0.1,2.5-0.1c0.8-0.1,1.7-0.3,2.4-0.7c0.7-0.3,1.4-0.9,1.8-1.5c0.5-0.8,0.8-1.7,0.7-2.7c0.2-1.5-0.5-2.9-1.8-3.7
			c-1.7-0.8-3.6-1.2-5.5-1.1h-5.8V50.8z"/>
	</g>
</g>
</svg>
