<svg width="48" height="48" viewBox="0 0 48 48" fill="none" xmlns="http://www.w3.org/2000/svg">
<path fill-rule="evenodd" clip-rule="evenodd" d="M23.9859 3.14404C20.9545 3.14404 18.4971 5.6015 18.4971 8.63292C18.4971 9.84502 18.8899 10.9654 19.5553 11.8735L19.4945 11.9812L7.5354 33.5075C6.90297 33.2532 6.21226 33.1133 5.48887 33.1133C2.45745 33.1133 0 35.5707 0 38.6022C0 41.6336 2.45745 44.091 5.48887 44.091C8.52029 44.091 10.9777 41.6336 10.9777 38.6022C10.9777 37.3267 10.5427 36.1529 9.81299 35.221C14.5096 34.1186 19.3262 33.6071 24.1509 33.6988C28.8699 33.6515 33.5771 34.1689 38.1724 35.2397C37.4515 36.1686 37.0223 37.3352 37.0223 38.6022C37.0223 41.6336 39.4797 44.091 42.5111 44.091C45.5425 44.091 48 41.6336 48 38.6022C48 35.5707 45.5425 33.1133 42.5111 33.1133C41.7592 33.1133 41.0426 33.2645 40.3901 33.5381L28.4139 11.9629L28.3864 11.9142C29.07 10.9989 29.4748 9.86319 29.4748 8.63292C29.4748 7.17718 28.8965 5.78106 27.8672 4.7517C26.8378 3.72233 25.4417 3.14404 23.9859 3.14404ZM26.5954 13.463C25.8193 13.8832 24.9305 14.1218 23.9859 14.1218C23.0248 14.1218 22.1213 13.8747 21.3356 13.4407L21.3333 13.4449L10.6483 32.6559C15.0882 31.7326 19.6166 31.3031 24.1509 31.3752C28.5569 31.3414 32.9542 31.7738 37.2693 32.6651L26.5954 13.463ZM27.2244 8.63292C27.2244 9.94274 26.4353 11.1236 25.2252 11.6248C24.0151 12.1261 22.6222 11.849 21.696 10.9228C20.7698 9.99665 20.4928 8.60374 20.994 7.39362C21.4953 6.1835 22.6761 5.39448 23.9859 5.39448C25.7724 5.39951 27.2193 6.84646 27.2244 8.63292ZM5.47674 41.8223C7.26288 41.829 8.71721 40.3883 8.72731 38.6022L8.70901 38.5839C8.70904 36.8024 7.27026 35.3555 5.48887 35.3454C3.70272 35.3454 2.25384 36.7916 2.25049 38.5778C2.24715 40.3639 3.69061 41.8156 5.47674 41.8223ZM43.7392 41.5949C44.9504 41.0942 45.7404 39.9128 45.7404 38.6022V38.5839C45.7354 36.8039 44.291 35.3637 42.5111 35.3637C41.2005 35.36 40.0168 36.1467 39.5127 37.3565C39.0086 38.5663 39.2834 39.9607 40.2088 40.8888C41.1343 41.8169 42.5279 42.0957 43.7392 41.5949Z" fill="white"/>
</svg>
