<svg width="20" height="20" viewBox="0 0 20 20" fill="none" xmlns="http://www.w3.org/2000/svg">
<path d="M13.751 2.5H5.00098C4.31348 2.5 3.75098 3.0625 3.75098 3.75V16.25C3.75098 16.9375 4.31348 17.5 5.00098 17.5H13.751C15.126 17.5 16.251 16.375 16.251 15V5C16.251 3.625 15.126 2.5 13.751 2.5ZM8.83848 10.0875L7.50098 8.75L6.16348 10.0875C5.96348 10.2875 5.62598 10.15 5.62598 9.8625V4.9875C5.62598 4.6375 5.90098 4.3625 6.25098 4.3625H8.75098C9.10098 4.3625 9.37598 4.6375 9.37598 4.9875V9.8625C9.37598 10.1375 9.03848 10.275 8.83848 10.0875Z" fill="#AFB7CF"/>
</svg>
