<svg xmlns="http://www.w3.org/2000/svg" viewBox="0 0 234.325 164.083"><title>Asset 1</title><g style="opacity:0.5"><path d="M61.811,73.051c25.287,0,42.145,16.858,42.145,42.145,0,27.534-21.352,48.887-48.887,48.887C22.477,164.083,0,140.482,0,103.4,0,53.384,38.211,11.238,101.709,0V32.03c-29.221,4.5-46.078,17.42-52.821,42.145A52.5,52.5,0,0,1,61.811,73.051Zm130.368,0c25.288,0,42.146,16.858,42.146,42.145,0,27.534-21.354,48.887-48.889,48.887-32.592,0-55.069-23.6-55.069-60.688,0-50.011,38.212-92.157,101.71-103.395V32.03c-29.221,4.5-46.079,17.42-52.821,42.145A52.489,52.489,0,0,1,192.179,73.051Z" style="fill:#999"/></g></svg>