<svg width="24" height="24" viewBox="0 0 24 24" fill="none" xmlns="http://www.w3.org/2000/svg">
<g clip-path="url(#clip0_3651_5984)">
<path d="M10.341 18.9812C11.3936 18.9235 11.7785 17.3763 12.0954 16.5796C13.2272 13.7623 16.0454 17.5379 16.8943 18.7041C18.2185 20.5284 19.3051 22.6644 21.4216 23.7036C24.3757 25.17 24.1267 20.8055 23.8324 19.0851C23.3344 16.1639 18.2638 8.10464 17.3584 6.5459C16.7359 5.4952 15.8078 3.08203 14.1779 3.70553C12.899 4.2482 12.7858 6.63827 12.0614 7.35414C11.337 8.07001 8.29242 2.14679 6.90028 0.807426C6.22556 0.00345757 5.10147 -0.229696 4.17257 0.241661C3.3237 0.749695 -0.433966 5.07953 0.0414014 7.82753C0.516769 10.5755 7.70387 18.7618 10.3863 18.9927" fill="#829BC4" fill-opacity="0.5"/>
</g>
<defs>
<clipPath id="clip0_3651_5984">
<rect width="24" height="24" fill="white"/>
</clipPath>
</defs>
</svg>
