<svg width="20" height="20" viewBox="0 0 20 20" fill="none" xmlns="http://www.w3.org/2000/svg">
<path d="M16.25 4.375H13.75V3.75C13.75 3.4 13.475 3.125 13.125 3.125H11.875C11.525 3.125 11.25 3.4 11.25 3.75V4.375H8.75V3.75C8.75 3.4 8.475 3.125 8.125 3.125H6.875C6.525 3.125 6.25 3.4 6.25 3.75V4.375H3.75C3.0625 4.375 2.5 4.9375 2.5 5.625V15.625C2.5 16.3125 3.0625 16.875 3.75 16.875H16.25C16.9375 16.875 17.5 16.3125 17.5 15.625V5.625C17.5 4.9375 16.9375 4.375 16.25 4.375ZM11.25 15.625V11.875C11.25 11.1875 11.8125 10.625 12.5 10.625H16.25L11.25 15.625ZM14.525 7.8125H5.4625C5.2 7.8125 4.9875 7.6 4.9875 7.3375C4.9875 7.075 5.2 6.8625 5.4625 6.8625H14.525C14.7875 6.8625 15 7.075 15 7.3375C15 7.6 14.7875 7.8125 14.525 7.8125Z" fill="#AFB7CF"/>
</svg>
