<svg width="20" height="20" viewBox="0 0 20 20" fill="none" xmlns="http://www.w3.org/2000/svg">
<path d="M17.5 5.63782C17.5 5.23782 17.3125 4.85032 16.975 4.65032C15.2 3.57532 12.9875 3.48782 11.125 4.36282C10.7125 4.56282 10.475 5.00032 10.475 5.46282V13.2878C10.475 13.5503 10.2625 13.7628 10 13.7628C9.7375 13.7628 9.525 13.5503 9.525 13.2878V5.46282C9.525 5.00032 9.2875 4.56282 8.875 4.36282C7.0125 3.48782 4.8 3.57532 3.025 4.65032C2.6875 4.86282 2.5 5.25032 2.5 5.65032V15.1503C2.5 15.6128 2.9875 15.9003 3.4 15.6878C5.275 14.7253 7.5625 14.7878 9.3875 15.8503C9.75 16.0628 10.2125 16.0753 10.575 15.8503C12.4 14.7753 14.6875 14.7128 16.575 15.6753C16.9875 15.8878 17.4875 15.6003 17.4875 15.1378C17.4875 12.8128 17.4875 7.47532 17.4875 5.63782H17.5Z" fill="#AFB7CF"/>
</svg>
