<?xml version="1.0" encoding="utf-8"?>
<!-- Generator: Adobe Illustrator 25.0.1, SVG Export Plug-In . SVG Version: 6.00 Build 0)  -->
<svg version="1.1" id="Layer_1" xmlns="http://www.w3.org/2000/svg" xmlns:xlink="http://www.w3.org/1999/xlink" x="0px" y="0px"
	 viewBox="0 0 78 156" style="enable-background:new 0 0 78 156;" xml:space="preserve">
<style type="text/css">
	.st0{fill:#C7C8CC;}
	.st1{fill:#0E8FBF;}
	.st2{fill:none;}
	.st3{fill:#FFFFFF;}
</style>
<g id="Layer_2_1_">
	<g id="Layer_1-2">
		<circle class="st0" cx="39" cy="117" r="39"/>
		<path class="st1" d="M58.2,134.4H38.4c-2.5,0-5-0.4-7.4-1.2c-2.2-0.8-4.2-2-5.9-3.5c-1.7-1.6-3-3.5-3.9-5.6
			c-1-2.3-1.5-4.9-1.4-7.4c-0.1-4.7,1.9-9.1,5.3-12.3c1.7-1.5,3.6-2.7,5.7-3.6c4.4-1.7,9.3-1.7,13.8,0c2.1,0.8,4,2,5.7,3.5
			c3.4,3.2,5.3,7.6,5.3,12.3c0,1.6-0.2,3.2-0.6,4.7c-0.4,1.3-1,2.5-1.7,3.6c-0.6,1-1.4,1.9-2.3,2.6c-0.8,0.7-1.6,1.2-2.5,1.8v0.1
			h9.7L58.2,134.4z M37.6,105c-1.6,0-3.1,0.3-4.5,0.9c-1.4,0.6-2.6,1.4-3.6,2.5c-1,1.1-1.8,2.4-2.4,3.7c-0.6,1.5-0.9,3.1-0.9,4.7
			c0,1.6,0.3,3.3,0.9,4.8c0.5,1.4,1.4,2.7,2.4,3.8c1,1.1,2.3,1.9,3.6,2.5c1.4,0.6,3,0.9,4.6,0.9c1.6,0,3.2-0.3,4.6-0.9
			c1.4-0.6,2.6-1.4,3.7-2.5c1-1.1,1.9-2.4,2.4-3.8c0.6-1.5,0.9-3.2,0.9-4.8c0-1.6-0.3-3.2-0.9-4.7c-0.5-1.4-1.4-2.7-2.4-3.7
			c-1-1.1-2.3-1.9-3.7-2.5C40.8,105.3,39.2,105,37.6,105z"/>
		<circle class="st2" cx="39" cy="39" r="39"/>
		<path class="st3" d="M58.2,56.4H38.4c-2.5,0-5-0.4-7.4-1.2c-2.2-0.8-4.2-2-5.9-3.5c-1.7-1.6-3-3.5-3.9-5.6c-1-2.3-1.5-4.9-1.4-7.4
			c-0.1-4.7,1.9-9.1,5.3-12.3c1.7-1.5,3.6-2.7,5.7-3.6c4.4-1.7,9.3-1.7,13.8,0c2.1,0.8,4,2,5.7,3.6c3.4,3.2,5.3,7.6,5.3,12.3
			c0,1.6-0.2,3.2-0.6,4.7c-0.4,1.3-1,2.5-1.7,3.6c-0.6,1-1.4,1.9-2.3,2.6c-0.8,0.7-1.6,1.2-2.5,1.8v0.1h9.7L58.2,56.4z M37.6,27
			c-1.6,0-3.1,0.3-4.5,0.9c-1.4,0.6-2.6,1.4-3.6,2.5c-1,1.1-1.8,2.4-2.4,3.7c-0.6,1.5-0.9,3.1-0.9,4.7c0,1.6,0.3,3.3,0.9,4.8
			c0.5,1.4,1.4,2.7,2.4,3.8c1,1.1,2.3,1.9,3.6,2.5c1.4,0.6,3,0.9,4.6,0.9c1.6,0,3.2-0.3,4.6-0.9c1.4-0.6,2.6-1.4,3.7-2.5
			c1-1.1,1.9-2.4,2.4-3.8c0.6-1.5,0.9-3.2,0.9-4.8c0-1.6-0.3-3.2-0.9-4.7c-0.5-1.4-1.4-2.7-2.4-3.7c-1-1.1-2.3-1.9-3.7-2.5
			C40.8,27.3,39.2,27,37.6,27z"/>
	</g>
</g>
</svg>
