<svg width="20" height="20" viewBox="0 0 20 20" fill="none" xmlns="http://www.w3.org/2000/svg">
<path d="M11.6629 5.70039L14.7754 2.58789H14.7629C14.8879 2.46289 15.1004 2.46289 15.2254 2.58789L18.3379 5.70039C18.5504 5.90039 18.4004 6.25039 18.1129 6.25039H17.0371V15.625C17.0371 15.9702 16.7573 16.25 16.4121 16.25H13.5996C13.2544 16.25 12.9746 15.9702 12.9746 15.625V6.25039H11.8879C11.6004 6.25039 11.4629 5.90039 11.6629 5.70039Z" fill="#AFB7CF"/>
<path d="M8.59961 7.5H11.4121C11.7573 7.5 12.0371 7.77982 12.0371 8.125V15.625C12.0371 15.9702 11.7573 16.25 11.4121 16.25H8.59961C8.25443 16.25 7.97461 15.9702 7.97461 15.625V8.125C7.97461 7.77982 8.25443 7.5 8.59961 7.5Z" fill="#AFB7CF"/>
<path d="M3.59961 10H6.41211C6.75729 10 7.03711 10.2798 7.03711 10.625V15.625C7.03711 15.9702 6.75729 16.25 6.41211 16.25H3.59961C3.25443 16.25 2.97461 15.9702 2.97461 15.625V10.625C2.97461 10.2798 3.25443 10 3.59961 10Z" fill="#AFB7CF"/>
</svg>
