<svg width="64" height="64" viewBox="0 0 64 64" fill="none" xmlns="http://www.w3.org/2000/svg">
<g clip-path="url(#clip0_1670_1681)">
<path d="M32 64C49.6731 64 64 49.6731 64 32C64 14.3269 49.6731 0 32 0C14.3269 0 0 14.3269 0 32C0 49.6731 14.3269 64 32 64Z" fill="#105FFB" fill-opacity="0.2"/>
<path d="M29.2473 40.96H14.5273V44.992H29.2473V40.96Z" fill="#8EB0F6" fill-opacity="0.6"/>
<path d="M45.3127 25.6001C48.4939 25.6001 51.0727 23.0212 51.0727 19.8401C51.0727 16.6589 48.4939 14.0801 45.3127 14.0801C42.1316 14.0801 39.5527 16.6589 39.5527 19.8401C39.5527 23.0212 42.1316 25.6001 45.3127 25.6001Z" fill="#ABE2FA" fill-opacity="0.6"/>
<path d="M32.0006 47.3596C40.4837 47.3596 47.3606 40.4827 47.3606 31.9996C47.3606 23.5166 40.4837 16.6396 32.0006 16.6396C23.5175 16.6396 16.6406 23.5166 16.6406 31.9996C16.6406 40.4827 23.5175 47.3596 32.0006 47.3596Z" stroke="white" stroke-width="2" stroke-miterlimit="10" stroke-linecap="round" stroke-linejoin="round"/>
<path d="M33.3438 16.7041C37.5677 20.4801 40.1918 25.9201 40.1918 32.0001C40.1918 38.0801 37.5037 43.5201 33.3438 47.2961" stroke="white" stroke-width="2" stroke-miterlimit="10" stroke-linecap="round" stroke-linejoin="round"/>
<path d="M30.6566 47.2961C26.4966 43.5201 23.8086 38.0801 23.8086 32.0001C23.8086 25.9201 26.4966 20.4801 30.6566 16.7041" stroke="white" stroke-width="2" stroke-miterlimit="10" stroke-linecap="round" stroke-linejoin="round"/>
<path d="M32 16.6396V47.3596" stroke="white" stroke-width="2" stroke-miterlimit="10" stroke-linecap="round" stroke-linejoin="round"/>
<path d="M17.6641 37.1201H46.3361" stroke="white" stroke-width="2" stroke-miterlimit="10" stroke-linecap="round" stroke-linejoin="round"/>
<path d="M17.6641 26.8799H46.3361" stroke="white" stroke-width="2" stroke-miterlimit="10" stroke-linecap="round" stroke-linejoin="round"/>
</g>
<defs>
<clipPath id="clip0_1670_1681">
<rect width="64" height="64" fill="white"/>
</clipPath>
</defs>
</svg>
