<?xml version="1.0" encoding="utf-8"?>
<!-- Generator: Adobe Illustrator 25.0.1, SVG Export Plug-In . SVG Version: 6.00 Build 0)  -->
<svg version="1.1" id="Layer_1" xmlns="http://www.w3.org/2000/svg" xmlns:xlink="http://www.w3.org/1999/xlink" x="0px" y="0px"
	 viewBox="0 0 78 156" style="enable-background:new 0 0 78 156;" xml:space="preserve">
<style type="text/css">
	.st0{fill:#C7C8CC;}
	.st1{fill:#0E8FBF;}
	.st2{fill:none;}
	.st3{fill:#FFFFFF;}
</style>
<g id="Layer_2_1_">
	<g id="Layer_1-2">
		<circle class="st0" cx="39" cy="117" r="39"/>
		<path class="st1" d="M49.1,124.2c0,1.3-0.2,2.6-0.6,3.9c-0.4,1.2-1.1,2.3-1.9,3.3c-0.9,1-2,1.7-3.2,2.3c-1.4,0.6-2.9,0.9-4.5,0.8
			c-2.3,0.1-4.7-0.6-6.6-1.9c-1.8-1.5-3.1-3.6-3.4-6l5.7-1.3c0.1,1,0.6,2,1.4,2.7c0.7,0.7,1.7,1,2.7,1c1.4,0.2,2.8-0.5,3.5-1.8
			c0.7-1.5,1-3.2,0.9-4.8V99.6h6V124.2z"/>
		<circle class="st2" cx="39" cy="39" r="39"/>
		<path class="st3" d="M49.1,46.2c0,1.3-0.2,2.6-0.6,3.9c-0.4,1.2-1.1,2.3-1.9,3.3c-0.9,1-2,1.7-3.2,2.3c-1.4,0.6-2.9,0.9-4.5,0.8
			c-2.3,0.1-4.7-0.6-6.6-1.9c-1.8-1.5-3.1-3.6-3.4-6l5.7-1.3c0.1,1,0.6,2,1.4,2.7c0.7,0.7,1.7,1,2.7,1c1.4,0.2,2.8-0.5,3.5-1.8
			c0.7-1.5,1-3.2,0.9-4.8V21.6h6V46.2z"/>
	</g>
</g>
</svg>
