<?xml version="1.0" encoding="utf-8"?>
<!-- Generator: Adobe Illustrator 25.0.1, SVG Export Plug-In . SVG Version: 6.00 Build 0)  -->
<svg version="1.1" id="Layer_1" xmlns="http://www.w3.org/2000/svg" xmlns:xlink="http://www.w3.org/1999/xlink" x="0px" y="0px"
	 viewBox="0 0 78 156" style="enable-background:new 0 0 78 156;" xml:space="preserve">
<style type="text/css">
	.st0{fill:#C7C8CC;}
	.st1{fill:#0E8FBF;}
	.st2{fill:none;}
	.st3{fill:#FFFFFF;}
</style>
<g id="Layer_2_1_">
	<g id="Layer_1-2">
		<circle class="st0" cx="39" cy="117" r="39"/>
		<path class="st1" d="M15.5,100h6.6l6.4,24.5h0.1l7.6-24.5h6l7.5,24.5h0.1l6.7-24.5h6.1l-9.9,34h-5.8L39,108.1h-0.1L31.1,134h-5.6
			L15.5,100z"/>
		<circle class="st2" cx="39" cy="39" r="39"/>
		<path class="st3" d="M15.5,22h6.6l6.4,24.5h0.1L36.2,22h6l7.5,24.5h0.1L56.4,22h6.1l-9.9,34h-5.8L39,30.1h-0.1L31.1,56h-5.6
			L15.5,22z"/>
	</g>
</g>
</svg>
