<svg width="20" height="20" viewBox="0 0 20 20" fill="none" xmlns="http://www.w3.org/2000/svg">
<path d="M9.99961 8.4374C9.13711 8.4374 8.43711 9.1374 8.43711 9.9999C8.43711 10.8624 9.13711 11.5624 9.99961 11.5624C10.8621 11.5624 11.5621 10.8624 11.5621 9.9999C11.5621 9.1374 10.8621 8.4374 9.99961 8.4374Z" fill="#AFB7CF"/>
<path d="M17.7996 9.1124L16.6121 7.7249C16.4246 7.4999 16.3121 7.2374 16.2871 6.9499L16.1371 5.1249C16.0871 4.4499 15.5496 3.9249 14.8871 3.8749L13.0621 3.7249C12.7746 3.6999 12.4996 3.5874 12.2871 3.3999L10.8996 2.2124C10.3871 1.7749 9.63711 1.7749 9.12461 2.2124L7.73711 3.3999C7.51211 3.5874 7.24961 3.6999 6.96211 3.7249L5.13711 3.8749C4.46211 3.9249 3.93711 4.4624 3.88711 5.1249L3.73711 6.9499C3.71211 7.2374 3.59961 7.5124 3.41211 7.7249L2.22461 9.1124C1.78711 9.6249 1.78711 10.3749 2.22461 10.8874L3.41211 12.2749C3.59961 12.4999 3.71211 12.7624 3.73711 13.0499L3.88711 14.8749C3.93711 15.5499 4.47461 16.0749 5.13711 16.1249L6.96211 16.2749C7.24961 16.2999 7.52461 16.4124 7.73711 16.5999L9.12461 17.7874C9.63711 18.2249 10.3871 18.2249 10.8996 17.7874L12.2871 16.5999C12.5121 16.4124 12.7746 16.2999 13.0621 16.2749L14.8871 16.1249C15.5621 16.0749 16.0871 15.5374 16.1371 14.8749L16.2871 13.0499C16.3121 12.7624 16.4246 12.4874 16.6121 12.2749L17.7996 10.8874C18.2371 10.3749 18.2371 9.6249 17.7996 9.1124ZM13.7121 10.1999C13.0121 11.5624 11.6121 12.4999 10.0121 12.4999C8.41211 12.4999 7.01211 11.5624 6.31211 10.1874C6.28711 10.1374 6.26211 10.0499 6.26211 9.9999C6.26211 9.9499 6.28711 9.8624 6.31211 9.7999C7.01211 8.4374 8.41211 7.4999 10.0121 7.4999C11.6121 7.4999 13.0121 8.4374 13.7121 9.7999C13.7371 9.8624 13.7621 9.9499 13.7621 9.9999C13.7621 10.0499 13.7371 10.1374 13.7121 10.1999Z" fill="#AFB7CF"/>
</svg>
