<svg width="20" height="20" viewBox="0 0 20 20" fill="none" xmlns="http://www.w3.org/2000/svg">
<path d="M10 17.5C12.0711 17.5 13.75 15.8211 13.75 13.75C13.75 11.6789 12.0711 10 10 10C7.92893 10 6.25 11.6789 6.25 13.75C6.25 15.8211 7.92893 17.5 10 17.5Z" fill="#AFB7CF"/>
<path d="M16.6131 2.5H12.6506C12.1756 2.5 11.7506 2.7625 11.5381 3.1875L9.92559 6.425L8.47559 9.3375C8.96309 9.1625 9.47559 9.0625 10.0131 9.0625C11.4256 9.0625 12.6881 9.7 13.5506 10.6875C13.7006 10.8625 13.9756 10.8375 14.0756 10.6375L17.4631 3.8625C17.7756 3.2375 17.3256 2.5 16.6256 2.5H16.6131Z" fill="#AFB7CF"/>
<path d="M9.33693 4.92471L8.47443 3.19971C8.26193 2.77471 7.82443 2.51221 7.36193 2.51221H3.39943C2.69943 2.51221 2.24943 3.24971 2.56193 3.87471L5.91193 10.5622C6.09943 10.9247 6.62443 10.9247 6.81193 10.5622L9.34943 5.49971C9.43693 5.32471 9.43693 5.11221 9.34943 4.93721L9.33693 4.92471Z" fill="#AFB7CF"/>
</svg>
