<svg width="20" height="20" viewBox="0 0 20 20" fill="none" xmlns="http://www.w3.org/2000/svg">
<path d="M12.4096 3.19787C12.5743 2.79908 12.3846 2.34226 11.9858 2.17754C11.587 2.01282 11.1301 2.20258 10.9654 2.60137L10.0154 4.90137C9.85071 5.30016 10.0405 5.75698 10.4393 5.9217C10.8381 6.08642 11.2949 5.89666 11.4596 5.49787L12.4096 3.19787Z" fill="#AFB7CF"/>
<path d="M15.4897 5.61493C15.7948 5.30983 15.7948 4.81517 15.4897 4.51007C15.1846 4.20498 14.69 4.20498 14.3849 4.51007L12.6224 6.27257C12.3173 6.57767 12.3173 7.07233 12.6224 7.37743C12.9275 7.68252 13.4221 7.68252 13.7272 7.37743L15.4897 5.61493Z" fill="#AFB7CF"/>
<path d="M17.8221 8.01397C17.9868 8.41276 17.7971 8.86958 17.3983 9.0343L15.0983 9.9843C14.6995 10.149 14.2426 9.95926 14.0779 9.56047C13.9132 9.16167 14.103 8.70486 14.5018 8.54014L16.8018 7.59014C17.2006 7.42542 17.6574 7.61517 17.8221 8.01397Z" fill="#AFB7CF"/>
<path d="M11.3249 10.4374C11.5749 10.1874 11.9624 10.1874 12.2124 10.4374V10.4499L13.9749 12.2124C14.2249 12.4624 14.2249 12.8499 13.9749 13.0999L10.8874 16.1874C8.82488 18.2499 5.39988 18.1374 3.48738 15.8249C1.82488 13.8124 2.12488 10.8124 3.97488 8.9624L6.91238 6.0249C7.16238 5.7749 7.54988 5.7749 7.79988 6.0249L9.56238 7.7874C9.81238 8.0374 9.81238 8.4249 9.56238 8.6749L6.47488 11.7624C5.98738 12.2499 5.98738 13.0374 6.47488 13.5249C6.96238 14.0124 7.74988 14.0124 8.23738 13.5249L11.3249 10.4374Z" fill="#AFB7CF"/>
</svg>
