<svg width="20" height="20" viewBox="0 0 20 20" fill="none" xmlns="http://www.w3.org/2000/svg">
<path d="M17.8631 7.86221L14.4756 4.48721C14.0006 4.02471 13.3756 3.76221 12.7131 3.76221H7.28809C6.62559 3.76221 5.98809 4.02471 5.52559 4.48721L2.13809 7.86221C1.65059 8.34971 1.65059 9.13721 2.13809 9.63721L9.11309 16.6122C9.60059 17.0997 10.3881 17.0997 10.8756 16.6122L17.8506 9.63721C18.3381 9.14971 18.3381 8.36221 17.8506 7.86221H17.8631ZM13.0006 8.74971H11.8756L10.3006 15.0372C10.2256 15.3497 9.77559 15.3497 9.68809 15.0372L8.11309 8.74971H6.98809C6.71309 8.74971 6.57559 8.41221 6.76309 8.21221L9.53809 5.43721C9.78809 5.18721 10.1756 5.18721 10.4256 5.43721L13.2006 8.21221C13.4006 8.41221 13.2631 8.74971 12.9756 8.74971H13.0006Z" fill="#AFB7CF"/>
</svg>
