<svg width="20" height="20" viewBox="0 0 20 20" fill="none" xmlns="http://www.w3.org/2000/svg">
<g clip-path="url(#clip0_3168_12011)">
<path d="M15 2.5H5C4.3125 2.5 3.75 3.0625 3.75 3.75V15C3.75 16.375 4.875 17.5 6.25 17.5H15.9375C16.1125 17.5 16.25 17.3625 16.25 17.1875V3.75C16.25 3.0625 15.6875 2.5 15 2.5ZM5.625 5.15C5.625 4.8 5.9 4.525 6.25 4.525H8.4375C8.7875 4.525 9.0625 4.8 9.0625 5.15V7.3375C9.0625 7.6875 8.7875 7.9625 8.4375 7.9625H6.25C5.9 7.9625 5.625 7.6875 5.625 7.3375V5.15ZM11.4 12.9625H6.0875C5.825 12.9625 5.6125 12.75 5.6125 12.4875C5.6125 12.225 5.825 12.0125 6.0875 12.0125H11.4C11.6625 12.0125 11.875 12.225 11.875 12.4875C11.875 12.75 11.6625 12.9625 11.4 12.9625ZM13.9 10.4625H6.0875C5.825 10.4625 5.6125 10.25 5.6125 9.9875C5.6125 9.725 5.825 9.5125 6.0875 9.5125H13.9C14.1625 9.5125 14.375 9.725 14.375 9.9875C14.375 10.25 14.1625 10.4625 13.9 10.4625ZM13.9 7.9625H10.4625C10.2 7.9625 9.9875 7.75 9.9875 7.4875C9.9875 7.225 10.2 7.0125 10.4625 7.0125H13.9C14.1625 7.0125 14.375 7.225 14.375 7.4875C14.375 7.75 14.1625 7.9625 13.9 7.9625ZM13.9 5.4625H10.4625C10.2 5.4625 9.9875 5.25 9.9875 4.9875C9.9875 4.725 10.2 4.5125 10.4625 4.5125H13.9C14.1625 4.5125 14.375 4.725 14.375 4.9875C14.375 5.25 14.1625 5.4625 13.9 5.4625Z" fill="#AFB7CF"/>
</g>
<defs>
<clipPath id="clip0_3168_12011">
<rect width="20" height="20" fill="white"/>
</clipPath>
</defs>
</svg>
