<?xml version="1.0" encoding="utf-8"?>
<!-- Generator: Adobe Illustrator 25.0.1, SVG Export Plug-In . SVG Version: 6.00 Build 0)  -->
<svg version="1.1" id="Layer_1" xmlns="http://www.w3.org/2000/svg" xmlns:xlink="http://www.w3.org/1999/xlink" x="0px" y="0px"
	 viewBox="0 0 78 156" style="enable-background:new 0 0 78 156;" xml:space="preserve">
<style type="text/css">
	.st0{fill:#C7C8CC;}
	.st1{fill:#0E8FBF;}
	.st2{fill:none;}
	.st3{fill:#FFFFFF;}
</style>
<g id="Layer_2_1_">
	<g id="Layer_1-2">
		<circle class="st0" cx="39" cy="117" r="39"/>
		<path class="st1" d="M46.2,107.3c-0.6-0.9-1.5-1.6-2.6-2c-1.1-0.4-2.2-0.7-3.4-0.6c-0.7,0-1.4,0.1-2,0.2c-0.6,0.2-1.2,0.4-1.8,0.8
			c-0.5,0.3-1,0.8-1.3,1.4c-0.3,0.6-0.5,1.3-0.5,2c-0.1,1,0.4,2,1.2,2.6c0.9,0.7,1.9,1.2,3,1.6c1.2,0.4,2.5,0.9,3.9,1.3
			c1.4,0.4,2.7,1,3.9,1.7c1.2,0.7,2.2,1.7,3,2.9c0.9,1.5,1.3,3.1,1.2,4.8c0,1.6-0.3,3.3-1,4.8c-0.6,1.3-1.6,2.5-2.7,3.4
			c-1.2,0.9-2.5,1.6-4,2c-1.5,0.5-3.1,0.7-4.8,0.7c-2.1,0-4.1-0.4-6.1-1.1c-2-0.7-3.7-1.9-5-3.6l4.6-4.4c0.7,1.1,1.7,2,2.9,2.6
			c1.2,0.6,2.5,0.9,3.8,0.9c0.7,0,1.4-0.1,2.1-0.3c0.7-0.2,1.3-0.5,1.9-0.9c0.6-0.4,1-0.9,1.4-1.5c0.4-0.6,0.5-1.3,0.5-2
			c0.1-1.1-0.4-2.2-1.2-2.9c-0.9-0.7-1.9-1.3-3-1.7c-1.2-0.5-2.5-0.9-3.9-1.3c-1.4-0.4-2.7-1-3.9-1.7c-1.2-0.7-2.2-1.7-3-2.9
			c-0.9-1.5-1.3-3.1-1.2-4.8c0-1.6,0.3-3.2,1.1-4.6c0.7-1.3,1.7-2.3,2.8-3.2c1.2-0.9,2.6-1.5,4-1.9c1.5-0.4,3.1-0.6,4.6-0.6
			c1.8,0,3.5,0.3,5.2,0.8c1.7,0.6,3.2,1.5,4.5,2.7L46.2,107.3z"/>
		<circle class="st2" cx="39" cy="39" r="39"/>
		<path class="st3" d="M46.2,29.3c-0.6-0.9-1.5-1.6-2.6-2c-1.1-0.4-2.2-0.7-3.4-0.6c-0.7,0-1.4,0.1-2,0.2c-0.6,0.2-1.2,0.4-1.8,0.8
			c-0.5,0.3-1,0.8-1.3,1.4c-0.3,0.6-0.5,1.3-0.5,2c-0.1,1,0.4,2,1.2,2.6c0.9,0.7,1.9,1.2,3,1.6c1.2,0.4,2.5,0.9,3.9,1.3
			c1.4,0.4,2.7,1,3.9,1.7c1.2,0.7,2.2,1.7,3,2.9c0.9,1.5,1.3,3.1,1.2,4.8c0,1.6-0.3,3.3-1,4.8c-0.6,1.3-1.6,2.5-2.7,3.4
			c-1.2,0.9-2.5,1.6-4,2c-1.5,0.5-3.1,0.7-4.8,0.7c-2.1,0-4.1-0.4-6.1-1.1c-2-0.7-3.7-1.9-5-3.6l4.6-4.4c0.7,1.1,1.7,2,2.9,2.6
			c1.2,0.6,2.5,0.9,3.8,0.9c0.7,0,1.4-0.1,2.1-0.3c0.7-0.2,1.3-0.5,1.9-0.9c0.6-0.4,1-0.9,1.4-1.5c0.4-0.6,0.5-1.3,0.5-2
			c0.1-1.1-0.4-2.2-1.2-2.9c-0.9-0.7-1.9-1.3-3-1.7c-1.2-0.5-2.5-0.9-3.9-1.3c-1.4-0.4-2.7-1-3.9-1.7c-1.2-0.7-2.2-1.7-3-2.9
			c-0.9-1.5-1.3-3.1-1.2-4.8c0-1.6,0.3-3.2,1.1-4.6c0.7-1.3,1.7-2.3,2.8-3.2c1.2-0.9,2.6-1.5,4-1.9c1.5-0.4,3.1-0.6,4.6-0.6
			c1.8,0,3.5,0.3,5.2,0.8c1.7,0.6,3.2,1.5,4.5,2.7L46.2,29.3z"/>
	</g>
</g>
</svg>
