<?xml version="1.0" encoding="utf-8"?>
<!-- Generator: Adobe Illustrator 25.0.1, SVG Export Plug-In . SVG Version: 6.00 Build 0)  -->
<svg version="1.1" id="Layer_1" xmlns="http://www.w3.org/2000/svg" xmlns:xlink="http://www.w3.org/1999/xlink" x="0px" y="0px"
	 viewBox="0 0 78 156" style="enable-background:new 0 0 78 156;" xml:space="preserve">
<style type="text/css">
	.st0{fill:#C7C8CC;}
	.st1{fill:#0E8FBF;}
	.st2{fill:none;}
	.st3{fill:#FFFFFF;}
</style>
<g id="Layer_2_1_">
	<g id="Layer_1-2">
		<circle class="st0" cx="39" cy="117" r="39"/>
		<path class="st1" d="M27,100h11.4c1.6,0,3.2,0.2,4.7,0.5c1.4,0.3,2.8,0.8,4,1.6c1.2,0.8,2.1,1.8,2.8,3c0.7,1.5,1.1,3.1,1,4.7
			c0.1,1.8-0.3,3.6-1.1,5.2c-0.7,1.3-1.7,2.3-3,3c-1.3,0.8-2.8,1.2-4.3,1.5c-1.7,0.3-3.4,0.4-5.2,0.4h-4.3V134H27V100z M36.7,114.7
			c0.9,0,1.8,0,2.7-0.1c0.9-0.1,1.7-0.2,2.6-0.6c0.8-0.3,1.4-0.8,1.9-1.4c0.5-0.8,0.8-1.7,0.7-2.7c0-0.9-0.2-1.8-0.7-2.5
			c-0.4-0.6-1-1.1-1.7-1.4c-0.7-0.3-1.5-0.6-2.4-0.6c-0.8-0.1-1.7-0.1-2.5-0.1h-4.3v9.6L36.7,114.7z"/>
		<circle class="st2" cx="39" cy="39" r="39"/>
		<path class="st3" d="M27,22h11.4c1.6,0,3.2,0.2,4.7,0.5c1.4,0.3,2.8,0.8,4,1.6c1.2,0.8,2.1,1.8,2.8,3c0.7,1.5,1.1,3.1,1,4.7
			c0.1,1.8-0.3,3.6-1.1,5.2c-0.7,1.3-1.7,2.3-3,3c-1.3,0.8-2.8,1.2-4.3,1.5c-1.7,0.3-3.4,0.4-5.2,0.4h-4.3V56H27V22z M36.7,36.7
			c0.9,0,1.8,0,2.7-0.1c0.9-0.1,1.7-0.2,2.6-0.6c0.8-0.3,1.4-0.8,1.9-1.4c0.5-0.8,0.8-1.7,0.7-2.7c0-0.9-0.2-1.8-0.7-2.5
			c-0.4-0.6-1-1.1-1.7-1.4c-0.7-0.3-1.5-0.6-2.4-0.6c-0.8-0.1-1.7-0.1-2.5-0.1h-4.3v9.6L36.7,36.7z"/>
	</g>
</g>
</svg>
