<?xml version="1.0" encoding="utf-8"?>
<!-- Generator: Adobe Illustrator 25.0.1, SVG Export Plug-In . SVG Version: 6.00 Build 0)  -->
<svg version="1.1" id="Layer_1" xmlns="http://www.w3.org/2000/svg" xmlns:xlink="http://www.w3.org/1999/xlink" x="0px" y="0px"
	 viewBox="0 0 78 156" style="enable-background:new 0 0 78 156;" xml:space="preserve">
<style type="text/css">
	.st0{fill:#C7C8CC;}
	.st1{fill:#0E8FBF;}
	.st2{fill:none;}
	.st3{fill:#FFFFFF;}
</style>
<g id="Layer_2_1_">
	<g id="Layer_1-2">
		<circle class="st0" cx="39" cy="117" r="39"/>
		<path class="st1" d="M26.2,100H38c1.6,0,3.2,0.1,4.7,0.5c1.4,0.3,2.8,0.8,4.1,1.6c1.2,0.7,2.2,1.8,2.8,3c0.8,1.5,1.1,3.1,1.1,4.8
			c0.1,2.2-0.6,4.4-2,6.2c-1.5,1.7-3.6,2.8-5.8,3l9,15h-7.3l-7.9-14.4h-4.4V134h-6V100z M36.9,114.4c0.9,0,1.7,0,2.6-0.1
			c0.8-0.1,1.6-0.3,2.4-0.6c0.7-0.3,1.3-0.8,1.8-1.4c0.5-0.8,0.7-1.7,0.7-2.6c0-0.8-0.2-1.7-0.6-2.4c-0.4-0.6-1-1.1-1.6-1.4
			c-0.7-0.3-1.5-0.5-2.2-0.6c-0.8-0.1-1.6-0.1-2.4-0.1h-5.2v9.2H36.9z"/>
		<circle class="st2" cx="39" cy="39" r="39"/>
		<path class="st3" d="M26.2,22H38c1.6,0,3.2,0.1,4.7,0.5c1.4,0.3,2.8,0.8,4.1,1.6c1.2,0.7,2.2,1.8,2.8,3c0.8,1.5,1.1,3.1,1.1,4.8
			c0.1,2.2-0.6,4.4-2,6.2c-1.5,1.7-3.6,2.8-5.8,3l9,15h-7.3l-7.9-14.4h-4.4V56h-6V22z M36.9,36.4c0.9,0,1.7,0,2.6-0.1
			c0.8-0.1,1.6-0.3,2.4-0.6c0.7-0.3,1.3-0.8,1.8-1.4c0.5-0.8,0.7-1.7,0.7-2.6c0-0.8-0.2-1.7-0.6-2.4c-0.4-0.6-1-1.1-1.6-1.4
			c-0.7-0.3-1.5-0.5-2.2-0.6c-0.8-0.1-1.6-0.1-2.4-0.1h-5.2v9.2L36.9,36.4z"/>
	</g>
</g>
</svg>
