<svg xmlns="http://www.w3.org/2000/svg" viewBox="0 0 17.717 21.776"><defs><style>.cls-1{fill:#fff;}</style></defs><title>Asset 1</title><g id="Layer_2" data-name="Layer 2"><g id="Layer_1-2" data-name="Layer 1"><g id="_Group_" data-name="&lt;Group&gt;"><g id="_Group_2" data-name="&lt;Group&gt;"><path id="_Path_" data-name="&lt;Path&gt;" class="cls-1" d="M14.8,11.58a4.952,4.952,0,0,1,2.357-4.152,5.067,5.067,0,0,0-3.991-2.157c-1.68-.177-3.307,1-4.163,1-.872,0-2.19-.988-3.609-.959A5.319,5.319,0,0,0,.918,8.045c-1.934,3.349-.491,8.27,1.362,10.976.926,1.326,2.01,2.806,3.427,2.754,1.387-.058,1.905-.885,3.58-.885,1.658,0,2.144.885,3.591.851,1.488-.024,2.426-1.331,3.32-2.669a11.007,11.007,0,0,0,1.519-3.092A4.785,4.785,0,0,1,14.8,11.58Z"/><path id="_Path_2" data-name="&lt;Path&gt;" class="cls-1" d="M12.066,3.491A4.876,4.876,0,0,0,13.18,0,4.952,4.952,0,0,0,9.973,1.66,4.634,4.634,0,0,0,8.829,5.021,4.1,4.1,0,0,0,12.066,3.491Z"/></g></g></g></g></svg>