<svg width="16" height="16" viewBox="0 0 16 16" fill="none" xmlns="http://www.w3.org/2000/svg">
<g clip-path="url(#clip0_3007_843)">
<path d="M11 4H3C2.44772 4 2 4.44772 2 5V13C2 13.5523 2.44772 14 3 14H11C11.5523 14 12 13.5523 12 13V5C12 4.44772 11.5523 4 11 4Z" fill="white"/>
<path d="M14 11C14.55 11 15 10.55 15 10V2C15 1.45 14.55 1 14 1H6C5.45 1 5 1.45 5 2V3H11C12.1 3 13 3.9 13 5V11H14Z" fill="white"/>
</g>
<defs>
<clipPath id="clip0_3007_843">
<rect width="16" height="16" fill="white"/>
</clipPath>
</defs>
</svg>
