<?xml version="1.0" encoding="utf-8"?>
<!-- Generator: Adobe Illustrator 25.0.1, SVG Export Plug-In . SVG Version: 6.00 Build 0)  -->
<svg version="1.1" id="Layer_1" xmlns="http://www.w3.org/2000/svg" xmlns:xlink="http://www.w3.org/1999/xlink" x="0px" y="0px"
	 viewBox="0 0 78 156" style="enable-background:new 0 0 78 156;" xml:space="preserve">
<style type="text/css">
	.st0{fill:#C7C8CC;}
	.st1{fill:#0E8FBF;}
	.st2{fill:none;}
	.st3{fill:#FFFFFF;}
</style>
<g id="Layer_2_1_">
	<g id="Layer_1-2">
		<circle class="st0" cx="39" cy="117" r="39"/>
		<path class="st1" d="M48.8,108c-1-1.2-2.2-2.1-3.6-2.7c-1.1-0.4-2.3-0.7-3.5-0.7c-1.6,0-3.3,0.3-4.8,0.9c-1.4,0.6-2.6,1.5-3.7,2.6
			c-1,1.1-1.8,2.4-2.4,3.9c-0.6,1.5-0.9,3.1-0.8,4.8c0,1.7,0.3,3.4,0.8,5c0.5,1.5,1.3,2.8,2.4,4c1,1.1,2.3,2,3.7,2.6
			c1.5,0.7,3.1,1,4.8,1c1.4,0,2.8-0.3,4-1c1.4-0.8,2.7-1.8,3.6-3.1l5,3.6c-1.4,2-3.4,3.6-5.6,4.6c-2.2,1-4.6,1.5-7.1,1.4
			c-2.5,0-4.9-0.4-7.2-1.3c-4.3-1.6-7.7-4.9-9.4-9.2c-0.9-2.3-1.4-4.8-1.3-7.2c0-2.5,0.4-5.1,1.3-7.4c0.8-2.1,2.1-4.1,3.7-5.7
			c1.6-1.6,3.5-2.8,5.7-3.6c2.3-0.9,4.8-1.3,7.2-1.3c2.2,0,4.4,0.4,6.4,1.2c2.1,0.9,4,2.4,5.5,4.2L48.8,108z"/>
		<circle class="st2" cx="39" cy="39" r="39"/>
		<path class="st3" d="M48.8,30c-1-1.2-2.2-2.1-3.6-2.7c-1.1-0.4-2.3-0.7-3.5-0.7c-1.6,0-3.3,0.3-4.8,0.9c-1.4,0.6-2.6,1.5-3.7,2.6
			c-1,1.1-1.8,2.4-2.4,3.9c-0.6,1.5-0.9,3.1-0.8,4.8c0,1.7,0.3,3.4,0.8,5c0.5,1.5,1.3,2.8,2.4,4c1,1.1,2.3,2,3.7,2.6
			c1.5,0.7,3.1,1,4.8,1c1.4,0,2.8-0.3,4-1c1.4-0.8,2.7-1.8,3.6-3.1l5,3.6c-1.4,2-3.4,3.6-5.6,4.6c-2.2,1-4.6,1.5-7.1,1.4
			c-2.5,0-4.9-0.4-7.2-1.3c-4.3-1.6-7.7-4.9-9.4-9.2c-0.9-2.3-1.4-4.8-1.3-7.2c0-2.5,0.4-5.1,1.3-7.4c0.8-2.1,2.1-4.1,3.7-5.7
			c1.6-1.6,3.5-2.8,5.7-3.6c2.3-0.9,4.8-1.3,7.2-1.3c2.2,0,4.4,0.4,6.4,1.2c2.1,0.9,4,2.4,5.5,4.2L48.8,30z"/>
	</g>
</g>
</svg>
