<svg width="64" height="64" viewBox="0 0 64 64" fill="none" xmlns="http://www.w3.org/2000/svg">
<g clip-path="url(#clip0_1670_1670)">
<path d="M32 64C49.6731 64 64 49.6731 64 32C64 14.3269 49.6731 0 32 0C14.3269 0 0 14.3269 0 32C0 49.6731 14.3269 64 32 64Z" fill="#00B6E0" fill-opacity="0.2"/>
<path d="M27.6397 34.8799H18.6797V40.1919H27.6397V34.8799Z" fill="#8EB0F6" fill-opacity="0.6"/>
<path d="M50.0498 34.7518C51.9698 34.7518 53.5058 33.2158 53.5058 31.2958C53.5058 29.3758 51.9698 27.8398 50.0498 27.8398C48.1298 27.8398 46.5938 29.3758 46.5938 31.2958C46.5938 33.2158 48.1298 34.7518 50.0498 34.7518Z" fill="#ABE2FA" fill-opacity="0.6"/>
<path d="M20.4783 36.0317C22.1749 36.0317 23.5503 34.6563 23.5503 32.9597C23.5503 31.2631 22.1749 29.8877 20.4783 29.8877C18.7816 29.8877 17.4062 31.2631 17.4062 32.9597C17.4062 34.6563 18.7816 36.0317 20.4783 36.0317Z" stroke="white" stroke-width="2" stroke-miterlimit="10"/>
<path d="M43.5212 30.9116C45.2178 30.9116 46.5932 29.5362 46.5932 27.8396C46.5932 26.143 45.2178 24.7676 43.5212 24.7676C41.8246 24.7676 40.4492 26.143 40.4492 27.8396C40.4492 29.5362 41.8246 30.9116 43.5212 30.9116Z" stroke="white" stroke-width="2" stroke-miterlimit="10"/>
<path d="M33.2796 28.8639C35.5418 28.8639 37.3756 27.03 37.3756 24.7679C37.3756 22.5057 35.5418 20.6719 33.2796 20.6719C31.0174 20.6719 29.1836 22.5057 29.1836 24.7679C29.1836 27.03 31.0174 28.8639 33.2796 28.8639Z" stroke="white" stroke-width="2" stroke-miterlimit="10"/>
<path d="M39.4238 37.0555V36.0315C39.4238 33.7915 41.2798 31.9355 43.5198 31.9355C45.7598 31.9355 47.6158 33.7915 47.6158 36.0315V37.0555H39.4238Z" stroke="white" stroke-width="2" stroke-miterlimit="10" stroke-linecap="round" stroke-linejoin="round"/>
<path d="M24.5748 42.1757V41.1517C24.5748 38.9117 22.7188 37.0557 20.4788 37.0557C18.2388 37.0557 16.3828 38.9117 16.3828 41.1517V42.1757H24.5748Z" stroke="white" stroke-width="2" stroke-miterlimit="10" stroke-linecap="round" stroke-linejoin="round"/>
<path d="M27.1367 36.0317C27.1367 32.6397 29.8887 29.8877 33.2807 29.8877C36.6727 29.8877 39.4247 32.6397 39.4247 36.0317V37.0557H27.1367V36.0317Z" stroke="white" stroke-width="2" stroke-miterlimit="10" stroke-linecap="round" stroke-linejoin="round"/>
</g>
<defs>
<clipPath id="clip0_1670_1670">
<rect width="64" height="64" fill="white"/>
</clipPath>
</defs>
</svg>
