<svg width="140" height="26" viewBox="0 0 140 26" fill="none" xmlns="http://www.w3.org/2000/svg">
<g id="Group 33083">
<g id="Group 303">
<path id="Vector" fill-rule="evenodd" clip-rule="evenodd" d="M12.6495 8.8584L14.7461 8.85739H18.244L18.205 7.74339C18.1262 5.49687 17.2303 3.58643 15.6141 2.21895C14.2732 1.08432 12.5181 0.405926 10.4937 0.226685L11.6945 5.01388L12.6495 8.8584Z" fill="#999999"/>
<path id="Vector_2" fill-rule="evenodd" clip-rule="evenodd" d="M7.9852 1.34267L8.26677 0.228882C6.19961 0.416038 4.41222 1.1233 3.05232 2.3063C1.4357 3.71247 0.54541 5.73037 0.54541 7.98826C0.54541 10.5238 1.54193 12.3883 3.50733 13.53C4.09398 13.8707 4.73469 14.1307 5.4132 14.3378L5.10298 13.095L5.05818 12.916L7.9852 1.34267Z" fill="#999999"/>
<path id="Vector_3" fill-rule="evenodd" clip-rule="evenodd" d="M11.3438 22.2526L10.4644 25.7723C12.6899 25.5987 14.5957 24.8959 16.0211 23.7109C17.7439 22.2786 18.6544 20.2577 18.6544 17.8664C18.6544 15.3223 17.6519 13.4504 15.6747 12.303C14.9467 11.8805 14.1292 11.5802 13.2839 11.3506L13.6767 12.9159L11.3438 22.2526Z" fill="#999999"/>
<path id="Vector_4" fill-rule="evenodd" clip-rule="evenodd" d="M7.3922 22.2649L7.09513 21.0747L6.04857 17.2554H0L0.0270879 17.962C0.0858291 20.3426 1.02706 22.3445 2.74924 23.7513C4.17301 24.9142 6.06573 25.6037 8.26822 25.7734L7.3922 22.2649Z" fill="#999999"/>
</g>
<g id="Group 302">
<path id="Vector_5" d="M27.3978 7.17847H25.4541V19.641H27.3978V7.17847Z" fill="#999999"/>
<path id="Vector_6" fill-rule="evenodd" clip-rule="evenodd" d="M37.1732 14.9342C37.1732 13.0286 35.8774 11.6566 33.9526 11.6566C32.0091 11.6566 30.7131 13.0286 30.7131 14.9342C30.7131 16.8397 32.0091 18.2118 33.9526 18.2118C35.8774 18.2118 37.1732 16.8397 37.1732 14.9342ZM28.8838 14.8771C28.8838 11.7519 31.2087 9.97959 33.6668 9.97959C35.1913 9.97959 36.4871 10.6657 37.1732 11.8852V6.11133H38.9834V14.858C38.9834 17.926 36.8874 19.8887 33.9717 19.8887C30.9798 19.8887 28.8838 17.8307 28.8838 14.8771Z" fill="#999999"/>
<path id="Vector_7" fill-rule="evenodd" clip-rule="evenodd" d="M48.2829 13.9813C47.9209 12.4759 46.6822 11.6565 45.1576 11.6565C43.595 11.6565 42.4139 12.495 42.0516 13.9813H48.2829ZM40.0889 14.9341C40.0889 12.0758 42.185 9.97949 45.1576 9.97949C48.1306 9.97949 50.1886 12.0758 50.1886 14.9341V15.601H41.9945C42.2613 17.2779 43.5188 18.2117 45.1576 18.2117C46.3772 18.2117 47.2348 17.8306 47.7875 17.0112H49.7883C49.0641 18.7644 47.3491 19.8886 45.1576 19.8886C42.185 19.8886 40.0889 17.7925 40.0889 14.9341Z" fill="#999999"/>
<path id="Vector_8" fill-rule="evenodd" clip-rule="evenodd" d="M59.2213 14.9341C59.2213 13.0285 57.9255 11.6565 55.9817 11.6565C54.0383 11.6565 52.7423 13.0285 52.7423 14.9341C52.7423 16.8397 54.0383 18.2117 55.9817 18.2117C57.9255 18.2117 59.2213 16.8397 59.2213 14.9341ZM50.9131 15.0104C50.9131 12.0567 53.0092 9.97949 56.0009 9.97949C58.9548 9.97949 61.0127 11.9995 61.0127 15.0104V19.6409H59.3548V17.5829C58.726 19.1074 57.3348 19.8886 55.6961 19.8886C53.2379 19.8886 50.9131 18.1165 50.9131 15.0104Z" fill="#999999"/>
<path id="Vector_9" fill-rule="evenodd" clip-rule="evenodd" d="M80.5446 14.9341C80.5446 13.0285 79.2489 11.6565 77.3051 11.6565C75.3615 11.6565 74.0656 13.0285 74.0656 14.9341C74.0656 16.8397 75.3615 18.2117 77.3051 18.2117C79.2489 18.2117 80.5446 16.8397 80.5446 14.9341ZM72.2363 14.9341C72.2363 12.0758 74.3324 9.97949 77.3051 9.97949C80.2779 9.97949 82.3741 12.0758 82.3741 14.9341C82.3741 17.7925 80.2779 19.8886 77.3051 19.8886C74.3324 19.8886 72.2363 17.7925 72.2363 14.9341Z" fill="#999999"/>
<path id="Vector_10" d="M85.633 6.11133H83.8228V19.641H85.633V6.11133Z" fill="#999999"/>
<path id="Vector_11" fill-rule="evenodd" clip-rule="evenodd" d="M87.4624 15.1438V10.2273H89.2726V15.1438C89.2726 17.1828 90.3969 18.2117 92.1118 18.2117C93.8268 18.2117 94.9512 17.1828 94.9512 15.1438V10.2273H96.7616V15.1438C96.7616 18.2689 94.8939 19.8886 92.1118 19.8886C89.3296 19.8886 87.4624 18.288 87.4624 15.1438Z" fill="#999999"/>
<path id="Vector_12" fill-rule="evenodd" clip-rule="evenodd" d="M107.262 19.6411H109.072V10.2274H107.262V19.6411ZM106.899 7.46436C106.899 6.74026 107.433 6.20667 108.157 6.20667C108.881 6.20667 109.415 6.74026 109.415 7.46436C109.415 8.18845 108.881 8.74099 108.157 8.74099C107.433 8.74099 106.899 8.18845 106.899 7.46436Z" fill="#999999"/>
<path id="Vector_13" fill-rule="evenodd" clip-rule="evenodd" d="M118.809 14.9341C118.809 13.0285 117.514 11.6565 115.57 11.6565C113.626 11.6565 112.33 13.0285 112.33 14.9341C112.33 16.8397 113.626 18.2117 115.57 18.2117C117.514 18.2117 118.809 16.8397 118.809 14.9341ZM110.501 14.9341C110.501 12.0758 112.597 9.97949 115.57 9.97949C118.543 9.97949 120.639 12.0758 120.639 14.9341C120.639 17.7925 118.543 19.8886 115.57 19.8886C112.597 19.8886 110.501 17.7925 110.501 14.9341Z" fill="#999999"/>
<path id="Vector_14" fill-rule="evenodd" clip-rule="evenodd" d="M121.744 14.7435C121.744 11.5992 123.611 9.97949 126.394 9.97949C129.176 9.97949 131.043 11.5803 131.043 14.7435V19.6409H129.233V14.7435C129.233 12.7045 128.109 11.6565 126.394 11.6565C124.679 11.6565 123.554 12.7045 123.554 14.7435V19.6409H121.744V14.7435Z" fill="#999999"/>
<path id="Vector_15" fill-rule="evenodd" clip-rule="evenodd" d="M132.187 16.916H134.016C134.054 17.6972 134.779 18.2498 136.093 18.2498C137.465 18.2498 138.171 17.6591 138.171 16.916C138.171 16.0203 137.18 15.906 135.998 15.7535C134.36 15.544 132.378 15.239 132.378 13.0858C132.378 11.2373 133.826 9.97949 136.074 9.97949C138.323 9.97949 139.715 11.2564 139.752 12.8761H137.961C137.903 12.1519 137.237 11.6184 136.093 11.6184C134.894 11.6184 134.207 12.19 134.207 12.9333C134.207 13.8288 135.198 13.9241 136.36 14.0767C137.999 14.2863 140 14.5911 140 16.7445C140 18.65 138.456 19.8886 136.093 19.8886C133.731 19.8886 132.244 18.6309 132.187 16.916Z" fill="#999999"/>
<path id="Vector_16" fill-rule="evenodd" clip-rule="evenodd" d="M103.872 17.0039C103.6 17.8447 102.922 18.2118 102.021 18.2118C100.84 18.2118 100.058 17.5639 100.058 16.0775V11.8852H105.242V10.2274H100.058V6.89258H98.248V16.0775C98.248 18.631 99.7726 19.8887 102.021 19.8887C103.978 19.8887 105.386 18.9349 105.718 17.0039H103.872Z" fill="#999999"/>
<path id="Vector_17" fill-rule="evenodd" clip-rule="evenodd" d="M67.2062 12.495C65.7008 12.2283 64.3477 12.0187 64.3477 10.7037C64.3477 9.56029 65.2436 8.72184 66.8439 8.72184C68.3877 8.72184 69.245 9.54135 69.3023 10.6467H71.1507C71.0745 8.41709 69.3595 6.93066 66.8059 6.93066C64.1952 6.93066 62.4802 8.49321 62.4802 10.7608C62.4802 13.5621 64.7097 13.9432 66.6535 14.2863C68.1589 14.553 69.493 14.7626 69.493 16.0775C69.493 17.297 68.521 18.0974 66.7869 18.0974C65.572 18.0974 64.7508 17.6852 64.367 17.0039H62.3203C62.7743 18.8121 64.4397 19.8887 66.7869 19.8887C69.569 19.8887 71.3983 18.4024 71.3983 16.0203C71.3983 13.2191 69.1688 12.8381 67.2062 12.495Z" fill="#999999"/>
</g>
</g>
</svg>
