<svg width="136" height="136" viewBox="0 0 136 136" fill="none" xmlns="http://www.w3.org/2000/svg">
<circle cx="68" cy="68" r="68" fill="#E6E4F8"/>
<g clip-path="url(#clip0_1341_4249)">
<circle cx="58.1862" cy="68.0547" r="14.1383" fill="white"/>
<path d="M59.7233 60.1896L61.214 63.2118C61.4648 63.72 61.9459 64.0656 62.5015 64.1469L65.8354 64.6348C67.2381 64.8381 67.8006 66.566 66.7841 67.5554L64.3718 69.9067C63.9652 70.2997 63.7822 70.8689 63.8771 71.4246L64.4463 74.7449C64.6835 76.1476 63.2198 77.2115 61.9594 76.5542L58.9779 74.9821C58.4764 74.7178 57.8801 74.7178 57.3855 74.9821L54.4039 76.5542C53.1503 77.2183 51.6799 76.1476 51.917 74.7449L52.4862 71.4246C52.5811 70.8689 52.3982 70.2997 51.9916 69.9067L49.5792 67.5554C48.5628 66.566 49.1252 64.8381 50.5279 64.6348L53.8618 64.1469C54.4175 64.0656 54.9054 63.7132 55.1493 63.2118L56.6401 60.1896C57.2703 58.9156 59.0863 58.9156 59.7165 60.1896H59.7233Z" fill="#FF9E1D"/>
<path d="M107.997 38.5869L59.3441 54.0639C66.5201 54.6534 72.1647 60.6572 72.1647 67.989C72.1647 75.3277 66.5201 81.3315 59.3441 81.921L107.997 97.4047C109.976 98.0349 112.002 96.5577 112.002 94.4774V41.5143C112.002 39.434 109.983 37.9568 107.997 38.5869Z" fill="#FF9E1D"/>
<g style="mix-blend-mode:multiply">
<path d="M58.1851 45.2073C35.2272 45.2073 24.0057 62.5139 24.0057 67.9958C24.0057 73.4778 35.2272 90.7843 58.1851 90.7843C81.143 90.7843 92.3644 73.4778 92.3644 67.9958C92.3644 62.5139 81.143 45.2073 58.1851 45.2073ZM58.1851 81.9752C50.4669 81.9752 44.2057 75.714 44.2057 67.9958C44.2057 60.2777 50.4669 54.0164 58.1851 54.0164C65.9032 54.0164 72.1644 60.2709 72.1644 67.9958C72.1644 75.7207 65.9032 81.9752 58.1851 81.9752Z" fill="#0E55EF"/>
</g>
</g>
<defs>
<clipPath id="clip0_1341_4249">
<rect width="87.9962" height="59.1227" fill="white" transform="translate(24.0027 38.4385)"/>
</clipPath>
</defs>
</svg>
