<svg width="136" height="136" viewBox="0 0 136 136" fill="none" xmlns="http://www.w3.org/2000/svg">
<circle cx="68" cy="68" r="68" fill="#E6E4F8"/>
<g clip-path="url(#clip0_1341_4284)">
<path d="M79.2622 87.8368C79.4791 87.3082 79.6688 86.7864 79.8383 86.2578C80.1703 85.2345 81.0716 84.5026 82.1356 84.3332L87.8145 83.459C89.2309 83.2421 90.2745 82.0223 90.2677 80.5856L90.2541 76.9804C90.2541 75.5302 89.1699 74.3036 87.7332 74.1206L82.183 73.3955C81.0649 73.2464 80.15 72.4671 79.8044 71.3964C79.4249 70.2308 78.9505 69.099 78.3948 68.0148C77.8866 67.0186 77.9679 65.8191 78.6388 64.9246L82.0272 60.4248C82.8946 59.266 82.7794 57.6463 81.7561 56.6298L79.2012 54.0885C78.178 53.0652 76.5515 52.9636 75.4063 53.8378L70.9133 57.26C70.0187 57.9445 68.8192 58.0258 67.8095 57.5176C67.2538 57.2397 66.6846 56.9822 66.1018 56.745C65.5528 56.5214 65.0107 56.3248 64.455 56.1419C63.4182 55.8098 62.6727 54.8882 62.5169 53.8039L61.7036 48.2063C61.4936 46.7764 60.2737 45.7192 58.8303 45.726L55.2386 45.7395C53.7884 45.7395 52.5618 46.8238 52.372 48.2673L51.6537 53.8242C51.5114 54.9424 50.7185 55.8572 49.641 56.2096C48.4754 56.5891 47.3437 57.0635 46.2526 57.626C45.2429 58.141 44.0366 58.0665 43.1353 57.382L38.6898 53.9936C37.5309 53.1127 35.9045 53.2279 34.8812 54.2579L32.3738 56.7789C31.3438 57.8157 31.2489 59.4557 32.1434 60.6078L36.7313 66.4764V66.49C36.0672 67.5539 35.4911 68.706 35.0032 69.9122C34.7863 70.4476 34.5898 70.983 34.4136 71.5251C34.0816 72.5552 33.1735 73.2871 32.1095 73.4497L26.4509 74.3036C25.0481 74.4933 24.0045 75.7132 24.0045 77.1498L24.0181 80.7347C24.0181 82.1917 25.1091 83.4183 26.5594 83.6013L32.0485 84.2858C33.1735 84.4281 34.1019 85.221 34.4543 86.2985C34.827 87.437 35.2878 88.5483 35.8232 89.6123C36.3179 90.5949 36.2366 91.7605 35.5928 92.6483L32.1841 97.3175C31.3437 98.4763 31.4657 100.076 32.4822 101.079L35.071 103.647C36.0943 104.663 37.7071 104.772 38.8524 103.904L44.8905 99.3573H44.9041C45.9206 99.974 47.0184 100.523 48.1637 100.99C48.6923 101.201 49.2208 101.397 49.7494 101.566C50.7795 101.899 51.5114 102.8 51.674 103.871L52.5415 109.543C52.7583 110.959 53.9781 112.003 55.4148 112.003L59.0268 111.989C60.4771 111.989 61.6969 110.912 61.8866 109.475L62.6253 103.911C62.7744 102.8 63.5605 101.885 64.6244 101.533C65.7494 101.16 66.8472 100.706 67.9044 100.17C68.887 99.6758 70.0662 99.7503 70.9539 100.408L75.5757 103.803C76.7345 104.65 78.3338 104.528 79.3436 103.511L81.8984 100.936C82.9217 99.913 83.0233 98.2866 82.1491 97.1345L78.7336 92.6551C78.0492 91.7605 77.9679 90.5543 78.4761 89.5513C78.754 88.9956 79.0115 88.4196 79.2555 87.83L79.2622 87.8368Z" fill="#0044DC"/>
<path d="M65.79 78.1257C63.1674 82.1443 56.4042 92.4585 56.4042 92.4585C55.8689 93.2717 54.6016 92.7702 54.771 91.8079L56.2822 83.1405C56.3365 82.4899 55.8079 82.2188 55.1166 82.2188H49.004C48.306 82.2188 48.0824 81.6631 48.5093 81.1413L60.0637 65.7242C60.7346 64.8229 62.1577 65.5141 61.8663 66.5984L59.5554 75.3065C59.4267 75.7809 59.6435 76.3163 60.0976 76.4925C60.206 76.5331 60.3212 76.5535 60.4364 76.5535H64.9362C65.7494 76.5535 66.2373 77.448 65.79 78.1324V78.1257Z" fill="white"/>
<path d="M111.948 40.291L110.945 36.3537C110.817 35.8658 110.478 35.4389 110.051 35.1678C109.692 34.9442 109.271 34.8154 108.858 34.8425L106.073 35.0323C105.409 35.0797 104.555 34.8222 103.911 34.4088C103.674 34.2597 103.464 34.0835 103.301 33.9005L101.6 32.3283C100.868 31.7726 100.333 30.5596 100.421 29.6447L100.631 27.2661C100.692 26.5274 100.285 25.7684 99.662 25.3686C99.5129 25.2737 99.3435 25.1924 99.1673 25.145L95.2571 24.0607C94.3693 23.8167 93.3121 24.2979 92.9123 25.1246L91.6654 27.6456C91.2588 28.4859 90.1813 29.2991 89.28 29.4821L87.5993 29.9497C86.759 30.2682 85.4918 30.1259 84.7328 29.6447C84.7057 29.6244 84.6853 29.6041 84.665 29.5905L82.5439 28.1132C82.5439 28.1132 82.4964 28.0861 82.4761 28.0725C81.7307 27.5982 80.6193 27.7066 79.9755 28.3368L77.075 31.1898C76.4177 31.8472 76.2957 32.9992 76.8039 33.7718L78.1932 35.859C78.7082 36.6248 78.8166 37.9395 78.4371 38.7798C78.4371 38.7798 78.2948 39.0915 78.0238 40.0945C77.7595 41.0365 77.7256 41.2533 77.7256 41.2533C77.6172 42.1614 76.8311 43.2389 75.9975 43.6252L73.7544 44.6824C72.9209 45.0686 72.4262 46.1258 72.643 47.0204L73.6528 50.9577C73.7747 51.4456 74.1068 51.859 74.5405 52.13C74.8997 52.3604 75.3266 52.4824 75.74 52.4485L78.1254 52.2927C78.7557 52.2452 79.5147 52.4824 80.1178 52.8687C80.4024 53.0449 80.6464 53.2618 80.8293 53.4922L82.4897 55.2338C83.1877 55.8369 83.6891 57.0838 83.6078 57.9987L83.3029 61.4549C83.2419 62.1935 83.6553 62.9593 84.2787 63.3524C84.4278 63.4472 84.5904 63.5218 84.7599 63.5692L88.6701 64.6467C89.5578 64.8975 90.615 64.4163 91.0284 63.5895L92.5396 60.4993C92.9462 59.6726 94.0305 58.8661 94.9318 58.7103L97.6018 57.958C98.4218 57.626 99.6891 57.7547 100.455 58.2427C100.475 58.2562 100.509 58.2766 100.529 58.2901L102.935 59.9707L102.969 59.9911C103.742 60.479 104.853 60.3774 105.497 59.7471L108.397 56.8941C109.055 56.2368 109.183 55.0779 108.668 54.3189L106.852 51.5947C106.337 50.8289 106.181 49.5481 106.506 48.7688L106.71 48.0098C107.069 46.7628 107.13 45.9496 107.13 45.9496C107.204 45.0348 107.957 43.964 108.79 43.571L110.837 42.5951C111.67 42.1953 112.172 41.1585 111.941 40.2639L111.948 40.291ZM99.9872 46.4104C98.8013 50.673 94.3964 53.1872 90.1542 52.0148C89.3681 51.8048 88.6497 51.4795 87.9992 51.0661C85.119 49.2364 83.6552 45.6515 84.6243 42.1682C85.8238 37.9056 90.2219 35.3914 94.471 36.5638C95.2435 36.7807 95.9551 37.0992 96.6056 37.5126C99.4858 39.3423 100.956 42.9272 99.9872 46.4172V46.4104Z" fill="#F04DC6"/>
<g style="mix-blend-mode:multiply">
<path d="M92.2942 55.8166C98.6156 55.8166 103.74 50.6921 103.74 44.3706C103.74 38.0492 98.6156 32.9247 92.2942 32.9247C85.9728 32.9247 80.8483 38.0492 80.8483 44.3706C80.8483 50.6921 85.9728 55.8166 92.2942 55.8166Z" fill="#0044DC"/>
</g>
</g>
<defs>
<clipPath id="clip0_1341_4284">
<rect width="87.9962" height="87.9759" fill="white" transform="translate(24.0014 24.0121)"/>
</clipPath>
</defs>
</svg>
