<svg width="840" height="472" viewBox="0 0 840 472" fill="none" xmlns="http://www.w3.org/2000/svg">
<g clip-path="url(#clip0_3651_5935)">
<path d="M137.5 369.5H806.5" stroke="#DDDDDD" stroke-miterlimit="10"/>
<path d="M707 225.5H522V151C522 148.791 523.791 147 526 147L703 147C705.209 147 707 148.791 707 151V225.5Z" fill="#00B9E3"/>
<path d="M419 147H242C239.791 147 238 148.791 238 151V370H423V151C423 148.791 421.209 147 419 147Z" fill="#FC336D"/>
<path d="M703 211H526C523.791 211 522 212.791 522 215V370H707V215C707 212.791 705.209 211 703 211Z" fill="#FC336D"/>
<path d="M523.5 216L422 148.5L419 370H524.5L523.5 216Z" fill="url(#paint0_linear_3651_5935)"/>
<path d="M590.99 225.256V227.632L585.896 238H582.746L587.966 227.74H581.666V225.256H590.99ZM599.428 225.256V238H596.836V228.28L594.28 230.53L592.75 228.766L596.908 225.256H599.428ZM604.969 234.796C605.437 234.796 605.827 234.964 606.139 235.3C606.463 235.624 606.625 236.008 606.625 236.452C606.625 236.92 606.463 237.316 606.139 237.64C605.827 237.952 605.437 238.108 604.969 238.108C604.525 238.108 604.135 237.952 603.799 237.64C603.475 237.316 603.313 236.92 603.313 236.452C603.313 235.984 603.469 235.594 603.781 235.282C604.105 234.958 604.501 234.796 604.969 234.796ZM615.407 225.256V238H612.815V228.28L610.259 230.53L608.729 228.766L612.887 225.256H615.407ZM623.503 225.04C624.799 225.04 625.837 225.358 626.617 225.994C627.409 226.618 627.805 227.482 627.805 228.586C627.805 229.318 627.613 229.93 627.229 230.422C626.845 230.914 626.311 231.232 625.627 231.376V231.43C626.359 231.526 626.941 231.856 627.373 232.42C627.805 232.972 628.021 233.632 628.021 234.4C628.021 235.564 627.601 236.494 626.761 237.19C625.933 237.874 624.823 238.216 623.431 238.216C622.195 238.216 621.181 237.934 620.389 237.37C619.609 236.794 619.099 235.978 618.859 234.922L621.703 234.256C621.907 235.24 622.537 235.732 623.593 235.732C624.145 235.732 624.571 235.588 624.871 235.3C625.171 235.012 625.321 234.61 625.321 234.094C625.321 233.602 625.153 233.236 624.817 232.996C624.481 232.744 623.833 232.618 622.873 232.618H622.171V230.278H622.999C623.707 230.278 624.235 230.17 624.583 229.954C624.931 229.726 625.105 229.36 625.105 228.856C625.105 228.448 624.949 228.124 624.637 227.884C624.325 227.644 623.953 227.524 623.521 227.524C623.137 227.524 622.801 227.626 622.513 227.83C622.225 228.034 622.033 228.328 621.937 228.712L618.967 228.1C619.507 226.06 621.019 225.04 623.503 225.04ZM640.006 224.68L641.518 225.526L634.084 238.576L632.716 237.802L640.006 224.68ZM636.118 228.604C636.118 229.576 635.77 230.416 635.074 231.124C634.39 231.82 633.556 232.168 632.572 232.168C631.576 232.168 630.736 231.826 630.052 231.142C629.368 230.446 629.026 229.6 629.026 228.604C629.026 227.632 629.368 226.798 630.052 226.102C630.748 225.394 631.588 225.04 632.572 225.04C633.532 225.04 634.36 225.382 635.056 226.066C635.764 226.75 636.118 227.596 636.118 228.604ZM632.572 230.332C633.028 230.332 633.424 230.17 633.76 229.846C634.108 229.522 634.282 229.108 634.282 228.604C634.282 228.1 634.108 227.686 633.76 227.362C633.424 227.038 633.028 226.876 632.572 226.876C632.068 226.876 631.654 227.05 631.33 227.398C631.018 227.746 630.862 228.148 630.862 228.604C630.862 229.048 631.018 229.45 631.33 229.81C631.654 230.158 632.068 230.332 632.572 230.332ZM645.172 234.634C645.172 235.618 644.824 236.464 644.128 237.172C643.444 237.868 642.61 238.216 641.626 238.216C640.63 238.216 639.79 237.868 639.106 237.172C638.422 236.464 638.08 235.618 638.08 234.634C638.08 233.662 638.422 232.828 639.106 232.132C639.802 231.424 640.642 231.07 641.626 231.07C642.622 231.07 643.462 231.424 644.146 232.132C644.83 232.828 645.172 233.662 645.172 234.634ZM641.626 236.38C642.106 236.38 642.508 236.218 642.832 235.894C643.168 235.558 643.336 235.138 643.336 234.634C643.336 234.13 643.162 233.716 642.814 233.392C642.478 233.068 642.082 232.906 641.626 232.906C641.122 232.906 640.708 233.08 640.384 233.428C640.072 233.776 639.916 234.178 639.916 234.634C639.916 235.114 640.078 235.528 640.402 235.876C640.738 236.212 641.146 236.38 641.626 236.38Z" fill="white"/>
<path d="M27.38 272.88L27.991 271.788L37.416 277.157L36.857 278.145L27.38 272.88ZM30.214 275.688C30.916 275.688 31.5227 275.94 32.034 276.442C32.5367 276.936 32.788 277.539 32.788 278.249C32.788 278.969 32.541 279.575 32.047 280.069C31.5443 280.563 30.9333 280.81 30.214 280.81C29.512 280.81 28.9097 280.563 28.407 280.069C27.8957 279.567 27.64 278.96 27.64 278.249C27.64 277.556 27.887 276.958 28.381 276.455C28.875 275.944 29.486 275.688 30.214 275.688ZM31.462 278.249C31.462 277.92 31.345 277.634 31.111 277.391C30.877 277.14 30.578 277.014 30.214 277.014C29.85 277.014 29.551 277.14 29.317 277.391C29.083 277.634 28.966 277.92 28.966 278.249C28.966 278.613 29.0917 278.912 29.343 279.146C29.5943 279.372 29.8847 279.484 30.214 279.484C30.5347 279.484 30.825 279.372 31.085 279.146C31.3363 278.912 31.462 278.613 31.462 278.249ZM34.569 269.149C35.2797 269.149 35.8907 269.401 36.402 269.903C36.9047 270.397 37.156 271 37.156 271.71C37.156 272.43 36.9047 273.036 36.402 273.53C35.8907 274.024 35.2797 274.271 34.569 274.271C33.867 274.271 33.2647 274.024 32.762 273.53C32.2507 273.028 31.995 272.421 31.995 271.71C31.995 270.991 32.2507 270.384 32.762 269.89C33.2647 269.396 33.867 269.149 34.569 269.149ZM35.83 271.71C35.83 271.364 35.713 271.073 35.479 270.839C35.2363 270.597 34.933 270.475 34.569 270.475C34.205 270.475 33.906 270.601 33.672 270.852C33.438 271.095 33.321 271.381 33.321 271.71C33.321 272.074 33.4467 272.373 33.698 272.607C33.9493 272.833 34.2397 272.945 34.569 272.945C34.9157 272.945 35.2147 272.828 35.466 272.594C35.7087 272.352 35.83 272.057 35.83 271.71ZM27.562 257.227C27.562 255.754 28.004 254.558 28.888 253.639C29.772 252.72 30.942 252.261 32.398 252.261C33.8453 252.261 35.0153 252.725 35.908 253.652C36.792 254.579 37.234 255.771 37.234 257.227C37.234 258.7 36.7877 259.896 35.895 260.815C35.0023 261.734 33.8367 262.193 32.398 262.193C30.9593 262.193 29.7937 261.738 28.901 260.828C28.0083 259.909 27.562 258.709 27.562 257.227ZM32.398 260.087C33.2907 260.087 34.01 259.823 34.556 259.294C35.0933 258.757 35.362 258.068 35.362 257.227C35.362 256.369 35.0847 255.68 34.53 255.16C33.9753 254.631 33.2647 254.367 32.398 254.367C31.514 254.367 30.799 254.636 30.253 255.173C29.707 255.702 29.434 256.391 29.434 257.24C29.434 258.089 29.7113 258.778 30.266 259.307C30.8207 259.827 31.5313 260.087 32.398 260.087ZM27.796 243.329H29.668V247.476H31.54V243.641H33.412V247.476H37V249.504H27.796V243.329ZM27.796 234.182L33.698 232.713V232.687L27.796 230.763V228.878L33.854 226.967V226.941L27.796 225.394V223.34L37 226.031V227.838L30.63 229.866V229.892L37 231.92V233.662L27.796 236.392V234.182ZM27.796 219.128H37V221.156H27.796V219.128ZM27.796 213.227L34.192 209.314V209.288H27.796V207.26H37V209.912L30.448 213.929V213.955H37V215.983H27.796V213.227ZM27.562 200.962C27.562 199.818 27.8827 198.878 28.524 198.141L30.045 199.532C29.837 199.697 29.6853 199.922 29.59 200.208C29.486 200.486 29.434 200.75 29.434 201.001C29.434 201.383 29.5207 201.708 29.694 201.976C29.8673 202.236 30.097 202.366 30.383 202.366C30.6343 202.366 30.8467 202.267 31.02 202.067C31.1847 201.859 31.3277 201.539 31.449 201.105C31.7437 200.109 31.9993 199.45 32.216 199.129C32.4327 198.8 32.7057 198.553 33.035 198.388C33.3557 198.215 33.7457 198.128 34.205 198.128C35.1323 198.128 35.869 198.453 36.415 199.103C36.961 199.745 37.234 200.603 37.234 201.677C37.234 202.917 36.8483 203.948 36.077 204.771L34.491 203.328C35.0717 202.878 35.362 202.288 35.362 201.56C35.362 201.17 35.2753 200.841 35.102 200.572C34.9287 200.295 34.6947 200.156 34.4 200.156C33.9147 200.156 33.542 200.572 33.282 201.404C32.9613 202.462 32.6927 203.151 32.476 203.471C32.2507 203.792 31.9863 204.039 31.683 204.212C31.3797 204.386 31.0027 204.472 30.552 204.472C29.668 204.472 28.9487 204.147 28.394 203.497C27.8393 202.839 27.562 201.994 27.562 200.962Z" fill="#666666"/>
<path d="M88.8008 363.554C89.7492 363.554 90.4793 363.911 90.9911 364.626C91.5104 365.341 91.7701 366.361 91.7701 367.686C91.7701 369.003 91.5142 370.023 91.0024 370.746C90.4906 371.461 89.7567 371.818 88.8008 371.818C87.8449 371.818 87.1111 371.457 86.5993 370.734C86.0875 370.012 85.8316 368.996 85.8316 367.686C85.8316 366.354 86.0912 365.334 86.6106 364.626C87.1299 363.911 87.86 363.554 88.8008 363.554ZM87.5251 367.686C87.5251 369.402 87.9503 370.26 88.8008 370.26C89.2223 370.26 89.5384 370.057 89.7492 369.65C89.9675 369.244 90.0766 368.589 90.0766 367.686C90.0766 365.97 89.6476 365.112 88.7895 365.112C87.9465 365.112 87.5251 365.97 87.5251 367.686ZM93.8113 369.673C94.1048 369.673 94.3494 369.778 94.5451 369.989C94.7484 370.192 94.85 370.433 94.85 370.712C94.85 371.005 94.7484 371.254 94.5451 371.457C94.3494 371.653 94.1048 371.75 93.8113 371.75C93.5328 371.75 93.2882 371.653 93.0774 371.457C92.8742 371.254 92.7726 371.005 92.7726 370.712C92.7726 370.418 92.8705 370.174 93.0662 369.978C93.2694 369.775 93.5178 369.673 93.8113 369.673ZM98.8229 363.554C99.7713 363.554 100.501 363.911 101.013 364.626C101.533 365.341 101.792 366.361 101.792 367.686C101.792 369.003 101.536 370.023 101.024 370.746C100.513 371.461 99.7788 371.818 98.8229 371.818C97.867 371.818 97.1332 371.457 96.6214 370.734C96.1095 370.012 95.8536 368.996 95.8536 367.686C95.8536 366.354 96.1133 365.334 96.6326 364.626C97.152 363.911 97.8821 363.554 98.8229 363.554ZM97.5471 367.686C97.5471 369.402 97.9724 370.26 98.8229 370.26C99.2444 370.26 99.5605 370.057 99.7713 369.65C99.9895 369.244 100.099 368.589 100.099 367.686C100.099 365.97 99.6697 365.112 98.8116 365.112C97.9686 365.112 97.5471 365.97 97.5471 367.686ZM105.504 363.554C106.453 363.554 107.183 363.911 107.695 364.626C108.214 365.341 108.474 366.361 108.474 367.686C108.474 369.003 108.218 370.023 107.706 370.746C107.194 371.461 106.46 371.818 105.504 371.818C104.548 371.818 103.815 371.457 103.303 370.734C102.791 370.012 102.535 368.996 102.535 367.686C102.535 366.354 102.795 365.334 103.314 364.626C103.833 363.911 104.563 363.554 105.504 363.554ZM104.229 367.686C104.229 369.402 104.654 370.26 105.504 370.26C105.926 370.26 106.242 370.057 106.453 369.65C106.671 369.244 106.78 368.589 106.78 367.686C106.78 365.97 106.351 365.112 105.493 365.112C104.65 365.112 104.229 365.97 104.229 367.686ZM115.787 363.328L116.736 363.859L112.073 372.044L111.215 371.558L115.787 363.328ZM113.349 365.789C113.349 366.399 113.13 366.926 112.694 367.37C112.265 367.806 111.742 368.025 111.124 368.025C110.5 368.025 109.973 367.81 109.544 367.381C109.115 366.945 108.9 366.414 108.9 365.789C108.9 365.18 109.115 364.656 109.544 364.22C109.98 363.776 110.507 363.554 111.124 363.554C111.727 363.554 112.246 363.768 112.682 364.197C113.127 364.626 113.349 365.157 113.349 365.789ZM111.124 366.873C111.41 366.873 111.659 366.771 111.87 366.568C112.088 366.365 112.197 366.105 112.197 365.789C112.197 365.473 112.088 365.213 111.87 365.01C111.659 364.807 111.41 364.705 111.124 364.705C110.808 364.705 110.549 364.815 110.345 365.033C110.15 365.251 110.052 365.503 110.052 365.789C110.052 366.068 110.15 366.32 110.345 366.546C110.549 366.764 110.808 366.873 111.124 366.873ZM119.027 369.571C119.027 370.189 118.809 370.719 118.373 371.163C117.944 371.6 117.42 371.818 116.803 371.818C116.179 371.818 115.652 371.6 115.223 371.163C114.794 370.719 114.579 370.189 114.579 369.571C114.579 368.962 114.794 368.439 115.223 368.002C115.659 367.558 116.186 367.336 116.803 367.336C117.428 367.336 117.955 367.558 118.384 368.002C118.813 368.439 119.027 368.962 119.027 369.571ZM116.803 370.667C117.104 370.667 117.356 370.565 117.56 370.362C117.77 370.151 117.876 369.888 117.876 369.571C117.876 369.255 117.767 368.996 117.548 368.792C117.338 368.589 117.089 368.488 116.803 368.488C116.487 368.488 116.227 368.597 116.024 368.815C115.829 369.033 115.731 369.285 115.731 369.571C115.731 369.872 115.832 370.132 116.036 370.35C116.246 370.561 116.502 370.667 116.803 370.667Z" fill="#829BC4"/>
<path d="M81.9363 308.871C82.7191 308.871 83.3438 309.089 83.8104 309.526C84.2846 309.955 84.5217 310.538 84.5217 311.276C84.5217 311.743 84.4389 312.134 84.2733 312.45C84.1153 312.759 83.7916 313.131 83.3024 313.568L81.0444 315.51H84.5895V317H79.0122V315.205L82.1169 312.416C82.3954 312.16 82.5836 311.953 82.6814 311.795C82.7793 311.637 82.8282 311.472 82.8282 311.299C82.8282 311.035 82.7304 310.824 82.5347 310.666C82.339 310.508 82.1094 310.429 81.846 310.429C81.56 310.429 81.3229 310.52 81.1347 310.7C80.9465 310.881 80.8374 311.129 80.8073 311.445L79.1138 311.321C79.1665 310.523 79.4412 309.917 79.938 309.503C80.4423 309.082 81.1084 308.871 81.9363 308.871ZM90.9773 309.007V310.497H87.8048L87.7709 311.728C87.9441 311.667 88.1774 311.637 88.4709 311.637C89.329 311.637 90.0064 311.882 90.5031 312.371C90.9999 312.86 91.2483 313.496 91.2483 314.279C91.2483 315.145 90.9735 315.837 90.4241 316.356C89.8746 316.876 89.1333 317.135 88.2 317.135C87.5 317.135 86.9167 316.966 86.45 316.627C85.9909 316.281 85.6748 315.769 85.5017 315.092L87.2742 314.686C87.3193 314.972 87.436 315.205 87.6242 315.386C87.8199 315.559 88.0682 315.645 88.3693 315.645C88.708 315.645 88.9903 315.54 89.2161 315.329C89.4419 315.111 89.5548 314.817 89.5548 314.448C89.5548 314.019 89.3967 313.692 89.0806 313.466C88.7645 313.24 88.3091 313.128 87.7145 313.128C87.1726 313.128 86.6194 313.225 86.0549 313.421L86.1452 309.007H90.9773ZM93.4927 314.99C93.7862 314.99 94.0308 315.096 94.2265 315.306C94.4297 315.51 94.5314 315.751 94.5314 316.029C94.5314 316.323 94.4297 316.571 94.2265 316.774C94.0308 316.97 93.7862 317.068 93.4927 317.068C93.2142 317.068 92.9696 316.97 92.7588 316.774C92.5556 316.571 92.454 316.323 92.454 316.029C92.454 315.736 92.5518 315.491 92.7475 315.295C92.9508 315.092 93.1991 314.99 93.4927 314.99ZM98.5043 308.871C99.4527 308.871 100.183 309.229 100.695 309.944C101.214 310.659 101.474 311.679 101.474 313.003C101.474 314.321 101.218 315.34 100.706 316.063C100.194 316.778 99.4602 317.135 98.5043 317.135C97.5484 317.135 96.8146 316.774 96.3027 316.052C95.7909 315.329 95.535 314.313 95.535 313.003C95.535 311.671 95.7947 310.651 96.314 309.944C96.8334 309.229 97.5635 308.871 98.5043 308.871ZM97.2285 313.003C97.2285 314.719 97.6538 315.577 98.5043 315.577C98.9258 315.577 99.2419 315.374 99.4527 314.968C99.6709 314.561 99.7801 313.907 99.7801 313.003C99.7801 311.287 99.351 310.429 98.493 310.429C97.65 310.429 97.2285 311.287 97.2285 313.003ZM105.186 308.871C106.134 308.871 106.864 309.229 107.376 309.944C107.895 310.659 108.155 311.679 108.155 313.003C108.155 314.321 107.899 315.34 107.387 316.063C106.875 316.778 106.142 317.135 105.186 317.135C104.23 317.135 103.496 316.774 102.984 316.052C102.472 315.329 102.216 314.313 102.216 313.003C102.216 311.671 102.476 310.651 102.995 309.944C103.515 309.229 104.245 308.871 105.186 308.871ZM103.91 313.003C103.91 314.719 104.335 315.577 105.186 315.577C105.607 315.577 105.923 315.374 106.134 314.968C106.352 314.561 106.461 313.907 106.461 313.003C106.461 311.287 106.032 310.429 105.174 310.429C104.331 310.429 103.91 311.287 103.91 313.003ZM115.469 308.645L116.417 309.176L111.754 317.361L110.896 316.876L115.469 308.645ZM113.03 311.107C113.03 311.716 112.812 312.243 112.375 312.687C111.946 313.124 111.423 313.342 110.806 313.342C110.181 313.342 109.654 313.128 109.225 312.699C108.796 312.262 108.582 311.731 108.582 311.107C108.582 310.497 108.796 309.974 109.225 309.537C109.662 309.093 110.189 308.871 110.806 308.871C111.408 308.871 111.927 309.086 112.364 309.515C112.808 309.944 113.03 310.474 113.03 311.107ZM110.806 312.19C111.092 312.19 111.34 312.089 111.551 311.886C111.769 311.682 111.878 311.423 111.878 311.107C111.878 310.79 111.769 310.531 111.551 310.328C111.34 310.124 111.092 310.023 110.806 310.023C110.49 310.023 110.23 310.132 110.027 310.35C109.831 310.568 109.733 310.821 109.733 311.107C109.733 311.385 109.831 311.637 110.027 311.863C110.23 312.081 110.49 312.19 110.806 312.19ZM118.709 314.889C118.709 315.506 118.491 316.037 118.054 316.481C117.625 316.917 117.102 317.135 116.485 317.135C115.86 317.135 115.333 316.917 114.904 316.481C114.475 316.037 114.261 315.506 114.261 314.889C114.261 314.279 114.475 313.756 114.904 313.319C115.341 312.875 115.867 312.653 116.485 312.653C117.109 312.653 117.636 312.875 118.065 313.319C118.494 313.756 118.709 314.279 118.709 314.889ZM116.485 315.984C116.786 315.984 117.038 315.882 117.241 315.679C117.452 315.468 117.557 315.205 117.557 314.889C117.557 314.573 117.448 314.313 117.23 314.11C117.019 313.907 116.771 313.805 116.485 313.805C116.169 313.805 115.909 313.914 115.706 314.132C115.51 314.351 115.412 314.603 115.412 314.889C115.412 315.19 115.514 315.45 115.717 315.668C115.928 315.879 116.184 315.984 116.485 315.984Z" fill="#829BC4"/>
<path d="M84.2959 254.007V255.497H81.1234L81.0896 256.728C81.2627 256.667 81.496 256.637 81.7895 256.637C82.6476 256.637 83.325 256.882 83.8217 257.371C84.3185 257.86 84.5669 258.496 84.5669 259.279C84.5669 260.145 84.2922 260.837 83.7427 261.356C83.1933 261.876 82.4519 262.135 81.5186 262.135C80.8186 262.135 80.2353 261.966 79.7686 261.627C79.3095 261.281 78.9934 260.769 78.8203 260.092L80.5928 259.686C80.638 259.972 80.7546 260.205 80.9428 260.386C81.1385 260.559 81.3869 260.645 81.6879 260.645C82.0266 260.645 82.3089 260.54 82.5347 260.329C82.7605 260.111 82.8734 259.817 82.8734 259.448C82.8734 259.019 82.7153 258.692 82.3992 258.466C82.0831 258.24 81.6277 258.128 81.0331 258.128C80.4912 258.128 79.938 258.225 79.3735 258.421L79.4638 254.007H84.2959ZM88.4822 253.871C89.4306 253.871 90.1607 254.229 90.6725 254.944C91.1918 255.659 91.4515 256.679 91.4515 258.003C91.4515 259.321 91.1956 260.34 90.6838 261.063C90.1719 261.778 89.4381 262.135 88.4822 262.135C87.5263 262.135 86.7925 261.774 86.2807 261.052C85.7688 260.329 85.5129 259.313 85.5129 258.003C85.5129 256.671 85.7726 255.651 86.292 254.944C86.8113 254.229 87.5414 253.871 88.4822 253.871ZM87.2064 258.003C87.2064 259.719 87.6317 260.577 88.4822 260.577C88.9037 260.577 89.2198 260.374 89.4306 259.968C89.6488 259.561 89.758 258.907 89.758 258.003C89.758 256.287 89.329 255.429 88.4709 255.429C87.6279 255.429 87.2064 256.287 87.2064 258.003ZM93.4927 259.99C93.7862 259.99 94.0308 260.096 94.2265 260.306C94.4297 260.51 94.5314 260.751 94.5314 261.029C94.5314 261.323 94.4297 261.571 94.2265 261.774C94.0308 261.97 93.7862 262.068 93.4927 262.068C93.2142 262.068 92.9696 261.97 92.7588 261.774C92.5556 261.571 92.454 261.323 92.454 261.029C92.454 260.736 92.5518 260.491 92.7475 260.295C92.9508 260.092 93.1991 259.99 93.4927 259.99ZM98.5043 253.871C99.4527 253.871 100.183 254.229 100.695 254.944C101.214 255.659 101.474 256.679 101.474 258.003C101.474 259.321 101.218 260.34 100.706 261.063C100.194 261.778 99.4602 262.135 98.5043 262.135C97.5484 262.135 96.8146 261.774 96.3027 261.052C95.7909 260.329 95.535 259.313 95.535 258.003C95.535 256.671 95.7947 255.651 96.314 254.944C96.8334 254.229 97.5635 253.871 98.5043 253.871ZM97.2285 258.003C97.2285 259.719 97.6538 260.577 98.5043 260.577C98.9258 260.577 99.2419 260.374 99.4527 259.968C99.6709 259.561 99.7801 258.907 99.7801 258.003C99.7801 256.287 99.351 255.429 98.493 255.429C97.65 255.429 97.2285 256.287 97.2285 258.003ZM105.186 253.871C106.134 253.871 106.864 254.229 107.376 254.944C107.895 255.659 108.155 256.679 108.155 258.003C108.155 259.321 107.899 260.34 107.387 261.063C106.875 261.778 106.142 262.135 105.186 262.135C104.23 262.135 103.496 261.774 102.984 261.052C102.472 260.329 102.216 259.313 102.216 258.003C102.216 256.671 102.476 255.651 102.995 254.944C103.515 254.229 104.245 253.871 105.186 253.871ZM103.91 258.003C103.91 259.719 104.335 260.577 105.186 260.577C105.607 260.577 105.923 260.374 106.134 259.968C106.352 259.561 106.461 258.907 106.461 258.003C106.461 256.287 106.032 255.429 105.174 255.429C104.331 255.429 103.91 256.287 103.91 258.003ZM115.469 253.645L116.417 254.176L111.754 262.361L110.896 261.876L115.469 253.645ZM113.03 256.107C113.03 256.716 112.812 257.243 112.375 257.687C111.946 258.124 111.423 258.342 110.806 258.342C110.181 258.342 109.654 258.128 109.225 257.699C108.796 257.262 108.582 256.731 108.582 256.107C108.582 255.497 108.796 254.974 109.225 254.537C109.662 254.093 110.189 253.871 110.806 253.871C111.408 253.871 111.927 254.086 112.364 254.515C112.808 254.944 113.03 255.474 113.03 256.107ZM110.806 257.19C111.092 257.19 111.34 257.089 111.551 256.886C111.769 256.682 111.878 256.423 111.878 256.107C111.878 255.79 111.769 255.531 111.551 255.328C111.34 255.124 111.092 255.023 110.806 255.023C110.49 255.023 110.23 255.132 110.027 255.35C109.831 255.568 109.733 255.821 109.733 256.107C109.733 256.385 109.831 256.637 110.027 256.863C110.23 257.081 110.49 257.19 110.806 257.19ZM118.709 259.889C118.709 260.506 118.491 261.037 118.054 261.481C117.625 261.917 117.102 262.135 116.485 262.135C115.86 262.135 115.333 261.917 114.904 261.481C114.475 261.037 114.261 260.506 114.261 259.889C114.261 259.279 114.475 258.756 114.904 258.319C115.341 257.875 115.867 257.653 116.485 257.653C117.109 257.653 117.636 257.875 118.065 258.319C118.494 258.756 118.709 259.279 118.709 259.889ZM116.485 260.984C116.786 260.984 117.038 260.882 117.241 260.679C117.452 260.468 117.557 260.205 117.557 259.889C117.557 259.573 117.448 259.313 117.23 259.11C117.019 258.907 116.771 258.805 116.485 258.805C116.169 258.805 115.909 258.914 115.706 259.132C115.51 259.351 115.412 259.603 115.412 259.889C115.412 260.19 115.514 260.45 115.717 260.668C115.928 260.879 116.184 260.984 116.485 260.984Z" fill="#829BC4"/>
<path d="M84.266 198.007V199.497L81.0709 206H79.0951L82.3692 199.565H78.4177V198.007H84.266ZM90.5183 198.007V199.497H87.3458L87.312 200.728C87.4851 200.667 87.7184 200.637 88.0119 200.637C88.87 200.637 89.5474 200.882 90.0441 201.371C90.5409 201.86 90.7893 202.496 90.7893 203.279C90.7893 204.145 90.5146 204.837 89.9651 205.356C89.4157 205.876 88.6743 206.135 87.741 206.135C87.041 206.135 86.4577 205.966 85.991 205.627C85.5319 205.281 85.2158 204.769 85.0427 204.092L86.8152 203.686C86.8604 203.972 86.977 204.205 87.1652 204.386C87.3609 204.559 87.6093 204.645 87.9103 204.645C88.249 204.645 88.5313 204.54 88.7571 204.329C88.9829 204.111 89.0958 203.817 89.0958 203.448C89.0958 203.019 88.9377 202.692 88.6216 202.466C88.3055 202.24 87.8501 202.128 87.2555 202.128C86.7136 202.128 86.1604 202.225 85.5959 202.421L85.6862 198.007H90.5183ZM93.0337 203.99C93.3272 203.99 93.5718 204.096 93.7675 204.306C93.9708 204.51 94.0724 204.751 94.0724 205.029C94.0724 205.323 93.9708 205.571 93.7675 205.774C93.5718 205.97 93.3272 206.068 93.0337 206.068C92.7552 206.068 92.5106 205.97 92.2998 205.774C92.0966 205.571 91.995 205.323 91.995 205.029C91.995 204.736 92.0929 204.491 92.2886 204.295C92.4918 204.092 92.7402 203.99 93.0337 203.99ZM98.0453 197.871C98.9937 197.871 99.7238 198.229 100.236 198.944C100.755 199.659 101.015 200.679 101.015 202.003C101.015 203.321 100.759 204.34 100.247 205.063C99.735 205.778 99.0012 206.135 98.0453 206.135C97.0894 206.135 96.3556 205.774 95.8438 205.052C95.3319 204.329 95.076 203.313 95.076 202.003C95.076 200.671 95.3357 199.651 95.855 198.944C96.3744 198.229 97.1045 197.871 98.0453 197.871ZM96.7695 202.003C96.7695 203.719 97.1948 204.577 98.0453 204.577C98.4668 204.577 98.7829 204.374 98.9937 203.968C99.2119 203.561 99.3211 202.907 99.3211 202.003C99.3211 200.287 98.8921 199.429 98.034 199.429C97.191 199.429 96.7695 200.287 96.7695 202.003ZM104.727 197.871C105.675 197.871 106.405 198.229 106.917 198.944C107.436 199.659 107.696 200.679 107.696 202.003C107.696 203.321 107.44 204.34 106.928 205.063C106.416 205.778 105.683 206.135 104.727 206.135C103.771 206.135 103.037 205.774 102.525 205.052C102.013 204.329 101.757 203.313 101.757 202.003C101.757 200.671 102.017 199.651 102.536 198.944C103.056 198.229 103.786 197.871 104.727 197.871ZM103.451 202.003C103.451 203.719 103.876 204.577 104.727 204.577C105.148 204.577 105.464 204.374 105.675 203.968C105.893 203.561 106.002 202.907 106.002 202.003C106.002 200.287 105.573 199.429 104.715 199.429C103.872 199.429 103.451 200.287 103.451 202.003ZM115.01 197.645L115.958 198.176L111.295 206.361L110.437 205.876L115.01 197.645ZM112.571 200.107C112.571 200.716 112.353 201.243 111.916 201.687C111.487 202.124 110.964 202.342 110.347 202.342C109.722 202.342 109.195 202.128 108.766 201.699C108.337 201.262 108.123 200.731 108.123 200.107C108.123 199.497 108.337 198.974 108.766 198.537C109.203 198.093 109.73 197.871 110.347 197.871C110.949 197.871 111.468 198.086 111.905 198.515C112.349 198.944 112.571 199.474 112.571 200.107ZM110.347 201.19C110.633 201.19 110.881 201.089 111.092 200.886C111.31 200.682 111.419 200.423 111.419 200.107C111.419 199.79 111.31 199.531 111.092 199.328C110.881 199.124 110.633 199.023 110.347 199.023C110.031 199.023 109.771 199.132 109.568 199.35C109.372 199.568 109.274 199.821 109.274 200.107C109.274 200.385 109.372 200.637 109.568 200.863C109.771 201.081 110.031 201.19 110.347 201.19ZM118.25 203.889C118.25 204.506 118.032 205.037 117.595 205.481C117.166 205.917 116.643 206.135 116.026 206.135C115.401 206.135 114.874 205.917 114.445 205.481C114.016 205.037 113.802 204.506 113.802 203.889C113.802 203.279 114.016 202.756 114.445 202.319C114.882 201.875 115.409 201.653 116.026 201.653C116.65 201.653 117.177 201.875 117.606 202.319C118.035 202.756 118.25 203.279 118.25 203.889ZM116.026 204.984C116.327 204.984 116.579 204.882 116.782 204.679C116.993 204.468 117.098 204.205 117.098 203.889C117.098 203.573 116.989 203.313 116.771 203.11C116.56 202.907 116.312 202.805 116.026 202.805C115.71 202.805 115.45 202.914 115.247 203.132C115.051 203.351 114.953 203.603 114.953 203.889C114.953 204.19 115.055 204.45 115.258 204.668C115.469 204.879 115.725 204.984 116.026 204.984Z" fill="#829BC4"/>
<path d="M73.8773 142.007V150H72.2515V143.903L70.6483 145.315L69.6887 144.208L72.2967 142.007H73.8773ZM79.0232 141.871C79.9716 141.871 80.7017 142.229 81.2135 142.944C81.7328 143.659 81.9925 144.679 81.9925 146.003C81.9925 147.321 81.7366 148.34 81.2248 149.063C80.713 149.778 79.9791 150.135 79.0232 150.135C78.0673 150.135 77.3335 149.774 76.8217 149.052C76.3099 148.329 76.054 147.313 76.054 146.003C76.054 144.671 76.3136 143.651 76.833 142.944C77.3523 142.229 78.0824 141.871 79.0232 141.871ZM77.7475 146.003C77.7475 147.719 78.1727 148.577 79.0232 148.577C79.4447 148.577 79.7608 148.374 79.9716 147.968C80.1899 147.561 80.299 146.907 80.299 146.003C80.299 144.287 79.87 143.429 79.0119 143.429C78.1689 143.429 77.7475 144.287 77.7475 146.003ZM85.7046 141.871C86.653 141.871 87.3831 142.229 87.8949 142.944C88.4142 143.659 88.6739 144.679 88.6739 146.003C88.6739 147.321 88.418 148.34 87.9062 149.063C87.3943 149.778 86.6605 150.135 85.7046 150.135C84.7487 150.135 84.0149 149.774 83.5031 149.052C82.9912 148.329 82.7353 147.313 82.7353 146.003C82.7353 144.671 82.995 143.651 83.5144 142.944C84.0337 142.229 84.7638 141.871 85.7046 141.871ZM84.4288 146.003C84.4288 147.719 84.8541 148.577 85.7046 148.577C86.1261 148.577 86.4422 148.374 86.653 147.968C86.8712 147.561 86.9804 146.907 86.9804 146.003C86.9804 144.287 86.5514 143.429 85.6933 143.429C84.8503 143.429 84.4288 144.287 84.4288 146.003ZM90.7151 147.99C91.0086 147.99 91.2532 148.096 91.4489 148.306C91.6521 148.51 91.7538 148.751 91.7538 149.029C91.7538 149.323 91.6521 149.571 91.4489 149.774C91.2532 149.97 91.0086 150.068 90.7151 150.068C90.4366 150.068 90.192 149.97 89.9812 149.774C89.778 149.571 89.6764 149.323 89.6764 149.029C89.6764 148.736 89.7742 148.491 89.9699 148.295C90.1732 148.092 90.4215 147.99 90.7151 147.99ZM95.7267 141.871C96.6751 141.871 97.4051 142.229 97.917 142.944C98.4363 143.659 98.696 144.679 98.696 146.003C98.696 147.321 98.4401 148.34 97.9282 149.063C97.4164 149.778 96.6826 150.135 95.7267 150.135C94.7708 150.135 94.037 149.774 93.5251 149.052C93.0133 148.329 92.7574 147.313 92.7574 146.003C92.7574 144.671 93.0171 143.651 93.5364 142.944C94.0558 142.229 94.7859 141.871 95.7267 141.871ZM94.4509 146.003C94.4509 147.719 94.8762 148.577 95.7267 148.577C96.1482 148.577 96.4643 148.374 96.6751 147.968C96.8933 147.561 97.0025 146.907 97.0025 146.003C97.0025 144.287 96.5734 143.429 95.7154 143.429C94.8724 143.429 94.4509 144.287 94.4509 146.003ZM102.408 141.871C103.356 141.871 104.087 142.229 104.598 142.944C105.118 143.659 105.377 144.679 105.377 146.003C105.377 147.321 105.121 148.34 104.61 149.063C104.098 149.778 103.364 150.135 102.408 150.135C101.452 150.135 100.718 149.774 100.207 149.052C99.6947 148.329 99.4388 147.313 99.4388 146.003C99.4388 144.671 99.6985 143.651 100.218 142.944C100.737 142.229 101.467 141.871 102.408 141.871ZM101.132 146.003C101.132 147.719 101.558 148.577 102.408 148.577C102.83 148.577 103.146 148.374 103.356 147.968C103.575 147.561 103.684 146.907 103.684 146.003C103.684 144.287 103.255 143.429 102.397 143.429C101.554 143.429 101.132 144.287 101.132 146.003ZM112.691 141.645L113.639 142.176L108.977 150.361L108.119 149.876L112.691 141.645ZM110.252 144.107C110.252 144.716 110.034 145.243 109.598 145.687C109.168 146.124 108.645 146.342 108.028 146.342C107.403 146.342 106.877 146.128 106.448 145.699C106.019 145.262 105.804 144.731 105.804 144.107C105.804 143.497 106.019 142.974 106.448 142.537C106.884 142.093 107.411 141.871 108.028 141.871C108.63 141.871 109.15 142.086 109.586 142.515C110.03 142.944 110.252 143.474 110.252 144.107ZM108.028 145.19C108.314 145.19 108.563 145.089 108.773 144.886C108.992 144.682 109.101 144.423 109.101 144.107C109.101 143.79 108.992 143.531 108.773 143.328C108.563 143.124 108.314 143.023 108.028 143.023C107.712 143.023 107.452 143.132 107.249 143.35C107.054 143.568 106.956 143.821 106.956 144.107C106.956 144.385 107.054 144.637 107.249 144.863C107.452 145.081 107.712 145.19 108.028 145.19ZM115.931 147.889C115.931 148.506 115.713 149.037 115.276 149.481C114.847 149.917 114.324 150.135 113.707 150.135C113.082 150.135 112.555 149.917 112.126 149.481C111.697 149.037 111.483 148.506 111.483 147.889C111.483 147.279 111.697 146.756 112.126 146.319C112.563 145.875 113.09 145.653 113.707 145.653C114.332 145.653 114.859 145.875 115.288 146.319C115.717 146.756 115.931 147.279 115.931 147.889ZM113.707 148.984C114.008 148.984 114.26 148.882 114.464 148.679C114.674 148.468 114.78 148.205 114.78 147.889C114.78 147.573 114.67 147.313 114.452 147.11C114.241 146.907 113.993 146.805 113.707 146.805C113.391 146.805 113.131 146.914 112.928 147.132C112.732 147.351 112.635 147.603 112.635 147.889C112.635 148.19 112.736 148.45 112.939 148.668C113.15 148.879 113.406 148.984 113.707 148.984Z" fill="#829BC4"/>
<path d="M322.696 386.043C323.528 386.043 324.192 386.275 324.688 386.739C325.192 387.195 325.444 387.815 325.444 388.599C325.444 389.095 325.356 389.511 325.18 389.847C325.012 390.175 324.668 390.571 324.148 391.035L321.748 393.099H325.516V394.683H319.588V392.775L322.888 389.811C323.184 389.539 323.384 389.319 323.488 389.151C323.592 388.983 323.644 388.807 323.644 388.623C323.644 388.343 323.54 388.119 323.332 387.951C323.124 387.783 322.88 387.699 322.6 387.699C322.296 387.699 322.044 387.795 321.844 387.987C321.644 388.179 321.528 388.443 321.496 388.779L319.696 388.647C319.752 387.799 320.044 387.155 320.572 386.715C321.108 386.267 321.816 386.043 322.696 386.043ZM330.854 386.043C331.862 386.043 332.638 386.423 333.182 387.183C333.734 387.943 334.01 389.027 334.01 390.435C334.01 391.835 333.738 392.919 333.194 393.687C332.65 394.447 331.87 394.827 330.854 394.827C329.838 394.827 329.058 394.443 328.514 393.675C327.97 392.907 327.698 391.827 327.698 390.435C327.698 389.019 327.974 387.935 328.526 387.183C329.078 386.423 329.854 386.043 330.854 386.043ZM329.498 390.435C329.498 392.259 329.95 393.171 330.854 393.171C331.302 393.171 331.638 392.955 331.862 392.523C332.094 392.091 332.21 391.395 332.21 390.435C332.21 388.611 331.754 387.699 330.842 387.699C329.946 387.699 329.498 388.611 329.498 390.435ZM339.299 386.043C340.131 386.043 340.795 386.275 341.291 386.739C341.795 387.195 342.047 387.815 342.047 388.599C342.047 389.095 341.959 389.511 341.783 389.847C341.615 390.175 341.271 390.571 340.751 391.035L338.351 393.099H342.119V394.683H336.191V392.775L339.491 389.811C339.787 389.539 339.987 389.319 340.091 389.151C340.195 388.983 340.247 388.807 340.247 388.623C340.247 388.343 340.143 388.119 339.935 387.951C339.727 387.783 339.483 387.699 339.203 387.699C338.899 387.699 338.647 387.795 338.447 387.987C338.247 388.179 338.131 388.443 338.099 388.779L336.299 388.647C336.355 387.799 336.647 387.155 337.175 386.715C337.711 386.267 338.419 386.043 339.299 386.043ZM349.089 386.187V394.683H347.361V388.203L345.657 389.703L344.637 388.527L347.409 386.187H349.089Z" fill="#829BC4"/>
<path d="M604.123 386.043C604.955 386.043 605.619 386.275 606.115 386.739C606.619 387.195 606.871 387.815 606.871 388.599C606.871 389.095 606.783 389.511 606.607 389.847C606.439 390.175 606.095 390.571 605.575 391.035L603.175 393.099H606.943V394.683H601.015V392.775L604.315 389.811C604.611 389.539 604.811 389.319 604.915 389.151C605.019 388.983 605.071 388.807 605.071 388.623C605.071 388.343 604.967 388.119 604.759 387.951C604.551 387.783 604.307 387.699 604.027 387.699C603.723 387.699 603.471 387.795 603.271 387.987C603.071 388.179 602.955 388.443 602.923 388.779L601.123 388.647C601.179 387.799 601.471 387.155 601.999 386.715C602.535 386.267 603.243 386.043 604.123 386.043ZM612.28 386.043C613.288 386.043 614.064 386.423 614.608 387.183C615.16 387.943 615.436 389.027 615.436 390.435C615.436 391.835 615.164 392.919 614.62 393.687C614.076 394.447 613.296 394.827 612.28 394.827C611.264 394.827 610.484 394.443 609.94 393.675C609.396 392.907 609.124 391.827 609.124 390.435C609.124 389.019 609.4 387.935 609.952 387.183C610.504 386.423 611.28 386.043 612.28 386.043ZM610.924 390.435C610.924 392.259 611.376 393.171 612.28 393.171C612.728 393.171 613.064 392.955 613.288 392.523C613.52 392.091 613.636 391.395 613.636 390.435C613.636 388.611 613.18 387.699 612.268 387.699C611.372 387.699 610.924 388.611 610.924 390.435ZM620.726 386.043C621.558 386.043 622.222 386.275 622.718 386.739C623.222 387.195 623.474 387.815 623.474 388.599C623.474 389.095 623.386 389.511 623.21 389.847C623.042 390.175 622.698 390.571 622.178 391.035L619.778 393.099H623.546V394.683H617.618V392.775L620.918 389.811C621.214 389.539 621.414 389.319 621.518 389.151C621.622 388.983 621.674 388.807 621.674 388.623C621.674 388.343 621.57 388.119 621.362 387.951C621.154 387.783 620.91 387.699 620.63 387.699C620.326 387.699 620.074 387.795 619.874 387.987C619.674 388.179 619.558 388.443 619.526 388.779L617.726 388.647C617.782 387.799 618.074 387.155 618.602 386.715C619.138 386.267 619.846 386.043 620.726 386.043ZM629.027 386.043C629.859 386.043 630.523 386.275 631.019 386.739C631.523 387.195 631.775 387.815 631.775 388.599C631.775 389.095 631.687 389.511 631.511 389.847C631.343 390.175 630.999 390.571 630.479 391.035L628.079 393.099H631.847V394.683H625.919V392.775L629.219 389.811C629.515 389.539 629.715 389.319 629.819 389.151C629.923 388.983 629.975 388.807 629.975 388.623C629.975 388.343 629.871 388.119 629.663 387.951C629.455 387.783 629.211 387.699 628.931 387.699C628.627 387.699 628.375 387.795 628.175 387.987C627.975 388.179 627.859 388.443 627.827 388.779L626.027 388.647C626.083 387.799 626.375 387.155 626.903 386.715C627.439 386.267 628.147 386.043 629.027 386.043Z" fill="#829BC4"/>
<path d="M586.544 161.04C587.792 161.04 588.788 161.388 589.532 162.084C590.288 162.768 590.666 163.698 590.666 164.874C590.666 165.618 590.534 166.242 590.27 166.746C590.018 167.238 589.502 167.832 588.722 168.528L585.122 171.624H590.774V174H581.882V171.138L586.832 166.692C587.276 166.284 587.576 165.954 587.732 165.702C587.888 165.45 587.966 165.186 587.966 164.91C587.966 164.49 587.81 164.154 587.498 163.902C587.186 163.65 586.82 163.524 586.4 163.524C585.944 163.524 585.566 163.668 585.266 163.956C584.966 164.244 584.792 164.64 584.744 165.144L582.044 164.946C582.128 163.674 582.566 162.708 583.358 162.048C584.162 161.376 585.224 161.04 586.544 161.04ZM596.98 161.04C598.312 161.04 599.356 161.364 600.112 162.012C600.868 162.66 601.246 163.506 601.246 164.55C601.246 165.234 601.06 165.828 600.688 166.332C600.316 166.824 599.782 167.172 599.086 167.376V167.412C600.67 167.856 601.462 168.888 601.462 170.508C601.462 171.612 601.048 172.506 600.22 173.19C599.404 173.874 598.324 174.216 596.98 174.216C595.648 174.216 594.568 173.886 593.74 173.226C592.912 172.554 592.498 171.648 592.498 170.508C592.498 169.704 592.702 169.038 593.11 168.51C593.518 167.982 594.106 167.616 594.874 167.412V167.376C594.19 167.172 593.656 166.824 593.272 166.332C592.9 165.84 592.714 165.246 592.714 164.55C592.714 163.494 593.092 162.648 593.848 162.012C594.616 161.364 595.66 161.04 596.98 161.04ZM595.414 164.928C595.414 165.324 595.558 165.66 595.846 165.936C596.146 166.212 596.524 166.35 596.98 166.35C597.448 166.35 597.826 166.212 598.114 165.936C598.402 165.66 598.546 165.324 598.546 164.928C598.546 164.52 598.396 164.184 598.096 163.92C597.808 163.656 597.43 163.524 596.962 163.524C596.47 163.524 596.086 163.668 595.81 163.956C595.546 164.232 595.414 164.556 595.414 164.928ZM595.198 170.13C595.198 170.598 595.366 170.982 595.702 171.282C596.05 171.582 596.476 171.732 596.98 171.732C597.484 171.732 597.904 171.588 598.24 171.3C598.588 171.012 598.762 170.622 598.762 170.13C598.762 169.662 598.588 169.278 598.24 168.978C597.904 168.666 597.478 168.51 596.962 168.51C596.458 168.51 596.038 168.66 595.702 168.96C595.366 169.26 595.198 169.65 595.198 170.13ZM604.969 170.796C605.437 170.796 605.827 170.964 606.139 171.3C606.463 171.624 606.625 172.008 606.625 172.452C606.625 172.92 606.463 173.316 606.139 173.64C605.827 173.952 605.437 174.108 604.969 174.108C604.525 174.108 604.135 173.952 603.799 173.64C603.475 173.316 603.313 172.92 603.313 172.452C603.313 171.984 603.469 171.594 603.781 171.282C604.105 170.958 604.501 170.796 604.969 170.796ZM612.959 161.04C614.291 161.04 615.335 161.364 616.091 162.012C616.847 162.66 617.225 163.506 617.225 164.55C617.225 165.234 617.039 165.828 616.667 166.332C616.295 166.824 615.761 167.172 615.065 167.376V167.412C616.649 167.856 617.441 168.888 617.441 170.508C617.441 171.612 617.027 172.506 616.199 173.19C615.383 173.874 614.303 174.216 612.959 174.216C611.627 174.216 610.547 173.886 609.719 173.226C608.891 172.554 608.477 171.648 608.477 170.508C608.477 169.704 608.681 169.038 609.089 168.51C609.497 167.982 610.085 167.616 610.853 167.412V167.376C610.169 167.172 609.635 166.824 609.251 166.332C608.879 165.84 608.693 165.246 608.693 164.55C608.693 163.494 609.071 162.648 609.827 162.012C610.595 161.364 611.639 161.04 612.959 161.04ZM611.393 164.928C611.393 165.324 611.537 165.66 611.825 165.936C612.125 166.212 612.503 166.35 612.959 166.35C613.427 166.35 613.805 166.212 614.093 165.936C614.381 165.66 614.525 165.324 614.525 164.928C614.525 164.52 614.375 164.184 614.075 163.92C613.787 163.656 613.409 163.524 612.941 163.524C612.449 163.524 612.065 163.668 611.789 163.956C611.525 164.232 611.393 164.556 611.393 164.928ZM611.177 170.13C611.177 170.598 611.345 170.982 611.681 171.282C612.029 171.582 612.455 171.732 612.959 171.732C613.463 171.732 613.883 171.588 614.219 171.3C614.567 171.012 614.741 170.622 614.741 170.13C614.741 169.662 614.567 169.278 614.219 168.978C613.883 168.666 613.457 168.51 612.941 168.51C612.437 168.51 612.017 168.66 611.681 168.96C611.345 169.26 611.177 169.65 611.177 170.13ZM628.273 161.256V163.632L623.179 174H620.029L625.249 163.74H618.949V161.256H628.273ZM640.006 160.68L641.518 161.526L634.084 174.576L632.716 173.802L640.006 160.68ZM636.118 164.604C636.118 165.576 635.77 166.416 635.074 167.124C634.39 167.82 633.556 168.168 632.572 168.168C631.576 168.168 630.736 167.826 630.052 167.142C629.368 166.446 629.026 165.6 629.026 164.604C629.026 163.632 629.368 162.798 630.052 162.102C630.748 161.394 631.588 161.04 632.572 161.04C633.532 161.04 634.36 161.382 635.056 162.066C635.764 162.75 636.118 163.596 636.118 164.604ZM632.572 166.332C633.028 166.332 633.424 166.17 633.76 165.846C634.108 165.522 634.282 165.108 634.282 164.604C634.282 164.1 634.108 163.686 633.76 163.362C633.424 163.038 633.028 162.876 632.572 162.876C632.068 162.876 631.654 163.05 631.33 163.398C631.018 163.746 630.862 164.148 630.862 164.604C630.862 165.048 631.018 165.45 631.33 165.81C631.654 166.158 632.068 166.332 632.572 166.332ZM645.172 170.634C645.172 171.618 644.824 172.464 644.128 173.172C643.444 173.868 642.61 174.216 641.626 174.216C640.63 174.216 639.79 173.868 639.106 173.172C638.422 172.464 638.08 171.618 638.08 170.634C638.08 169.662 638.422 168.828 639.106 168.132C639.802 167.424 640.642 167.07 641.626 167.07C642.622 167.07 643.462 167.424 644.146 168.132C644.83 168.828 645.172 169.662 645.172 170.634ZM641.626 172.38C642.106 172.38 642.508 172.218 642.832 171.894C643.168 171.558 643.336 171.138 643.336 170.634C643.336 170.13 643.162 169.716 642.814 169.392C642.478 169.068 642.082 168.906 641.626 168.906C641.122 168.906 640.708 169.08 640.384 169.428C640.072 169.776 639.916 170.178 639.916 170.634C639.916 171.114 640.078 171.528 640.402 171.876C640.738 172.212 641.146 172.38 641.626 172.38Z" fill="white"/>
<path d="M312.776 161.256V174H310.184V164.28L307.628 166.53L306.098 164.766L310.256 161.256H312.776ZM320.98 161.04C322.492 161.04 323.656 161.61 324.472 162.75C325.3 163.89 325.714 165.516 325.714 167.628C325.714 169.728 325.306 171.354 324.49 172.506C323.674 173.646 322.504 174.216 320.98 174.216C319.456 174.216 318.286 173.64 317.47 172.488C316.654 171.336 316.246 169.716 316.246 167.628C316.246 165.504 316.66 163.878 317.488 162.75C318.316 161.61 319.48 161.04 320.98 161.04ZM318.946 167.628C318.946 170.364 319.624 171.732 320.98 171.732C321.652 171.732 322.156 171.408 322.492 170.76C322.84 170.112 323.014 169.068 323.014 167.628C323.014 164.892 322.33 163.524 320.962 163.524C319.618 163.524 318.946 164.892 318.946 167.628ZM331.633 161.04C333.145 161.04 334.309 161.61 335.125 162.75C335.953 163.89 336.367 165.516 336.367 167.628C336.367 169.728 335.959 171.354 335.143 172.506C334.327 173.646 333.157 174.216 331.633 174.216C330.109 174.216 328.939 173.64 328.123 172.488C327.307 171.336 326.899 169.716 326.899 167.628C326.899 165.504 327.313 163.878 328.141 162.75C328.969 161.61 330.133 161.04 331.633 161.04ZM329.599 167.628C329.599 170.364 330.277 171.732 331.633 171.732C332.305 171.732 332.809 171.408 333.145 170.76C333.493 170.112 333.667 169.068 333.667 167.628C333.667 164.892 332.983 163.524 331.615 163.524C330.271 163.524 329.599 164.892 329.599 167.628ZM348.027 160.68L349.539 161.526L342.105 174.576L340.737 173.802L348.027 160.68ZM344.139 164.604C344.139 165.576 343.791 166.416 343.095 167.124C342.411 167.82 341.577 168.168 340.593 168.168C339.597 168.168 338.757 167.826 338.073 167.142C337.389 166.446 337.047 165.6 337.047 164.604C337.047 163.632 337.389 162.798 338.073 162.102C338.769 161.394 339.609 161.04 340.593 161.04C341.553 161.04 342.381 161.382 343.077 162.066C343.785 162.75 344.139 163.596 344.139 164.604ZM340.593 166.332C341.049 166.332 341.445 166.17 341.781 165.846C342.129 165.522 342.303 165.108 342.303 164.604C342.303 164.1 342.129 163.686 341.781 163.362C341.445 163.038 341.049 162.876 340.593 162.876C340.089 162.876 339.675 163.05 339.351 163.398C339.039 163.746 338.883 164.148 338.883 164.604C338.883 165.048 339.039 165.45 339.351 165.81C339.675 166.158 340.089 166.332 340.593 166.332ZM353.193 170.634C353.193 171.618 352.845 172.464 352.149 173.172C351.465 173.868 350.631 174.216 349.647 174.216C348.651 174.216 347.811 173.868 347.127 173.172C346.443 172.464 346.101 171.618 346.101 170.634C346.101 169.662 346.443 168.828 347.127 168.132C347.823 167.424 348.663 167.07 349.647 167.07C350.643 167.07 351.483 167.424 352.167 168.132C352.851 168.828 353.193 169.662 353.193 170.634ZM349.647 172.38C350.127 172.38 350.529 172.218 350.853 171.894C351.189 171.558 351.357 171.138 351.357 170.634C351.357 170.13 351.183 169.716 350.835 169.392C350.499 169.068 350.103 168.906 349.647 168.906C349.143 168.906 348.729 169.08 348.405 169.428C348.093 169.776 347.937 170.178 347.937 170.634C347.937 171.114 348.099 171.528 348.423 171.876C348.759 172.212 349.167 172.38 349.647 172.38Z" fill="white"/>
<path d="M325.328 123.04C326.84 123.04 328.004 123.61 328.82 124.75C329.648 125.89 330.062 127.516 330.062 129.628C330.062 131.728 329.654 133.354 328.838 134.506C328.022 135.646 326.852 136.216 325.328 136.216C323.804 136.216 322.634 135.64 321.818 134.488C321.002 133.336 320.594 131.716 320.594 129.628C320.594 127.504 321.008 125.878 321.836 124.75C322.664 123.61 323.828 123.04 325.328 123.04ZM323.294 129.628C323.294 132.364 323.972 133.732 325.328 133.732C326 133.732 326.504 133.408 326.84 132.76C327.188 132.112 327.362 131.068 327.362 129.628C327.362 126.892 326.678 125.524 325.31 125.524C323.966 125.524 323.294 126.892 323.294 129.628ZM341.722 122.68L343.234 123.526L335.8 136.576L334.432 135.802L341.722 122.68ZM337.834 126.604C337.834 127.576 337.486 128.416 336.79 129.124C336.106 129.82 335.272 130.168 334.288 130.168C333.292 130.168 332.452 129.826 331.768 129.142C331.084 128.446 330.742 127.6 330.742 126.604C330.742 125.632 331.084 124.798 331.768 124.102C332.464 123.394 333.304 123.04 334.288 123.04C335.248 123.04 336.076 123.382 336.772 124.066C337.48 124.75 337.834 125.596 337.834 126.604ZM334.288 128.332C334.744 128.332 335.14 128.17 335.476 127.846C335.824 127.522 335.998 127.108 335.998 126.604C335.998 126.1 335.824 125.686 335.476 125.362C335.14 125.038 334.744 124.876 334.288 124.876C333.784 124.876 333.37 125.05 333.046 125.398C332.734 125.746 332.578 126.148 332.578 126.604C332.578 127.048 332.734 127.45 333.046 127.81C333.37 128.158 333.784 128.332 334.288 128.332ZM346.888 132.634C346.888 133.618 346.54 134.464 345.844 135.172C345.16 135.868 344.326 136.216 343.342 136.216C342.346 136.216 341.506 135.868 340.822 135.172C340.138 134.464 339.796 133.618 339.796 132.634C339.796 131.662 340.138 130.828 340.822 130.132C341.518 129.424 342.358 129.07 343.342 129.07C344.338 129.07 345.178 129.424 345.862 130.132C346.546 130.828 346.888 131.662 346.888 132.634ZM343.342 134.38C343.822 134.38 344.224 134.218 344.548 133.894C344.884 133.558 345.052 133.138 345.052 132.634C345.052 132.13 344.878 131.716 344.53 131.392C344.194 131.068 343.798 130.906 343.342 130.906C342.838 130.906 342.424 131.08 342.1 131.428C341.788 131.776 341.632 132.178 341.632 132.634C341.632 133.114 341.794 133.528 342.118 133.876C342.454 134.212 342.862 134.38 343.342 134.38Z" fill="#00B9E3"/>
<path d="M299.384 70C299.384 69.4477 299.831 69 300.384 69H310.384C310.936 69 311.384 69.4477 311.384 70V80C311.384 80.5523 310.936 81 310.384 81H300.384C299.831 81 299.384 80.5523 299.384 80V70Z" fill="#00B9E3"/>
<path d="M324.388 70.288C325.836 70.288 326.96 70.652 327.76 71.38L326.44 72.82C325.944 72.284 325.26 72.016 324.388 72.016C323.604 72.016 322.964 72.272 322.468 72.784C321.98 73.288 321.736 73.944 321.736 74.752C321.736 75.568 321.98 76.228 322.468 76.732C322.964 77.236 323.604 77.488 324.388 77.488C325.028 77.488 325.612 77.348 326.14 77.068V75.688H324.616V73.96H327.94V78.4C326.924 78.944 325.74 79.216 324.388 79.216C323.02 79.216 321.912 78.808 321.064 77.992C320.216 77.168 319.792 76.088 319.792 74.752C319.792 73.416 320.216 72.34 321.064 71.524C321.912 70.7 323.02 70.288 324.388 70.288ZM329.18 76.084C329.18 75.188 329.484 74.456 330.092 73.888C330.7 73.312 331.492 73.024 332.468 73.024C333.284 73.024 333.936 73.308 334.424 73.876C334.912 74.436 335.156 75.192 335.156 76.144V76.648H330.98C331.052 76.984 331.204 77.256 331.436 77.464C331.668 77.672 331.968 77.776 332.336 77.776C332.832 77.776 333.26 77.54 333.62 77.068L334.88 77.992C334.592 78.36 334.22 78.644 333.764 78.844C333.316 79.044 332.868 79.144 332.42 79.144C331.492 79.144 330.72 78.86 330.104 78.292C329.488 77.716 329.18 76.98 329.18 76.084ZM333.356 75.424C333.356 75.088 333.248 74.82 333.032 74.62C332.816 74.42 332.552 74.32 332.24 74.32C331.904 74.32 331.616 74.42 331.376 74.62C331.144 74.82 331.012 75.088 330.98 75.424H333.356ZM339.706 73.024C340.442 73.024 340.986 73.232 341.338 73.648C341.69 74.056 341.866 74.74 341.866 75.7V79H340.066V76C340.066 75.48 339.986 75.12 339.826 74.92C339.674 74.712 339.442 74.608 339.13 74.608C338.77 74.608 338.498 74.72 338.314 74.944C338.138 75.168 338.05 75.532 338.05 76.036V79H336.25V73.168H337.978V73.96H338.002C338.162 73.664 338.39 73.436 338.686 73.276C338.99 73.108 339.33 73.024 339.706 73.024ZM342.961 76.084C342.961 75.188 343.265 74.456 343.873 73.888C344.481 73.312 345.273 73.024 346.249 73.024C347.065 73.024 347.717 73.308 348.205 73.876C348.693 74.436 348.937 75.192 348.937 76.144V76.648H344.761C344.833 76.984 344.985 77.256 345.217 77.464C345.449 77.672 345.749 77.776 346.117 77.776C346.613 77.776 347.041 77.54 347.401 77.068L348.661 77.992C348.373 78.36 348.001 78.644 347.545 78.844C347.097 79.044 346.649 79.144 346.201 79.144C345.273 79.144 344.501 78.86 343.885 78.292C343.269 77.716 342.961 76.98 342.961 76.084ZM347.137 75.424C347.137 75.088 347.029 74.82 346.813 74.62C346.597 74.42 346.333 74.32 346.021 74.32C345.685 74.32 345.397 74.42 345.157 74.62C344.925 74.82 344.793 75.088 344.761 75.424H347.137ZM353.548 73.024C353.796 73.024 353.992 73.044 354.136 73.084V74.728C353.864 74.648 353.608 74.608 353.368 74.608C352.824 74.608 352.432 74.744 352.192 75.016C351.952 75.28 351.832 75.772 351.832 76.492V79H350.032V73.168H351.832V74.104H351.856C352.048 73.744 352.276 73.476 352.54 73.3C352.804 73.116 353.14 73.024 353.548 73.024ZM357.57 73.024C358.498 73.024 359.174 73.248 359.598 73.696C360.022 74.144 360.234 74.896 360.234 75.952V79H358.578V78.268H358.554C358.178 78.852 357.562 79.144 356.706 79.144C356.098 79.144 355.598 78.98 355.206 78.652C354.822 78.316 354.63 77.88 354.63 77.344C354.63 76.88 354.762 76.496 355.026 76.192C355.29 75.88 355.686 75.652 356.214 75.508C356.75 75.364 357.538 75.292 358.578 75.292C358.578 74.98 358.462 74.728 358.23 74.536C357.998 74.344 357.73 74.248 357.426 74.248C356.866 74.248 356.378 74.48 355.962 74.944L355.002 73.96C355.338 73.632 355.734 73.396 356.19 73.252C356.654 73.1 357.114 73.024 357.57 73.024ZM356.358 77.284C356.358 77.476 356.438 77.632 356.598 77.752C356.766 77.864 356.974 77.92 357.222 77.92C357.622 77.92 357.946 77.82 358.194 77.62C358.45 77.412 358.578 77.144 358.578 76.816V76.444H358.038C357.494 76.444 357.078 76.52 356.79 76.672C356.502 76.816 356.358 77.02 356.358 77.284ZM363.752 71.44V73.168H365.336V74.608H363.752V76.66C363.752 77.02 363.816 77.272 363.944 77.416C364.08 77.56 364.3 77.632 364.604 77.632C364.98 77.632 365.224 77.576 365.336 77.464V78.964C364.992 79.084 364.572 79.144 364.076 79.144C363.372 79.144 362.84 78.992 362.48 78.688C362.128 78.376 361.952 77.956 361.952 77.428V74.608H360.8V73.168H361.952V71.44H363.752ZM366.07 76.084C366.07 75.188 366.374 74.456 366.982 73.888C367.59 73.312 368.382 73.024 369.358 73.024C370.174 73.024 370.826 73.308 371.314 73.876C371.802 74.436 372.046 75.192 372.046 76.144V76.648H367.87C367.942 76.984 368.094 77.256 368.326 77.464C368.558 77.672 368.858 77.776 369.226 77.776C369.722 77.776 370.15 77.54 370.51 77.068L371.77 77.992C371.482 78.36 371.11 78.644 370.654 78.844C370.206 79.044 369.758 79.144 369.31 79.144C368.382 79.144 367.61 78.86 366.994 78.292C366.378 77.716 366.07 76.98 366.07 76.084ZM370.246 75.424C370.246 75.088 370.138 74.82 369.922 74.62C369.706 74.42 369.442 74.32 369.13 74.32C368.794 74.32 368.506 74.42 368.266 74.62C368.034 74.82 367.902 75.088 367.87 75.424H370.246ZM379.261 69.928V79H377.605V78.232H377.581C377.381 78.512 377.117 78.736 376.789 78.904C376.461 79.064 376.125 79.144 375.781 79.144C374.933 79.144 374.245 78.868 373.717 78.316C373.189 77.756 372.925 77.028 372.925 76.132C372.925 75.252 373.173 74.516 373.669 73.924C374.173 73.324 374.813 73.024 375.589 73.024C376.445 73.024 377.061 73.28 377.437 73.792H377.461V69.928H379.261ZM374.725 76.084C374.725 76.524 374.853 76.88 375.109 77.152C375.365 77.424 375.717 77.56 376.165 77.56C376.605 77.56 376.953 77.428 377.209 77.164C377.473 76.9 377.605 76.54 377.605 76.084C377.605 75.604 377.469 75.24 377.197 74.992C376.933 74.736 376.585 74.608 376.153 74.608C375.713 74.608 375.365 74.74 375.109 75.004C374.853 75.268 374.725 75.628 374.725 76.084ZM385.582 73.168L387.058 77.128H387.082L388.45 73.168H390.262L387.958 79H386.05L383.638 73.168H385.582ZM393.942 73.024C394.886 73.024 395.662 73.312 396.27 73.888C396.878 74.464 397.182 75.196 397.182 76.084C397.182 76.988 396.87 77.724 396.246 78.292C395.63 78.86 394.862 79.144 393.942 79.144C393.006 79.144 392.23 78.86 391.614 78.292C391.006 77.724 390.702 76.988 390.702 76.084C390.702 75.188 391.006 74.456 391.614 73.888C392.222 73.312 392.998 73.024 393.942 73.024ZM392.502 76.084C392.502 76.524 392.63 76.88 392.886 77.152C393.142 77.424 393.494 77.56 393.942 77.56C394.382 77.56 394.73 77.428 394.986 77.164C395.25 76.9 395.382 76.54 395.382 76.084C395.382 75.628 395.25 75.268 394.986 75.004C394.73 74.74 394.378 74.608 393.93 74.608C393.49 74.608 393.142 74.748 392.886 75.028C392.63 75.3 392.502 75.652 392.502 76.084ZM399.166 70.288C399.446 70.288 399.69 70.388 399.898 70.588C400.106 70.788 400.21 71.036 400.21 71.332C400.21 71.628 400.106 71.876 399.898 72.076C399.69 72.276 399.446 72.376 399.166 72.376C398.87 72.376 398.622 72.272 398.422 72.064C398.222 71.856 398.122 71.612 398.122 71.332C398.122 71.036 398.226 70.788 398.434 70.588C398.642 70.388 398.886 70.288 399.166 70.288ZM400.066 73.168V79H398.266V73.168H400.066ZM404.42 73.024C404.788 73.024 405.16 73.088 405.536 73.216C405.92 73.336 406.24 73.532 406.496 73.804L405.308 75.052C405.084 74.756 404.788 74.608 404.42 74.608C403.972 74.608 403.62 74.744 403.364 75.016C403.108 75.288 402.98 75.644 402.98 76.084C402.98 76.54 403.112 76.9 403.376 77.164C403.64 77.428 403.988 77.56 404.42 77.56C404.772 77.56 405.068 77.412 405.308 77.116L406.496 78.364C405.992 78.884 405.3 79.144 404.42 79.144C403.476 79.144 402.7 78.856 402.092 78.28C401.484 77.704 401.18 76.972 401.18 76.084C401.18 75.188 401.484 74.456 402.092 73.888C402.7 73.312 403.476 73.024 404.42 73.024ZM406.969 76.084C406.969 75.188 407.273 74.456 407.881 73.888C408.489 73.312 409.281 73.024 410.257 73.024C411.073 73.024 411.725 73.308 412.213 73.876C412.701 74.436 412.945 75.192 412.945 76.144V76.648H408.769C408.841 76.984 408.993 77.256 409.225 77.464C409.457 77.672 409.757 77.776 410.125 77.776C410.621 77.776 411.049 77.54 411.409 77.068L412.669 77.992C412.381 78.36 412.009 78.644 411.553 78.844C411.105 79.044 410.657 79.144 410.209 79.144C409.281 79.144 408.509 78.86 407.893 78.292C407.277 77.716 406.969 76.98 406.969 76.084ZM411.145 75.424C411.145 75.088 411.037 74.82 410.821 74.62C410.605 74.42 410.341 74.32 410.029 74.32C409.693 74.32 409.405 74.42 409.165 74.62C408.933 74.82 408.801 75.088 408.769 75.424H411.145ZM417.063 73.024C418.007 73.024 418.783 73.312 419.391 73.888C419.999 74.464 420.303 75.196 420.303 76.084C420.303 76.988 419.991 77.724 419.367 78.292C418.751 78.86 417.983 79.144 417.063 79.144C416.127 79.144 415.351 78.86 414.735 78.292C414.127 77.724 413.823 76.988 413.823 76.084C413.823 75.188 414.127 74.456 414.735 73.888C415.343 73.312 416.119 73.024 417.063 73.024ZM415.623 76.084C415.623 76.524 415.751 76.88 416.007 77.152C416.263 77.424 416.615 77.56 417.063 77.56C417.503 77.56 417.851 77.428 418.107 77.164C418.371 76.9 418.503 76.54 418.503 76.084C418.503 75.628 418.371 75.268 418.107 75.004C417.851 74.74 417.499 74.608 417.051 74.608C416.611 74.608 416.263 74.748 416.007 75.028C415.751 75.3 415.623 75.652 415.623 76.084ZM422.696 73.168L424.172 77.128H424.196L425.564 73.168H427.376L425.072 79H423.164L420.752 73.168H422.696ZM427.852 76.084C427.852 75.188 428.156 74.456 428.764 73.888C429.372 73.312 430.164 73.024 431.14 73.024C431.956 73.024 432.608 73.308 433.096 73.876C433.584 74.436 433.828 75.192 433.828 76.144V76.648H429.652C429.724 76.984 429.876 77.256 430.108 77.464C430.34 77.672 430.64 77.776 431.008 77.776C431.504 77.776 431.932 77.54 432.292 77.068L433.552 77.992C433.264 78.36 432.892 78.644 432.436 78.844C431.988 79.044 431.54 79.144 431.092 79.144C430.164 79.144 429.392 78.86 428.776 78.292C428.16 77.716 427.852 76.98 427.852 76.084ZM432.028 75.424C432.028 75.088 431.92 74.82 431.704 74.62C431.488 74.42 431.224 74.32 430.912 74.32C430.576 74.32 430.288 74.42 430.048 74.62C429.816 74.82 429.684 75.088 429.652 75.424H432.028ZM438.438 73.024C438.686 73.024 438.882 73.044 439.026 73.084V74.728C438.754 74.648 438.498 74.608 438.258 74.608C437.714 74.608 437.322 74.744 437.082 75.016C436.842 75.28 436.722 75.772 436.722 76.492V79H434.922V73.168H436.722V74.104H436.746C436.938 73.744 437.166 73.476 437.43 73.3C437.694 73.116 438.03 73.024 438.438 73.024Z" fill="#1A1A1A"/>
<path d="M472 70C472 69.4477 472.448 69 473 69H483C483.552 69 484 69.4477 484 70V80C484 80.5523 483.552 81 483 81H473C472.448 81 472 80.5523 472 80V70Z" fill="#FC336D"/>
<path d="M494.736 70.504V73.672H498.372V70.504H500.244V79H498.372V75.328H494.736V79H492.864V70.504H494.736ZM503.541 73.168V76.06C503.541 76.492 503.569 76.796 503.625 76.972C503.689 77.148 503.789 77.292 503.925 77.404C504.061 77.508 504.245 77.56 504.477 77.56C504.861 77.56 505.137 77.444 505.305 77.212C505.473 76.972 505.557 76.608 505.557 76.12V73.168H507.357V79H505.629V78.208H505.605C505.445 78.504 505.213 78.736 504.909 78.904C504.613 79.064 504.273 79.144 503.889 79.144C503.121 79.144 502.569 78.932 502.233 78.508C501.905 78.076 501.741 77.392 501.741 76.456V73.168H503.541ZM512.088 73.024C512.976 73.024 513.576 73.372 513.888 74.068C514.096 73.692 514.348 73.424 514.644 73.264C514.94 73.104 515.304 73.024 515.736 73.024C517.112 73.024 517.8 73.848 517.8 75.496V79H516V75.58C516 74.932 515.736 74.608 515.208 74.608C514.48 74.608 514.116 75.032 514.116 75.88V79H512.316V75.808C512.316 75.36 512.244 75.048 512.1 74.872C511.964 74.696 511.768 74.608 511.512 74.608C511.152 74.608 510.88 74.72 510.696 74.944C510.52 75.16 510.432 75.524 510.432 76.036V79H508.632V73.168H510.36V73.96H510.384C510.544 73.664 510.776 73.436 511.08 73.276C511.384 73.108 511.72 73.024 512.088 73.024ZM521.726 73.024C522.654 73.024 523.33 73.248 523.754 73.696C524.178 74.144 524.39 74.896 524.39 75.952V79H522.734V78.268H522.71C522.334 78.852 521.718 79.144 520.862 79.144C520.254 79.144 519.754 78.98 519.362 78.652C518.978 78.316 518.786 77.88 518.786 77.344C518.786 76.88 518.918 76.496 519.182 76.192C519.446 75.88 519.842 75.652 520.37 75.508C520.906 75.364 521.694 75.292 522.734 75.292C522.734 74.98 522.618 74.728 522.386 74.536C522.154 74.344 521.886 74.248 521.582 74.248C521.022 74.248 520.534 74.48 520.118 74.944L519.158 73.96C519.494 73.632 519.89 73.396 520.346 73.252C520.81 73.1 521.27 73.024 521.726 73.024ZM520.514 77.284C520.514 77.476 520.594 77.632 520.754 77.752C520.922 77.864 521.13 77.92 521.378 77.92C521.778 77.92 522.102 77.82 522.35 77.62C522.606 77.412 522.734 77.144 522.734 76.816V76.444H522.194C521.65 76.444 521.234 76.52 520.946 76.672C520.658 76.816 520.514 77.02 520.514 77.284ZM528.975 73.024C529.711 73.024 530.255 73.232 530.607 73.648C530.959 74.056 531.135 74.74 531.135 75.7V79H529.335V76C529.335 75.48 529.255 75.12 529.095 74.92C528.943 74.712 528.711 74.608 528.399 74.608C528.039 74.608 527.767 74.72 527.583 74.944C527.407 75.168 527.319 75.532 527.319 76.036V79H525.519V73.168H527.247V73.96H527.271C527.431 73.664 527.659 73.436 527.955 73.276C528.259 73.108 528.599 73.024 528.975 73.024ZM537.292 73.168L538.768 77.128H538.792L540.16 73.168H541.972L539.668 79H537.76L535.348 73.168H537.292ZM545.652 73.024C546.596 73.024 547.372 73.312 547.98 73.888C548.588 74.464 548.892 75.196 548.892 76.084C548.892 76.988 548.58 77.724 547.956 78.292C547.34 78.86 546.572 79.144 545.652 79.144C544.716 79.144 543.94 78.86 543.324 78.292C542.716 77.724 542.412 76.988 542.412 76.084C542.412 75.188 542.716 74.456 543.324 73.888C543.932 73.312 544.708 73.024 545.652 73.024ZM544.212 76.084C544.212 76.524 544.34 76.88 544.596 77.152C544.852 77.424 545.204 77.56 545.652 77.56C546.092 77.56 546.44 77.428 546.696 77.164C546.96 76.9 547.092 76.54 547.092 76.084C547.092 75.628 546.96 75.268 546.696 75.004C546.44 74.74 546.088 74.608 545.64 74.608C545.2 74.608 544.852 74.748 544.596 75.028C544.34 75.3 544.212 75.652 544.212 76.084ZM550.876 70.288C551.156 70.288 551.4 70.388 551.608 70.588C551.816 70.788 551.92 71.036 551.92 71.332C551.92 71.628 551.816 71.876 551.608 72.076C551.4 72.276 551.156 72.376 550.876 72.376C550.58 72.376 550.332 72.272 550.132 72.064C549.932 71.856 549.832 71.612 549.832 71.332C549.832 71.036 549.936 70.788 550.144 70.588C550.352 70.388 550.596 70.288 550.876 70.288ZM551.776 73.168V79H549.976V73.168H551.776ZM556.13 73.024C556.498 73.024 556.87 73.088 557.246 73.216C557.63 73.336 557.95 73.532 558.206 73.804L557.018 75.052C556.794 74.756 556.498 74.608 556.13 74.608C555.682 74.608 555.33 74.744 555.074 75.016C554.818 75.288 554.69 75.644 554.69 76.084C554.69 76.54 554.822 76.9 555.086 77.164C555.35 77.428 555.698 77.56 556.13 77.56C556.482 77.56 556.778 77.412 557.018 77.116L558.206 78.364C557.702 78.884 557.01 79.144 556.13 79.144C555.186 79.144 554.41 78.856 553.802 78.28C553.194 77.704 552.89 76.972 552.89 76.084C552.89 75.188 553.194 74.456 553.802 73.888C554.41 73.312 555.186 73.024 556.13 73.024ZM558.679 76.084C558.679 75.188 558.983 74.456 559.591 73.888C560.199 73.312 560.991 73.024 561.967 73.024C562.783 73.024 563.435 73.308 563.923 73.876C564.411 74.436 564.655 75.192 564.655 76.144V76.648H560.479C560.551 76.984 560.703 77.256 560.935 77.464C561.167 77.672 561.467 77.776 561.835 77.776C562.331 77.776 562.759 77.54 563.119 77.068L564.379 77.992C564.091 78.36 563.719 78.644 563.263 78.844C562.815 79.044 562.367 79.144 561.919 79.144C560.991 79.144 560.219 78.86 559.603 78.292C558.987 77.716 558.679 76.98 558.679 76.084ZM562.855 75.424C562.855 75.088 562.747 74.82 562.531 74.62C562.315 74.42 562.051 74.32 561.739 74.32C561.403 74.32 561.115 74.42 560.875 74.62C560.643 74.82 560.511 75.088 560.479 75.424H562.855ZM568.773 73.024C569.717 73.024 570.493 73.312 571.101 73.888C571.709 74.464 572.013 75.196 572.013 76.084C572.013 76.988 571.701 77.724 571.077 78.292C570.461 78.86 569.693 79.144 568.773 79.144C567.837 79.144 567.061 78.86 566.445 78.292C565.837 77.724 565.533 76.988 565.533 76.084C565.533 75.188 565.837 74.456 566.445 73.888C567.053 73.312 567.829 73.024 568.773 73.024ZM567.333 76.084C567.333 76.524 567.461 76.88 567.717 77.152C567.973 77.424 568.325 77.56 568.773 77.56C569.213 77.56 569.561 77.428 569.817 77.164C570.081 76.9 570.213 76.54 570.213 76.084C570.213 75.628 570.081 75.268 569.817 75.004C569.561 74.74 569.209 74.608 568.761 74.608C568.321 74.608 567.973 74.748 567.717 75.028C567.461 75.3 567.333 75.652 567.333 76.084ZM574.406 73.168L575.882 77.128H575.906L577.274 73.168H579.086L576.782 79H574.874L572.462 73.168H574.406ZM579.561 76.084C579.561 75.188 579.865 74.456 580.473 73.888C581.081 73.312 581.873 73.024 582.849 73.024C583.665 73.024 584.317 73.308 584.805 73.876C585.293 74.436 585.537 75.192 585.537 76.144V76.648H581.361C581.433 76.984 581.585 77.256 581.817 77.464C582.049 77.672 582.349 77.776 582.717 77.776C583.213 77.776 583.641 77.54 584.001 77.068L585.261 77.992C584.973 78.36 584.601 78.644 584.145 78.844C583.697 79.044 583.249 79.144 582.801 79.144C581.873 79.144 581.101 78.86 580.485 78.292C579.869 77.716 579.561 76.98 579.561 76.084ZM583.737 75.424C583.737 75.088 583.629 74.82 583.413 74.62C583.197 74.42 582.933 74.32 582.621 74.32C582.285 74.32 581.997 74.42 581.757 74.62C581.525 74.82 581.393 75.088 581.361 75.424H583.737ZM590.148 73.024C590.396 73.024 590.592 73.044 590.736 73.084V74.728C590.464 74.648 590.208 74.608 589.968 74.608C589.424 74.608 589.032 74.744 588.792 75.016C588.552 75.28 588.432 75.772 588.432 76.492V79H586.632V73.168H588.432V74.104H588.456C588.648 73.744 588.876 73.476 589.14 73.3C589.404 73.116 589.74 73.024 590.148 73.024Z" fill="#1A1A1A"/>
</g>
<path d="M404.088 439.041L405.888 442.221L407.796 439.041H410.016L406.824 443.913V447.537H404.952V443.913L401.76 439.041H404.088ZM417.689 439.041V440.769H413.789V442.353H417.473V444.081H413.789V445.809H417.905V447.537H411.917V439.041H417.689ZM424.948 439.041L428.644 447.537H426.532L425.8 445.737H422.5L421.792 447.537H419.728L423.4 439.041H424.948ZM423.088 444.153H425.164L424.12 441.513L423.088 444.153ZM434.046 439.041C435.086 439.041 435.87 439.265 436.398 439.713C436.926 440.153 437.19 440.789 437.19 441.621C437.19 442.245 437.026 442.761 436.698 443.169C436.378 443.577 435.93 443.837 435.354 443.949L437.514 447.537H435.27L433.494 444.141H432.57V447.537H430.698V439.041H434.046ZM433.734 442.557C434.286 442.557 434.674 442.485 434.898 442.341C435.13 442.189 435.246 441.945 435.246 441.609C435.246 440.953 434.778 440.625 433.842 440.625H432.57V442.557H433.734Z" fill="#666666"/>
<path d="M0 417.5L840 417.5" stroke="#829BC4" stroke-opacity="0.3"/>
<g style="mix-blend-mode:multiply" opacity="0.5" clip-path="url(#clip1_3651_5935)">
<path d="M66.3014 449.395L65.2849 446.467H59.6732C59.5186 446.919 59.3547 447.412 59.186 447.942L58.7223 449.395H56.0007L61.0269 435.823H63.9452L68.8403 449.395H66.2967H66.3014ZM62.4697 438.77C62.1324 439.692 61.8045 440.583 61.4954 441.451C61.1862 442.319 60.8443 443.237 60.4789 444.215H64.4792L62.4697 438.77V438.77Z" fill="#666666"/>
<path d="M77.0097 435.865H71.8898V449.422H74.2553V444.804H77.0097C79.8155 444.804 81.1787 443.653 81.1787 441.282V439.364C81.1787 437.007 79.8155 435.865 77.0097 435.865V435.865ZM74.2553 437.998H76.9535C78.5555 437.998 78.8131 438.409 78.8131 439.386V441.287C78.8131 442.246 78.5461 442.675 76.9535 442.675H74.2553V437.998Z" fill="#666666"/>
<path d="M89.0342 435.865H83.9143V449.422H86.2799V444.804H89.0342C91.8401 444.804 93.2032 443.653 93.2032 441.282V439.364C93.2032 437.007 91.8401 435.865 89.0342 435.865V435.865ZM86.2799 437.998H88.978C90.58 437.998 90.8376 438.409 90.8376 439.386V441.287C90.8376 442.246 90.5706 442.675 88.978 442.675H86.2799V437.998Z" fill="#666666"/>
<path d="M100.197 448.07H106.619V449.427H98.7961V435.883H100.197V448.07V448.07Z" fill="#666666"/>
<path d="M118.924 445.485C118.924 447.741 117.486 449.596 113.898 449.596C110.31 449.596 108.872 447.746 108.872 445.485V439.747C108.872 437.491 110.31 435.636 113.898 435.636C117.486 435.636 118.924 437.486 118.924 439.747V445.485ZM110.174 445.503C110.174 447.449 111.392 448.541 113.95 448.541C116.507 448.541 117.721 447.449 117.721 445.503V439.724C117.721 437.778 116.503 436.687 113.95 436.687C111.397 436.687 110.174 437.778 110.174 439.724V445.503Z" fill="#666666"/>
<path d="M121.056 435.883H122.447L126.939 448.07L131.441 435.883H132.865L127.871 449.432H126.026L121.06 435.883H121.056Z" fill="#666666"/>
<path d="M137.17 449.432H135.769V435.883H137.17V449.432Z" fill="#666666"/>
<path d="M143.882 437.509V449.427H142.566V435.883H144.632L150.679 447.476V435.883H151.995V449.432H150.323L143.878 437.514L143.882 437.509Z" fill="#666666"/>
<path d="M45.5081 447.641C43.7702 447.641 42.3556 449.02 42.3556 450.715C42.3556 452.41 43.7702 453.789 45.5081 453.789C47.246 453.789 48.6606 452.41 48.6606 450.715C48.6606 449.02 47.246 447.641 45.5081 447.641V447.641ZM47.3724 450.715C47.3724 451.72 46.5339 452.533 45.5081 452.533C44.4822 452.533 43.6438 451.716 43.6438 450.715C43.6438 449.715 44.4822 448.897 45.5081 448.897C46.5339 448.897 47.3724 449.715 47.3724 450.715Z" fill="#666666"/>
<path d="M24.1525 447.641C22.4146 447.641 21 449.02 21 450.715C21 452.41 22.4146 453.789 24.1525 453.789C25.8904 453.789 27.305 452.41 27.305 450.715C27.305 449.02 25.8904 447.641 24.1525 447.641V447.641ZM26.0168 450.715C26.0168 451.72 25.1784 452.533 24.1525 452.533C23.1267 452.533 22.2882 451.716 22.2882 450.715C22.2882 449.715 23.1267 448.897 24.1525 448.897C25.1784 448.897 26.0168 449.715 26.0168 450.715Z" fill="#666666"/>
<path d="M34.8326 430.794C33.0947 430.794 31.6801 432.173 31.6801 433.868C31.6801 435.563 33.0947 436.943 34.8326 436.943C36.5704 436.943 37.9851 435.563 37.9851 433.868C37.9851 432.173 36.5704 430.794 34.8326 430.794ZM36.6969 433.868C36.6969 434.873 35.8584 435.686 34.8326 435.686C33.8067 435.686 32.9682 434.869 32.9682 433.868C32.9682 432.868 33.8067 432.05 34.8326 432.05C35.8584 432.05 36.6969 432.868 36.6969 433.868Z" fill="#666666"/>
<path d="M44.3416 447.984L37.3761 435.755L37.3105 435.636L37.2215 435.741C36.9826 436.034 36.6875 436.267 36.3549 436.445L36.2706 436.49L36.3175 436.573L42.482 447.399C40.3319 446.928 37.6572 446.673 34.9169 446.673C31.8955 446.673 29.2114 446.924 27.1316 447.394L33.3008 436.568L33.3476 436.486L33.2633 436.44C32.9261 436.267 32.6356 436.029 32.3967 435.737L32.3077 435.632L32.2422 435.75L25.2767 447.979L25.2205 448.075L25.3235 448.111C25.6655 448.226 25.9793 448.641 26.2557 448.879L26.3025 448.92L26.3587 448.893H26.3822C28.6025 448.29 31.5583 447.97 34.9216 447.97C37.9476 447.97 40.8846 448.294 43.1986 448.883L43.2455 448.97L43.3345 448.902L43.3532 448.888C43.6343 448.646 43.9481 448.23 44.2901 448.116L44.3931 448.079L44.3369 447.984H44.3416Z" fill="#666666"/>
</g>
<defs>
<linearGradient id="paint0_linear_3651_5935" x1="470.5" y1="148.5" x2="470.5" y2="370" gradientUnits="userSpaceOnUse">
<stop stop-color="#FC336D" stop-opacity="0.48"/>
<stop offset="1" stop-color="#FC336D" stop-opacity="0"/>
</linearGradient>
<clipPath id="clip0_3651_5935">
<rect width="788" height="392" fill="white" transform="translate(26 48)"/>
</clipPath>
<clipPath id="clip1_3651_5935">
<rect width="131" height="23" fill="white" transform="translate(21 430.794)"/>
</clipPath>
</defs>
</svg>
