<svg width="136" height="136" viewBox="0 0 136 136" fill="none" xmlns="http://www.w3.org/2000/svg">
<circle cx="68" cy="68" r="68" fill="#E6E4F8"/>
<g clip-path="url(#clip0_1341_4236)">
<path d="M76.5015 49.7645H84.7305C87.3556 49.7645 88.777 46.6905 87.0836 44.6911L70.3535 24.9142C69.1225 23.4588 66.8783 23.4588 65.6473 24.9142L48.9172 44.6911C47.2238 46.6973 48.6452 49.7645 51.2703 49.7645H59.4993" fill="#FC326C"/>
<path d="M59.4912 49.7643V91.8412C59.4912 93.5414 60.8718 94.922 62.572 94.922H73.4738C75.174 94.922 76.5546 93.5414 76.5546 91.8412V49.7643" fill="#FC326C"/>
<g style="mix-blend-mode:multiply">
<path d="M108.906 66.5281H81.9543C81.0158 66.5281 80.1317 66.9497 79.5468 67.6842C79.5468 67.6842 74.2353 76.6069 70.1004 80.4902C68.9443 81.5784 67.0468 81.5784 65.8839 80.4902C61.7558 76.6069 56.4375 67.6842 56.4375 67.6842C55.8526 66.9565 54.9685 66.5281 54.03 66.5281H27.085C24.5007 66.5281 23.0589 69.5205 24.6775 71.5403L32.4441 81.2247C32.8862 81.7688 33.1242 82.4557 33.1242 83.1562V109.101C33.1242 110.802 34.5048 112.182 36.205 112.182H99.7793C101.48 112.182 102.86 110.802 102.86 109.101V83.1562C102.86 82.4557 103.098 81.7756 103.54 81.2247L111.307 71.5403C112.925 69.5205 111.49 66.5281 108.899 66.5281H108.906Z" fill="#0E55EF"/>
</g>
<path d="M67.9509 86.6519V107.585" stroke="white" stroke-width="2.04026" stroke-linecap="round" stroke-linejoin="round"/>
</g>
<defs>
<clipPath id="clip0_1341_4236">
<rect width="87.9962" height="88.3635" fill="white" transform="translate(23.9999 23.8181)"/>
</clipPath>
</defs>
</svg>
