<svg width="840" height="472" viewBox="0 0 840 472" fill="none" xmlns="http://www.w3.org/2000/svg">
<path d="M270.5 132L177 131.5V389.5H654V305L592 241.5L493 241L431 189.5L331.5 189L270.5 132Z" fill="url(#paint0_linear_3651_5884)"/>
<path d="M137 389.5H806" stroke="#DDDDDD" stroke-miterlimit="10"/>
<path d="M272 389H167V135C167 132.791 168.791 131 171 131L268 131C270.209 131 272 132.791 272 135V389Z" fill="#FC336D"/>
<path d="M433 389H328V193C328 190.791 329.791 189 332 189L429 189C431.209 189 433 190.791 433 193V389Z" fill="#FC336D"/>
<path d="M594 389H489V245C489 242.791 490.791 241 493 241L590 241C592.209 241 594 242.791 594 245V389Z" fill="#FC336D"/>
<path d="M755 389H650V309C650 306.791 651.791 305 654 305L751 305C753.209 305 755 306.791 755 309V389Z" fill="#00B9E3"/>
<path d="M27.504 324.514C27.504 323.474 27.728 322.69 28.176 322.162C28.616 321.634 29.252 321.37 30.084 321.37C30.708 321.37 31.224 321.534 31.632 321.862C32.04 322.182 32.3 322.63 32.412 323.206L36 321.046V323.29L32.604 325.066V325.99H36V327.862H27.504V324.514ZM31.02 324.826C31.02 324.274 30.948 323.886 30.804 323.662C30.652 323.43 30.408 323.314 30.072 323.314C29.416 323.314 29.088 323.782 29.088 324.718V325.99H31.02V324.826ZM27.504 314.537L36 310.841V312.953L34.2 313.685V316.985L36 317.693V319.757L27.504 316.085V314.537ZM32.616 316.397V314.321L29.976 315.365L32.616 316.397ZM27.504 303.948H29.16V306.372H36V308.244H29.16V310.668H27.504V303.948ZM27.504 295.953H29.232V299.853H30.816V296.169H32.544V299.853H34.272V295.737H36V301.725H27.504V295.953ZM27.288 284.16C27.288 282.8 27.696 281.696 28.512 280.848C29.328 280 30.408 279.576 31.752 279.576C33.088 279.576 34.168 280.004 34.992 280.86C35.808 281.716 36.216 282.816 36.216 284.16C36.216 285.52 35.804 286.624 34.98 287.472C34.156 288.32 33.08 288.744 31.752 288.744C30.424 288.744 29.348 288.324 28.524 287.484C27.7 286.636 27.288 285.528 27.288 284.16ZM31.752 286.8C32.576 286.8 33.24 286.556 33.744 286.068C34.24 285.572 34.488 284.936 34.488 284.16C34.488 283.368 34.232 282.732 33.72 282.252C33.208 281.764 32.552 281.52 31.752 281.52C30.936 281.52 30.276 281.768 29.772 282.264C29.268 282.752 29.016 283.388 29.016 284.172C29.016 284.956 29.272 285.592 29.784 286.08C30.296 286.56 30.952 286.8 31.752 286.8ZM27.504 271.331H29.232V275.159H30.96V271.619H32.688V275.159H36V277.031H27.504V271.331ZM27.288 259.911C27.288 259.351 27.396 258.815 27.612 258.303C27.82 257.783 28.128 257.363 28.536 257.043L29.712 258.483C29.248 258.875 29.016 259.411 29.016 260.091C29.016 260.795 29.276 261.383 29.796 261.855C30.308 262.319 30.96 262.551 31.752 262.551C32.512 262.551 33.16 262.327 33.696 261.879C34.224 261.431 34.488 260.855 34.488 260.151C34.488 259.399 34.184 258.815 33.576 258.399L34.74 256.839C35.188 257.143 35.548 257.567 35.82 258.111C36.084 258.647 36.216 259.247 36.216 259.911C36.216 261.263 35.804 262.367 34.98 263.223C34.156 264.071 33.08 264.495 31.752 264.495C30.44 264.495 29.368 264.071 28.536 263.223C27.704 262.375 27.288 261.271 27.288 259.911ZM27.504 251.277C27.504 250.237 27.728 249.453 28.176 248.925C28.616 248.397 29.252 248.133 30.084 248.133C30.708 248.133 31.224 248.297 31.632 248.625C32.04 248.945 32.3 249.393 32.412 249.969L36 247.809V250.053L32.604 251.829V252.753H36V254.625H27.504V251.277ZM31.02 251.589C31.02 251.037 30.948 250.649 30.804 250.425C30.652 250.193 30.408 250.077 30.072 250.077C29.416 250.077 29.088 250.545 29.088 251.481V252.753H31.02V251.589ZM27.504 239.799H29.232V243.699H30.816V240.015H32.544V243.699H34.272V239.583H36V245.571H27.504V239.799ZM27.504 232.541L36 228.845V230.957L34.2 231.689V234.989L36 235.697V237.761L27.504 234.089V232.541ZM32.616 234.401V232.325L29.976 233.369L32.616 234.401ZM27.504 221.952H29.16V224.376H36V226.248H29.16V228.672H27.504V221.952ZM27.504 217.953H36V219.825H27.504V217.953ZM27.504 213.754L33.072 211.654V211.63L27.504 209.494V207.49L36 210.994V212.494L27.504 215.89V213.754ZM27.504 199.557H29.232V203.457H30.816V199.773H32.544V203.457H34.272V199.341H36V205.329H27.504V199.557ZM27.504 190.74L32.952 189.384V189.36L27.504 187.584V185.844L33.096 184.08V184.056L27.504 182.628V180.732L36 183.216V184.884L30.12 186.756V186.78L36 188.652V190.26L27.504 192.78V190.74ZM27.504 176.844H36V178.716H27.504V176.844ZM27.504 171.397L33.408 167.785V167.761H27.504V165.889H36V168.337L29.952 172.045V172.069H36V173.941H27.504V171.397ZM27.288 160.076C27.288 159.02 27.584 158.152 28.176 157.472L29.58 158.756C29.388 158.908 29.248 159.116 29.16 159.38C29.064 159.636 29.016 159.88 29.016 160.112C29.016 160.464 29.096 160.764 29.256 161.012C29.416 161.252 29.628 161.372 29.892 161.372C30.124 161.372 30.32 161.28 30.48 161.096C30.632 160.904 30.764 160.608 30.876 160.208C31.148 159.288 31.384 158.68 31.584 158.384C31.784 158.08 32.036 157.852 32.34 157.7C32.636 157.54 32.996 157.46 33.42 157.46C34.276 157.46 34.956 157.76 35.46 158.36C35.964 158.952 36.216 159.744 36.216 160.736C36.216 161.88 35.86 162.832 35.148 163.592L33.684 162.26C34.22 161.844 34.488 161.3 34.488 160.628C34.488 160.268 34.408 159.964 34.248 159.716C34.088 159.46 33.872 159.332 33.6 159.332C33.152 159.332 32.808 159.716 32.568 160.484C32.272 161.46 32.024 162.096 31.824 162.392C31.616 162.688 31.372 162.916 31.092 163.076C30.812 163.236 30.464 163.316 30.048 163.316C29.232 163.316 28.568 163.016 28.056 162.416C27.544 161.808 27.288 161.028 27.288 160.076Z" fill="#666666"/>
<path d="M109.364 382.741C110.372 382.741 111.148 383.121 111.692 383.881C112.244 384.641 112.52 385.725 112.52 387.133C112.52 388.533 112.248 389.617 111.704 390.385C111.16 391.145 110.38 391.525 109.364 391.525C108.348 391.525 107.568 391.141 107.024 390.373C106.48 389.605 106.208 388.525 106.208 387.133C106.208 385.717 106.484 384.633 107.036 383.881C107.588 383.121 108.364 382.741 109.364 382.741ZM108.008 387.133C108.008 388.957 108.46 389.869 109.364 389.869C109.812 389.869 110.148 389.653 110.372 389.221C110.604 388.789 110.72 388.093 110.72 387.133C110.72 385.309 110.264 384.397 109.352 384.397C108.456 384.397 108.008 385.309 108.008 387.133ZM121.493 382.501L122.501 383.065L117.545 391.765L116.633 391.249L121.493 382.501ZM118.901 385.117C118.901 385.765 118.669 386.325 118.205 386.797C117.749 387.261 117.193 387.493 116.537 387.493C115.873 387.493 115.313 387.265 114.857 386.809C114.401 386.345 114.173 385.781 114.173 385.117C114.173 384.469 114.401 383.913 114.857 383.449C115.321 382.977 115.881 382.741 116.537 382.741C117.177 382.741 117.729 382.969 118.193 383.425C118.665 383.881 118.901 384.445 118.901 385.117ZM116.537 386.269C116.841 386.269 117.105 386.161 117.329 385.945C117.561 385.729 117.677 385.453 117.677 385.117C117.677 384.781 117.561 384.505 117.329 384.289C117.105 384.073 116.841 383.965 116.537 383.965C116.201 383.965 115.925 384.081 115.709 384.313C115.501 384.545 115.397 384.813 115.397 385.117C115.397 385.413 115.501 385.681 115.709 385.921C115.925 386.153 116.201 386.269 116.537 386.269ZM124.937 389.137C124.937 389.793 124.705 390.357 124.241 390.829C123.785 391.293 123.229 391.525 122.573 391.525C121.909 391.525 121.349 391.293 120.893 390.829C120.437 390.357 120.209 389.793 120.209 389.137C120.209 388.489 120.437 387.933 120.893 387.469C121.357 386.997 121.917 386.761 122.573 386.761C123.237 386.761 123.797 386.997 124.253 387.469C124.709 387.933 124.937 388.489 124.937 389.137ZM122.573 390.301C122.893 390.301 123.161 390.193 123.377 389.977C123.601 389.753 123.713 389.473 123.713 389.137C123.713 388.801 123.597 388.525 123.365 388.309C123.141 388.093 122.877 387.985 122.573 387.985C122.237 387.985 121.961 388.101 121.745 388.333C121.537 388.565 121.433 388.833 121.433 389.137C121.433 389.457 121.541 389.733 121.757 389.965C121.981 390.189 122.253 390.301 122.573 390.301Z" fill="#829BC4"/>
<path d="M103.694 319.615V328.111H101.966V321.631L100.262 323.131L99.2422 321.955L102.014 319.615H103.694ZM110.364 319.471C111.372 319.471 112.148 319.851 112.692 320.611C113.244 321.371 113.52 322.455 113.52 323.863C113.52 325.263 113.248 326.347 112.704 327.115C112.16 327.875 111.38 328.255 110.364 328.255C109.348 328.255 108.568 327.871 108.024 327.103C107.48 326.335 107.208 325.255 107.208 323.863C107.208 322.447 107.484 321.363 108.036 320.611C108.588 319.851 109.364 319.471 110.364 319.471ZM109.008 323.863C109.008 325.687 109.46 326.599 110.364 326.599C110.812 326.599 111.148 326.383 111.372 325.951C111.604 325.519 111.72 324.823 111.72 323.863C111.72 322.039 111.264 321.127 110.352 321.127C109.456 321.127 109.008 322.039 109.008 323.863ZM122.493 319.231L123.501 319.795L118.545 328.495L117.633 327.979L122.493 319.231ZM119.901 321.847C119.901 322.495 119.669 323.055 119.205 323.527C118.749 323.991 118.193 324.223 117.537 324.223C116.873 324.223 116.313 323.995 115.857 323.539C115.401 323.075 115.173 322.511 115.173 321.847C115.173 321.199 115.401 320.643 115.857 320.179C116.321 319.707 116.881 319.471 117.537 319.471C118.177 319.471 118.729 319.699 119.193 320.155C119.665 320.611 119.901 321.175 119.901 321.847ZM117.537 322.999C117.841 322.999 118.105 322.891 118.329 322.675C118.561 322.459 118.677 322.183 118.677 321.847C118.677 321.511 118.561 321.235 118.329 321.019C118.105 320.803 117.841 320.695 117.537 320.695C117.201 320.695 116.925 320.811 116.709 321.043C116.501 321.275 116.397 321.543 116.397 321.847C116.397 322.143 116.501 322.411 116.709 322.651C116.925 322.883 117.201 322.999 117.537 322.999ZM125.937 325.867C125.937 326.523 125.705 327.087 125.241 327.559C124.785 328.023 124.229 328.255 123.573 328.255C122.909 328.255 122.349 328.023 121.893 327.559C121.437 327.087 121.209 326.523 121.209 325.867C121.209 325.219 121.437 324.663 121.893 324.199C122.357 323.727 122.917 323.491 123.573 323.491C124.237 323.491 124.797 323.727 125.253 324.199C125.709 324.663 125.937 325.219 125.937 325.867ZM123.573 327.031C123.893 327.031 124.161 326.923 124.377 326.707C124.601 326.483 124.713 326.203 124.713 325.867C124.713 325.531 124.597 325.255 124.365 325.039C124.141 324.823 123.877 324.715 123.573 324.715C123.237 324.715 122.961 324.831 122.745 325.063C122.537 325.295 122.433 325.563 122.433 325.867C122.433 326.187 122.541 326.463 122.757 326.695C122.981 326.919 123.253 327.031 123.573 327.031Z" fill="#829BC4"/>
<path d="M102.206 254.768C103.038 254.768 103.702 255 104.198 255.464C104.702 255.92 104.954 256.54 104.954 257.324C104.954 257.82 104.866 258.236 104.69 258.572C104.522 258.9 104.178 259.296 103.658 259.76L101.258 261.824H105.026V263.408H99.0982V261.5L102.398 258.536C102.694 258.264 102.894 258.044 102.998 257.876C103.102 257.708 103.154 257.532 103.154 257.348C103.154 257.068 103.05 256.844 102.842 256.676C102.634 256.508 102.39 256.424 102.11 256.424C101.806 256.424 101.554 256.52 101.354 256.712C101.154 256.904 101.038 257.168 101.006 257.504L99.2062 257.372C99.2622 256.524 99.5542 255.88 100.082 255.44C100.618 254.992 101.326 254.768 102.206 254.768ZM110.364 254.768C111.372 254.768 112.148 255.148 112.692 255.908C113.244 256.668 113.52 257.752 113.52 259.16C113.52 260.56 113.248 261.644 112.704 262.412C112.16 263.172 111.38 263.552 110.364 263.552C109.348 263.552 108.568 263.168 108.024 262.4C107.48 261.632 107.208 260.552 107.208 259.16C107.208 257.744 107.484 256.66 108.036 255.908C108.588 255.148 109.364 254.768 110.364 254.768ZM109.008 259.16C109.008 260.984 109.46 261.896 110.364 261.896C110.812 261.896 111.148 261.68 111.372 261.248C111.604 260.816 111.72 260.12 111.72 259.16C111.72 257.336 111.264 256.424 110.352 256.424C109.456 256.424 109.008 257.336 109.008 259.16ZM122.493 254.528L123.501 255.092L118.545 263.792L117.633 263.276L122.493 254.528ZM119.901 257.144C119.901 257.792 119.669 258.352 119.205 258.824C118.749 259.288 118.193 259.52 117.537 259.52C116.873 259.52 116.313 259.292 115.857 258.836C115.401 258.372 115.173 257.808 115.173 257.144C115.173 256.496 115.401 255.94 115.857 255.476C116.321 255.004 116.881 254.768 117.537 254.768C118.177 254.768 118.729 254.996 119.193 255.452C119.665 255.908 119.901 256.472 119.901 257.144ZM117.537 258.296C117.841 258.296 118.105 258.188 118.329 257.972C118.561 257.756 118.677 257.48 118.677 257.144C118.677 256.808 118.561 256.532 118.329 256.316C118.105 256.1 117.841 255.992 117.537 255.992C117.201 255.992 116.925 256.108 116.709 256.34C116.501 256.572 116.397 256.84 116.397 257.144C116.397 257.44 116.501 257.708 116.709 257.948C116.925 258.18 117.201 258.296 117.537 258.296ZM125.937 261.164C125.937 261.82 125.705 262.384 125.241 262.856C124.785 263.32 124.229 263.552 123.573 263.552C122.909 263.552 122.349 263.32 121.893 262.856C121.437 262.384 121.209 261.82 121.209 261.164C121.209 260.516 121.437 259.96 121.893 259.496C122.357 259.024 122.917 258.788 123.573 258.788C124.237 258.788 124.797 259.024 125.253 259.496C125.709 259.96 125.937 260.516 125.937 261.164ZM123.573 262.328C123.893 262.328 124.161 262.22 124.377 262.004C124.601 261.78 124.713 261.5 124.713 261.164C124.713 260.828 124.597 260.552 124.365 260.336C124.141 260.12 123.877 260.012 123.573 260.012C123.237 260.012 122.961 260.128 122.745 260.36C122.537 260.592 122.433 260.86 122.433 261.164C122.433 261.484 122.541 261.76 122.757 261.992C122.981 262.216 123.253 262.328 123.573 262.328Z" fill="#829BC4"/>
<path d="M101.99 190.064C102.854 190.064 103.546 190.276 104.066 190.7C104.594 191.116 104.858 191.692 104.858 192.428C104.858 192.916 104.73 193.324 104.474 193.652C104.218 193.98 103.862 194.192 103.406 194.288V194.324C103.894 194.388 104.282 194.608 104.57 194.984C104.858 195.352 105.002 195.792 105.002 196.304C105.002 197.08 104.722 197.7 104.162 198.164C103.61 198.62 102.87 198.848 101.942 198.848C101.118 198.848 100.442 198.66 99.9142 198.284C99.3942 197.9 99.0542 197.356 98.8942 196.652L100.79 196.208C100.926 196.864 101.346 197.192 102.05 197.192C102.418 197.192 102.702 197.096 102.902 196.904C103.102 196.712 103.202 196.444 103.202 196.1C103.202 195.772 103.09 195.528 102.866 195.368C102.642 195.2 102.21 195.116 101.57 195.116H101.102V193.556H101.654C102.126 193.556 102.478 193.484 102.71 193.34C102.942 193.188 103.058 192.944 103.058 192.608C103.058 192.336 102.954 192.12 102.746 191.96C102.538 191.8 102.29 191.72 102.002 191.72C101.746 191.72 101.522 191.788 101.33 191.924C101.138 192.06 101.01 192.256 100.946 192.512L98.9662 192.104C99.3262 190.744 100.334 190.064 101.99 190.064ZM110.364 190.064C111.372 190.064 112.148 190.444 112.692 191.204C113.244 191.964 113.52 193.048 113.52 194.456C113.52 195.856 113.248 196.94 112.704 197.708C112.16 198.468 111.38 198.848 110.364 198.848C109.348 198.848 108.568 198.464 108.024 197.696C107.48 196.928 107.208 195.848 107.208 194.456C107.208 193.04 107.484 191.956 108.036 191.204C108.588 190.444 109.364 190.064 110.364 190.064ZM109.008 194.456C109.008 196.28 109.46 197.192 110.364 197.192C110.812 197.192 111.148 196.976 111.372 196.544C111.604 196.112 111.72 195.416 111.72 194.456C111.72 192.632 111.264 191.72 110.352 191.72C109.456 191.72 109.008 192.632 109.008 194.456ZM122.493 189.824L123.501 190.388L118.545 199.088L117.633 198.572L122.493 189.824ZM119.901 192.44C119.901 193.088 119.669 193.648 119.205 194.12C118.749 194.584 118.193 194.816 117.537 194.816C116.873 194.816 116.313 194.588 115.857 194.132C115.401 193.668 115.173 193.104 115.173 192.44C115.173 191.792 115.401 191.236 115.857 190.772C116.321 190.3 116.881 190.064 117.537 190.064C118.177 190.064 118.729 190.292 119.193 190.748C119.665 191.204 119.901 191.768 119.901 192.44ZM117.537 193.592C117.841 193.592 118.105 193.484 118.329 193.268C118.561 193.052 118.677 192.776 118.677 192.44C118.677 192.104 118.561 191.828 118.329 191.612C118.105 191.396 117.841 191.288 117.537 191.288C117.201 191.288 116.925 191.404 116.709 191.636C116.501 191.868 116.397 192.136 116.397 192.44C116.397 192.736 116.501 193.004 116.709 193.244C116.925 193.476 117.201 193.592 117.537 193.592ZM125.937 196.46C125.937 197.116 125.705 197.68 125.241 198.152C124.785 198.616 124.229 198.848 123.573 198.848C122.909 198.848 122.349 198.616 121.893 198.152C121.437 197.68 121.209 197.116 121.209 196.46C121.209 195.812 121.437 195.256 121.893 194.792C122.357 194.32 122.917 194.084 123.573 194.084C124.237 194.084 124.797 194.32 125.253 194.792C125.709 195.256 125.937 195.812 125.937 196.46ZM123.573 197.624C123.893 197.624 124.161 197.516 124.377 197.3C124.601 197.076 124.713 196.796 124.713 196.46C124.713 196.124 124.597 195.848 124.365 195.632C124.141 195.416 123.877 195.308 123.573 195.308C123.237 195.308 122.961 195.424 122.745 195.656C122.537 195.888 122.433 196.156 122.433 196.46C122.433 196.78 122.541 197.056 122.757 197.288C122.981 197.512 123.253 197.624 123.573 197.624Z" fill="#829BC4"/>
<path d="M104.234 125.504V130.784H105.326V132.296H104.234V134H102.506V132.296H98.7982V130.784L102.266 125.504H104.234ZM102.482 127.856L100.598 130.784H102.506V127.856H102.482ZM110.364 125.36C111.372 125.36 112.148 125.74 112.692 126.5C113.244 127.26 113.52 128.344 113.52 129.752C113.52 131.152 113.248 132.236 112.704 133.004C112.16 133.764 111.38 134.144 110.364 134.144C109.348 134.144 108.568 133.76 108.024 132.992C107.48 132.224 107.208 131.144 107.208 129.752C107.208 128.336 107.484 127.252 108.036 126.5C108.588 125.74 109.364 125.36 110.364 125.36ZM109.008 129.752C109.008 131.576 109.46 132.488 110.364 132.488C110.812 132.488 111.148 132.272 111.372 131.84C111.604 131.408 111.72 130.712 111.72 129.752C111.72 127.928 111.264 127.016 110.352 127.016C109.456 127.016 109.008 127.928 109.008 129.752ZM122.493 125.12L123.501 125.684L118.545 134.384L117.633 133.868L122.493 125.12ZM119.901 127.736C119.901 128.384 119.669 128.944 119.205 129.416C118.749 129.88 118.193 130.112 117.537 130.112C116.873 130.112 116.313 129.884 115.857 129.428C115.401 128.964 115.173 128.4 115.173 127.736C115.173 127.088 115.401 126.532 115.857 126.068C116.321 125.596 116.881 125.36 117.537 125.36C118.177 125.36 118.729 125.588 119.193 126.044C119.665 126.5 119.901 127.064 119.901 127.736ZM117.537 128.888C117.841 128.888 118.105 128.78 118.329 128.564C118.561 128.348 118.677 128.072 118.677 127.736C118.677 127.4 118.561 127.124 118.329 126.908C118.105 126.692 117.841 126.584 117.537 126.584C117.201 126.584 116.925 126.7 116.709 126.932C116.501 127.164 116.397 127.432 116.397 127.736C116.397 128.032 116.501 128.3 116.709 128.54C116.925 128.772 117.201 128.888 117.537 128.888ZM125.937 131.756C125.937 132.412 125.705 132.976 125.241 133.448C124.785 133.912 124.229 134.144 123.573 134.144C122.909 134.144 122.349 133.912 121.893 133.448C121.437 132.976 121.209 132.412 121.209 131.756C121.209 131.108 121.437 130.552 121.893 130.088C122.357 129.616 122.917 129.38 123.573 129.38C124.237 129.38 124.797 129.616 125.253 130.088C125.709 130.552 125.937 131.108 125.937 131.756ZM123.573 132.92C123.893 132.92 124.161 132.812 124.377 132.596C124.601 132.372 124.713 132.092 124.713 131.756C124.713 131.42 124.597 131.144 124.365 130.928C124.141 130.712 123.877 130.604 123.573 130.604C123.237 130.604 122.961 130.72 122.745 130.952C122.537 131.184 122.433 131.452 122.433 131.756C122.433 132.076 122.541 132.352 122.757 132.584C122.981 132.808 123.253 132.92 123.573 132.92Z" fill="#829BC4"/>
<path d="M201.708 405.504V407.232H197.808V408.816H201.492V410.544H197.808V412.272H201.924V414H195.936V405.504H201.708ZM208.967 405.504L212.663 414H210.551L209.819 412.2H206.519L205.811 414H203.747L207.419 405.504H208.967ZM207.107 410.616H209.183L208.139 407.976L207.107 410.616ZM217.597 405.288C218.653 405.288 219.521 405.584 220.201 406.176L218.917 407.58C218.765 407.388 218.557 407.248 218.293 407.16C218.037 407.064 217.793 407.016 217.561 407.016C217.209 407.016 216.909 407.096 216.661 407.256C216.421 407.416 216.301 407.628 216.301 407.892C216.301 408.124 216.393 408.32 216.577 408.48C216.769 408.632 217.065 408.764 217.465 408.876C218.385 409.148 218.993 409.384 219.289 409.584C219.593 409.784 219.821 410.036 219.973 410.34C220.133 410.636 220.213 410.996 220.213 411.42C220.213 412.276 219.913 412.956 219.313 413.46C218.721 413.964 217.929 414.216 216.937 414.216C215.793 414.216 214.841 413.86 214.081 413.148L215.413 411.684C215.829 412.22 216.373 412.488 217.045 412.488C217.405 412.488 217.709 412.408 217.957 412.248C218.213 412.088 218.341 411.872 218.341 411.6C218.341 411.152 217.957 410.808 217.189 410.568C216.213 410.272 215.577 410.024 215.281 409.824C214.985 409.616 214.757 409.372 214.597 409.092C214.437 408.812 214.357 408.464 214.357 408.048C214.357 407.232 214.657 406.568 215.257 406.056C215.865 405.544 216.645 405.288 217.597 405.288ZM228.748 405.504V407.16H226.324V414H224.452V407.16H222.028V405.504H228.748ZM236.742 405.504V407.232H232.842V408.816H236.526V410.544H232.842V412.272H236.958V414H230.97V405.504H236.742ZM243.005 405.504C244.045 405.504 244.829 405.728 245.357 406.176C245.885 406.616 246.149 407.252 246.149 408.084C246.149 408.708 245.985 409.224 245.657 409.632C245.337 410.04 244.889 410.3 244.313 410.412L246.473 414H244.229L242.453 410.604H241.529V414H239.657V405.504H243.005ZM242.693 409.02C243.245 409.02 243.633 408.948 243.857 408.804C244.089 408.652 244.205 408.408 244.205 408.072C244.205 407.416 243.737 407.088 242.801 407.088H241.529V409.02H242.693Z" fill="#829BC4"/>
<path d="M345.724 405.885V411.165H346.816V412.677H345.724V414.381H343.996V412.677H340.288V411.165L343.756 405.885H345.724ZM343.972 408.237L342.088 411.165H343.996V408.237H343.972ZM355.106 405.885V407.541H352.682V414.381H350.81V407.541H348.386V405.885H355.106ZM359.128 405.885V409.053H362.764V405.885H364.636V414.381H362.764V410.709H359.128V414.381H357.256V405.885H359.128ZM376.44 405.669C377.8 405.669 378.904 406.077 379.752 406.893C380.6 407.709 381.024 408.789 381.024 410.133C381.024 411.469 380.596 412.549 379.74 413.373C378.884 414.189 377.784 414.597 376.44 414.597C375.08 414.597 373.976 414.185 373.128 413.361C372.28 412.537 371.856 411.461 371.856 410.133C371.856 408.805 372.276 407.729 373.116 406.905C373.964 406.081 375.072 405.669 376.44 405.669ZM373.8 410.133C373.8 410.957 374.044 411.621 374.532 412.125C375.028 412.621 375.664 412.869 376.44 412.869C377.232 412.869 377.868 412.613 378.348 412.101C378.836 411.589 379.08 410.933 379.08 410.133C379.08 409.317 378.832 408.657 378.336 408.153C377.848 407.649 377.212 407.397 376.428 407.397C375.644 407.397 375.008 407.653 374.52 408.165C374.04 408.677 373.8 409.333 373.8 410.133ZM389.269 405.885V407.613H385.441V409.341H388.981V411.069H385.441V414.381H383.569V405.885H389.269ZM400.953 405.885V411.609C400.953 412.657 400.725 413.417 400.269 413.889C399.821 414.361 399.145 414.597 398.241 414.597C397.537 414.597 396.961 414.433 396.513 414.105C396.065 413.769 395.773 413.273 395.637 412.617L397.353 412.197C397.385 412.413 397.481 412.593 397.641 412.737C397.809 412.873 397.993 412.941 398.193 412.941C398.497 412.941 398.721 412.825 398.865 412.593C399.009 412.361 399.081 411.961 399.081 411.393V405.885H400.953ZM405.633 405.885V411.057C405.633 411.585 405.797 412.021 406.125 412.365C406.461 412.701 406.869 412.869 407.349 412.869C407.837 412.869 408.241 412.693 408.561 412.341C408.889 411.981 409.053 411.553 409.053 411.057V405.885H410.925V411.141C410.925 412.181 410.605 413.017 409.965 413.649C409.325 414.281 408.453 414.597 407.349 414.597C406.253 414.597 405.381 414.285 404.733 413.661C404.085 413.029 403.761 412.189 403.761 411.141V405.885H405.633ZM415.799 405.885V412.653H419.267V414.381H413.927V405.885H415.799ZM421.389 405.885L423.189 409.065L425.097 405.885H427.317L424.125 410.757V414.381H422.253V410.757L419.061 405.885H421.389Z" fill="#829BC4"/>
<path d="M500.736 405.885V409.053H504.372V405.885H506.244V414.381H504.372V410.709H500.736V414.381H498.864V405.885H500.736ZM513.513 405.885L517.209 414.381H515.097L514.365 412.581H511.065L510.357 414.381H508.293L511.965 405.885H513.513ZM511.653 410.997H513.729L512.685 408.357L511.653 410.997ZM521.208 405.885V412.653H524.676V414.381H519.336V405.885H521.208ZM528.853 405.885V412.653H532.321V414.381H526.981V405.885H528.853ZM538.683 405.669C540.043 405.669 541.147 406.077 541.995 406.893C542.843 407.709 543.267 408.789 543.267 410.133C543.267 411.469 542.839 412.549 541.983 413.373C541.127 414.189 540.027 414.597 538.683 414.597C537.323 414.597 536.219 414.185 535.371 413.361C534.523 412.537 534.099 411.461 534.099 410.133C534.099 408.805 534.519 407.729 535.359 406.905C536.207 406.081 537.315 405.669 538.683 405.669ZM536.043 410.133C536.043 410.957 536.287 411.621 536.775 412.125C537.271 412.621 537.907 412.869 538.683 412.869C539.475 412.869 540.111 412.613 540.591 412.101C541.079 411.589 541.323 410.933 541.323 410.133C541.323 409.317 541.075 408.657 540.579 408.153C540.091 407.649 539.455 407.397 538.671 407.397C537.887 407.397 537.251 407.653 536.763 408.165C536.283 408.677 536.043 409.333 536.043 410.133ZM546.891 405.885L548.247 411.333H548.271L550.047 405.885H551.787L553.551 411.477H553.575L555.003 405.885H556.899L554.415 414.381H552.747L550.875 408.501H550.851L548.979 414.381H547.371L544.851 405.885H546.891ZM564.783 405.885V407.613H560.883V409.197H564.567V410.925H560.883V412.653H564.999V414.381H559.011V405.885H564.783ZM573.542 405.885V407.613H569.642V409.197H573.326V410.925H569.642V412.653H573.758V414.381H567.77V405.885H573.542ZM579 405.885L582.612 411.789H582.636V405.885H584.508V414.381H582.06L578.352 408.333H578.328V414.381H576.456V405.885H579Z" fill="#829BC4"/>
<path d="M660.636 405.885V407.613H656.808V409.341H660.348V411.069H656.808V414.381H654.936V405.885H660.636ZM666.865 405.885L670.561 414.381H668.449L667.717 412.581H664.417L663.709 414.381H661.645L665.317 405.885H666.865ZM665.005 410.997H667.081L666.037 408.357L665.005 410.997ZM677.454 405.885V407.541H675.03V414.381H673.158V407.541H670.734V405.885H677.454ZM681.477 405.885V409.053H685.113V405.885H686.985V414.381H685.113V410.709H681.477V414.381H679.605V405.885H681.477ZM695.754 405.885V407.613H691.854V409.197H695.538V410.925H691.854V412.653H695.97V414.381H689.982V405.885H695.754ZM702.017 405.885C703.057 405.885 703.841 406.109 704.369 406.557C704.897 406.997 705.161 407.633 705.161 408.465C705.161 409.089 704.997 409.605 704.669 410.013C704.349 410.421 703.901 410.681 703.325 410.793L705.485 414.381H703.241L701.465 410.985H700.541V414.381H698.669V405.885H702.017ZM701.705 409.401C702.257 409.401 702.645 409.329 702.869 409.185C703.101 409.033 703.217 408.789 703.217 408.453C703.217 407.797 702.749 407.469 701.813 407.469H700.541V409.401H701.705ZM709.318 405.885V409.269H707.806V405.885H709.318ZM715.281 405.669C716.337 405.669 717.205 405.965 717.885 406.557L716.601 407.961C716.449 407.769 716.241 407.629 715.977 407.541C715.721 407.445 715.477 407.397 715.245 407.397C714.893 407.397 714.593 407.477 714.345 407.637C714.105 407.797 713.985 408.009 713.985 408.273C713.985 408.505 714.077 408.701 714.261 408.861C714.453 409.013 714.749 409.145 715.149 409.257C716.069 409.529 716.677 409.765 716.973 409.965C717.277 410.165 717.505 410.417 717.657 410.721C717.817 411.017 717.897 411.377 717.897 411.801C717.897 412.657 717.597 413.337 716.997 413.841C716.405 414.345 715.613 414.597 714.621 414.597C713.477 414.597 712.525 414.241 711.765 413.529L713.097 412.065C713.513 412.601 714.057 412.869 714.729 412.869C715.089 412.869 715.393 412.789 715.641 412.629C715.897 412.469 716.025 412.253 716.025 411.981C716.025 411.533 715.641 411.189 714.873 410.949C713.897 410.653 713.261 410.405 712.965 410.205C712.669 409.997 712.441 409.753 712.281 409.473C712.121 409.193 712.041 408.845 712.041 408.429C712.041 407.613 712.341 406.949 712.941 406.437C713.549 405.925 714.329 405.669 715.281 405.669ZM728.122 405.885C729.674 405.885 730.886 406.257 731.758 407.001C732.638 407.745 733.078 408.793 733.078 410.145C733.078 410.969 732.874 411.705 732.466 412.353C732.066 412.993 731.506 413.493 730.786 413.853C730.066 414.205 729.254 414.381 728.35 414.381H725.242V405.885H728.122ZM728.146 412.653C729.122 412.653 729.862 412.433 730.366 411.993C730.878 411.545 731.134 410.905 731.134 410.073C731.134 409.321 730.874 408.725 730.354 408.285C729.834 407.837 729.138 407.613 728.266 407.613H727.114V412.653H728.146ZM739.892 405.885L743.588 414.381H741.476L740.744 412.581H737.444L736.736 414.381H734.672L738.344 405.885H739.892ZM738.032 410.997H740.108L739.064 408.357L738.032 410.997ZM745.975 405.885L747.775 409.065L749.683 405.885H751.903L748.711 410.757V414.381H746.839V410.757L743.647 405.885H745.975Z" fill="#829BC4"/>
<path d="M210.678 106.088V112.248H211.952V114.012H210.678V116H208.662V114.012H204.336V112.248L208.382 106.088H210.678ZM208.634 108.832L206.436 112.248H208.662V108.832H208.634ZM216.429 105.92C217.605 105.92 218.51 106.363 219.145 107.25C219.789 108.137 220.111 109.401 220.111 111.044C220.111 112.677 219.794 113.942 219.159 114.838C218.524 115.725 217.614 116.168 216.429 116.168C215.244 116.168 214.334 115.72 213.699 114.824C213.064 113.928 212.747 112.668 212.747 111.044C212.747 109.392 213.069 108.127 213.713 107.25C214.357 106.363 215.262 105.92 216.429 105.92ZM214.847 111.044C214.847 113.172 215.374 114.236 216.429 114.236C216.952 114.236 217.344 113.984 217.605 113.48C217.876 112.976 218.011 112.164 218.011 111.044C218.011 108.916 217.479 107.852 216.415 107.852C215.37 107.852 214.847 108.916 214.847 111.044ZM229.18 105.64L230.356 106.298L224.574 116.448L223.51 115.846L229.18 105.64ZM226.156 108.692C226.156 109.448 225.886 110.101 225.344 110.652C224.812 111.193 224.164 111.464 223.398 111.464C222.624 111.464 221.97 111.198 221.438 110.666C220.906 110.125 220.64 109.467 220.64 108.692C220.64 107.936 220.906 107.287 221.438 106.746C221.98 106.195 222.633 105.92 223.398 105.92C224.145 105.92 224.789 106.186 225.33 106.718C225.881 107.25 226.156 107.908 226.156 108.692ZM223.398 110.036C223.753 110.036 224.061 109.91 224.322 109.658C224.593 109.406 224.728 109.084 224.728 108.692C224.728 108.3 224.593 107.978 224.322 107.726C224.061 107.474 223.753 107.348 223.398 107.348C223.006 107.348 222.684 107.483 222.432 107.754C222.19 108.025 222.068 108.337 222.068 108.692C222.068 109.037 222.19 109.35 222.432 109.63C222.684 109.901 223.006 110.036 223.398 110.036ZM233.198 113.382C233.198 114.147 232.928 114.805 232.386 115.356C231.854 115.897 231.206 116.168 230.44 116.168C229.666 116.168 229.012 115.897 228.48 115.356C227.948 114.805 227.682 114.147 227.682 113.382C227.682 112.626 227.948 111.977 228.48 111.436C229.022 110.885 229.675 110.61 230.44 110.61C231.215 110.61 231.868 110.885 232.4 111.436C232.932 111.977 233.198 112.626 233.198 113.382ZM230.44 114.74C230.814 114.74 231.126 114.614 231.378 114.362C231.64 114.101 231.77 113.774 231.77 113.382C231.77 112.99 231.635 112.668 231.364 112.416C231.103 112.164 230.795 112.038 230.44 112.038C230.048 112.038 229.726 112.173 229.474 112.444C229.232 112.715 229.11 113.027 229.11 113.382C229.11 113.755 229.236 114.077 229.488 114.348C229.75 114.609 230.067 114.74 230.44 114.74Z" fill="#FC336D"/>
<path d="M369.06 163.92C370.068 163.92 370.875 164.167 371.482 164.662C372.098 165.147 372.406 165.819 372.406 166.678C372.406 167.247 372.257 167.723 371.958 168.106C371.659 168.489 371.244 168.736 370.712 168.848V168.89C371.281 168.965 371.734 169.221 372.07 169.66C372.406 170.089 372.574 170.603 372.574 171.2C372.574 172.105 372.247 172.829 371.594 173.37C370.95 173.902 370.087 174.168 369.004 174.168C368.043 174.168 367.254 173.949 366.638 173.51C366.031 173.062 365.635 172.427 365.448 171.606L367.66 171.088C367.819 171.853 368.309 172.236 369.13 172.236C369.559 172.236 369.891 172.124 370.124 171.9C370.357 171.676 370.474 171.363 370.474 170.962C370.474 170.579 370.343 170.295 370.082 170.108C369.821 169.912 369.317 169.814 368.57 169.814H368.024V167.994H368.668C369.219 167.994 369.629 167.91 369.9 167.742C370.171 167.565 370.306 167.28 370.306 166.888C370.306 166.571 370.185 166.319 369.942 166.132C369.699 165.945 369.41 165.852 369.074 165.852C368.775 165.852 368.514 165.931 368.29 166.09C368.066 166.249 367.917 166.477 367.842 166.776L365.532 166.3C365.952 164.713 367.128 163.92 369.06 163.92ZM379.333 164.088V174H377.317V166.44L375.329 168.19L374.139 166.818L377.373 164.088H379.333ZM390.18 163.64L391.356 164.298L385.574 174.448L384.51 173.846L390.18 163.64ZM387.156 166.692C387.156 167.448 386.886 168.101 386.344 168.652C385.812 169.193 385.164 169.464 384.398 169.464C383.624 169.464 382.97 169.198 382.438 168.666C381.906 168.125 381.64 167.467 381.64 166.692C381.64 165.936 381.906 165.287 382.438 164.746C382.98 164.195 383.633 163.92 384.398 163.92C385.145 163.92 385.789 164.186 386.33 164.718C386.881 165.25 387.156 165.908 387.156 166.692ZM384.398 168.036C384.753 168.036 385.061 167.91 385.322 167.658C385.593 167.406 385.728 167.084 385.728 166.692C385.728 166.3 385.593 165.978 385.322 165.726C385.061 165.474 384.753 165.348 384.398 165.348C384.006 165.348 383.684 165.483 383.432 165.754C383.19 166.025 383.068 166.337 383.068 166.692C383.068 167.037 383.19 167.35 383.432 167.63C383.684 167.901 384.006 168.036 384.398 168.036ZM394.198 171.382C394.198 172.147 393.928 172.805 393.386 173.356C392.854 173.897 392.206 174.168 391.44 174.168C390.666 174.168 390.012 173.897 389.48 173.356C388.948 172.805 388.682 172.147 388.682 171.382C388.682 170.626 388.948 169.977 389.48 169.436C390.022 168.885 390.675 168.61 391.44 168.61C392.215 168.61 392.868 168.885 393.4 169.436C393.932 169.977 394.198 170.626 394.198 171.382ZM391.44 172.74C391.814 172.74 392.126 172.614 392.378 172.362C392.64 172.101 392.77 171.774 392.77 171.382C392.77 170.99 392.635 170.668 392.364 170.416C392.103 170.164 391.795 170.038 391.44 170.038C391.048 170.038 390.726 170.173 390.474 170.444C390.232 170.715 390.11 171.027 390.11 171.382C390.11 171.755 390.236 172.077 390.488 172.348C390.75 172.609 391.067 172.74 391.44 172.74Z" fill="#FC336D"/>
<path d="M531.312 216.92C532.283 216.92 533.057 217.191 533.636 217.732C534.224 218.264 534.518 218.987 534.518 219.902C534.518 220.481 534.415 220.966 534.21 221.358C534.014 221.741 533.613 222.203 533.006 222.744L530.206 225.152H534.602V227H527.686V224.774L531.536 221.316C531.881 220.999 532.115 220.742 532.236 220.546C532.357 220.35 532.418 220.145 532.418 219.93C532.418 219.603 532.297 219.342 532.054 219.146C531.811 218.95 531.527 218.852 531.2 218.852C530.845 218.852 530.551 218.964 530.318 219.188C530.085 219.412 529.949 219.72 529.912 220.112L527.812 219.958C527.877 218.969 528.218 218.217 528.834 217.704C529.459 217.181 530.285 216.92 531.312 216.92ZM539.345 216.92C540.353 216.92 541.16 217.167 541.767 217.662C542.383 218.147 542.691 218.819 542.691 219.678C542.691 220.247 542.542 220.723 542.243 221.106C541.944 221.489 541.529 221.736 540.997 221.848V221.89C541.566 221.965 542.019 222.221 542.355 222.66C542.691 223.089 542.859 223.603 542.859 224.2C542.859 225.105 542.532 225.829 541.879 226.37C541.235 226.902 540.372 227.168 539.289 227.168C538.328 227.168 537.539 226.949 536.923 226.51C536.316 226.062 535.92 225.427 535.733 224.606L537.945 224.088C538.104 224.853 538.594 225.236 539.415 225.236C539.844 225.236 540.176 225.124 540.409 224.9C540.642 224.676 540.759 224.363 540.759 223.962C540.759 223.579 540.628 223.295 540.367 223.108C540.106 222.912 539.602 222.814 538.855 222.814H538.309V220.994H538.953C539.504 220.994 539.914 220.91 540.185 220.742C540.456 220.565 540.591 220.28 540.591 219.888C540.591 219.571 540.47 219.319 540.227 219.132C539.984 218.945 539.695 218.852 539.359 218.852C539.06 218.852 538.799 218.931 538.575 219.09C538.351 219.249 538.202 219.477 538.127 219.776L535.817 219.3C536.237 217.713 537.413 216.92 539.345 216.92ZM552.18 216.64L553.356 217.298L547.574 227.448L546.51 226.846L552.18 216.64ZM549.156 219.692C549.156 220.448 548.886 221.101 548.344 221.652C547.812 222.193 547.164 222.464 546.398 222.464C545.624 222.464 544.97 222.198 544.438 221.666C543.906 221.125 543.64 220.467 543.64 219.692C543.64 218.936 543.906 218.287 544.438 217.746C544.98 217.195 545.633 216.92 546.398 216.92C547.145 216.92 547.789 217.186 548.33 217.718C548.881 218.25 549.156 218.908 549.156 219.692ZM546.398 221.036C546.753 221.036 547.061 220.91 547.322 220.658C547.593 220.406 547.728 220.084 547.728 219.692C547.728 219.3 547.593 218.978 547.322 218.726C547.061 218.474 546.753 218.348 546.398 218.348C546.006 218.348 545.684 218.483 545.432 218.754C545.19 219.025 545.068 219.337 545.068 219.692C545.068 220.037 545.19 220.35 545.432 220.63C545.684 220.901 546.006 221.036 546.398 221.036ZM556.198 224.382C556.198 225.147 555.928 225.805 555.386 226.356C554.854 226.897 554.206 227.168 553.44 227.168C552.666 227.168 552.012 226.897 551.48 226.356C550.948 225.805 550.682 225.147 550.682 224.382C550.682 223.626 550.948 222.977 551.48 222.436C552.022 221.885 552.675 221.61 553.44 221.61C554.215 221.61 554.868 221.885 555.4 222.436C555.932 222.977 556.198 223.626 556.198 224.382ZM553.44 225.74C553.814 225.74 554.126 225.614 554.378 225.362C554.64 225.101 554.77 224.774 554.77 224.382C554.77 223.99 554.635 223.668 554.364 223.416C554.103 223.164 553.795 223.038 553.44 223.038C553.048 223.038 552.726 223.173 552.474 223.444C552.232 223.715 552.11 224.027 552.11 224.382C552.11 224.755 552.236 225.077 552.488 225.348C552.75 225.609 553.067 225.74 553.44 225.74Z" fill="#FC336D"/>
<path d="M694.048 280.088V290H692.032V282.44L690.044 284.19L688.854 282.818L692.088 280.088H694.048ZM700.345 279.92C701.353 279.92 702.16 280.167 702.767 280.662C703.383 281.147 703.691 281.819 703.691 282.678C703.691 283.247 703.542 283.723 703.243 284.106C702.944 284.489 702.529 284.736 701.997 284.848V284.89C702.566 284.965 703.019 285.221 703.355 285.66C703.691 286.089 703.859 286.603 703.859 287.2C703.859 288.105 703.532 288.829 702.879 289.37C702.235 289.902 701.372 290.168 700.289 290.168C699.328 290.168 698.539 289.949 697.923 289.51C697.316 289.062 696.92 288.427 696.733 287.606L698.945 287.088C699.104 287.853 699.594 288.236 700.415 288.236C700.844 288.236 701.176 288.124 701.409 287.9C701.642 287.676 701.759 287.363 701.759 286.962C701.759 286.579 701.628 286.295 701.367 286.108C701.106 285.912 700.602 285.814 699.855 285.814H699.309V283.994H699.953C700.504 283.994 700.914 283.91 701.185 283.742C701.456 283.565 701.591 283.28 701.591 282.888C701.591 282.571 701.47 282.319 701.227 282.132C700.984 281.945 700.695 281.852 700.359 281.852C700.06 281.852 699.799 281.931 699.575 282.09C699.351 282.249 699.202 282.477 699.127 282.776L696.817 282.3C697.237 280.713 698.413 279.92 700.345 279.92ZM713.18 279.64L714.356 280.298L708.574 290.448L707.51 289.846L713.18 279.64ZM710.156 282.692C710.156 283.448 709.886 284.101 709.344 284.652C708.812 285.193 708.164 285.464 707.398 285.464C706.624 285.464 705.97 285.198 705.438 284.666C704.906 284.125 704.64 283.467 704.64 282.692C704.64 281.936 704.906 281.287 705.438 280.746C705.98 280.195 706.633 279.92 707.398 279.92C708.145 279.92 708.789 280.186 709.33 280.718C709.881 281.25 710.156 281.908 710.156 282.692ZM707.398 284.036C707.753 284.036 708.061 283.91 708.322 283.658C708.593 283.406 708.728 283.084 708.728 282.692C708.728 282.3 708.593 281.978 708.322 281.726C708.061 281.474 707.753 281.348 707.398 281.348C707.006 281.348 706.684 281.483 706.432 281.754C706.19 282.025 706.068 282.337 706.068 282.692C706.068 283.037 706.19 283.35 706.432 283.63C706.684 283.901 707.006 284.036 707.398 284.036ZM717.198 287.382C717.198 288.147 716.928 288.805 716.386 289.356C715.854 289.897 715.206 290.168 714.44 290.168C713.666 290.168 713.012 289.897 712.48 289.356C711.948 288.805 711.682 288.147 711.682 287.382C711.682 286.626 711.948 285.977 712.48 285.436C713.022 284.885 713.675 284.61 714.44 284.61C715.215 284.61 715.868 284.885 716.4 285.436C716.932 285.977 717.198 286.626 717.198 287.382ZM714.44 288.74C714.814 288.74 715.126 288.614 715.378 288.362C715.64 288.101 715.77 287.774 715.77 287.382C715.77 286.99 715.635 286.668 715.364 286.416C715.103 286.164 714.795 286.038 714.44 286.038C714.048 286.038 713.726 286.173 713.474 286.444C713.232 286.715 713.11 287.027 713.11 287.382C713.11 287.755 713.236 288.077 713.488 288.348C713.75 288.609 714.067 288.74 714.44 288.74Z" fill="#00B9E3"/>
<path d="M461 68C461 67.4477 461.448 67 462 67H472C472.552 67 473 67.4477 473 68V78C473 78.5523 472.552 79 472 79H462C461.448 79 461 78.5523 461 78V68Z" fill="#00B9E3"/>
<path d="M483.736 68.504V71.672H487.372V68.504H489.244V77H487.372V73.328H483.736V77H481.864V68.504H483.736ZM493.765 71.024C494.709 71.024 495.485 71.312 496.093 71.888C496.701 72.464 497.005 73.196 497.005 74.084C497.005 74.988 496.693 75.724 496.069 76.292C495.453 76.86 494.685 77.144 493.765 77.144C492.829 77.144 492.053 76.86 491.437 76.292C490.829 75.724 490.525 74.988 490.525 74.084C490.525 73.188 490.829 72.456 491.437 71.888C492.045 71.312 492.821 71.024 493.765 71.024ZM492.325 74.084C492.325 74.524 492.453 74.88 492.709 75.152C492.965 75.424 493.317 75.56 493.765 75.56C494.205 75.56 494.553 75.428 494.809 75.164C495.073 74.9 495.205 74.54 495.205 74.084C495.205 73.628 495.073 73.268 494.809 73.004C494.553 72.74 494.201 72.608 493.753 72.608C493.313 72.608 492.965 72.748 492.709 73.028C492.453 73.3 492.325 73.652 492.325 74.084ZM499.89 67.928V77H498.09V67.928H499.89ZM502.107 68.288C502.387 68.288 502.631 68.388 502.839 68.588C503.047 68.788 503.151 69.036 503.151 69.332C503.151 69.628 503.047 69.876 502.839 70.076C502.631 70.276 502.387 70.376 502.107 70.376C501.811 70.376 501.563 70.272 501.363 70.064C501.163 69.856 501.063 69.612 501.063 69.332C501.063 69.036 501.167 68.788 501.375 68.588C501.583 68.388 501.827 68.288 502.107 68.288ZM503.007 71.168V77H501.207V71.168H503.007ZM510.42 67.928V77H508.764V76.232H508.74C508.54 76.512 508.276 76.736 507.948 76.904C507.62 77.064 507.284 77.144 506.94 77.144C506.092 77.144 505.404 76.868 504.876 76.316C504.348 75.756 504.084 75.028 504.084 74.132C504.084 73.252 504.332 72.516 504.828 71.924C505.332 71.324 505.972 71.024 506.748 71.024C507.604 71.024 508.22 71.28 508.596 71.792H508.62V67.928H510.42ZM505.884 74.084C505.884 74.524 506.012 74.88 506.268 75.152C506.524 75.424 506.876 75.56 507.324 75.56C507.764 75.56 508.112 75.428 508.368 75.164C508.632 74.9 508.764 74.54 508.764 74.084C508.764 73.604 508.628 73.24 508.356 72.992C508.092 72.736 507.744 72.608 507.312 72.608C506.872 72.608 506.524 72.74 506.268 73.004C506.012 73.268 505.884 73.628 505.884 74.084ZM514.511 71.024C515.439 71.024 516.115 71.248 516.539 71.696C516.963 72.144 517.175 72.896 517.175 73.952V77H515.519V76.268H515.495C515.119 76.852 514.503 77.144 513.647 77.144C513.039 77.144 512.539 76.98 512.147 76.652C511.763 76.316 511.571 75.88 511.571 75.344C511.571 74.88 511.703 74.496 511.967 74.192C512.231 73.88 512.627 73.652 513.155 73.508C513.691 73.364 514.479 73.292 515.519 73.292C515.519 72.98 515.403 72.728 515.171 72.536C514.939 72.344 514.671 72.248 514.367 72.248C513.807 72.248 513.319 72.48 512.903 72.944L511.943 71.96C512.279 71.632 512.675 71.396 513.131 71.252C513.595 71.1 514.055 71.024 514.511 71.024ZM513.299 75.284C513.299 75.476 513.379 75.632 513.539 75.752C513.707 75.864 513.915 75.92 514.163 75.92C514.563 75.92 514.887 75.82 515.135 75.62C515.391 75.412 515.519 75.144 515.519 74.816V74.444H514.979C514.435 74.444 514.019 74.52 513.731 74.672C513.443 74.816 513.299 75.02 513.299 75.284ZM519.648 71.168L521.148 75.02H521.172L522.456 71.168H524.304L521.688 77.888C521.408 78.616 521.176 79.08 520.992 79.28C520.808 79.488 520.572 79.64 520.284 79.736C520.004 79.832 519.64 79.88 519.192 79.88C518.728 79.88 518.28 79.808 517.848 79.664L518.088 78.188C518.36 78.308 518.64 78.368 518.928 78.368C519.168 78.368 519.356 78.336 519.492 78.272C519.636 78.208 519.752 78.116 519.84 77.996C519.928 77.876 520 77.736 520.056 77.576C520.12 77.416 520.188 77.24 520.26 77.048L517.704 71.168H519.648ZM531.979 71.024C532.715 71.024 533.259 71.232 533.611 71.648C533.963 72.056 534.139 72.74 534.139 73.7V77H532.339V74C532.339 73.48 532.259 73.12 532.099 72.92C531.947 72.712 531.715 72.608 531.403 72.608C531.043 72.608 530.771 72.72 530.587 72.944C530.411 73.168 530.323 73.532 530.323 74.036V77H528.523V71.168H530.251V71.96H530.275C530.435 71.664 530.663 71.436 530.959 71.276C531.263 71.108 531.603 71.024 531.979 71.024ZM538.437 71.024C539.381 71.024 540.157 71.312 540.765 71.888C541.373 72.464 541.677 73.196 541.677 74.084C541.677 74.988 541.365 75.724 540.741 76.292C540.125 76.86 539.357 77.144 538.437 77.144C537.501 77.144 536.725 76.86 536.109 76.292C535.501 75.724 535.197 74.988 535.197 74.084C535.197 73.188 535.501 72.456 536.109 71.888C536.717 71.312 537.493 71.024 538.437 71.024ZM536.997 74.084C536.997 74.524 537.125 74.88 537.381 75.152C537.637 75.424 537.989 75.56 538.437 75.56C538.877 75.56 539.225 75.428 539.481 75.164C539.745 74.9 539.877 74.54 539.877 74.084C539.877 73.628 539.745 73.268 539.481 73.004C539.225 72.74 538.873 72.608 538.425 72.608C537.985 72.608 537.637 72.748 537.381 73.028C537.125 73.3 536.997 73.652 536.997 74.084ZM545.126 69.44V71.168H546.71V72.608H545.126V74.66C545.126 75.02 545.19 75.272 545.318 75.416C545.454 75.56 545.674 75.632 545.978 75.632C546.354 75.632 546.598 75.576 546.71 75.464V76.964C546.366 77.084 545.946 77.144 545.45 77.144C544.746 77.144 544.214 76.992 543.854 76.688C543.502 76.376 543.326 75.956 543.326 75.428V72.608H542.174V71.168H543.326V69.44H545.126ZM554.691 71.024C554.939 71.024 555.135 71.044 555.279 71.084V72.728C555.007 72.648 554.751 72.608 554.511 72.608C553.967 72.608 553.575 72.744 553.335 73.016C553.095 73.28 552.975 73.772 552.975 74.492V77H551.175V71.168H552.975V72.104H552.999C553.191 71.744 553.419 71.476 553.683 71.3C553.947 71.116 554.283 71.024 554.691 71.024ZM556.986 68.288C557.266 68.288 557.51 68.388 557.718 68.588C557.926 68.788 558.03 69.036 558.03 69.332C558.03 69.628 557.926 69.876 557.718 70.076C557.51 70.276 557.266 70.376 556.986 70.376C556.69 70.376 556.442 70.272 556.242 70.064C556.042 69.856 555.942 69.612 555.942 69.332C555.942 69.036 556.046 68.788 556.254 68.588C556.462 68.388 556.706 68.288 556.986 68.288ZM557.886 71.168V77H556.086V71.168H557.886ZM562.239 71.024C562.607 71.024 562.979 71.088 563.355 71.216C563.739 71.336 564.059 71.532 564.315 71.804L563.127 73.052C562.903 72.756 562.607 72.608 562.239 72.608C561.791 72.608 561.439 72.744 561.183 73.016C560.927 73.288 560.799 73.644 560.799 74.084C560.799 74.54 560.931 74.9 561.195 75.164C561.459 75.428 561.807 75.56 562.239 75.56C562.591 75.56 562.887 75.412 563.127 75.116L564.315 76.364C563.811 76.884 563.119 77.144 562.239 77.144C561.295 77.144 560.519 76.856 559.911 76.28C559.303 75.704 558.999 74.972 558.999 74.084C558.999 73.188 559.303 72.456 559.911 71.888C560.519 71.312 561.295 71.024 562.239 71.024ZM566.768 67.928V71.96H566.792C566.904 71.68 567.108 71.456 567.404 71.288C567.708 71.112 568.048 71.024 568.424 71.024C569.208 71.024 569.764 71.244 570.092 71.684C570.42 72.124 570.584 72.804 570.584 73.724V77H568.784V74.036C568.784 73.492 568.704 73.12 568.544 72.92C568.384 72.712 568.152 72.608 567.848 72.608C567.488 72.608 567.216 72.72 567.032 72.944C566.856 73.168 566.768 73.532 566.768 74.036V77H564.968V67.928H566.768ZM576.333 68.288C576.613 68.288 576.857 68.388 577.065 68.588C577.273 68.788 577.377 69.036 577.377 69.332C577.377 69.628 577.273 69.876 577.065 70.076C576.857 70.276 576.613 70.376 576.333 70.376C576.037 70.376 575.789 70.272 575.589 70.064C575.389 69.856 575.289 69.612 575.289 69.332C575.289 69.036 575.393 68.788 575.601 68.588C575.809 68.388 576.053 68.288 576.333 68.288ZM577.233 71.168V77H575.433V71.168H577.233ZM581.983 71.024C582.719 71.024 583.263 71.232 583.615 71.648C583.967 72.056 584.143 72.74 584.143 73.7V77H582.343V74C582.343 73.48 582.263 73.12 582.103 72.92C581.951 72.712 581.719 72.608 581.407 72.608C581.047 72.608 580.775 72.72 580.591 72.944C580.415 73.168 580.327 73.532 580.327 74.036V77H578.527V71.168H580.255V71.96H580.279C580.439 71.664 580.667 71.436 580.963 71.276C581.267 71.108 581.607 71.024 581.983 71.024ZM590.3 71.168L591.776 75.128H591.8L593.168 71.168H594.98L592.676 77H590.768L588.356 71.168H590.3ZM596.56 68.288C596.84 68.288 597.084 68.388 597.292 68.588C597.5 68.788 597.604 69.036 597.604 69.332C597.604 69.628 597.5 69.876 597.292 70.076C597.084 70.276 596.84 70.376 596.56 70.376C596.264 70.376 596.016 70.272 595.816 70.064C595.616 69.856 595.516 69.612 595.516 69.332C595.516 69.036 595.62 68.788 595.828 68.588C596.036 68.388 596.28 68.288 596.56 68.288ZM597.46 71.168V77H595.66V71.168H597.46ZM600.997 71.024C601.957 71.024 602.677 71.28 603.157 71.792L602.053 72.884C601.781 72.556 601.437 72.392 601.021 72.392C600.821 72.392 600.657 72.436 600.529 72.524C600.409 72.612 600.349 72.728 600.349 72.872C600.349 73.016 600.429 73.128 600.589 73.208C600.757 73.28 601.037 73.356 601.429 73.436C602.149 73.572 602.653 73.788 602.941 74.084C603.237 74.372 603.385 74.752 603.385 75.224C603.385 75.824 603.149 76.296 602.677 76.64C602.205 76.976 601.545 77.144 600.697 77.144C599.697 77.144 598.933 76.88 598.405 76.352L599.497 75.14C599.857 75.564 600.281 75.776 600.769 75.776C601.313 75.776 601.585 75.636 601.585 75.356C601.585 75.196 601.501 75.076 601.333 74.996C601.165 74.916 600.941 74.848 600.661 74.792C600.069 74.68 599.641 74.556 599.377 74.42C599.121 74.276 598.917 74.092 598.765 73.868C598.621 73.636 598.549 73.344 598.549 72.992C598.549 72.4 598.773 71.924 599.221 71.564C599.669 71.204 600.261 71.024 600.997 71.024ZM606.108 71.168V74.06C606.108 74.492 606.136 74.796 606.192 74.972C606.256 75.148 606.356 75.292 606.492 75.404C606.628 75.508 606.812 75.56 607.044 75.56C607.428 75.56 607.704 75.444 607.872 75.212C608.04 74.972 608.124 74.608 608.124 74.12V71.168H609.924V77H608.196V76.208H608.172C608.012 76.504 607.78 76.736 607.476 76.904C607.18 77.064 606.84 77.144 606.456 77.144C605.688 77.144 605.136 76.932 604.8 76.508C604.472 76.076 604.308 75.392 604.308 74.456V71.168H606.108ZM613.851 71.024C614.779 71.024 615.455 71.248 615.879 71.696C616.303 72.144 616.515 72.896 616.515 73.952V77H614.859V76.268H614.835C614.459 76.852 613.843 77.144 612.987 77.144C612.379 77.144 611.879 76.98 611.487 76.652C611.103 76.316 610.911 75.88 610.911 75.344C610.911 74.88 611.043 74.496 611.307 74.192C611.571 73.88 611.967 73.652 612.495 73.508C613.031 73.364 613.819 73.292 614.859 73.292C614.859 72.98 614.743 72.728 614.511 72.536C614.279 72.344 614.011 72.248 613.707 72.248C613.147 72.248 612.659 72.48 612.243 72.944L611.283 71.96C611.619 71.632 612.015 71.396 612.471 71.252C612.935 71.1 613.395 71.024 613.851 71.024ZM612.639 75.284C612.639 75.476 612.719 75.632 612.879 75.752C613.047 75.864 613.255 75.92 613.503 75.92C613.903 75.92 614.227 75.82 614.475 75.62C614.731 75.412 614.859 75.144 614.859 74.816V74.444H614.319C613.775 74.444 613.359 74.52 613.071 74.672C612.783 74.816 612.639 75.02 612.639 75.284ZM619.468 67.928V77H617.668V67.928H619.468ZM624.132 74.084C624.132 73.188 624.436 72.456 625.044 71.888C625.652 71.312 626.444 71.024 627.42 71.024C628.236 71.024 628.888 71.308 629.376 71.876C629.864 72.436 630.108 73.192 630.108 74.144V74.648H625.932C626.004 74.984 626.156 75.256 626.388 75.464C626.62 75.672 626.92 75.776 627.288 75.776C627.784 75.776 628.212 75.54 628.572 75.068L629.832 75.992C629.544 76.36 629.172 76.644 628.716 76.844C628.268 77.044 627.82 77.144 627.372 77.144C626.444 77.144 625.672 76.86 625.056 76.292C624.44 75.716 624.132 74.98 624.132 74.084ZM628.308 73.424C628.308 73.088 628.2 72.82 627.984 72.62C627.768 72.42 627.504 72.32 627.192 72.32C626.856 72.32 626.568 72.42 626.328 72.62C626.096 72.82 625.964 73.088 625.932 73.424H628.308ZM633.026 67.928V77H631.226V67.928H633.026ZM634.14 74.084C634.14 73.188 634.444 72.456 635.052 71.888C635.66 71.312 636.452 71.024 637.428 71.024C638.244 71.024 638.896 71.308 639.384 71.876C639.872 72.436 640.116 73.192 640.116 74.144V74.648H635.94C636.012 74.984 636.164 75.256 636.396 75.464C636.628 75.672 636.928 75.776 637.296 75.776C637.792 75.776 638.22 75.54 638.58 75.068L639.84 75.992C639.552 76.36 639.18 76.644 638.724 76.844C638.276 77.044 637.828 77.144 637.38 77.144C636.452 77.144 635.68 76.86 635.064 76.292C634.448 75.716 634.14 74.98 634.14 74.084ZM638.316 73.424C638.316 73.088 638.208 72.82 637.992 72.62C637.776 72.42 637.512 72.32 637.2 72.32C636.864 72.32 636.576 72.42 636.336 72.62C636.104 72.82 635.972 73.088 635.94 73.424H638.316ZM644.666 71.024C645.554 71.024 646.154 71.372 646.466 72.068C646.674 71.692 646.926 71.424 647.222 71.264C647.518 71.104 647.882 71.024 648.314 71.024C649.69 71.024 650.378 71.848 650.378 73.496V77H648.578V73.58C648.578 72.932 648.314 72.608 647.786 72.608C647.058 72.608 646.694 73.032 646.694 73.88V77H644.894V73.808C644.894 73.36 644.822 73.048 644.678 72.872C644.542 72.696 644.346 72.608 644.09 72.608C643.73 72.608 643.458 72.72 643.274 72.944C643.098 73.16 643.01 73.524 643.01 74.036V77H641.21V71.168H642.938V71.96H642.962C643.122 71.664 643.354 71.436 643.658 71.276C643.962 71.108 644.298 71.024 644.666 71.024ZM651.472 74.084C651.472 73.188 651.776 72.456 652.384 71.888C652.992 71.312 653.784 71.024 654.76 71.024C655.576 71.024 656.228 71.308 656.716 71.876C657.204 72.436 657.448 73.192 657.448 74.144V74.648H653.272C653.344 74.984 653.496 75.256 653.728 75.464C653.96 75.672 654.26 75.776 654.628 75.776C655.124 75.776 655.552 75.54 655.912 75.068L657.172 75.992C656.884 76.36 656.512 76.644 656.056 76.844C655.608 77.044 655.16 77.144 654.712 77.144C653.784 77.144 653.012 76.86 652.396 76.292C651.78 75.716 651.472 74.98 651.472 74.084ZM655.648 73.424C655.648 73.088 655.54 72.82 655.324 72.62C655.108 72.42 654.844 72.32 654.532 72.32C654.196 72.32 653.908 72.42 653.668 72.62C653.436 72.82 653.304 73.088 653.272 73.424H655.648ZM661.998 71.024C662.734 71.024 663.278 71.232 663.63 71.648C663.982 72.056 664.158 72.74 664.158 73.7V77H662.358V74C662.358 73.48 662.278 73.12 662.118 72.92C661.966 72.712 661.734 72.608 661.422 72.608C661.062 72.608 660.79 72.72 660.606 72.944C660.43 73.168 660.342 73.532 660.342 74.036V77H658.542V71.168H660.27V71.96H660.294C660.454 71.664 660.682 71.436 660.978 71.276C661.282 71.108 661.622 71.024 661.998 71.024ZM667.821 69.44V71.168H669.405V72.608H667.821V74.66C667.821 75.02 667.885 75.272 668.013 75.416C668.149 75.56 668.369 75.632 668.673 75.632C669.049 75.632 669.293 75.576 669.405 75.464V76.964C669.061 77.084 668.641 77.144 668.145 77.144C667.441 77.144 666.909 76.992 666.549 76.688C666.197 76.376 666.021 75.956 666.021 75.428V72.608H664.869V71.168H666.021V69.44H667.821ZM672.564 71.024C673.524 71.024 674.244 71.28 674.724 71.792L673.62 72.884C673.348 72.556 673.004 72.392 672.588 72.392C672.388 72.392 672.224 72.436 672.096 72.524C671.976 72.612 671.916 72.728 671.916 72.872C671.916 73.016 671.996 73.128 672.156 73.208C672.324 73.28 672.604 73.356 672.996 73.436C673.716 73.572 674.22 73.788 674.508 74.084C674.804 74.372 674.952 74.752 674.952 75.224C674.952 75.824 674.716 76.296 674.244 76.64C673.772 76.976 673.112 77.144 672.264 77.144C671.264 77.144 670.5 76.88 669.972 76.352L671.064 75.14C671.424 75.564 671.848 75.776 672.336 75.776C672.88 75.776 673.152 75.636 673.152 75.356C673.152 75.196 673.068 75.076 672.9 74.996C672.732 74.916 672.508 74.848 672.228 74.792C671.636 74.68 671.208 74.556 670.944 74.42C670.688 74.276 670.484 74.092 670.332 73.868C670.188 73.636 670.116 73.344 670.116 72.992C670.116 72.4 670.34 71.924 670.788 71.564C671.236 71.204 671.828 71.024 672.564 71.024Z" fill="#1A1A1A"/>
<path d="M228 68C228 67.4477 228.448 67 229 67H239C239.552 67 240 67.4477 240 68V78C240 78.5523 239.552 79 239 79H229C228.448 79 228 78.5523 228 78V68Z" fill="#FC336D"/>
<path d="M250.736 68.504V71.672H254.372V68.504H256.244V77H254.372V73.328H250.736V77H248.864V68.504H250.736ZM260.765 71.024C261.709 71.024 262.485 71.312 263.093 71.888C263.701 72.464 264.005 73.196 264.005 74.084C264.005 74.988 263.693 75.724 263.069 76.292C262.453 76.86 261.685 77.144 260.765 77.144C259.829 77.144 259.053 76.86 258.437 76.292C257.829 75.724 257.525 74.988 257.525 74.084C257.525 73.188 257.829 72.456 258.437 71.888C259.045 71.312 259.821 71.024 260.765 71.024ZM259.325 74.084C259.325 74.524 259.453 74.88 259.709 75.152C259.965 75.424 260.317 75.56 260.765 75.56C261.205 75.56 261.553 75.428 261.809 75.164C262.073 74.9 262.205 74.54 262.205 74.084C262.205 73.628 262.073 73.268 261.809 73.004C261.553 72.74 261.201 72.608 260.753 72.608C260.313 72.608 259.965 72.748 259.709 73.028C259.453 73.3 259.325 73.652 259.325 74.084ZM266.89 67.928V77H265.09V67.928H266.89ZM269.107 68.288C269.387 68.288 269.631 68.388 269.839 68.588C270.047 68.788 270.151 69.036 270.151 69.332C270.151 69.628 270.047 69.876 269.839 70.076C269.631 70.276 269.387 70.376 269.107 70.376C268.811 70.376 268.563 70.272 268.363 70.064C268.163 69.856 268.063 69.612 268.063 69.332C268.063 69.036 268.167 68.788 268.375 68.588C268.583 68.388 268.827 68.288 269.107 68.288ZM270.007 71.168V77H268.207V71.168H270.007ZM277.42 67.928V77H275.764V76.232H275.74C275.54 76.512 275.276 76.736 274.948 76.904C274.62 77.064 274.284 77.144 273.94 77.144C273.092 77.144 272.404 76.868 271.876 76.316C271.348 75.756 271.084 75.028 271.084 74.132C271.084 73.252 271.332 72.516 271.828 71.924C272.332 71.324 272.972 71.024 273.748 71.024C274.604 71.024 275.22 71.28 275.596 71.792H275.62V67.928H277.42ZM272.884 74.084C272.884 74.524 273.012 74.88 273.268 75.152C273.524 75.424 273.876 75.56 274.324 75.56C274.764 75.56 275.112 75.428 275.368 75.164C275.632 74.9 275.764 74.54 275.764 74.084C275.764 73.604 275.628 73.24 275.356 72.992C275.092 72.736 274.744 72.608 274.312 72.608C273.872 72.608 273.524 72.74 273.268 73.004C273.012 73.268 272.884 73.628 272.884 74.084ZM281.511 71.024C282.439 71.024 283.115 71.248 283.539 71.696C283.963 72.144 284.175 72.896 284.175 73.952V77H282.519V76.268H282.495C282.119 76.852 281.503 77.144 280.647 77.144C280.039 77.144 279.539 76.98 279.147 76.652C278.763 76.316 278.571 75.88 278.571 75.344C278.571 74.88 278.703 74.496 278.967 74.192C279.231 73.88 279.627 73.652 280.155 73.508C280.691 73.364 281.479 73.292 282.519 73.292C282.519 72.98 282.403 72.728 282.171 72.536C281.939 72.344 281.671 72.248 281.367 72.248C280.807 72.248 280.319 72.48 279.903 72.944L278.943 71.96C279.279 71.632 279.675 71.396 280.131 71.252C280.595 71.1 281.055 71.024 281.511 71.024ZM280.299 75.284C280.299 75.476 280.379 75.632 280.539 75.752C280.707 75.864 280.915 75.92 281.163 75.92C281.563 75.92 281.887 75.82 282.135 75.62C282.391 75.412 282.519 75.144 282.519 74.816V74.444H281.979C281.435 74.444 281.019 74.52 280.731 74.672C280.443 74.816 280.299 75.02 280.299 75.284ZM286.648 71.168L288.148 75.02H288.172L289.456 71.168H291.304L288.688 77.888C288.408 78.616 288.176 79.08 287.992 79.28C287.808 79.488 287.572 79.64 287.284 79.736C287.004 79.832 286.64 79.88 286.192 79.88C285.728 79.88 285.28 79.808 284.848 79.664L285.088 78.188C285.36 78.308 285.64 78.368 285.928 78.368C286.168 78.368 286.356 78.336 286.492 78.272C286.636 78.208 286.752 78.116 286.84 77.996C286.928 77.876 287 77.736 287.056 77.576C287.12 77.416 287.188 77.24 287.26 77.048L284.704 71.168H286.648ZM299.039 71.024C299.287 71.024 299.483 71.044 299.627 71.084V72.728C299.355 72.648 299.099 72.608 298.859 72.608C298.315 72.608 297.923 72.744 297.683 73.016C297.443 73.28 297.323 73.772 297.323 74.492V77H295.523V71.168H297.323V72.104H297.347C297.539 71.744 297.767 71.476 298.031 71.3C298.295 71.116 298.631 71.024 299.039 71.024ZM301.333 68.288C301.613 68.288 301.857 68.388 302.065 68.588C302.273 68.788 302.377 69.036 302.377 69.332C302.377 69.628 302.273 69.876 302.065 70.076C301.857 70.276 301.613 70.376 301.333 70.376C301.037 70.376 300.789 70.272 300.589 70.064C300.389 69.856 300.289 69.612 300.289 69.332C300.289 69.036 300.393 68.788 300.601 68.588C300.809 68.388 301.053 68.288 301.333 68.288ZM302.233 71.168V77H300.433V71.168H302.233ZM306.587 71.024C306.955 71.024 307.327 71.088 307.703 71.216C308.087 71.336 308.407 71.532 308.663 71.804L307.475 73.052C307.251 72.756 306.955 72.608 306.587 72.608C306.139 72.608 305.787 72.744 305.531 73.016C305.275 73.288 305.147 73.644 305.147 74.084C305.147 74.54 305.279 74.9 305.543 75.164C305.807 75.428 306.155 75.56 306.587 75.56C306.939 75.56 307.235 75.412 307.475 75.116L308.663 76.364C308.159 76.884 307.467 77.144 306.587 77.144C305.643 77.144 304.867 76.856 304.259 76.28C303.651 75.704 303.347 74.972 303.347 74.084C303.347 73.188 303.651 72.456 304.259 71.888C304.867 71.312 305.643 71.024 306.587 71.024ZM311.116 67.928V71.96H311.14C311.252 71.68 311.456 71.456 311.752 71.288C312.056 71.112 312.396 71.024 312.772 71.024C313.556 71.024 314.112 71.244 314.44 71.684C314.768 72.124 314.932 72.804 314.932 73.724V77H313.132V74.036C313.132 73.492 313.052 73.12 312.892 72.92C312.732 72.712 312.5 72.608 312.196 72.608C311.836 72.608 311.564 72.72 311.38 72.944C311.204 73.168 311.116 73.532 311.116 74.036V77H309.316V67.928H311.116ZM320.681 68.288C320.961 68.288 321.205 68.388 321.413 68.588C321.621 68.788 321.725 69.036 321.725 69.332C321.725 69.628 321.621 69.876 321.413 70.076C321.205 70.276 320.961 70.376 320.681 70.376C320.385 70.376 320.137 70.272 319.937 70.064C319.737 69.856 319.637 69.612 319.637 69.332C319.637 69.036 319.741 68.788 319.949 68.588C320.157 68.388 320.401 68.288 320.681 68.288ZM321.581 71.168V77H319.781V71.168H321.581ZM326.33 71.024C327.066 71.024 327.61 71.232 327.962 71.648C328.314 72.056 328.49 72.74 328.49 73.7V77H326.69V74C326.69 73.48 326.61 73.12 326.45 72.92C326.298 72.712 326.066 72.608 325.754 72.608C325.394 72.608 325.122 72.72 324.938 72.944C324.762 73.168 324.674 73.532 324.674 74.036V77H322.874V71.168H324.602V71.96H324.626C324.786 71.664 325.014 71.436 325.31 71.276C325.614 71.108 325.954 71.024 326.33 71.024ZM334.648 71.168L336.124 75.128H336.148L337.516 71.168H339.328L337.024 77H335.116L332.704 71.168H334.648ZM340.908 68.288C341.188 68.288 341.432 68.388 341.64 68.588C341.848 68.788 341.952 69.036 341.952 69.332C341.952 69.628 341.848 69.876 341.64 70.076C341.432 70.276 341.188 70.376 340.908 70.376C340.612 70.376 340.364 70.272 340.164 70.064C339.964 69.856 339.864 69.612 339.864 69.332C339.864 69.036 339.968 68.788 340.176 68.588C340.384 68.388 340.628 68.288 340.908 68.288ZM341.808 71.168V77H340.008V71.168H341.808ZM345.345 71.024C346.305 71.024 347.025 71.28 347.505 71.792L346.401 72.884C346.129 72.556 345.785 72.392 345.369 72.392C345.169 72.392 345.005 72.436 344.877 72.524C344.757 72.612 344.697 72.728 344.697 72.872C344.697 73.016 344.777 73.128 344.937 73.208C345.105 73.28 345.385 73.356 345.777 73.436C346.497 73.572 347.001 73.788 347.289 74.084C347.585 74.372 347.733 74.752 347.733 75.224C347.733 75.824 347.497 76.296 347.025 76.64C346.553 76.976 345.893 77.144 345.045 77.144C344.045 77.144 343.281 76.88 342.753 76.352L343.845 75.14C344.205 75.564 344.629 75.776 345.117 75.776C345.661 75.776 345.933 75.636 345.933 75.356C345.933 75.196 345.849 75.076 345.681 74.996C345.513 74.916 345.289 74.848 345.009 74.792C344.417 74.68 343.989 74.556 343.725 74.42C343.469 74.276 343.265 74.092 343.113 73.868C342.969 73.636 342.897 73.344 342.897 72.992C342.897 72.4 343.121 71.924 343.569 71.564C344.017 71.204 344.609 71.024 345.345 71.024ZM350.456 71.168V74.06C350.456 74.492 350.484 74.796 350.54 74.972C350.604 75.148 350.704 75.292 350.84 75.404C350.976 75.508 351.16 75.56 351.392 75.56C351.776 75.56 352.052 75.444 352.22 75.212C352.388 74.972 352.472 74.608 352.472 74.12V71.168H354.272V77H352.544V76.208H352.52C352.36 76.504 352.128 76.736 351.824 76.904C351.528 77.064 351.188 77.144 350.804 77.144C350.036 77.144 349.484 76.932 349.148 76.508C348.82 76.076 348.656 75.392 348.656 74.456V71.168H350.456ZM358.198 71.024C359.126 71.024 359.802 71.248 360.226 71.696C360.65 72.144 360.862 72.896 360.862 73.952V77H359.206V76.268H359.182C358.806 76.852 358.19 77.144 357.334 77.144C356.726 77.144 356.226 76.98 355.834 76.652C355.45 76.316 355.258 75.88 355.258 75.344C355.258 74.88 355.39 74.496 355.654 74.192C355.918 73.88 356.314 73.652 356.842 73.508C357.378 73.364 358.166 73.292 359.206 73.292C359.206 72.98 359.09 72.728 358.858 72.536C358.626 72.344 358.358 72.248 358.054 72.248C357.494 72.248 357.006 72.48 356.59 72.944L355.63 71.96C355.966 71.632 356.362 71.396 356.818 71.252C357.282 71.1 357.742 71.024 358.198 71.024ZM356.986 75.284C356.986 75.476 357.066 75.632 357.226 75.752C357.394 75.864 357.602 75.92 357.85 75.92C358.25 75.92 358.574 75.82 358.822 75.62C359.078 75.412 359.206 75.144 359.206 74.816V74.444H358.666C358.122 74.444 357.706 74.52 357.418 74.672C357.13 74.816 356.986 75.02 356.986 75.284ZM363.815 67.928V77H362.015V67.928H363.815ZM368.479 74.084C368.479 73.188 368.783 72.456 369.391 71.888C369.999 71.312 370.791 71.024 371.767 71.024C372.583 71.024 373.235 71.308 373.723 71.876C374.211 72.436 374.455 73.192 374.455 74.144V74.648H370.279C370.351 74.984 370.503 75.256 370.735 75.464C370.967 75.672 371.267 75.776 371.635 75.776C372.131 75.776 372.559 75.54 372.919 75.068L374.179 75.992C373.891 76.36 373.519 76.644 373.063 76.844C372.615 77.044 372.167 77.144 371.719 77.144C370.791 77.144 370.019 76.86 369.403 76.292C368.787 75.716 368.479 74.98 368.479 74.084ZM372.655 73.424C372.655 73.088 372.547 72.82 372.331 72.62C372.115 72.42 371.851 72.32 371.539 72.32C371.203 72.32 370.915 72.42 370.675 72.62C370.443 72.82 370.311 73.088 370.279 73.424H372.655ZM377.374 67.928V77H375.574V67.928H377.374ZM378.487 74.084C378.487 73.188 378.791 72.456 379.399 71.888C380.007 71.312 380.799 71.024 381.775 71.024C382.591 71.024 383.243 71.308 383.731 71.876C384.219 72.436 384.463 73.192 384.463 74.144V74.648H380.287C380.359 74.984 380.511 75.256 380.743 75.464C380.975 75.672 381.275 75.776 381.643 75.776C382.139 75.776 382.567 75.54 382.927 75.068L384.187 75.992C383.899 76.36 383.527 76.644 383.071 76.844C382.623 77.044 382.175 77.144 381.727 77.144C380.799 77.144 380.027 76.86 379.411 76.292C378.795 75.716 378.487 74.98 378.487 74.084ZM382.663 73.424C382.663 73.088 382.555 72.82 382.339 72.62C382.123 72.42 381.859 72.32 381.547 72.32C381.211 72.32 380.923 72.42 380.683 72.62C380.451 72.82 380.319 73.088 380.287 73.424H382.663ZM389.014 71.024C389.902 71.024 390.502 71.372 390.814 72.068C391.022 71.692 391.274 71.424 391.57 71.264C391.866 71.104 392.23 71.024 392.662 71.024C394.038 71.024 394.726 71.848 394.726 73.496V77H392.926V73.58C392.926 72.932 392.662 72.608 392.134 72.608C391.406 72.608 391.042 73.032 391.042 73.88V77H389.242V73.808C389.242 73.36 389.17 73.048 389.026 72.872C388.89 72.696 388.694 72.608 388.438 72.608C388.078 72.608 387.806 72.72 387.622 72.944C387.446 73.16 387.358 73.524 387.358 74.036V77H385.558V71.168H387.286V71.96H387.31C387.47 71.664 387.702 71.436 388.006 71.276C388.31 71.108 388.646 71.024 389.014 71.024ZM395.819 74.084C395.819 73.188 396.123 72.456 396.731 71.888C397.339 71.312 398.131 71.024 399.107 71.024C399.923 71.024 400.575 71.308 401.063 71.876C401.551 72.436 401.795 73.192 401.795 74.144V74.648H397.619C397.691 74.984 397.843 75.256 398.075 75.464C398.307 75.672 398.607 75.776 398.975 75.776C399.471 75.776 399.899 75.54 400.259 75.068L401.519 75.992C401.231 76.36 400.859 76.644 400.403 76.844C399.955 77.044 399.507 77.144 399.059 77.144C398.131 77.144 397.359 76.86 396.743 76.292C396.127 75.716 395.819 74.98 395.819 74.084ZM399.995 73.424C399.995 73.088 399.887 72.82 399.671 72.62C399.455 72.42 399.191 72.32 398.879 72.32C398.543 72.32 398.255 72.42 398.015 72.62C397.783 72.82 397.651 73.088 397.619 73.424H399.995ZM406.346 71.024C407.082 71.024 407.626 71.232 407.978 71.648C408.33 72.056 408.506 72.74 408.506 73.7V77H406.706V74C406.706 73.48 406.626 73.12 406.466 72.92C406.314 72.712 406.082 72.608 405.77 72.608C405.41 72.608 405.138 72.72 404.954 72.944C404.778 73.168 404.69 73.532 404.69 74.036V77H402.89V71.168H404.618V71.96H404.642C404.802 71.664 405.03 71.436 405.326 71.276C405.63 71.108 405.97 71.024 406.346 71.024ZM412.169 69.44V71.168H413.753V72.608H412.169V74.66C412.169 75.02 412.233 75.272 412.361 75.416C412.497 75.56 412.717 75.632 413.021 75.632C413.397 75.632 413.641 75.576 413.753 75.464V76.964C413.409 77.084 412.989 77.144 412.493 77.144C411.789 77.144 411.257 76.992 410.897 76.688C410.545 76.376 410.369 75.956 410.369 75.428V72.608H409.217V71.168H410.369V69.44H412.169ZM416.911 71.024C417.871 71.024 418.591 71.28 419.071 71.792L417.967 72.884C417.695 72.556 417.351 72.392 416.935 72.392C416.735 72.392 416.571 72.436 416.443 72.524C416.323 72.612 416.263 72.728 416.263 72.872C416.263 73.016 416.343 73.128 416.503 73.208C416.671 73.28 416.951 73.356 417.343 73.436C418.063 73.572 418.567 73.788 418.855 74.084C419.151 74.372 419.299 74.752 419.299 75.224C419.299 75.824 419.063 76.296 418.591 76.64C418.119 76.976 417.459 77.144 416.611 77.144C415.611 77.144 414.847 76.88 414.319 76.352L415.411 75.14C415.771 75.564 416.195 75.776 416.683 75.776C417.227 75.776 417.499 75.636 417.499 75.356C417.499 75.196 417.415 75.076 417.247 74.996C417.079 74.916 416.855 74.848 416.575 74.792C415.983 74.68 415.555 74.556 415.291 74.42C415.035 74.276 414.831 74.092 414.679 73.868C414.535 73.636 414.463 73.344 414.463 72.992C414.463 72.4 414.687 71.924 415.135 71.564C415.583 71.204 416.175 71.024 416.911 71.024Z" fill="#1A1A1A"/>
<g style="mix-blend-mode:multiply" opacity="0.5" clip-path="url(#clip0_3651_5884)">
<path d="M66.3014 449.395L65.2849 446.467H59.6732C59.5186 446.919 59.3547 447.412 59.186 447.942L58.7223 449.395H56.0007L61.0269 435.823H63.9452L68.8403 449.395H66.2967H66.3014ZM62.4697 438.77C62.1324 439.692 61.8045 440.583 61.4954 441.451C61.1862 442.319 60.8443 443.237 60.4789 444.215H64.4792L62.4697 438.77V438.77Z" fill="#666666"/>
<path d="M77.0097 435.864H71.8898V449.422H74.2553V444.804H77.0097C79.8155 444.804 81.1787 443.653 81.1787 441.282V439.363C81.1787 437.006 79.8155 435.864 77.0097 435.864V435.864ZM74.2553 437.998H76.9535C78.5555 437.998 78.8131 438.409 78.8131 439.386V441.287C78.8131 442.246 78.5461 442.675 76.9535 442.675H74.2553V437.998Z" fill="#666666"/>
<path d="M89.0342 435.864H83.9143V449.422H86.2799V444.804H89.0342C91.8401 444.804 93.2032 443.653 93.2032 441.282V439.363C93.2032 437.006 91.8401 435.864 89.0342 435.864V435.864ZM86.2799 437.998H88.978C90.58 437.998 90.8376 438.409 90.8376 439.386V441.287C90.8376 442.246 90.5706 442.675 88.978 442.675H86.2799V437.998Z" fill="#666666"/>
<path d="M100.197 448.07H106.619V449.427H98.7961V435.883H100.197V448.07V448.07Z" fill="#666666"/>
<path d="M118.924 445.485C118.924 447.741 117.486 449.596 113.898 449.596C110.31 449.596 108.872 447.746 108.872 445.485V439.747C108.872 437.491 110.31 435.636 113.898 435.636C117.486 435.636 118.924 437.486 118.924 439.747V445.485ZM110.174 445.503C110.174 447.449 111.392 448.541 113.95 448.541C116.507 448.541 117.721 447.449 117.721 445.503V439.725C117.721 437.779 116.503 436.687 113.95 436.687C111.397 436.687 110.174 437.779 110.174 439.725V445.503Z" fill="#666666"/>
<path d="M121.056 435.883H122.447L126.939 448.07L131.441 435.883H132.865L127.871 449.432H126.026L121.06 435.883H121.056Z" fill="#666666"/>
<path d="M137.17 449.432H135.769V435.883H137.17V449.432Z" fill="#666666"/>
<path d="M143.882 437.509V449.427H142.566V435.883H144.632L150.679 447.476V435.883H151.995V449.432H150.323L143.878 437.514L143.882 437.509Z" fill="#666666"/>
<path d="M45.5081 447.641C43.7702 447.641 42.3556 449.02 42.3556 450.715C42.3556 452.41 43.7702 453.789 45.5081 453.789C47.246 453.789 48.6606 452.41 48.6606 450.715C48.6606 449.02 47.246 447.641 45.5081 447.641V447.641ZM47.3724 450.715C47.3724 451.72 46.5339 452.533 45.5081 452.533C44.4822 452.533 43.6438 451.715 43.6438 450.715C43.6438 449.715 44.4822 448.897 45.5081 448.897C46.5339 448.897 47.3724 449.715 47.3724 450.715Z" fill="#666666"/>
<path d="M24.1525 447.641C22.4146 447.641 21 449.02 21 450.715C21 452.41 22.4146 453.789 24.1525 453.789C25.8904 453.789 27.305 452.41 27.305 450.715C27.305 449.02 25.8904 447.641 24.1525 447.641V447.641ZM26.0168 450.715C26.0168 451.72 25.1784 452.533 24.1525 452.533C23.1267 452.533 22.2882 451.715 22.2882 450.715C22.2882 449.715 23.1267 448.897 24.1525 448.897C25.1784 448.897 26.0168 449.715 26.0168 450.715Z" fill="#666666"/>
<path d="M34.8326 430.794C33.0947 430.794 31.6801 432.173 31.6801 433.868C31.6801 435.563 33.0947 436.943 34.8326 436.943C36.5704 436.943 37.9851 435.563 37.9851 433.868C37.9851 432.173 36.5704 430.794 34.8326 430.794ZM36.6969 433.868C36.6969 434.873 35.8584 435.686 34.8326 435.686C33.8067 435.686 32.9682 434.869 32.9682 433.868C32.9682 432.868 33.8067 432.05 34.8326 432.05C35.8584 432.05 36.6969 432.868 36.6969 433.868Z" fill="#666666"/>
<path d="M44.3416 447.983L37.3761 435.755L37.3105 435.636L37.2215 435.741C36.9826 436.033 36.6875 436.266 36.3549 436.444L36.2706 436.49L36.3175 436.572L42.482 447.399C40.3319 446.928 37.6572 446.672 34.9169 446.672C31.8955 446.672 29.2114 446.924 27.1316 447.394L33.3008 436.568L33.3476 436.486L33.2633 436.44C32.9261 436.266 32.6356 436.029 32.3967 435.736L32.3077 435.631L32.2422 435.75L25.2767 447.979L25.2205 448.075L25.3235 448.111C25.6655 448.225 25.9793 448.641 26.2557 448.879L26.3025 448.92L26.3587 448.892H26.3822C28.6025 448.289 31.5583 447.97 34.9216 447.97C37.9476 447.97 40.8846 448.294 43.1986 448.883L43.2455 448.97L43.3345 448.901L43.3532 448.888C43.6343 448.646 43.9481 448.23 44.2901 448.116L44.3931 448.079L44.3369 447.983H44.3416Z" fill="#666666"/>
</g>
<defs>
<linearGradient id="paint0_linear_3651_5884" x1="415.5" y1="131.5" x2="415.5" y2="389.5" gradientUnits="userSpaceOnUse">
<stop stop-color="#FC336D" stop-opacity="0.48"/>
<stop offset="1" stop-color="#FC336D" stop-opacity="0"/>
</linearGradient>
<clipPath id="clip0_3651_5884">
<rect width="131" height="23" fill="white" transform="translate(21 430.794)"/>
</clipPath>
</defs>
</svg>
