<svg xmlns="http://www.w3.org/2000/svg" xmlns:xlink="http://www.w3.org/1999/xlink" viewBox="0 0 292 56" preserveAspectRatio="none"><defs><linearGradient id="a" x1="42.28" y1="27.179" x2="76.867" y2="27.179" gradientUnits="userSpaceOnUse"><stop offset="0" stop-color="#590da1"/><stop offset="1" stop-color="#6441e2"/></linearGradient><linearGradient id="b" x1="42.28" y1="27.179" x2="50.927" y2="27.179" gradientUnits="userSpaceOnUse"><stop offset="0" stop-color="#17b6d5"/><stop offset="0.7" stop-color="#6478e2"/></linearGradient><linearGradient id="c" x1="50.927" y1="27.179" x2="59.573" y2="27.179" xlink:href="#a"/><linearGradient id="d" x1="59.573" y1="27.179" x2="68.22" y2="27.179" xlink:href="#b"/><linearGradient id="e" x1="68.22" y1="27.179" x2="76.867" y2="27.179" xlink:href="#a"/></defs><title>MAX</title><rect width="292" height="56" style="fill:none"/><rect width="192" height="56" style="fill:#fff"/><polygon points="68.22 9.91 59.573 21.423 50.927 9.91 42.28 21.423 42.28 44.449 50.927 32.936 59.573 44.449 68.22 32.936 76.867 44.449 76.867 21.423 68.22 9.91" style="fill:url(#a)"/><polygon points="50.927 9.91 42.28 21.423 42.28 44.449 50.927 32.936 50.927 9.91" style="fill:url(#b)"/><polygon points="50.927 9.91 59.573 21.423 59.573 44.449 50.927 32.936 50.927 9.91" style="fill:url(#c)"/><polygon points="68.22 9.91 59.573 21.423 59.573 44.449 68.22 32.936 68.22 9.91" style="fill:url(#d)"/><polygon points="68.22 9.91 76.867 21.423 76.867 44.449 68.22 32.936 68.22 9.91" style="fill:url(#e)"/><path d="M108.607,25.585h-.1l-3.54,10.135h-2.345L99.079,25.585h-.1l-.817,10.24H93.864l1.618-17.277h4.476l3.833,9.968,3.832-9.968h4.545l1.549,17.277h-4.293Z"/><path d="M129.5,33.108h-6.423l-.864,2.717h-4.323l5.879-17.292h5.039l5.88,17.292h-4.323ZM128.311,29.4l-2.025-6.348L124.26,29.4Z"/><polygon points="142.534 35.815 137.686 35.815 149.883 18.547 154.731 18.547 142.534 35.815"/><polygon points="150.158 35.815 155.28 35.815 143.084 18.547 137.961 18.547 150.158 35.815"/></svg>