<svg width="136" height="136" viewBox="0 0 136 136" fill="none" xmlns="http://www.w3.org/2000/svg">
<circle cx="68" cy="68" r="68" fill="#E6E4F8"/>
<path fill-rule="evenodd" clip-rule="evenodd" d="M32.986 60.0665L28.857 58.043C26.5973 56.2898 23.2116 59.4255 25.2683 62.8515L26.2248 64.9837C27.8347 62.6548 30.2094 60.8948 32.986 60.0665ZM34.961 84.6189C35.4959 84.6881 36.0413 84.7238 36.5951 84.7238C36.9777 84.7238 37.3568 84.7037 37.731 84.6701V84.6836H51.7814C45.2268 85.7386 40.0461 86.5436 37.8225 86.8803C36.6903 87.0528 35.5556 86.13 34.961 84.6189Z" fill="#105FFB"/>
<path fill-rule="evenodd" clip-rule="evenodd" d="M92.137 53.6957C93.4322 53.3534 94.7895 53.1689 96.1921 53.1689C104.92 53.1689 111.997 60.2423 111.997 68.9666C111.997 77.691 104.921 84.7644 96.1921 84.7644C95.6519 84.7644 95.1183 84.7359 94.5932 84.6839H51.7781C69.8834 81.7696 98.4731 76.9472 104.177 74.8173C106.275 74.0338 106.214 69.576 104.09 68.2992L90.8955 60.3668C89.5228 59.5413 88.0658 59.2209 86.6587 59.4356L45.2215 65.7541C44.6828 65.8363 44.1237 65.6702 43.6177 65.2776L32.9845 60.0666C34.1272 59.7258 35.338 59.5427 36.5915 59.5427C37.9287 59.5427 39.2155 59.7524 40.4252 60.1383C42.7338 57.4975 46.1262 55.8265 49.9112 55.8265C49.949 55.8265 49.9863 55.8277 50.0236 55.829C50.0609 55.8302 50.0983 55.8315 50.136 55.8315C52.9245 46.6693 61.4424 40.0002 71.5207 40.0002C80.7987 40.0002 88.7546 45.6509 92.137 53.6957ZM26.2231 64.9837C24.819 67.0147 23.9966 69.4784 23.9966 72.1342C23.9966 78.5352 28.7738 83.8189 34.9594 84.6192C34.8831 84.4254 34.8158 84.2219 34.7584 84.0097L26.2231 64.9837Z" fill="#00B6E0"/>
<path fill-rule="evenodd" clip-rule="evenodd" d="M51.7801 84.6835C69.8854 81.7692 98.475 76.9468 104.179 74.817C106.277 74.0335 106.216 69.5757 104.092 68.2989L90.8975 60.3665C89.5248 59.541 88.0677 59.2205 86.6607 59.4353L45.2235 65.7537C44.6847 65.8359 44.1256 65.6698 43.6197 65.2772L32.9864 60.0663C30.2098 60.8946 27.835 62.6545 26.225 64.9833L34.7603 84.0094C34.8177 84.2215 34.8851 84.4251 34.9614 84.6189C35.4962 84.6881 36.0415 84.7238 36.5951 84.7238C36.9776 84.7238 37.3568 84.7037 37.731 84.6701V84.6835H51.7801Z" fill="#0044DC"/>
<path d="M54.573 76.228L36.6478 78.8118C36.0975 78.8906 35.5875 78.5098 35.5086 77.9595C35.4298 77.4092 35.8106 76.8991 36.3609 76.8203L54.2861 74.2365C54.8364 74.1577 55.3464 74.5385 55.4253 75.0888C55.5041 75.6391 55.1233 76.1492 54.573 76.228Z" fill="white"/>
<path d="M45.0769 72.5056L27.1517 75.0894C26.6014 75.1682 26.0914 74.7874 26.0125 74.2371C25.9337 73.6868 26.3145 73.1767 26.8648 73.0979L44.79 70.5141C45.3403 70.4353 45.8503 70.8161 45.9292 71.3664C46.008 71.9167 45.6272 72.4268 45.0769 72.5056Z" fill="white"/>
</svg>
