<svg width="136" height="136" viewBox="0 0 136 136" fill="none" xmlns="http://www.w3.org/2000/svg">
<circle cx="68" cy="68" r="68" fill="#E6E4F8"/>
<path fill-rule="evenodd" clip-rule="evenodd" d="M111.404 59.0129L98.7836 42.5564C97.462 40.2655 95.8489 38.1644 93.985 36.3005C88.5559 30.8714 81.0529 27.5096 72.7637 27.5096C56.1851 27.5096 42.7448 40.95 42.7448 57.5285C42.7448 63.0118 44.2155 68.1561 46.7843 72.5821C51.9829 81.5288 61.6684 87.5474 72.7569 87.5474C81.1275 87.5474 88.6983 84.1179 94.1476 78.594V42.1023C94.1476 40.8619 94.1476 78.5872 94.1476 78.5872C98.133 74.5408 100.973 69.3761 102.159 63.6015H109.14C111.506 63.6015 112.841 60.8903 111.404 59.0197V59.0129Z" fill="#6441E2"/>
<g style="mix-blend-mode:multiply">
<path fill-rule="evenodd" clip-rule="evenodd" d="M98.1191 45.1319C98.1191 43.634 96.872 42.4208 95.3403 42.4208H69.9031C68.3646 42.4208 67.1242 43.634 67.1242 45.1319V52.7231C67.1242 54.221 65.8771 55.4342 64.3453 55.4342H55.5613C54.0227 55.4342 52.7824 56.6474 52.7824 58.1453V67.0852C52.7824 68.5831 51.5353 69.7964 50.0035 69.7964H41.7143C40.1757 69.7964 38.9354 71.0096 38.9354 72.5075V79.2311C38.9354 80.729 37.6882 81.9422 36.1565 81.9422H32.9505H26.7827C25.2442 81.9422 24.0038 83.1554 24.0038 84.6533V91.7632V105.78C24.0038 107.278 25.251 108.491 26.7827 108.491H95.3335C96.872 108.491 98.1124 107.278 98.1124 105.78V45.1319H98.1191Z" fill="#105FFB"/>
</g>
<path d="M82.0968 58.8096C85.0241 58.8096 87.3971 56.4366 87.3971 53.5093C87.3971 50.5821 85.0241 48.2091 82.0968 48.2091C79.1696 48.2091 76.7966 50.5821 76.7966 53.5093C76.7966 56.4366 79.1696 58.8096 82.0968 58.8096Z" fill="white"/>
</svg>
