<svg xmlns="http://www.w3.org/2000/svg" xmlns:xlink="http://www.w3.org/1999/xlink" viewBox="0 0 280 280" preserveAspectRatio="none"><defs><linearGradient id="linear-gradient" x1="4.76408" y1="4.76408" x2="284.76408" y2="284.76408" gradientUnits="userSpaceOnUse"><stop offset="0.20689" stop-color="#fff"/><stop offset="0.23967" stop-color="#fff" stop-opacity="0.91754"/><stop offset="0.30749" stop-color="#fff" stop-opacity="0.70421"/><stop offset="0.40376" stop-color="#fff" stop-opacity="0.36451"/><stop offset="0.5" stop-color="#fff" stop-opacity="0"/></linearGradient></defs><g id="Layer_2" data-name="Layer 2"><g id="Layer_1-2" data-name="Layer 1"><rect width="280" height="280" style="fill:url(#linear-gradient)"/><path d="M73.59935,64.86785a2.516,2.516,0,0,0,.96667-2.06742c0-1.84437-1.36823-2.95969-3.43563-2.95969h-4.1049V70.25181H71.413c2.112,0,3.4952-1.20469,3.4952-3.04906A2.609,2.609,0,0,0,73.59935,64.86785Zm-3.75426,3.09276a.30918.30918,0,1,1-.61835,0v-5.8288a.30918.30918,0,0,1,.61835,0Z"/><rect x="43.17506" y="59.84074" width="2.96674" height="10.41107"/><rect x="46.76014" y="67.26623" width="3.28054" height="2.98558"/><path d="M59.85774,59.84074H56.61545L53.17972,70.25181h2.38885L57.352,64.8723a.30916.30916,0,1,1,.58694.19445L56.22,70.25181h7.07335Z"/><path d="M32.32419,44.76541a20.66817,20.66817,0,0,0-.234,3.71842c.09038,3.73862.772,7.58586,3.08235,10.61893a15.66384,15.66384,0,0,0,2.45462,2.54871c.34763.28878,1.42916,1.3462,1.95919.91293.3884-.31749.10239-1.37858.05272-1.77624a6.144,6.144,0,0,1-.08779-2.36824c.39154-1.35573,2.22917-1.301,3.37937-1.28852,9.45616.10285,18.79275-1.41383,28.16634-2.40411q3.50584-.37038,7.01184-.73936c3.3719-.36032,6.57048-.48843,9.70438-1.95774a5.75806,5.75806,0,0,0,1.89826-1.27942c1.26591-1.41319,1.53057-3.95783,1.75719-5.76447a49.7992,49.7992,0,0,0,.39293-6.49233,22.86572,22.86572,0,0,0-.55408-6.543c-1.04294-3.21852-4.68251-4.43346-7.69222-4.88716a38.2825,38.2825,0,0,0-10.11342.28171q-6.73948.77867-13.47661,1.57509c-3.72461.44485-7.52037.67961-11.19158,1.46341a28.37864,28.37864,0,0,0-10.78379,4.88672A15.0844,15.0844,0,0,0,35.22121,37.921,14.28879,14.28879,0,0,0,32.32419,44.76541Z"/><path d="M33.76909,30.52667c.523.30346,1.26287-.53166,1.473-.47248a.45461.45461,0,0,1,.23018.199c.44436.6427.561,1.52775,1.18739,1.9948a.47634.47634,0,0,0,.351.11823c.168-.029.27226-.19728.33444-.356a17.00043,17.00043,0,0,0-.16633-4.124c-.09853-.19518-.27637-.40454-.49037-.35974-.25591.05358-.89438.73347-1.16061.52333s.076-2.1562-.2403-2.38157a1.75625,1.75625,0,0,0-2.03775-.01259C32.89451,25.98389,32.89451,29.84543,33.76909,30.52667Z"/><path d="M24.47839,39.483c.88946.64068,3.22341,2.03441,3.56711,1.49023a2.49909,2.49909,0,0,0,.132-1.68675c-.06044-.38974.63432-.1568.63432-.1568a8.0523,8.0523,0,0,0,1.54541.04607c.48742-.07361.96046-.40073.53069-.89313-.55394-.63466-3.44393-1.892-4.074-1.72013s-.41775,1.15387-.38839,1.28232c.03718.16265-.07806.25192-.21922.15744l-.80555-.53912c-.32278-.216-.73037-.43922-1.07631-.26254a1.761,1.761,0,0,0-.7426,1.35089c.0092.29784.30744.47877.51582.64375Q24.282,39.34122,24.47839,39.483Z"/><path d="M28.21719,33.772c.30733-.01533.41737-.45744.51232-.68221.3387-.80169,1.14781.27267,1.39286.60414a3.99893,3.99893,0,0,0,1.31119,1.4246c.85867.41791.78544-.82591.69987-1.32348a18.85055,18.85055,0,0,0-1.88055-3.57c-.17831-.29922-.45125-1.00333-.92308-.80878-.37216.15345-.40365.83485-.61574,1.03775s-1.09581-1.4802-1.49812-1.86428a.66531.66531,0,0,0-.79372-.15976c-.24139.15181-1.334,1.38372-1.21034,2.16252S27.44005,33.70757,28.21719,33.772Z"/><path d="M83.39233,64.05361l-.60142.34279a.29641.29641,0,1,1-.29367-.515l3.37883-1.942a4.07231,4.07231,0,0,0-7.66975,1.77347c.1072,1.82233,1.80893,2.93449,3.17145,2.1557l.74435-.44245a.2964.2964,0,1,1,.30293.50955l-3.65323,2.171a3.53206,3.53206,0,0,0,3.32035,2.14509c2.253.04146,4.34144-1.40693,4.34144-3.45706C86.43361,64.15506,84.43569,63.48156,83.39233,64.05361Z"/><path d="M44.52352,41.85015a2.40353,2.40353,0,0,0-1.40335-.31631c-.44056.05-.76928.29585-.736.589.12342,1.08621,3.60389.45318,3.96051,3.59314A3.69558,3.69558,0,0,1,42.84,49.66678a5.18687,5.18687,0,0,1-3.48109-.80856.2851.2851,0,0,1-.07753-.42216l1.12426-1.74778a.32018.32018,0,0,1,.46123-.12694,3.13535,3.13535,0,0,0,1.9016.5123c.68927-.07835.93012-.44738.89518-.75542-.14678-1.2913-3.61629-.68907-3.96465-3.75667-.20674-1.81932,1.20674-3.3771,3.51086-3.63883a4.82057,4.82057,0,0,1,2.89622.5032.28792.28792,0,0,1,.09241.42092l-1.22866,1.87844A.33733.33733,0,0,1,44.52352,41.85015Z" style="fill:#fff"/><path d="M47.88325,48.64838l.44057-9.86087a.31362.31362,0,0,1,.30432-.33141l3.5952-.40851A3.0218,3.0218,0,0,1,55.76955,40.87a3.9593,3.9593,0,0,1-3.4848,4.2607l-1.57019.17842-.13128,3.03246a.31558.31558,0,0,1-.30412.33161l-2.11329.24C47.96057,48.93658,47.87374,48.82742,47.88325,48.64838Zm5.18959-7.30825c-.06-.52843-.47013-.86831-1.27724-.77673l-.88051.10007-.09406,2.1809.89518-.10172C52.6114,42.64114,53.15636,42.07364,53.07284,41.34013Z" style="fill:#fff"/><path d="M55.66184,47.76478l3.33141-10.18939a.40224.40224,0,0,1,.363-.338l2.803-.31838c.19061-.02171.28861.056.32685.25967l2.46476,9.53092a.22492.22492,0,0,1-.20137.31982l-2.216.2516c-.19083.02171-.344-.02026-.40005-.25139l-.3283-1.44966-2.89064.32851-.435,1.53608a.43134.43134,0,0,1-.42154.34484l-2.21584.25181C55.66577,48.06124,55.6083,47.94877,55.66184,47.76478Zm3.95225-4.46249,1.74654-.19847-.74612-2.903Z" style="fill:#fff"/><path d="M74.2306,45.95229s-2.09841.23837-2.33347.265a.44289.44289,0,0,1-.48811-.24147l-1.64441-2.83069-.38144.04321-.146,3.03412a.31561.31561,0,0,1-.30432.33161l-2.11309.24c-.19082.02171-.29026-.07091-.28261-.26483l.44056-9.86088a.32571.32571,0,0,1,.30412-.3314l3.78623-.43a2.99282,2.99282,0,0,1,3.35808,2.73992A4.093,4.093,0,0,1,72.532,42.38458l1.87058,3.25119C74.49606,45.80323,74.45078,45.92727,74.2306,45.95229ZM69.4731,40.7106l.90987-.10337c.895-.10171,1.43684-.69816,1.35683-1.40273-.06-.52843-.43932-.85673-1.18772-.77176l-.98305.11164C69.56634,38.78255,69.4731,40.7106,69.4731,40.7106Z" style="fill:#fff"/><path d="M82.19609,44.75051l-2.28717-3.51582-.93653,1.17656-.12218,2.71925a.31562.31562,0,0,1-.30432.33161l-2.11309.24c-.19082.02171-.29026-.07091-.28262-.26483l.44057-9.86088a.31538.31538,0,0,1,.30411-.3314l2.1133-.24c.19061-.0217.29026.07092.28261.26484l-.161,3.42237,2.9785-3.74241a.8057.8057,0,0,1,.58322-.36324l2.74406-.31176c.17614-.02006.2057.11019.07732.28819l-3.61113,4.58715,3.39053,5.24871c.10668.15113.03329.29316-.15732.31487l-2.42134.275A.48137.48137,0,0,1,82.19609,44.75051Z" style="fill:#fff"/></g></g></svg>