<svg xmlns="http://www.w3.org/2000/svg" viewBox="0 0 292 56" preserveAspectRatio="none"><title>AppDiscovery</title><rect width="292" height="56" style="fill:#fff"/><circle cx="61.225" cy="28.001" r="17.343" style="fill:#fc326c"/><circle cx="61.225" cy="28.001" r="11.545" style="fill:#ff5b3b"/><circle cx="61.225" cy="28.001" r="5.747" style="fill:#ff9e1d"/><path d="M78.568,28a17.254,17.254,0,0,0-3.245-10.093L62.11,26.583a1.593,1.593,0,0,0,0,2.871l13.2,8.664A17.257,17.257,0,0,0,78.568,28Z" style="fill:#fff;opacity:0.6000000000000001"/><path d="M107.665,31.775H101.2l-.871,2.735H95.977L101.9,17.1h5.074l5.918,17.408h-4.352Zm-1.194-3.731-2.039-6.391-2.039,6.391Z"/><path d="M127.635,28.293c0,3.706-2.686,6.565-5.944,6.565a4.67,4.67,0,0,1-3.7-1.516v6.142h-3.73V22.076h3.73v1.169a4.671,4.671,0,0,1,3.7-1.517C124.949,21.728,127.635,24.588,127.635,28.293Zm-3.73,0a2.96,2.96,0,1,0-5.919,0,2.96,2.96,0,1,0,5.919,0Z"/><path d="M143.129,28.293c0,3.706-2.686,6.565-5.944,6.565a4.672,4.672,0,0,1-3.706-1.516v6.142h-3.73V22.076h3.73v1.169a4.673,4.673,0,0,1,3.706-1.517C140.443,21.728,143.129,24.588,143.129,28.293Zm-3.731,0a2.96,2.96,0,1,0-5.919,0,2.96,2.96,0,1,0,5.919,0Z"/><path d="M160.785,25.806a8.429,8.429,0,0,1-8.455,8.7h-6.963V17.1h6.963A8.429,8.429,0,0,1,160.785,25.806Zm-3.829,0c0-2.984-1.89-4.874-4.626-4.874h-2.984v9.749h2.984C155.066,30.681,156.956,28.79,156.956,25.806Z"/><path d="M162.527,18.744a2.238,2.238,0,1,1,2.238,2.238A2.262,2.262,0,0,1,162.527,18.744Zm.373,3.332h3.73V34.51H162.9Z"/><path d="M178.891,30.78c0,2.86-2.487,4.078-5.173,4.078-2.487,0-4.377-.945-5.347-2.959l3.233-1.84a2.042,2.042,0,0,0,2.114,1.467c.9,0,1.343-.273,1.343-.771,0-1.368-6.118-.647-6.118-4.949,0-2.71,2.288-4.078,4.875-4.078a5.44,5.44,0,0,1,4.849,2.661l-3.183,1.716a1.806,1.806,0,0,0-1.666-1.095c-.647,0-1.045.249-1.045.7C172.773,27.124,178.891,26.179,178.891,30.78Z"/><path d="M180.01,28.293a6.577,6.577,0,0,1,12.211-3.382l-3.258,1.89a2.576,2.576,0,0,0-2.412-1.393,2.736,2.736,0,0,0-2.81,2.885,2.736,2.736,0,0,0,2.81,2.885,2.549,2.549,0,0,0,2.412-1.393l3.258,1.865a6.347,6.347,0,0,1-5.62,3.208A6.441,6.441,0,0,1,180.01,28.293Z"/><path d="M192.843,28.293a6.59,6.59,0,1,1,6.59,6.565A6.517,6.517,0,0,1,192.843,28.293Zm9.45,0a2.861,2.861,0,1,0-5.72,0,2.861,2.861,0,1,0,5.72,0Z"/><path d="M219.7,22.076,215.1,34.51h-4.227l-4.6-12.434H210.4l2.586,7.883,2.587-7.883Z"/><path d="M226.89,31.526a3.247,3.247,0,0,0,2.387-.945l2.984,1.716a6.308,6.308,0,0,1-5.421,2.561c-4.253,0-6.889-2.859-6.889-6.565a6.375,6.375,0,0,1,6.615-6.565,6.278,6.278,0,0,1,6.317,6.565,7.259,7.259,0,0,1-.149,1.492h-8.828A2.829,2.829,0,0,0,226.89,31.526ZM229.178,27a2.8,2.8,0,0,0-5.347,0Z"/><path d="M242.458,21.827v4.228c-1.542-.249-3.73.373-3.73,2.835v5.62H235V22.076h3.731v2.213A3.734,3.734,0,0,1,242.458,21.827Z"/><path d="M256.882,22.076l-4.253,12.061c-1.392,3.954-3.606,5.521-7.087,5.347V36c1.741,0,2.561-.547,3.108-2.064L243.7,22.076h4.1l2.76,7.61,2.338-7.61Z"/></svg>