<svg xmlns="http://www.w3.org/2000/svg" xmlns:xlink="http://www.w3.org/1999/xlink" viewBox="0 0 292 118.433"><defs><linearGradient id="linear-gradient" x1="42.28" y1="594.446" x2="76.867" y2="594.446" gradientTransform="matrix(1, 0, 0, -1, 0, 621.626)" gradientUnits="userSpaceOnUse"><stop offset="0" stop-color="#590da1"/><stop offset="1" stop-color="#6441e2"/></linearGradient><linearGradient id="linear-gradient-2" x1="42.28" y1="594.446" x2="50.927" y2="594.446" gradientTransform="matrix(1, 0, 0, -1, 0, 621.626)" gradientUnits="userSpaceOnUse"><stop offset="0" stop-color="#17b6d5"/><stop offset="0.7" stop-color="#6478e2"/></linearGradient><linearGradient id="linear-gradient-3" x1="50.927" y1="594.446" x2="59.573" y2="594.446" xlink:href="#linear-gradient"/><linearGradient id="linear-gradient-4" x1="59.573" y1="594.446" x2="68.22" y2="594.446" xlink:href="#linear-gradient-2"/><linearGradient id="linear-gradient-5" x1="68.22" y1="594.446" x2="76.867" y2="594.446" xlink:href="#linear-gradient"/></defs><g id="Layer_2" data-name="Layer 2"><g id="Layer_1-2" data-name="Layer 1"><rect y="62.433" width="292" height="56" style="fill:#fff"/><circle cx="61.225" cy="90.434" r="17.343" style="fill:#fc326c"/><circle cx="61.225" cy="90.434" r="11.545" style="fill:#ff5b3b"/><circle cx="61.225" cy="90.434" r="5.747" style="fill:#ff9e1d"/><path d="M78.568,90.433A17.255,17.255,0,0,0,75.323,80.34L62.11,89.016a1.593,1.593,0,0,0,0,2.871l13.2,8.664A17.253,17.253,0,0,0,78.568,90.433Z" style="fill:#fff;opacity:0.6000000238418579;isolation:isolate"/><path d="M107.665,94.208H101.2l-.871,2.735H95.977l5.923-17.41h5.074l5.918,17.408H108.54Zm-1.194-3.731-2.039-6.391-2.039,6.391Z"/><path d="M127.635,90.726c0,3.706-2.686,6.565-5.944,6.565a4.672,4.672,0,0,1-3.7-1.516v6.142h-3.73V84.509h3.73v1.169a4.67,4.67,0,0,1,3.7-1.517C124.949,84.161,127.635,87.021,127.635,90.726Zm-3.73,0a2.96,2.96,0,1,0-5.919-.109c0,.036,0,.072,0,.109a2.96,2.96,0,0,0,5.919.109C123.906,90.8,123.906,90.762,123.905,90.726Z"/><path d="M143.129,90.726c0,3.706-2.686,6.565-5.944,6.565a4.673,4.673,0,0,1-3.706-1.516v6.142h-3.73V84.509h3.73v1.169a4.674,4.674,0,0,1,3.706-1.517C140.443,84.161,143.129,87.021,143.129,90.726Zm-3.731,0a2.96,2.96,0,0,0-5.919-.109c0,.036,0,.073,0,.109a2.96,2.96,0,0,0,5.919.108Q139.4,90.78,139.4,90.726Z"/><path d="M160.785,88.239a8.428,8.428,0,0,1-8.154,8.695c-.1,0-.2,0-.3,0h-6.963V79.533h6.963a8.429,8.429,0,0,1,8.46,8.4C160.79,88.034,160.788,88.136,160.785,88.239Zm-3.829,0c0-2.984-1.89-4.874-4.626-4.874h-2.984v9.749h2.984c2.736,0,4.626-1.891,4.626-4.875Z"/><path d="M162.527,81.177a2.238,2.238,0,1,1,2.238,2.238A2.262,2.262,0,0,1,162.527,81.177Zm.373,3.332h3.73V96.943H162.9Z"/><path d="M178.891,93.213c0,2.86-2.487,4.078-5.173,4.078-2.487,0-4.377-.945-5.347-2.959l3.233-1.84a2.042,2.042,0,0,0,2.114,1.467c.9,0,1.343-.273,1.343-.771,0-1.368-6.118-.647-6.118-4.949,0-2.71,2.288-4.078,4.875-4.078a5.44,5.44,0,0,1,4.849,2.661l-3.183,1.716a1.8,1.8,0,0,0-1.666-1.095c-.647,0-1.045.249-1.045.7C172.773,89.557,178.891,88.612,178.891,93.213Z"/><path d="M180.01,90.726a6.577,6.577,0,0,1,12.211-3.382l-3.258,1.89a2.575,2.575,0,0,0-2.412-1.393,2.736,2.736,0,0,0-2.813,2.657q0,.114,0,.228a2.736,2.736,0,0,0,2.582,2.882q.114.006.228,0a2.55,2.55,0,0,0,2.412-1.393l3.258,1.865a6.35,6.35,0,0,1-5.62,3.208A6.441,6.441,0,0,1,180.011,91C180.008,90.91,180.008,90.818,180.01,90.726Z"/><path d="M192.843,90.726a6.59,6.59,0,1,1,6.615,6.565h-.025a6.518,6.518,0,0,1-6.59-6.444Zm9.45,0a2.861,2.861,0,1,0-5.72-.152c0,.051,0,.1,0,.152a2.861,2.861,0,0,0,5.72.151C202.294,90.827,202.294,90.776,202.293,90.726Z"/><path d="M219.7,84.509l-4.6,12.434h-4.227l-4.6-12.434H210.4l2.586,7.883,2.587-7.883Z"/><path d="M226.89,93.959a3.25,3.25,0,0,0,2.387-.945l2.984,1.716a6.311,6.311,0,0,1-5.421,2.561c-4.253,0-6.889-2.859-6.889-6.565a6.375,6.375,0,0,1,6.177-6.567c.146,0,.292,0,.438,0a6.278,6.278,0,0,1,6.323,6.232q0,.167-.006.333a7.261,7.261,0,0,1-.149,1.492h-8.828A2.829,2.829,0,0,0,226.89,93.959Zm2.288-4.526a2.8,2.8,0,0,0-5.347,0Z"/><path d="M242.458,84.26v4.228c-1.542-.249-3.73.373-3.73,2.835v5.62H235V84.509h3.731v2.213A3.734,3.734,0,0,1,242.458,84.26Z"/><path d="M256.882,84.509,252.629,96.57c-1.392,3.954-3.606,5.521-7.087,5.347V98.433c1.741,0,2.561-.547,3.108-2.064l-4.95-11.86h4.1l2.76,7.61,2.338-7.61Z"/><rect width="292" height="56" style="fill:none"/><rect width="192" height="56" style="fill:#fff"/><polygon points="68.22 9.91 59.573 21.423 50.927 9.91 42.28 21.423 42.28 44.449 50.927 32.936 59.573 44.449 68.22 32.936 76.867 44.449 76.867 21.423 68.22 9.91" style="fill:url(#linear-gradient)"/><polygon points="50.927 9.91 42.28 21.423 42.28 44.449 50.927 32.936 50.927 9.91" style="fill:url(#linear-gradient-2)"/><polygon points="50.927 9.91 59.573 21.423 59.573 44.449 50.927 32.936 50.927 9.91" style="fill:url(#linear-gradient-3)"/><polygon points="68.22 9.91 59.573 21.423 59.573 44.449 68.22 32.936 68.22 9.91" style="fill:url(#linear-gradient-4)"/><polygon points="68.22 9.91 76.867 21.423 76.867 44.449 68.22 32.936 68.22 9.91" style="fill:url(#linear-gradient-5)"/><path d="M108.607,25.585h-.1l-3.54,10.135h-2.345L99.079,25.585h-.1l-.817,10.24h-4.3l1.618-17.277h4.476l3.833,9.968,3.832-9.968h4.545l1.549,17.277h-4.293Z"/><path d="M129.5,33.108h-6.423l-.864,2.717H117.89l5.879-17.292h5.039l5.88,17.292h-4.323ZM128.311,29.4l-2.025-6.348L124.26,29.4Z"/><polygon points="142.534 35.815 137.686 35.815 149.883 18.547 154.731 18.547 142.534 35.815"/><polygon points="150.158 35.815 155.28 35.815 143.084 18.547 137.961 18.547 150.158 35.815"/></g></g></svg>