<svg width="840" height="473" viewBox="0 0 840 473" fill="none" xmlns="http://www.w3.org/2000/svg">
<path d="M182.221 35V371.288" stroke="#DDDDDD" stroke-width="0.86382" stroke-miterlimit="10"/>
<path d="M369.755 35V371.288" stroke="#DDDDDD" stroke-width="0.86382" stroke-miterlimit="10"/>
<path d="M560.66 35V203.144V371.288" stroke="#DDDDDD" stroke-width="0.86382" stroke-miterlimit="10"/>
<path d="M751.564 35V371.288" stroke="#DDDDDD" stroke-width="0.86382" stroke-miterlimit="10"/>
<path d="M182.653 73.4066V43.1729L675.894 43.1729C677.802 43.1729 679.349 44.7198 679.349 46.6281V69.9513C679.349 71.8596 677.802 73.4066 675.894 73.4066H182.653Z" fill="url(#paint0_linear_3651_5742)"/>
<path d="M182.653 113.627V83.3932H624.928C626.836 83.3932 628.383 84.9402 628.383 86.8485V110.172C628.383 112.08 626.836 113.627 624.928 113.627H182.653Z" fill="url(#paint1_linear_3651_5742)"/>
<path d="M182.653 153.848V123.614H387.378C389.286 123.614 390.833 125.161 390.833 127.069V150.392C390.833 152.301 389.286 153.848 387.378 153.848H182.653Z" fill="url(#paint2_linear_3651_5742)"/>
<path d="M182.653 194.068V163.834H383.059C384.967 163.834 386.514 165.381 386.514 167.29V190.613C386.514 192.521 384.967 194.068 383.059 194.068H182.653Z" fill="url(#paint3_linear_3651_5742)"/>
<path d="M182.653 234.289V204.055H370.101C372.01 204.055 373.557 205.602 373.557 207.51V230.833C373.557 232.742 372.01 234.289 370.101 234.289H182.653Z" fill="url(#paint4_linear_3651_5742)"/>
<path d="M182.653 274.509V244.275H276.809C278.717 244.275 280.264 245.822 280.264 247.731V271.054C280.264 272.962 278.717 274.509 276.809 274.509H182.653Z" fill="url(#paint5_linear_3651_5742)"/>
<path d="M182.653 314.729V284.496H268.171C270.079 284.496 271.626 286.043 271.626 287.951V311.274C271.626 313.182 270.079 314.729 268.171 314.729H182.653Z" fill="url(#paint6_linear_3651_5742)"/>
<path d="M182.653 354.95V324.716H237.937C239.845 324.716 241.392 326.263 241.392 328.172V351.495C241.392 353.403 239.845 354.95 237.937 354.95H182.653Z" fill="url(#paint7_linear_3651_5742)"/>
<path d="M304.533 439.12L305.541 439.684L300.585 448.384L299.673 447.868L304.533 439.12ZM301.941 441.736C301.941 442.384 301.709 442.944 301.245 443.416C300.789 443.88 300.233 444.112 299.577 444.112C298.913 444.112 298.353 443.884 297.897 443.428C297.441 442.964 297.213 442.4 297.213 441.736C297.213 441.088 297.441 440.532 297.897 440.068C298.361 439.596 298.921 439.36 299.577 439.36C300.217 439.36 300.769 439.588 301.233 440.044C301.705 440.5 301.941 441.064 301.941 441.736ZM299.577 442.888C299.881 442.888 300.145 442.78 300.369 442.564C300.601 442.348 300.717 442.072 300.717 441.736C300.717 441.4 300.601 441.124 300.369 440.908C300.145 440.692 299.881 440.584 299.577 440.584C299.241 440.584 298.965 440.7 298.749 440.932C298.541 441.164 298.437 441.432 298.437 441.736C298.437 442.032 298.541 442.3 298.749 442.54C298.965 442.772 299.241 442.888 299.577 442.888ZM307.977 445.756C307.977 446.412 307.745 446.976 307.281 447.448C306.825 447.912 306.269 448.144 305.613 448.144C304.949 448.144 304.389 447.912 303.933 447.448C303.477 446.976 303.249 446.412 303.249 445.756C303.249 445.108 303.477 444.552 303.933 444.088C304.397 443.616 304.957 443.38 305.613 443.38C306.277 443.38 306.837 443.616 307.293 444.088C307.749 444.552 307.977 445.108 307.977 445.756ZM305.613 446.92C305.933 446.92 306.201 446.812 306.417 446.596C306.641 446.372 306.753 446.092 306.753 445.756C306.753 445.42 306.637 445.144 306.405 444.928C306.181 444.712 305.917 444.604 305.613 444.604C305.277 444.604 305.001 444.72 304.785 444.952C304.577 445.184 304.473 445.452 304.473 445.756C304.473 446.076 304.581 446.352 304.797 446.584C305.021 446.808 305.293 446.92 305.613 446.92ZM318.983 439.288C320.343 439.288 321.447 439.696 322.295 440.512C323.143 441.328 323.567 442.408 323.567 443.752C323.567 445.088 323.139 446.168 322.283 446.992C321.427 447.808 320.327 448.216 318.983 448.216C317.623 448.216 316.519 447.804 315.671 446.98C314.823 446.156 314.399 445.08 314.399 443.752C314.399 442.424 314.819 441.348 315.659 440.524C316.507 439.7 317.615 439.288 318.983 439.288ZM316.343 443.752C316.343 444.576 316.587 445.24 317.075 445.744C317.571 446.24 318.207 446.488 318.983 446.488C319.775 446.488 320.411 446.232 320.891 445.72C321.379 445.208 321.623 444.552 321.623 443.752C321.623 442.936 321.375 442.276 320.879 441.772C320.391 441.268 319.755 441.016 318.971 441.016C318.187 441.016 317.551 441.272 317.063 441.784C316.583 442.296 316.343 442.952 316.343 443.752ZM331.811 439.504V441.232H327.983V442.96H331.523V444.688H327.983V448H326.111V439.504H331.811ZM345.043 439.504V441.16H342.619V448H340.747V441.16H338.323V439.504H345.043ZM351.322 439.288C352.682 439.288 353.786 439.696 354.634 440.512C355.482 441.328 355.906 442.408 355.906 443.752C355.906 445.088 355.478 446.168 354.622 446.992C353.766 447.808 352.666 448.216 351.322 448.216C349.962 448.216 348.858 447.804 348.01 446.98C347.162 446.156 346.738 445.08 346.738 443.752C346.738 442.424 347.158 441.348 347.998 440.524C348.846 439.7 349.954 439.288 351.322 439.288ZM348.682 443.752C348.682 444.576 348.926 445.24 349.414 445.744C349.91 446.24 350.546 446.488 351.322 446.488C352.114 446.488 352.75 446.232 353.23 445.72C353.718 445.208 353.962 444.552 353.962 443.752C353.962 442.936 353.714 442.276 353.218 441.772C352.73 441.268 352.094 441.016 351.31 441.016C350.526 441.016 349.89 441.272 349.402 441.784C348.922 442.296 348.682 442.952 348.682 443.752ZM361.594 439.504C363.706 439.504 364.762 440.364 364.762 442.084C364.762 443.82 363.734 444.688 361.678 444.688H360.25V448H358.378V439.504H361.594ZM361.534 443.104C361.91 443.104 362.218 443.024 362.458 442.864C362.698 442.696 362.818 442.436 362.818 442.084C362.818 441.42 362.298 441.088 361.258 441.088H360.25V443.104H361.534ZM369.525 444.292V445.732H366.573V444.292H369.525ZM375.103 439.504C377.215 439.504 378.271 440.364 378.271 442.084C378.271 443.82 377.243 444.688 375.187 444.688H373.759V448H371.887V439.504H375.103ZM375.043 443.104C375.419 443.104 375.727 443.024 375.967 442.864C376.207 442.696 376.327 442.436 376.327 442.084C376.327 441.42 375.807 441.088 374.767 441.088H373.759V443.104H375.043ZM386.49 439.504V441.232H382.59V442.816H386.274V444.544H382.59V446.272H386.706V448H380.718V439.504H386.49ZM392.753 439.504C393.793 439.504 394.577 439.728 395.105 440.176C395.633 440.616 395.897 441.252 395.897 442.084C395.897 442.708 395.733 443.224 395.405 443.632C395.085 444.04 394.637 444.3 394.061 444.412L396.221 448H393.977L392.201 444.604H391.277V448H389.405V439.504H392.753ZM392.441 443.02C392.993 443.02 393.381 442.948 393.605 442.804C393.837 442.652 393.953 442.408 393.953 442.072C393.953 441.416 393.485 441.088 392.549 441.088H391.277V443.02H392.441ZM404.158 439.504V441.232H400.33V442.96H403.87V444.688H400.33V448H398.458V439.504H404.158ZM410.827 439.288C412.187 439.288 413.291 439.696 414.139 440.512C414.987 441.328 415.411 442.408 415.411 443.752C415.411 445.088 414.983 446.168 414.127 446.992C413.271 447.808 412.171 448.216 410.827 448.216C409.467 448.216 408.363 447.804 407.515 446.98C406.667 446.156 406.243 445.08 406.243 443.752C406.243 442.424 406.663 441.348 407.503 440.524C408.351 439.7 409.459 439.288 410.827 439.288ZM408.187 443.752C408.187 444.576 408.431 445.24 408.919 445.744C409.415 446.24 410.051 446.488 410.827 446.488C411.619 446.488 412.255 446.232 412.735 445.72C413.223 445.208 413.467 444.552 413.467 443.752C413.467 442.936 413.219 442.276 412.723 441.772C412.235 441.268 411.599 441.016 410.815 441.016C410.031 441.016 409.395 441.272 408.907 441.784C408.427 442.296 408.187 442.952 408.187 443.752ZM421.232 439.504C422.272 439.504 423.056 439.728 423.584 440.176C424.112 440.616 424.376 441.252 424.376 442.084C424.376 442.708 424.212 443.224 423.884 443.632C423.564 444.04 423.116 444.3 422.54 444.412L424.7 448H422.456L420.68 444.604H419.756V448H417.884V439.504H421.232ZM420.92 443.02C421.472 443.02 421.86 442.948 422.084 442.804C422.316 442.652 422.432 442.408 422.432 442.072C422.432 441.416 421.964 441.088 421.028 441.088H419.756V443.02H420.92ZM429.697 439.504L431.653 445.048H431.677L433.645 439.504H436.465V448H434.593V441.484H434.569L432.337 448H430.909L428.761 441.484H428.737V448H426.865V439.504H429.697ZM441.245 439.504V448H439.373V439.504H441.245ZM446.692 439.504L450.304 445.408H450.328V439.504H452.2V448H449.752L446.044 441.952H446.02V448H444.148V439.504H446.692ZM459.273 439.288C460.721 439.288 461.845 439.652 462.645 440.38L461.325 441.82C460.829 441.284 460.145 441.016 459.273 441.016C458.489 441.016 457.849 441.272 457.353 441.784C456.865 442.288 456.621 442.944 456.621 443.752C456.621 444.568 456.865 445.228 457.353 445.732C457.849 446.236 458.489 446.488 459.273 446.488C459.913 446.488 460.497 446.348 461.025 446.068V444.688H459.501V442.96H462.825V447.4C461.809 447.944 460.625 448.216 459.273 448.216C457.905 448.216 456.797 447.808 455.949 446.992C455.101 446.168 454.677 445.088 454.677 443.752C454.677 442.416 455.101 441.34 455.949 440.524C456.797 439.7 457.905 439.288 459.273 439.288ZM474.551 439.288C475.111 439.288 475.647 439.396 476.159 439.612C476.679 439.82 477.099 440.128 477.419 440.536L475.979 441.712C475.587 441.248 475.051 441.016 474.371 441.016C473.667 441.016 473.079 441.276 472.607 441.796C472.143 442.308 471.911 442.96 471.911 443.752C471.911 444.512 472.135 445.16 472.583 445.696C473.031 446.224 473.607 446.488 474.311 446.488C475.063 446.488 475.647 446.184 476.063 445.576L477.623 446.74C477.319 447.188 476.895 447.548 476.351 447.82C475.815 448.084 475.215 448.216 474.551 448.216C473.199 448.216 472.095 447.804 471.239 446.98C470.391 446.156 469.967 445.08 469.967 443.752C469.967 442.44 470.391 441.368 471.239 440.536C472.087 439.704 473.191 439.288 474.551 439.288ZM483.186 439.504C484.226 439.504 485.01 439.728 485.538 440.176C486.066 440.616 486.33 441.252 486.33 442.084C486.33 442.708 486.166 443.224 485.838 443.632C485.518 444.04 485.07 444.3 484.494 444.412L486.654 448H484.41L482.634 444.604H481.71V448H479.838V439.504H483.186ZM482.874 443.02C483.426 443.02 483.814 442.948 484.038 442.804C484.27 442.652 484.386 442.408 484.386 442.072C484.386 441.416 483.918 441.088 482.982 441.088H481.71V443.02H482.874ZM494.663 439.504V441.232H490.763V442.816H494.447V444.544H490.763V446.272H494.879V448H488.891V439.504H494.663ZM501.922 439.504L505.618 448H503.506L502.774 446.2H499.474L498.766 448H496.702L500.374 439.504H501.922ZM500.062 444.616H502.138L501.094 441.976L500.062 444.616ZM512.511 439.504V441.16H510.087V448H508.215V441.16H505.791V439.504H512.511ZM516.51 439.504V448H514.638V439.504H516.51ZM520.708 439.504L522.808 445.072H522.832L524.968 439.504H526.972L523.468 448H521.968L518.572 439.504H520.708ZM534.906 439.504V441.232H531.006V442.816H534.69V444.544H531.006V446.272H535.122V448H529.134V439.504H534.906ZM540.7 439.288C541.756 439.288 542.624 439.584 543.304 440.176L542.02 441.58C541.868 441.388 541.66 441.248 541.396 441.16C541.14 441.064 540.896 441.016 540.664 441.016C540.312 441.016 540.012 441.096 539.764 441.256C539.524 441.416 539.404 441.628 539.404 441.892C539.404 442.124 539.496 442.32 539.68 442.48C539.872 442.632 540.168 442.764 540.568 442.876C541.488 443.148 542.096 443.384 542.392 443.584C542.696 443.784 542.924 444.036 543.076 444.34C543.236 444.636 543.316 444.996 543.316 445.42C543.316 446.276 543.016 446.956 542.416 447.46C541.824 447.964 541.032 448.216 540.04 448.216C538.896 448.216 537.944 447.86 537.184 447.148L538.516 445.684C538.932 446.22 539.476 446.488 540.148 446.488C540.508 446.488 540.812 446.408 541.06 446.248C541.316 446.088 541.444 445.872 541.444 445.6C541.444 445.152 541.06 444.808 540.292 444.568C539.316 444.272 538.68 444.024 538.384 443.824C538.088 443.616 537.86 443.372 537.7 443.092C537.54 442.812 537.46 442.464 537.46 442.048C537.46 441.232 537.76 440.568 538.36 440.056C538.968 439.544 539.748 439.288 540.7 439.288Z" fill="#666666"/>
<path d="M39.504 311.939H41.16V314.363H48V316.235H41.16V318.659H39.504V311.939ZM39.288 305.661C39.288 304.301 39.696 303.197 40.512 302.349C41.328 301.501 42.408 301.077 43.752 301.077C45.088 301.077 46.168 301.505 46.992 302.361C47.808 303.217 48.216 304.317 48.216 305.661C48.216 307.021 47.804 308.125 46.98 308.973C46.156 309.821 45.08 310.245 43.752 310.245C42.424 310.245 41.348 309.825 40.524 308.985C39.7 308.137 39.288 307.029 39.288 305.661ZM43.752 308.301C44.576 308.301 45.24 308.057 45.744 307.569C46.24 307.073 46.488 306.437 46.488 305.661C46.488 304.869 46.232 304.233 45.72 303.753C45.208 303.265 44.552 303.021 43.752 303.021C42.936 303.021 42.276 303.269 41.772 303.765C41.268 304.253 41.016 304.889 41.016 305.673C41.016 306.457 41.272 307.093 41.784 307.581C42.296 308.061 42.952 308.301 43.752 308.301ZM39.504 296.06L45.408 292.448V292.424H39.504V290.552H48V293L41.952 296.708V296.732H48V298.604H39.504V296.06ZM39.504 281.775H41.232V285.675H42.816V281.991H44.544V285.675H46.272V281.559H48V287.547H39.504V281.775ZM39.288 270.054L48.636 273.654L48.216 275.01L38.868 271.422L39.288 270.054ZM39.504 260.056C39.504 257.944 40.364 256.888 42.084 256.888C43.82 256.888 44.688 257.916 44.688 259.972V261.4H48V263.272H39.504V260.056ZM43.104 260.116C43.104 259.74 43.024 259.432 42.864 259.192C42.696 258.952 42.436 258.832 42.084 258.832C41.42 258.832 41.088 259.352 41.088 260.392V261.4H43.104V260.116ZM39.504 251.06L48 247.364V249.476L46.2 250.208V253.508L48 254.216V256.28L39.504 252.608V251.06ZM44.616 252.92V250.844L41.976 251.888L44.616 252.92ZM39.288 241.182C39.288 240.622 39.396 240.086 39.612 239.574C39.82 239.054 40.128 238.634 40.536 238.314L41.712 239.754C41.248 240.146 41.016 240.682 41.016 241.362C41.016 242.066 41.276 242.654 41.796 243.126C42.308 243.59 42.96 243.822 43.752 243.822C44.512 243.822 45.16 243.598 45.696 243.15C46.224 242.702 46.488 242.126 46.488 241.422C46.488 240.67 46.184 240.086 45.576 239.67L46.74 238.11C47.188 238.414 47.548 238.838 47.82 239.382C48.084 239.918 48.216 240.518 48.216 241.182C48.216 242.534 47.804 243.638 46.98 244.494C46.156 245.342 45.08 245.766 43.752 245.766C42.44 245.766 41.368 245.342 40.536 244.494C39.704 243.646 39.288 242.542 39.288 241.182ZM39.504 230.051H41.232V233.951H42.816V230.267H44.544V233.951H46.272V229.835H48V235.823H39.504V230.051ZM39.288 218.329L48.636 221.929L48.216 223.285L38.868 219.697L39.288 218.329ZM39.504 205.704H41.232V209.604H42.816V205.92H44.544V209.604H46.272V205.488H48V211.476H39.504V205.704ZM39.504 199.957L45.048 198.001V197.977L39.504 196.009V193.189H48V195.061H41.484V195.085L48 197.317V198.745L41.484 200.893V200.917H48V202.789H39.504V199.957ZM39.288 186.129C39.288 184.769 39.696 183.665 40.512 182.817C41.328 181.969 42.408 181.545 43.752 181.545C45.088 181.545 46.168 181.973 46.992 182.829C47.808 183.685 48.216 184.785 48.216 186.129C48.216 187.489 47.804 188.593 46.98 189.441C46.156 190.289 45.08 190.713 43.752 190.713C42.424 190.713 41.348 190.293 40.524 189.453C39.7 188.605 39.288 187.497 39.288 186.129ZM43.752 188.769C44.576 188.769 45.24 188.525 45.744 188.037C46.24 187.541 46.488 186.905 46.488 186.129C46.488 185.337 46.232 184.701 45.72 184.221C45.208 183.733 44.552 183.489 43.752 183.489C42.936 183.489 42.276 183.737 41.772 184.233C41.268 184.721 41.016 185.357 41.016 186.141C41.016 186.925 41.272 187.561 41.784 188.049C42.296 188.529 42.952 188.769 43.752 188.769ZM39.504 173.133H41.16V175.557H48V177.429H41.16V179.853H39.504V173.133ZM39.504 169.134H48V171.006H39.504V169.134ZM39.288 162.104C39.288 160.744 39.696 159.64 40.512 158.792C41.328 157.944 42.408 157.52 43.752 157.52C45.088 157.52 46.168 157.948 46.992 158.804C47.808 159.66 48.216 160.76 48.216 162.104C48.216 163.464 47.804 164.568 46.98 165.416C46.156 166.264 45.08 166.688 43.752 166.688C42.424 166.688 41.348 166.268 40.524 165.428C39.7 164.58 39.288 163.472 39.288 162.104ZM43.752 164.744C44.576 164.744 45.24 164.5 45.744 164.012C46.24 163.516 46.488 162.88 46.488 162.104C46.488 161.312 46.232 160.676 45.72 160.196C45.208 159.708 44.552 159.464 43.752 159.464C42.936 159.464 42.276 159.712 41.772 160.208C41.268 160.696 41.016 161.332 41.016 162.116C41.016 162.9 41.272 163.536 41.784 164.024C42.296 164.504 42.952 164.744 43.752 164.744ZM39.504 152.503L45.408 148.891V148.867H39.504V146.995H48V149.443L41.952 153.151V153.175H48V155.047H39.504V152.503Z" fill="#666666"/>
<path d="M146.658 54.8866V56.5129H143.055V58.1393H146.387V59.7656H143.055V62.8828H141.293V54.8866H146.658ZM152.52 54.8866L155.999 62.8828H154.011L153.322 61.1887H150.216L149.55 62.8828H147.607L151.063 54.8866H152.52ZM150.77 59.6979H152.724L151.741 57.2132L150.77 59.6979ZM159.672 54.8866V62.8828H157.91V54.8866H159.672ZM164.234 54.8866V61.2565H167.498V62.8828H162.472V54.8866H164.234Z" fill="#829BC4"/>
<path d="M116.634 95.3563V100.224C116.634 100.721 116.788 101.131 117.097 101.455C117.413 101.771 117.797 101.929 118.249 101.929C118.708 101.929 119.088 101.764 119.389 101.433C119.698 101.094 119.852 100.691 119.852 100.224V95.3563H121.614V100.303C121.614 101.282 121.313 102.069 120.711 102.664C120.108 103.258 119.288 103.556 118.249 103.556C117.217 103.556 116.396 103.262 115.787 102.675C115.177 102.08 114.872 101.289 114.872 100.303V95.3563H116.634ZM127.524 95.3563C128.502 95.3563 129.24 95.5671 129.737 95.9888C130.234 96.4029 130.483 97.0015 130.483 97.7845C130.483 98.3718 130.328 98.8575 130.02 99.2415C129.718 99.6255 129.297 99.8702 128.755 99.9756L130.788 103.353H128.676L127.004 100.156H126.134V103.353H124.373V95.3563H127.524ZM127.23 98.6655C127.749 98.6655 128.115 98.5977 128.325 98.4622C128.544 98.3191 128.653 98.0895 128.653 97.7732C128.653 97.1558 128.213 96.8471 127.332 96.8471H126.134V98.6655H127.23ZM136.722 95.153C138.085 95.153 139.143 95.4956 139.896 96.1808L138.653 97.5361C138.186 97.0316 137.543 96.7794 136.722 96.7794C135.984 96.7794 135.382 97.0203 134.915 97.5022C134.456 97.9765 134.226 98.594 134.226 99.3544C134.226 100.122 134.456 100.744 134.915 101.218C135.382 101.692 135.984 101.929 136.722 101.929C137.324 101.929 137.874 101.798 138.371 101.534V100.235H136.937V98.609H140.065V102.788C139.109 103.3 137.994 103.556 136.722 103.556C135.434 103.556 134.392 103.172 133.593 102.404C132.795 101.628 132.396 100.612 132.396 99.3544C132.396 98.097 132.795 97.0843 133.593 96.3163C134.392 95.5408 135.434 95.153 136.722 95.153ZM148.246 95.3563V96.9827H144.575V98.4735H148.042V100.1H144.575V101.726H148.449V103.353H142.813V95.3563H148.246ZM153.383 95.3563L156.783 100.913H156.805V95.3563H158.567V103.353H156.263L152.773 97.6603H152.751V103.353H150.989V95.3563H153.383ZM166.918 95.3563V96.9149H164.637V103.353H162.875V96.9149H160.594V95.3563H166.918Z" fill="#829BC4"/>
<path d="M120.398 135.827V138.809H123.82V135.827H125.582V143.823H123.82V140.367H120.398V143.823H118.636V135.827H120.398ZM130.098 135.827V140.695C130.098 141.192 130.252 141.602 130.561 141.926C130.877 142.242 131.261 142.4 131.713 142.4C132.172 142.4 132.552 142.235 132.853 141.903C133.162 141.564 133.316 141.162 133.316 140.695V135.827H135.078V140.774C135.078 141.753 134.777 142.539 134.175 143.134C133.572 143.729 132.752 144.027 131.713 144.027C130.681 144.027 129.86 143.733 129.251 143.146C128.641 142.551 128.336 141.76 128.336 140.774V135.827H130.098ZM140.502 135.827L142.343 141.045H142.365L144.218 135.827H146.872V143.823H145.11V137.691H145.087L142.987 143.823H141.643L139.621 137.691H139.598V143.823H137.836V135.827H140.502ZM153.516 135.624C154.796 135.624 155.836 136.008 156.634 136.776C157.432 137.544 157.831 138.56 157.831 139.825C157.831 141.083 157.428 142.099 156.622 142.875C155.817 143.643 154.781 144.027 153.516 144.027C152.236 144.027 151.197 143.639 150.399 142.863C149.601 142.088 149.202 141.075 149.202 139.825C149.202 138.575 149.597 137.563 150.388 136.787C151.186 136.011 152.229 135.624 153.516 135.624ZM151.032 139.825C151.032 140.601 151.261 141.226 151.721 141.7C152.188 142.167 152.786 142.4 153.516 142.4C154.262 142.4 154.86 142.159 155.312 141.677C155.772 141.195 156.001 140.578 156.001 139.825C156.001 139.057 155.768 138.436 155.301 137.962C154.842 137.487 154.243 137.25 153.505 137.25C152.767 137.25 152.169 137.491 151.709 137.973C151.258 138.455 151.032 139.072 151.032 139.825ZM163.309 135.827C164.288 135.827 165.026 136.038 165.522 136.459C166.019 136.874 166.268 137.472 166.268 138.255C166.268 138.843 166.114 139.328 165.805 139.712C165.504 140.096 165.082 140.341 164.54 140.446L166.573 143.823H164.461L162.789 140.627H161.92V143.823H160.158V135.827H163.309ZM163.015 139.136C163.535 139.136 163.9 139.068 164.111 138.933C164.329 138.79 164.438 138.56 164.438 138.244C164.438 137.627 163.998 137.318 163.117 137.318H161.92V139.136H163.015Z" fill="#829BC4"/>
<path d="M103.906 176.298C104.884 176.298 105.622 176.509 106.119 176.93C106.616 177.344 106.865 177.943 106.865 178.726C106.865 179.313 106.71 179.799 106.402 180.183C106.1 180.567 105.679 180.812 105.137 180.917L107.17 184.294H105.058L103.386 181.098H102.516V184.294H100.755V176.298H103.906ZM103.612 179.607C104.132 179.607 104.497 179.539 104.708 179.404C104.926 179.261 105.035 179.031 105.035 178.715C105.035 178.097 104.595 177.789 103.714 177.789H102.516V179.607H103.612ZM114.708 176.298V177.924H111.037V179.415H114.504V181.041H111.037V182.668H114.911V184.294H109.275V176.298H114.708ZM119.281 176.298V182.668H122.545V184.294H117.519V176.298H119.281ZM128.735 176.298L132.214 184.294H130.226L129.537 182.6H126.431L125.765 184.294H123.822L127.278 176.298H128.735ZM126.984 181.109H128.938L127.956 178.624L126.984 181.109ZM135.706 176.298L137.411 179.099L139.049 176.298H141.183L138.597 180.081L141.488 184.294H139.275L137.321 181.075L135.423 184.294H133.334L136.135 180.115L133.492 176.298H135.706ZM145.167 176.298V184.294H143.405V176.298H145.167ZM150.293 176.298L153.693 181.854H153.715V176.298H155.477V184.294H153.173L149.683 178.602H149.661V184.294H147.899V176.298H150.293ZM162.134 176.094C163.497 176.094 164.555 176.437 165.308 177.122L164.065 178.477C163.599 177.973 162.955 177.721 162.134 177.721C161.396 177.721 160.794 177.962 160.327 178.444C159.868 178.918 159.638 179.535 159.638 180.296C159.638 181.064 159.868 181.685 160.327 182.159C160.794 182.634 161.396 182.871 162.134 182.871C162.736 182.871 163.286 182.739 163.783 182.476V181.177H162.349V179.55H165.477V183.729C164.521 184.241 163.407 184.497 162.134 184.497C160.847 184.497 159.804 184.113 159.006 183.345C158.208 182.57 157.808 181.553 157.808 180.296C157.808 179.038 158.208 178.026 159.006 177.258C159.804 176.482 160.847 176.094 162.134 176.094Z" fill="#829BC4"/>
<path d="M128.169 216.565C129.449 216.565 130.488 216.949 131.286 217.717C132.084 218.485 132.483 219.502 132.483 220.767C132.483 222.024 132.081 223.04 131.275 223.816C130.469 224.584 129.434 224.968 128.169 224.968C126.889 224.968 125.85 224.58 125.052 223.805C124.254 223.029 123.855 222.016 123.855 220.767C123.855 219.517 124.25 218.504 125.041 217.728C125.839 216.953 126.882 216.565 128.169 216.565ZM125.684 220.767C125.684 221.542 125.914 222.167 126.373 222.641C126.84 223.108 127.439 223.342 128.169 223.342C128.914 223.342 129.513 223.101 129.965 222.619C130.424 222.137 130.654 221.519 130.654 220.767C130.654 219.999 130.42 219.377 129.954 218.903C129.494 218.429 128.896 218.191 128.158 218.191C127.42 218.191 126.821 218.432 126.362 218.914C125.91 219.396 125.684 220.014 125.684 220.767ZM140.401 216.768V218.327H138.12V224.765H136.358V218.327H134.076V216.768H140.401ZM144.187 216.768V219.75H147.609V216.768H149.371V224.765H147.609V221.309H144.187V224.765H142.425V216.768H144.187ZM157.625 216.768V218.395H153.954V219.886H157.421V221.512H153.954V223.138H157.828V224.765H152.192V216.768H157.625ZM163.519 216.768C164.498 216.768 165.235 216.979 165.732 217.401C166.229 217.815 166.478 218.414 166.478 219.197C166.478 219.784 166.323 220.27 166.015 220.654C165.714 221.038 165.292 221.282 164.75 221.388L166.783 224.765H164.671L162.999 221.568H162.13V224.765H160.368V216.768H163.519ZM163.225 220.078C163.745 220.078 164.11 220.01 164.321 219.874C164.539 219.731 164.648 219.502 164.648 219.185C164.648 218.568 164.208 218.259 163.327 218.259H162.13V220.078H163.225Z" fill="#829BC4"/>
<path d="M144.191 256.298L145.468 261.425H145.49L147.162 256.298H148.799L150.46 261.561H150.482L151.826 256.298H153.611L151.273 264.294H149.703L147.941 258.76H147.918L146.157 264.294H144.643L142.271 256.298H144.191ZM157.27 256.298V264.294H155.508V256.298H157.27ZM162.396 256.298L165.796 261.854H165.818V256.298H167.58V264.294H165.276L161.786 258.602H161.764V264.294H160.002V256.298H162.396Z" fill="#829BC4"/>
<path d="M148.54 296.768V298.395H144.937V300.021H148.269V301.647H144.937V304.765H143.175V296.768H148.54ZM152.693 296.768V301.636C152.693 302.133 152.848 302.543 153.156 302.867C153.473 303.183 153.857 303.342 154.308 303.342C154.768 303.342 155.148 303.176 155.449 302.845C155.758 302.506 155.912 302.103 155.912 301.636V296.768H157.674V301.715C157.674 302.694 157.373 303.481 156.77 304.076C156.168 304.671 155.347 304.968 154.308 304.968C153.277 304.968 152.456 304.674 151.846 304.087C151.236 303.492 150.931 302.702 150.931 301.715V296.768H152.693ZM162.826 296.768L166.226 302.325H166.249V296.768H168.01V304.765H165.706L162.217 299.072H162.194V304.765H160.432V296.768H162.826Z" fill="#829BC4"/>
<path d="M120.64 337.036C121.167 337.036 121.671 337.137 122.153 337.341C122.643 337.537 123.038 337.826 123.339 338.21L121.984 339.317C121.615 338.881 121.11 338.662 120.47 338.662C119.808 338.662 119.254 338.907 118.81 339.396C118.373 339.878 118.155 340.492 118.155 341.237C118.155 341.953 118.366 342.562 118.788 343.067C119.209 343.564 119.751 343.812 120.414 343.812C121.122 343.812 121.671 343.526 122.063 342.954L123.531 344.049C123.245 344.471 122.846 344.81 122.334 345.066C121.829 345.314 121.265 345.439 120.64 345.439C119.367 345.439 118.328 345.051 117.523 344.275C116.724 343.5 116.325 342.487 116.325 341.237C116.325 340.002 116.724 338.993 117.523 338.21C118.321 337.427 119.36 337.036 120.64 337.036ZM129.704 337.239L133.183 345.235H131.195L130.506 343.541H127.4L126.734 345.235H124.791L128.247 337.239H129.704ZM127.953 342.05H129.907L128.925 339.566L127.953 342.05ZM137.827 337.036C138.821 337.036 139.638 337.314 140.278 337.872L139.069 339.193C138.926 339.012 138.73 338.881 138.482 338.798C138.241 338.707 138.011 338.662 137.793 338.662C137.462 338.662 137.179 338.737 136.946 338.888C136.72 339.039 136.607 339.238 136.607 339.487C136.607 339.705 136.694 339.889 136.867 340.04C137.048 340.183 137.326 340.307 137.703 340.413C138.569 340.669 139.141 340.891 139.419 341.079C139.706 341.267 139.92 341.505 140.063 341.791C140.214 342.069 140.289 342.408 140.289 342.807C140.289 343.613 140.007 344.253 139.442 344.727C138.885 345.201 138.139 345.439 137.206 345.439C136.129 345.439 135.233 345.104 134.518 344.433L135.771 343.056C136.163 343.56 136.675 343.812 137.307 343.812C137.646 343.812 137.932 343.737 138.166 343.586C138.407 343.436 138.527 343.233 138.527 342.977C138.527 342.555 138.166 342.231 137.443 342.005C136.524 341.727 135.926 341.493 135.647 341.305C135.369 341.109 135.154 340.88 135.003 340.616C134.853 340.353 134.778 340.025 134.778 339.633C134.778 338.865 135.06 338.241 135.625 337.759C136.197 337.277 136.931 337.036 137.827 337.036ZM144.493 337.239V342.107C144.493 342.604 144.647 343.014 144.956 343.338C145.272 343.654 145.656 343.812 146.108 343.812C146.567 343.812 146.948 343.647 147.249 343.315C147.557 342.977 147.712 342.574 147.712 342.107V337.239H149.474V342.186C149.474 343.165 149.172 343.952 148.57 344.546C147.968 345.141 147.147 345.439 146.108 345.439C145.076 345.439 144.256 345.145 143.646 344.558C143.036 343.963 142.731 343.172 142.731 342.186V337.239H144.493ZM156.32 337.239L159.799 345.235H157.811L157.122 343.541H154.016L153.35 345.235H151.407L154.863 337.239H156.32ZM154.57 342.05H156.524L155.541 339.566L154.57 342.05ZM163.562 337.239V343.609H166.826V345.235H161.8V337.239H163.562Z" fill="#829BC4"/>
<path d="M170.552 378.36C171.56 378.36 172.336 378.74 172.88 379.5C173.432 380.26 173.708 381.344 173.708 382.752C173.708 384.152 173.436 385.236 172.892 386.004C172.348 386.764 171.568 387.144 170.552 387.144C169.536 387.144 168.756 386.76 168.212 385.992C167.668 385.224 167.396 384.144 167.396 382.752C167.396 381.336 167.672 380.252 168.224 379.5C168.776 378.74 169.552 378.36 170.552 378.36ZM169.196 382.752C169.196 384.576 169.648 385.488 170.552 385.488C171 385.488 171.336 385.272 171.56 384.84C171.792 384.408 171.908 383.712 171.908 382.752C171.908 380.928 171.452 380.016 170.54 380.016C169.644 380.016 169.196 380.928 169.196 382.752ZM177.078 384.864C177.39 384.864 177.65 384.976 177.858 385.2C178.074 385.416 178.182 385.672 178.182 385.968C178.182 386.28 178.074 386.544 177.858 386.76C177.65 386.968 177.39 387.072 177.078 387.072C176.782 387.072 176.522 386.968 176.298 386.76C176.082 386.544 175.974 386.28 175.974 385.968C175.974 385.656 176.078 385.396 176.286 385.188C176.502 384.972 176.766 384.864 177.078 384.864ZM183.604 378.36C184.612 378.36 185.388 378.74 185.932 379.5C186.484 380.26 186.76 381.344 186.76 382.752C186.76 384.152 186.488 385.236 185.944 386.004C185.4 386.764 184.62 387.144 183.604 387.144C182.588 387.144 181.808 386.76 181.264 385.992C180.72 385.224 180.448 384.144 180.448 382.752C180.448 381.336 180.724 380.252 181.276 379.5C181.828 378.74 182.604 378.36 183.604 378.36ZM182.248 382.752C182.248 384.576 182.7 385.488 183.604 385.488C184.052 385.488 184.388 385.272 184.612 384.84C184.844 384.408 184.96 383.712 184.96 382.752C184.96 380.928 184.504 380.016 183.592 380.016C182.696 380.016 182.248 380.928 182.248 382.752ZM191.906 378.36C192.914 378.36 193.69 378.74 194.234 379.5C194.786 380.26 195.062 381.344 195.062 382.752C195.062 384.152 194.79 385.236 194.246 386.004C193.702 386.764 192.922 387.144 191.906 387.144C190.89 387.144 190.11 386.76 189.566 385.992C189.022 385.224 188.75 384.144 188.75 382.752C188.75 381.336 189.026 380.252 189.578 379.5C190.13 378.74 190.906 378.36 191.906 378.36ZM190.55 382.752C190.55 384.576 191.002 385.488 191.906 385.488C192.354 385.488 192.69 385.272 192.914 384.84C193.146 384.408 193.262 383.712 193.262 382.752C193.262 380.928 192.806 380.016 191.894 380.016C190.998 380.016 190.55 380.928 190.55 382.752ZM204.035 378.12L205.043 378.684L200.087 387.384L199.175 386.868L204.035 378.12ZM201.443 380.736C201.443 381.384 201.211 381.944 200.747 382.416C200.291 382.88 199.735 383.112 199.079 383.112C198.415 383.112 197.855 382.884 197.399 382.428C196.943 381.964 196.715 381.4 196.715 380.736C196.715 380.088 196.943 379.532 197.399 379.068C197.863 378.596 198.423 378.36 199.079 378.36C199.719 378.36 200.271 378.588 200.735 379.044C201.207 379.5 201.443 380.064 201.443 380.736ZM199.079 381.888C199.383 381.888 199.647 381.78 199.871 381.564C200.103 381.348 200.219 381.072 200.219 380.736C200.219 380.4 200.103 380.124 199.871 379.908C199.647 379.692 199.383 379.584 199.079 379.584C198.743 379.584 198.467 379.7 198.251 379.932C198.043 380.164 197.939 380.432 197.939 380.736C197.939 381.032 198.043 381.3 198.251 381.54C198.467 381.772 198.743 381.888 199.079 381.888ZM207.479 384.756C207.479 385.412 207.247 385.976 206.783 386.448C206.327 386.912 205.771 387.144 205.115 387.144C204.451 387.144 203.891 386.912 203.435 386.448C202.979 385.976 202.751 385.412 202.751 384.756C202.751 384.108 202.979 383.552 203.435 383.088C203.899 382.616 204.459 382.38 205.115 382.38C205.779 382.38 206.339 382.616 206.795 383.088C207.251 383.552 207.479 384.108 207.479 384.756ZM205.115 385.92C205.435 385.92 205.703 385.812 205.919 385.596C206.143 385.372 206.255 385.092 206.255 384.756C206.255 384.42 206.139 384.144 205.907 383.928C205.683 383.712 205.419 383.604 205.115 383.604C204.779 383.604 204.503 383.72 204.287 383.952C204.079 384.184 203.975 384.452 203.975 384.756C203.975 385.076 204.083 385.352 204.299 385.584C204.523 385.808 204.795 385.92 205.115 385.92Z" fill="#829BC4"/>
<path d="M360.184 378.504V387H358.456V380.52L356.752 382.02L355.732 380.844L358.504 378.504H360.184ZM366.854 378.36C367.862 378.36 368.638 378.74 369.182 379.5C369.734 380.26 370.01 381.344 370.01 382.752C370.01 384.152 369.738 385.236 369.194 386.004C368.65 386.764 367.87 387.144 366.854 387.144C365.838 387.144 365.058 386.76 364.514 385.992C363.97 385.224 363.698 384.144 363.698 382.752C363.698 381.336 363.974 380.252 364.526 379.5C365.078 378.74 365.854 378.36 366.854 378.36ZM365.498 382.752C365.498 384.576 365.95 385.488 366.854 385.488C367.302 385.488 367.638 385.272 367.862 384.84C368.094 384.408 368.21 383.712 368.21 382.752C368.21 380.928 367.754 380.016 366.842 380.016C365.946 380.016 365.498 380.928 365.498 382.752ZM373.379 384.864C373.691 384.864 373.951 384.976 374.159 385.2C374.375 385.416 374.483 385.672 374.483 385.968C374.483 386.28 374.375 386.544 374.159 386.76C373.951 386.968 373.691 387.072 373.379 387.072C373.083 387.072 372.823 386.968 372.599 386.76C372.383 386.544 372.275 386.28 372.275 385.968C372.275 385.656 372.379 385.396 372.587 385.188C372.803 384.972 373.067 384.864 373.379 384.864ZM379.906 378.36C380.914 378.36 381.69 378.74 382.234 379.5C382.786 380.26 383.062 381.344 383.062 382.752C383.062 384.152 382.79 385.236 382.246 386.004C381.702 386.764 380.922 387.144 379.906 387.144C378.89 387.144 378.11 386.76 377.566 385.992C377.022 385.224 376.75 384.144 376.75 382.752C376.75 381.336 377.026 380.252 377.578 379.5C378.13 378.74 378.906 378.36 379.906 378.36ZM378.55 382.752C378.55 384.576 379.002 385.488 379.906 385.488C380.354 385.488 380.69 385.272 380.914 384.84C381.146 384.408 381.262 383.712 381.262 382.752C381.262 380.928 380.806 380.016 379.894 380.016C378.998 380.016 378.55 380.928 378.55 382.752ZM388.207 378.36C389.215 378.36 389.991 378.74 390.535 379.5C391.087 380.26 391.363 381.344 391.363 382.752C391.363 384.152 391.091 385.236 390.547 386.004C390.003 386.764 389.223 387.144 388.207 387.144C387.191 387.144 386.411 386.76 385.867 385.992C385.323 385.224 385.051 384.144 385.051 382.752C385.051 381.336 385.327 380.252 385.879 379.5C386.431 378.74 387.207 378.36 388.207 378.36ZM386.851 382.752C386.851 384.576 387.303 385.488 388.207 385.488C388.655 385.488 388.991 385.272 389.215 384.84C389.447 384.408 389.563 383.712 389.563 382.752C389.563 380.928 389.107 380.016 388.195 380.016C387.299 380.016 386.851 380.928 386.851 382.752ZM400.337 378.12L401.345 378.684L396.389 387.384L395.477 386.868L400.337 378.12ZM397.745 380.736C397.745 381.384 397.513 381.944 397.049 382.416C396.593 382.88 396.037 383.112 395.381 383.112C394.717 383.112 394.157 382.884 393.701 382.428C393.245 381.964 393.017 381.4 393.017 380.736C393.017 380.088 393.245 379.532 393.701 379.068C394.165 378.596 394.725 378.36 395.381 378.36C396.021 378.36 396.573 378.588 397.037 379.044C397.509 379.5 397.745 380.064 397.745 380.736ZM395.381 381.888C395.685 381.888 395.949 381.78 396.173 381.564C396.405 381.348 396.521 381.072 396.521 380.736C396.521 380.4 396.405 380.124 396.173 379.908C395.949 379.692 395.685 379.584 395.381 379.584C395.045 379.584 394.769 379.7 394.553 379.932C394.345 380.164 394.241 380.432 394.241 380.736C394.241 381.032 394.345 381.3 394.553 381.54C394.769 381.772 395.045 381.888 395.381 381.888ZM403.781 384.756C403.781 385.412 403.549 385.976 403.085 386.448C402.629 386.912 402.073 387.144 401.417 387.144C400.753 387.144 400.193 386.912 399.737 386.448C399.281 385.976 399.053 385.412 399.053 384.756C399.053 384.108 399.281 383.552 399.737 383.088C400.201 382.616 400.761 382.38 401.417 382.38C402.081 382.38 402.641 382.616 403.097 383.088C403.553 383.552 403.781 384.108 403.781 384.756ZM401.417 385.92C401.737 385.92 402.005 385.812 402.221 385.596C402.445 385.372 402.557 385.092 402.557 384.756C402.557 384.42 402.441 384.144 402.209 383.928C401.985 383.712 401.721 383.604 401.417 383.604C401.081 383.604 400.805 383.72 400.589 383.952C400.381 384.184 400.277 384.452 400.277 384.756C400.277 385.076 400.385 385.352 400.601 385.584C400.825 385.808 401.097 385.92 401.417 385.92Z" fill="#829BC4"/>
<path d="M549.696 378.36C550.528 378.36 551.192 378.592 551.688 379.056C552.192 379.512 552.444 380.132 552.444 380.916C552.444 381.412 552.356 381.828 552.18 382.164C552.012 382.492 551.668 382.888 551.148 383.352L548.748 385.416H552.516V387H546.588V385.092L549.888 382.128C550.184 381.856 550.384 381.636 550.488 381.468C550.592 381.3 550.644 381.124 550.644 380.94C550.644 380.66 550.54 380.436 550.332 380.268C550.124 380.1 549.88 380.016 549.6 380.016C549.296 380.016 549.044 380.112 548.844 380.304C548.644 380.496 548.528 380.76 548.496 381.096L546.696 380.964C546.752 380.116 547.044 379.472 547.572 379.032C548.108 378.584 548.816 378.36 549.696 378.36ZM557.854 378.36C558.862 378.36 559.638 378.74 560.182 379.5C560.734 380.26 561.01 381.344 561.01 382.752C561.01 384.152 560.738 385.236 560.194 386.004C559.65 386.764 558.87 387.144 557.854 387.144C556.838 387.144 556.058 386.76 555.514 385.992C554.97 385.224 554.698 384.144 554.698 382.752C554.698 381.336 554.974 380.252 555.526 379.5C556.078 378.74 556.854 378.36 557.854 378.36ZM556.498 382.752C556.498 384.576 556.95 385.488 557.854 385.488C558.302 385.488 558.638 385.272 558.862 384.84C559.094 384.408 559.21 383.712 559.21 382.752C559.21 380.928 558.754 380.016 557.842 380.016C556.946 380.016 556.498 380.928 556.498 382.752ZM564.379 384.864C564.691 384.864 564.951 384.976 565.159 385.2C565.375 385.416 565.483 385.672 565.483 385.968C565.483 386.28 565.375 386.544 565.159 386.76C564.951 386.968 564.691 387.072 564.379 387.072C564.083 387.072 563.823 386.968 563.599 386.76C563.383 386.544 563.275 386.28 563.275 385.968C563.275 385.656 563.379 385.396 563.587 385.188C563.803 384.972 564.067 384.864 564.379 384.864ZM570.906 378.36C571.914 378.36 572.69 378.74 573.234 379.5C573.786 380.26 574.062 381.344 574.062 382.752C574.062 384.152 573.79 385.236 573.246 386.004C572.702 386.764 571.922 387.144 570.906 387.144C569.89 387.144 569.11 386.76 568.566 385.992C568.022 385.224 567.75 384.144 567.75 382.752C567.75 381.336 568.026 380.252 568.578 379.5C569.13 378.74 569.906 378.36 570.906 378.36ZM569.55 382.752C569.55 384.576 570.002 385.488 570.906 385.488C571.354 385.488 571.69 385.272 571.914 384.84C572.146 384.408 572.262 383.712 572.262 382.752C572.262 380.928 571.806 380.016 570.894 380.016C569.998 380.016 569.55 380.928 569.55 382.752ZM579.207 378.36C580.215 378.36 580.991 378.74 581.535 379.5C582.087 380.26 582.363 381.344 582.363 382.752C582.363 384.152 582.091 385.236 581.547 386.004C581.003 386.764 580.223 387.144 579.207 387.144C578.191 387.144 577.411 386.76 576.867 385.992C576.323 385.224 576.051 384.144 576.051 382.752C576.051 381.336 576.327 380.252 576.879 379.5C577.431 378.74 578.207 378.36 579.207 378.36ZM577.851 382.752C577.851 384.576 578.303 385.488 579.207 385.488C579.655 385.488 579.991 385.272 580.215 384.84C580.447 384.408 580.563 383.712 580.563 382.752C580.563 380.928 580.107 380.016 579.195 380.016C578.299 380.016 577.851 380.928 577.851 382.752ZM591.337 378.12L592.345 378.684L587.389 387.384L586.477 386.868L591.337 378.12ZM588.745 380.736C588.745 381.384 588.513 381.944 588.049 382.416C587.593 382.88 587.037 383.112 586.381 383.112C585.717 383.112 585.157 382.884 584.701 382.428C584.245 381.964 584.017 381.4 584.017 380.736C584.017 380.088 584.245 379.532 584.701 379.068C585.165 378.596 585.725 378.36 586.381 378.36C587.021 378.36 587.573 378.588 588.037 379.044C588.509 379.5 588.745 380.064 588.745 380.736ZM586.381 381.888C586.685 381.888 586.949 381.78 587.173 381.564C587.405 381.348 587.521 381.072 587.521 380.736C587.521 380.4 587.405 380.124 587.173 379.908C586.949 379.692 586.685 379.584 586.381 379.584C586.045 379.584 585.769 379.7 585.553 379.932C585.345 380.164 585.241 380.432 585.241 380.736C585.241 381.032 585.345 381.3 585.553 381.54C585.769 381.772 586.045 381.888 586.381 381.888ZM594.781 384.756C594.781 385.412 594.549 385.976 594.085 386.448C593.629 386.912 593.073 387.144 592.417 387.144C591.753 387.144 591.193 386.912 590.737 386.448C590.281 385.976 590.053 385.412 590.053 384.756C590.053 384.108 590.281 383.552 590.737 383.088C591.201 382.616 591.761 382.38 592.417 382.38C593.081 382.38 593.641 382.616 594.097 383.088C594.553 383.552 594.781 384.108 594.781 384.756ZM592.417 385.92C592.737 385.92 593.005 385.812 593.221 385.596C593.445 385.372 593.557 385.092 593.557 384.756C593.557 384.42 593.441 384.144 593.209 383.928C592.985 383.712 592.721 383.604 592.417 383.604C592.081 383.604 591.805 383.72 591.589 383.952C591.381 384.184 591.277 384.452 591.277 384.756C591.277 385.076 591.385 385.352 591.601 385.584C591.825 385.808 592.097 385.92 592.417 385.92Z" fill="#829BC4"/>
<path d="M735.48 378.36C736.344 378.36 737.036 378.572 737.556 378.996C738.084 379.412 738.348 379.988 738.348 380.724C738.348 381.212 738.22 381.62 737.964 381.948C737.708 382.276 737.352 382.488 736.896 382.584V382.62C737.384 382.684 737.772 382.904 738.06 383.28C738.348 383.648 738.492 384.088 738.492 384.6C738.492 385.376 738.212 385.996 737.652 386.46C737.1 386.916 736.36 387.144 735.432 387.144C734.608 387.144 733.932 386.956 733.404 386.58C732.884 386.196 732.544 385.652 732.384 384.948L734.28 384.504C734.416 385.16 734.836 385.488 735.54 385.488C735.908 385.488 736.192 385.392 736.392 385.2C736.592 385.008 736.692 384.74 736.692 384.396C736.692 384.068 736.58 383.824 736.356 383.664C736.132 383.496 735.7 383.412 735.06 383.412H734.592V381.852H735.144C735.616 381.852 735.968 381.78 736.2 381.636C736.432 381.484 736.548 381.24 736.548 380.904C736.548 380.632 736.444 380.416 736.236 380.256C736.028 380.096 735.78 380.016 735.492 380.016C735.236 380.016 735.012 380.084 734.82 380.22C734.628 380.356 734.5 380.552 734.436 380.808L732.456 380.4C732.816 379.04 733.824 378.36 735.48 378.36ZM743.854 378.36C744.862 378.36 745.638 378.74 746.182 379.5C746.734 380.26 747.01 381.344 747.01 382.752C747.01 384.152 746.738 385.236 746.194 386.004C745.65 386.764 744.87 387.144 743.854 387.144C742.838 387.144 742.058 386.76 741.514 385.992C740.97 385.224 740.698 384.144 740.698 382.752C740.698 381.336 740.974 380.252 741.526 379.5C742.078 378.74 742.854 378.36 743.854 378.36ZM742.498 382.752C742.498 384.576 742.95 385.488 743.854 385.488C744.302 385.488 744.638 385.272 744.862 384.84C745.094 384.408 745.21 383.712 745.21 382.752C745.21 380.928 744.754 380.016 743.842 380.016C742.946 380.016 742.498 380.928 742.498 382.752ZM750.379 384.864C750.691 384.864 750.951 384.976 751.159 385.2C751.375 385.416 751.483 385.672 751.483 385.968C751.483 386.28 751.375 386.544 751.159 386.76C750.951 386.968 750.691 387.072 750.379 387.072C750.083 387.072 749.823 386.968 749.599 386.76C749.383 386.544 749.275 386.28 749.275 385.968C749.275 385.656 749.379 385.396 749.587 385.188C749.803 384.972 750.067 384.864 750.379 384.864ZM756.906 378.36C757.914 378.36 758.69 378.74 759.234 379.5C759.786 380.26 760.062 381.344 760.062 382.752C760.062 384.152 759.79 385.236 759.246 386.004C758.702 386.764 757.922 387.144 756.906 387.144C755.89 387.144 755.11 386.76 754.566 385.992C754.022 385.224 753.75 384.144 753.75 382.752C753.75 381.336 754.026 380.252 754.578 379.5C755.13 378.74 755.906 378.36 756.906 378.36ZM755.55 382.752C755.55 384.576 756.002 385.488 756.906 385.488C757.354 385.488 757.69 385.272 757.914 384.84C758.146 384.408 758.262 383.712 758.262 382.752C758.262 380.928 757.806 380.016 756.894 380.016C755.998 380.016 755.55 380.928 755.55 382.752ZM765.207 378.36C766.215 378.36 766.991 378.74 767.535 379.5C768.087 380.26 768.363 381.344 768.363 382.752C768.363 384.152 768.091 385.236 767.547 386.004C767.003 386.764 766.223 387.144 765.207 387.144C764.191 387.144 763.411 386.76 762.867 385.992C762.323 385.224 762.051 384.144 762.051 382.752C762.051 381.336 762.327 380.252 762.879 379.5C763.431 378.74 764.207 378.36 765.207 378.36ZM763.851 382.752C763.851 384.576 764.303 385.488 765.207 385.488C765.655 385.488 765.991 385.272 766.215 384.84C766.447 384.408 766.563 383.712 766.563 382.752C766.563 380.928 766.107 380.016 765.195 380.016C764.299 380.016 763.851 380.928 763.851 382.752ZM777.337 378.12L778.345 378.684L773.389 387.384L772.477 386.868L777.337 378.12ZM774.745 380.736C774.745 381.384 774.513 381.944 774.049 382.416C773.593 382.88 773.037 383.112 772.381 383.112C771.717 383.112 771.157 382.884 770.701 382.428C770.245 381.964 770.017 381.4 770.017 380.736C770.017 380.088 770.245 379.532 770.701 379.068C771.165 378.596 771.725 378.36 772.381 378.36C773.021 378.36 773.573 378.588 774.037 379.044C774.509 379.5 774.745 380.064 774.745 380.736ZM772.381 381.888C772.685 381.888 772.949 381.78 773.173 381.564C773.405 381.348 773.521 381.072 773.521 380.736C773.521 380.4 773.405 380.124 773.173 379.908C772.949 379.692 772.685 379.584 772.381 379.584C772.045 379.584 771.769 379.7 771.553 379.932C771.345 380.164 771.241 380.432 771.241 380.736C771.241 381.032 771.345 381.3 771.553 381.54C771.769 381.772 772.045 381.888 772.381 381.888ZM780.781 384.756C780.781 385.412 780.549 385.976 780.085 386.448C779.629 386.912 779.073 387.144 778.417 387.144C777.753 387.144 777.193 386.912 776.737 386.448C776.281 385.976 776.053 385.412 776.053 384.756C776.053 384.108 776.281 383.552 776.737 383.088C777.201 382.616 777.761 382.38 778.417 382.38C779.081 382.38 779.641 382.616 780.097 383.088C780.553 383.552 780.781 384.108 780.781 384.756ZM778.417 385.92C778.737 385.92 779.005 385.812 779.221 385.596C779.445 385.372 779.557 385.092 779.557 384.756C779.557 384.42 779.441 384.144 779.209 383.928C778.985 383.712 778.721 383.604 778.417 383.604C778.081 383.604 777.805 383.72 777.589 383.952C777.381 384.184 777.277 384.452 777.277 384.756C777.277 385.076 777.385 385.352 777.601 385.584C777.825 385.808 778.097 385.92 778.417 385.92Z" fill="#829BC4"/>
<path d="M635.564 54.5071C636.402 54.5071 637.072 54.7409 637.571 55.2085C638.079 55.668 638.333 56.2929 638.333 57.083C638.333 57.5828 638.245 58.0021 638.067 58.3407C637.898 58.6712 637.551 59.0703 637.027 59.5379L634.609 61.618H638.406V63.2144H632.432V61.2915L635.757 58.3044C636.056 58.0303 636.257 57.8086 636.362 57.6393C636.467 57.47 636.519 57.2926 636.519 57.1072C636.519 56.825 636.415 56.5992 636.205 56.4299C635.995 56.2606 635.749 56.176 635.467 56.176C635.161 56.176 634.907 56.2727 634.705 56.4662C634.504 56.6597 634.387 56.9257 634.355 57.2644L632.541 57.1313C632.597 56.2767 632.891 55.6277 633.423 55.1843C633.964 54.7328 634.677 54.5071 635.564 54.5071ZM644.474 54.6522L642.467 57.7118C642.693 57.6554 642.89 57.6272 643.059 57.6272C643.85 57.6272 644.495 57.8932 644.994 58.4253C645.494 58.9575 645.744 59.6226 645.744 60.4208C645.744 61.2834 645.438 61.9889 644.825 62.5371C644.22 63.0854 643.463 63.3595 642.552 63.3595C641.649 63.3595 640.891 63.0854 640.278 62.5371C639.665 61.9889 639.359 61.2834 639.359 60.4208C639.359 60.1628 639.379 59.929 639.419 59.7193C639.46 59.5017 639.52 59.2799 639.601 59.0542C639.681 58.8204 639.778 58.5987 639.891 58.3891C640.012 58.1714 640.802 56.9257 642.261 54.6522H644.474ZM641.173 60.3482C641.173 60.7513 641.306 61.0778 641.572 61.3278C641.846 61.5696 642.173 61.6906 642.552 61.6906C642.939 61.6906 643.265 61.5696 643.531 61.3278C643.797 61.0859 643.93 60.7594 643.93 60.3482C643.93 59.937 643.793 59.6105 643.519 59.3686C643.253 59.1268 642.926 59.0058 642.539 59.0058C642.169 59.0058 641.846 59.1308 641.572 59.3807C641.306 59.6226 641.173 59.9451 641.173 60.3482ZM647.943 61.0617C648.257 61.0617 648.519 61.1746 648.729 61.4003C648.947 61.618 649.055 61.876 649.055 62.1743C649.055 62.4887 648.947 62.7548 648.729 62.9725C648.519 63.1821 648.257 63.2869 647.943 63.2869C647.644 63.2869 647.382 63.1821 647.157 62.9725C646.939 62.7548 646.83 62.4887 646.83 62.1743C646.83 61.8599 646.935 61.5979 647.145 61.3882C647.362 61.1706 647.628 61.0617 647.943 61.0617ZM653.311 54.5071C654.327 54.5071 655.109 54.89 655.657 55.6559C656.213 56.4219 656.492 57.5143 656.492 58.9333C656.492 60.3442 656.218 61.4366 655.669 62.2106C655.121 62.9765 654.335 63.3595 653.311 63.3595C652.287 63.3595 651.501 62.9725 650.953 62.1985C650.405 61.4245 650.13 60.3361 650.13 58.9333C650.13 57.5062 650.409 56.4138 650.965 55.6559C651.521 54.89 652.303 54.5071 653.311 54.5071ZM651.944 58.9333C651.944 60.7715 652.4 61.6906 653.311 61.6906C653.763 61.6906 654.101 61.4729 654.327 61.0375C654.561 60.6022 654.678 59.9007 654.678 58.9333C654.678 57.0951 654.218 56.176 653.299 56.176C652.396 56.176 651.944 57.0951 651.944 58.9333ZM662.367 54.6522L660.359 57.7118C660.585 57.6554 660.782 57.6272 660.952 57.6272C661.742 57.6272 662.387 57.8932 662.887 58.4253C663.386 58.9575 663.636 59.6226 663.636 60.4208C663.636 61.2834 663.33 61.9889 662.717 62.5371C662.113 63.0854 661.355 63.3595 660.444 63.3595C659.541 63.3595 658.783 63.0854 658.17 62.5371C657.557 61.9889 657.251 61.2834 657.251 60.4208C657.251 60.1628 657.271 59.929 657.312 59.7193C657.352 59.5017 657.412 59.2799 657.493 59.0542C657.574 58.8204 657.67 58.5987 657.783 58.3891C657.904 58.1714 658.694 56.9257 660.153 54.6522H662.367ZM659.065 60.3482C659.065 60.7513 659.198 61.0778 659.464 61.3278C659.738 61.5696 660.065 61.6906 660.444 61.6906C660.831 61.6906 661.157 61.5696 661.423 61.3278C661.689 61.0859 661.822 60.7594 661.822 60.3482C661.822 59.937 661.685 59.6105 661.411 59.3686C661.145 59.1268 660.819 59.0058 660.432 59.0058C660.061 59.0058 659.738 59.1308 659.464 59.3807C659.198 59.6226 659.065 59.9451 659.065 60.3482ZM671.483 54.2652L672.498 54.8336L667.504 63.6013L666.585 63.0813L671.483 54.2652ZM668.87 56.9016C668.87 57.5546 668.637 58.119 668.169 58.5946C667.709 59.0623 667.149 59.2961 666.488 59.2961C665.819 59.2961 665.254 59.0663 664.795 58.6067C664.335 58.1391 664.106 57.5707 664.106 56.9016C664.106 56.2485 664.335 55.6882 664.795 55.2206C665.263 54.7449 665.827 54.5071 666.488 54.5071C667.133 54.5071 667.689 54.7368 668.157 55.1964C668.633 55.6559 668.87 56.2243 668.87 56.9016ZM666.488 58.0625C666.794 58.0625 667.06 57.9537 667.286 57.736C667.52 57.5183 667.637 57.2402 667.637 56.9016C667.637 56.5629 667.52 56.2848 667.286 56.0671C667.06 55.8494 666.794 55.7406 666.488 55.7406C666.149 55.7406 665.871 55.8575 665.654 56.0913C665.444 56.3251 665.339 56.5952 665.339 56.9016C665.339 57.1999 665.444 57.47 665.654 57.7118C665.871 57.9456 666.149 58.0625 666.488 58.0625ZM674.953 60.9529C674.953 61.614 674.72 62.1824 674.252 62.6581C673.792 63.1257 673.232 63.3595 672.571 63.3595C671.902 63.3595 671.337 63.1257 670.878 62.6581C670.418 62.1824 670.189 61.614 670.189 60.9529C670.189 60.2998 670.418 59.7395 670.878 59.2719C671.346 58.7962 671.91 58.5584 672.571 58.5584C673.24 58.5584 673.805 58.7962 674.264 59.2719C674.724 59.7395 674.953 60.2998 674.953 60.9529ZM672.571 62.1259C672.894 62.1259 673.164 62.0171 673.381 61.7994C673.607 61.5737 673.72 61.2915 673.72 60.9529C673.72 60.6143 673.603 60.3361 673.369 60.1184C673.143 59.9007 672.877 59.7919 672.571 59.7919C672.232 59.7919 671.954 59.9088 671.737 60.1426C671.527 60.3764 671.422 60.6465 671.422 60.9529C671.422 61.2754 671.531 61.5535 671.749 61.7873C671.974 62.0131 672.249 62.1259 672.571 62.1259Z" fill="white"/>
<path d="M584.599 94.7263C585.437 94.7263 586.107 94.9601 586.606 95.4277C587.114 95.8873 587.368 96.5121 587.368 97.3022C587.368 97.8021 587.28 98.2213 587.102 98.5599C586.933 98.8905 586.586 99.2896 586.062 99.7572L583.643 101.837H587.441V103.434H581.467V101.511L584.792 98.5236C585.091 98.2495 585.292 98.0278 585.397 97.8585C585.502 97.6892 585.554 97.5118 585.554 97.3264C585.554 97.0442 585.449 96.8185 585.24 96.6492C585.03 96.4798 584.784 96.3952 584.502 96.3952C584.196 96.3952 583.942 96.4919 583.74 96.6854C583.539 96.8789 583.422 97.145 583.39 97.4836L581.576 97.3506C581.632 96.496 581.926 95.847 582.458 95.4035C582.999 94.952 583.712 94.7263 584.599 94.7263ZM591.538 94.7263C592.409 94.7263 593.106 94.9399 593.63 95.3672C594.162 95.7865 594.428 96.367 594.428 97.1087C594.428 97.6005 594.299 98.0117 594.041 98.3422C593.783 98.6728 593.425 98.8864 592.965 98.9832V99.0195C593.457 99.084 593.848 99.3057 594.138 99.6846C594.428 100.055 594.574 100.499 594.574 101.015C594.574 101.797 594.291 102.422 593.727 102.889C593.171 103.349 592.425 103.579 591.49 103.579C590.659 103.579 589.978 103.389 589.446 103.01C588.922 102.623 588.579 102.075 588.418 101.366L590.329 100.918C590.466 101.579 590.889 101.91 591.599 101.91C591.969 101.91 592.256 101.813 592.457 101.62C592.659 101.426 592.76 101.156 592.76 100.809C592.76 100.479 592.647 100.233 592.421 100.072C592.195 99.9023 591.76 99.8176 591.115 99.8176H590.643V98.2455H591.199C591.675 98.2455 592.03 98.1729 592.264 98.0278C592.497 97.8746 592.614 97.6287 592.614 97.2901C592.614 97.016 592.51 96.7983 592.3 96.6371C592.09 96.4758 591.84 96.3952 591.55 96.3952C591.292 96.3952 591.066 96.4637 590.873 96.6008C590.679 96.7378 590.55 96.9354 590.486 97.1934L588.491 96.7822C588.853 95.4116 589.869 94.7263 591.538 94.7263ZM596.978 101.281C597.292 101.281 597.554 101.394 597.764 101.62C597.981 101.837 598.09 102.095 598.09 102.394C598.09 102.708 597.981 102.974 597.764 103.192C597.554 103.401 597.292 103.506 596.978 103.506C596.679 103.506 596.417 103.401 596.192 103.192C595.974 102.974 595.865 102.708 595.865 102.394C595.865 102.079 595.97 101.817 596.18 101.607C596.397 101.39 596.663 101.281 596.978 101.281ZM602.273 94.7263C603.144 94.7263 603.842 94.9399 604.366 95.3672C604.898 95.7865 605.164 96.367 605.164 97.1087C605.164 97.6005 605.035 98.0117 604.777 98.3422C604.519 98.6728 604.16 98.8864 603.7 98.9832V99.0195C604.192 99.084 604.583 99.3057 604.873 99.6846C605.164 100.055 605.309 100.499 605.309 101.015C605.309 101.797 605.027 102.422 604.462 102.889C603.906 103.349 603.16 103.579 602.225 103.579C601.395 103.579 600.713 103.389 600.181 103.01C599.657 102.623 599.315 102.075 599.153 101.366L601.064 100.918C601.201 101.579 601.624 101.91 602.334 101.91C602.705 101.91 602.991 101.813 603.192 101.62C603.394 101.426 603.495 101.156 603.495 100.809C603.495 100.479 603.382 100.233 603.156 100.072C602.93 99.9023 602.495 99.8176 601.85 99.8176H601.378V98.2455H601.935C602.41 98.2455 602.765 98.1729 602.999 98.0278C603.233 97.8746 603.35 97.6287 603.35 97.2901C603.35 97.016 603.245 96.7983 603.035 96.6371C602.826 96.4758 602.576 96.3952 602.285 96.3952C602.027 96.3952 601.802 96.4637 601.608 96.6008C601.415 96.7378 601.286 96.9354 601.221 97.1934L599.226 96.7822C599.589 95.4116 600.604 94.7263 602.273 94.7263ZM609.527 94.7263C610.438 94.7263 611.196 95.0004 611.801 95.5486C612.413 96.0969 612.72 96.8023 612.72 97.665C612.72 98.0923 612.659 98.4995 612.538 98.8864C612.417 99.2734 612.127 99.8257 611.668 100.543L609.817 103.434H607.604L609.612 100.374C609.386 100.43 609.184 100.459 609.007 100.459C608.233 100.459 607.592 100.197 607.084 99.6725C606.584 99.1485 606.334 98.4793 606.334 97.665C606.334 96.8185 606.637 96.117 607.241 95.5607C607.846 95.0044 608.608 94.7263 609.527 94.7263ZM608.148 97.7376C608.148 98.1326 608.273 98.4551 608.523 98.705C608.781 98.955 609.116 99.0799 609.527 99.0799C609.922 99.0799 610.249 98.959 610.507 98.7171C610.773 98.4672 610.906 98.1407 610.906 97.7376C610.906 97.3345 610.773 97.012 610.507 96.7701C610.241 96.5202 609.91 96.3952 609.515 96.3952C609.128 96.3952 608.801 96.5202 608.535 96.7701C608.277 97.02 608.148 97.3425 608.148 97.7376ZM620.518 94.4844L621.533 95.0528L616.539 103.821L615.62 103.301L620.518 94.4844ZM617.905 97.1208C617.905 97.7738 617.672 98.3382 617.204 98.8139C616.744 99.2815 616.184 99.5153 615.523 99.5153C614.854 99.5153 614.289 99.2855 613.83 98.826C613.37 98.3584 613.141 97.79 613.141 97.1208C613.141 96.4678 613.37 95.9074 613.83 95.4398C614.297 94.9641 614.862 94.7263 615.523 94.7263C616.168 94.7263 616.724 94.9561 617.192 95.4156C617.668 95.8752 617.905 96.4436 617.905 97.1208ZM615.523 98.2818C615.829 98.2818 616.095 98.1729 616.321 97.9553C616.555 97.7376 616.672 97.4594 616.672 97.1208C616.672 96.7822 616.555 96.504 616.321 96.2864C616.095 96.0687 615.829 95.9598 615.523 95.9598C615.184 95.9598 614.906 96.0767 614.688 96.3105C614.479 96.5443 614.374 96.8144 614.374 97.1208C614.374 97.4191 614.479 97.6892 614.688 97.9311C614.906 98.1649 615.184 98.2818 615.523 98.2818ZM623.988 101.172C623.988 101.833 623.755 102.402 623.287 102.877C622.827 103.345 622.267 103.579 621.606 103.579C620.937 103.579 620.372 103.345 619.913 102.877C619.453 102.402 619.224 101.833 619.224 101.172C619.224 100.519 619.453 99.9587 619.913 99.4911C620.38 99.0154 620.945 98.7776 621.606 98.7776C622.275 98.7776 622.839 99.0154 623.299 99.4911C623.759 99.9587 623.988 100.519 623.988 101.172ZM621.606 102.345C621.928 102.345 622.199 102.236 622.416 102.019C622.642 101.793 622.755 101.511 622.755 101.172C622.755 100.833 622.638 100.555 622.404 100.338C622.178 100.12 621.912 100.011 621.606 100.011C621.267 100.011 620.989 100.128 620.771 100.362C620.562 100.596 620.457 100.866 620.457 101.172C620.457 101.495 620.566 101.773 620.784 102.007C621.009 102.232 621.283 102.345 621.606 102.345Z" fill="white"/>
<path d="M347.684 135.092V143.654H345.943V137.124L344.225 138.636L343.197 137.45L345.991 135.092H347.684ZM353.196 134.947C354.212 134.947 354.994 135.33 355.542 136.096C356.099 136.862 356.377 137.954 356.377 139.373C356.377 140.784 356.103 141.877 355.554 142.651C355.006 143.416 354.22 143.799 353.196 143.799C352.172 143.799 351.386 143.412 350.838 142.638C350.29 141.864 350.016 140.776 350.016 139.373C350.016 137.946 350.294 136.854 350.85 136.096C351.406 135.33 352.188 134.947 353.196 134.947ZM351.83 139.373C351.83 141.211 352.285 142.131 353.196 142.131C353.648 142.131 353.986 141.913 354.212 141.477C354.446 141.042 354.563 140.341 354.563 139.373C354.563 137.535 354.103 136.616 353.184 136.616C352.281 136.616 351.83 137.535 351.83 139.373ZM358.563 141.502C358.878 141.502 359.14 141.615 359.349 141.84C359.567 142.058 359.676 142.316 359.676 142.614C359.676 142.929 359.567 143.195 359.349 143.412C359.14 143.622 358.878 143.727 358.563 143.727C358.265 143.727 358.003 143.622 357.777 143.412C357.559 143.195 357.451 142.929 357.451 142.614C357.451 142.3 357.555 142.038 357.765 141.828C357.983 141.61 358.249 141.502 358.563 141.502ZM363.956 134.947C364.867 134.947 365.625 135.221 366.229 135.769C366.842 136.318 367.148 137.023 367.148 137.886C367.148 138.313 367.088 138.72 366.967 139.107C366.846 139.494 366.556 140.046 366.096 140.764L364.246 143.654H362.033L364.04 140.595C363.815 140.651 363.613 140.679 363.436 140.679C362.662 140.679 362.021 140.417 361.513 139.893C361.013 139.369 360.763 138.7 360.763 137.886C360.763 137.039 361.065 136.338 361.67 135.781C362.275 135.225 363.037 134.947 363.956 134.947ZM362.577 137.958C362.577 138.353 362.702 138.676 362.952 138.926C363.21 139.176 363.544 139.301 363.956 139.301C364.351 139.301 364.677 139.18 364.935 138.938C365.201 138.688 365.334 138.361 365.334 137.958C365.334 137.555 365.201 137.233 364.935 136.991C364.669 136.741 364.339 136.616 363.944 136.616C363.557 136.616 363.23 136.741 362.964 136.991C362.706 137.241 362.577 137.563 362.577 137.958ZM372.733 135.092V143.654H370.992V137.124L369.274 138.636L368.246 137.45L371.04 135.092H372.733ZM382.103 134.705L383.119 135.274L378.124 144.041L377.205 143.521L382.103 134.705ZM379.491 137.342C379.491 137.995 379.257 138.559 378.789 139.035C378.33 139.502 377.77 139.736 377.108 139.736C376.439 139.736 375.875 139.506 375.415 139.047C374.956 138.579 374.726 138.011 374.726 137.342C374.726 136.688 374.956 136.128 375.415 135.661C375.883 135.185 376.447 134.947 377.108 134.947C377.753 134.947 378.31 135.177 378.777 135.636C379.253 136.096 379.491 136.664 379.491 137.342ZM377.108 138.502C377.415 138.502 377.681 138.394 377.907 138.176C378.14 137.958 378.257 137.68 378.257 137.342C378.257 137.003 378.14 136.725 377.907 136.507C377.681 136.289 377.415 136.181 377.108 136.181C376.77 136.181 376.492 136.297 376.274 136.531C376.064 136.765 375.96 137.035 375.96 137.342C375.96 137.64 376.064 137.91 376.274 138.152C376.492 138.386 376.77 138.502 377.108 138.502ZM385.574 141.393C385.574 142.054 385.34 142.622 384.872 143.098C384.413 143.566 383.853 143.799 383.191 143.799C382.522 143.799 381.958 143.566 381.498 143.098C381.039 142.622 380.809 142.054 380.809 141.393C380.809 140.74 381.039 140.179 381.498 139.712C381.966 139.236 382.53 138.998 383.191 138.998C383.861 138.998 384.425 139.236 384.885 139.712C385.344 140.179 385.574 140.74 385.574 141.393ZM383.191 142.566C383.514 142.566 383.784 142.457 384.002 142.239C384.227 142.014 384.34 141.731 384.34 141.393C384.34 141.054 384.223 140.776 383.99 140.558C383.764 140.341 383.498 140.232 383.191 140.232C382.853 140.232 382.575 140.349 382.357 140.583C382.147 140.816 382.043 141.086 382.043 141.393C382.043 141.715 382.151 141.993 382.369 142.227C382.595 142.453 382.869 142.566 383.191 142.566Z" fill="white"/>
<path d="M343.365 175.313V183.875H341.624V177.345L339.906 178.856L338.878 177.671L341.672 175.313H343.365ZM348.877 175.168C349.893 175.168 350.675 175.551 351.223 176.317C351.78 177.082 352.058 178.175 352.058 179.594C352.058 181.005 351.784 182.097 351.235 182.871C350.687 183.637 349.901 184.02 348.877 184.02C347.853 184.02 347.067 183.633 346.519 182.859C345.971 182.085 345.697 180.997 345.697 179.594C345.697 178.167 345.975 177.074 346.531 176.317C347.087 175.551 347.869 175.168 348.877 175.168ZM347.511 179.594C347.511 181.432 347.966 182.351 348.877 182.351C349.329 182.351 349.667 182.134 349.893 181.698C350.127 181.263 350.244 180.561 350.244 179.594C350.244 177.756 349.784 176.837 348.865 176.837C347.962 176.837 347.511 177.756 347.511 179.594ZM354.244 181.722C354.559 181.722 354.821 181.835 355.03 182.061C355.248 182.279 355.357 182.537 355.357 182.835C355.357 183.149 355.248 183.415 355.03 183.633C354.821 183.843 354.559 183.948 354.244 183.948C353.946 183.948 353.684 183.843 353.458 183.633C353.24 183.415 353.132 183.149 353.132 182.835C353.132 182.521 353.236 182.259 353.446 182.049C353.664 181.831 353.93 181.722 354.244 181.722ZM361.511 175.313L359.504 178.372C359.729 178.316 359.927 178.288 360.096 178.288C360.886 178.288 361.531 178.554 362.031 179.086C362.531 179.618 362.781 180.283 362.781 181.081C362.781 181.944 362.475 182.65 361.862 183.198C361.257 183.746 360.499 184.02 359.588 184.02C358.685 184.02 357.927 183.746 357.315 183.198C356.702 182.65 356.396 181.944 356.396 181.081C356.396 180.823 356.416 180.59 356.456 180.38C356.496 180.162 356.557 179.941 356.637 179.715C356.718 179.481 356.815 179.259 356.928 179.05C357.049 178.832 357.839 177.586 359.298 175.313H361.511ZM358.21 181.009C358.21 181.412 358.343 181.738 358.609 181.988C358.883 182.23 359.209 182.351 359.588 182.351C359.975 182.351 360.302 182.23 360.568 181.988C360.834 181.747 360.967 181.42 360.967 181.009C360.967 180.598 360.83 180.271 360.556 180.029C360.29 179.787 359.963 179.666 359.576 179.666C359.205 179.666 358.883 179.791 358.609 180.041C358.343 180.283 358.21 180.606 358.21 181.009ZM366.794 175.168C367.705 175.168 368.462 175.442 369.067 175.99C369.68 176.538 369.986 177.244 369.986 178.106C369.986 178.534 369.926 178.941 369.805 179.328C369.684 179.715 369.394 180.267 368.934 180.985L367.084 183.875H364.871L366.878 180.815C366.652 180.872 366.451 180.9 366.274 180.9C365.5 180.9 364.859 180.638 364.351 180.114C363.851 179.59 363.601 178.921 363.601 178.106C363.601 177.26 363.903 176.558 364.508 176.002C365.113 175.446 365.874 175.168 366.794 175.168ZM365.415 178.179C365.415 178.574 365.54 178.897 365.79 179.146C366.048 179.396 366.382 179.521 366.794 179.521C367.189 179.521 367.515 179.4 367.773 179.159C368.039 178.909 368.172 178.582 368.172 178.179C368.172 177.776 368.039 177.453 367.773 177.211C367.507 176.962 367.177 176.837 366.781 176.837C366.394 176.837 366.068 176.962 365.802 177.211C365.544 177.461 365.415 177.784 365.415 178.179ZM377.784 174.926L378.8 175.494L373.805 184.262L372.886 183.742L377.784 174.926ZM375.172 177.562C375.172 178.215 374.938 178.78 374.47 179.255C374.011 179.723 373.451 179.957 372.789 179.957C372.12 179.957 371.556 179.727 371.096 179.267C370.637 178.8 370.407 178.231 370.407 177.562C370.407 176.909 370.637 176.349 371.096 175.881C371.564 175.406 372.128 175.168 372.789 175.168C373.434 175.168 373.991 175.397 374.458 175.857C374.934 176.317 375.172 176.885 375.172 177.562ZM372.789 178.723C373.096 178.723 373.362 178.614 373.588 178.397C373.821 178.179 373.938 177.901 373.938 177.562C373.938 177.224 373.821 176.945 373.588 176.728C373.362 176.51 373.096 176.401 372.789 176.401C372.451 176.401 372.173 176.518 371.955 176.752C371.745 176.986 371.641 177.256 371.641 177.562C371.641 177.861 371.745 178.131 371.955 178.372C372.173 178.606 372.451 178.723 372.789 178.723ZM381.255 181.614C381.255 182.275 381.021 182.843 380.553 183.319C380.094 183.786 379.534 184.02 378.872 184.02C378.203 184.02 377.639 183.786 377.179 183.319C376.72 182.843 376.49 182.275 376.49 181.614C376.49 180.96 376.72 180.4 377.179 179.933C377.647 179.457 378.211 179.219 378.872 179.219C379.542 179.219 380.106 179.457 380.566 179.933C381.025 180.4 381.255 180.96 381.255 181.614ZM378.872 182.787C379.195 182.787 379.465 182.678 379.683 182.46C379.908 182.234 380.021 181.952 380.021 181.614C380.021 181.275 379.904 180.997 379.671 180.779C379.445 180.561 379.179 180.453 378.872 180.453C378.534 180.453 378.256 180.569 378.038 180.803C377.828 181.037 377.724 181.307 377.724 181.614C377.724 181.936 377.832 182.214 378.05 182.448C378.276 182.674 378.55 182.787 378.872 182.787Z" fill="white"/>
<path d="M330.407 215.534V224.096H328.666V217.565L326.949 219.077L325.921 217.892L328.714 215.534H330.407ZM335.919 215.388C336.935 215.388 337.717 215.771 338.266 216.537C338.822 217.303 339.1 218.396 339.1 219.815C339.1 221.226 338.826 222.318 338.278 223.092C337.729 223.858 336.943 224.241 335.919 224.241C334.895 224.241 334.109 223.854 333.561 223.08C333.013 222.306 332.739 221.217 332.739 219.815C332.739 218.388 333.017 217.295 333.573 216.537C334.13 215.771 334.912 215.388 335.919 215.388ZM334.553 219.815C334.553 221.653 335.008 222.572 335.919 222.572C336.371 222.572 336.71 222.354 336.935 221.919C337.169 221.484 337.286 220.782 337.286 219.815C337.286 217.976 336.826 217.057 335.907 217.057C335.004 217.057 334.553 217.976 334.553 219.815ZM341.286 221.943C341.601 221.943 341.863 222.056 342.073 222.282C342.29 222.499 342.399 222.757 342.399 223.056C342.399 223.37 342.29 223.636 342.073 223.854C341.863 224.063 341.601 224.168 341.286 224.168C340.988 224.168 340.726 224.063 340.5 223.854C340.283 223.636 340.174 223.37 340.174 223.056C340.174 222.741 340.279 222.479 340.488 222.27C340.706 222.052 340.972 221.943 341.286 221.943ZM346.655 215.388C347.671 215.388 348.453 215.771 349.001 216.537C349.557 217.303 349.835 218.396 349.835 219.815C349.835 221.226 349.561 222.318 349.013 223.092C348.465 223.858 347.679 224.241 346.655 224.241C345.631 224.241 344.845 223.854 344.297 223.08C343.748 222.306 343.474 221.217 343.474 219.815C343.474 218.388 343.752 217.295 344.309 216.537C344.865 215.771 345.647 215.388 346.655 215.388ZM345.288 219.815C345.288 221.653 345.744 222.572 346.655 222.572C347.106 222.572 347.445 222.354 347.671 221.919C347.904 221.484 348.021 220.782 348.021 219.815C348.021 217.976 347.562 217.057 346.643 217.057C345.74 217.057 345.288 217.976 345.288 219.815ZM353.957 215.388C354.795 215.388 355.464 215.622 355.964 216.09C356.472 216.549 356.726 217.174 356.726 217.964C356.726 218.464 356.637 218.883 356.46 219.222C356.291 219.553 355.944 219.952 355.42 220.419L353.001 222.499H356.799V224.096H350.825V222.173L354.15 219.186C354.449 218.912 354.65 218.69 354.755 218.521C354.86 218.351 354.912 218.174 354.912 217.988C354.912 217.706 354.807 217.481 354.598 217.311C354.388 217.142 354.142 217.057 353.86 217.057C353.554 217.057 353.3 217.154 353.098 217.348C352.897 217.541 352.78 217.807 352.747 218.146L350.933 218.013C350.99 217.158 351.284 216.509 351.816 216.066C352.356 215.614 353.07 215.388 353.957 215.388ZM364.826 215.147L365.842 215.715L360.848 224.483L359.928 223.963L364.826 215.147ZM362.214 217.783C362.214 218.436 361.98 219 361.513 219.476C361.053 219.944 360.493 220.177 359.832 220.177C359.163 220.177 358.598 219.948 358.139 219.488C357.679 219.02 357.449 218.452 357.449 217.783C357.449 217.13 357.679 216.57 358.139 216.102C358.606 215.626 359.171 215.388 359.832 215.388C360.477 215.388 361.033 215.618 361.501 216.078C361.976 216.537 362.214 217.106 362.214 217.783ZM359.832 218.944C360.138 218.944 360.404 218.835 360.63 218.617C360.864 218.4 360.981 218.122 360.981 217.783C360.981 217.444 360.864 217.166 360.63 216.948C360.404 216.731 360.138 216.622 359.832 216.622C359.493 216.622 359.215 216.739 358.997 216.973C358.788 217.206 358.683 217.477 358.683 217.783C358.683 218.081 358.788 218.351 358.997 218.593C359.215 218.827 359.493 218.944 359.832 218.944ZM368.297 221.834C368.297 222.495 368.063 223.064 367.596 223.539C367.136 224.007 366.576 224.241 365.915 224.241C365.246 224.241 364.681 224.007 364.222 223.539C363.762 223.064 363.532 222.495 363.532 221.834C363.532 221.181 363.762 220.621 364.222 220.153C364.689 219.678 365.254 219.44 365.915 219.44C366.584 219.44 367.148 219.678 367.608 220.153C368.067 220.621 368.297 221.181 368.297 221.834ZM365.915 223.007C366.237 223.007 366.507 222.898 366.725 222.681C366.951 222.455 367.064 222.173 367.064 221.834C367.064 221.496 366.947 221.217 366.713 221C366.487 220.782 366.221 220.673 365.915 220.673C365.576 220.673 365.298 220.79 365.08 221.024C364.871 221.258 364.766 221.528 364.766 221.834C364.766 222.157 364.875 222.435 365.092 222.669C365.318 222.894 365.592 223.007 365.915 223.007Z" fill="white"/>
<path d="M245.054 255.754V257.351H241.656L241.619 258.669C241.805 258.604 242.055 258.572 242.369 258.572C243.288 258.572 244.014 258.834 244.546 259.358C245.078 259.882 245.344 260.563 245.344 261.402C245.344 262.329 245.05 263.071 244.461 263.627C243.873 264.183 243.079 264.462 242.079 264.462C241.329 264.462 240.704 264.28 240.204 263.917C239.713 263.546 239.374 262.998 239.189 262.273L241.087 261.837C241.136 262.144 241.261 262.394 241.462 262.587C241.672 262.772 241.938 262.865 242.26 262.865C242.623 262.865 242.925 262.752 243.167 262.527C243.409 262.293 243.53 261.978 243.53 261.583C243.53 261.124 243.361 260.773 243.022 260.531C242.684 260.289 242.196 260.168 241.559 260.168C240.978 260.168 240.386 260.273 239.781 260.483L239.878 255.754H245.054ZM247.748 262.164C248.063 262.164 248.325 262.277 248.534 262.502C248.752 262.72 248.861 262.978 248.861 263.276C248.861 263.591 248.752 263.857 248.534 264.075C248.325 264.284 248.063 264.389 247.748 264.389C247.45 264.389 247.188 264.284 246.962 264.075C246.744 263.857 246.636 263.591 246.636 263.276C246.636 262.962 246.74 262.7 246.95 262.49C247.168 262.273 247.434 262.164 247.748 262.164ZM254.761 255.754V264.316H253.02V257.786L251.302 259.298L250.275 258.112L253.068 255.754H254.761ZM260.419 255.609C261.257 255.609 261.926 255.843 262.426 256.311C262.934 256.77 263.188 257.395 263.188 258.185C263.188 258.685 263.099 259.104 262.922 259.443C262.753 259.773 262.406 260.172 261.882 260.64L259.463 262.72H263.26V264.316H257.286V262.394L260.612 259.406C260.91 259.132 261.112 258.911 261.217 258.741C261.321 258.572 261.374 258.395 261.374 258.209C261.374 257.927 261.269 257.701 261.059 257.532C260.85 257.363 260.604 257.278 260.322 257.278C260.015 257.278 259.761 257.375 259.56 257.568C259.358 257.762 259.241 258.028 259.209 258.366L257.395 258.233C257.452 257.379 257.746 256.73 258.278 256.286C258.818 255.835 259.532 255.609 260.419 255.609ZM271.288 255.367L272.304 255.936L267.309 264.703L266.39 264.183L271.288 255.367ZM268.676 258.004C268.676 258.657 268.442 259.221 267.974 259.697C267.515 260.164 266.955 260.398 266.293 260.398C265.624 260.398 265.06 260.168 264.6 259.709C264.141 259.241 263.911 258.673 263.911 258.004C263.911 257.351 264.141 256.79 264.6 256.323C265.068 255.847 265.632 255.609 266.293 255.609C266.938 255.609 267.495 255.839 267.962 256.298C268.438 256.758 268.676 257.326 268.676 258.004ZM266.293 259.165C266.6 259.165 266.866 259.056 267.092 258.838C267.325 258.62 267.442 258.342 267.442 258.004C267.442 257.665 267.325 257.387 267.092 257.169C266.866 256.951 266.6 256.843 266.293 256.843C265.955 256.843 265.677 256.96 265.459 257.193C265.249 257.427 265.145 257.697 265.145 258.004C265.145 258.302 265.249 258.572 265.459 258.814C265.677 259.048 265.955 259.165 266.293 259.165ZM274.759 262.055C274.759 262.716 274.525 263.284 274.057 263.76C273.598 264.228 273.038 264.462 272.376 264.462C271.707 264.462 271.143 264.228 270.683 263.76C270.224 263.284 269.994 262.716 269.994 262.055C269.994 261.402 270.224 260.842 270.683 260.374C271.151 259.898 271.715 259.66 272.376 259.66C273.046 259.66 273.61 259.898 274.07 260.374C274.529 260.842 274.759 261.402 274.759 262.055ZM272.376 263.228C272.699 263.228 272.969 263.119 273.187 262.901C273.413 262.676 273.525 262.394 273.525 262.055C273.525 261.716 273.408 261.438 273.175 261.22C272.949 261.003 272.683 260.894 272.376 260.894C272.038 260.894 271.76 261.011 271.542 261.245C271.332 261.478 271.228 261.749 271.228 262.055C271.228 262.377 271.336 262.656 271.554 262.889C271.78 263.115 272.054 263.228 272.376 263.228Z" fill="white"/>
<path d="M235.931 295.974V301.296H237.032V302.819H235.931V304.537H234.19V302.819H230.453V301.296L233.948 295.974H235.931ZM234.166 298.345L232.267 301.296H234.19V298.345H234.166ZM239.109 302.384C239.424 302.384 239.686 302.497 239.896 302.723C240.113 302.94 240.222 303.198 240.222 303.497C240.222 303.811 240.113 304.077 239.896 304.295C239.686 304.504 239.424 304.609 239.109 304.609C238.811 304.609 238.549 304.504 238.323 304.295C238.106 304.077 237.997 303.811 237.997 303.497C237.997 303.182 238.102 302.92 238.311 302.711C238.529 302.493 238.795 302.384 239.109 302.384ZM246.376 295.974L244.369 299.034C244.595 298.978 244.792 298.949 244.961 298.949C245.752 298.949 246.397 299.215 246.896 299.748C247.396 300.28 247.646 300.945 247.646 301.743C247.646 302.606 247.34 303.311 246.727 303.859C246.122 304.408 245.365 304.682 244.454 304.682C243.551 304.682 242.793 304.408 242.18 303.859C241.567 303.311 241.261 302.606 241.261 301.743C241.261 301.485 241.281 301.251 241.321 301.042C241.362 300.824 241.422 300.602 241.503 300.376C241.583 300.143 241.68 299.921 241.793 299.711C241.914 299.494 242.704 298.248 244.163 295.974H246.376ZM243.075 301.67C243.075 302.074 243.208 302.4 243.474 302.65C243.748 302.892 244.075 303.013 244.454 303.013C244.841 303.013 245.167 302.892 245.433 302.65C245.699 302.408 245.832 302.082 245.832 301.67C245.832 301.259 245.695 300.933 245.421 300.691C245.155 300.449 244.828 300.328 244.441 300.328C244.071 300.328 243.748 300.453 243.474 300.703C243.208 300.945 243.075 301.267 243.075 301.67ZM251.635 295.829C252.53 295.829 253.231 296.047 253.739 296.482C254.247 296.918 254.501 297.486 254.501 298.188C254.501 298.647 254.376 299.046 254.126 299.385C253.876 299.715 253.517 299.949 253.05 300.086V300.11C254.114 300.409 254.646 301.102 254.646 302.19C254.646 302.932 254.368 303.533 253.811 303.992C253.263 304.452 252.538 304.682 251.635 304.682C250.74 304.682 250.014 304.46 249.458 304.017C248.901 303.565 248.623 302.956 248.623 302.19C248.623 301.65 248.76 301.203 249.034 300.848C249.309 300.493 249.704 300.247 250.22 300.11V300.086C249.76 299.949 249.401 299.715 249.143 299.385C248.893 299.054 248.768 298.655 248.768 298.188C248.768 297.478 249.022 296.91 249.53 296.482C250.046 296.047 250.748 295.829 251.635 295.829ZM250.582 298.442C250.582 298.708 250.679 298.933 250.873 299.119C251.074 299.304 251.328 299.397 251.635 299.397C251.949 299.397 252.203 299.304 252.396 299.119C252.59 298.933 252.687 298.708 252.687 298.442C252.687 298.167 252.586 297.942 252.384 297.764C252.191 297.587 251.937 297.498 251.622 297.498C251.292 297.498 251.034 297.595 250.849 297.788C250.671 297.974 250.582 298.192 250.582 298.442ZM250.437 301.937C250.437 302.251 250.55 302.509 250.776 302.711C251.01 302.912 251.296 303.013 251.635 303.013C251.973 303.013 252.255 302.916 252.481 302.723C252.715 302.529 252.832 302.267 252.832 301.937C252.832 301.622 252.715 301.364 252.481 301.163C252.255 300.953 251.969 300.848 251.622 300.848C251.284 300.848 251.002 300.949 250.776 301.15C250.55 301.352 250.437 301.614 250.437 301.937ZM262.649 295.587L263.665 296.156L258.671 304.924L257.751 304.404L262.649 295.587ZM260.037 298.224C260.037 298.877 259.803 299.441 259.336 299.917C258.876 300.385 258.316 300.618 257.655 300.618C256.986 300.618 256.421 300.389 255.962 299.929C255.502 299.461 255.272 298.893 255.272 298.224C255.272 297.571 255.502 297.01 255.962 296.543C256.429 296.067 256.994 295.829 257.655 295.829C258.3 295.829 258.856 296.059 259.324 296.519C259.799 296.978 260.037 297.547 260.037 298.224ZM257.655 299.385C257.961 299.385 258.227 299.276 258.453 299.058C258.687 298.841 258.804 298.562 258.804 298.224C258.804 297.885 258.687 297.607 258.453 297.389C258.227 297.172 257.961 297.063 257.655 297.063C257.316 297.063 257.038 297.18 256.82 297.414C256.611 297.647 256.506 297.917 256.506 298.224C256.506 298.522 256.611 298.792 256.82 299.034C257.038 299.268 257.316 299.385 257.655 299.385ZM266.12 302.275C266.12 302.936 265.886 303.505 265.419 303.98C264.959 304.448 264.399 304.682 263.738 304.682C263.069 304.682 262.504 304.448 262.045 303.98C261.585 303.505 261.355 302.936 261.355 302.275C261.355 301.622 261.585 301.062 262.045 300.594C262.512 300.118 263.077 299.881 263.738 299.881C264.407 299.881 264.971 300.118 265.431 300.594C265.89 301.062 266.12 301.622 266.12 302.275ZM263.738 303.448C264.06 303.448 264.33 303.339 264.548 303.122C264.774 302.896 264.887 302.614 264.887 302.275C264.887 301.937 264.77 301.658 264.536 301.441C264.31 301.223 264.044 301.114 263.738 301.114C263.399 301.114 263.121 301.231 262.903 301.465C262.694 301.699 262.589 301.969 262.589 302.275C262.589 302.598 262.698 302.876 262.915 303.11C263.141 303.335 263.415 303.448 263.738 303.448Z" fill="white"/>
<path d="M204.3 336.049C205.171 336.049 205.868 336.263 206.392 336.69C206.925 337.109 207.191 337.69 207.191 338.431C207.191 338.923 207.062 339.334 206.804 339.665C206.546 339.996 206.187 340.209 205.727 340.306V340.342C206.219 340.407 206.61 340.628 206.9 341.007C207.191 341.378 207.336 341.822 207.336 342.338C207.336 343.12 207.054 343.745 206.489 344.212C205.933 344.672 205.187 344.901 204.252 344.901C203.422 344.901 202.74 344.712 202.208 344.333C201.684 343.946 201.341 343.398 201.18 342.688L203.091 342.241C203.228 342.902 203.651 343.233 204.361 343.233C204.732 343.233 205.018 343.136 205.219 342.942C205.421 342.749 205.522 342.479 205.522 342.132C205.522 341.802 205.409 341.556 205.183 341.394C204.957 341.225 204.522 341.14 203.877 341.14H203.405V339.568H203.962C204.437 339.568 204.792 339.496 205.026 339.351C205.26 339.197 205.377 338.951 205.377 338.613C205.377 338.339 205.272 338.121 205.062 337.96C204.853 337.799 204.603 337.718 204.312 337.718C204.054 337.718 203.829 337.786 203.635 337.924C203.442 338.061 203.313 338.258 203.248 338.516L201.253 338.105C201.616 336.734 202.631 336.049 204.3 336.049ZM209.74 342.604C210.054 342.604 210.316 342.717 210.526 342.942C210.744 343.16 210.853 343.418 210.853 343.716C210.853 344.031 210.744 344.297 210.526 344.514C210.316 344.724 210.054 344.829 209.74 344.829C209.442 344.829 209.18 344.724 208.954 344.514C208.736 344.297 208.627 344.031 208.627 343.716C208.627 343.402 208.732 343.14 208.942 342.93C209.159 342.713 209.425 342.604 209.74 342.604ZM216.753 336.194V344.756H215.011V338.226L213.294 339.738L212.266 338.552L215.06 336.194H216.753ZM222.41 336.049C223.249 336.049 223.918 336.283 224.418 336.75C224.926 337.21 225.18 337.835 225.18 338.625C225.18 339.125 225.091 339.544 224.914 339.883C224.744 340.213 224.398 340.612 223.874 341.08L221.455 343.16H225.252V344.756H219.278V342.833L222.604 339.846C222.902 339.572 223.104 339.351 223.208 339.181C223.313 339.012 223.366 338.835 223.366 338.649C223.366 338.367 223.261 338.141 223.051 337.972C222.842 337.803 222.596 337.718 222.313 337.718C222.007 337.718 221.753 337.815 221.552 338.008C221.35 338.202 221.233 338.468 221.201 338.806L219.387 338.673C219.443 337.819 219.738 337.17 220.27 336.726C220.81 336.275 221.523 336.049 222.41 336.049ZM233.28 335.807L234.296 336.376L229.301 345.143L228.382 344.623L233.28 335.807ZM230.668 338.444C230.668 339.097 230.434 339.661 229.966 340.137C229.507 340.604 228.946 340.838 228.285 340.838C227.616 340.838 227.052 340.608 226.592 340.149C226.133 339.681 225.903 339.113 225.903 338.444C225.903 337.791 226.133 337.23 226.592 336.763C227.06 336.287 227.624 336.049 228.285 336.049C228.93 336.049 229.486 336.279 229.954 336.738C230.43 337.198 230.668 337.766 230.668 338.444ZM228.285 339.605C228.592 339.605 228.858 339.496 229.083 339.278C229.317 339.06 229.434 338.782 229.434 338.444C229.434 338.105 229.317 337.827 229.083 337.609C228.858 337.391 228.592 337.283 228.285 337.283C227.947 337.283 227.668 337.399 227.451 337.633C227.241 337.867 227.136 338.137 227.136 338.444C227.136 338.742 227.241 339.012 227.451 339.254C227.668 339.488 227.947 339.605 228.285 339.605ZM236.751 342.495C236.751 343.156 236.517 343.724 236.049 344.2C235.59 344.668 235.029 344.901 234.368 344.901C233.699 344.901 233.135 344.668 232.675 344.2C232.216 343.724 231.986 343.156 231.986 342.495C231.986 341.842 232.216 341.281 232.675 340.814C233.143 340.338 233.707 340.1 234.368 340.1C235.037 340.1 235.602 340.338 236.061 340.814C236.521 341.281 236.751 341.842 236.751 342.495ZM234.368 343.668C234.691 343.668 234.961 343.559 235.178 343.341C235.404 343.116 235.517 342.833 235.517 342.495C235.517 342.156 235.4 341.878 235.166 341.66C234.941 341.443 234.675 341.334 234.368 341.334C234.03 341.334 233.751 341.451 233.534 341.685C233.324 341.918 233.219 342.189 233.219 342.495C233.219 342.817 233.328 343.096 233.546 343.329C233.772 343.555 234.046 343.668 234.368 343.668Z" fill="white"/>
<line x1="4.37114e-08" y1="417.5" x2="840" y2="417.5" stroke="#829BC4" stroke-opacity="0.3"/>
<g style="mix-blend-mode:multiply" opacity="0.5" clip-path="url(#clip0_3651_5742)">
<path d="M66.3014 449.395L65.2849 446.467H59.6732C59.5186 446.919 59.3547 447.412 59.186 447.942L58.7223 449.395H56.0007L61.0269 435.823H63.9452L68.8403 449.395H66.2967H66.3014ZM62.4697 438.77C62.1324 439.692 61.8045 440.583 61.4954 441.451C61.1862 442.319 60.8443 443.237 60.4789 444.215H64.4792L62.4697 438.77V438.77Z" fill="#666666"/>
<path d="M77.0097 435.864H71.8898V449.422H74.2553V444.804H77.0097C79.8155 444.804 81.1787 443.653 81.1787 441.282V439.363C81.1787 437.006 79.8155 435.864 77.0097 435.864V435.864ZM74.2553 437.998H76.9535C78.5555 437.998 78.8131 438.409 78.8131 439.386V441.287C78.8131 442.246 78.5461 442.675 76.9535 442.675H74.2553V437.998Z" fill="#666666"/>
<path d="M89.0342 435.864H83.9143V449.422H86.2799V444.804H89.0342C91.8401 444.804 93.2032 443.653 93.2032 441.282V439.363C93.2032 437.006 91.8401 435.864 89.0342 435.864V435.864ZM86.2799 437.998H88.978C90.58 437.998 90.8376 438.409 90.8376 439.386V441.287C90.8376 442.246 90.5706 442.675 88.978 442.675H86.2799V437.998Z" fill="#666666"/>
<path d="M100.197 448.07H106.619V449.427H98.7961V435.883H100.197V448.07V448.07Z" fill="#666666"/>
<path d="M118.924 445.485C118.924 447.741 117.486 449.596 113.898 449.596C110.31 449.596 108.872 447.746 108.872 445.485V439.747C108.872 437.491 110.31 435.636 113.898 435.636C117.486 435.636 118.924 437.486 118.924 439.747V445.485ZM110.174 445.503C110.174 447.449 111.392 448.541 113.95 448.541C116.507 448.541 117.721 447.449 117.721 445.503V439.725C117.721 437.779 116.503 436.687 113.95 436.687C111.397 436.687 110.174 437.779 110.174 439.725V445.503Z" fill="#666666"/>
<path d="M121.056 435.883H122.447L126.939 448.07L131.441 435.883H132.865L127.871 449.432H126.026L121.06 435.883H121.056Z" fill="#666666"/>
<path d="M137.17 449.432H135.769V435.883H137.17V449.432Z" fill="#666666"/>
<path d="M143.882 437.509V449.427H142.566V435.883H144.632L150.679 447.476V435.883H151.995V449.432H150.323L143.878 437.514L143.882 437.509Z" fill="#666666"/>
<path d="M45.5081 447.641C43.7702 447.641 42.3556 449.02 42.3556 450.715C42.3556 452.41 43.7702 453.789 45.5081 453.789C47.246 453.789 48.6606 452.41 48.6606 450.715C48.6606 449.02 47.246 447.641 45.5081 447.641V447.641ZM47.3724 450.715C47.3724 451.72 46.5339 452.533 45.5081 452.533C44.4822 452.533 43.6438 451.715 43.6438 450.715C43.6438 449.715 44.4822 448.897 45.5081 448.897C46.5339 448.897 47.3724 449.715 47.3724 450.715Z" fill="#666666"/>
<path d="M24.1525 447.641C22.4146 447.641 21 449.02 21 450.715C21 452.41 22.4146 453.789 24.1525 453.789C25.8904 453.789 27.305 452.41 27.305 450.715C27.305 449.02 25.8904 447.641 24.1525 447.641V447.641ZM26.0168 450.715C26.0168 451.72 25.1784 452.533 24.1525 452.533C23.1267 452.533 22.2882 451.715 22.2882 450.715C22.2882 449.715 23.1267 448.897 24.1525 448.897C25.1784 448.897 26.0168 449.715 26.0168 450.715Z" fill="#666666"/>
<path d="M34.8326 430.794C33.0947 430.794 31.6801 432.173 31.6801 433.868C31.6801 435.563 33.0947 436.943 34.8326 436.943C36.5704 436.943 37.9851 435.563 37.9851 433.868C37.9851 432.173 36.5704 430.794 34.8326 430.794ZM36.6969 433.868C36.6969 434.873 35.8584 435.686 34.8326 435.686C33.8067 435.686 32.9682 434.869 32.9682 433.868C32.9682 432.868 33.8067 432.05 34.8326 432.05C35.8584 432.05 36.6969 432.868 36.6969 433.868Z" fill="#666666"/>
<path d="M44.3416 447.983L37.3761 435.755L37.3105 435.636L37.2215 435.741C36.9826 436.033 36.6875 436.266 36.3549 436.444L36.2706 436.49L36.3175 436.572L42.482 447.399C40.3319 446.928 37.6572 446.672 34.9169 446.672C31.8955 446.672 29.2114 446.924 27.1316 447.394L33.3008 436.568L33.3476 436.486L33.2633 436.44C32.9261 436.266 32.6356 436.029 32.3967 435.736L32.3077 435.631L32.2422 435.75L25.2767 447.979L25.2205 448.075L25.3235 448.111C25.6655 448.225 25.9793 448.641 26.2557 448.879L26.3025 448.92L26.3587 448.892H26.3822C28.6025 448.289 31.5583 447.97 34.9216 447.97C37.9476 447.97 40.8846 448.294 43.1986 448.883L43.2455 448.97L43.3345 448.901L43.3532 448.888C43.6343 448.646 43.9481 448.23 44.2901 448.116L44.3931 448.079L44.3369 447.983H44.3416Z" fill="#666666"/>
</g>
<defs>
<linearGradient id="paint0_linear_3651_5742" x1="241.479" y1="340.088" x2="241.479" y2="3.71257" gradientUnits="userSpaceOnUse">
<stop stop-color="#FF9F20"/>
<stop offset="1" stop-color="#FC336D"/>
</linearGradient>
<linearGradient id="paint1_linear_3651_5742" x1="241.479" y1="340.088" x2="241.479" y2="3.71257" gradientUnits="userSpaceOnUse">
<stop stop-color="#FF9F20"/>
<stop offset="1" stop-color="#FC336D"/>
</linearGradient>
<linearGradient id="paint2_linear_3651_5742" x1="241.479" y1="340.088" x2="241.479" y2="3.71257" gradientUnits="userSpaceOnUse">
<stop stop-color="#FF9F20"/>
<stop offset="1" stop-color="#FC336D"/>
</linearGradient>
<linearGradient id="paint3_linear_3651_5742" x1="241.479" y1="340.088" x2="241.479" y2="3.71257" gradientUnits="userSpaceOnUse">
<stop stop-color="#FF9F20"/>
<stop offset="1" stop-color="#FC336D"/>
</linearGradient>
<linearGradient id="paint4_linear_3651_5742" x1="241.479" y1="340.088" x2="241.479" y2="3.71257" gradientUnits="userSpaceOnUse">
<stop stop-color="#FF9F20"/>
<stop offset="1" stop-color="#FC336D"/>
</linearGradient>
<linearGradient id="paint5_linear_3651_5742" x1="241.479" y1="340.088" x2="241.479" y2="3.71257" gradientUnits="userSpaceOnUse">
<stop stop-color="#FF9F20"/>
<stop offset="1" stop-color="#FC336D"/>
</linearGradient>
<linearGradient id="paint6_linear_3651_5742" x1="241.479" y1="340.088" x2="241.479" y2="3.71257" gradientUnits="userSpaceOnUse">
<stop stop-color="#FF9F20"/>
<stop offset="1" stop-color="#FC336D"/>
</linearGradient>
<linearGradient id="paint7_linear_3651_5742" x1="241.479" y1="340.088" x2="241.479" y2="3.71257" gradientUnits="userSpaceOnUse">
<stop stop-color="#FF9F20"/>
<stop offset="1" stop-color="#FC336D"/>
</linearGradient>
<clipPath id="clip0_3651_5742">
<rect width="131" height="23" fill="white" transform="translate(21 430.794)"/>
</clipPath>
</defs>
</svg>
