<svg width="840" height="472" viewBox="0 0 840 472" fill="none" xmlns="http://www.w3.org/2000/svg">
<path d="M165.549 158.69C166.762 158.69 167.677 158.951 168.293 159.474C168.909 159.987 169.217 160.729 169.217 161.7C169.217 162.428 169.025 163.03 168.643 163.506C168.269 163.982 167.747 164.285 167.075 164.416L169.595 168.602H166.977L164.905 164.64H163.827V168.602H161.643V158.69H165.549ZM165.185 162.792C165.829 162.792 166.281 162.708 166.543 162.54C166.813 162.362 166.949 162.078 166.949 161.686C166.949 160.92 166.403 160.538 165.311 160.538H163.827V162.792H165.185ZM170.245 165.2C170.245 164.154 170.6 163.3 171.309 162.638C172.018 161.966 172.942 161.63 174.081 161.63C175.033 161.63 175.794 161.961 176.363 162.624C176.932 163.277 177.217 164.159 177.217 165.27V165.858H172.345C172.429 166.25 172.606 166.567 172.877 166.81C173.148 167.052 173.498 167.174 173.927 167.174C174.506 167.174 175.005 166.898 175.425 166.348L176.895 167.426C176.559 167.855 176.125 168.186 175.593 168.42C175.07 168.653 174.548 168.77 174.025 168.77C172.942 168.77 172.042 168.438 171.323 167.776C170.604 167.104 170.245 166.245 170.245 165.2ZM175.117 164.43C175.117 164.038 174.991 163.725 174.739 163.492C174.487 163.258 174.179 163.142 173.815 163.142C173.423 163.142 173.087 163.258 172.807 163.492C172.536 163.725 172.382 164.038 172.345 164.43H175.117ZM182.526 161.63C183.385 161.63 184.019 161.872 184.43 162.358C184.841 162.834 185.046 163.632 185.046 164.752V168.602H182.946V165.102C182.946 164.495 182.853 164.075 182.666 163.842C182.489 163.599 182.218 163.478 181.854 163.478C181.434 163.478 181.117 163.608 180.902 163.87C180.697 164.131 180.594 164.556 180.594 165.144V168.602H178.494V161.798H180.51V162.722H180.538C180.725 162.376 180.991 162.11 181.336 161.924C181.691 161.728 182.087 161.63 182.526 161.63ZM190.061 161.63C191.162 161.63 192.068 161.966 192.777 162.638C193.486 163.31 193.841 164.164 193.841 165.2C193.841 166.254 193.477 167.113 192.749 167.776C192.03 168.438 191.134 168.77 190.061 168.77C188.969 168.77 188.064 168.438 187.345 167.776C186.636 167.113 186.281 166.254 186.281 165.2C186.281 164.154 186.636 163.3 187.345 162.638C188.054 161.966 188.96 161.63 190.061 161.63ZM188.381 165.2C188.381 165.713 188.53 166.128 188.829 166.446C189.128 166.763 189.538 166.922 190.061 166.922C190.574 166.922 190.98 166.768 191.279 166.46C191.587 166.152 191.741 165.732 191.741 165.2C191.741 164.668 191.587 164.248 191.279 163.94C190.98 163.632 190.57 163.478 190.047 163.478C189.534 163.478 189.128 163.641 188.829 163.968C188.53 164.285 188.381 164.696 188.381 165.2ZM196.632 161.798L198.354 166.418H198.382L199.978 161.798H202.092L199.404 168.602H197.178L194.364 161.798H196.632ZM205.951 161.63C207.034 161.63 207.823 161.891 208.317 162.414C208.812 162.936 209.059 163.814 209.059 165.046V168.602H207.127V167.748H207.099C206.661 168.429 205.942 168.77 204.943 168.77C204.234 168.77 203.651 168.578 203.193 168.196C202.745 167.804 202.521 167.295 202.521 166.67C202.521 166.128 202.675 165.68 202.983 165.326C203.291 164.962 203.753 164.696 204.369 164.528C204.995 164.36 205.914 164.276 207.127 164.276C207.127 163.912 206.992 163.618 206.721 163.394C206.451 163.17 206.138 163.058 205.783 163.058C205.13 163.058 204.561 163.328 204.075 163.87L202.955 162.722C203.347 162.339 203.809 162.064 204.341 161.896C204.883 161.718 205.419 161.63 205.951 161.63ZM204.537 166.6C204.537 166.824 204.631 167.006 204.817 167.146C205.013 167.276 205.256 167.342 205.545 167.342C206.012 167.342 206.39 167.225 206.679 166.992C206.978 166.749 207.127 166.436 207.127 166.054V165.62H206.497C205.863 165.62 205.377 165.708 205.041 165.886C204.705 166.054 204.537 166.292 204.537 166.6ZM213.163 159.782V161.798H215.011V163.478H213.163V165.872C213.163 166.292 213.237 166.586 213.387 166.754C213.545 166.922 213.802 167.006 214.157 167.006C214.595 167.006 214.88 166.94 215.011 166.81V168.56C214.609 168.7 214.119 168.77 213.541 168.77C212.719 168.77 212.099 168.592 211.679 168.238C211.268 167.874 211.063 167.384 211.063 166.768V163.478H209.719V161.798H211.063V159.782H213.163ZM217.156 158.438C217.483 158.438 217.767 158.554 218.01 158.788C218.253 159.021 218.374 159.31 218.374 159.656C218.374 160.001 218.253 160.29 218.01 160.524C217.767 160.757 217.483 160.874 217.156 160.874C216.811 160.874 216.521 160.752 216.288 160.51C216.055 160.267 215.938 159.982 215.938 159.656C215.938 159.31 216.059 159.021 216.302 158.788C216.545 158.554 216.829 158.438 217.156 158.438ZM218.206 161.798V168.602H216.106V161.798H218.206ZM223.243 161.63C224.344 161.63 225.249 161.966 225.959 162.638C226.668 163.31 227.023 164.164 227.023 165.2C227.023 166.254 226.659 167.113 225.931 167.776C225.212 168.438 224.316 168.77 223.243 168.77C222.151 168.77 221.245 168.438 220.527 167.776C219.817 167.113 219.463 166.254 219.463 165.2C219.463 164.154 219.817 163.3 220.527 162.638C221.236 161.966 222.141 161.63 223.243 161.63ZM221.563 165.2C221.563 165.713 221.712 166.128 222.011 166.446C222.309 166.763 222.72 166.922 223.243 166.922C223.756 166.922 224.162 166.768 224.461 166.46C224.769 166.152 224.923 165.732 224.923 165.2C224.923 164.668 224.769 164.248 224.461 163.94C224.162 163.632 223.751 163.478 223.229 163.478C222.715 163.478 222.309 163.641 222.011 163.968C221.712 164.285 221.563 164.696 221.563 165.2ZM232.292 161.63C233.15 161.63 233.785 161.872 234.196 162.358C234.606 162.834 234.812 163.632 234.812 164.752V168.602H232.712V165.102C232.712 164.495 232.618 164.075 232.432 163.842C232.254 163.599 231.984 163.478 231.62 163.478C231.2 163.478 230.882 163.608 230.668 163.87C230.462 164.131 230.36 164.556 230.36 165.144V168.602H228.26V161.798H230.276V162.722H230.304C230.49 162.376 230.756 162.11 231.102 161.924C231.456 161.728 231.853 161.63 232.292 161.63Z" fill="#1A1A1A"/>
<path d="M166.435 179.017C167.875 179.017 169.028 179.371 169.895 180.077C170.775 180.771 171.215 181.731 171.215 182.957C171.215 183.771 171.001 184.451 170.575 184.997C170.148 185.544 169.555 185.897 168.795 186.057V186.117C169.608 186.224 170.255 186.591 170.735 187.217C171.215 187.831 171.455 188.564 171.455 189.417C171.455 190.711 170.988 191.744 170.055 192.517C169.135 193.277 167.901 193.657 166.355 193.657C164.981 193.657 163.855 193.344 162.975 192.717C162.108 192.077 161.541 191.171 161.275 189.997L164.435 189.257C164.661 190.351 165.361 190.897 166.535 190.897C167.148 190.897 167.621 190.737 167.955 190.417C168.288 190.097 168.455 189.651 168.455 189.077C168.455 188.531 168.268 188.124 167.895 187.857C167.521 187.577 166.801 187.437 165.735 187.437H164.955V184.837H165.875C166.661 184.837 167.248 184.717 167.635 184.477C168.021 184.224 168.215 183.817 168.215 183.257C168.215 182.804 168.041 182.444 167.695 182.177C167.348 181.911 166.935 181.777 166.455 181.777C166.028 181.777 165.655 181.891 165.335 182.117C165.015 182.344 164.801 182.671 164.695 183.097L161.395 182.417C161.995 180.151 163.675 179.017 166.435 179.017ZM181.531 179.257L178.211 184.317C178.584 184.224 178.911 184.177 179.191 184.177C180.497 184.177 181.564 184.617 182.391 185.497C183.217 186.377 183.631 187.477 183.631 188.797C183.631 190.224 183.124 191.391 182.111 192.297C181.111 193.204 179.857 193.657 178.351 193.657C176.857 193.657 175.604 193.204 174.591 192.297C173.577 191.391 173.071 190.224 173.071 188.797C173.071 188.371 173.104 187.984 173.171 187.637C173.237 187.277 173.337 186.911 173.471 186.537C173.604 186.151 173.764 185.784 173.951 185.437C174.151 185.077 175.457 183.017 177.871 179.257H181.531ZM176.071 188.677C176.071 189.344 176.291 189.884 176.731 190.297C177.184 190.697 177.724 190.897 178.351 190.897C178.991 190.897 179.531 190.697 179.971 190.297C180.411 189.897 180.631 189.357 180.631 188.677C180.631 187.997 180.404 187.457 179.951 187.057C179.511 186.657 178.971 186.457 178.331 186.457C177.717 186.457 177.184 186.664 176.731 187.077C176.291 187.477 176.071 188.011 176.071 188.677ZM187.267 189.857C187.787 189.857 188.22 190.044 188.567 190.417C188.927 190.777 189.107 191.204 189.107 191.697C189.107 192.217 188.927 192.657 188.567 193.017C188.22 193.364 187.787 193.537 187.267 193.537C186.773 193.537 186.34 193.364 185.967 193.017C185.607 192.657 185.427 192.217 185.427 191.697C185.427 191.177 185.6 190.744 185.947 190.397C186.307 190.037 186.747 189.857 187.267 189.857ZM198.865 179.257V193.417H195.985V182.617L193.145 185.117L191.445 183.157L196.065 179.257H198.865ZM214.361 178.617L216.041 179.557L207.781 194.057L206.261 193.197L214.361 178.617ZM210.041 182.977C210.041 184.057 209.654 184.991 208.881 185.777C208.121 186.551 207.194 186.937 206.101 186.937C204.994 186.937 204.061 186.557 203.301 185.797C202.541 185.024 202.161 184.084 202.161 182.977C202.161 181.897 202.541 180.971 203.301 180.197C204.074 179.411 205.007 179.017 206.101 179.017C207.167 179.017 208.087 179.397 208.861 180.157C209.647 180.917 210.041 181.857 210.041 182.977ZM206.101 184.897C206.607 184.897 207.047 184.717 207.421 184.357C207.807 183.997 208.001 183.537 208.001 182.977C208.001 182.417 207.807 181.957 207.421 181.597C207.047 181.237 206.607 181.057 206.101 181.057C205.541 181.057 205.081 181.251 204.721 181.637C204.374 182.024 204.201 182.471 204.201 182.977C204.201 183.471 204.374 183.917 204.721 184.317C205.081 184.704 205.541 184.897 206.101 184.897ZM220.101 189.677C220.101 190.771 219.714 191.711 218.941 192.497C218.181 193.271 217.254 193.657 216.161 193.657C215.054 193.657 214.121 193.271 213.361 192.497C212.601 191.711 212.221 190.771 212.221 189.677C212.221 188.597 212.601 187.671 213.361 186.897C214.134 186.111 215.067 185.717 216.161 185.717C217.267 185.717 218.201 186.111 218.961 186.897C219.721 187.671 220.101 188.597 220.101 189.677ZM216.161 191.617C216.694 191.617 217.141 191.437 217.501 191.077C217.874 190.704 218.061 190.237 218.061 189.677C218.061 189.117 217.867 188.657 217.481 188.297C217.107 187.937 216.667 187.757 216.161 187.757C215.601 187.757 215.141 187.951 214.781 188.337C214.434 188.724 214.261 189.171 214.261 189.677C214.261 190.211 214.441 190.671 214.801 191.057C215.174 191.431 215.627 191.617 216.161 191.617Z" fill="#FC336D"/>
<path d="M461.667 23.5477C462.32 23.5477 462.945 23.6737 463.543 23.9257C464.149 24.1683 464.639 24.5277 465.013 25.0037L463.333 26.3757C462.875 25.8343 462.25 25.5637 461.457 25.5637C460.635 25.5637 459.949 25.867 459.399 26.4737C458.857 27.071 458.587 27.8317 458.587 28.7557C458.587 29.6423 458.848 30.3983 459.371 31.0237C459.893 31.6397 460.565 31.9477 461.387 31.9477C462.264 31.9477 462.945 31.593 463.431 30.8837L465.251 32.2417C464.896 32.7643 464.401 33.1843 463.767 33.5017C463.141 33.8097 462.441 33.9637 461.667 33.9637C460.089 33.9637 458.801 33.483 457.803 32.5217C456.813 31.5603 456.319 30.305 456.319 28.7557C456.319 27.225 456.813 25.9743 457.803 25.0037C458.792 24.033 460.08 23.5477 461.667 23.5477ZM468.269 23.1277V27.8317H468.297C468.427 27.505 468.665 27.2437 469.011 27.0477C469.365 26.8423 469.762 26.7397 470.201 26.7397C471.115 26.7397 471.764 26.9963 472.147 27.5097C472.529 28.023 472.721 28.8163 472.721 29.8897V33.7117H470.621V30.2537C470.621 29.619 470.527 29.185 470.341 28.9517C470.154 28.709 469.883 28.5877 469.529 28.5877C469.109 28.5877 468.791 28.7183 468.577 28.9797C468.371 29.241 468.269 29.6657 468.269 30.2537V33.7117H466.169V23.1277H468.269ZM477.302 26.7397C478.384 26.7397 479.173 27.001 479.668 27.5237C480.162 28.0463 480.41 28.9237 480.41 30.1557V33.7117H478.478V32.8577H478.45C478.011 33.539 477.292 33.8797 476.294 33.8797C475.584 33.8797 475.001 33.6883 474.544 33.3057C474.096 32.9137 473.872 32.405 473.872 31.7797C473.872 31.2383 474.026 30.7903 474.334 30.4357C474.642 30.0717 475.104 29.8057 475.72 29.6377C476.345 29.4697 477.264 29.3857 478.478 29.3857C478.478 29.0217 478.342 28.7277 478.072 28.5037C477.801 28.2797 477.488 28.1677 477.134 28.1677C476.48 28.1677 475.911 28.4383 475.426 28.9797L474.306 27.8317C474.698 27.449 475.16 27.1737 475.692 27.0057C476.233 26.8283 476.77 26.7397 477.302 26.7397ZM475.888 31.7097C475.888 31.9337 475.981 32.1157 476.168 32.2557C476.364 32.3863 476.606 32.4517 476.896 32.4517C477.362 32.4517 477.74 32.335 478.03 32.1017C478.328 31.859 478.478 31.5463 478.478 31.1637V30.7297H477.848C477.213 30.7297 476.728 30.8183 476.392 30.9957C476.056 31.1637 475.888 31.4017 475.888 31.7097ZM485.829 26.7397C486.119 26.7397 486.347 26.763 486.515 26.8097V28.7277C486.198 28.6343 485.899 28.5877 485.619 28.5877C484.985 28.5877 484.527 28.7463 484.247 29.0637C483.967 29.3717 483.827 29.9457 483.827 30.7857V33.7117H481.727V26.9077H483.827V27.9997H483.855C484.079 27.5797 484.345 27.267 484.653 27.0617C484.961 26.847 485.353 26.7397 485.829 26.7397ZM490.523 26.7397C491.605 26.7397 492.394 27.001 492.889 27.5237C493.383 28.0463 493.631 28.9237 493.631 30.1557V33.7117H491.699V32.8577H491.671C491.232 33.539 490.513 33.8797 489.515 33.8797C488.805 33.8797 488.222 33.6883 487.765 33.3057C487.317 32.9137 487.093 32.405 487.093 31.7797C487.093 31.2383 487.247 30.7903 487.555 30.4357C487.863 30.0717 488.325 29.8057 488.941 29.6377C489.566 29.4697 490.485 29.3857 491.699 29.3857C491.699 29.0217 491.563 28.7277 491.293 28.5037C491.022 28.2797 490.709 28.1677 490.355 28.1677C489.701 28.1677 489.132 28.4383 488.647 28.9797L487.527 27.8317C487.919 27.449 488.381 27.1737 488.913 27.0057C489.454 26.8283 489.991 26.7397 490.523 26.7397ZM489.109 31.7097C489.109 31.9337 489.202 32.1157 489.389 32.2557C489.585 32.3863 489.827 32.4517 490.117 32.4517C490.583 32.4517 490.961 32.335 491.251 32.1017C491.549 31.859 491.699 31.5463 491.699 31.1637V30.7297H491.069C490.434 30.7297 489.949 30.8183 489.613 30.9957C489.277 31.1637 489.109 31.4017 489.109 31.7097ZM498.518 26.7397C498.947 26.7397 499.381 26.8143 499.82 26.9637C500.268 27.1037 500.641 27.3323 500.94 27.6497L499.554 29.1057C499.293 28.7603 498.947 28.5877 498.518 28.5877C497.995 28.5877 497.585 28.7463 497.286 29.0637C496.987 29.381 496.838 29.7963 496.838 30.3097C496.838 30.8417 496.992 31.2617 497.3 31.5697C497.608 31.8777 498.014 32.0317 498.518 32.0317C498.929 32.0317 499.274 31.859 499.554 31.5137L500.94 32.9697C500.352 33.5763 499.545 33.8797 498.518 33.8797C497.417 33.8797 496.511 33.5437 495.802 32.8717C495.093 32.1997 494.738 31.3457 494.738 30.3097C494.738 29.2643 495.093 28.4103 495.802 27.7477C496.511 27.0757 497.417 26.7397 498.518 26.7397ZM504.488 24.8917V26.9077H506.336V28.5877H504.488V30.9817C504.488 31.4017 504.563 31.6957 504.712 31.8637C504.871 32.0317 505.127 32.1157 505.482 32.1157C505.921 32.1157 506.205 32.0503 506.336 31.9197V33.6697C505.935 33.8097 505.445 33.8797 504.866 33.8797C504.045 33.8797 503.424 33.7023 503.004 33.3477C502.593 32.9837 502.388 32.4937 502.388 31.8777V28.5877H501.044V26.9077H502.388V24.8917H504.488ZM507.193 30.3097C507.193 29.2643 507.548 28.4103 508.257 27.7477C508.966 27.0757 509.89 26.7397 511.029 26.7397C511.981 26.7397 512.742 27.071 513.311 27.7337C513.88 28.387 514.165 29.269 514.165 30.3797V30.9677H509.293C509.377 31.3597 509.554 31.677 509.825 31.9197C510.096 32.1623 510.446 32.2837 510.875 32.2837C511.454 32.2837 511.953 32.0083 512.373 31.4577L513.843 32.5357C513.507 32.965 513.073 33.2963 512.541 33.5297C512.018 33.763 511.496 33.8797 510.973 33.8797C509.89 33.8797 508.99 33.5483 508.271 32.8857C507.552 32.2137 507.193 31.355 507.193 30.3097ZM512.065 29.5397C512.065 29.1477 511.939 28.835 511.687 28.6017C511.435 28.3683 511.127 28.2517 510.763 28.2517C510.371 28.2517 510.035 28.3683 509.755 28.6017C509.484 28.835 509.33 29.1477 509.293 29.5397H512.065ZM519.544 26.7397C519.834 26.7397 520.062 26.763 520.23 26.8097V28.7277C519.913 28.6343 519.614 28.5877 519.334 28.5877C518.7 28.5877 518.242 28.7463 517.962 29.0637C517.682 29.3717 517.542 29.9457 517.542 30.7857V33.7117H515.442V26.9077H517.542V27.9997H517.57C517.794 27.5797 518.06 27.267 518.368 27.0617C518.676 26.847 519.068 26.7397 519.544 26.7397ZM528.856 26.7397C529.285 26.7397 529.719 26.8143 530.158 26.9637C530.606 27.1037 530.979 27.3323 531.278 27.6497L529.892 29.1057C529.631 28.7603 529.285 28.5877 528.856 28.5877C528.333 28.5877 527.923 28.7463 527.624 29.0637C527.325 29.381 527.176 29.7963 527.176 30.3097C527.176 30.8417 527.33 31.2617 527.638 31.5697C527.946 31.8777 528.352 32.0317 528.856 32.0317C529.267 32.0317 529.612 31.859 529.892 31.5137L531.278 32.9697C530.69 33.5763 529.883 33.8797 528.856 33.8797C527.755 33.8797 526.849 33.5437 526.14 32.8717C525.431 32.1997 525.076 31.3457 525.076 30.3097C525.076 29.2643 525.431 28.4103 526.14 27.7477C526.849 27.0757 527.755 26.7397 528.856 26.7397ZM536.142 26.7397C536.431 26.7397 536.66 26.763 536.828 26.8097V28.7277C536.511 28.6343 536.212 28.5877 535.932 28.5877C535.297 28.5877 534.84 28.7463 534.56 29.0637C534.28 29.3717 534.14 29.9457 534.14 30.7857V33.7117H532.04V26.9077H534.14V27.9997H534.168C534.392 27.5797 534.658 27.267 534.966 27.0617C535.274 26.847 535.666 26.7397 536.142 26.7397ZM537.285 30.3097C537.285 29.2643 537.64 28.4103 538.349 27.7477C539.058 27.0757 539.982 26.7397 541.121 26.7397C542.073 26.7397 542.834 27.071 543.403 27.7337C543.972 28.387 544.257 29.269 544.257 30.3797V30.9677H539.385C539.469 31.3597 539.646 31.677 539.917 31.9197C540.188 32.1623 540.538 32.2837 540.967 32.2837C541.546 32.2837 542.045 32.0083 542.465 31.4577L543.935 32.5357C543.599 32.965 543.165 33.2963 542.633 33.5297C542.11 33.763 541.588 33.8797 541.065 33.8797C539.982 33.8797 539.082 33.5483 538.363 32.8857C537.644 32.2137 537.285 31.355 537.285 30.3097ZM542.157 29.5397C542.157 29.1477 542.031 28.835 541.779 28.6017C541.527 28.3683 541.219 28.2517 540.855 28.2517C540.463 28.2517 540.127 28.3683 539.847 28.6017C539.576 28.835 539.422 29.1477 539.385 29.5397H542.157ZM548.628 26.7397C549.711 26.7397 550.499 27.001 550.994 27.5237C551.489 28.0463 551.736 28.9237 551.736 30.1557V33.7117H549.804V32.8577H549.776C549.337 33.539 548.619 33.8797 547.62 33.8797C546.911 33.8797 546.327 33.6883 545.87 33.3057C545.422 32.9137 545.198 32.405 545.198 31.7797C545.198 31.2383 545.352 30.7903 545.66 30.4357C545.968 30.0717 546.43 29.8057 547.046 29.6377C547.671 29.4697 548.591 29.3857 549.804 29.3857C549.804 29.0217 549.669 28.7277 549.398 28.5037C549.127 28.2797 548.815 28.1677 548.46 28.1677C547.807 28.1677 547.237 28.4383 546.752 28.9797L545.632 27.8317C546.024 27.449 546.486 27.1737 547.018 27.0057C547.559 26.8283 548.096 26.7397 548.628 26.7397ZM547.214 31.7097C547.214 31.9337 547.307 32.1157 547.494 32.2557C547.69 32.3863 547.933 32.4517 548.222 32.4517C548.689 32.4517 549.067 32.335 549.356 32.1017C549.655 31.859 549.804 31.5463 549.804 31.1637V30.7297H549.174C548.539 30.7297 548.054 30.8183 547.718 30.9957C547.382 31.1637 547.214 31.4017 547.214 31.7097ZM555.84 24.8917V26.9077H557.688V28.5877H555.84V30.9817C555.84 31.4017 555.914 31.6957 556.064 31.8637C556.222 32.0317 556.479 32.1157 556.834 32.1157C557.272 32.1157 557.557 32.0503 557.688 31.9197V33.6697C557.286 33.8097 556.796 33.8797 556.218 33.8797C555.396 33.8797 554.776 33.7023 554.356 33.3477C553.945 32.9837 553.74 32.4937 553.74 31.8777V28.5877H552.396V26.9077H553.74V24.8917H555.84ZM559.833 23.5477C560.159 23.5477 560.444 23.6643 560.687 23.8977C560.929 24.131 561.051 24.4203 561.051 24.7657C561.051 25.111 560.929 25.4003 560.687 25.6337C560.444 25.867 560.159 25.9837 559.833 25.9837C559.487 25.9837 559.198 25.8623 558.965 25.6197C558.731 25.377 558.615 25.0923 558.615 24.7657C558.615 24.4203 558.736 24.131 558.979 23.8977C559.221 23.6643 559.506 23.5477 559.833 23.5477ZM560.883 26.9077V33.7117H558.783V26.9077H560.883ZM565.919 26.7397C567.021 26.7397 567.926 27.0757 568.635 27.7477C569.345 28.4197 569.699 29.2737 569.699 30.3097C569.699 31.3643 569.335 32.223 568.607 32.8857C567.889 33.5483 566.993 33.8797 565.919 33.8797C564.827 33.8797 563.922 33.5483 563.203 32.8857C562.494 32.223 562.139 31.3643 562.139 30.3097C562.139 29.2643 562.494 28.4103 563.203 27.7477C563.913 27.0757 564.818 26.7397 565.919 26.7397ZM564.239 30.3097C564.239 30.823 564.389 31.2383 564.687 31.5557C564.986 31.873 565.397 32.0317 565.919 32.0317C566.433 32.0317 566.839 31.8777 567.137 31.5697C567.445 31.2617 567.599 30.8417 567.599 30.3097C567.599 29.7777 567.445 29.3577 567.137 29.0497C566.839 28.7417 566.428 28.5877 565.905 28.5877C565.392 28.5877 564.986 28.751 564.687 29.0777C564.389 29.395 564.239 29.8057 564.239 30.3097ZM574.968 26.7397C575.827 26.7397 576.462 26.9823 576.872 27.4677C577.283 27.9437 577.488 28.7417 577.488 29.8617V33.7117H575.388V30.2117C575.388 29.605 575.295 29.185 575.108 28.9517C574.931 28.709 574.66 28.5877 574.296 28.5877C573.876 28.5877 573.559 28.7183 573.344 28.9797C573.139 29.241 573.036 29.6657 573.036 30.2537V33.7117H570.936V26.9077H572.952V27.8317H572.98C573.167 27.4863 573.433 27.2203 573.778 27.0337C574.133 26.8377 574.53 26.7397 574.968 26.7397Z" fill="#1A1A1A"/>
<path d="M461.803 44.1275C463.309 44.1275 464.563 44.5808 465.563 45.4875C466.576 46.3941 467.083 47.5608 467.083 48.9875C467.083 49.6941 466.983 50.3675 466.783 51.0075C466.583 51.6475 466.103 52.5608 465.343 53.7475L462.283 58.5275H458.623L461.943 53.4675C461.569 53.5608 461.236 53.6075 460.943 53.6075C459.663 53.6075 458.603 53.1741 457.763 52.3075C456.936 51.4408 456.523 50.3341 456.523 48.9875C456.523 47.5875 457.023 46.4275 458.023 45.5075C459.023 44.5875 460.283 44.1275 461.803 44.1275ZM459.523 49.1075C459.523 49.7608 459.729 50.2941 460.143 50.7075C460.569 51.1208 461.123 51.3275 461.803 51.3275C462.456 51.3275 462.996 51.1275 463.423 50.7275C463.863 50.3141 464.083 49.7741 464.083 49.1075C464.083 48.4408 463.863 47.9075 463.423 47.5075C462.983 47.0941 462.436 46.8875 461.783 46.8875C461.143 46.8875 460.603 47.0941 460.163 47.5075C459.736 47.9208 459.523 48.4541 459.523 49.1075ZM470.639 54.9675C471.159 54.9675 471.592 55.1541 471.939 55.5275C472.299 55.8875 472.479 56.3141 472.479 56.8075C472.479 57.3275 472.299 57.7675 471.939 58.1275C471.592 58.4741 471.159 58.6475 470.639 58.6475C470.145 58.6475 469.712 58.4741 469.339 58.1275C468.979 57.7675 468.799 57.3275 468.799 56.8075C468.799 56.2875 468.972 55.8541 469.319 55.5075C469.679 55.1475 470.119 54.9675 470.639 54.9675ZM479.397 44.1275C480.837 44.1275 481.99 44.4808 482.857 45.1875C483.737 45.8808 484.177 46.8408 484.177 48.0675C484.177 48.8808 483.963 49.5608 483.537 50.1075C483.11 50.6541 482.517 51.0075 481.757 51.1675V51.2275C482.57 51.3341 483.217 51.7008 483.697 52.3275C484.177 52.9408 484.417 53.6741 484.417 54.5275C484.417 55.8208 483.95 56.8541 483.017 57.6275C482.097 58.3875 480.863 58.7675 479.317 58.7675C477.943 58.7675 476.817 58.4541 475.937 57.8275C475.07 57.1875 474.503 56.2808 474.237 55.1075L477.397 54.3675C477.623 55.4608 478.323 56.0075 479.497 56.0075C480.11 56.0075 480.583 55.8475 480.917 55.5275C481.25 55.2075 481.417 54.7608 481.417 54.1875C481.417 53.6408 481.23 53.2341 480.857 52.9675C480.483 52.6875 479.763 52.5475 478.697 52.5475H477.917V49.9475H478.837C479.623 49.9475 480.21 49.8275 480.597 49.5875C480.983 49.3341 481.177 48.9275 481.177 48.3675C481.177 47.9141 481.003 47.5541 480.657 47.2875C480.31 47.0208 479.897 46.8875 479.417 46.8875C478.99 46.8875 478.617 47.0008 478.297 47.2275C477.977 47.4541 477.763 47.7808 477.657 48.2075L474.357 47.5275C474.957 45.2608 476.637 44.1275 479.397 44.1275ZM497.733 43.7275L499.413 44.6675L491.153 59.1675L489.633 58.3075L497.733 43.7275ZM493.413 48.0875C493.413 49.1675 493.026 50.1008 492.253 50.8875C491.493 51.6608 490.566 52.0475 489.473 52.0475C488.366 52.0475 487.433 51.6675 486.673 50.9075C485.913 50.1341 485.533 49.1941 485.533 48.0875C485.533 47.0075 485.913 46.0808 486.673 45.3075C487.446 44.5208 488.379 44.1275 489.473 44.1275C490.539 44.1275 491.459 44.5075 492.233 45.2675C493.019 46.0275 493.413 46.9675 493.413 48.0875ZM489.473 50.0075C489.979 50.0075 490.419 49.8275 490.793 49.4675C491.179 49.1075 491.373 48.6475 491.373 48.0875C491.373 47.5275 491.179 47.0675 490.793 46.7075C490.419 46.3475 489.979 46.1675 489.473 46.1675C488.913 46.1675 488.453 46.3608 488.093 46.7475C487.746 47.1341 487.573 47.5808 487.573 48.0875C487.573 48.5808 487.746 49.0275 488.093 49.4275C488.453 49.8141 488.913 50.0075 489.473 50.0075ZM503.473 54.7875C503.473 55.8808 503.086 56.8208 502.313 57.6075C501.553 58.3808 500.626 58.7675 499.533 58.7675C498.426 58.7675 497.493 58.3808 496.733 57.6075C495.973 56.8208 495.593 55.8808 495.593 54.7875C495.593 53.7075 495.973 52.7808 496.733 52.0075C497.506 51.2208 498.439 50.8275 499.533 50.8275C500.639 50.8275 501.573 51.2208 502.333 52.0075C503.093 52.7808 503.473 53.7075 503.473 54.7875ZM499.533 56.7275C500.066 56.7275 500.513 56.5475 500.873 56.1875C501.246 55.8141 501.433 55.3475 501.433 54.7875C501.433 54.2275 501.239 53.7675 500.853 53.4075C500.479 53.0475 500.039 52.8675 499.533 52.8675C498.973 52.8675 498.513 53.0608 498.153 53.4475C497.806 53.8341 497.633 54.2808 497.633 54.7875C497.633 55.3208 497.813 55.7808 498.173 56.1675C498.546 56.5408 498.999 56.7275 499.533 56.7275Z" fill="#FF5D3C"/>
<path d="M575.124 88.4993C575.777 88.4993 576.402 88.6253 577 88.8773C577.606 89.12 578.096 89.4793 578.47 89.9553L576.79 91.3273C576.332 90.786 575.707 90.5153 574.914 90.5153C574.092 90.5153 573.406 90.8187 572.856 91.4253C572.314 92.0227 572.044 92.7833 572.044 93.7073C572.044 94.594 572.305 95.35 572.828 95.9753C573.35 96.5913 574.022 96.8993 574.844 96.8993C575.721 96.8993 576.402 96.5447 576.888 95.8353L578.708 97.1933C578.353 97.716 577.858 98.136 577.224 98.4533C576.598 98.7613 575.898 98.9153 575.124 98.9153C573.546 98.9153 572.258 98.4347 571.26 97.4733C570.27 96.512 569.776 95.2567 569.776 93.7073C569.776 92.1767 570.27 90.926 571.26 89.9553C572.249 88.9847 573.537 88.4993 575.124 88.4993ZM581.726 88.0793V92.7833H581.754C581.884 92.4567 582.122 92.1953 582.468 91.9993C582.822 91.794 583.219 91.6913 583.658 91.6913C584.572 91.6913 585.221 91.948 585.604 92.4613C585.986 92.9747 586.178 93.768 586.178 94.8413V98.6633H584.078V95.2053C584.078 94.5707 583.984 94.1367 583.798 93.9033C583.611 93.6607 583.34 93.5393 582.986 93.5393C582.566 93.5393 582.248 93.67 582.034 93.9313C581.828 94.1927 581.726 94.6173 581.726 95.2053V98.6633H579.626V88.0793H581.726ZM590.759 91.6913C591.842 91.6913 592.63 91.9527 593.125 92.4753C593.62 92.998 593.867 93.8753 593.867 95.1073V98.6633H591.935V97.8093H591.907C591.468 98.4907 590.75 98.8313 589.751 98.8313C589.042 98.8313 588.458 98.64 588.001 98.2573C587.553 97.8653 587.329 97.3567 587.329 96.7313C587.329 96.19 587.483 95.742 587.791 95.3873C588.099 95.0233 588.561 94.7573 589.177 94.5893C589.802 94.4213 590.722 94.3373 591.935 94.3373C591.935 93.9733 591.8 93.6793 591.529 93.4553C591.258 93.2313 590.946 93.1193 590.591 93.1193C589.938 93.1193 589.368 93.39 588.883 93.9313L587.763 92.7833C588.155 92.4007 588.617 92.1253 589.149 91.9573C589.69 91.78 590.227 91.6913 590.759 91.6913ZM589.345 96.6613C589.345 96.8853 589.438 97.0673 589.625 97.2073C589.821 97.338 590.064 97.4033 590.353 97.4033C590.82 97.4033 591.198 97.2867 591.487 97.0533C591.786 96.8107 591.935 96.498 591.935 96.1153V95.6813H591.305C590.67 95.6813 590.185 95.77 589.849 95.9473C589.513 96.1153 589.345 96.3533 589.345 96.6613ZM599.286 91.6913C599.576 91.6913 599.804 91.7147 599.972 91.7613V93.6793C599.655 93.586 599.356 93.5393 599.076 93.5393C598.442 93.5393 597.984 93.698 597.704 94.0153C597.424 94.3233 597.284 94.8973 597.284 95.7373V98.6633H595.184V91.8593H597.284V92.9513H597.312C597.536 92.5313 597.802 92.2187 598.11 92.0133C598.418 91.7987 598.81 91.6913 599.286 91.6913ZM603.98 91.6913C605.062 91.6913 605.851 91.9527 606.346 92.4753C606.84 92.998 607.088 93.8753 607.088 95.1073V98.6633H605.156V97.8093H605.128C604.689 98.4907 603.97 98.8313 602.972 98.8313C602.262 98.8313 601.679 98.64 601.222 98.2573C600.774 97.8653 600.55 97.3567 600.55 96.7313C600.55 96.19 600.704 95.742 601.012 95.3873C601.32 95.0233 601.782 94.7573 602.398 94.5893C603.023 94.4213 603.942 94.3373 605.156 94.3373C605.156 93.9733 605.02 93.6793 604.75 93.4553C604.479 93.2313 604.166 93.1193 603.812 93.1193C603.158 93.1193 602.589 93.39 602.104 93.9313L600.984 92.7833C601.376 92.4007 601.838 92.1253 602.37 91.9573C602.911 91.78 603.448 91.6913 603.98 91.6913ZM602.566 96.6613C602.566 96.8853 602.659 97.0673 602.846 97.2073C603.042 97.338 603.284 97.4033 603.574 97.4033C604.04 97.4033 604.418 97.2867 604.708 97.0533C605.006 96.8107 605.156 96.498 605.156 96.1153V95.6813H604.526C603.891 95.6813 603.406 95.77 603.07 95.9473C602.734 96.1153 602.566 96.3533 602.566 96.6613ZM611.975 91.6913C612.404 91.6913 612.838 91.766 613.277 91.9153C613.725 92.0553 614.098 92.284 614.397 92.6013L613.011 94.0573C612.75 93.712 612.404 93.5393 611.975 93.5393C611.452 93.5393 611.042 93.698 610.743 94.0153C610.444 94.3327 610.295 94.748 610.295 95.2613C610.295 95.7933 610.449 96.2133 610.757 96.5213C611.065 96.8293 611.471 96.9833 611.975 96.9833C612.386 96.9833 612.731 96.8107 613.011 96.4653L614.397 97.9213C613.809 98.528 613.002 98.8313 611.975 98.8313C610.874 98.8313 609.968 98.4953 609.259 97.8233C608.55 97.1513 608.195 96.2973 608.195 95.2613C608.195 94.216 608.55 93.362 609.259 92.6993C609.968 92.0273 610.874 91.6913 611.975 91.6913ZM617.945 89.8433V91.8593H619.793V93.5393H617.945V95.9333C617.945 96.3533 618.02 96.6473 618.169 96.8153C618.328 96.9833 618.584 97.0673 618.939 97.0673C619.378 97.0673 619.662 97.002 619.793 96.8713V98.6213C619.392 98.7613 618.902 98.8313 618.323 98.8313C617.502 98.8313 616.881 98.654 616.461 98.2993C616.05 97.9353 615.845 97.4453 615.845 96.8293V93.5393H614.501V91.8593H615.845V89.8433H617.945ZM620.65 95.2613C620.65 94.216 621.005 93.362 621.714 92.6993C622.423 92.0273 623.347 91.6913 624.486 91.6913C625.438 91.6913 626.199 92.0227 626.768 92.6853C627.337 93.3387 627.622 94.2207 627.622 95.3313V95.9193H622.75C622.834 96.3113 623.011 96.6287 623.282 96.8713C623.553 97.114 623.903 97.2353 624.332 97.2353C624.911 97.2353 625.41 96.96 625.83 96.4093L627.3 97.4873C626.964 97.9167 626.53 98.248 625.998 98.4813C625.475 98.7147 624.953 98.8313 624.43 98.8313C623.347 98.8313 622.447 98.5 621.728 97.8373C621.009 97.1653 620.65 96.3067 620.65 95.2613ZM625.522 94.4913C625.522 94.0993 625.396 93.7867 625.144 93.5533C624.892 93.32 624.584 93.2033 624.22 93.2033C623.828 93.2033 623.492 93.32 623.212 93.5533C622.941 93.7867 622.787 94.0993 622.75 94.4913H625.522ZM633.001 91.6913C633.291 91.6913 633.519 91.7147 633.687 91.7613V93.6793C633.37 93.586 633.071 93.5393 632.791 93.5393C632.157 93.5393 631.699 93.698 631.419 94.0153C631.139 94.3233 630.999 94.8973 630.999 95.7373V98.6633H628.899V91.8593H630.999V92.9513H631.027C631.251 92.5313 631.517 92.2187 631.825 92.0133C632.133 91.7987 632.525 91.6913 633.001 91.6913ZM641.361 91.6913C642.481 91.6913 643.321 91.99 643.881 92.5873L642.593 93.8613C642.276 93.4787 641.874 93.2873 641.389 93.2873C641.156 93.2873 640.964 93.3387 640.815 93.4413C640.675 93.544 640.605 93.6793 640.605 93.8473C640.605 94.0153 640.698 94.146 640.885 94.2393C641.081 94.3233 641.408 94.412 641.865 94.5053C642.705 94.664 643.293 94.916 643.629 95.2613C643.974 95.5973 644.147 96.0407 644.147 96.5913C644.147 97.2913 643.872 97.842 643.321 98.2433C642.77 98.6353 642 98.8313 641.011 98.8313C639.844 98.8313 638.953 98.5233 638.337 97.9073L639.611 96.4933C640.031 96.988 640.526 97.2353 641.095 97.2353C641.73 97.2353 642.047 97.072 642.047 96.7453C642.047 96.5587 641.949 96.4187 641.753 96.3253C641.557 96.232 641.296 96.1527 640.969 96.0873C640.278 95.9567 639.779 95.812 639.471 95.6533C639.172 95.4853 638.934 95.2707 638.757 95.0093C638.589 94.7387 638.505 94.398 638.505 93.9873C638.505 93.2967 638.766 92.7413 639.289 92.3213C639.812 91.9013 640.502 91.6913 641.361 91.6913ZM645.013 95.2613C645.013 94.216 645.368 93.362 646.077 92.6993C646.787 92.0273 647.711 91.6913 648.849 91.6913C649.801 91.6913 650.562 92.0227 651.131 92.6853C651.701 93.3387 651.985 94.2207 651.985 95.3313V95.9193H647.113C647.197 96.3113 647.375 96.6287 647.645 96.8713C647.916 97.114 648.266 97.2353 648.695 97.2353C649.274 97.2353 649.773 96.96 650.193 96.4093L651.663 97.4873C651.327 97.9167 650.893 98.248 650.361 98.4813C649.839 98.7147 649.316 98.8313 648.793 98.8313C647.711 98.8313 646.81 98.5 646.091 97.8373C645.373 97.1653 645.013 96.3067 645.013 95.2613ZM649.885 94.4913C649.885 94.0993 649.759 93.7867 649.507 93.5533C649.255 93.32 648.947 93.2033 648.583 93.2033C648.191 93.2033 647.855 93.32 647.575 93.5533C647.305 93.7867 647.151 94.0993 647.113 94.4913H649.885ZM655.391 88.0793V98.6633H653.291V88.0793H655.391ZM656.689 95.2613C656.689 94.216 657.044 93.362 657.753 92.6993C658.463 92.0273 659.387 91.6913 660.525 91.6913C661.477 91.6913 662.238 92.0227 662.807 92.6853C663.377 93.3387 663.661 94.2207 663.661 95.3313V95.9193H658.789C658.873 96.3113 659.051 96.6287 659.321 96.8713C659.592 97.114 659.942 97.2353 660.371 97.2353C660.95 97.2353 661.449 96.96 661.869 96.4093L663.339 97.4873C663.003 97.9167 662.569 98.248 662.037 98.4813C661.515 98.7147 660.992 98.8313 660.469 98.8313C659.387 98.8313 658.486 98.5 657.767 97.8373C657.049 97.1653 656.689 96.3067 656.689 95.2613ZM661.561 94.4913C661.561 94.0993 661.435 93.7867 661.183 93.5533C660.931 93.32 660.623 93.2033 660.259 93.2033C659.867 93.2033 659.531 93.32 659.251 93.5533C658.981 93.7867 658.827 94.0993 658.789 94.4913H661.561ZM668.508 91.6913C668.938 91.6913 669.372 91.766 669.81 91.9153C670.258 92.0553 670.632 92.284 670.93 92.6013L669.544 94.0573C669.283 93.712 668.938 93.5393 668.508 93.5393C667.986 93.5393 667.575 93.698 667.276 94.0153C666.978 94.3327 666.828 94.748 666.828 95.2613C666.828 95.7933 666.982 96.2133 667.29 96.5213C667.598 96.8293 668.004 96.9833 668.508 96.9833C668.919 96.9833 669.264 96.8107 669.544 96.4653L670.93 97.9213C670.342 98.528 669.535 98.8313 668.508 98.8313C667.407 98.8313 666.502 98.4953 665.792 97.8233C665.083 97.1513 664.728 96.2973 664.728 95.2613C664.728 94.216 665.083 93.362 665.792 92.6993C666.502 92.0273 667.407 91.6913 668.508 91.6913ZM674.478 89.8433V91.8593H676.326V93.5393H674.478V95.9333C674.478 96.3533 674.553 96.6473 674.702 96.8153C674.861 96.9833 675.118 97.0673 675.472 97.0673C675.911 97.0673 676.196 97.002 676.326 96.8713V98.6213C675.925 98.7613 675.435 98.8313 674.856 98.8313C674.035 98.8313 673.414 98.654 672.994 98.2993C672.584 97.9353 672.378 97.4453 672.378 96.8293V93.5393H671.034V91.8593H672.378V89.8433H674.478ZM678.471 88.4993C678.798 88.4993 679.083 88.616 679.325 88.8493C679.568 89.0827 679.689 89.372 679.689 89.7173C679.689 90.0627 679.568 90.352 679.325 90.5853C679.083 90.8187 678.798 90.9353 678.471 90.9353C678.126 90.9353 677.837 90.814 677.603 90.5713C677.37 90.3287 677.253 90.044 677.253 89.7173C677.253 89.372 677.375 89.0827 677.617 88.8493C677.86 88.616 678.145 88.4993 678.471 88.4993ZM679.521 91.8593V98.6633H677.421V91.8593H679.521ZM684.558 91.6913C685.659 91.6913 686.565 92.0273 687.274 92.6993C687.983 93.3713 688.338 94.2253 688.338 95.2613C688.338 96.316 687.974 97.1747 687.246 97.8373C686.527 98.5 685.631 98.8313 684.558 98.8313C683.466 98.8313 682.561 98.5 681.842 97.8373C681.133 97.1747 680.778 96.316 680.778 95.2613C680.778 94.216 681.133 93.362 681.842 92.6993C682.551 92.0273 683.457 91.6913 684.558 91.6913ZM682.878 95.2613C682.878 95.7747 683.027 96.19 683.326 96.5073C683.625 96.8247 684.035 96.9833 684.558 96.9833C685.071 96.9833 685.477 96.8293 685.776 96.5213C686.084 96.2133 686.238 95.7933 686.238 95.2613C686.238 94.7293 686.084 94.3093 685.776 94.0013C685.477 93.6933 685.067 93.5393 684.544 93.5393C684.031 93.5393 683.625 93.7027 683.326 94.0293C683.027 94.3467 682.878 94.7573 682.878 95.2613ZM693.607 91.6913C694.466 91.6913 695.1 91.934 695.511 92.4193C695.922 92.8953 696.127 93.6933 696.127 94.8133V98.6633H694.027V95.1633C694.027 94.5567 693.934 94.1367 693.747 93.9033C693.57 93.6607 693.299 93.5393 692.935 93.5393C692.515 93.5393 692.198 93.67 691.983 93.9313C691.778 94.1927 691.675 94.6173 691.675 95.2053V98.6633H689.575V91.8593H691.591V92.7833H691.619C691.806 92.438 692.072 92.172 692.417 91.9853C692.772 91.7893 693.168 91.6913 693.607 91.6913Z" fill="#1A1A1A"/>
<path d="M575.22 109.079C576.7 109.079 577.86 109.439 578.7 110.159C579.54 110.879 579.96 111.819 579.96 112.979C579.96 113.739 579.753 114.399 579.34 114.959C578.926 115.506 578.333 115.892 577.56 116.119V116.159C579.32 116.652 580.2 117.799 580.2 119.599C580.2 120.826 579.74 121.819 578.82 122.579C577.913 123.339 576.713 123.719 575.22 123.719C573.74 123.719 572.54 123.352 571.62 122.619C570.7 121.872 570.24 120.866 570.24 119.599C570.24 118.706 570.466 117.966 570.92 117.379C571.373 116.792 572.026 116.386 572.88 116.159V116.119C572.12 115.892 571.526 115.506 571.1 114.959C570.686 114.412 570.48 113.752 570.48 112.979C570.48 111.806 570.9 110.866 571.74 110.159C572.593 109.439 573.753 109.079 575.22 109.079ZM573.48 113.399C573.48 113.839 573.64 114.212 573.96 114.519C574.293 114.826 574.713 114.979 575.22 114.979C575.74 114.979 576.16 114.826 576.48 114.519C576.8 114.212 576.96 113.839 576.96 113.399C576.96 112.946 576.793 112.572 576.46 112.279C576.14 111.986 575.72 111.839 575.2 111.839C574.653 111.839 574.226 111.999 573.92 112.319C573.626 112.626 573.48 112.986 573.48 113.399ZM573.24 119.179C573.24 119.699 573.426 120.126 573.8 120.459C574.186 120.792 574.66 120.959 575.22 120.959C575.78 120.959 576.246 120.799 576.62 120.479C577.006 120.159 577.2 119.726 577.2 119.179C577.2 118.659 577.006 118.232 576.62 117.899C576.246 117.552 575.773 117.379 575.2 117.379C574.64 117.379 574.173 117.546 573.8 117.879C573.426 118.212 573.24 118.646 573.24 119.179ZM584.096 119.919C584.616 119.919 585.049 120.106 585.396 120.479C585.756 120.839 585.936 121.266 585.936 121.759C585.936 122.279 585.756 122.719 585.396 123.079C585.049 123.426 584.616 123.599 584.096 123.599C583.602 123.599 583.169 123.426 582.796 123.079C582.436 122.719 582.256 122.279 582.256 121.759C582.256 121.239 582.429 120.806 582.776 120.459C583.136 120.099 583.576 119.919 584.096 119.919ZM593.214 109.079C594.6 109.079 595.707 109.466 596.534 110.239C597.374 110.999 597.794 112.032 597.794 113.339C597.794 114.166 597.647 114.859 597.354 115.419C597.074 115.966 596.5 116.626 595.634 117.399L591.634 120.839H597.914V123.479H588.034V120.299L593.534 115.359C594.027 114.906 594.36 114.539 594.534 114.259C594.707 113.979 594.794 113.686 594.794 113.379C594.794 112.912 594.62 112.539 594.274 112.259C593.927 111.979 593.52 111.839 593.054 111.839C592.547 111.839 592.127 111.999 591.794 112.319C591.46 112.639 591.267 113.079 591.214 113.639L588.214 113.419C588.307 112.006 588.794 110.932 589.674 110.199C590.567 109.452 591.747 109.079 593.214 109.079ZM611.19 108.679L612.87 109.619L604.61 124.119L603.09 123.259L611.19 108.679ZM606.87 113.039C606.87 114.119 606.483 115.052 605.71 115.839C604.95 116.612 604.023 116.999 602.93 116.999C601.823 116.999 600.89 116.619 600.13 115.859C599.37 115.086 598.99 114.146 598.99 113.039C598.99 111.959 599.37 111.032 600.13 110.259C600.903 109.472 601.836 109.079 602.93 109.079C603.996 109.079 604.916 109.459 605.69 110.219C606.476 110.979 606.87 111.919 606.87 113.039ZM602.93 114.959C603.436 114.959 603.876 114.779 604.25 114.419C604.636 114.059 604.83 113.599 604.83 113.039C604.83 112.479 604.636 112.019 604.25 111.659C603.876 111.299 603.436 111.119 602.93 111.119C602.37 111.119 601.91 111.312 601.55 111.699C601.203 112.086 601.03 112.532 601.03 113.039C601.03 113.532 601.203 113.979 601.55 114.379C601.91 114.766 602.37 114.959 602.93 114.959ZM616.93 119.739C616.93 120.832 616.543 121.772 615.77 122.559C615.01 123.332 614.083 123.719 612.99 123.719C611.883 123.719 610.95 123.332 610.19 122.559C609.43 121.772 609.05 120.832 609.05 119.739C609.05 118.659 609.43 117.732 610.19 116.959C610.963 116.172 611.896 115.779 612.99 115.779C614.096 115.779 615.03 116.172 615.79 116.959C616.55 117.732 616.93 118.659 616.93 119.739ZM612.99 121.679C613.523 121.679 613.97 121.499 614.33 121.139C614.703 120.766 614.89 120.299 614.89 119.739C614.89 119.179 614.696 118.719 614.31 118.359C613.936 117.999 613.496 117.819 612.99 117.819C612.43 117.819 611.97 118.012 611.61 118.399C611.263 118.786 611.09 119.232 611.09 119.739C611.09 120.272 611.27 120.732 611.63 121.119C612.003 121.492 612.456 121.679 612.99 121.679Z" fill="#12B2A6"/>
<path d="M611.742 151.705C614.103 151.705 615.284 152.545 615.284 154.225C615.284 154.785 615.125 155.252 614.808 155.625C614.5 155.989 614.089 156.25 613.576 156.409V156.437C614.229 156.521 614.752 156.782 615.144 157.221C615.545 157.66 615.746 158.206 615.746 158.859C615.746 159.718 615.41 160.394 614.738 160.889C614.066 161.374 613.165 161.617 612.036 161.617H607.962V151.705H611.742ZM611.77 155.667C612.162 155.667 612.479 155.574 612.722 155.387C612.974 155.191 613.1 154.925 613.1 154.589C613.1 154.253 612.969 153.996 612.708 153.819C612.456 153.642 612.111 153.553 611.672 153.553H610.146V155.667H611.77ZM612.148 159.769C612.549 159.769 612.885 159.671 613.156 159.475C613.427 159.27 613.562 158.98 613.562 158.607C613.562 158.262 613.417 157.996 613.128 157.809C612.839 157.613 612.414 157.515 611.854 157.515H610.146V159.769H612.148ZM619.868 154.645C620.951 154.645 621.74 154.906 622.234 155.429C622.729 155.952 622.976 156.829 622.976 158.061V161.617H621.044V160.763H621.016C620.578 161.444 619.859 161.785 618.86 161.785C618.151 161.785 617.568 161.594 617.11 161.211C616.662 160.819 616.438 160.31 616.438 159.685C616.438 159.144 616.592 158.696 616.9 158.341C617.208 157.977 617.67 157.711 618.286 157.543C618.912 157.375 619.831 157.291 621.044 157.291C621.044 156.927 620.909 156.633 620.638 156.409C620.368 156.185 620.055 156.073 619.7 156.073C619.047 156.073 618.478 156.344 617.992 156.885L616.872 155.737C617.264 155.354 617.726 155.079 618.258 154.911C618.8 154.734 619.336 154.645 619.868 154.645ZM618.454 159.615C618.454 159.839 618.548 160.021 618.734 160.161C618.93 160.292 619.173 160.357 619.462 160.357C619.929 160.357 620.307 160.24 620.596 160.007C620.895 159.764 621.044 159.452 621.044 159.069V158.635H620.414C619.78 158.635 619.294 158.724 618.958 158.901C618.622 159.069 618.454 159.307 618.454 159.615ZM627.08 152.797V154.813H628.928V156.493H627.08V158.887C627.08 159.307 627.154 159.601 627.304 159.769C627.462 159.937 627.719 160.021 628.074 160.021C628.512 160.021 628.797 159.956 628.928 159.825V161.575C628.526 161.715 628.036 161.785 627.458 161.785C626.636 161.785 626.016 161.608 625.596 161.253C625.185 160.889 624.98 160.399 624.98 159.783V156.493H623.636V154.813H624.98V152.797H627.08ZM632.781 152.797V154.813H634.629V156.493H632.781V158.887C632.781 159.307 632.856 159.601 633.005 159.769C633.164 159.937 633.42 160.021 633.775 160.021C634.214 160.021 634.498 159.956 634.629 159.825V161.575C634.228 161.715 633.738 161.785 633.159 161.785C632.338 161.785 631.717 161.608 631.297 161.253C630.886 160.889 630.681 160.399 630.681 159.783V156.493H629.337V154.813H630.681V152.797H632.781ZM637.824 151.033V161.617H635.724V151.033H637.824ZM639.123 158.215C639.123 157.17 639.477 156.316 640.187 155.653C640.896 154.981 641.82 154.645 642.959 154.645C643.911 154.645 644.671 154.976 645.241 155.639C645.81 156.292 646.095 157.174 646.095 158.285V158.873H641.223C641.307 159.265 641.484 159.582 641.755 159.825C642.025 160.068 642.375 160.189 642.805 160.189C643.383 160.189 643.883 159.914 644.303 159.363L645.773 160.441C645.437 160.87 645.003 161.202 644.471 161.435C643.948 161.668 643.425 161.785 642.903 161.785C641.82 161.785 640.919 161.454 640.201 160.791C639.482 160.119 639.123 159.26 639.123 158.215ZM643.995 157.445C643.995 157.053 643.869 156.74 643.617 156.507C643.365 156.274 643.057 156.157 642.693 156.157C642.301 156.157 641.965 156.274 641.685 156.507C641.414 156.74 641.26 157.053 641.223 157.445H643.995ZM656.036 152.769C655.756 152.676 655.528 152.629 655.35 152.629C654.958 152.629 654.692 152.713 654.552 152.881C654.412 153.049 654.342 153.338 654.342 153.749V154.813H655.896V156.493H654.342V161.617H652.242V156.493H650.856V154.813H652.242V153.539C652.242 152.606 652.452 151.929 652.872 151.509C653.302 151.08 653.978 150.865 654.902 150.865C655.369 150.865 655.78 150.907 656.134 150.991L656.036 152.769ZM660.224 154.645C661.325 154.645 662.231 154.981 662.94 155.653C663.649 156.325 664.004 157.179 664.004 158.215C664.004 159.27 663.64 160.128 662.912 160.791C662.193 161.454 661.297 161.785 660.224 161.785C659.132 161.785 658.227 161.454 657.508 160.791C656.799 160.128 656.444 159.27 656.444 158.215C656.444 157.17 656.799 156.316 657.508 155.653C658.217 154.981 659.123 154.645 660.224 154.645ZM658.544 158.215C658.544 158.728 658.693 159.144 658.992 159.461C659.291 159.778 659.701 159.937 660.224 159.937C660.737 159.937 661.143 159.783 661.442 159.475C661.75 159.167 661.904 158.747 661.904 158.215C661.904 157.683 661.75 157.263 661.442 156.955C661.143 156.647 660.733 156.493 660.21 156.493C659.697 156.493 659.291 156.656 658.992 156.983C658.693 157.3 658.544 157.711 658.544 158.215ZM669.343 154.645C669.632 154.645 669.861 154.668 670.029 154.715V156.633C669.712 156.54 669.413 156.493 669.133 156.493C668.498 156.493 668.041 156.652 667.761 156.969C667.481 157.277 667.341 157.851 667.341 158.691V161.617H665.241V154.813H667.341V155.905H667.369C667.593 155.485 667.859 155.172 668.167 154.967C668.475 154.752 668.867 154.645 669.343 154.645ZM675.22 154.645C676.256 154.645 676.956 155.051 677.32 155.863C677.563 155.424 677.857 155.112 678.202 154.925C678.548 154.738 678.972 154.645 679.476 154.645C681.082 154.645 681.884 155.606 681.884 157.529V161.617H679.784V157.627C679.784 156.871 679.476 156.493 678.86 156.493C678.011 156.493 677.586 156.988 677.586 157.977V161.617H675.486V157.893C675.486 157.37 675.402 157.006 675.234 156.801C675.076 156.596 674.847 156.493 674.548 156.493C674.128 156.493 673.811 156.624 673.596 156.885C673.391 157.137 673.288 157.562 673.288 158.159V161.617H671.188V154.813H673.204V155.737H673.232C673.419 155.392 673.69 155.126 674.044 154.939C674.399 154.743 674.791 154.645 675.22 154.645ZM686.464 154.645C687.547 154.645 688.335 154.906 688.83 155.429C689.325 155.952 689.572 156.829 689.572 158.061V161.617H687.64V160.763H687.612C687.173 161.444 686.455 161.785 685.456 161.785C684.747 161.785 684.163 161.594 683.706 161.211C683.258 160.819 683.034 160.31 683.034 159.685C683.034 159.144 683.188 158.696 683.496 158.341C683.804 157.977 684.266 157.711 684.882 157.543C685.507 157.375 686.427 157.291 687.64 157.291C687.64 156.927 687.505 156.633 687.234 156.409C686.963 156.185 686.651 156.073 686.296 156.073C685.643 156.073 685.073 156.344 684.588 156.885L683.468 155.737C683.86 155.354 684.322 155.079 684.854 154.911C685.395 154.734 685.932 154.645 686.464 154.645ZM685.05 159.615C685.05 159.839 685.143 160.021 685.33 160.161C685.526 160.292 685.769 160.357 686.058 160.357C686.525 160.357 686.903 160.24 687.192 160.007C687.491 159.764 687.64 159.452 687.64 159.069V158.635H687.01C686.375 158.635 685.89 158.724 685.554 158.901C685.218 159.069 685.05 159.307 685.05 159.615ZM693.675 152.797V154.813H695.523V156.493H693.675V158.887C693.675 159.307 693.75 159.601 693.899 159.769C694.058 159.937 694.315 160.021 694.669 160.021C695.108 160.021 695.393 159.956 695.523 159.825V161.575C695.122 161.715 694.632 161.785 694.053 161.785C693.232 161.785 692.611 161.608 692.191 161.253C691.781 160.889 691.575 160.399 691.575 159.783V156.493H690.231V154.813H691.575V152.797H693.675ZM697.669 151.453C697.995 151.453 698.28 151.57 698.523 151.803C698.765 152.036 698.887 152.326 698.887 152.671C698.887 153.016 698.765 153.306 698.523 153.539C698.28 153.772 697.995 153.889 697.669 153.889C697.323 153.889 697.034 153.768 696.801 153.525C696.567 153.282 696.451 152.998 696.451 152.671C696.451 152.326 696.572 152.036 696.815 151.803C697.057 151.57 697.342 151.453 697.669 151.453ZM698.719 154.813V161.617H696.619V154.813H698.719ZM703.755 154.645C704.857 154.645 705.762 154.981 706.471 155.653C707.181 156.325 707.535 157.179 707.535 158.215C707.535 159.27 707.171 160.128 706.443 160.791C705.725 161.454 704.829 161.785 703.755 161.785C702.663 161.785 701.758 161.454 701.039 160.791C700.33 160.128 699.975 159.27 699.975 158.215C699.975 157.17 700.33 156.316 701.039 155.653C701.749 154.981 702.654 154.645 703.755 154.645ZM702.075 158.215C702.075 158.728 702.225 159.144 702.523 159.461C702.822 159.778 703.233 159.937 703.755 159.937C704.269 159.937 704.675 159.783 704.973 159.475C705.281 159.167 705.435 158.747 705.435 158.215C705.435 157.683 705.281 157.263 704.973 156.955C704.675 156.647 704.264 156.493 703.741 156.493C703.228 156.493 702.822 156.656 702.523 156.983C702.225 157.3 702.075 157.711 702.075 158.215ZM712.804 154.645C713.663 154.645 714.298 154.888 714.708 155.373C715.119 155.849 715.324 156.647 715.324 157.767V161.617H713.224V158.117C713.224 157.51 713.131 157.09 712.944 156.857C712.767 156.614 712.496 156.493 712.132 156.493C711.712 156.493 711.395 156.624 711.18 156.885C710.975 157.146 710.872 157.571 710.872 158.159V161.617H708.772V154.813H710.788V155.737H710.816C711.003 155.392 711.269 155.126 711.614 154.939C711.969 154.743 712.366 154.645 712.804 154.645Z" fill="#1A1A1A"/>
<path d="M616.494 172.273V181.073H618.314V183.593H616.494V186.433H613.614V183.593H607.434V181.073L613.214 172.273H616.494ZM613.574 176.193L610.434 181.073H613.614V176.193H613.574ZM621.75 182.873C622.27 182.873 622.703 183.06 623.05 183.433C623.41 183.793 623.59 184.22 623.59 184.713C623.59 185.233 623.41 185.673 623.05 186.033C622.703 186.38 622.27 186.553 621.75 186.553C621.257 186.553 620.823 186.38 620.45 186.033C620.09 185.673 619.91 185.233 619.91 184.713C619.91 184.193 620.083 183.76 620.43 183.413C620.79 183.053 621.23 182.873 621.75 182.873ZM633.348 172.273V186.433H630.468V175.633L627.628 178.133L625.928 176.173L630.548 172.273H633.348ZM648.844 171.633L650.524 172.573L642.264 187.073L640.744 186.213L648.844 171.633ZM644.524 175.993C644.524 177.073 644.137 178.006 643.364 178.793C642.604 179.566 641.677 179.953 640.584 179.953C639.477 179.953 638.544 179.573 637.784 178.813C637.024 178.04 636.644 177.1 636.644 175.993C636.644 174.913 637.024 173.986 637.784 173.213C638.557 172.426 639.491 172.033 640.584 172.033C641.651 172.033 642.571 172.413 643.344 173.173C644.131 173.933 644.524 174.873 644.524 175.993ZM640.584 177.913C641.091 177.913 641.531 177.733 641.904 177.373C642.291 177.013 642.484 176.553 642.484 175.993C642.484 175.433 642.291 174.973 641.904 174.613C641.531 174.253 641.091 174.073 640.584 174.073C640.024 174.073 639.564 174.266 639.204 174.653C638.857 175.04 638.684 175.486 638.684 175.993C638.684 176.486 638.857 176.933 639.204 177.333C639.564 177.72 640.024 177.913 640.584 177.913ZM654.584 182.693C654.584 183.786 654.197 184.726 653.424 185.513C652.664 186.286 651.737 186.673 650.644 186.673C649.537 186.673 648.604 186.286 647.844 185.513C647.084 184.726 646.704 183.786 646.704 182.693C646.704 181.613 647.084 180.686 647.844 179.913C648.617 179.126 649.551 178.733 650.644 178.733C651.751 178.733 652.684 179.126 653.444 179.913C654.204 180.686 654.584 181.613 654.584 182.693ZM650.644 184.633C651.177 184.633 651.624 184.453 651.984 184.093C652.357 183.72 652.544 183.253 652.544 182.693C652.544 182.133 652.351 181.673 651.964 181.313C651.591 180.953 651.151 180.773 650.644 180.773C650.084 180.773 649.624 180.966 649.264 181.353C648.917 181.74 648.744 182.186 648.744 182.693C648.744 183.226 648.924 183.686 649.284 184.073C649.657 184.446 650.111 184.633 650.644 184.633Z" fill="#14CB93"/>
<path d="M622.235 201.55V211.462H620.051V201.55H622.235ZM626.742 202.642V204.658H628.59V206.338H626.742V208.732C626.742 209.152 626.817 209.446 626.966 209.614C627.125 209.782 627.381 209.866 627.736 209.866C628.175 209.866 628.459 209.801 628.59 209.67V211.42C628.189 211.56 627.699 211.63 627.12 211.63C626.299 211.63 625.678 211.453 625.258 211.098C624.847 210.734 624.642 210.244 624.642 209.628V206.338H623.298V204.658H624.642V202.642H626.742ZM629.447 208.06C629.447 207.015 629.802 206.161 630.511 205.498C631.22 204.826 632.144 204.49 633.283 204.49C634.235 204.49 634.996 204.821 635.565 205.484C636.134 206.137 636.419 207.019 636.419 208.13V208.718H631.547C631.631 209.11 631.808 209.427 632.079 209.67C632.35 209.913 632.7 210.034 633.129 210.034C633.708 210.034 634.207 209.759 634.627 209.208L636.097 210.286C635.761 210.715 635.327 211.047 634.795 211.28C634.272 211.513 633.75 211.63 633.227 211.63C632.144 211.63 631.244 211.299 630.525 210.636C629.806 209.964 629.447 209.105 629.447 208.06ZM634.319 207.29C634.319 206.898 634.193 206.585 633.941 206.352C633.689 206.119 633.381 206.002 633.017 206.002C632.625 206.002 632.289 206.119 632.009 206.352C631.738 206.585 631.584 206.898 631.547 207.29H634.319ZM641.728 204.49C642.764 204.49 643.464 204.896 643.828 205.708C644.071 205.269 644.365 204.957 644.71 204.77C645.055 204.583 645.48 204.49 645.984 204.49C647.589 204.49 648.392 205.451 648.392 207.374V211.462H646.292V207.472C646.292 206.716 645.984 206.338 645.368 206.338C644.519 206.338 644.094 206.833 644.094 207.822V211.462H641.994V207.738C641.994 207.215 641.91 206.851 641.742 206.646C641.583 206.441 641.355 206.338 641.056 206.338C640.636 206.338 640.319 206.469 640.104 206.73C639.899 206.982 639.796 207.407 639.796 208.004V211.462H637.696V204.658H639.712V205.582H639.74C639.927 205.237 640.197 204.971 640.552 204.784C640.907 204.588 641.299 204.49 641.728 204.49ZM657.59 204.49C658.02 204.49 658.454 204.565 658.892 204.714C659.34 204.854 659.714 205.083 660.012 205.4L658.626 206.856C658.365 206.511 658.02 206.338 657.59 206.338C657.068 206.338 656.657 206.497 656.358 206.814C656.06 207.131 655.91 207.547 655.91 208.06C655.91 208.592 656.064 209.012 656.372 209.32C656.68 209.628 657.086 209.782 657.59 209.782C658.001 209.782 658.346 209.609 658.626 209.264L660.012 210.72C659.424 211.327 658.617 211.63 657.59 211.63C656.489 211.63 655.584 211.294 654.874 210.622C654.165 209.95 653.81 209.096 653.81 208.06C653.81 207.015 654.165 206.161 654.874 205.498C655.584 204.826 656.489 204.49 657.59 204.49ZM662.874 204.658V208.032C662.874 208.536 662.907 208.891 662.972 209.096C663.047 209.301 663.164 209.469 663.322 209.6C663.481 209.721 663.696 209.782 663.966 209.782C664.414 209.782 664.736 209.647 664.932 209.376C665.128 209.096 665.226 208.671 665.226 208.102V204.658H667.326V211.462H665.31V210.538H665.282C665.096 210.883 664.825 211.154 664.47 211.35C664.125 211.537 663.728 211.63 663.28 211.63C662.384 211.63 661.74 211.383 661.348 210.888C660.966 210.384 660.774 209.586 660.774 208.494V204.658H662.874ZM671.431 204.49C672.551 204.49 673.391 204.789 673.951 205.386L672.663 206.66C672.346 206.277 671.945 206.086 671.459 206.086C671.226 206.086 671.035 206.137 670.885 206.24C670.745 206.343 670.675 206.478 670.675 206.646C670.675 206.814 670.769 206.945 670.955 207.038C671.151 207.122 671.478 207.211 671.935 207.304C672.775 207.463 673.363 207.715 673.699 208.06C674.045 208.396 674.217 208.839 674.217 209.39C674.217 210.09 673.942 210.641 673.391 211.042C672.841 211.434 672.071 211.63 671.081 211.63C669.915 211.63 669.023 211.322 668.407 210.706L669.681 209.292C670.101 209.787 670.596 210.034 671.165 210.034C671.8 210.034 672.117 209.871 672.117 209.544C672.117 209.357 672.019 209.217 671.823 209.124C671.627 209.031 671.366 208.951 671.039 208.886C670.349 208.755 669.849 208.611 669.541 208.452C669.243 208.284 669.005 208.069 668.827 207.808C668.659 207.537 668.575 207.197 668.575 206.786C668.575 206.095 668.837 205.54 669.359 205.12C669.882 204.7 670.573 204.49 671.431 204.49ZM678.08 202.642V204.658H679.928V206.338H678.08V208.732C678.08 209.152 678.154 209.446 678.304 209.614C678.462 209.782 678.719 209.866 679.074 209.866C679.512 209.866 679.797 209.801 679.928 209.67V211.42C679.526 211.56 679.036 211.63 678.458 211.63C677.636 211.63 677.016 211.453 676.596 211.098C676.185 210.734 675.98 210.244 675.98 209.628V206.338H674.636V204.658H675.98V202.642H678.08ZM684.523 204.49C685.624 204.49 686.53 204.826 687.239 205.498C687.948 206.17 688.303 207.024 688.303 208.06C688.303 209.115 687.939 209.973 687.211 210.636C686.492 211.299 685.596 211.63 684.523 211.63C683.431 211.63 682.526 211.299 681.807 210.636C681.098 209.973 680.743 209.115 680.743 208.06C680.743 207.015 681.098 206.161 681.807 205.498C682.516 204.826 683.422 204.49 684.523 204.49ZM682.843 208.06C682.843 208.573 682.992 208.989 683.291 209.306C683.59 209.623 684 209.782 684.523 209.782C685.036 209.782 685.442 209.628 685.741 209.32C686.049 209.012 686.203 208.592 686.203 208.06C686.203 207.528 686.049 207.108 685.741 206.8C685.442 206.492 685.032 206.338 684.509 206.338C683.996 206.338 683.59 206.501 683.291 206.828C682.992 207.145 682.843 207.556 682.843 208.06ZM693.572 204.49C694.608 204.49 695.308 204.896 695.672 205.708C695.915 205.269 696.209 204.957 696.554 204.77C696.899 204.583 697.324 204.49 697.828 204.49C699.433 204.49 700.236 205.451 700.236 207.374V211.462H698.136V207.472C698.136 206.716 697.828 206.338 697.212 206.338C696.363 206.338 695.938 206.833 695.938 207.822V211.462H693.838V207.738C693.838 207.215 693.754 206.851 693.586 206.646C693.427 206.441 693.199 206.338 692.9 206.338C692.48 206.338 692.163 206.469 691.948 206.73C691.743 206.982 691.64 207.407 691.64 208.004V211.462H689.54V204.658H691.556V205.582H691.584C691.771 205.237 692.041 204.971 692.396 204.784C692.751 204.588 693.143 204.49 693.572 204.49ZM702.799 201.298C703.126 201.298 703.411 201.415 703.653 201.648C703.896 201.881 704.017 202.171 704.017 202.516C704.017 202.861 703.896 203.151 703.653 203.384C703.411 203.617 703.126 203.734 702.799 203.734C702.454 203.734 702.165 203.613 701.931 203.37C701.698 203.127 701.581 202.843 701.581 202.516C701.581 202.171 701.703 201.881 701.945 201.648C702.188 201.415 702.473 201.298 702.799 201.298ZM703.849 204.658V211.462H701.749V204.658H703.849ZM711.056 204.658V206.674L707.36 209.782H711.14V211.462H705.092V209.362L708.62 206.338H705.176V204.658H711.056ZM715.452 204.49C716.535 204.49 717.324 204.751 717.818 205.274C718.313 205.797 718.56 206.674 718.56 207.906V211.462H716.628V210.608H716.6C716.162 211.289 715.443 211.63 714.444 211.63C713.735 211.63 713.152 211.439 712.694 211.056C712.246 210.664 712.022 210.155 712.022 209.53C712.022 208.989 712.176 208.541 712.484 208.186C712.792 207.822 713.254 207.556 713.87 207.388C714.496 207.22 715.415 207.136 716.628 207.136C716.628 206.772 716.493 206.478 716.222 206.254C715.952 206.03 715.639 205.918 715.284 205.918C714.631 205.918 714.062 206.189 713.576 206.73L712.456 205.582C712.848 205.199 713.31 204.924 713.842 204.756C714.384 204.579 714.92 204.49 715.452 204.49ZM714.038 209.46C714.038 209.684 714.132 209.866 714.318 210.006C714.514 210.137 714.757 210.202 715.046 210.202C715.513 210.202 715.891 210.085 716.18 209.852C716.479 209.609 716.628 209.297 716.628 208.914V208.48H715.998C715.364 208.48 714.878 208.569 714.542 208.746C714.206 208.914 714.038 209.152 714.038 209.46ZM722.664 202.642V204.658H724.512V206.338H722.664V208.732C722.664 209.152 722.738 209.446 722.888 209.614C723.046 209.782 723.303 209.866 723.658 209.866C724.096 209.866 724.381 209.801 724.512 209.67V211.42C724.11 211.56 723.62 211.63 723.042 211.63C722.22 211.63 721.6 211.453 721.18 211.098C720.769 210.734 720.564 210.244 720.564 209.628V206.338H719.22V204.658H720.564V202.642H722.664ZM726.657 201.298C726.984 201.298 727.268 201.415 727.511 201.648C727.754 201.881 727.875 202.171 727.875 202.516C727.875 202.861 727.754 203.151 727.511 203.384C727.268 203.617 726.984 203.734 726.657 203.734C726.312 203.734 726.022 203.613 725.789 203.37C725.556 203.127 725.439 202.843 725.439 202.516C725.439 202.171 725.56 201.881 725.803 201.648C726.046 201.415 726.33 201.298 726.657 201.298ZM727.707 204.658V211.462H725.607V204.658H727.707ZM732.744 204.49C733.845 204.49 734.75 204.826 735.46 205.498C736.169 206.17 736.524 207.024 736.524 208.06C736.524 209.115 736.16 209.973 735.432 210.636C734.713 211.299 733.817 211.63 732.744 211.63C731.652 211.63 730.746 211.299 730.028 210.636C729.318 209.973 728.964 209.115 728.964 208.06C728.964 207.015 729.318 206.161 730.028 205.498C730.737 204.826 731.642 204.49 732.744 204.49ZM731.064 208.06C731.064 208.573 731.213 208.989 731.512 209.306C731.81 209.623 732.221 209.782 732.744 209.782C733.257 209.782 733.663 209.628 733.962 209.32C734.27 209.012 734.424 208.592 734.424 208.06C734.424 207.528 734.27 207.108 733.962 206.8C733.663 206.492 733.252 206.338 732.73 206.338C732.216 206.338 731.81 206.501 731.512 206.828C731.213 207.145 731.064 207.556 731.064 208.06ZM741.793 204.49C742.651 204.49 743.286 204.733 743.697 205.218C744.107 205.694 744.313 206.492 744.313 207.612V211.462H742.213V207.962C742.213 207.355 742.119 206.935 741.933 206.702C741.755 206.459 741.485 206.338 741.121 206.338C740.701 206.338 740.383 206.469 740.169 206.73C739.963 206.991 739.861 207.416 739.861 208.004V211.462H737.761V204.658H739.777V205.582H739.805C739.991 205.237 740.257 204.971 740.603 204.784C740.957 204.588 741.354 204.49 741.793 204.49Z" fill="#1A1A1A"/>
<path d="M624.871 221.878C626.311 221.878 627.465 222.231 628.331 222.938C629.211 223.631 629.651 224.591 629.651 225.818C629.651 226.631 629.438 227.311 629.011 227.858C628.585 228.405 627.991 228.758 627.231 228.918V228.978C628.045 229.085 628.691 229.451 629.171 230.078C629.651 230.691 629.891 231.425 629.891 232.278C629.891 233.571 629.425 234.605 628.491 235.378C627.571 236.138 626.338 236.518 624.791 236.518C623.418 236.518 622.291 236.205 621.411 235.578C620.545 234.938 619.978 234.031 619.711 232.858L622.871 232.118C623.098 233.211 623.798 233.758 624.971 233.758C625.585 233.758 626.058 233.598 626.391 233.278C626.725 232.958 626.891 232.511 626.891 231.938C626.891 231.391 626.705 230.985 626.331 230.718C625.958 230.438 625.238 230.298 624.171 230.298H623.391V227.698H624.311C625.098 227.698 625.685 227.578 626.071 227.338C626.458 227.085 626.651 226.678 626.651 226.118C626.651 225.665 626.478 225.305 626.131 225.038C625.785 224.771 625.371 224.638 624.891 224.638C624.465 224.638 624.091 224.751 623.771 224.978C623.451 225.205 623.238 225.531 623.131 225.958L619.831 225.278C620.431 223.011 622.111 221.878 624.871 221.878ZM633.867 232.718C634.387 232.718 634.821 232.905 635.167 233.278C635.527 233.638 635.707 234.065 635.707 234.558C635.707 235.078 635.527 235.518 635.167 235.878C634.821 236.225 634.387 236.398 633.867 236.398C633.374 236.398 632.941 236.225 632.567 235.878C632.207 235.518 632.027 235.078 632.027 234.558C632.027 234.038 632.201 233.605 632.547 233.258C632.907 232.898 633.347 232.718 633.867 232.718ZM645.465 222.118V236.278H642.585V225.478L639.745 227.978L638.045 226.018L642.665 222.118H645.465ZM660.961 221.478L662.641 222.418L654.381 236.918L652.861 236.058L660.961 221.478ZM656.641 225.838C656.641 226.918 656.254 227.851 655.481 228.638C654.721 229.411 653.794 229.798 652.701 229.798C651.594 229.798 650.661 229.418 649.901 228.658C649.141 227.885 648.761 226.945 648.761 225.838C648.761 224.758 649.141 223.831 649.901 223.058C650.674 222.271 651.608 221.878 652.701 221.878C653.768 221.878 654.688 222.258 655.461 223.018C656.248 223.778 656.641 224.718 656.641 225.838ZM652.701 227.758C653.208 227.758 653.648 227.578 654.021 227.218C654.408 226.858 654.601 226.398 654.601 225.838C654.601 225.278 654.408 224.818 654.021 224.458C653.648 224.098 653.208 223.918 652.701 223.918C652.141 223.918 651.681 224.111 651.321 224.498C650.974 224.885 650.801 225.331 650.801 225.838C650.801 226.331 650.974 226.778 651.321 227.178C651.681 227.565 652.141 227.758 652.701 227.758ZM666.701 232.538C666.701 233.631 666.314 234.571 665.541 235.358C664.781 236.131 663.854 236.518 662.761 236.518C661.654 236.518 660.721 236.131 659.961 235.358C659.201 234.571 658.821 233.631 658.821 232.538C658.821 231.458 659.201 230.531 659.961 229.758C660.734 228.971 661.668 228.578 662.761 228.578C663.868 228.578 664.801 228.971 665.561 229.758C666.321 230.531 666.701 231.458 666.701 232.538ZM662.761 234.478C663.294 234.478 663.741 234.298 664.101 233.938C664.474 233.565 664.661 233.098 664.661 232.538C664.661 231.978 664.468 231.518 664.081 231.158C663.708 230.798 663.268 230.618 662.761 230.618C662.201 230.618 661.741 230.811 661.381 231.198C661.034 231.585 660.861 232.031 660.861 232.538C660.861 233.071 661.041 233.531 661.401 233.918C661.774 234.291 662.228 234.478 662.761 234.478Z" fill="#00B9E3"/>
<path d="M542.312 397.669L544.594 404.137H544.622L546.918 397.669H550.208V407.581H548.024V399.979H547.996L545.392 407.581H543.726L541.22 399.979H541.192V407.581H539.008V397.669H542.312ZM555.057 400.609C556.139 400.609 556.928 400.87 557.423 401.393C557.917 401.916 558.165 402.793 558.165 404.025V407.581H556.233V406.727H556.205C555.766 407.408 555.047 407.749 554.049 407.749C553.339 407.749 552.756 407.558 552.299 407.175C551.851 406.783 551.627 406.274 551.627 405.649C551.627 405.108 551.781 404.66 552.089 404.305C552.397 403.941 552.859 403.675 553.475 403.507C554.1 403.339 555.019 403.255 556.233 403.255C556.233 402.891 556.097 402.597 555.827 402.373C555.556 402.149 555.243 402.037 554.889 402.037C554.235 402.037 553.666 402.308 553.181 402.849L552.061 401.701C552.453 401.318 552.915 401.043 553.447 400.875C553.988 400.698 554.525 400.609 555.057 400.609ZM553.643 405.579C553.643 405.803 553.736 405.985 553.923 406.125C554.119 406.256 554.361 406.321 554.651 406.321C555.117 406.321 555.495 406.204 555.785 405.971C556.083 405.728 556.233 405.416 556.233 405.033V404.599H555.603C554.968 404.599 554.483 404.688 554.147 404.865C553.811 405.033 553.643 405.271 553.643 405.579ZM561.582 396.997V403.465L563.906 400.777H566.482L563.78 403.843L566.552 407.581H563.906L561.61 404.137H561.582V407.581H559.482V396.997H561.582ZM567.052 404.179C567.052 403.134 567.406 402.28 568.116 401.617C568.825 400.945 569.749 400.609 570.888 400.609C571.84 400.609 572.6 400.94 573.17 401.603C573.739 402.256 574.024 403.138 574.024 404.249V404.837H569.152C569.236 405.229 569.413 405.546 569.684 405.789C569.954 406.032 570.304 406.153 570.734 406.153C571.312 406.153 571.812 405.878 572.232 405.327L573.702 406.405C573.366 406.834 572.932 407.166 572.4 407.399C571.877 407.632 571.354 407.749 570.832 407.749C569.749 407.749 568.848 407.418 568.13 406.755C567.411 406.083 567.052 405.224 567.052 404.179ZM571.924 403.409C571.924 403.017 571.798 402.704 571.546 402.471C571.294 402.238 570.986 402.121 570.622 402.121C570.23 402.121 569.894 402.238 569.614 402.471C569.343 402.704 569.189 403.017 569.152 403.409H571.924ZM578.829 400.609C579.93 400.609 580.835 400.945 581.545 401.617C582.254 402.289 582.609 403.143 582.609 404.179C582.609 405.234 582.245 406.092 581.517 406.755C580.798 407.418 579.902 407.749 578.829 407.749C577.737 407.749 576.831 407.418 576.113 406.755C575.403 406.092 575.049 405.234 575.049 404.179C575.049 403.134 575.403 402.28 576.113 401.617C576.822 400.945 577.727 400.609 578.829 400.609ZM577.149 404.179C577.149 404.692 577.298 405.108 577.597 405.425C577.895 405.742 578.306 405.901 578.829 405.901C579.342 405.901 579.748 405.747 580.047 405.439C580.355 405.131 580.509 404.711 580.509 404.179C580.509 403.647 580.355 403.227 580.047 402.919C579.748 402.611 579.337 402.457 578.815 402.457C578.301 402.457 577.895 402.62 577.597 402.947C577.298 403.264 577.149 403.675 577.149 404.179ZM585.4 400.777L587.122 405.397H587.15L588.746 400.777H590.86L588.172 407.581H585.946L583.132 400.777H585.4ZM591.415 404.179C591.415 403.134 591.769 402.28 592.479 401.617C593.188 400.945 594.112 400.609 595.251 400.609C596.203 400.609 596.963 400.94 597.533 401.603C598.102 402.256 598.387 403.138 598.387 404.249V404.837H593.515C593.599 405.229 593.776 405.546 594.047 405.789C594.317 406.032 594.667 406.153 595.097 406.153C595.675 406.153 596.175 405.878 596.595 405.327L598.065 406.405C597.729 406.834 597.295 407.166 596.763 407.399C596.24 407.632 595.717 407.749 595.195 407.749C594.112 407.749 593.211 407.418 592.493 406.755C591.774 406.083 591.415 405.224 591.415 404.179ZM596.287 403.409C596.287 403.017 596.161 402.704 595.909 402.471C595.657 402.238 595.349 402.121 594.985 402.121C594.593 402.121 594.257 402.238 593.977 402.471C593.706 402.704 593.552 403.017 593.515 403.409H596.287ZM603.766 400.609C604.055 400.609 604.284 400.632 604.452 400.679V402.597C604.135 402.504 603.836 402.457 603.556 402.457C602.921 402.457 602.464 402.616 602.184 402.933C601.904 403.241 601.764 403.815 601.764 404.655V407.581H599.664V400.777H601.764V401.869H601.792C602.016 401.449 602.282 401.136 602.59 400.931C602.898 400.716 603.29 400.609 603.766 400.609Z" fill="#1A1A1A"/>
<path d="M543.8 417.997C545.24 417.997 546.393 418.35 547.26 419.057C548.14 419.75 548.58 420.71 548.58 421.937C548.58 422.75 548.367 423.43 547.94 423.977C547.513 424.524 546.92 424.877 546.16 425.037V425.097C546.973 425.204 547.62 425.57 548.1 426.197C548.58 426.81 548.82 427.544 548.82 428.397C548.82 429.69 548.353 430.724 547.42 431.497C546.5 432.257 545.267 432.637 543.72 432.637C542.347 432.637 541.22 432.324 540.34 431.697C539.473 431.057 538.907 430.15 538.64 428.977L541.8 428.237C542.027 429.33 542.727 429.877 543.9 429.877C544.513 429.877 544.987 429.717 545.32 429.397C545.653 429.077 545.82 428.63 545.82 428.057C545.82 427.51 545.633 427.104 545.26 426.837C544.887 426.557 544.167 426.417 543.1 426.417H542.32V423.817H543.24C544.027 423.817 544.613 423.697 545 423.457C545.387 423.204 545.58 422.797 545.58 422.237C545.58 421.784 545.407 421.424 545.06 421.157C544.713 420.89 544.3 420.757 543.82 420.757C543.393 420.757 543.02 420.87 542.7 421.097C542.38 421.324 542.167 421.65 542.06 422.077L538.76 421.397C539.36 419.13 541.04 417.997 543.8 417.997ZM555.796 417.997C557.303 417.997 558.556 418.45 559.556 419.357C560.569 420.264 561.076 421.43 561.076 422.857C561.076 423.564 560.976 424.237 560.776 424.877C560.576 425.517 560.096 426.43 559.336 427.617L556.276 432.397H552.616L555.936 427.337C555.563 427.43 555.229 427.477 554.936 427.477C553.656 427.477 552.596 427.044 551.756 426.177C550.929 425.31 550.516 424.204 550.516 422.857C550.516 421.457 551.016 420.297 552.016 419.377C553.016 418.457 554.276 417.997 555.796 417.997ZM553.516 422.977C553.516 423.63 553.723 424.164 554.136 424.577C554.563 424.99 555.116 425.197 555.796 425.197C556.449 425.197 556.989 424.997 557.416 424.597C557.856 424.184 558.076 423.644 558.076 422.977C558.076 422.31 557.856 421.777 557.416 421.377C556.976 420.964 556.429 420.757 555.776 420.757C555.136 420.757 554.596 420.964 554.156 421.377C553.729 421.79 553.516 422.324 553.516 422.977ZM564.632 428.837C565.152 428.837 565.585 429.024 565.932 429.397C566.292 429.757 566.472 430.184 566.472 430.677C566.472 431.197 566.292 431.637 565.932 431.997C565.585 432.344 565.152 432.517 564.632 432.517C564.139 432.517 563.705 432.344 563.332 431.997C562.972 431.637 562.792 431.197 562.792 430.677C562.792 430.157 562.965 429.724 563.312 429.377C563.672 429.017 564.112 428.837 564.632 428.837ZM573.75 417.997C575.137 417.997 576.243 418.384 577.07 419.157C577.91 419.917 578.33 420.95 578.33 422.257C578.33 423.084 578.183 423.777 577.89 424.337C577.61 424.884 577.037 425.544 576.17 426.317L572.17 429.757H578.45V432.397H568.57V429.217L574.07 424.277C574.563 423.824 574.897 423.457 575.07 423.177C575.243 422.897 575.33 422.604 575.33 422.297C575.33 421.83 575.157 421.457 574.81 421.177C574.463 420.897 574.057 420.757 573.59 420.757C573.083 420.757 572.663 420.917 572.33 421.237C571.997 421.557 571.803 421.997 571.75 422.557L568.75 422.337C568.843 420.924 569.33 419.85 570.21 419.117C571.103 418.37 572.283 417.997 573.75 417.997ZM591.726 417.597L593.406 418.537L585.146 433.037L583.626 432.177L591.726 417.597ZM587.406 421.957C587.406 423.037 587.019 423.97 586.246 424.757C585.486 425.53 584.559 425.917 583.466 425.917C582.359 425.917 581.426 425.537 580.666 424.777C579.906 424.004 579.526 423.064 579.526 421.957C579.526 420.877 579.906 419.95 580.666 419.177C581.439 418.39 582.372 417.997 583.466 417.997C584.532 417.997 585.452 418.377 586.226 419.137C587.012 419.897 587.406 420.837 587.406 421.957ZM583.466 423.877C583.972 423.877 584.412 423.697 584.786 423.337C585.172 422.977 585.366 422.517 585.366 421.957C585.366 421.397 585.172 420.937 584.786 420.577C584.412 420.217 583.972 420.037 583.466 420.037C582.906 420.037 582.446 420.23 582.086 420.617C581.739 421.004 581.566 421.45 581.566 421.957C581.566 422.45 581.739 422.897 582.086 423.297C582.446 423.684 582.906 423.877 583.466 423.877ZM597.466 428.657C597.466 429.75 597.079 430.69 596.306 431.477C595.546 432.25 594.619 432.637 593.526 432.637C592.419 432.637 591.486 432.25 590.726 431.477C589.966 430.69 589.586 429.75 589.586 428.657C589.586 427.577 589.966 426.65 590.726 425.877C591.499 425.09 592.432 424.697 593.526 424.697C594.632 424.697 595.566 425.09 596.326 425.877C597.086 426.65 597.466 427.577 597.466 428.657ZM593.526 430.597C594.059 430.597 594.506 430.417 594.866 430.057C595.239 429.684 595.426 429.217 595.426 428.657C595.426 428.097 595.232 427.637 594.846 427.277C594.472 426.917 594.032 426.737 593.526 426.737C592.966 426.737 592.506 426.93 592.146 427.317C591.799 427.704 591.626 428.15 591.626 428.657C591.626 429.19 591.806 429.65 592.166 430.037C592.539 430.41 592.992 430.597 593.526 430.597Z" fill="#FF9F20"/>
<g filter="url(#filter0_d_3651_5511)">
<path d="M298.716 247.738C298.716 185.83 348.987 135.644 411 135.644H411.001V66.7003C366.534 66.7003 328.501 80.5195 294.438 109.054C217.717 173.321 207.71 287.509 272.086 364.1L324.988 319.785C308.595 300.302 298.716 275.173 298.716 247.738Z" fill="#FC336D"/>
<path d="M592.231 241.416L523.207 243.822C523.252 245.123 523.283 246.426 523.283 247.738C523.283 309.645 473.012 359.831 411 359.831C376.469 359.831 345.585 344.266 324.988 319.785L272.086 364.1C308.652 407.603 360.478 430.639 417.329 428.657C517.42 425.168 595.726 341.337 592.231 241.416Z" fill="#FF9F20"/>
<path d="M523.208 243.822L592.231 241.416C591.797 229.025 590.487 219.09 587.693 207.01L520.428 222.513C522.013 229.395 522.956 236.521 523.208 243.822Z" fill="#00B9E3"/>
<path d="M520.428 222.513L587.693 207.01C583.999 191.033 580.033 180.156 572.576 165.546L511.063 196.836C515.179 204.882 518.349 213.489 520.428 222.513Z" fill="#14CB93"/>
<path d="M511.063 196.836L572.576 165.546C557.663 136.327 537.316 113.767 509.766 95.9064L472.156 153.722C488.611 164.411 502.087 179.284 511.063 196.836Z" fill="#12B2A6"/>
<path d="M472.156 153.722L509.766 95.9064C478.52 75.6495 448.257 66.7003 411.001 66.7003V135.644C433.559 135.645 454.56 142.291 472.156 153.722Z" fill="#FF5D3C"/>
</g>
<g style="mix-blend-mode:multiply" opacity="0.5" clip-path="url(#clip0_3651_5511)">
<path d="M82.3014 433.351L81.2849 430.423H75.6732C75.5186 430.875 75.3547 431.368 75.186 431.898L74.7223 433.351H72.0007L77.0269 419.779H79.9452L84.8403 433.351H82.2967H82.3014ZM78.4697 422.726C78.1324 423.649 77.8045 424.539 77.4954 425.407C77.1862 426.275 76.8443 427.193 76.4789 428.171H80.4792L78.4697 422.726V422.726Z" fill="#666666"/>
<path d="M93.0097 419.821H87.8898V433.378H90.2553V428.76H93.0097C95.8155 428.76 97.1787 427.609 97.1787 425.238V423.32C97.1787 420.963 95.8155 419.821 93.0097 419.821V419.821ZM90.2553 421.954H92.9535C94.5555 421.954 94.8131 422.365 94.8131 423.343V425.243C94.8131 426.202 94.5461 426.631 92.9535 426.631H90.2553V421.954Z" fill="#666666"/>
<path d="M105.034 419.821H99.9143V433.378H102.28V428.76H105.034C107.84 428.76 109.203 427.609 109.203 425.238V423.32C109.203 420.963 107.84 419.821 105.034 419.821V419.821ZM102.28 421.954H104.978C106.58 421.954 106.838 422.365 106.838 423.343V425.243C106.838 426.202 106.571 426.631 104.978 426.631H102.28V421.954Z" fill="#666666"/>
<path d="M116.197 432.026H122.619V433.383H114.796V419.839H116.197V432.026V432.026Z" fill="#666666"/>
<path d="M134.924 429.441C134.924 431.697 133.486 433.552 129.898 433.552C126.31 433.552 124.872 431.702 124.872 429.441V423.703C124.872 421.447 126.31 419.592 129.898 419.592C133.486 419.592 134.924 421.442 134.924 423.703V429.441ZM126.174 429.459C126.174 431.405 127.392 432.497 129.95 432.497C132.507 432.497 133.721 431.405 133.721 429.459V423.681C133.721 421.735 132.503 420.643 129.95 420.643C127.397 420.643 126.174 421.735 126.174 423.681V429.459Z" fill="#666666"/>
<path d="M137.056 419.839H138.447L142.939 432.026L147.441 419.839H148.865L143.871 433.388H142.026L137.06 419.839H137.056Z" fill="#666666"/>
<path d="M153.17 433.388H151.769V419.839H153.17V433.388Z" fill="#666666"/>
<path d="M159.882 421.465V433.383H158.566V419.839H160.632L166.679 431.432V419.839H167.995V433.388H166.323L159.878 421.47L159.882 421.465Z" fill="#666666"/>
<path d="M61.5081 431.597C59.7702 431.597 58.3556 432.976 58.3556 434.671C58.3556 436.366 59.7702 437.745 61.5081 437.745C63.246 437.745 64.6606 436.366 64.6606 434.671C64.6606 432.976 63.246 431.597 61.5081 431.597V431.597ZM63.3724 434.671C63.3724 435.676 62.5339 436.489 61.5081 436.489C60.4822 436.489 59.6438 435.672 59.6438 434.671C59.6438 433.671 60.4822 432.853 61.5081 432.853C62.5339 432.853 63.3724 433.671 63.3724 434.671Z" fill="#666666"/>
<path d="M40.1525 431.597C38.4146 431.597 37 432.976 37 434.671C37 436.366 38.4146 437.745 40.1525 437.745C41.8904 437.745 43.305 436.366 43.305 434.671C43.305 432.976 41.8904 431.597 40.1525 431.597V431.597ZM42.0168 434.671C42.0168 435.676 41.1784 436.489 40.1525 436.489C39.1267 436.489 38.2882 435.672 38.2882 434.671C38.2882 433.671 39.1267 432.853 40.1525 432.853C41.1784 432.853 42.0168 433.671 42.0168 434.671Z" fill="#666666"/>
<path d="M50.8326 414.75C49.0947 414.75 47.6801 416.13 47.6801 417.824C47.6801 419.519 49.0947 420.899 50.8326 420.899C52.5704 420.899 53.9851 419.519 53.9851 417.824C53.9851 416.13 52.5704 414.75 50.8326 414.75ZM52.6969 417.824C52.6969 418.829 51.8584 419.642 50.8326 419.642C49.8067 419.642 48.9682 418.825 48.9682 417.824C48.9682 416.824 49.8067 416.006 50.8326 416.006C51.8584 416.006 52.6969 416.824 52.6969 417.824Z" fill="#666666"/>
<path d="M60.3416 431.939L53.3761 419.711L53.3105 419.592L53.2215 419.697C52.9826 419.99 52.6875 420.222 52.3549 420.401L52.2706 420.446L52.3175 420.529L58.482 431.355C56.3319 430.884 53.6572 430.628 50.9169 430.628C47.8955 430.628 45.2114 430.88 43.1316 431.35L49.3008 420.524L49.3476 420.442L49.2633 420.396C48.9261 420.222 48.6356 419.985 48.3967 419.693L48.3077 419.588L48.2422 419.706L41.2767 431.935L41.2205 432.031L41.3235 432.067C41.6655 432.182 41.9793 432.597 42.2557 432.835L42.3025 432.876L42.3587 432.848H42.3822C44.6025 432.246 47.5583 431.926 50.9216 431.926C53.9476 431.926 56.8846 432.25 59.1986 432.839L59.2455 432.926L59.3345 432.858L59.3532 432.844C59.6343 432.602 59.9481 432.186 60.2901 432.072L60.3931 432.035L60.3369 431.939H60.3416Z" fill="#666666"/>
</g>
<defs>
<filter id="filter0_d_3651_5511" x="220.656" y="62.7003" width="394.687" height="394.075" filterUnits="userSpaceOnUse" color-interpolation-filters="sRGB">
<feFlood flood-opacity="0" result="BackgroundImageFix"/>
<feColorMatrix in="SourceAlpha" type="matrix" values="0 0 0 0 0 0 0 0 0 0 0 0 0 0 0 0 0 0 127 0" result="hardAlpha"/>
<feOffset dx="7" dy="12"/>
<feGaussianBlur stdDeviation="8"/>
<feComposite in2="hardAlpha" operator="out"/>
<feColorMatrix type="matrix" values="0 0 0 0 0.509804 0 0 0 0 0.607843 0 0 0 0 0.768627 0 0 0 0.25 0"/>
<feBlend mode="normal" in2="BackgroundImageFix" result="effect1_dropShadow_3651_5511"/>
<feBlend mode="normal" in="SourceGraphic" in2="effect1_dropShadow_3651_5511" result="shape"/>
</filter>
<clipPath id="clip0_3651_5511">
<rect width="131" height="23" fill="white" transform="translate(37 414.75)"/>
</clipPath>
</defs>
</svg>
