<svg xmlns="http://www.w3.org/2000/svg" xmlns:xlink="http://www.w3.org/1999/xlink" viewBox="0 0 232 175"><defs><radialGradient id="radial-gradient" cx="116" cy="87.5" r="127.815" gradientTransform="translate(0 14.91) scale(1 0.83)" gradientUnits="userSpaceOnUse"><stop offset="0" stop-color="#fff"/><stop offset="0.364" stop-color="#fcfcfc"/><stop offset="0.685" stop-color="#f1f1f1"/><stop offset="0.989" stop-color="#dfdfdf"/><stop offset="1" stop-color="#dedede"/></radialGradient></defs><title>Asset 3</title><g id="Layer_2" data-name="Layer 2"><g id="Layer_1-2" data-name="Layer 1"><rect width="232" height="175" style="fill:url(#radial-gradient)"/><path d="M144.226,121.373a5.342,5.342,0,0,0,2.053-4.39c0-3.917-2.906-6.285-7.3-6.285h-8.717v22.109h9.317c4.485,0,7.422-2.559,7.422-6.475A5.542,5.542,0,0,0,144.226,121.373Zm-7.973,6.568a.657.657,0,1,1-1.313,0V115.563a.657.657,0,0,1,1.313,0Z"/><rect x="79.617" y="110.698" width="6.3" height="22.109"/><rect x="87.231" y="126.467" width="6.966" height="6.34"/><path d="M115.044,110.7h-6.885l-7.3,22.109h5.073l3.787-11.424a.657.657,0,1,1,1.247.413l-3.651,11.011H122.34Z"/><path d="M56.575,78.684a43.864,43.864,0,0,0-.5,7.9c.192,7.939,1.639,16.109,6.546,22.55a33.243,33.243,0,0,0,5.212,5.412c.738.613,3.035,2.859,4.161,1.939.824-.674.217-2.928.112-3.772-.2-1.586-.643-3.451-.187-5.029.832-2.879,4.734-2.763,7.177-2.737,20.08.219,39.907-3,59.813-5.105q7.444-.786,14.89-1.57c7.161-.765,13.953-1.037,20.608-4.157a12.235,12.235,0,0,0,4.031-2.717c2.689-3,3.251-8.405,3.732-12.242a105.724,105.724,0,0,0,.834-13.787c-.026-4.377.18-9.708-1.176-13.894-2.215-6.835-9.944-9.415-16.335-10.378-7.15-1.078-14.351-.226-21.477.6q-14.311,1.653-28.619,3.345c-7.909.944-15.97,1.443-23.766,3.107a60.263,60.263,0,0,0-22.9,10.378,32,32,0,0,0-6.007,5.628A30.33,30.33,0,0,0,56.575,78.684Z"/><path d="M59.643,48.447c1.111.645,2.682-1.129,3.128-1a.964.964,0,0,1,.489.422c.944,1.365,1.191,3.245,2.522,4.237a1.015,1.015,0,0,0,.745.251c.357-.062.578-.419.71-.756.369-.943-.022-8.1-.353-8.758-.209-.414-.587-.859-1.041-.764-.544.114-1.9,1.558-2.465,1.111s.161-4.578-.51-5.057A3.73,3.73,0,0,0,58.54,38.1C57.786,38.8,57.786,47,59.643,48.447Z"/><path d="M39.914,67.467c1.888,1.36,6.845,4.32,7.575,3.164s.408-2.754.28-3.582,1.347-.333,1.347-.333a17.106,17.106,0,0,0,3.282.1c1.035-.156,2.039-.851,1.127-1.9-1.176-1.348-7.314-4.018-8.652-3.653s-.887,2.45-.824,2.723c.079.345-.166.535-.466.334l-1.711-1.145c-.685-.458-1.551-.932-2.285-.557a3.738,3.738,0,0,0-1.577,2.869c.019.632.653,1.016,1.095,1.367C39.366,67.062,39.636,67.267,39.914,67.467Z"/><path d="M47.853,55.339c.653-.033.887-.972,1.088-1.449.719-1.7,2.438.579,2.958,1.283.818,1.107,1.489,2.395,2.784,3.025,1.824.888,1.668-1.754,1.487-2.81-.3-1.765-3.433-6.641-3.994-7.581-.378-.636-.958-2.131-1.96-1.718-.79.326-.857,1.773-1.308,2.2s-2.327-3.143-3.181-3.959A1.413,1.413,0,0,0,44.041,44c-.512.322-2.832,2.938-2.57,4.592S46.2,55.2,47.853,55.339Z"/><path d="M165.022,119.644l-1.277.728a.629.629,0,1,1-.624-1.093l7.175-4.124a8.426,8.426,0,0,0-7.38-4.6c-4.949,0-8.907,3.28-8.907,8.366.228,3.87,3.841,6.231,6.735,4.578l1.581-.94a.629.629,0,0,1,.643,1.082s-7.75,4.607-7.758,4.61c1.474,2.706,3.357,4.488,7.051,4.556,4.784.088,9.219-2.988,9.219-7.342C171.48,119.86,167.238,118.429,165.022,119.644Z"/><path d="M82.483,72.493a5.1,5.1,0,0,0-2.98-.672c-.936.106-1.634.627-1.563,1.251.262,2.307,7.654.961,8.412,7.631.393,3.46-2.053,7.779-7.445,8.391a11.015,11.015,0,0,1-7.393-1.717.606.606,0,0,1-.164-.9l2.387-3.712a.68.68,0,0,1,.98-.27,6.66,6.66,0,0,0,4.039,1.088c1.464-.166,1.975-.95,1.9-1.605-.312-2.742-7.68-1.463-8.42-7.977-.439-3.865,2.563-7.173,7.456-7.729a10.228,10.228,0,0,1,6.151,1.069.609.609,0,0,1,.2.893l-2.609,3.991A.718.718,0,0,1,82.483,72.493Z" style="fill:#fff"/><path d="M89.616,86.93l.936-20.942a.668.668,0,0,1,.646-.7l7.636-.867a6.418,6.418,0,0,1,7.531,6,8.408,8.408,0,0,1-7.4,9.049l-3.334.378-.279,6.441a.67.67,0,0,1-.646.7l-4.488.51C89.78,87.543,89.6,87.312,89.616,86.93Zm11.022-15.522c-.127-1.121-1-1.843-2.712-1.648l-1.871.212-.2,4.631,1.9-.216C99.658,74.172,100.815,72.967,100.638,71.408Z" style="fill:#fff"/><path d="M106.135,85.054l7.075-21.64a.855.855,0,0,1,.771-.718l5.953-.677c.405-.046.613.12.694.553l5.236,20.241a.478.478,0,0,1-.428.679l-4.707.535c-.405.046-.731-.044-.849-.535l-.7-3.078-6.14.7-.923,3.262a.919.919,0,0,1-.9.733l-4.706.534C106.143,85.684,106.021,85.446,106.135,85.054Zm8.394-9.477,3.709-.422-1.585-6.165Z" style="fill:#fff"/><path d="M145.569,81.205l-4.955.563a.942.942,0,0,1-1.037-.513l-3.493-6.012-.81.092-.31,6.444a.671.671,0,0,1-.646.7l-4.488.509c-.405.047-.617-.15-.6-.562l.936-20.943a.692.692,0,0,1,.646-.7l8.041-.914a6.357,6.357,0,0,1,7.133,5.819c.464,4.083-2.491,6.976-4.023,7.939l3.973,6.905C146.133,80.889,146.037,81.152,145.569,81.205Zm-10.1-11.132,1.932-.219c1.9-.216,3.052-1.484,2.882-2.979-.127-1.123-.933-1.82-2.522-1.64l-2.088.237C135.663,65.978,135.465,70.073,135.465,70.073Z" style="fill:#fff"/><path d="M162.484,78.653l-4.857-7.467-1.99,2.5-.259,5.775a.671.671,0,0,1-.646.705l-4.488.51c-.405.046-.617-.151-.6-.563l.936-20.943a.669.669,0,0,1,.646-.7l4.488-.51c.405-.046.617.15.6.563l-.342,7.268,6.326-7.948a1.711,1.711,0,0,1,1.238-.772l5.829-.662c.373-.042.436.234.164.613l-7.67,9.742,7.2,11.147c.226.321.071.623-.334.669l-5.142.584A1.023,1.023,0,0,1,162.484,78.653Z" style="fill:#fff"/></g></g></svg>