<svg width="840" height="472" viewBox="0 0 840 472" fill="none" xmlns="http://www.w3.org/2000/svg">
<g filter="url(#filter0_d_3651_5989)">
<path d="M486.408 276.523C486.491 276.441 486.567 276.355 486.649 276.272L547.405 337.627C528.425 356.406 506.214 370.392 481.072 379.394L452.001 298.267C464.534 293.741 476.315 286.51 486.408 276.523Z" fill="#00B9E3"/>
<path d="M452.001 298.266L481.072 379.394C433.709 396.352 388.114 394.129 342.626 372.644L379.37 294.916C402.198 305.661 428.439 306.774 452.001 298.266Z" fill="#12B2A6"/>
<path d="M352.414 275.839C360.454 283.958 369.599 290.317 379.37 294.916L342.626 372.644C288.095 346.886 253.256 301.84 242.05 242.602L326.613 226.618C329.964 244.62 338.557 261.845 352.414 275.839Z" fill="#FF5D3C"/>
<path d="M353.098 141.899C329.908 164.845 321.064 196.799 326.613 226.618L242.05 242.602C240.155 232.581 239.281 224.555 238.978 214.361C235.997 114.425 314.628 30.996 414.604 28.0168L417.185 114.558C393.96 115.183 370.913 124.272 353.098 141.899Z" fill="#FC336D"/>
<path d="M547.405 337.627L486.649 276.272C523.593 239.454 523.823 179.676 487.092 142.583C467.914 123.216 442.444 113.879 417.185 114.559L414.604 28.0171C466.792 26.4619 511.983 44.5227 548.712 81.6143C619.076 152.671 618.49 267.292 547.405 337.627Z" fill="#FF9F20"/>
</g>
<path d="M311 128.268C311.515 128.268 311.933 127.851 311.933 127.337C311.933 126.824 311.515 126.407 311 126.407C310.484 126.407 310.067 126.824 310.067 127.337C310.067 127.851 310.484 128.268 311 128.268Z" stroke="white" stroke-width="2" stroke-linecap="round" stroke-linejoin="round"/>
<path d="M303.58 139.462C299.623 136.996 297 132.334 297 127.337C297 119.624 303.272 113.38 311 113.38C318.728 113.38 325 119.624 325 127.337C325 132.288 322.349 136.987 318.448 139.462" stroke="white" stroke-width="2" stroke-linecap="round" stroke-linejoin="round"/>
<path d="M297 127.337H298.913" stroke="white" stroke-width="2" stroke-linecap="round" stroke-linejoin="round"/>
<path d="M323.096 127.337H325" stroke="white" stroke-width="2" stroke-linecap="round" stroke-linejoin="round"/>
<path d="M311 115.287V113.38" stroke="white" stroke-width="2" stroke-linecap="round" stroke-linejoin="round"/>
<path d="M316.955 116.841L317.888 115.185" stroke="white" stroke-width="2" stroke-linecap="round" stroke-linejoin="round"/>
<path d="M298.904 134.353L300.546 133.395" stroke="white" stroke-width="2" stroke-linecap="round" stroke-linejoin="round"/>
<path d="M321.462 121.28L323.105 120.322" stroke="white" stroke-width="2" stroke-linecap="round" stroke-linejoin="round"/>
<path d="M305.017 116.86L304.065 115.213" stroke="white" stroke-width="2" stroke-linecap="round" stroke-linejoin="round"/>
<path d="M323.096 134.372L321.444 133.414" stroke="white" stroke-width="2" stroke-linecap="round" stroke-linejoin="round"/>
<path d="M300.556 121.261L298.914 120.303" stroke="white" stroke-width="2" stroke-linecap="round" stroke-linejoin="round"/>
<path d="M311 127.337L317.533 123.662" stroke="white" stroke-width="2" stroke-linecap="round" stroke-linejoin="round"/>
<path d="M561.416 163.447C561.416 163.447 562.934 168.836 558.917 169.888C560.834 173.914 554.718 179.55 550.551 179.55C549.097 179.55 547.999 178.423 547.999 176.866V151.144C547.999 148.117 548.839 147.344 550.551 147.344C554.384 147.344 564.528 156.652 561.416 163.447Z" stroke="white" stroke-width="2" stroke-linecap="round" stroke-linejoin="round"/>
<path d="M561.275 163.436C561.275 163.436 559.692 165.605 553.393 165.605" stroke="white" stroke-width="2" stroke-linecap="round" stroke-linejoin="round"/>
<path d="M552.305 155.932C552.305 157.36 553.651 160.226 557.689 160.226" stroke="white" stroke-width="2" stroke-linecap="round" stroke-linejoin="round"/>
<path d="M535.195 163.447C533.419 165.465 533.289 169.48 537.123 170.833C535.206 174.182 540.999 179.55 545.436 179.55C546.889 179.55 547.998 178.423 547.998 176.866V151.144C547.998 148.117 547.159 147.344 545.436 147.344C541.592 147.344 532.073 156.652 535.195 163.447V163.447Z" stroke="white" stroke-width="2" stroke-linecap="round" stroke-linejoin="round"/>
<path d="M542.615 164.521C542.615 164.521 541.096 162.374 538.781 162.374C536.768 162.374 535.077 163.447 535.077 163.447" stroke="white" stroke-width="2" stroke-linecap="round" stroke-linejoin="round"/>
<path d="M542.614 154.859C542.614 155.395 542.259 157.006 540.461 157.006" stroke="white" stroke-width="2" stroke-linecap="round" stroke-linejoin="round"/>
<path d="M552.305 173.109C552.305 172.572 552.661 170.962 554.459 170.962" stroke="white" stroke-width="2" stroke-linecap="round" stroke-linejoin="round"/>
<path d="M541.538 170.962C542.076 170.962 543.691 171.316 543.691 173.109" stroke="white" stroke-width="2" stroke-linecap="round" stroke-linejoin="round"/>
<path d="M412 359.064C419.732 359.064 426 352.815 426 345.107C426 337.398 419.732 331.149 412 331.149C404.268 331.149 398 337.398 398 345.107C398 352.815 404.268 359.064 412 359.064Z" stroke="white" stroke-width="2" stroke-linecap="round" stroke-linejoin="round"/>
<path d="M412 345.107C410.451 345.107 409.2 343.86 409.2 342.315C409.2 340.771 410.451 339.524 412 339.524H414.8" stroke="white" stroke-width="2" stroke-linecap="round" stroke-linejoin="round"/>
<path d="M412 345.107C413.549 345.107 414.8 346.354 414.8 347.898C414.8 349.443 413.549 350.69 412 350.69H409.2" stroke="white" stroke-width="2" stroke-linecap="round" stroke-linejoin="round"/>
<path d="M412 336.732V339.524" stroke="white" stroke-width="2" stroke-linecap="round" stroke-linejoin="round"/>
<path d="M412 350.69V353.481" stroke="white" stroke-width="2" stroke-linecap="round" stroke-linejoin="round"/>
<path d="M307.047 282.187H312.085C312.645 282.187 313.055 282.636 312.995 283.184L311.136 290.16C311.076 290.708 310.566 291.157 309.996 291.157H305.088C304.528 291.157 303.708 290.868 303.278 290.509L300.999 289.164H299" stroke="white" stroke-width="2" stroke-linecap="round" stroke-linejoin="round"/>
<path d="M306.997 278.34V282.187" stroke="white" stroke-width="2" stroke-linecap="round" stroke-linejoin="round"/>
<path d="M306.997 278.201C306.997 277.204 305.888 276.208 305.048 276.208C304.388 276.208 303.788 276.636 303.608 277.204C303.428 277.772 301.999 282.187 301.999 282.187H299" stroke="white" stroke-width="2" stroke-linecap="round" stroke-linejoin="round"/>
<path d="M318.954 300.126H313.915C313.356 300.126 312.946 299.678 313.006 299.13L314.865 292.153C314.925 291.605 315.435 291.157 316.005 291.157H320.913C321.473 291.157 322.292 291.446 322.722 291.805L325.001 293.15H327.001" stroke="white" stroke-width="2" stroke-linecap="round" stroke-linejoin="round"/>
<path d="M318.994 303.973V300.126" stroke="white" stroke-width="2" stroke-linecap="round" stroke-linejoin="round"/>
<path d="M318.994 304.112C318.994 305.109 320.104 306.106 320.943 306.106C321.603 306.106 322.203 305.677 322.383 305.109C322.563 304.541 323.992 300.126 323.992 300.126H326.991" stroke="white" stroke-width="2" stroke-linecap="round" stroke-linejoin="round"/>
<path d="M299 281.19V290.16" stroke="white" stroke-width="2" stroke-linecap="round" stroke-linejoin="round"/>
<path d="M326.99 292.154V301.123" stroke="white" stroke-width="2" stroke-linecap="round" stroke-linejoin="round"/>
<path d="M495 342.082C502.732 342.082 509 335.833 509 328.125C509 320.416 502.732 314.167 495 314.167C487.268 314.167 481 320.416 481 328.125C481 335.833 487.268 342.082 495 342.082Z" stroke="white" stroke-width="2" stroke-linecap="round" stroke-linejoin="round"/>
<path d="M502.467 331.847C501.085 334.582 498.276 336.499 495 336.499C491.724 336.499 488.924 334.573 487.533 331.847" stroke="white" stroke-width="2" stroke-linecap="round" stroke-linejoin="round"/>
<path d="M490.334 326.264C490.849 326.264 491.267 325.847 491.267 325.334C491.267 324.82 490.849 324.403 490.334 324.403C489.818 324.403 489.4 324.82 489.4 325.334C489.4 325.847 489.818 326.264 490.334 326.264Z" stroke="white" stroke-width="2" stroke-linecap="round" stroke-linejoin="round"/>
<path d="M499.667 326.264C500.182 326.264 500.6 325.847 500.6 325.334C500.6 324.82 500.182 324.403 499.667 324.403C499.151 324.403 498.733 324.82 498.733 325.334C498.733 325.847 499.151 326.264 499.667 326.264Z" stroke="white" stroke-width="2" stroke-linecap="round" stroke-linejoin="round"/>
<path d="M186.312 86.4986L188.594 92.9666H188.622L190.918 86.4986H194.208V96.4106H192.024V88.8086H191.996L189.392 96.4106H187.726L185.22 88.8086H185.192V96.4106H183.008V86.4986H186.312ZM195.753 93.0086C195.753 91.9633 196.107 91.1093 196.817 90.4466C197.526 89.7746 198.45 89.4386 199.589 89.4386C200.541 89.4386 201.301 89.77 201.871 90.4326C202.44 91.086 202.725 91.968 202.725 93.0786V93.6666H197.853C197.937 94.0586 198.114 94.376 198.385 94.6186C198.655 94.8613 199.005 94.9826 199.435 94.9826C200.013 94.9826 200.513 94.7073 200.933 94.1566L202.403 95.2346C202.067 95.664 201.633 95.9953 201.101 96.2286C200.578 96.462 200.055 96.5786 199.533 96.5786C198.45 96.5786 197.549 96.2473 196.831 95.5846C196.112 94.9126 195.753 94.054 195.753 93.0086ZM200.625 92.2386C200.625 91.8466 200.499 91.534 200.247 91.3006C199.995 91.0673 199.687 90.9506 199.323 90.9506C198.931 90.9506 198.595 91.0673 198.315 91.3006C198.044 91.534 197.89 91.8466 197.853 92.2386H200.625ZM206.788 87.5906V89.6066H208.636V91.2866H206.788V93.6806C206.788 94.1006 206.862 94.3946 207.012 94.5626C207.17 94.7306 207.427 94.8146 207.782 94.8146C208.22 94.8146 208.505 94.7493 208.636 94.6186V96.3686C208.234 96.5086 207.744 96.5786 207.166 96.5786C206.344 96.5786 205.724 96.4013 205.304 96.0466C204.893 95.6826 204.688 95.1926 204.688 94.5766V91.2866H203.344V89.6066H204.688V87.5906H206.788ZM209.493 93.0086C209.493 91.9633 209.848 91.1093 210.557 90.4466C211.266 89.7746 212.19 89.4386 213.329 89.4386C214.281 89.4386 215.042 89.77 215.611 90.4326C216.18 91.086 216.465 91.968 216.465 93.0786V93.6666H211.593C211.677 94.0586 211.854 94.376 212.125 94.6186C212.396 94.8613 212.746 94.9826 213.175 94.9826C213.754 94.9826 214.253 94.7073 214.673 94.1566L216.143 95.2346C215.807 95.664 215.373 95.9953 214.841 96.2286C214.318 96.462 213.796 96.5786 213.273 96.5786C212.19 96.5786 211.29 96.2473 210.571 95.5846C209.852 94.9126 209.493 94.054 209.493 93.0086ZM214.365 92.2386C214.365 91.8466 214.239 91.534 213.987 91.3006C213.735 91.0673 213.427 90.9506 213.063 90.9506C212.671 90.9506 212.335 91.0673 212.055 91.3006C211.784 91.534 211.63 91.8466 211.593 92.2386H214.365ZM221.844 89.4386C222.133 89.4386 222.362 89.462 222.53 89.5086V91.4266C222.213 91.3333 221.914 91.2866 221.634 91.2866C220.999 91.2866 220.542 91.4453 220.262 91.7626C219.982 92.0706 219.842 92.6446 219.842 93.4846V96.4106H217.742V89.6066H219.842V90.6986H219.87C220.094 90.2786 220.36 89.966 220.668 89.7606C220.976 89.546 221.368 89.4386 221.844 89.4386Z" fill="#1A1A1A"/>
<path d="M188.16 106.989C189.547 106.989 190.653 107.376 191.48 108.149C192.32 108.909 192.74 109.943 192.74 111.249C192.74 112.076 192.593 112.769 192.3 113.329C192.02 113.876 191.447 114.536 190.58 115.309L186.58 118.749H192.86V121.389H182.98V118.209L188.48 113.269C188.973 112.816 189.307 112.449 189.48 112.169C189.653 111.889 189.74 111.596 189.74 111.289C189.74 110.823 189.567 110.449 189.22 110.169C188.873 109.889 188.467 109.749 188 109.749C187.493 109.749 187.073 109.909 186.74 110.229C186.407 110.549 186.213 110.989 186.16 111.549L183.16 111.329C183.253 109.916 183.74 108.843 184.62 108.109C185.513 107.363 186.693 106.989 188.16 106.989ZM204.936 107.229V109.869L199.276 121.389H195.776L201.576 109.989H194.576V107.229H204.936ZM208.632 117.829C209.152 117.829 209.585 118.016 209.932 118.389C210.292 118.749 210.472 119.176 210.472 119.669C210.472 120.189 210.292 120.629 209.932 120.989C209.585 121.336 209.152 121.509 208.632 121.509C208.139 121.509 207.705 121.336 207.332 120.989C206.972 120.629 206.792 120.189 206.792 119.669C206.792 119.149 206.965 118.716 207.312 118.369C207.672 118.009 208.112 117.829 208.632 117.829ZM220.65 107.229L217.33 112.289C217.703 112.196 218.03 112.149 218.31 112.149C219.617 112.149 220.683 112.589 221.51 113.469C222.337 114.349 222.75 115.449 222.75 116.769C222.75 118.196 222.243 119.363 221.23 120.269C220.23 121.176 218.977 121.629 217.47 121.629C215.977 121.629 214.723 121.176 213.71 120.269C212.697 119.363 212.19 118.196 212.19 116.769C212.19 116.343 212.223 115.956 212.29 115.609C212.357 115.249 212.457 114.883 212.59 114.509C212.723 114.123 212.883 113.756 213.07 113.409C213.27 113.049 214.577 110.989 216.99 107.229H220.65ZM215.19 116.649C215.19 117.316 215.41 117.856 215.85 118.269C216.303 118.669 216.843 118.869 217.47 118.869C218.11 118.869 218.65 118.669 219.09 118.269C219.53 117.869 219.75 117.329 219.75 116.649C219.75 115.969 219.523 115.429 219.07 115.029C218.63 114.629 218.09 114.429 217.45 114.429C216.837 114.429 216.303 114.636 215.85 115.049C215.41 115.449 215.19 115.983 215.19 116.649ZM235.726 106.589L237.406 107.529L229.146 122.029L227.626 121.169L235.726 106.589ZM231.406 110.949C231.406 112.029 231.019 112.963 230.246 113.749C229.486 114.523 228.559 114.909 227.466 114.909C226.359 114.909 225.426 114.529 224.666 113.769C223.906 112.996 223.526 112.056 223.526 110.949C223.526 109.869 223.906 108.943 224.666 108.169C225.439 107.383 226.372 106.989 227.466 106.989C228.532 106.989 229.452 107.369 230.226 108.129C231.012 108.889 231.406 109.829 231.406 110.949ZM227.466 112.869C227.972 112.869 228.412 112.689 228.786 112.329C229.172 111.969 229.366 111.509 229.366 110.949C229.366 110.389 229.172 109.929 228.786 109.569C228.412 109.209 227.972 109.029 227.466 109.029C226.906 109.029 226.446 109.223 226.086 109.609C225.739 109.996 225.566 110.443 225.566 110.949C225.566 111.443 225.739 111.889 226.086 112.289C226.446 112.676 226.906 112.869 227.466 112.869ZM241.466 117.649C241.466 118.743 241.079 119.683 240.306 120.469C239.546 121.243 238.619 121.629 237.526 121.629C236.419 121.629 235.486 121.243 234.726 120.469C233.966 119.683 233.586 118.743 233.586 117.649C233.586 116.569 233.966 115.643 234.726 114.869C235.499 114.083 236.432 113.689 237.526 113.689C238.632 113.689 239.566 114.083 240.326 114.869C241.086 115.643 241.466 116.569 241.466 117.649ZM237.526 119.589C238.059 119.589 238.506 119.409 238.866 119.049C239.239 118.676 239.426 118.209 239.426 117.649C239.426 117.089 239.232 116.629 238.846 116.269C238.472 115.909 238.032 115.729 237.526 115.729C236.966 115.729 236.506 115.923 236.146 116.309C235.799 116.696 235.626 117.143 235.626 117.649C235.626 118.183 235.806 118.643 236.166 119.029C236.539 119.403 236.992 119.589 237.526 119.589Z" fill="#FC336D"/>
<path d="M132.824 327.991C133.477 327.991 134.103 328.117 134.7 328.369C135.307 328.611 135.797 328.971 136.17 329.447L134.49 330.819C134.033 330.277 133.407 330.007 132.614 330.007C131.793 330.007 131.107 330.31 130.556 330.917C130.015 331.514 129.744 332.275 129.744 333.199C129.744 334.085 130.005 334.841 130.528 335.467C131.051 336.083 131.723 336.391 132.544 336.391C133.421 336.391 134.103 336.036 134.588 335.327L136.408 336.685C136.053 337.207 135.559 337.627 134.924 337.945C134.299 338.253 133.599 338.407 132.824 338.407C131.247 338.407 129.959 337.926 128.96 336.965C127.971 336.003 127.476 334.748 127.476 333.199C127.476 331.668 127.971 330.417 128.96 329.447C129.949 328.476 131.237 327.991 132.824 327.991ZM139.426 327.571V332.275H139.454C139.585 331.948 139.823 331.687 140.168 331.491C140.523 331.285 140.919 331.183 141.358 331.183C142.273 331.183 142.921 331.439 143.304 331.953C143.687 332.466 143.878 333.259 143.878 334.333V338.155H141.778V334.697C141.778 334.062 141.685 333.628 141.498 333.395C141.311 333.152 141.041 333.031 140.686 333.031C140.266 333.031 139.949 333.161 139.734 333.423C139.529 333.684 139.426 334.109 139.426 334.697V338.155H137.326V327.571H139.426ZM148.459 331.183C149.542 331.183 150.33 331.444 150.825 331.967C151.32 332.489 151.567 333.367 151.567 334.599V338.155H149.635V337.301H149.607C149.168 337.982 148.45 338.323 147.451 338.323C146.742 338.323 146.158 338.131 145.701 337.749C145.253 337.357 145.029 336.848 145.029 336.223C145.029 335.681 145.183 335.233 145.491 334.879C145.799 334.515 146.261 334.249 146.877 334.081C147.502 333.913 148.422 333.829 149.635 333.829C149.635 333.465 149.5 333.171 149.229 332.947C148.958 332.723 148.646 332.611 148.291 332.611C147.638 332.611 147.068 332.881 146.583 333.423L145.463 332.275C145.855 331.892 146.317 331.617 146.849 331.449C147.39 331.271 147.927 331.183 148.459 331.183ZM147.045 336.153C147.045 336.377 147.138 336.559 147.325 336.699C147.521 336.829 147.764 336.895 148.053 336.895C148.52 336.895 148.898 336.778 149.187 336.545C149.486 336.302 149.635 335.989 149.635 335.607V335.173H149.005C148.37 335.173 147.885 335.261 147.549 335.439C147.213 335.607 147.045 335.845 147.045 336.153ZM156.987 331.183C157.276 331.183 157.505 331.206 157.673 331.253V333.171C157.355 333.077 157.057 333.031 156.777 333.031C156.142 333.031 155.685 333.189 155.405 333.507C155.125 333.815 154.985 334.389 154.985 335.229V338.155H152.885V331.351H154.985V332.443H155.013C155.237 332.023 155.503 331.71 155.811 331.505C156.119 331.29 156.511 331.183 156.987 331.183ZM161.68 331.183C162.762 331.183 163.551 331.444 164.046 331.967C164.54 332.489 164.788 333.367 164.788 334.599V338.155H162.856V337.301H162.828C162.389 337.982 161.67 338.323 160.672 338.323C159.962 338.323 159.379 338.131 158.922 337.749C158.474 337.357 158.25 336.848 158.25 336.223C158.25 335.681 158.404 335.233 158.712 334.879C159.02 334.515 159.482 334.249 160.098 334.081C160.723 333.913 161.642 333.829 162.856 333.829C162.856 333.465 162.72 333.171 162.45 332.947C162.179 332.723 161.866 332.611 161.512 332.611C160.858 332.611 160.289 332.881 159.804 333.423L158.684 332.275C159.076 331.892 159.538 331.617 160.07 331.449C160.611 331.271 161.148 331.183 161.68 331.183ZM160.266 336.153C160.266 336.377 160.359 336.559 160.546 336.699C160.742 336.829 160.984 336.895 161.274 336.895C161.74 336.895 162.118 336.778 162.408 336.545C162.706 336.302 162.856 335.989 162.856 335.607V335.173H162.226C161.591 335.173 161.106 335.261 160.77 335.439C160.434 335.607 160.266 335.845 160.266 336.153ZM169.675 331.183C170.105 331.183 170.539 331.257 170.977 331.407C171.425 331.547 171.799 331.775 172.097 332.093L170.711 333.549C170.45 333.203 170.105 333.031 169.675 333.031C169.153 333.031 168.742 333.189 168.443 333.507C168.145 333.824 167.995 334.239 167.995 334.753C167.995 335.285 168.149 335.705 168.457 336.013C168.765 336.321 169.171 336.475 169.675 336.475C170.086 336.475 170.431 336.302 170.711 335.957L172.097 337.413C171.509 338.019 170.702 338.323 169.675 338.323C168.574 338.323 167.669 337.987 166.959 337.315C166.25 336.643 165.895 335.789 165.895 334.753C165.895 333.707 166.25 332.853 166.959 332.191C167.669 331.519 168.574 331.183 169.675 331.183ZM175.645 329.335V331.351H177.493V333.031H175.645V335.425C175.645 335.845 175.72 336.139 175.869 336.307C176.028 336.475 176.285 336.559 176.639 336.559C177.078 336.559 177.363 336.493 177.493 336.363V338.113C177.092 338.253 176.602 338.323 176.023 338.323C175.202 338.323 174.581 338.145 174.161 337.791C173.751 337.427 173.545 336.937 173.545 336.321V333.031H172.201V331.351H173.545V329.335H175.645ZM178.35 334.753C178.35 333.707 178.705 332.853 179.414 332.191C180.124 331.519 181.048 331.183 182.186 331.183C183.138 331.183 183.899 331.514 184.468 332.177C185.038 332.83 185.322 333.712 185.322 334.823V335.411H180.45C180.534 335.803 180.712 336.12 180.982 336.363C181.253 336.605 181.603 336.727 182.032 336.727C182.611 336.727 183.11 336.451 183.53 335.901L185 336.979C184.664 337.408 184.23 337.739 183.698 337.973C183.176 338.206 182.653 338.323 182.13 338.323C181.048 338.323 180.147 337.991 179.428 337.329C178.71 336.657 178.35 335.798 178.35 334.753ZM183.222 333.983C183.222 333.591 183.096 333.278 182.844 333.045C182.592 332.811 182.284 332.695 181.92 332.695C181.528 332.695 181.192 332.811 180.912 333.045C180.642 333.278 180.488 333.591 180.45 333.983H183.222ZM190.701 331.183C190.991 331.183 191.219 331.206 191.387 331.253V333.171C191.07 333.077 190.771 333.031 190.491 333.031C189.857 333.031 189.399 333.189 189.119 333.507C188.839 333.815 188.699 334.389 188.699 335.229V338.155H186.599V331.351H188.699V332.443H188.727C188.951 332.023 189.217 331.71 189.525 331.505C189.833 331.29 190.225 331.183 190.701 331.183ZM200.545 331.183C200.835 331.183 201.063 331.206 201.231 331.253V333.171C200.914 333.077 200.615 333.031 200.335 333.031C199.701 333.031 199.243 333.189 198.963 333.507C198.683 333.815 198.543 334.389 198.543 335.229V338.155H196.443V331.351H198.543V332.443H198.571C198.795 332.023 199.061 331.71 199.369 331.505C199.677 331.29 200.069 331.183 200.545 331.183ZM201.688 334.753C201.688 333.707 202.043 332.853 202.752 332.191C203.462 331.519 204.386 331.183 205.524 331.183C206.476 331.183 207.237 331.514 207.806 332.177C208.376 332.83 208.66 333.712 208.66 334.823V335.411H203.788C203.872 335.803 204.05 336.12 204.32 336.363C204.591 336.605 204.941 336.727 205.37 336.727C205.949 336.727 206.448 336.451 206.868 335.901L208.338 336.979C208.002 337.408 207.568 337.739 207.036 337.973C206.514 338.206 205.991 338.323 205.468 338.323C204.386 338.323 203.485 337.991 202.766 337.329C202.048 336.657 201.688 335.798 201.688 334.753ZM206.56 333.983C206.56 333.591 206.434 333.278 206.182 333.045C205.93 332.811 205.622 332.695 205.258 332.695C204.866 332.695 204.53 332.811 204.25 333.045C203.98 333.278 203.826 333.591 203.788 333.983H206.56ZM213.031 331.183C214.114 331.183 214.903 331.444 215.397 331.967C215.892 332.489 216.139 333.367 216.139 334.599V338.155H214.207V337.301H214.179C213.741 337.982 213.022 338.323 212.023 338.323C211.314 338.323 210.731 338.131 210.273 337.749C209.825 337.357 209.601 336.848 209.601 336.223C209.601 335.681 209.755 335.233 210.063 334.879C210.371 334.515 210.833 334.249 211.449 334.081C212.075 333.913 212.994 333.829 214.207 333.829C214.207 333.465 214.072 333.171 213.801 332.947C213.531 332.723 213.218 332.611 212.863 332.611C212.21 332.611 211.641 332.881 211.155 333.423L210.035 332.275C210.427 331.892 210.889 331.617 211.421 331.449C211.963 331.271 212.499 331.183 213.031 331.183ZM211.617 336.153C211.617 336.377 211.711 336.559 211.897 336.699C212.093 336.829 212.336 336.895 212.625 336.895C213.092 336.895 213.47 336.778 213.759 336.545C214.058 336.302 214.207 335.989 214.207 335.607V335.173H213.577C212.943 335.173 212.457 335.261 212.121 335.439C211.785 335.607 211.617 335.845 211.617 336.153ZM221.027 331.183C221.456 331.183 221.89 331.257 222.329 331.407C222.777 331.547 223.15 331.775 223.449 332.093L222.063 333.549C221.802 333.203 221.456 333.031 221.027 333.031C220.504 333.031 220.094 333.189 219.795 333.507C219.496 333.824 219.347 334.239 219.347 334.753C219.347 335.285 219.501 335.705 219.809 336.013C220.117 336.321 220.523 336.475 221.027 336.475C221.438 336.475 221.783 336.302 222.063 335.957L223.449 337.413C222.861 338.019 222.054 338.323 221.027 338.323C219.926 338.323 219.02 337.987 218.311 337.315C217.602 336.643 217.247 335.789 217.247 334.753C217.247 333.707 217.602 332.853 218.311 332.191C219.02 331.519 219.926 331.183 221.027 331.183ZM226.997 329.335V331.351H228.845V333.031H226.997V335.425C226.997 335.845 227.071 336.139 227.221 336.307C227.379 336.475 227.636 336.559 227.991 336.559C228.429 336.559 228.714 336.493 228.845 336.363V338.113C228.443 338.253 227.953 338.323 227.375 338.323C226.553 338.323 225.933 338.145 225.513 337.791C225.102 337.427 224.897 336.937 224.897 336.321V333.031H223.553V331.351H224.897V329.335H226.997ZM230.99 327.991C231.317 327.991 231.601 328.107 231.844 328.341C232.087 328.574 232.208 328.863 232.208 329.209C232.208 329.554 232.087 329.843 231.844 330.077C231.601 330.31 231.317 330.427 230.99 330.427C230.645 330.427 230.355 330.305 230.122 330.063C229.889 329.82 229.772 329.535 229.772 329.209C229.772 328.863 229.893 328.574 230.136 328.341C230.379 328.107 230.663 327.991 230.99 327.991ZM232.04 331.351V338.155H229.94V331.351H232.04ZM237.077 331.183C238.178 331.183 239.083 331.519 239.793 332.191C240.502 332.863 240.857 333.717 240.857 334.753C240.857 335.807 240.493 336.666 239.765 337.329C239.046 337.991 238.15 338.323 237.077 338.323C235.985 338.323 235.079 337.991 234.361 337.329C233.651 336.666 233.297 335.807 233.297 334.753C233.297 333.707 233.651 332.853 234.361 332.191C235.07 331.519 235.975 331.183 237.077 331.183ZM235.397 334.753C235.397 335.266 235.546 335.681 235.845 335.999C236.143 336.316 236.554 336.475 237.077 336.475C237.59 336.475 237.996 336.321 238.295 336.013C238.603 335.705 238.757 335.285 238.757 334.753C238.757 334.221 238.603 333.801 238.295 333.493C237.996 333.185 237.585 333.031 237.063 333.031C236.549 333.031 236.143 333.194 235.845 333.521C235.546 333.838 235.397 334.249 235.397 334.753ZM246.126 331.183C246.984 331.183 247.619 331.425 248.03 331.911C248.44 332.387 248.646 333.185 248.646 334.305V338.155H246.546V334.655C246.546 334.048 246.452 333.628 246.266 333.395C246.088 333.152 245.818 333.031 245.454 333.031C245.034 333.031 244.716 333.161 244.502 333.423C244.296 333.684 244.194 334.109 244.194 334.697V338.155H242.094V331.351H244.11V332.275H244.138C244.324 331.929 244.59 331.663 244.936 331.477C245.29 331.281 245.687 331.183 246.126 331.183Z" fill="#1A1A1A"/>
<path d="M135.64 348.81V362.97H132.76V352.17L129.92 354.67L128.22 352.71L132.84 348.81H135.64ZM149.176 348.81V351.45H143.556L143.496 353.63C143.803 353.524 144.216 353.47 144.736 353.47C146.256 353.47 147.456 353.904 148.336 354.77C149.216 355.637 149.656 356.764 149.656 358.15C149.656 359.684 149.169 360.91 148.196 361.83C147.223 362.75 145.909 363.21 144.256 363.21C143.016 363.21 141.983 362.91 141.156 362.31C140.343 361.697 139.783 360.79 139.476 359.59L142.616 358.87C142.696 359.377 142.903 359.79 143.236 360.11C143.583 360.417 144.023 360.57 144.556 360.57C145.156 360.57 145.656 360.384 146.056 360.01C146.456 359.624 146.656 359.104 146.656 358.45C146.656 357.69 146.376 357.11 145.816 356.71C145.256 356.31 144.449 356.11 143.396 356.11C142.436 356.11 141.456 356.284 140.456 356.63L140.616 348.81H149.176ZM153.632 359.41C154.152 359.41 154.585 359.597 154.932 359.97C155.292 360.33 155.472 360.757 155.472 361.25C155.472 361.77 155.292 362.21 154.932 362.57C154.585 362.917 154.152 363.09 153.632 363.09C153.139 363.09 152.705 362.917 152.332 362.57C151.972 362.21 151.792 361.77 151.792 361.25C151.792 360.73 151.965 360.297 152.312 359.95C152.672 359.59 153.112 359.41 153.632 359.41ZM165.23 348.81V362.97H162.35V352.17L159.51 354.67L157.81 352.71L162.43 348.81H165.23ZM180.726 348.17L182.406 349.11L174.146 363.61L172.626 362.75L180.726 348.17ZM176.406 352.53C176.406 353.61 176.019 354.544 175.246 355.33C174.486 356.104 173.559 356.49 172.466 356.49C171.359 356.49 170.426 356.11 169.666 355.35C168.906 354.577 168.526 353.637 168.526 352.53C168.526 351.45 168.906 350.524 169.666 349.75C170.439 348.964 171.372 348.57 172.466 348.57C173.532 348.57 174.452 348.95 175.226 349.71C176.012 350.47 176.406 351.41 176.406 352.53ZM172.466 354.45C172.972 354.45 173.412 354.27 173.786 353.91C174.172 353.55 174.366 353.09 174.366 352.53C174.366 351.97 174.172 351.51 173.786 351.15C173.412 350.79 172.972 350.61 172.466 350.61C171.906 350.61 171.446 350.804 171.086 351.19C170.739 351.577 170.566 352.024 170.566 352.53C170.566 353.024 170.739 353.47 171.086 353.87C171.446 354.257 171.906 354.45 172.466 354.45ZM186.466 359.23C186.466 360.324 186.079 361.264 185.306 362.05C184.546 362.824 183.619 363.21 182.526 363.21C181.419 363.21 180.486 362.824 179.726 362.05C178.966 361.264 178.586 360.324 178.586 359.23C178.586 358.15 178.966 357.224 179.726 356.45C180.499 355.664 181.432 355.27 182.526 355.27C183.632 355.27 184.566 355.664 185.326 356.45C186.086 357.224 186.466 358.15 186.466 359.23ZM182.526 361.17C183.059 361.17 183.506 360.99 183.866 360.63C184.239 360.257 184.426 359.79 184.426 359.23C184.426 358.67 184.232 358.21 183.846 357.85C183.472 357.49 183.032 357.31 182.526 357.31C181.966 357.31 181.506 357.504 181.146 357.89C180.799 358.277 180.626 358.724 180.626 359.23C180.626 359.764 180.806 360.224 181.166 360.61C181.539 360.984 181.992 361.17 182.526 361.17Z" fill="#FF5D3C"/>
<path d="M385.124 414.898C385.777 414.898 386.402 415.024 387 415.276C387.606 415.519 388.096 415.878 388.47 416.354L386.79 417.726C386.332 417.185 385.707 416.914 384.914 416.914C384.092 416.914 383.406 417.218 382.856 417.824C382.314 418.422 382.044 419.182 382.044 420.106C382.044 420.993 382.305 421.749 382.828 422.374C383.35 422.99 384.022 423.298 384.844 423.298C385.721 423.298 386.402 422.944 386.888 422.234L388.708 423.592C388.353 424.115 387.858 424.535 387.224 424.852C386.598 425.161 385.898 425.315 385.124 425.315C383.546 425.315 382.258 424.834 381.26 423.872C380.27 422.911 379.776 421.656 379.776 420.106C379.776 418.576 380.27 417.325 381.26 416.354C382.249 415.384 383.537 414.898 385.124 414.898ZM391.726 418.258V421.632C391.726 422.136 391.758 422.491 391.824 422.696C391.898 422.902 392.015 423.07 392.174 423.2C392.332 423.322 392.547 423.382 392.818 423.382C393.266 423.382 393.588 423.247 393.784 422.976C393.98 422.696 394.078 422.272 394.078 421.702V418.258H396.178V425.062H394.162V424.139H394.134C393.947 424.484 393.676 424.754 393.322 424.95C392.976 425.137 392.58 425.231 392.132 425.231C391.236 425.231 390.592 424.983 390.2 424.488C389.817 423.984 389.626 423.186 389.626 422.094V418.258H391.726ZM401.767 418.09C402.056 418.09 402.285 418.114 402.453 418.16V420.078C402.136 419.985 401.837 419.938 401.557 419.938C400.922 419.938 400.465 420.097 400.185 420.414C399.905 420.722 399.765 421.296 399.765 422.136V425.062H397.665V418.258H399.765V419.35H399.793C400.017 418.93 400.283 418.618 400.591 418.412C400.899 418.198 401.291 418.09 401.767 418.09ZM407.468 418.09C407.757 418.09 407.986 418.114 408.154 418.16V420.078C407.837 419.985 407.538 419.938 407.258 419.938C406.623 419.938 406.166 420.097 405.886 420.414C405.606 420.722 405.466 421.296 405.466 422.136V425.062H403.366V418.258H405.466V419.35H405.494C405.718 418.93 405.984 418.618 406.292 418.412C406.6 418.198 406.992 418.09 407.468 418.09ZM408.611 421.66C408.611 420.615 408.966 419.761 409.675 419.098C410.384 418.426 411.308 418.09 412.447 418.09C413.399 418.09 414.16 418.422 414.729 419.084C415.298 419.738 415.583 420.62 415.583 421.73V422.318H410.711C410.795 422.71 410.972 423.028 411.243 423.27C411.514 423.513 411.864 423.634 412.293 423.634C412.872 423.634 413.371 423.359 413.791 422.808L415.261 423.886C414.925 424.316 414.491 424.647 413.959 424.88C413.436 425.114 412.914 425.231 412.391 425.231C411.308 425.231 410.408 424.899 409.689 424.236C408.97 423.564 408.611 422.706 408.611 421.66ZM413.483 420.89C413.483 420.498 413.357 420.186 413.105 419.952C412.853 419.719 412.545 419.602 412.181 419.602C411.789 419.602 411.453 419.719 411.173 419.952C410.902 420.186 410.748 420.498 410.711 420.89H413.483ZM420.892 418.09C421.751 418.09 422.385 418.333 422.796 418.818C423.207 419.294 423.412 420.092 423.412 421.212V425.062H421.312V421.562C421.312 420.956 421.219 420.536 421.032 420.302C420.855 420.06 420.584 419.938 420.22 419.938C419.8 419.938 419.483 420.069 419.268 420.33C419.063 420.592 418.96 421.016 418.96 421.604V425.062H416.86V418.258H418.876V419.182H418.904C419.091 418.837 419.357 418.571 419.702 418.384C420.057 418.188 420.453 418.09 420.892 418.09ZM428.469 418.09C428.899 418.09 429.333 418.165 429.771 418.314C430.219 418.454 430.593 418.683 430.891 419L429.505 420.456C429.244 420.111 428.899 419.938 428.469 419.938C427.947 419.938 427.536 420.097 427.237 420.414C426.939 420.732 426.789 421.147 426.789 421.66C426.789 422.192 426.943 422.612 427.251 422.92C427.559 423.228 427.965 423.382 428.469 423.382C428.88 423.382 429.225 423.21 429.505 422.864L430.891 424.32C430.303 424.927 429.496 425.231 428.469 425.231C427.368 425.231 426.463 424.894 425.753 424.222C425.044 423.55 424.689 422.696 424.689 421.66C424.689 420.615 425.044 419.761 425.753 419.098C426.463 418.426 427.368 418.09 428.469 418.09ZM433.221 418.258L434.971 422.752H434.999L436.497 418.258H438.653L435.601 426.099C435.274 426.948 435.004 427.489 434.789 427.723C434.574 427.965 434.299 428.143 433.963 428.255C433.636 428.367 433.212 428.423 432.689 428.423C432.148 428.423 431.625 428.339 431.121 428.171L431.401 426.449C431.718 426.589 432.045 426.659 432.381 426.659C432.661 426.659 432.88 426.621 433.039 426.547C433.207 426.472 433.342 426.365 433.445 426.225C433.548 426.085 433.632 425.921 433.697 425.735C433.772 425.548 433.851 425.343 433.935 425.119L430.953 418.258H433.221Z" fill="#1A1A1A"/>
<path d="M387.64 435.515V449.675H384.76V438.875L381.92 441.375L380.22 439.415L384.84 435.515H387.64ZM396.996 435.275C398.383 435.275 399.489 435.661 400.316 436.435C401.156 437.195 401.576 438.228 401.576 439.535C401.576 440.361 401.429 441.055 401.136 441.615C400.856 442.161 400.283 442.821 399.416 443.595L395.416 447.035H401.696V449.675H391.816V446.495L397.316 441.555C397.809 441.101 398.143 440.735 398.316 440.455C398.489 440.175 398.576 439.881 398.576 439.575C398.576 439.108 398.403 438.735 398.056 438.455C397.709 438.175 397.303 438.035 396.836 438.035C396.329 438.035 395.909 438.195 395.576 438.515C395.243 438.835 395.049 439.275 394.996 439.835L391.996 439.615C392.089 438.201 392.576 437.128 393.456 436.395C394.349 435.648 395.529 435.275 396.996 435.275ZM405.632 446.115C406.152 446.115 406.585 446.301 406.932 446.675C407.292 447.035 407.472 447.461 407.472 447.955C407.472 448.475 407.292 448.915 406.932 449.275C406.585 449.621 406.152 449.795 405.632 449.795C405.139 449.795 404.705 449.621 404.332 449.275C403.972 448.915 403.792 448.475 403.792 447.955C403.792 447.435 403.965 447.001 404.312 446.655C404.672 446.295 405.112 446.115 405.632 446.115ZM417.65 435.515L414.33 440.575C414.703 440.481 415.03 440.435 415.31 440.435C416.617 440.435 417.683 440.875 418.51 441.755C419.337 442.635 419.75 443.735 419.75 445.055C419.75 446.481 419.243 447.648 418.23 448.555C417.23 449.461 415.977 449.915 414.47 449.915C412.977 449.915 411.723 449.461 410.71 448.555C409.697 447.648 409.19 446.481 409.19 445.055C409.19 444.628 409.223 444.241 409.29 443.895C409.357 443.535 409.457 443.168 409.59 442.795C409.723 442.408 409.883 442.041 410.07 441.695C410.27 441.335 411.577 439.275 413.99 435.515H417.65ZM412.19 444.935C412.19 445.601 412.41 446.141 412.85 446.555C413.303 446.955 413.843 447.155 414.47 447.155C415.11 447.155 415.65 446.955 416.09 446.555C416.53 446.155 416.75 445.615 416.75 444.935C416.75 444.255 416.523 443.715 416.07 443.315C415.63 442.915 415.09 442.715 414.45 442.715C413.837 442.715 413.303 442.921 412.85 443.335C412.41 443.735 412.19 444.268 412.19 444.935ZM432.726 434.875L434.406 435.815L426.146 450.315L424.626 449.455L432.726 434.875ZM428.406 439.235C428.406 440.315 428.019 441.248 427.246 442.035C426.486 442.808 425.559 443.195 424.466 443.195C423.359 443.195 422.426 442.815 421.666 442.055C420.906 441.281 420.526 440.341 420.526 439.235C420.526 438.155 420.906 437.228 421.666 436.455C422.439 435.668 423.372 435.275 424.466 435.275C425.532 435.275 426.452 435.655 427.226 436.415C428.012 437.175 428.406 438.115 428.406 439.235ZM424.466 441.155C424.972 441.155 425.412 440.975 425.786 440.615C426.172 440.255 426.366 439.795 426.366 439.235C426.366 438.675 426.172 438.215 425.786 437.855C425.412 437.495 424.972 437.315 424.466 437.315C423.906 437.315 423.446 437.508 423.086 437.895C422.739 438.281 422.566 438.728 422.566 439.235C422.566 439.728 422.739 440.175 423.086 440.575C423.446 440.961 423.906 441.155 424.466 441.155ZM438.466 445.935C438.466 447.028 438.079 447.968 437.306 448.755C436.546 449.528 435.619 449.915 434.526 449.915C433.419 449.915 432.486 449.528 431.726 448.755C430.966 447.968 430.586 447.028 430.586 445.935C430.586 444.855 430.966 443.928 431.726 443.155C432.499 442.368 433.432 441.975 434.526 441.975C435.632 441.975 436.566 442.368 437.326 443.155C438.086 443.928 438.466 444.855 438.466 445.935ZM434.526 447.875C435.059 447.875 435.506 447.695 435.866 447.335C436.239 446.961 436.426 446.495 436.426 445.935C436.426 445.375 436.232 444.915 435.846 444.555C435.472 444.195 435.032 444.015 434.526 444.015C433.966 444.015 433.506 444.208 433.146 444.595C432.799 444.981 432.626 445.428 432.626 445.935C432.626 446.468 432.806 446.928 433.166 447.315C433.539 447.688 433.992 447.875 434.526 447.875Z" fill="#12B2A6"/>
<path d="M626.788 128.454C629.149 128.454 630.33 129.294 630.33 130.974C630.33 131.534 630.171 132.001 629.854 132.374C629.546 132.738 629.135 133 628.622 133.158V133.186C629.275 133.27 629.798 133.532 630.19 133.97C630.591 134.409 630.792 134.955 630.792 135.608C630.792 136.467 630.456 137.144 629.784 137.638C629.112 138.124 628.211 138.366 627.082 138.366H623.008V128.454H626.788ZM626.816 132.416C627.208 132.416 627.525 132.323 627.768 132.136C628.02 131.94 628.146 131.674 628.146 131.338C628.146 131.002 628.015 130.746 627.754 130.568C627.502 130.391 627.157 130.302 626.718 130.302H625.192V132.416H626.816ZM627.194 136.518C627.595 136.518 627.931 136.42 628.202 136.224C628.473 136.019 628.608 135.73 628.608 135.356C628.608 135.011 628.463 134.745 628.174 134.558C627.885 134.362 627.46 134.264 626.9 134.264H625.192V136.518H627.194ZM635.922 131.394C636.211 131.394 636.44 131.418 636.608 131.464V133.382C636.291 133.289 635.992 133.242 635.712 133.242C635.077 133.242 634.62 133.401 634.34 133.718C634.06 134.026 633.92 134.6 633.92 135.44V138.366H631.82V131.562H633.92V132.654H633.948C634.172 132.234 634.438 131.922 634.746 131.716C635.054 131.502 635.446 131.394 635.922 131.394ZM640.615 131.394C641.698 131.394 642.487 131.656 642.981 132.178C643.476 132.701 643.723 133.578 643.723 134.81V138.366H641.791V137.512H641.763C641.325 138.194 640.606 138.534 639.607 138.534C638.898 138.534 638.315 138.343 637.857 137.96C637.409 137.568 637.185 137.06 637.185 136.434C637.185 135.893 637.339 135.445 637.647 135.09C637.955 134.726 638.417 134.46 639.033 134.292C639.659 134.124 640.578 134.04 641.791 134.04C641.791 133.676 641.656 133.382 641.385 133.158C641.115 132.934 640.802 132.822 640.447 132.822C639.794 132.822 639.225 133.093 638.739 133.634L637.619 132.486C638.011 132.104 638.473 131.828 639.005 131.66C639.547 131.483 640.083 131.394 640.615 131.394ZM639.201 136.364C639.201 136.588 639.295 136.77 639.481 136.91C639.677 137.041 639.92 137.106 640.209 137.106C640.676 137.106 641.054 136.99 641.343 136.756C641.642 136.514 641.791 136.201 641.791 135.818V135.384H641.161C640.527 135.384 640.041 135.473 639.705 135.65C639.369 135.818 639.201 136.056 639.201 136.364ZM646.119 128.202C646.445 128.202 646.73 128.319 646.973 128.552C647.215 128.786 647.337 129.075 647.337 129.42C647.337 129.766 647.215 130.055 646.973 130.288C646.73 130.522 646.445 130.638 646.119 130.638C645.773 130.638 645.484 130.517 645.251 130.274C645.017 130.032 644.901 129.747 644.901 129.42C644.901 129.075 645.022 128.786 645.265 128.552C645.507 128.319 645.792 128.202 646.119 128.202ZM647.169 131.562V138.366H645.069V131.562H647.169ZM652.71 131.394C653.568 131.394 654.203 131.637 654.614 132.122C655.024 132.598 655.23 133.396 655.23 134.516V138.366H653.13V134.866C653.13 134.26 653.036 133.84 652.85 133.606C652.672 133.364 652.402 133.242 652.038 133.242C651.618 133.242 651.3 133.373 651.086 133.634C650.88 133.896 650.778 134.32 650.778 134.908V138.366H648.678V131.562H650.694V132.486H650.722C650.908 132.141 651.174 131.875 651.52 131.688C651.874 131.492 652.271 131.394 652.71 131.394ZM663.953 131.394C665.036 131.394 665.825 131.656 666.319 132.178C666.814 132.701 667.061 133.578 667.061 134.81V138.366H665.129V137.512H665.101C664.663 138.194 663.944 138.534 662.945 138.534C662.236 138.534 661.653 138.343 661.195 137.96C660.747 137.568 660.523 137.06 660.523 136.434C660.523 135.893 660.677 135.445 660.985 135.09C661.293 134.726 661.755 134.46 662.371 134.292C662.997 134.124 663.916 134.04 665.129 134.04C665.129 133.676 664.994 133.382 664.723 133.158C664.453 132.934 664.14 132.822 663.785 132.822C663.132 132.822 662.563 133.093 662.077 133.634L660.957 132.486C661.349 132.104 661.811 131.828 662.343 131.66C662.885 131.483 663.421 131.394 663.953 131.394ZM662.539 136.364C662.539 136.588 662.633 136.77 662.819 136.91C663.015 137.041 663.258 137.106 663.547 137.106C664.014 137.106 664.392 136.99 664.681 136.756C664.98 136.514 665.129 136.201 665.129 135.818V135.384H664.499C663.865 135.384 663.379 135.473 663.043 135.65C662.707 135.818 662.539 136.056 662.539 136.364ZM671.235 131.394C672.28 131.394 673.055 131.749 673.559 132.458H673.587V131.562H675.519V137.862C675.519 139.141 675.183 140.102 674.511 140.746C673.839 141.4 672.863 141.726 671.585 141.726C670.157 141.726 669.018 141.395 668.169 140.732L669.331 138.996C670.04 139.584 670.777 139.878 671.543 139.878C672.131 139.878 672.588 139.729 672.915 139.43C673.251 139.141 673.419 138.744 673.419 138.24V137.554H673.391C673.176 137.853 672.891 138.077 672.537 138.226C672.182 138.376 671.823 138.45 671.459 138.45C670.46 138.45 669.653 138.124 669.037 137.47C668.43 136.808 668.127 135.963 668.127 134.936C668.127 133.966 668.416 133.135 668.995 132.444C669.583 131.744 670.329 131.394 671.235 131.394ZM670.227 134.922C670.227 135.398 670.395 135.8 670.731 136.126C671.067 136.444 671.459 136.602 671.907 136.602C672.364 136.602 672.756 136.434 673.083 136.098C673.419 135.753 673.587 135.361 673.587 134.922C673.587 134.465 673.423 134.073 673.097 133.746C672.77 133.41 672.369 133.242 671.893 133.242C671.445 133.242 671.053 133.41 670.717 133.746C670.39 134.082 670.227 134.474 670.227 134.922ZM676.987 134.964C676.987 133.919 677.342 133.065 678.051 132.402C678.76 131.73 679.684 131.394 680.823 131.394C681.775 131.394 682.536 131.726 683.105 132.388C683.674 133.042 683.959 133.924 683.959 135.034V135.622H679.087C679.171 136.014 679.348 136.332 679.619 136.574C679.89 136.817 680.24 136.938 680.669 136.938C681.248 136.938 681.747 136.663 682.167 136.112L683.637 137.19C683.301 137.62 682.867 137.951 682.335 138.184C681.812 138.418 681.29 138.534 680.767 138.534C679.684 138.534 678.784 138.203 678.065 137.54C677.346 136.868 676.987 136.01 676.987 134.964ZM681.859 134.194C681.859 133.802 681.733 133.49 681.481 133.256C681.229 133.023 680.921 132.906 680.557 132.906C680.165 132.906 679.829 133.023 679.549 133.256C679.278 133.49 679.124 133.802 679.087 134.194H681.859Z" fill="#1A1A1A"/>
<path d="M627.846 148.945C629.286 148.945 630.439 149.298 631.306 150.005C632.186 150.698 632.626 151.658 632.626 152.885C632.626 153.698 632.413 154.378 631.986 154.925C631.559 155.472 630.966 155.825 630.206 155.985V156.045C631.019 156.152 631.666 156.518 632.146 157.145C632.626 157.758 632.866 158.492 632.866 159.345C632.866 160.638 632.399 161.672 631.466 162.445C630.546 163.205 629.313 163.585 627.766 163.585C626.393 163.585 625.266 163.272 624.386 162.645C623.519 162.005 622.953 161.098 622.686 159.925L625.846 159.185C626.073 160.278 626.773 160.825 627.946 160.825C628.559 160.825 629.033 160.665 629.366 160.345C629.699 160.025 629.866 159.578 629.866 159.005C629.866 158.458 629.679 158.052 629.306 157.785C628.933 157.505 628.213 157.365 627.146 157.365H626.366V154.765H627.286C628.073 154.765 628.659 154.645 629.046 154.405C629.433 154.152 629.626 153.745 629.626 153.185C629.626 152.732 629.453 152.372 629.106 152.105C628.759 151.838 628.346 151.705 627.866 151.705C627.439 151.705 627.066 151.818 626.746 152.045C626.426 152.272 626.213 152.598 626.106 153.025L622.806 152.345C623.406 150.078 625.086 148.945 627.846 148.945ZM639.802 148.945C641.282 148.945 642.442 149.305 643.282 150.025C644.122 150.745 644.542 151.685 644.542 152.845C644.542 153.605 644.335 154.265 643.922 154.825C643.509 155.372 642.915 155.758 642.142 155.985V156.025C643.902 156.518 644.782 157.665 644.782 159.465C644.782 160.692 644.322 161.685 643.402 162.445C642.495 163.205 641.295 163.585 639.802 163.585C638.322 163.585 637.122 163.218 636.202 162.485C635.282 161.738 634.822 160.732 634.822 159.465C634.822 158.572 635.049 157.832 635.502 157.245C635.955 156.658 636.609 156.252 637.462 156.025V155.985C636.702 155.758 636.109 155.372 635.682 154.825C635.269 154.278 635.062 153.618 635.062 152.845C635.062 151.672 635.482 150.732 636.322 150.025C637.175 149.305 638.335 148.945 639.802 148.945ZM638.062 153.265C638.062 153.705 638.222 154.078 638.542 154.385C638.875 154.692 639.295 154.845 639.802 154.845C640.322 154.845 640.742 154.692 641.062 154.385C641.382 154.078 641.542 153.705 641.542 153.265C641.542 152.812 641.375 152.438 641.042 152.145C640.722 151.852 640.302 151.705 639.782 151.705C639.235 151.705 638.809 151.865 638.502 152.185C638.209 152.492 638.062 152.852 638.062 153.265ZM637.822 159.045C637.822 159.565 638.009 159.992 638.382 160.325C638.769 160.658 639.242 160.825 639.802 160.825C640.362 160.825 640.829 160.665 641.202 160.345C641.589 160.025 641.782 159.592 641.782 159.045C641.782 158.525 641.589 158.098 641.202 157.765C640.829 157.418 640.355 157.245 639.782 157.245C639.222 157.245 638.755 157.412 638.382 157.745C638.009 158.078 637.822 158.512 637.822 159.045ZM648.678 159.785C649.198 159.785 649.631 159.972 649.978 160.345C650.338 160.705 650.518 161.132 650.518 161.625C650.518 162.145 650.338 162.585 649.978 162.945C649.631 163.292 649.198 163.465 648.678 163.465C648.184 163.465 647.751 163.292 647.378 162.945C647.018 162.585 646.838 162.145 646.838 161.625C646.838 161.105 647.011 160.672 647.358 160.325C647.718 159.965 648.158 159.785 648.678 159.785ZM660.276 149.185V163.345H657.396V152.545L654.556 155.045L652.856 153.085L657.476 149.185H660.276ZM675.772 148.545L677.452 149.485L669.192 163.985L667.672 163.125L675.772 148.545ZM671.452 152.905C671.452 153.985 671.065 154.918 670.292 155.705C669.532 156.478 668.605 156.865 667.512 156.865C666.405 156.865 665.472 156.485 664.712 155.725C663.952 154.952 663.572 154.012 663.572 152.905C663.572 151.825 663.952 150.898 664.712 150.125C665.485 149.338 666.418 148.945 667.512 148.945C668.578 148.945 669.498 149.325 670.272 150.085C671.058 150.845 671.452 151.785 671.452 152.905ZM667.512 154.825C668.018 154.825 668.458 154.645 668.832 154.285C669.218 153.925 669.412 153.465 669.412 152.905C669.412 152.345 669.218 151.885 668.832 151.525C668.458 151.165 668.018 150.985 667.512 150.985C666.952 150.985 666.492 151.178 666.132 151.565C665.785 151.952 665.612 152.398 665.612 152.905C665.612 153.398 665.785 153.845 666.132 154.245C666.492 154.632 666.952 154.825 667.512 154.825ZM681.512 159.605C681.512 160.698 681.125 161.638 680.352 162.425C679.592 163.198 678.665 163.585 677.572 163.585C676.465 163.585 675.532 163.198 674.772 162.425C674.012 161.638 673.632 160.698 673.632 159.605C673.632 158.525 674.012 157.598 674.772 156.825C675.545 156.038 676.478 155.645 677.572 155.645C678.678 155.645 679.612 156.038 680.372 156.825C681.132 157.598 681.512 158.525 681.512 159.605ZM677.572 161.545C678.105 161.545 678.552 161.365 678.912 161.005C679.285 160.632 679.472 160.165 679.472 159.605C679.472 159.045 679.278 158.585 678.892 158.225C678.518 157.865 678.078 157.685 677.572 157.685C677.012 157.685 676.552 157.878 676.192 158.265C675.845 158.652 675.672 159.098 675.672 159.605C675.672 160.138 675.852 160.598 676.212 160.985C676.585 161.358 677.038 161.545 677.572 161.545Z" fill="#FF9F20"/>
<path d="M535.826 390.177V392.193H531.276V394.041H535.574V396.057H531.276V398.073H536.078V400.089H529.092V390.177H535.826ZM541.592 393.117C542.628 393.117 543.328 393.523 543.692 394.335C543.935 393.896 544.229 393.584 544.574 393.397C544.92 393.21 545.344 393.117 545.848 393.117C547.454 393.117 548.256 394.078 548.256 396.001V400.089H546.156V396.099C546.156 395.343 545.848 394.965 545.232 394.965C544.383 394.965 543.958 395.46 543.958 396.449V400.089H541.858V396.365C541.858 395.842 541.774 395.478 541.606 395.273C541.448 395.068 541.219 394.965 540.92 394.965C540.5 394.965 540.183 395.096 539.968 395.357C539.763 395.609 539.66 396.034 539.66 396.631V400.089H537.56V393.285H539.576V394.209H539.604C539.791 393.864 540.062 393.598 540.416 393.411C540.771 393.215 541.163 393.117 541.592 393.117ZM553.27 393.117C554.371 393.117 555.277 393.453 555.986 394.125C556.695 394.797 557.05 395.651 557.05 396.687C557.05 397.742 556.686 398.6 555.958 399.263C555.239 399.926 554.343 400.257 553.27 400.257C552.178 400.257 551.273 399.926 550.554 399.263C549.845 398.6 549.49 397.742 549.49 396.687C549.49 395.642 549.845 394.788 550.554 394.125C551.263 393.453 552.169 393.117 553.27 393.117ZM551.59 396.687C551.59 397.2 551.739 397.616 552.038 397.933C552.337 398.25 552.747 398.409 553.27 398.409C553.783 398.409 554.189 398.255 554.488 397.947C554.796 397.639 554.95 397.219 554.95 396.687C554.95 396.155 554.796 395.735 554.488 395.427C554.189 395.119 553.779 394.965 553.256 394.965C552.743 394.965 552.337 395.128 552.038 395.455C551.739 395.772 551.59 396.183 551.59 396.687ZM559.365 389.925C559.692 389.925 559.976 390.042 560.219 390.275C560.462 390.508 560.583 390.798 560.583 391.143C560.583 391.488 560.462 391.778 560.219 392.011C559.976 392.244 559.692 392.361 559.365 392.361C559.02 392.361 558.73 392.24 558.497 391.997C558.264 391.754 558.147 391.47 558.147 391.143C558.147 390.798 558.268 390.508 558.511 390.275C558.754 390.042 559.038 389.925 559.365 389.925ZM560.415 393.285V400.663C560.415 401.606 560.21 402.306 559.799 402.763C559.398 403.22 558.763 403.449 557.895 403.449C557.494 403.449 557.167 403.412 556.915 403.337L557.027 401.475C557.204 401.559 557.386 401.601 557.573 401.601C557.825 401.601 558.012 401.498 558.133 401.293C558.254 401.097 558.315 400.761 558.315 400.285V393.285H560.415ZM563.002 389.925C563.328 389.925 563.613 390.042 563.856 390.275C564.098 390.508 564.22 390.798 564.22 391.143C564.22 391.488 564.098 391.778 563.856 392.011C563.613 392.244 563.328 392.361 563.002 392.361C562.656 392.361 562.367 392.24 562.134 391.997C561.9 391.754 561.784 391.47 561.784 391.143C561.784 390.798 561.905 390.508 562.148 390.275C562.39 390.042 562.675 389.925 563.002 389.925ZM564.052 393.285V400.089H561.952V393.285H564.052ZM568.178 393.117C569.298 393.117 570.138 393.416 570.698 394.013L569.41 395.287C569.093 394.904 568.692 394.713 568.206 394.713C567.973 394.713 567.782 394.764 567.632 394.867C567.492 394.97 567.422 395.105 567.422 395.273C567.422 395.441 567.516 395.572 567.702 395.665C567.898 395.749 568.225 395.838 568.682 395.931C569.522 396.09 570.11 396.342 570.446 396.687C570.792 397.023 570.964 397.466 570.964 398.017C570.964 398.717 570.689 399.268 570.138 399.669C569.588 400.061 568.818 400.257 567.828 400.257C566.662 400.257 565.77 399.949 565.154 399.333L566.428 397.919C566.848 398.414 567.343 398.661 567.912 398.661C568.547 398.661 568.864 398.498 568.864 398.171C568.864 397.984 568.766 397.844 568.57 397.751C568.374 397.658 568.113 397.578 567.786 397.513C567.096 397.382 566.596 397.238 566.288 397.079C565.99 396.911 565.752 396.696 565.574 396.435C565.406 396.164 565.322 395.824 565.322 395.413C565.322 394.722 565.584 394.167 566.106 393.747C566.629 393.327 567.32 393.117 568.178 393.117Z" fill="#1A1A1A"/>
<path d="M537.06 410.745L533.74 415.805C534.113 415.711 534.44 415.665 534.72 415.665C536.027 415.665 537.093 416.105 537.92 416.985C538.747 417.865 539.16 418.965 539.16 420.285C539.16 421.711 538.653 422.878 537.64 423.785C536.64 424.691 535.387 425.145 533.88 425.145C532.387 425.145 531.133 424.691 530.12 423.785C529.107 422.878 528.6 421.711 528.6 420.285C528.6 419.858 528.633 419.471 528.7 419.125C528.767 418.765 528.867 418.398 529 418.025C529.133 417.638 529.293 417.271 529.48 416.925C529.68 416.565 530.987 414.505 533.4 410.745H537.06ZM531.6 420.165C531.6 420.831 531.82 421.371 532.26 421.785C532.713 422.185 533.253 422.385 533.88 422.385C534.52 422.385 535.06 422.185 535.5 421.785C535.94 421.385 536.16 420.845 536.16 420.165C536.16 419.485 535.933 418.945 535.48 418.545C535.04 418.145 534.5 417.945 533.86 417.945C533.247 417.945 532.713 418.151 532.26 418.565C531.82 418.965 531.6 419.498 531.6 420.165ZM542.796 421.345C543.316 421.345 543.749 421.531 544.096 421.905C544.456 422.265 544.636 422.691 544.636 423.185C544.636 423.705 544.456 424.145 544.096 424.505C543.749 424.851 543.316 425.025 542.796 425.025C542.303 425.025 541.869 424.851 541.496 424.505C541.136 424.145 540.956 423.705 540.956 423.185C540.956 422.665 541.129 422.231 541.476 421.885C541.836 421.525 542.276 421.345 542.796 421.345ZM556.854 410.745V413.385L551.194 424.905H547.694L553.494 413.505H546.494V410.745H556.854ZM569.89 410.105L571.57 411.045L563.31 425.545L561.79 424.685L569.89 410.105ZM565.57 414.465C565.57 415.545 565.183 416.478 564.41 417.265C563.65 418.038 562.723 418.425 561.63 418.425C560.523 418.425 559.59 418.045 558.83 417.285C558.07 416.511 557.69 415.571 557.69 414.465C557.69 413.385 558.07 412.458 558.83 411.685C559.603 410.898 560.537 410.505 561.63 410.505C562.697 410.505 563.617 410.885 564.39 411.645C565.177 412.405 565.57 413.345 565.57 414.465ZM561.63 416.385C562.137 416.385 562.577 416.205 562.95 415.845C563.337 415.485 563.53 415.025 563.53 414.465C563.53 413.905 563.337 413.445 562.95 413.085C562.577 412.725 562.137 412.545 561.63 412.545C561.07 412.545 560.61 412.738 560.25 413.125C559.903 413.511 559.73 413.958 559.73 414.465C559.73 414.958 559.903 415.405 560.25 415.805C560.61 416.191 561.07 416.385 561.63 416.385ZM575.63 421.165C575.63 422.258 575.243 423.198 574.47 423.985C573.71 424.758 572.783 425.145 571.69 425.145C570.583 425.145 569.65 424.758 568.89 423.985C568.13 423.198 567.75 422.258 567.75 421.165C567.75 420.085 568.13 419.158 568.89 418.385C569.663 417.598 570.597 417.205 571.69 417.205C572.797 417.205 573.73 417.598 574.49 418.385C575.25 419.158 575.63 420.085 575.63 421.165ZM571.69 423.105C572.223 423.105 572.67 422.925 573.03 422.565C573.403 422.191 573.59 421.725 573.59 421.165C573.59 420.605 573.397 420.145 573.01 419.785C572.637 419.425 572.197 419.245 571.69 419.245C571.13 419.245 570.67 419.438 570.31 419.825C569.963 420.211 569.79 420.658 569.79 421.165C569.79 421.698 569.97 422.158 570.33 422.545C570.703 422.918 571.157 423.105 571.69 423.105Z" fill="#00B9E3"/>
<g style="mix-blend-mode:multiply" opacity="0.5" clip-path="url(#clip0_3651_5989)">
<path d="M82.3014 433.851L81.2849 430.923H75.6732C75.5186 431.375 75.3547 431.868 75.186 432.398L74.7223 433.851H72.0007L77.0269 420.279H79.9452L84.8403 433.851H82.2967H82.3014ZM78.4697 423.226C78.1324 424.148 77.8045 425.039 77.4954 425.907C77.1862 426.775 76.8443 427.693 76.4789 428.671H80.4792L78.4697 423.226V423.226Z" fill="#666666"/>
<path d="M93.0097 420.321H87.8898V433.878H90.2553V429.26H93.0097C95.8155 429.26 97.1787 428.109 97.1787 425.738V423.82C97.1787 421.463 95.8155 420.321 93.0097 420.321V420.321ZM90.2553 422.454H92.9535C94.5555 422.454 94.8131 422.865 94.8131 423.843V425.743C94.8131 426.702 94.5461 427.131 92.9535 427.131H90.2553V422.454Z" fill="#666666"/>
<path d="M105.034 420.321H99.9143V433.878H102.28V429.26H105.034C107.84 429.26 109.203 428.109 109.203 425.738V423.82C109.203 421.463 107.84 420.321 105.034 420.321V420.321ZM102.28 422.454H104.978C106.58 422.454 106.838 422.865 106.838 423.843V425.743C106.838 426.702 106.571 427.131 104.978 427.131H102.28V422.454Z" fill="#666666"/>
<path d="M116.197 432.526H122.619V433.883H114.796V420.339H116.197V432.526V432.526Z" fill="#666666"/>
<path d="M134.924 429.941C134.924 432.197 133.486 434.052 129.898 434.052C126.31 434.052 124.872 432.202 124.872 429.941V424.203C124.872 421.947 126.31 420.092 129.898 420.092C133.486 420.092 134.924 421.942 134.924 424.203V429.941ZM126.174 429.959C126.174 431.905 127.392 432.997 129.95 432.997C132.507 432.997 133.721 431.905 133.721 429.959V424.18C133.721 422.234 132.503 421.143 129.95 421.143C127.397 421.143 126.174 422.234 126.174 424.18V429.959Z" fill="#666666"/>
<path d="M137.056 420.339H138.447L142.939 432.526L147.441 420.339H148.865L143.871 433.888H142.026L137.06 420.339H137.056Z" fill="#666666"/>
<path d="M153.17 433.888H151.769V420.339H153.17V433.888Z" fill="#666666"/>
<path d="M159.882 421.965V433.883H158.566V420.339H160.632L166.679 431.933V420.339H167.995V433.888H166.323L159.878 421.97L159.882 421.965Z" fill="#666666"/>
<path d="M61.5081 432.097C59.7702 432.097 58.3556 433.476 58.3556 435.171C58.3556 436.866 59.7702 438.245 61.5081 438.245C63.246 438.245 64.6606 436.866 64.6606 435.171C64.6606 433.476 63.246 432.097 61.5081 432.097V432.097ZM63.3724 435.171C63.3724 436.176 62.5339 436.989 61.5081 436.989C60.4822 436.989 59.6438 436.172 59.6438 435.171C59.6438 434.171 60.4822 433.353 61.5081 433.353C62.5339 433.353 63.3724 434.171 63.3724 435.171Z" fill="#666666"/>
<path d="M40.1525 432.097C38.4146 432.097 37 433.476 37 435.171C37 436.866 38.4146 438.245 40.1525 438.245C41.8904 438.245 43.305 436.866 43.305 435.171C43.305 433.476 41.8904 432.097 40.1525 432.097V432.097ZM42.0168 435.171C42.0168 436.176 41.1784 436.989 40.1525 436.989C39.1267 436.989 38.2882 436.172 38.2882 435.171C38.2882 434.171 39.1267 433.353 40.1525 433.353C41.1784 433.353 42.0168 434.171 42.0168 435.171Z" fill="#666666"/>
<path d="M50.8326 415.25C49.0947 415.25 47.6801 416.63 47.6801 418.324C47.6801 420.019 49.0947 421.399 50.8326 421.399C52.5704 421.399 53.9851 420.019 53.9851 418.324C53.9851 416.63 52.5704 415.25 50.8326 415.25ZM52.6969 418.324C52.6969 419.329 51.8584 420.142 50.8326 420.142C49.8067 420.142 48.9682 419.325 48.9682 418.324C48.9682 417.324 49.8067 416.506 50.8326 416.506C51.8584 416.506 52.6969 417.324 52.6969 418.324Z" fill="#666666"/>
<path d="M60.3416 432.44L53.3761 420.211L53.3105 420.092L53.2215 420.197C52.9826 420.49 52.6875 420.723 52.3549 420.901L52.2706 420.946L52.3175 421.029L58.482 431.855C56.3319 431.384 53.6572 431.129 50.9169 431.129C47.8955 431.129 45.2114 431.38 43.1316 431.85L49.3008 421.024L49.3476 420.942L49.2633 420.896C48.9261 420.723 48.6356 420.485 48.3967 420.193L48.3077 420.088L48.2422 420.206L41.2767 432.435L41.2205 432.531L41.3235 432.567C41.6655 432.682 41.9793 433.097 42.2557 433.335L42.3025 433.376L42.3587 433.349H42.3822C44.6025 432.746 47.5583 432.426 50.9216 432.426C53.9476 432.426 56.8846 432.75 59.1986 433.339L59.2455 433.426L59.3345 433.358L59.3532 433.344C59.6343 433.102 59.9481 432.686 60.2901 432.572L60.3931 432.536L60.3369 432.44H60.3416Z" fill="#666666"/>
</g>
<defs>
<filter id="filter0_d_3651_5989" x="229.896" y="23.9246" width="394.209" height="394.707" filterUnits="userSpaceOnUse" color-interpolation-filters="sRGB">
<feFlood flood-opacity="0" result="BackgroundImageFix"/>
<feColorMatrix in="SourceAlpha" type="matrix" values="0 0 0 0 0 0 0 0 0 0 0 0 0 0 0 0 0 0 127 0" result="hardAlpha"/>
<feOffset dx="7" dy="12"/>
<feGaussianBlur stdDeviation="8"/>
<feComposite in2="hardAlpha" operator="out"/>
<feColorMatrix type="matrix" values="0 0 0 0 0.509804 0 0 0 0 0.607843 0 0 0 0 0.768627 0 0 0 0.25 0"/>
<feBlend mode="normal" in2="BackgroundImageFix" result="effect1_dropShadow_3651_5989"/>
<feBlend mode="normal" in="SourceGraphic" in2="effect1_dropShadow_3651_5989" result="shape"/>
</filter>
<clipPath id="clip0_3651_5989">
<rect width="131" height="23" fill="white" transform="translate(37 415.25)"/>
</clipPath>
</defs>
</svg>
