<svg width="520" height="195" viewBox="0 0 520 195" fill="none" xmlns="http://www.w3.org/2000/svg">
<g clip-path="url(#clip0_3778_625)">
<g opacity="0.45" filter="url(#filter0_f_3778_625)">
<path d="M560 -72.9697C560 -98.9438 539.812 -120 514.909 -120H419.091C394.188 -120 374 -98.9438 374 -72.9697V26.9697C374 52.9438 394.188 74 419.091 74H514.909C539.812 74 560 52.9438 560 26.9697V-72.9697Z" fill="url(#paint0_linear_3778_625)" fill-opacity="0.6"/>
</g>
<g opacity="0.45" filter="url(#filter1_f_3778_625)">
<path d="M146 168.03C146 142.056 125.812 121 100.909 121H5.09091C-19.8121 121 -40 142.056 -40 168.03V267.97C-40 293.944 -19.8121 315 5.09091 315H100.909C125.812 315 146 293.944 146 267.97V168.03Z" fill="url(#paint1_linear_3778_625)" fill-opacity="0.6"/>
</g>
</g>
<defs>
<filter id="filter0_f_3778_625" x="289" y="-205" width="356" height="364" filterUnits="userSpaceOnUse" color-interpolation-filters="sRGB">
<feFlood flood-opacity="0" result="BackgroundImageFix"/>
<feBlend mode="normal" in="SourceGraphic" in2="BackgroundImageFix" result="shape"/>
<feGaussianBlur stdDeviation="42.5" result="effect1_foregroundBlur_3778_625"/>
</filter>
<filter id="filter1_f_3778_625" x="-125" y="36" width="356" height="364" filterUnits="userSpaceOnUse" color-interpolation-filters="sRGB">
<feFlood flood-opacity="0" result="BackgroundImageFix"/>
<feBlend mode="normal" in="SourceGraphic" in2="BackgroundImageFix" result="shape"/>
<feGaussianBlur stdDeviation="42.5" result="effect1_foregroundBlur_3778_625"/>
</filter>
<linearGradient id="paint0_linear_3778_625" x1="467" y1="-120" x2="397.038" y2="72.1661" gradientUnits="userSpaceOnUse">
<stop stop-color="#FF9E1D"/>
<stop offset="1" stop-color="#AF0E91"/>
</linearGradient>
<linearGradient id="paint1_linear_3778_625" x1="53" y1="121" x2="-16.9619" y2="313.166" gradientUnits="userSpaceOnUse">
<stop stop-color="#FF9E1D"/>
<stop offset="1" stop-color="#AF0E91"/>
</linearGradient>
<clipPath id="clip0_3778_625">
<rect width="520" height="195" fill="white"/>
</clipPath>
</defs>
</svg>
