<svg width="136" height="136" viewBox="0 0 136 136" fill="none" xmlns="http://www.w3.org/2000/svg">
<circle cx="68" cy="68" r="68" fill="#E6E4F8"/>
<g clip-path="url(#clip0_1341_4327)">
<g clip-path="url(#clip1_1341_4327)">
<path d="M83.024 24.1267C67.0228 24.1267 54.046 33.6462 54.046 45.3782C54.046 53.1047 59.912 58.9978 67.5709 62.8272C67.5709 69.0788 63.7076 74.3562 63.7076 74.3562C63.7076 74.3562 73.3083 73.8893 77.2325 66.6567C77.2325 66.6567 80.9807 66.6296 83.0308 66.6296C99.0319 66.6296 112.009 57.1101 112.009 45.3782C112.009 33.6462 99.0252 24.1267 83.024 24.1267Z" fill="#12E3A3"/>
<path d="M92.4626 45.2899H73.0785C73.0785 45.2899 73.0718 45.2899 73.0718 45.2831V36.2034C73.0718 36.2034 73.0718 36.1966 73.0785 36.1966H92.4626" fill="white"/>
<path d="M92.4626 45.2899H73.0785C73.0785 45.2899 73.0718 45.2899 73.0718 45.2831V36.2034C73.0718 36.2034 73.0718 36.1966 73.0785 36.1966H92.4626" stroke="white" stroke-width="1.51554" stroke-linecap="round" stroke-linejoin="round"/>
<path d="M92.462 36.1967L98.5242 40.7433L92.462 45.29" fill="white"/>
<path d="M92.462 36.1967L98.5242 40.7433L92.462 45.29" stroke="white" stroke-width="1.51554" stroke-linecap="round" stroke-linejoin="round"/>
<path d="M92.4626 45.2899H73.0785C73.0785 45.2899 73.0718 45.2899 73.0718 45.2831V36.2034C73.0718 36.2034 73.0718 36.1966 73.0785 36.1966H92.4626" fill="white"/>
<path d="M92.4626 45.2899H73.0785C73.0785 45.2899 73.0718 45.2899 73.0718 45.2831V36.2034C73.0718 36.2034 73.0718 36.1966 73.0785 36.1966H92.4626" stroke="white" stroke-width="1.51554" stroke-linecap="round" stroke-linejoin="round"/>
<path d="M82.7657 33.9236V36.1969" stroke="white" stroke-width="2.05004" stroke-linecap="round" stroke-linejoin="round"/>
<path d="M82.7657 45.2902V56.6635" stroke="white" stroke-width="2.05004" stroke-linecap="round" stroke-linejoin="round"/>
<g style="mix-blend-mode:multiply">
<path d="M71.1986 78.0845H94.1753C98.4784 78.0845 101.97 76.048 101.97 71.7247C101.97 67.4013 98.4784 65.0941 94.1753 65.0941H51.3477L59.2907 57.5097C60.6304 56.2309 61.7332 54.6883 62.3421 52.936C62.5992 52.185 62.7819 51.4204 62.8902 50.6424C63.4856 46.2107 58.3503 43.2744 54.6968 45.8522C51.4086 48.1728 47.0175 51.1566 42.4506 53.9441C39.4669 55.7573 36.7809 57.557 34.5075 59.1673C29.034 63.0373 25.4414 69.0183 24.6227 75.6691C24.2709 78.5108 24.0138 81.7516 24.0138 85.1886C24.0138 85.2969 24.0138 85.4051 24.0138 85.5134C24.0679 96.2981 31.4765 105.655 41.9094 108.362C48.2083 109.999 59.8049 111.555 60.9145 111.751C63.3502 112.191 66.246 111.501 67.633 108.328C69.1485 104.85 66.0092 101.799 66.0092 101.799C66.0092 101.799 69.5816 101.149 70.7182 96.7988C71.7872 92.7055 68.8238 90.0533 68.8238 90.0533C68.8238 90.0533 72.9915 88.8557 73.5328 84.2888C73.959 80.6691 71.0971 78.0845 71.0971 78.0845" fill="#105FFB"/>
</g>
</g>
</g>
<defs>
<clipPath id="clip0_1341_4327">
<rect width="87.9962" height="88.0302" fill="white" transform="translate(24.0027 23.985)"/>
</clipPath>
<clipPath id="clip1_1341_4327">
<rect width="87.9962" height="87.7459" fill="white" transform="translate(24.0044 24.127)"/>
</clipPath>
</defs>
</svg>
