<svg width="840" height="472" viewBox="0 0 840 472" fill="none" xmlns="http://www.w3.org/2000/svg">
<path d="M22.042 225.06V232.392H25.799V234.264H20.014V225.06H22.042ZM32.6904 224.826C34.1638 224.826 35.3598 225.268 36.2784 226.152C37.1971 227.036 37.6564 228.206 37.6564 229.662C37.6564 231.109 37.1928 232.279 36.2654 233.172C35.3381 234.056 34.1464 234.498 32.6904 234.498C31.2171 234.498 30.0211 234.051 29.1024 233.159C28.1838 232.266 27.7244 231.1 27.7244 229.662C27.7244 228.223 28.1794 227.057 29.0894 226.165C30.0081 225.272 31.2084 224.826 32.6904 224.826ZM29.8304 229.662C29.8304 230.554 30.0948 231.274 30.6234 231.82C31.1608 232.357 31.8498 232.626 32.6904 232.626C33.5484 232.626 34.2374 232.348 34.7574 231.794C35.2861 231.239 35.5504 230.528 35.5504 229.662C35.5504 228.778 35.2818 228.063 34.7444 227.517C34.2158 226.971 33.5268 226.698 32.6774 226.698C31.8281 226.698 31.1391 226.975 30.6104 227.53C30.0904 228.084 29.8304 228.795 29.8304 229.662ZM41.5828 225.06L43.0518 230.962H43.0778L45.0018 225.06H46.8868L48.7978 231.118H48.8238L50.3708 225.06H52.4248L49.7338 234.264H47.9268L45.8988 227.894H45.8728L43.8448 234.264H42.1028L39.3728 225.06H41.5828ZM63.4085 225.06C64.5352 225.06 65.3845 225.302 65.9565 225.788C66.5285 226.264 66.8145 226.953 66.8145 227.855C66.8145 228.531 66.6368 229.09 66.2815 229.532C65.9348 229.974 65.4495 230.255 64.8255 230.377L67.1655 234.264H64.7345L62.8105 230.585H61.8095V234.264H59.7815V225.06H63.4085ZM63.0705 228.869C63.6685 228.869 64.0888 228.791 64.3315 228.635C64.5828 228.47 64.7085 228.206 64.7085 227.842C64.7085 227.131 64.2015 226.776 63.1875 226.776H61.8095V228.869H63.0705ZM75.8422 225.06V226.932H71.6172V228.648H75.6082V230.52H71.6172V232.392H76.0762V234.264H69.5892V225.06H75.8422ZM81.1057 225.06V232.392H84.8627V234.264H79.0777V225.06H81.1057ZM93.6131 225.06V226.932H89.3881V228.648H93.3791V230.52H89.3881V232.392H93.8471V234.264H87.3601V225.06H93.6131ZM98.1746 225.06L100.45 231.092H100.476L102.79 225.06H104.961L101.165 234.264H99.5396L95.8606 225.06H98.1746ZM111.219 225.06L115.223 234.264H112.935L112.142 232.314H108.567L107.8 234.264H105.564L109.542 225.06H111.219ZM109.204 230.598H111.453L110.322 227.738L109.204 230.598ZM120.205 225.06L124.118 231.456H124.144V225.06H126.172V234.264H123.52L119.503 227.712H119.477V234.264H117.449V225.06H120.205ZM133.821 224.826C134.428 224.826 135.009 224.943 135.563 225.177C136.127 225.402 136.582 225.736 136.928 226.178L135.368 227.452C134.944 226.949 134.363 226.698 133.626 226.698C132.864 226.698 132.227 226.979 131.715 227.543C131.213 228.097 130.961 228.804 130.961 229.662C130.961 230.485 131.204 231.187 131.689 231.768C132.175 232.34 132.799 232.626 133.561 232.626C134.376 232.626 135.009 232.296 135.459 231.638L137.149 232.899C136.82 233.384 136.361 233.774 135.771 234.069C135.191 234.355 134.541 234.498 133.821 234.498C132.357 234.498 131.161 234.051 130.233 233.159C129.315 232.266 128.855 231.1 128.855 229.662C128.855 228.24 129.315 227.079 130.233 226.178C131.152 225.276 132.348 224.826 133.821 224.826ZM140.875 225.06L142.825 228.505L144.892 225.06H147.297L143.839 230.338V234.264H141.811V230.338L138.353 225.06H140.875ZM22.952 241.06C23.9227 241.06 24.6723 241.259 25.201 241.658C25.7297 242.048 25.9983 242.602 26.007 243.322C26.007 243.85 25.8597 244.292 25.565 244.648C25.279 245.003 24.889 245.254 24.395 245.402V245.428C24.993 245.48 25.487 245.722 25.877 246.156C26.2757 246.58 26.475 247.092 26.475 247.69C26.475 248.504 26.1673 249.137 25.552 249.588C24.9367 250.03 24.0613 250.255 22.926 250.264H20.144V241.06H22.952ZM22.796 244.96C23.4633 244.96 23.9703 244.843 24.317 244.609C24.6637 244.366 24.837 243.985 24.837 243.465C24.837 242.555 24.1957 242.091 22.913 242.074H21.236V244.96H22.796ZM23.134 249.25C23.7927 249.25 24.317 249.107 24.707 248.821C25.1057 248.526 25.305 248.136 25.305 247.651C25.305 247.096 25.11 246.68 24.72 246.403C24.33 246.117 23.797 245.974 23.121 245.974H21.236V249.25H23.134ZM30.9195 244.024C31.8208 244.024 32.5228 244.31 33.0255 244.882C33.5368 245.445 33.7968 246.247 33.8055 247.287V247.534H28.8915C28.9435 248.097 29.1558 248.561 29.5285 248.925C29.9011 249.289 30.3561 249.475 30.8935 249.484C31.7168 249.484 32.3581 249.176 32.8175 248.561L33.5845 249.159C33.2638 249.575 32.8868 249.891 32.4535 250.108C32.0201 250.316 31.5001 250.42 30.8935 250.42C29.9661 250.42 29.2208 250.121 28.6575 249.523C28.0941 248.916 27.8081 248.149 27.7995 247.222C27.7995 246.303 28.0855 245.545 28.6575 244.947C29.2381 244.349 29.9921 244.041 30.9195 244.024ZM32.7135 246.676C32.6875 246.147 32.5141 245.731 32.1935 245.428C31.8815 245.116 31.4395 244.96 30.8675 244.96C30.3475 244.96 29.9098 245.107 29.5545 245.402C29.1991 245.696 28.9781 246.121 28.8915 246.676H32.7135ZM41.9953 244.024C42.9226 244.024 43.5596 244.409 43.9063 245.181C44.1489 244.782 44.4219 244.492 44.7253 244.31C45.0286 244.119 45.4013 244.024 45.8433 244.024C46.6319 244.024 47.2126 244.232 47.5853 244.648C47.9579 245.055 48.1443 245.675 48.1443 246.507V250.264H47.1303V246.585C47.1303 245.519 46.6363 244.977 45.6483 244.96C45.1889 244.96 44.8119 245.133 44.5173 245.48C44.2226 245.818 44.0753 246.229 44.0753 246.715V250.264H43.0613V246.741C43.0613 246.143 42.9746 245.696 42.8013 245.402C42.6279 245.107 42.3203 244.96 41.8783 244.96C41.2629 244.96 40.7949 245.168 40.4743 245.584C40.1623 245.991 40.0063 246.559 40.0063 247.287V250.264H38.9923V245.532C38.9836 245.228 38.9663 244.778 38.9403 244.18H39.9023C39.9196 244.778 39.9283 245.111 39.9283 245.181H39.9543C40.1189 244.834 40.3833 244.557 40.7473 244.349C41.1113 244.132 41.5273 244.024 41.9953 244.024ZM52.9616 244.024C53.9063 244.024 54.6776 244.318 55.2756 244.908C55.8736 245.488 56.1856 246.26 56.2116 247.222C56.2116 248.149 55.9083 248.912 55.3016 249.51C54.6949 250.099 53.9149 250.402 52.9616 250.42C52.0083 250.42 51.2326 250.121 50.6346 249.523C50.0366 248.916 49.7289 248.149 49.7116 247.222C49.7116 246.286 50.0149 245.523 50.6216 244.934C51.2283 244.336 52.0083 244.032 52.9616 244.024ZM50.8036 247.222C50.8036 247.889 51.0029 248.431 51.4016 248.847C51.8089 249.254 52.3289 249.466 52.9616 249.484C53.5943 249.484 54.1099 249.276 54.5086 248.86C54.9073 248.435 55.1109 247.889 55.1196 247.222C55.1196 246.563 54.9159 246.021 54.5086 245.597C54.1099 245.172 53.5899 244.96 52.9486 244.96C52.3246 244.96 51.8133 245.172 51.4146 245.597C51.0159 246.013 50.8123 246.554 50.8036 247.222ZM60.7713 244.024C60.9273 244.024 61.066 244.045 61.1873 244.089L61.1223 245.116C60.9317 245.064 60.7497 245.038 60.5763 245.038C59.987 245.038 59.5407 245.233 59.2373 245.623C58.9427 246.004 58.7953 246.546 58.7953 247.248V250.264H57.7813V245.532C57.7813 245.41 57.764 244.96 57.7293 244.18H58.6913C58.7087 244.786 58.7173 245.12 58.7173 245.181H58.7433C58.908 244.834 59.1723 244.557 59.5363 244.349C59.909 244.132 60.3207 244.024 60.7713 244.024ZM64.8921 244.024C65.7935 244.024 66.4955 244.31 66.9981 244.882C67.5095 245.445 67.7695 246.247 67.7781 247.287V247.534H62.8641C62.9161 248.097 63.1285 248.561 63.5011 248.925C63.8738 249.289 64.3288 249.475 64.8661 249.484C65.6895 249.484 66.3308 249.176 66.7901 248.561L67.5571 249.159C67.2365 249.575 66.8595 249.891 66.4261 250.108C65.9928 250.316 65.4728 250.42 64.8661 250.42C63.9388 250.42 63.1935 250.121 62.6301 249.523C62.0668 248.916 61.7808 248.149 61.7721 247.222C61.7721 246.303 62.0581 245.545 62.6301 244.947C63.2108 244.349 63.9648 244.041 64.8921 244.024ZM66.6861 246.676C66.6601 246.147 66.4868 245.731 66.1661 245.428C65.8541 245.116 65.4121 244.96 64.8401 244.96C64.3201 244.96 63.8825 245.107 63.5271 245.402C63.1718 245.696 62.9508 246.121 62.8641 246.676H66.6861ZM75.7729 244.024C76.7349 244.024 77.5106 244.344 78.0999 244.986L77.2939 245.701C76.8866 245.207 76.3753 244.96 75.7599 244.96C75.1273 244.96 74.6246 245.168 74.2519 245.584C73.8879 245.991 73.7059 246.537 73.7059 247.222C73.7059 247.872 73.9009 248.409 74.2909 248.834C74.6896 249.258 75.1793 249.475 75.7599 249.484C76.4273 249.484 76.9429 249.232 77.3069 248.73L78.0609 249.445C77.4976 250.086 76.7306 250.411 75.7599 250.42C74.8326 250.411 74.0786 250.116 73.4979 249.536C72.9259 248.955 72.6313 248.184 72.6139 247.222C72.6226 246.251 72.9259 245.475 73.5239 244.895C74.1219 244.314 74.8716 244.024 75.7729 244.024ZM82.2264 244.024C82.3824 244.024 82.5211 244.045 82.6424 244.089L82.5774 245.116C82.3867 245.064 82.2047 245.038 82.0314 245.038C81.4421 245.038 80.9957 245.233 80.6924 245.623C80.3977 246.004 80.2504 246.546 80.2504 247.248V250.264H79.2364V245.532C79.2364 245.41 79.2191 244.96 79.1844 244.18H80.1464C80.1637 244.786 80.1724 245.12 80.1724 245.181H80.1984C80.3631 244.834 80.6274 244.557 80.9914 244.349C81.3641 244.132 81.7757 244.024 82.2264 244.024ZM86.3472 244.024C87.2485 244.024 87.9505 244.31 88.4532 244.882C88.9645 245.445 89.2245 246.247 89.2332 247.287V247.534H84.3192C84.3712 248.097 84.5835 248.561 84.9562 248.925C85.3289 249.289 85.7839 249.475 86.3212 249.484C87.1445 249.484 87.7859 249.176 88.2452 248.561L89.0122 249.159C88.6915 249.575 88.3145 249.891 87.8812 250.108C87.4479 250.316 86.9279 250.42 86.3212 250.42C85.3939 250.42 84.6485 250.121 84.0852 249.523C83.5219 248.916 83.2359 248.149 83.2272 247.222C83.2272 246.303 83.5132 245.545 84.0852 244.947C84.6659 244.349 85.4199 244.041 86.3472 244.024ZM88.1412 246.676C88.1152 246.147 87.9419 245.731 87.6212 245.428C87.3092 245.116 86.8672 244.96 86.2952 244.96C85.7752 244.96 85.3375 245.107 84.9822 245.402C84.6269 245.696 84.4059 246.121 84.3192 246.676H88.1412ZM93.1418 244.024C94.0258 244.024 94.6672 244.232 95.0658 244.648C95.4732 245.064 95.6812 245.692 95.6898 246.533V249.263C95.6898 249.523 95.7202 249.856 95.7808 250.264H94.8058C94.7625 250.186 94.7408 249.882 94.7408 249.354H94.7148C94.2555 250.047 93.5882 250.402 92.7128 250.42C92.0455 250.42 91.4995 250.255 91.0748 249.926C90.6588 249.588 90.4508 249.15 90.4508 248.613C90.4508 247.876 90.7542 247.339 91.3608 247.001C91.9675 246.654 92.9165 246.481 94.2078 246.481H94.6758V246.312C94.6758 245.428 94.1732 244.977 93.1678 244.96C92.4398 244.96 91.8375 245.181 91.3608 245.623L90.7238 244.96C91.3478 244.353 92.1538 244.041 93.1418 244.024ZM91.5428 248.509C91.5428 249.193 91.9892 249.544 92.8818 249.562C93.4105 249.562 93.8395 249.393 94.1688 249.055C94.5068 248.717 94.6758 248.223 94.6758 247.573V247.339H93.5578C92.9598 247.339 92.4745 247.434 92.1018 247.625C91.7378 247.815 91.5515 248.11 91.5428 248.509ZM99.0771 242.451V244.18H100.871V245.038H99.0771V248.288C99.0771 248.773 99.1551 249.094 99.3111 249.25C99.4671 249.406 99.6924 249.484 99.9871 249.484C100.325 249.484 100.624 249.414 100.884 249.276L100.923 250.199C100.576 250.346 100.182 250.42 99.7401 250.42C99.1161 250.42 98.6784 250.268 98.4271 249.965C98.1844 249.653 98.0631 249.146 98.0631 248.444V245.038H96.7371V244.18H98.0631V242.451H99.0771ZM102.711 241.06C102.911 241.06 103.084 241.133 103.231 241.281C103.379 241.419 103.452 241.593 103.452 241.801C103.452 242.017 103.383 242.195 103.244 242.334C103.106 242.472 102.928 242.542 102.711 242.542C102.495 242.542 102.317 242.472 102.178 242.334C102.04 242.195 101.97 242.017 101.97 241.801C101.97 241.593 102.044 241.419 102.191 241.281C102.339 241.133 102.512 241.06 102.711 241.06ZM103.218 244.18V250.264H102.204V244.18H103.218ZM105.587 244.18L107.485 248.951H107.511L109.318 244.18H110.41L108.005 250.264H106.887L104.404 244.18H105.587ZM114.277 244.024C115.178 244.024 115.88 244.31 116.383 244.882C116.894 245.445 117.154 246.247 117.163 247.287V247.534H112.249C112.301 248.097 112.513 248.561 112.886 248.925C113.259 249.289 113.714 249.475 114.251 249.484C115.074 249.484 115.716 249.176 116.175 248.561L116.942 249.159C116.621 249.575 116.244 249.891 115.811 250.108C115.378 250.316 114.858 250.42 114.251 250.42C113.324 250.42 112.578 250.121 112.015 249.523C111.452 248.916 111.166 248.149 111.157 247.222C111.157 246.303 111.443 245.545 112.015 244.947C112.596 244.349 113.35 244.041 114.277 244.024ZM116.071 246.676C116.045 246.147 115.872 245.731 115.551 245.428C115.239 245.116 114.797 244.96 114.225 244.96C113.705 244.96 113.267 245.107 112.912 245.402C112.557 245.696 112.336 246.121 112.249 246.676H116.071Z" fill="#333333"/>
<path d="M689.964 225.06V228.492H693.903V225.06H695.931V234.264H693.903V230.286H689.964V234.264H687.936V225.06H689.964ZM701.102 225.06V234.264H699.074V225.06H701.102ZM708.732 224.826C710.301 224.826 711.518 225.22 712.385 226.009L710.955 227.569C710.418 226.988 709.677 226.698 708.732 226.698C707.883 226.698 707.189 226.975 706.652 227.53C706.123 228.076 705.859 228.786 705.859 229.662C705.859 230.546 706.123 231.261 706.652 231.807C707.189 232.353 707.883 232.626 708.732 232.626C709.425 232.626 710.058 232.474 710.63 232.171V230.676H708.979V228.804H712.58V233.614C711.479 234.203 710.197 234.498 708.732 234.498C707.25 234.498 706.05 234.056 705.131 233.172C704.212 232.279 703.753 231.109 703.753 229.662C703.753 228.214 704.212 227.049 705.131 226.165C706.05 225.272 707.25 224.826 708.732 224.826ZM717.693 225.06V228.492H721.632V225.06H723.66V234.264H721.632V230.286H717.693V234.264H715.665V225.06H717.693ZM735.603 225.06C736.73 225.06 737.579 225.302 738.151 225.788C738.723 226.264 739.009 226.953 739.009 227.855C739.009 228.531 738.831 229.09 738.476 229.532C738.129 229.974 737.644 230.255 737.02 230.377L739.36 234.264H736.929L735.005 230.585H734.004V234.264H731.976V225.06H735.603ZM735.265 228.869C735.863 228.869 736.283 228.791 736.526 228.635C736.777 228.47 736.903 228.206 736.903 227.842C736.903 227.131 736.396 226.776 735.382 226.776H734.004V228.869H735.265ZM748.037 225.06V226.932H743.812V228.648H747.803V230.52H743.812V232.392H748.271V234.264H741.784V225.06H748.037ZM753.3 225.06V232.392H757.057V234.264H751.272V225.06H753.3ZM765.808 225.06V226.932H761.583V228.648H765.574V230.52H761.583V232.392H766.042V234.264H759.555V225.06H765.808ZM770.369 225.06L772.644 231.092H772.67L774.984 225.06H777.155L773.359 234.264H771.734L768.055 225.06H770.369ZM783.413 225.06L787.417 234.264H785.129L784.336 232.314H780.761L779.994 234.264H777.758L781.736 225.06H783.413ZM781.398 230.598H783.647L782.516 227.738L781.398 230.598ZM792.399 225.06L796.312 231.456H796.338V225.06H798.366V234.264H795.714L791.697 227.712H791.671V234.264H789.643V225.06H792.399ZM806.016 224.826C806.622 224.826 807.203 224.943 807.758 225.177C808.321 225.402 808.776 225.736 809.123 226.178L807.563 227.452C807.138 226.949 806.557 226.698 805.821 226.698C805.058 226.698 804.421 226.979 803.91 227.543C803.407 228.097 803.156 228.804 803.156 229.662C803.156 230.485 803.398 231.187 803.884 231.768C804.369 232.34 804.993 232.626 805.756 232.626C806.57 232.626 807.203 232.296 807.654 231.638L809.344 232.899C809.014 233.384 808.555 233.774 807.966 234.069C807.385 234.355 806.735 234.498 806.016 234.498C804.551 234.498 803.355 234.051 802.428 233.159C801.509 232.266 801.05 231.1 801.05 229.662C801.05 228.24 801.509 227.079 802.428 226.178C803.346 225.276 804.542 224.826 806.016 224.826ZM813.069 225.06L815.019 228.505L817.086 225.06H819.491L816.033 230.338V234.264H814.005V230.338L810.547 225.06H813.069ZM690.835 240.826C691.953 240.826 692.811 241.185 693.409 241.905L692.512 242.685C692.165 242.139 691.606 241.857 690.835 241.84C690.254 241.84 689.782 241.978 689.418 242.256C689.054 242.533 688.872 242.91 688.872 243.387C688.872 243.803 689.011 244.132 689.288 244.375C689.565 244.617 690.085 244.856 690.848 245.09C691.836 245.376 692.534 245.727 692.941 246.143C693.357 246.55 693.565 247.105 693.565 247.807C693.565 248.621 693.262 249.271 692.655 249.757C692.048 250.242 691.273 250.489 690.328 250.498C689.695 250.498 689.132 250.385 688.638 250.16C688.144 249.934 687.763 249.622 687.494 249.224L688.43 248.457C688.629 248.786 688.907 249.042 689.262 249.224C689.617 249.397 689.994 249.484 690.393 249.484C690.939 249.484 691.407 249.332 691.797 249.029C692.196 248.717 692.395 248.335 692.395 247.885C692.395 247.477 692.278 247.157 692.044 246.923C691.819 246.689 691.442 246.489 690.913 246.325L689.86 245.974C689.071 245.705 688.512 245.371 688.183 244.973C687.862 244.565 687.702 244.067 687.702 243.478C687.702 242.698 687.992 242.065 688.573 241.58C689.154 241.086 689.908 240.834 690.835 240.826ZM696.2 240.436V245.025H696.226C696.408 244.721 696.676 244.479 697.032 244.297C697.387 244.115 697.773 244.024 698.189 244.024C698.951 244.024 699.523 244.245 699.905 244.687C700.295 245.129 700.49 245.718 700.49 246.455V250.264H699.476V246.572C699.476 246.104 699.367 245.722 699.151 245.428C698.934 245.124 698.579 244.968 698.085 244.96C697.461 244.96 696.988 245.168 696.668 245.584C696.356 245.991 696.2 246.546 696.2 247.248V250.264H695.186V240.436H696.2ZM705.308 244.024C706.253 244.024 707.024 244.318 707.622 244.908C708.22 245.488 708.532 246.26 708.558 247.222C708.558 248.149 708.255 248.912 707.648 249.51C707.042 250.099 706.262 250.402 705.308 250.42C704.355 250.42 703.579 250.121 702.981 249.523C702.383 248.916 702.076 248.149 702.058 247.222C702.058 246.286 702.362 245.523 702.968 244.934C703.575 244.336 704.355 244.032 705.308 244.024ZM703.15 247.222C703.15 247.889 703.35 248.431 703.748 248.847C704.156 249.254 704.676 249.466 705.308 249.484C705.941 249.484 706.457 249.276 706.855 248.86C707.254 248.435 707.458 247.889 707.466 247.222C707.466 246.563 707.263 246.021 706.855 245.597C706.457 245.172 705.937 244.96 705.295 244.96C704.671 244.96 704.16 245.172 703.761 245.597C703.363 246.013 703.159 246.554 703.15 247.222ZM710.466 244.18L711.857 248.86H711.883L713.456 244.18H714.522L716.121 248.86H716.147L717.525 244.18H718.617L716.654 250.264H715.653L713.924 245.584H713.898L712.364 250.264H711.324L709.348 244.18H710.466ZM722.572 244.024C723.534 244.024 724.309 244.344 724.899 244.986L724.093 245.701C723.685 245.207 723.174 244.96 722.559 244.96C721.926 244.96 721.423 245.168 721.051 245.584C720.687 245.991 720.505 246.537 720.505 247.222C720.505 247.872 720.7 248.409 721.09 248.834C721.488 249.258 721.978 249.475 722.559 249.484C723.226 249.484 723.742 249.232 724.106 248.73L724.86 249.445C724.296 250.086 723.529 250.411 722.559 250.42C721.631 250.411 720.877 250.116 720.297 249.536C719.725 248.955 719.43 248.184 719.413 247.222C719.421 246.251 719.725 245.475 720.323 244.895C720.921 244.314 721.67 244.024 722.572 244.024ZM728.375 244.024C729.259 244.024 729.901 244.232 730.299 244.648C730.707 245.064 730.915 245.692 730.923 246.533V249.263C730.923 249.523 730.954 249.856 731.014 250.264H730.039C729.996 250.186 729.974 249.882 729.974 249.354H729.948C729.489 250.047 728.822 250.402 727.946 250.42C727.279 250.42 726.733 250.255 726.308 249.926C725.892 249.588 725.684 249.15 725.684 248.613C725.684 247.876 725.988 247.339 726.594 247.001C727.201 246.654 728.15 246.481 729.441 246.481H729.909V246.312C729.909 245.428 729.407 244.977 728.401 244.96C727.673 244.96 727.071 245.181 726.594 245.623L725.957 244.96C726.581 244.353 727.387 244.041 728.375 244.024ZM726.776 248.509C726.776 249.193 727.223 249.544 728.115 249.562C728.644 249.562 729.073 249.393 729.402 249.055C729.74 248.717 729.909 248.223 729.909 247.573V247.339H728.791C728.193 247.339 727.708 247.434 727.335 247.625C726.971 247.815 726.785 248.11 726.776 248.509ZM734.635 244.024C735.606 244.032 736.295 244.401 736.702 245.129L735.857 245.688C735.563 245.202 735.134 244.96 734.57 244.96C734.232 244.96 733.946 245.038 733.712 245.194C733.487 245.35 733.374 245.553 733.374 245.805C733.374 246.212 733.881 246.507 734.895 246.689C735.623 246.819 736.139 247.031 736.442 247.326C736.746 247.62 736.897 248.015 736.897 248.509C736.897 249.107 736.676 249.575 736.234 249.913C735.792 250.251 735.203 250.42 734.466 250.42C733.894 250.42 733.422 250.329 733.049 250.147C732.685 249.965 732.369 249.679 732.1 249.289L732.906 248.665C733.158 248.968 733.405 249.18 733.647 249.302C733.89 249.423 734.163 249.484 734.466 249.484C734.856 249.484 735.177 249.401 735.428 249.237C735.68 249.063 735.805 248.834 735.805 248.548C735.805 248.253 735.671 248.032 735.402 247.885C735.142 247.737 734.705 247.603 734.089 247.482C733.483 247.352 733.041 247.157 732.763 246.897C732.495 246.637 732.36 246.277 732.36 245.818C732.36 245.306 732.568 244.882 732.984 244.544C733.409 244.206 733.959 244.032 734.635 244.024ZM741.081 244.024C741.982 244.024 742.684 244.31 743.187 244.882C743.698 245.445 743.958 246.247 743.967 247.287V247.534H739.053C739.105 248.097 739.317 248.561 739.69 248.925C740.062 249.289 740.517 249.475 741.055 249.484C741.878 249.484 742.519 249.176 742.979 248.561L743.746 249.159C743.425 249.575 743.048 249.891 742.615 250.108C742.181 250.316 741.661 250.42 741.055 250.42C740.127 250.42 739.382 250.121 738.819 249.523C738.255 248.916 737.969 248.149 737.961 247.222C737.961 246.303 738.247 245.545 738.819 244.947C739.399 244.349 740.153 244.041 741.081 244.024ZM742.875 246.676C742.849 246.147 742.675 245.731 742.355 245.428C742.043 245.116 741.601 244.96 741.029 244.96C740.509 244.96 740.071 245.107 739.716 245.402C739.36 245.696 739.139 246.121 739.053 246.676H742.875ZM752.026 244.024C752.494 244.024 752.923 244.132 753.313 244.349C753.712 244.565 754.002 244.856 754.184 245.22H754.21V244.18H755.224V250.056C755.224 251.096 754.947 251.906 754.392 252.487C753.838 253.067 753.01 253.366 751.909 253.384C751.311 253.384 750.77 253.297 750.284 253.124C749.799 252.95 749.344 252.651 748.919 252.227L749.647 251.395C750.297 252.097 751.051 252.448 751.909 252.448C753.443 252.448 754.21 251.633 754.21 250.004V249.211H754.184C753.959 249.575 753.647 249.856 753.248 250.056C752.85 250.246 752.442 250.342 752.026 250.342C751.09 250.342 750.323 250.051 749.725 249.471C749.127 248.881 748.82 248.132 748.802 247.222C748.802 246.242 749.097 245.467 749.686 244.895C750.276 244.323 751.056 244.032 752.026 244.024ZM749.894 247.222C749.894 247.828 750.102 248.344 750.518 248.769C750.934 249.185 751.441 249.397 752.039 249.406C752.698 249.406 753.222 249.193 753.612 248.769C754.011 248.344 754.21 247.82 754.21 247.196C754.21 246.528 754.007 245.991 753.599 245.584C753.201 245.176 752.676 244.968 752.026 244.96C751.411 244.96 750.9 245.176 750.492 245.61C750.094 246.043 749.894 246.58 749.894 247.222ZM759.441 244.024C760.325 244.024 760.966 244.232 761.365 244.648C761.772 245.064 761.98 245.692 761.989 246.533V249.263C761.989 249.523 762.019 249.856 762.08 250.264H761.105C761.061 250.186 761.04 249.882 761.04 249.354H761.014C760.554 250.047 759.887 250.402 759.012 250.42C758.344 250.42 757.798 250.255 757.374 249.926C756.958 249.588 756.75 249.15 756.75 248.613C756.75 247.876 757.053 247.339 757.66 247.001C758.266 246.654 759.215 246.481 760.507 246.481H760.975V246.312C760.975 245.428 760.472 244.977 759.467 244.96C758.739 244.96 758.136 245.181 757.66 245.623L757.023 244.96C757.647 244.353 758.453 244.041 759.441 244.024ZM757.842 248.509C757.842 249.193 758.288 249.544 759.181 249.562C759.709 249.562 760.138 249.393 760.468 249.055C760.806 248.717 760.975 248.223 760.975 247.573V247.339H759.857C759.259 247.339 758.773 247.434 758.401 247.625C758.037 247.815 757.85 248.11 757.842 248.509ZM766.845 244.024C767.772 244.024 768.409 244.409 768.756 245.181C768.999 244.782 769.272 244.492 769.575 244.31C769.878 244.119 770.251 244.024 770.693 244.024C771.482 244.024 772.062 244.232 772.435 244.648C772.808 245.055 772.994 245.675 772.994 246.507V250.264H771.98V246.585C771.98 245.519 771.486 244.977 770.498 244.96C770.039 244.96 769.662 245.133 769.367 245.48C769.072 245.818 768.925 246.229 768.925 246.715V250.264H767.911V246.741C767.911 246.143 767.824 245.696 767.651 245.402C767.478 245.107 767.17 244.96 766.728 244.96C766.113 244.96 765.645 245.168 765.324 245.584C765.012 245.991 764.856 246.559 764.856 247.287V250.264H763.842V245.532C763.833 245.228 763.816 244.778 763.79 244.18H764.752C764.769 244.778 764.778 245.111 764.778 245.181H764.804C764.969 244.834 765.233 244.557 765.597 244.349C765.961 244.132 766.377 244.024 766.845 244.024ZM777.681 244.024C778.583 244.024 779.285 244.31 779.787 244.882C780.299 245.445 780.559 246.247 780.567 247.287V247.534H775.653C775.705 248.097 775.918 248.561 776.29 248.925C776.663 249.289 777.118 249.475 777.655 249.484C778.479 249.484 779.12 249.176 779.579 248.561L780.346 249.159C780.026 249.575 779.649 249.891 779.215 250.108C778.782 250.316 778.262 250.42 777.655 250.42C776.728 250.42 775.983 250.121 775.419 249.523C774.856 248.916 774.57 248.149 774.561 247.222C774.561 246.303 774.847 245.545 775.419 244.947C776 244.349 776.754 244.041 777.681 244.024ZM779.475 246.676C779.449 246.147 779.276 245.731 778.955 245.428C778.643 245.116 778.201 244.96 777.629 244.96C777.109 244.96 776.672 245.107 776.316 245.402C775.961 245.696 775.74 246.121 775.653 246.676H779.475ZM785.308 244.024C786.27 244.024 787.041 244.327 787.622 244.934C788.202 245.54 788.497 246.303 788.506 247.222C788.506 248.132 788.211 248.89 787.622 249.497C787.032 250.095 786.313 250.402 785.464 250.42C784.944 250.42 784.471 250.307 784.047 250.082C783.631 249.856 783.323 249.557 783.124 249.185H783.098V253.228H782.084V244.18H783.098V245.064H783.124C783.722 244.37 784.45 244.024 785.308 244.024ZM783.098 247.222C783.098 247.889 783.297 248.431 783.696 248.847C784.103 249.254 784.623 249.466 785.256 249.484C785.888 249.484 786.404 249.276 786.803 248.86C787.201 248.435 787.405 247.889 787.414 247.222C787.414 246.563 787.21 246.021 786.803 245.597C786.404 245.172 785.884 244.96 785.243 244.96C784.619 244.96 784.107 245.172 783.709 245.597C783.31 246.013 783.106 246.554 783.098 247.222ZM791.188 240.436V250.264H790.174V240.436H791.188ZM795.546 244.024C796.43 244.024 797.071 244.232 797.47 244.648C797.877 245.064 798.085 245.692 798.094 246.533V249.263C798.094 249.523 798.124 249.856 798.185 250.264H797.21C797.167 250.186 797.145 249.882 797.145 249.354H797.119C796.66 250.047 795.992 250.402 795.117 250.42C794.45 250.42 793.904 250.255 793.479 249.926C793.063 249.588 792.855 249.15 792.855 248.613C792.855 247.876 793.158 247.339 793.765 247.001C794.372 246.654 795.321 246.481 796.612 246.481H797.08V246.312C797.08 245.428 796.577 244.977 795.572 244.96C794.844 244.96 794.242 245.181 793.765 245.623L793.128 244.96C793.752 244.353 794.558 244.041 795.546 244.024ZM793.947 248.509C793.947 249.193 794.393 249.544 795.286 249.562C795.815 249.562 796.244 249.393 796.573 249.055C796.911 248.717 797.08 248.223 797.08 247.573V247.339H795.962C795.364 247.339 794.879 247.434 794.506 247.625C794.142 247.815 793.956 248.11 793.947 248.509ZM800.298 244.18L802.183 248.951H802.209L804.016 244.18H805.121L802.144 251.759C801.91 252.365 801.642 252.786 801.338 253.02C801.044 253.262 800.649 253.384 800.155 253.384C799.783 253.384 799.479 253.332 799.245 253.228L799.375 252.344C799.497 252.413 799.748 252.448 800.129 252.448C800.615 252.448 800.966 252.149 801.182 251.551L801.637 250.303L799.115 244.18H800.298Z" fill="#333333"/>
<line opacity="0.25" x1="174" y1="234.878" x2="658" y2="234.878" stroke="#666666" stroke-width="2"/>
<circle cx="174.5" cy="235.378" r="10.5" fill="white"/>
<circle cx="174.5" cy="235.378" r="10.5" fill="#333333"/>
<path d="M175.769 229.933V239.137H173.897V232.117L172.051 233.742L170.946 232.468L173.949 229.933H175.769Z" fill="white"/>
<circle cx="296.5" cy="235.378" r="10.5" fill="white"/>
<circle cx="296.5" cy="235.378" r="10.5" fill="#333333"/>
<path d="M297.157 229.777C298.059 229.777 298.778 230.028 299.315 230.531C299.861 231.025 300.134 231.696 300.134 232.546C300.134 233.083 300.039 233.534 299.848 233.898C299.666 234.253 299.294 234.682 298.73 235.185L296.13 237.421H300.212V239.137H293.79V237.07L297.365 233.859C297.686 233.564 297.903 233.326 298.015 233.144C298.128 232.962 298.184 232.771 298.184 232.572C298.184 232.268 298.072 232.026 297.846 231.844C297.621 231.662 297.357 231.571 297.053 231.571C296.724 231.571 296.451 231.675 296.234 231.883C296.018 232.091 295.892 232.377 295.857 232.741L293.907 232.598C293.968 231.679 294.284 230.981 294.856 230.505C295.437 230.019 296.204 229.777 297.157 229.777Z" fill="white"/>
<circle cx="417.5" cy="235.378" r="10.5" fill="white"/>
<circle cx="417.5" cy="235.378" r="10.5" fill="#333333"/>
<path d="M417.923 229.777C418.859 229.777 419.609 230.006 420.172 230.466C420.744 230.916 421.03 231.54 421.03 232.338C421.03 232.866 420.892 233.308 420.614 233.664C420.337 234.019 419.951 234.249 419.457 234.353V234.392C419.986 234.461 420.406 234.699 420.718 235.107C421.03 235.505 421.186 235.982 421.186 236.537C421.186 237.377 420.883 238.049 420.276 238.552C419.678 239.046 418.877 239.293 417.871 239.293C416.979 239.293 416.246 239.089 415.674 238.682C415.111 238.266 414.743 237.676 414.569 236.914L416.623 236.433C416.771 237.143 417.226 237.499 417.988 237.499C418.387 237.499 418.695 237.395 418.911 237.187C419.128 236.979 419.236 236.688 419.236 236.316C419.236 235.96 419.115 235.696 418.872 235.523C418.63 235.341 418.162 235.25 417.468 235.25H416.961V233.56H417.559C418.071 233.56 418.452 233.482 418.703 233.326C418.955 233.161 419.08 232.897 419.08 232.533C419.08 232.238 418.968 232.004 418.742 231.831C418.517 231.657 418.248 231.571 417.936 231.571C417.659 231.571 417.416 231.644 417.208 231.792C417 231.939 416.862 232.151 416.792 232.429L414.647 231.987C415.037 230.513 416.129 229.777 417.923 229.777Z" fill="white"/>
<circle cx="538.5" cy="235.378" r="10.5" fill="white"/>
<circle cx="538.5" cy="235.378" r="10.5" fill="#333333"/>
<path d="M540.354 229.933V235.653H541.537V237.291H540.354V239.137H538.482V237.291H534.465V235.653L538.222 229.933H540.354ZM538.456 232.481L536.415 235.653H538.482V232.481H538.456Z" fill="white"/>
<circle cx="659.5" cy="235.378" r="10.5" fill="white"/>
<circle cx="659.5" cy="235.378" r="10.5" fill="#333333"/>
<path d="M662.874 229.933V231.649H659.221L659.182 233.066C659.382 232.996 659.65 232.962 659.988 232.962C660.976 232.962 661.756 233.243 662.328 233.807C662.9 234.37 663.186 235.102 663.186 236.004C663.186 237 662.87 237.798 662.237 238.396C661.605 238.994 660.751 239.293 659.676 239.293C658.87 239.293 658.199 239.098 657.661 238.708C657.133 238.309 656.769 237.72 656.569 236.94L658.61 236.472C658.662 236.801 658.797 237.07 659.013 237.278C659.239 237.477 659.525 237.577 659.871 237.577C660.261 237.577 660.586 237.455 660.846 237.213C661.106 236.961 661.236 236.623 661.236 236.199C661.236 235.705 661.054 235.328 660.69 235.068C660.326 234.808 659.802 234.678 659.117 234.678C658.493 234.678 657.856 234.79 657.206 235.016L657.31 229.933H662.874Z" fill="white"/>
<path d="M276.402 54.2999C277.274 55.1706 277.746 56.1304 277.818 57.1792L275.6 57.2781C275.633 56.9945 275.577 56.7075 275.431 56.4173C275.299 56.1271 275.137 55.8863 274.946 55.695C274.655 55.4048 274.342 55.2234 274.005 55.1508C273.675 55.0849 273.401 55.1607 273.183 55.3784C272.991 55.5697 272.906 55.8072 272.925 56.0908C272.958 56.3744 273.094 56.7273 273.332 57.1495C273.866 58.1323 274.173 58.8282 274.253 59.2372C274.338 59.6527 274.319 60.0485 274.193 60.4245C274.081 60.8005 273.85 61.1632 273.5 61.5128C272.793 62.2186 271.984 62.5319 271.073 62.4528C270.169 62.3802 269.307 61.935 268.488 61.1171C267.544 60.1738 267.052 59.0953 267.012 57.8816L269.32 57.7728C269.221 58.5578 269.449 59.2273 270.004 59.7813C270.301 60.0782 270.618 60.2629 270.954 60.3354C271.298 60.4146 271.582 60.342 271.806 60.1177C272.176 59.7484 272.143 59.1481 271.707 58.317C271.146 57.2682 270.826 56.5393 270.746 56.1304C270.674 55.7148 270.687 55.3256 270.786 54.9628C270.885 54.6001 271.106 54.2472 271.45 53.9042C272.123 53.2313 272.919 52.9312 273.837 53.0038C274.761 53.0829 275.616 53.515 276.402 54.2999ZM285.427 63.672L284.06 65.0374L282.06 63.0387L276.414 68.6784L274.869 67.1349L280.515 61.4952L278.514 59.4966L279.881 58.1312L285.427 63.672ZM289.966 68.2057C290.824 69.0632 291.287 69.8943 291.353 70.699C291.425 71.4972 291.118 72.2392 290.431 72.9252C289.916 73.4397 289.355 73.73 288.748 73.7959C288.147 73.8685 287.562 73.7135 286.994 73.3309L285.816 78.0703L283.964 76.22L285.301 71.9556L284.538 71.1937L281.735 73.9938L280.19 72.4503L287.202 65.4452L289.966 68.2057ZM286.806 70.8474C287.262 71.3026 287.642 71.5631 287.945 71.6291C288.262 71.6951 288.559 71.5895 288.837 71.3125C289.378 70.7716 289.263 70.1153 288.49 69.3435L287.44 68.2947L285.846 69.8877L286.806 70.8474ZM298.201 76.4321L294.239 86.4847L292.496 84.7433L293.377 82.6556L290.654 79.9347L288.584 80.8351L286.88 79.1333L296.923 75.1558L298.201 76.4321ZM292.446 79.1135L294.16 80.8252L295.477 77.7876L292.446 79.1135ZM306.941 85.163L305.574 86.5284L303.574 84.5297L297.928 90.1695L296.383 88.626L302.028 82.9862L300.028 80.9876L301.394 79.6222L306.941 85.163ZM313.54 91.7547L312.114 93.1795L308.895 89.9638L307.587 91.2699L310.628 94.3074L309.202 95.7322L306.161 92.6947L304.735 94.1194L308.132 97.5132L306.706 98.9379L301.763 94.0007L308.776 86.9956L313.54 91.7547ZM319.541 97.3933C320.736 98.5872 321.363 99.8141 321.423 101.074L319.145 101.173C319.178 100.322 318.834 99.537 318.115 98.818C317.468 98.1716 316.728 97.855 315.896 97.8682C315.077 97.8814 314.334 98.2211 313.667 98.8873C312.994 99.5601 312.651 100.305 312.637 101.123C312.631 101.948 312.951 102.683 313.598 103.33C314.126 103.858 314.724 104.224 315.391 104.428L316.53 103.29L315.272 102.034L316.698 100.609L319.442 103.35L315.777 107.01C314.49 106.621 313.288 105.869 312.172 104.755C311.043 103.627 310.465 102.377 310.439 101.005C310.419 99.6261 310.96 98.386 312.063 97.2844C313.166 96.1829 314.404 95.6453 315.777 95.6717C317.157 95.6915 318.412 96.2653 319.541 97.3933ZM325.655 103.857L324.516 107.963L328.716 106.915L330.548 108.745L323.892 110.13L320.901 113.118L319.356 111.575L322.347 108.587L323.734 101.938L325.655 103.857Z" fill="#00B6E0"/>
<circle cx="322" cy="234.878" r="4" fill="#00B6E0"/>
<path d="M322 235.378V149.878" stroke="#00B6E0" stroke-width="2.5"/>
<path d="M438.911 298.407C440.654 300.148 440.816 301.728 439.397 303.146C437.964 304.578 436.399 304.446 434.702 302.751L433.523 301.573L430.789 304.304L429.244 302.761L436.257 295.755L438.911 298.407ZM435.89 301.326C436.201 301.636 436.521 301.824 436.851 301.89C437.188 301.949 437.501 301.834 437.792 301.544C438.34 300.996 438.185 300.294 437.326 299.436L436.494 298.605L434.83 300.267L435.89 301.326ZM445.031 304.521L440.762 308.785C440.326 309.22 440.102 309.715 440.089 310.269C440.089 310.823 440.287 311.298 440.683 311.694C441.086 312.096 441.565 312.284 442.119 312.258C442.687 312.231 443.176 312.014 443.585 311.605L447.854 307.34L449.399 308.884L445.061 313.218C444.202 314.075 443.248 314.501 442.198 314.494C441.149 314.487 440.168 314.029 439.257 313.119C438.352 312.215 437.89 311.239 437.87 310.19C437.857 309.135 438.283 308.175 439.148 307.311L443.486 302.977L445.031 304.521ZM456.879 316.356L455.512 317.722L447.807 318.454L451.412 322.055L449.986 323.48L444.439 317.939L445.865 316.514L453.64 315.852L450.213 312.428L451.58 311.063L456.879 316.356ZM464.109 323.578L462.742 324.943L455.036 325.675L458.641 329.277L457.215 330.702L451.668 325.161L453.095 323.736L460.87 323.073L457.443 319.65L458.81 318.284L464.109 323.578ZM467.881 327.346L462.295 332.927L465.157 335.786L463.731 337.211L459.323 332.808L466.336 325.803L467.881 327.346ZM477.411 336.866L475.984 338.291L472.765 335.075L471.458 336.381L474.499 339.418L473.072 340.843L470.032 337.806L468.605 339.23L472.003 342.624L470.576 344.049L465.634 339.112L472.646 332.107L477.411 336.866Z" fill="#00B6E0"/>
<circle cx="433" cy="234.878" r="4" transform="rotate(-180 433 234.878)" fill="#00B6E0"/>
<path d="M433 235.878L433 281.878" stroke="#00B6E0" stroke-width="2.5"/>
<path d="M355.03 50.9316C355.493 51.3934 355.846 51.9244 356.09 52.5246C356.348 53.1249 356.44 53.7251 356.368 54.3254L354.208 54.1077C354.268 53.4019 354.017 52.7687 353.456 52.208C352.875 51.6275 352.175 51.3571 351.356 51.3967C350.55 51.4362 349.821 51.7825 349.167 52.4356C348.54 53.0622 348.19 53.7812 348.117 54.5925C348.051 55.3972 348.308 56.0898 348.89 56.6703C349.51 57.2903 350.243 57.5212 351.088 57.3629L351.415 59.6089C350.795 59.7276 350.147 59.6749 349.474 59.4506C348.814 59.2263 348.209 58.8404 347.661 58.293C346.545 57.1782 345.974 55.9282 345.948 54.543C345.928 53.1644 346.466 51.9277 347.562 50.8327C348.645 49.7509 349.88 49.2166 351.267 49.2298C352.653 49.243 353.908 49.8103 355.03 50.9316ZM362.801 59.0506L358.84 69.1031L357.096 67.3617L357.978 65.2741L355.254 62.5531L353.184 63.4535L351.48 61.7517L361.524 57.7742L362.801 59.0506ZM357.047 61.7319L358.76 63.4436L360.078 60.4061L357.047 61.7319ZM370.311 66.5525C371.17 67.41 371.632 68.2411 371.698 69.0458C371.771 69.844 371.464 70.5861 370.777 71.2721C370.262 71.7866 369.701 72.0768 369.093 72.1427C368.492 72.2153 367.908 72.0603 367.34 71.6777L366.161 76.4171L364.309 74.5668L365.646 70.3024L364.884 69.5406L362.08 72.3406L360.535 70.7971L367.548 63.792L370.311 66.5525ZM367.152 69.1943C367.607 69.6494 367.987 69.9099 368.291 69.9759C368.608 70.0419 368.905 69.9363 369.182 69.6593C369.724 69.1184 369.608 68.4621 368.836 67.6903L367.786 66.6415L366.191 68.2345L367.152 69.1943ZM377.338 73.5718C378.619 74.8515 379.312 76.1575 379.418 77.49C379.53 78.829 379.029 80.0559 377.913 81.1706C377.232 81.85 376.457 82.2887 375.585 82.4866C374.727 82.6845 373.852 82.635 372.96 82.3382C372.075 82.0347 371.26 81.5103 370.514 80.765L367.948 78.2024L374.961 71.1972L377.338 73.5718ZM371.772 79.172C372.577 79.9767 373.37 80.4055 374.149 80.4582C374.941 80.511 375.681 80.1944 376.367 79.5084C376.988 78.8884 377.265 78.1826 377.199 77.391C377.14 76.5929 376.75 75.8343 376.031 75.1154L375.08 74.1655L370.92 78.3211L371.772 79.172ZM386.022 81.8908C386.894 82.7615 387.366 83.7213 387.439 84.7701L385.22 84.869C385.253 84.5854 385.197 84.2984 385.052 84.0082C384.92 83.718 384.758 83.4772 384.566 83.2859C384.276 82.9957 383.962 82.8143 383.626 82.7417C383.295 82.6758 383.021 82.7516 382.803 82.9693C382.612 83.1606 382.526 83.3981 382.546 83.6817C382.579 83.9653 382.714 84.3182 382.952 84.7404C383.487 85.7232 383.794 86.4191 383.873 86.8281C383.959 87.2436 383.939 87.6394 383.814 88.0154C383.701 88.3914 383.47 88.7541 383.12 89.1037C382.414 89.8095 381.605 90.1228 380.694 90.0437C379.789 89.9711 378.927 89.5259 378.109 88.708C377.164 87.7647 376.672 86.6862 376.633 85.4725L378.941 85.3637C378.842 86.1487 379.069 86.8182 379.624 87.3722C379.921 87.6691 380.238 87.8538 380.575 87.9263C380.918 88.0055 381.202 87.9329 381.427 87.7086C381.796 87.3393 381.763 86.739 381.328 85.9079C380.766 84.8591 380.446 84.1302 380.367 83.7213C380.294 83.3057 380.307 82.9165 380.406 82.5537C380.506 82.191 380.727 81.8381 381.07 81.4951C381.744 80.8222 382.539 80.5221 383.457 80.5947C384.382 80.6738 385.237 81.1059 386.022 81.8908ZM397.592 93.4485L386.905 98.1878L386.133 96.7235L396.81 91.9742L397.592 93.4485ZM406.597 102.444C407.059 102.905 407.413 103.436 407.657 104.037C407.914 104.637 408.007 105.237 407.934 105.837L405.775 105.62C405.834 104.914 405.583 104.281 405.022 103.72C404.441 103.139 403.741 102.869 402.922 102.909C402.117 102.948 401.387 103.294 400.733 103.948C400.106 104.574 399.756 105.293 399.684 106.104C399.617 106.909 399.875 107.602 400.456 108.182C401.077 108.802 401.81 109.033 402.655 108.875L402.982 111.121C402.361 111.24 401.714 111.187 401.04 110.963C400.38 110.738 399.776 110.352 399.228 109.805C398.112 108.69 397.541 107.44 397.514 106.055C397.495 104.676 398.033 103.44 399.129 102.345C400.212 101.263 401.447 100.729 402.833 100.742C404.22 100.755 405.474 101.322 406.597 102.444ZM414.368 110.563L410.406 120.615L408.663 118.874L409.544 116.786L406.821 114.065L404.75 114.965L403.047 113.264L413.09 109.286L414.368 110.563ZM408.613 113.244L410.327 114.956L411.644 111.918L408.613 113.244ZM421.67 117.5C422.541 118.371 423.014 119.331 423.086 120.38L420.868 120.479C420.901 120.195 420.844 119.908 420.699 119.618C420.567 119.328 420.405 119.087 420.214 118.896C419.923 118.605 419.61 118.424 419.273 118.351C418.943 118.285 418.669 118.361 418.451 118.579C418.259 118.77 418.173 119.008 418.193 119.291C418.226 119.575 418.362 119.928 418.599 120.35C419.134 121.333 419.441 122.029 419.521 122.438C419.606 122.853 419.587 123.249 419.461 123.625C419.349 124.001 419.118 124.364 418.768 124.713C418.061 125.419 417.252 125.732 416.341 125.653C415.436 125.581 414.575 125.136 413.756 124.318C412.812 123.374 412.32 122.296 412.28 121.082L414.588 120.973C414.489 121.758 414.717 122.428 415.271 122.982C415.569 123.279 415.885 123.463 416.222 123.536C416.566 123.615 416.85 123.543 417.074 123.318C417.444 122.949 417.411 122.349 416.975 121.518C416.414 120.469 416.093 119.74 416.014 119.331C415.942 118.915 415.955 118.526 416.054 118.163C416.153 117.801 416.374 117.448 416.717 117.105C417.391 116.432 418.187 116.132 419.105 116.204C420.029 116.283 420.884 116.716 421.67 117.5ZM427.318 123.499L420.305 130.504L418.76 128.96L425.773 121.955L427.318 123.499ZM431.813 127.99L429.922 135.836L429.941 135.855L434.815 130.988L436.36 132.531L429.347 139.536L427.327 137.518L429.258 129.474L429.238 129.454L424.246 134.441L422.701 132.897L429.714 125.892L431.813 127.99ZM442.366 138.175C443.489 139.296 444.063 140.543 444.09 141.915C444.116 143.287 443.575 144.527 442.465 145.635C441.363 146.737 440.118 147.274 438.731 147.248C437.351 147.215 436.106 146.644 434.997 145.536C433.875 144.415 433.303 143.165 433.284 141.786C433.264 140.408 433.802 139.171 434.898 138.076C435.994 136.981 437.229 136.44 438.602 136.453C439.983 136.473 441.237 137.047 442.366 138.175ZM436.503 139.679C435.823 140.358 435.476 141.107 435.463 141.925C435.463 142.743 435.783 143.472 436.423 144.112C437.077 144.765 437.813 145.078 438.632 145.051C439.458 145.032 440.2 144.692 440.861 144.032C441.534 143.36 441.874 142.611 441.881 141.786C441.894 140.968 441.577 140.236 440.93 139.59C440.283 138.943 439.547 138.63 438.721 138.65C437.903 138.676 437.163 139.019 436.503 139.679Z" fill="#00B6E0"/>
<circle cx="442" cy="234.878" r="4" fill="#00B6E0"/>
<path d="M442 233.878V179.378" stroke="#00B6E0" stroke-width="2.5"/>
<path d="M462.594 298.09L459.633 304.274L459.653 304.294L465.853 301.346L468.181 303.671L461.168 310.676L459.623 309.132L465.001 303.76L464.981 303.74L457.761 307.272L456.582 306.095L460.187 298.951L460.168 298.931L454.789 304.304L453.244 302.761L460.257 295.755L462.594 298.09ZM472.126 307.612L465.113 314.617L463.568 313.074L470.581 306.069L472.126 307.612ZM476.899 312.38C478.18 313.66 478.873 314.966 478.979 316.298C479.091 317.637 478.589 318.864 477.473 319.979C476.793 320.658 476.017 321.097 475.146 321.295C474.287 321.493 473.413 321.443 472.521 321.146C471.636 320.843 470.821 320.319 470.075 319.573L467.509 317.011L474.522 310.005L476.899 312.38ZM471.333 317.98C472.138 318.785 472.931 319.214 473.71 319.266C474.502 319.319 475.242 319.003 475.928 318.317C476.549 317.697 476.826 316.991 476.76 316.199C476.701 315.401 476.311 314.643 475.592 313.924L474.641 312.974L470.481 317.129L471.333 317.98ZM481.047 324.419L479.858 325.607L477.422 323.173L478.61 321.985L481.047 324.419ZM490.535 325.645C490.997 326.107 491.35 326.638 491.595 327.238C491.852 327.838 491.945 328.439 491.872 329.039L489.713 328.821C489.772 328.115 489.521 327.482 488.96 326.922C488.379 326.341 487.679 326.071 486.86 326.11C486.054 326.15 485.325 326.496 484.671 327.149C484.044 327.776 483.694 328.495 483.621 329.306C483.555 330.111 483.813 330.803 484.394 331.384C485.014 332.004 485.747 332.235 486.593 332.076L486.92 334.322C486.299 334.441 485.652 334.388 484.978 334.164C484.318 333.94 483.714 333.554 483.166 333.007C482.05 331.892 481.479 330.642 481.452 329.257C481.432 327.878 481.97 326.641 483.067 325.546C484.149 324.464 485.384 323.93 486.771 323.943C488.158 323.957 489.412 324.524 490.535 325.645ZM498.306 333.408C499.428 334.529 500.003 335.776 500.029 337.148C500.056 338.52 499.514 339.76 498.405 340.868C497.302 341.97 496.057 342.507 494.671 342.481C493.291 342.448 492.046 341.877 490.937 340.769C489.814 339.648 489.243 338.398 489.223 337.019C489.203 335.641 489.741 334.404 490.838 333.309C491.934 332.214 493.168 331.673 494.542 331.686C495.922 331.706 497.177 332.28 498.306 333.408ZM492.442 334.912C491.762 335.591 491.415 336.34 491.402 337.158C491.402 337.976 491.722 338.705 492.363 339.344C493.017 339.997 493.753 340.311 494.572 340.284C495.397 340.265 496.14 339.925 496.8 339.265C497.474 338.593 497.814 337.844 497.82 337.019C497.834 336.201 497.517 335.469 496.87 334.823C496.222 334.176 495.486 333.863 494.661 333.883C493.842 333.909 493.102 334.252 492.442 334.912ZM506.715 342.165C507.574 343.022 508.036 343.853 508.102 344.658C508.174 345.456 507.867 346.198 507.181 346.884C506.666 347.399 506.104 347.689 505.497 347.755C504.896 347.827 504.312 347.672 503.744 347.29L502.565 352.029L500.713 350.179L502.05 345.915L501.287 345.153L498.484 347.953L496.939 346.409L503.952 339.404L506.715 342.165ZM503.556 344.806C504.011 345.262 504.391 345.522 504.695 345.588C505.012 345.654 505.309 345.548 505.586 345.271C506.127 344.731 506.012 344.074 505.239 343.302L504.189 342.254L502.595 343.847L503.556 344.806ZM516.188 351.628L514.762 353.053L511.543 349.837L510.236 351.143L513.276 354.181L511.85 355.605L508.809 352.568L507.383 353.993L510.78 357.386L509.354 358.811L504.412 353.874L511.424 346.869L516.188 351.628Z" fill="#00B6E0"/>
<circle cx="453" cy="234.878" r="4" transform="rotate(-180 453 234.878)" fill="#00B6E0"/>
<path d="M453 235.878L453 281.878" stroke="#00B6E0" stroke-width="2.5"/>
<path d="M431.516 69.7527L428.554 75.9366L428.574 75.9564L434.774 73.0079L437.102 75.3331L430.089 82.3382L428.544 80.7947L433.922 75.4221L433.903 75.4023L426.682 78.9346L425.503 77.7572L429.109 70.6135L429.089 70.5937L423.711 75.9663L422.165 74.4228L429.178 67.4177L431.516 69.7527ZM444.345 82.5691L442.919 83.9939L439.7 80.7782L438.393 82.0843L441.433 85.1218L440.007 86.5466L436.966 83.509L435.54 84.9338L438.937 88.3275L437.511 89.7523L432.569 84.8151L439.581 77.81L444.345 82.5691ZM449.515 87.7327C450.373 88.5902 450.835 89.4213 450.901 90.2261C450.974 91.0242 450.667 91.7663 449.98 92.4523C449.465 92.9668 448.904 93.257 448.296 93.323C447.695 93.3955 447.111 93.2405 446.543 92.858L445.365 97.5973L443.512 95.7471L444.849 91.4826L444.087 90.7208L441.284 93.5209L439.739 91.9774L446.751 84.9722L449.515 87.7327ZM446.355 90.3745C446.811 90.8296 447.19 91.0902 447.494 91.1561C447.811 91.2221 448.108 91.1166 448.385 90.8395C448.927 90.2986 448.811 89.6423 448.039 88.8706L446.989 87.8218L445.394 89.4148L446.355 90.3745ZM457.76 95.6129C458.955 96.8068 459.582 98.0337 459.642 99.2935L457.363 99.3925C457.396 98.5416 457.053 97.7566 456.333 97.0377C455.686 96.3912 454.947 96.0746 454.115 96.0878C453.296 96.101 452.553 96.4407 451.886 97.1069C451.213 97.7797 450.869 98.5251 450.856 99.343C450.849 100.168 451.17 100.903 451.817 101.549C452.345 102.077 452.943 102.443 453.61 102.648L454.749 101.51L453.491 100.253L454.917 98.8285L457.661 101.569L453.996 105.23C452.708 104.841 451.506 104.089 450.391 102.974C449.261 101.846 448.684 100.596 448.657 99.2243C448.637 97.8457 449.179 96.6056 450.282 95.504C451.384 94.4025 452.622 93.8649 453.996 93.8913C455.376 93.9111 456.631 94.4849 457.76 95.6129ZM467.687 105.886L466.261 107.311L463.042 104.095L461.735 105.401L464.775 108.439L463.349 109.864L460.308 106.826L458.882 108.251L462.279 111.645L460.853 113.07L455.911 108.132L462.923 101.127L467.687 105.886Z" fill="#00B6E0"/>
<circle cx="469" cy="234.878" r="4" fill="#00B6E0"/>
<path d="M469 235.378V137.378" stroke="#00B6E0" stroke-width="2.5"/>
<path d="M489.594 298.09L486.633 304.274L486.653 304.294L492.853 301.346L495.181 303.671L488.168 310.676L486.623 309.132L492.001 303.76L491.981 303.74L484.761 307.272L483.582 306.095L487.187 298.951L487.168 298.931L481.789 304.304L480.244 302.761L487.257 295.755L489.594 298.09ZM501.186 309.67L497.224 319.723L495.481 317.981L496.363 315.894L493.639 313.173L491.569 314.073L489.865 312.371L499.908 308.394L501.186 309.67ZM495.431 312.351L497.145 314.063L498.462 311.026L495.431 312.351ZM509.926 318.401L508.559 319.766L506.559 317.768L500.913 323.407L499.368 321.864L505.013 316.224L503.013 314.226L504.38 312.86L509.926 318.401ZM515.287 323.4C515.749 323.861 516.102 324.392 516.347 324.993C516.604 325.593 516.697 326.193 516.624 326.793L514.465 326.576C514.524 325.87 514.273 325.237 513.712 324.676C513.131 324.096 512.431 323.825 511.612 323.865C510.807 323.904 510.077 324.251 509.423 324.904C508.796 325.53 508.446 326.249 508.373 327.061C508.307 327.865 508.565 328.558 509.146 329.138C509.767 329.758 510.5 329.989 511.345 329.831L511.672 332.077C511.051 332.196 510.404 332.143 509.73 331.919C509.07 331.694 508.466 331.308 507.918 330.761C506.802 329.646 506.231 328.396 506.204 327.011C506.184 325.632 506.723 324.396 507.819 323.301C508.902 322.219 510.136 321.685 511.523 321.698C512.91 321.711 514.164 322.278 515.287 323.4ZM521.017 329.48L518.403 332.092L521.404 335.09L524.019 332.478L525.564 334.022L518.551 341.027L517.006 339.483L520.037 336.456L517.036 333.458L514.005 336.486L512.46 334.942L519.472 327.937L521.017 329.48Z" fill="#00B6E0"/>
<path d="M477 234.878C477 232.669 478.791 230.878 481 230.878C483.209 230.878 485 232.669 485 234.878C485 237.087 483.209 238.878 481 238.878C478.791 238.878 477 237.087 477 234.878Z" fill="#00B6E0"/>
<path d="M481 235.378L481 281.378" stroke="#00B6E0" stroke-width="2.5"/>
<path d="M468.842 67.0823L464.88 77.1348L463.137 75.3934L464.018 73.3057L461.295 70.5848L459.224 71.4852L457.521 69.7834L467.564 65.8059L468.842 67.0823ZM463.087 69.7636L464.801 71.4753L466.118 68.4378L463.087 69.7636ZM474.049 72.2835L471.186 78.606L471.206 78.6258L477.565 75.796L479.219 77.4483L469.314 81.5644L468.076 80.3276L472.286 70.5224L474.049 72.2835ZM485.767 83.9895L484.341 85.4142L481.122 82.1986L479.814 83.5046L482.855 86.5422L481.429 87.9669L478.388 84.9294L476.962 86.3542L480.359 89.7479L478.933 91.1727L473.99 86.2354L481.003 79.2303L485.767 83.9895ZM490.936 89.1531C491.795 90.0106 492.257 90.8417 492.323 91.6464C492.395 92.4446 492.088 93.1867 491.402 93.8727C490.887 94.3872 490.325 94.6774 489.718 94.7433C489.117 94.8159 488.533 94.6609 487.965 94.2783L486.786 99.0177L484.934 97.1674L486.271 92.903L485.508 92.1412L482.705 94.9412L481.16 93.3977L488.173 86.3926L490.936 89.1531ZM487.777 91.7949C488.232 92.25 488.612 92.5105 488.916 92.5765C489.233 92.6425 489.53 92.5369 489.807 92.2599C490.348 91.719 490.233 91.0627 489.46 90.2909L488.41 89.2421L486.816 90.8351L487.777 91.7949ZM499.171 97.3795L495.209 107.432L493.466 105.691L494.348 103.603L491.624 100.882L489.554 101.782L487.85 100.081L497.894 96.1032L499.171 97.3795ZM493.417 100.061L495.13 101.773L496.448 98.7351L493.417 100.061ZM507.513 105.356C508.708 106.55 509.336 107.777 509.395 109.037L507.117 109.136C507.15 108.285 506.807 107.5 506.087 106.781C505.44 106.135 504.7 105.818 503.868 105.831C503.049 105.845 502.307 106.184 501.64 106.85C500.966 107.523 500.623 108.269 500.61 109.087C500.603 109.911 500.923 110.647 501.57 111.293C502.099 111.821 502.696 112.187 503.363 112.391L504.502 111.253L503.244 109.997L504.671 108.572L507.414 111.313L503.749 114.974C502.462 114.584 501.26 113.832 500.144 112.718C499.015 111.59 498.437 110.34 498.411 108.968C498.391 107.589 498.932 106.349 500.035 105.248C501.138 104.146 502.376 103.608 503.749 103.635C505.129 103.655 506.384 104.228 507.513 105.356ZM517.441 115.63L516.015 117.055L512.796 113.839L511.488 115.145L514.529 118.183L513.103 119.607L510.062 116.57L508.636 117.995L512.033 121.388L510.607 122.813L505.664 117.876L512.677 110.871L517.441 115.63Z" fill="#FC326C"/>
<circle cx="501" cy="233.878" r="4" fill="#FC326C"/>
<path d="M501 281.378V149.378" stroke="#FC326C" stroke-width="2.5"/>
<path d="M559.842 299.337L555.88 309.39L554.137 307.648L555.019 305.561L552.295 302.84L550.225 303.74L548.521 302.038L558.565 298.061L559.842 299.337ZM554.088 302.018L555.801 303.73L557.118 300.693L554.088 302.018ZM567.352 306.839C568.211 307.697 568.673 308.528 568.739 309.332C568.811 310.131 568.504 310.873 567.818 311.559C567.303 312.073 566.741 312.363 566.134 312.429C565.533 312.502 564.949 312.347 564.381 311.964L563.202 316.704L561.35 314.853L562.687 310.589L561.924 309.827L559.121 312.627L557.576 311.084L564.589 304.079L567.352 306.839ZM564.193 309.481C564.648 309.936 565.028 310.197 565.332 310.262C565.649 310.328 565.946 310.223 566.223 309.946C566.764 309.405 566.649 308.749 565.876 307.977L564.826 306.928L563.232 308.521L564.193 309.481ZM575.587 314.709C576.05 315.171 576.403 315.702 576.647 316.302C576.905 316.903 576.997 317.503 576.924 318.103L574.765 317.885C574.825 317.18 574.574 316.546 574.012 315.986C573.431 315.405 572.731 315.135 571.913 315.174C571.107 315.214 570.377 315.56 569.724 316.213C569.096 316.84 568.746 317.559 568.674 318.37C568.608 319.175 568.865 319.868 569.446 320.448C570.067 321.068 570.8 321.299 571.645 321.141L571.972 323.387C571.351 323.505 570.704 323.453 570.031 323.228C569.37 323.004 568.766 322.618 568.218 322.071C567.102 320.956 566.531 319.706 566.505 318.321C566.485 316.942 567.023 315.705 568.119 314.61C569.202 313.529 570.437 312.994 571.823 313.008C573.21 313.021 574.465 313.588 575.587 314.709ZM583.358 322.828L579.396 332.881L577.653 331.139L578.535 329.052L575.811 326.331L573.741 327.231L572.037 325.529L582.081 321.552L583.358 322.828ZM577.604 325.51L579.317 327.221L580.634 324.184L577.604 325.51ZM590.482 329.944C591.763 331.224 592.456 332.53 592.562 333.862C592.674 335.201 592.172 336.428 591.056 337.543C590.376 338.223 589.6 338.661 588.729 338.859C587.87 339.057 586.995 339.007 586.104 338.711C585.219 338.407 584.404 337.883 583.657 337.137L581.092 334.575L588.105 327.57L590.482 329.944ZM584.915 335.544C585.721 336.349 586.513 336.778 587.293 336.831C588.085 336.883 588.824 336.567 589.511 335.881C590.132 335.261 590.409 334.555 590.343 333.764C590.284 332.965 589.894 332.207 589.174 331.488L588.224 330.538L584.064 334.694L584.915 335.544ZM601.434 340.885L600.008 342.31L596.789 339.094L595.482 340.4L598.522 343.438L597.096 344.863L594.055 341.825L592.629 343.25L596.026 346.644L594.6 348.069L589.658 343.131L596.67 336.126L601.434 340.885ZM611.287 350.372L600.6 355.111L599.828 353.647L610.505 348.897L611.287 350.372ZM620.292 359.723L616.33 369.776L614.587 368.034L615.468 365.946L612.745 363.226L610.675 364.126L608.971 362.424L619.014 358.447L620.292 359.723ZM614.537 362.404L616.251 364.116L617.568 361.079L614.537 362.404ZM628.624 367.69C629.086 368.152 629.44 368.683 629.684 369.283C629.941 369.883 630.034 370.483 629.961 371.084L627.802 370.866C627.861 370.16 627.61 369.527 627.049 368.966C626.468 368.386 625.768 368.115 624.949 368.155C624.144 368.195 623.414 368.541 622.76 369.194C622.133 369.821 621.783 370.54 621.711 371.351C621.645 372.156 621.902 372.848 622.483 373.429C623.104 374.049 623.837 374.28 624.682 374.121L625.009 376.367C624.388 376.486 623.741 376.433 623.067 376.209C622.407 375.985 621.803 375.599 621.255 375.051C620.139 373.937 619.568 372.687 619.541 371.301C619.522 369.923 620.06 368.686 621.156 367.591C622.239 366.509 623.474 365.975 624.86 365.988C626.247 366.001 627.502 366.569 628.624 367.69ZM637.712 377.125L636.345 378.49L634.345 376.492L628.699 382.131L627.154 380.588L632.8 374.948L630.799 372.949L632.166 371.584L637.712 377.125ZM641.013 380.422L634 387.427L632.455 385.883L639.468 378.878L641.013 380.422ZM646.994 386.041C648.117 387.162 648.691 388.409 648.718 389.781C648.744 391.153 648.203 392.393 647.093 393.501C645.991 394.603 644.746 395.14 643.359 395.114C641.979 395.081 640.734 394.51 639.625 393.402C638.503 392.281 637.931 391.031 637.912 389.652C637.892 388.274 638.43 387.037 639.526 385.942C640.622 384.847 641.857 384.306 643.23 384.319C644.61 384.339 645.865 384.913 646.994 386.041ZM641.131 387.545C640.451 388.224 640.104 388.973 640.091 389.791C640.091 390.609 640.411 391.337 641.051 391.977C641.705 392.63 642.441 392.944 643.26 392.917C644.086 392.897 644.828 392.558 645.489 391.898C646.162 391.225 646.502 390.477 646.509 389.652C646.522 388.834 646.205 388.102 645.558 387.456C644.911 386.809 644.175 386.496 643.349 386.516C642.531 386.542 641.791 386.885 641.131 387.545ZM654.74 394.135L652.848 401.981L652.868 402L657.741 397.132L659.286 398.676L652.274 405.681L650.253 403.663L652.185 395.619L652.165 395.599L647.173 400.586L645.628 399.042L652.64 392.037L654.74 394.135Z" fill="#00B6E0"/>
<circle cx="553" cy="234.878" r="4" transform="rotate(-180 553 234.878)" fill="#00B6E0"/>
<path d="M553 235.878L553 281.878" stroke="#00B6E0" stroke-width="2.5"/>
<path d="M522.812 63.699C523.684 64.5697 524.156 65.5295 524.229 66.5782L522.01 66.6772C522.043 66.3936 521.987 66.1066 521.841 65.8164C521.709 65.5262 521.548 65.2854 521.356 65.0941C521.066 64.8039 520.752 64.6225 520.415 64.5499C520.085 64.484 519.811 64.5598 519.593 64.7775C519.402 64.9688 519.316 65.2062 519.336 65.4899C519.369 65.7735 519.504 66.1264 519.742 66.5486C520.277 67.5314 520.584 68.2273 520.663 68.6363C520.749 69.0518 520.729 69.4476 520.603 69.8236C520.491 70.1995 520.26 70.5623 519.91 70.9119C519.204 71.6177 518.395 71.931 517.483 71.8519C516.579 71.7793 515.717 71.3341 514.898 70.5162C513.954 69.5729 513.462 68.4944 513.422 67.2807L515.73 67.1719C515.631 67.9568 515.859 68.6264 516.414 69.1804C516.711 69.4773 517.028 69.662 517.365 69.7345C517.708 69.8137 517.992 69.7411 518.216 69.5168C518.586 69.1475 518.553 68.5472 518.117 67.7161C517.556 66.6673 517.236 65.9384 517.157 65.5295C517.084 65.1139 517.097 64.7247 517.196 64.3619C517.295 63.9991 517.516 63.6463 517.86 63.3033C518.533 62.6304 519.329 62.3303 520.247 62.4029C521.171 62.482 522.026 62.9141 522.812 63.699ZM528.46 69.6971L521.447 76.7022L519.902 75.1587L526.915 68.1536L528.46 69.6971ZM533.193 74.4256L530.232 80.6095L530.252 80.6292L536.452 77.6808L538.78 80.0059L531.767 87.011L530.222 85.4675L535.6 80.095L535.581 80.0752L528.36 83.6074L527.181 82.43L530.787 75.2863L530.767 75.2666L525.389 80.6391L523.843 79.0956L530.856 72.0905L533.193 74.4256ZM542.745 83.9669L538.476 88.2314C538.04 88.6667 537.816 89.1614 537.803 89.7155C537.803 90.2696 538.001 90.7445 538.397 91.1403C538.8 91.5426 539.278 91.7306 539.833 91.7042C540.401 91.6779 540.889 91.4602 541.299 91.0512L545.568 86.7868L547.113 88.3303L542.775 92.664C541.916 93.5215 540.962 93.9469 539.912 93.9403C538.862 93.9337 537.882 93.4753 536.971 92.565C536.066 91.6614 535.604 90.6851 535.584 89.6363C535.571 88.581 535.997 87.6212 536.862 86.7571L541.2 82.4234L542.745 83.9669ZM551.136 92.3495L545.55 97.9298L548.413 100.789L546.986 102.214L542.579 97.8111L549.591 90.8059L551.136 92.3495ZM559.428 100.632L555.466 110.685L553.723 108.943L554.604 106.856L551.88 104.135L549.81 105.035L548.107 103.333L558.15 99.3557L559.428 100.632ZM553.673 103.313L555.387 105.025L556.704 101.988L553.673 103.313ZM568.168 109.363L566.801 110.728L564.8 108.73L559.154 114.369L557.609 112.826L563.255 107.186L561.254 105.187L562.621 103.822L568.168 109.363ZM571.468 112.66L564.456 119.665L562.911 118.121L569.923 111.116L571.468 112.66ZM577.45 118.279C578.572 119.4 579.147 120.647 579.173 122.019C579.2 123.391 578.658 124.631 577.549 125.739C576.446 126.841 575.201 127.378 573.815 127.352C572.435 127.319 571.19 126.748 570.081 125.64C568.958 124.519 568.387 123.269 568.367 121.89C568.347 120.512 568.885 119.275 569.982 118.18C571.078 117.085 572.312 116.544 573.686 116.557C575.066 116.577 576.321 117.151 577.45 118.279ZM571.586 119.783C570.906 120.462 570.559 121.211 570.546 122.029C570.546 122.847 570.866 123.575 571.507 124.215C572.161 124.868 572.897 125.182 573.716 125.155C574.541 125.135 575.284 124.796 575.944 124.136C576.618 123.463 576.958 122.715 576.964 121.89C576.978 121.072 576.661 120.34 576.013 119.694C575.366 119.047 574.63 118.734 573.805 118.754C572.986 118.78 572.246 119.123 571.586 119.783ZM585.195 126.373L583.304 134.219L583.324 134.238L588.197 129.37L589.742 130.914L582.729 137.919L580.709 135.901L582.64 127.857L582.62 127.837L577.628 132.824L576.083 131.28L583.096 124.275L585.195 126.373Z" fill="#00B6E0"/>
<circle cx="586" cy="234.877" r="4" fill="#00B6E0"/>
<path d="M586 234.877V155.877" stroke="#00B6E0" stroke-width="2.5"/>
<path d="M603.208 296.705L599.83 302.315L599.85 302.335L605.813 299.307L607.249 300.742L604.089 306.807L604.109 306.827L609.903 303.394L611.468 304.957L602.405 309.914L601.029 308.539L604.337 302.147L604.317 302.127L597.918 305.432L596.591 304.106L601.524 295.023L603.208 296.705ZM616.737 309.865C617.86 310.986 618.434 312.233 618.461 313.605C618.487 314.977 617.946 316.217 616.837 317.325C615.734 318.426 614.489 318.964 613.102 318.938C611.722 318.905 610.478 318.334 609.368 317.226C608.246 316.105 607.675 314.855 607.655 313.476C607.635 312.097 608.173 310.861 609.269 309.766C610.365 308.671 611.6 308.13 612.974 308.143C614.354 308.163 615.608 308.737 616.737 309.865ZM610.874 311.369C610.194 312.048 609.847 312.797 609.834 313.615C609.834 314.432 610.154 315.161 610.795 315.801C611.448 316.454 612.185 316.768 613.003 316.741C613.829 316.721 614.572 316.382 615.232 315.722C615.905 315.049 616.246 314.301 616.252 313.476C616.265 312.658 615.948 311.926 615.301 311.28C614.654 310.633 613.918 310.32 613.093 310.34C612.274 310.366 611.534 310.709 610.874 311.369ZM625.147 318.621C626.005 319.479 626.468 320.31 626.534 321.115C626.606 321.913 626.299 322.655 625.612 323.341C625.097 323.855 624.536 324.146 623.929 324.212C623.328 324.284 622.743 324.129 622.175 323.747L620.997 328.486L619.145 326.636L620.482 322.371L619.719 321.609L616.916 324.409L615.371 322.866L622.383 315.861L625.147 318.621ZM621.987 321.263C622.443 321.718 622.823 321.979 623.126 322.045C623.443 322.111 623.74 322.005 624.018 321.728C624.559 321.187 624.444 320.531 623.671 319.759L622.621 318.71L621.027 320.303L621.987 321.263ZM632.174 325.641C633.455 326.92 634.148 328.226 634.254 329.559C634.366 330.898 633.864 332.125 632.748 333.239C632.068 333.919 631.292 334.358 630.421 334.555C629.562 334.753 628.687 334.704 627.796 334.407C626.911 334.104 626.095 333.579 625.349 332.834L622.784 330.271L629.797 323.266L632.174 325.641ZM626.607 331.241C627.413 332.046 628.205 332.474 628.984 332.527C629.777 332.58 630.516 332.263 631.203 331.577C631.824 330.957 632.101 330.251 632.035 329.46C631.976 328.662 631.586 327.903 630.866 327.184L629.915 326.234L625.755 330.39L626.607 331.241Z" fill="#00B6E0"/>
<circle cx="599" cy="234.878" r="4" transform="rotate(-180 599 234.878)" fill="#00B6E0"/>
<path d="M599 235.878L599 281.878" stroke="#00B6E0" stroke-width="2.5"/>
<g style="mix-blend-mode:multiply" opacity="0.5" clip-path="url(#clip0_3651_5582)">
<path d="M82.3014 433.851L81.2849 430.923H75.6732C75.5186 431.375 75.3547 431.868 75.186 432.398L74.7223 433.851H72.0007L77.0269 420.279H79.9452L84.8403 433.851H82.2967H82.3014ZM78.4697 423.226C78.1324 424.148 77.8045 425.039 77.4954 425.907C77.1862 426.775 76.8443 427.693 76.4789 428.671H80.4792L78.4697 423.226V423.226Z" fill="#666666"/>
<path d="M93.0097 420.32H87.8898V433.878H90.2553V429.26H93.0097C95.8155 429.26 97.1787 428.109 97.1787 425.738V423.819C97.1787 421.462 95.8155 420.32 93.0097 420.32V420.32ZM90.2553 422.454H92.9535C94.5555 422.454 94.8131 422.865 94.8131 423.842V425.743C94.8131 426.702 94.5461 427.131 92.9535 427.131H90.2553V422.454Z" fill="#666666"/>
<path d="M105.034 420.32H99.9143V433.878H102.28V429.26H105.034C107.84 429.26 109.203 428.109 109.203 425.738V423.819C109.203 421.462 107.84 420.32 105.034 420.32V420.32ZM102.28 422.454H104.978C106.58 422.454 106.838 422.865 106.838 423.842V425.743C106.838 426.702 106.571 427.131 104.978 427.131H102.28V422.454Z" fill="#666666"/>
<path d="M116.197 432.526H122.619V433.883H114.796V420.339H116.197V432.526V432.526Z" fill="#666666"/>
<path d="M134.924 429.94C134.924 432.197 133.486 434.052 129.898 434.052C126.31 434.052 124.872 432.202 124.872 429.94V424.203C124.872 421.946 126.31 420.092 129.898 420.092C133.486 420.092 134.924 421.942 134.924 424.203V429.94ZM126.174 429.959C126.174 431.905 127.392 432.996 129.95 432.996C132.507 432.996 133.721 431.905 133.721 429.959V424.18C133.721 422.234 132.503 421.142 129.95 421.142C127.397 421.142 126.174 422.234 126.174 424.18V429.959Z" fill="#666666"/>
<path d="M137.056 420.339H138.447L142.939 432.526L147.441 420.339H148.865L143.871 433.888H142.026L137.06 420.339H137.056Z" fill="#666666"/>
<path d="M153.17 433.888H151.769V420.339H153.17V433.888Z" fill="#666666"/>
<path d="M159.882 421.965V433.883H158.566V420.339H160.632L166.679 431.933V420.339H167.995V433.888H166.323L159.878 421.97L159.882 421.965Z" fill="#666666"/>
<path d="M61.5081 432.097C59.7702 432.097 58.3556 433.476 58.3556 435.171C58.3556 436.866 59.7702 438.245 61.5081 438.245C63.246 438.245 64.6606 436.866 64.6606 435.171C64.6606 433.476 63.246 432.097 61.5081 432.097V432.097ZM63.3724 435.171C63.3724 436.176 62.5339 436.989 61.5081 436.989C60.4822 436.989 59.6438 436.171 59.6438 435.171C59.6438 434.171 60.4822 433.353 61.5081 433.353C62.5339 433.353 63.3724 434.171 63.3724 435.171Z" fill="#666666"/>
<path d="M40.1525 432.097C38.4146 432.097 37 433.476 37 435.171C37 436.866 38.4146 438.245 40.1525 438.245C41.8904 438.245 43.305 436.866 43.305 435.171C43.305 433.476 41.8904 432.097 40.1525 432.097V432.097ZM42.0168 435.171C42.0168 436.176 41.1784 436.989 40.1525 436.989C39.1267 436.989 38.2882 436.171 38.2882 435.171C38.2882 434.171 39.1267 433.353 40.1525 433.353C41.1784 433.353 42.0168 434.171 42.0168 435.171Z" fill="#666666"/>
<path d="M50.8326 415.25C49.0947 415.25 47.6801 416.63 47.6801 418.324C47.6801 420.019 49.0947 421.399 50.8326 421.399C52.5704 421.399 53.9851 420.019 53.9851 418.324C53.9851 416.63 52.5704 415.25 50.8326 415.25ZM52.6969 418.324C52.6969 419.329 51.8584 420.142 50.8326 420.142C49.8067 420.142 48.9682 419.325 48.9682 418.324C48.9682 417.324 49.8067 416.506 50.8326 416.506C51.8584 416.506 52.6969 417.324 52.6969 418.324Z" fill="#666666"/>
<path d="M60.3416 432.44L53.3761 420.211L53.3105 420.092L53.2215 420.198C52.9826 420.49 52.6875 420.723 52.3549 420.901L52.2706 420.947L52.3175 421.029L58.482 431.855C56.3319 431.385 53.6572 431.129 50.9169 431.129C47.8955 431.129 45.2114 431.38 43.1316 431.851L49.3008 421.024L49.3476 420.942L49.2633 420.896C48.9261 420.723 48.6356 420.485 48.3967 420.193L48.3077 420.088L48.2422 420.207L41.2767 432.435L41.2205 432.531L41.3235 432.568C41.6655 432.682 41.9793 433.098 42.2557 433.335L42.3025 433.376L42.3587 433.349H42.3822C44.6025 432.746 47.5583 432.426 50.9216 432.426C53.9476 432.426 56.8846 432.75 59.1986 433.34L59.2455 433.427L59.3345 433.358L59.3532 433.344C59.6343 433.102 59.9481 432.687 60.2901 432.572L60.3931 432.536L60.3369 432.44H60.3416Z" fill="#666666"/>
</g>
<defs>
<clipPath id="clip0_3651_5582">
<rect width="131" height="23" fill="white" transform="translate(37 415.25)"/>
</clipPath>
</defs>
</svg>
