<svg width="384" height="480" viewBox="0 0 384 480" fill="none" xmlns="http://www.w3.org/2000/svg">
<g clip-path="url(#clip0_6776_5041)">
<path d="M402.05 22.54C367.18 -1.02 345.4 -36.64 338.5 -75C326.04 -38.02 299.27 -5.82001 261.3 12.59C223.34 31 181.48 32.1 144.73 18.99C170.57 48.17 185.07 87.32 181.97 129.28C178.88 171.25 158.79 207.95 128.94 233.2C167.24 225.39 208.5 232.35 243.38 255.9C278.25 279.46 300.03 315.08 306.93 353.44C319.39 316.46 346.16 284.26 384.13 265.85C422.09 247.44 463.95 246.34 500.71 259.46C474.87 230.28 460.37 191.13 463.47 149.17C466.56 107.2 486.65 70.5 516.5 45.25C478.2 53.06 436.93 46.1 402.06 22.55L402.05 22.54Z" fill="#A15AF0"/>
<path d="M24.19 122.49C11.85 117.59 -0.440001 112.35 -12.34 106.92L-14 110.56C-2.04 116.01 10.31 121.28 22.72 126.21C75.1 147.02 127.26 161.53 173.77 168.44C174.22 167.16 174.66 165.88 175.07 164.59C128.69 157.77 76.57 143.3 24.19 122.5V122.49Z" fill="white"/>
<path d="M201.85 -7.09998L199.8 -3.65998C213.73 4.65002 226.61 13.08 238.36 21.5C239.95 21.03 241.54 20.53 243.12 20C230.54 10.85 216.74 1.78002 201.85 -7.09998Z" fill="white"/>
<path d="M230.96 173.03C280.05 173.03 311.79 160.63 320.94 137.62C328.24 119.25 320.37 95.67 298.2 69.43C284.52 53.24 265.84 36.52 243.14 20.01C241.56 20.54 239.97 21.03 238.38 21.51C298.26 64.46 328.6 107.51 317.22 136.15C307.95 159.5 272.6 171.08 217.67 168.74C204.18 168.17 189.92 166.76 175.08 164.58C174.66 165.87 174.23 167.16 173.78 168.43C189.03 170.7 203.67 172.15 217.51 172.74C222.13 172.94 226.62 173.03 230.97 173.03H230.96Z" fill="#7B32CD"/>
</g>
<defs>
<clipPath id="clip0_6776_5041">
<rect width="530.49" height="555.01" fill="white" transform="translate(-14 -75)"/>
</clipPath>
</defs>
</svg>
