<svg width="384" height="401" viewBox="0 0 384 401" fill="none" xmlns="http://www.w3.org/2000/svg">
<path d="M320.58 44.6161L40.2395 119.733L115.357 400.074L395.697 324.957L320.58 44.6161Z" fill="#57A5FF"/>
<path d="M246.29 -82.0209L127.78 182.911L392.712 301.421L511.221 36.4889L246.29 -82.0209Z" fill="#57A5FF"/>
<path d="M437.82 37.06L275.68 21.49L355.57 147.89L317.6 161.07L218.61 61.35L115.26 206.55L90.1301 191.91L102.84 102.96L98.64 104.08L85.79 194.01L116.4 211.85L219.12 67.53L316.54 165.67L361.65 150.02L283.42 26.25L437.43 41.04L437.82 37.06Z" fill="#105FFB"/>
<path d="M112.86 32.84L-54 101.5L-52.48 105.2L107.91 39.2L98.64 104.08L102.84 102.96L112.86 32.84Z" fill="white"/>
</svg>
