<svg width="155" height="40" viewBox="0 0 155 40" fill="none" xmlns="http://www.w3.org/2000/svg">
<g id="logo_kayac_white">
<g id="Group 1221">
<path id="Vector" d="M67.7935 19.6024L77.7056 13.7653C77.779 13.7286 77.779 13.6551 77.7423 13.5817C77.7056 13.545 77.6688 13.5083 77.6321 13.5083H72.4925C72.1621 13.5083 71.8317 13.5817 71.538 13.7653L64.7097 17.5833L66.1048 14.0223C66.1782 13.8754 66.1048 13.6919 65.9212 13.6184C65.8845 13.6184 65.8478 13.5817 65.8111 13.5817L61.626 13.545C61.5159 13.545 61.369 13.6184 61.3323 13.7286L56.7801 25.4762C56.7067 25.623 56.7801 25.8066 56.9636 25.88C57.0004 25.88 57.0371 25.9167 57.0738 25.9167H61.2956C61.4057 25.9167 61.5526 25.8433 61.5893 25.7332L63.3147 21.2911L68.1973 25.5863C68.491 25.8433 68.8948 25.9902 69.2987 25.9902H73.7774C73.8509 25.9902 73.8876 25.9167 73.8876 25.88C73.8876 25.8433 73.8876 25.8066 73.8509 25.8066L67.7935 19.7859C67.7201 19.7492 67.7201 19.6391 67.7935 19.6024Z" fill="#999999"/>
<path id="Vector_2" d="M96.2442 13.4712H80.1279C79.9077 13.4712 79.7241 13.618 79.6507 13.8016L75.2453 25.2922C75.1719 25.5125 75.282 25.7695 75.5023 25.8429C75.539 25.8796 75.6124 25.8796 75.6491 25.8796H78.6228C78.8063 25.8796 78.9899 25.7695 79.0633 25.6226L80.1646 23.5668C80.238 23.42 80.4216 23.3098 80.6052 23.3098L87.5803 23.2731C87.874 23.2731 88.0943 23.4934 88.0943 23.7871C88.0943 23.8238 88.0943 23.8605 88.0943 23.8972L87.8006 25.4391C87.7639 25.7328 87.9474 25.9898 88.2044 26.0265C88.2411 26.0265 88.2778 26.0265 88.3146 26.0265H91.8755C92.0958 26.0265 92.2794 25.8796 92.3528 25.6961L96.7214 14.2054C96.8316 13.9484 96.6847 13.6547 96.4278 13.5446C96.3543 13.5079 96.2809 13.4712 96.2442 13.4712ZM90.4071 17.9133L89.9298 19.1615C89.6729 19.7855 89.0488 20.1894 88.388 20.2628H82.147C81.5229 20.2628 81.2293 19.7855 81.4495 19.1615L81.9268 17.9133C82.1838 17.2892 82.7711 16.8853 83.4686 16.8119H89.7096C90.3337 16.8119 90.6641 17.3259 90.4071 17.9133Z" fill="#999999"/>
<path id="Vector_3" d="M133.984 13.4712H117.868C117.648 13.4712 117.464 13.618 117.391 13.8016L112.986 25.2922C112.912 25.5125 113.022 25.7695 113.243 25.8429C113.279 25.8796 113.353 25.8796 113.389 25.8796H116.363C116.547 25.8796 116.73 25.7695 116.804 25.6226L117.905 23.5668C117.978 23.3833 118.162 23.3098 118.345 23.3098L125.321 23.2731C125.614 23.2731 125.835 23.4934 125.835 23.7871C125.835 23.8238 125.835 23.8605 125.835 23.8972L125.541 25.4391C125.504 25.7328 125.688 25.9898 125.945 26.0265C125.981 26.0265 126.018 26.0265 126.055 26.0265H129.616C129.836 26.0265 130.02 25.8796 130.093 25.6961L134.462 14.2054C134.572 13.9484 134.425 13.6547 134.168 13.5446C134.131 13.5079 134.058 13.4712 133.984 13.4712ZM128.184 17.9133L127.707 19.1615C127.45 19.7855 126.862 20.1894 126.165 20.2628H119.924C119.3 20.2628 119.006 19.7855 119.226 19.1615L119.704 17.9133C119.961 17.2892 120.548 16.8853 121.246 16.8119H127.487C128.111 16.8119 128.404 17.3259 128.184 17.9133Z" fill="#999999"/>
<path id="Vector_4" d="M98.6682 13.6183H103.037C103.147 13.6183 103.257 13.6918 103.331 13.7652L105.717 17.5465C105.827 17.73 106.084 17.7667 106.267 17.6566L106.304 17.6199L110.93 13.7285C111.077 13.5816 111.297 13.5449 111.48 13.5449H115.041C115.188 13.5449 115.298 13.6551 115.298 13.8019C115.298 13.8753 115.262 13.9487 115.225 13.9855L107.332 20.8138C107.222 20.9239 107.149 21.034 107.075 21.1442L104.983 25.366C104.799 25.7698 104.395 26.0268 103.955 26.0268H100.54C100.21 26.0268 99.9164 25.7331 99.9164 25.4027C99.9164 25.3293 99.9164 25.2558 99.9531 25.1824L101.642 21.034C101.715 20.8505 101.715 20.6669 101.605 20.5201L98.3745 14.1323C98.3011 13.9487 98.3745 13.7652 98.5214 13.6918C98.5581 13.6551 98.5948 13.6183 98.6682 13.6183Z" fill="#999999"/>
<path id="Vector_5" d="M137.288 14.169L133.103 25.1824C132.992 25.5128 133.139 25.8432 133.47 25.9534C133.543 25.9901 133.617 25.9901 133.69 25.9901H149.439C149.659 25.9901 149.88 25.8799 149.953 25.6597L150.981 23.5671C151.128 23.2734 151.018 22.943 150.724 22.7962C150.651 22.7595 150.54 22.7228 150.467 22.7228H139.6C139.6 22.7228 139.343 19.3453 141.62 16.8857H152.523C152.78 16.8857 153 16.7755 153.11 16.5553L154.285 14.6096C154.469 14.2791 154.395 13.8753 154.065 13.6551C153.955 13.5816 153.844 13.5449 153.698 13.5449H138.242C137.802 13.5449 137.435 13.8019 137.288 14.169Z" fill="#999999"/>
<path id="Vector_6" d="M45.7301 4C45.7301 4 43.7844 8.36865 37.7638 11.1587C36.589 11.7094 35.3408 12.1132 34.0926 12.4436L34.7902 10.5346C34.9737 10.0574 34.7167 9.5067 34.2395 9.32314C33.7622 9.13959 33.2116 9.39657 33.028 9.87381L31.9267 12.8841C29.9443 13.2145 27.9251 13.3614 25.906 13.3614L26.9706 10.4245C27.1542 9.94724 26.8972 9.39657 26.42 9.21301C25.9427 9.02945 25.3921 9.28643 25.2085 9.76368L23.9236 13.3247C22.0513 13.2513 20.2158 12.9576 18.4169 12.517L19.1511 10.4979C19.3347 10.0207 19.0777 9.46999 18.6005 9.28643C18.1232 9.10288 17.5725 9.35986 17.389 9.8371L16.6548 11.9296C9.23907 9.35986 6.59585 4 6.59585 4C3.14498 6.12926 0.832169 9.61683 0.171365 13.5817C-1.0034 20.3733 4.02605 27.0547 10.2303 28.7802C10.2303 28.7802 9.82645 29.1106 9.3492 30.5423C8.87195 31.974 7.88075 34.3603 7.88075 34.4704C7.88075 34.5805 7.58706 35.4983 9.23907 35.4249C10.8911 35.3515 11.1481 34.5071 11.2215 34.3236C11.2949 34.14 12.6165 30.4689 12.7266 30.2119C12.8001 29.9916 12.8368 29.7714 12.8001 29.5144C14.1951 29.9549 15.6635 30.2486 17.132 30.322H17.1687C16.9117 31.093 16.2509 33.002 16.0674 33.4058C15.8471 33.9197 15.1496 35.3882 16.5079 35.3882C17.8662 35.3882 18.527 35.5718 18.8941 34.6907C19.1878 33.9932 20.0689 31.6069 20.3993 30.6524C21.6108 30.7626 23.116 30.836 24.768 30.8727C24.4743 31.7538 23.997 33.0387 23.8869 33.4058C23.6666 33.9197 22.9691 35.3882 24.3274 35.3882C25.6857 35.3882 26.3465 35.5718 26.7137 34.6907C26.9706 34.0666 27.7416 32.0108 28.1454 30.9094C31.633 30.8727 35.4877 30.5423 38.9385 29.6979C48.3734 27.3851 52.3382 22.0253 52.3749 15.4539C52.4116 8.88261 47.6391 5.17476 45.7301 4Z" fill="#999999"/>
</g>
</g>
</svg>
