<svg width="24" height="24" viewBox="0 0 24 24" fill="none" xmlns="http://www.w3.org/2000/svg">
<g id="UI icon/check_circle_fill">
<rect width="24" height="24" rx="12" fill="#E59325"/>
<path id="Vector" fill-rule="evenodd" clip-rule="evenodd" d="M24 12C24 18.6274 18.6274 24 12 24C5.37258 24 0 18.6274 0 12C0 5.37258 5.37258 0 12 0C18.6274 0 24 5.37258 24 12ZM10.485 15.9449C10.49 15.945 10.495 15.945 10.5 15.945H10.47C10.475 15.945 10.48 15.945 10.485 15.9449ZM9.84 15.675C10.0162 15.8513 10.25 15.9412 10.485 15.9449C10.72 15.9412 10.9538 15.8513 11.13 15.675L17.7 9.10501C17.865 8.92501 17.97 8.70001 17.97 8.44501C17.97 7.93501 17.565 7.51501 17.04 7.51501C16.8 7.51501 16.56 7.60501 16.38 7.78501L10.485 13.68L7.59 10.785C7.41 10.62 7.185 10.515 6.93 10.515C6.42 10.515 6 10.92 6 11.445C6 11.685 6.09 11.925 6.27 12.105L9.84 15.675Z" fill="#F1E1CC"/>
</g>
</svg>
