<?xml version="1.0" encoding="utf-8"?>
<!-- Generator: Adobe Illustrator 15.0.2, SVG Export Plug-In . SVG Version: 6.00 Build 0)  -->
<!DOCTYPE svg PUBLIC "-//W3C//DTD SVG 1.1//EN" "http://www.w3.org/Graphics/SVG/1.1/DTD/svg11.dtd">
<svg version="1.1" id="Layer_1" xmlns="http://www.w3.org/2000/svg" xmlns:xlink="http://www.w3.org/1999/xlink" x="0px" y="0px"
	 width="31px" height="31px" viewBox="0 0 31 31" enable-background="new 0 0 31 31" xml:space="preserve">
<rect x="9.4" y="13.4" fill="#FFFFFF" width="2.7" height="8"/>
<path fill="#FFFFFF" d="M10.8,12.3L10.8,12.3c-0.9,0-1.5-0.6-1.5-1.4c0-0.8,0.6-1.4,1.5-1.4c0.9,0,1.5,0.6,1.5,1.4
	C12.3,11.7,11.7,12.3,10.8,12.3"/>
<path fill="#FFFFFF" d="M21.7,21.4H19V17.1c0-1.1-0.4-1.8-1.4-1.8c-0.699,0-1.199,0.5-1.398,1C16.1,16.5,16.1,16.7,16.1,17v4.5h-2.7
	c0,0,0-7.3,0-8h2.7v1.1c0.4-0.5,1-1.3,2.4-1.3c1.8,0,3.1,1.1,3.1,3.601v4.5H21.7L21.7,21.4z"/>
<path fill="#FFFFFF" d="M15.5,31C7,31,0,24,0,15.5S7,0,15.5,0S31,7,31,15.5S24,31,15.5,31z M15.5,1.5c-7.7,0-14,6.3-14,14
	s6.3,14,14,14s14-6.3,14-14S23.2,1.5,15.5,1.5z"/>
</svg>
