<svg width="28" height="24" viewBox="0 0 28 24" fill="none" xmlns="http://www.w3.org/2000/svg">
<path d="M23.5809 0H4.41913C3.77643 0.0010965 3.16049 0.254424 2.70682 0.704253C2.25314 1.15408 1.9989 1.76356 2 2.39862V21.6014C1.99886 22.2364 2.25309 22.846 2.70678 23.2958C3.16046 23.7456 3.77642 23.9989 4.41913 24H23.585C24.2277 23.9978 24.8432 23.7434 25.2961 23.2928C25.749 22.8422 26.0022 22.2323 26 21.5972V2.39862C26.0011 1.76356 25.7468 1.15408 25.2932 0.704253C24.8395 0.254424 24.2236 0.0010965 23.5809 0ZM9.70127 18.9862H6.46694V8.72138H9.70127V18.9862ZM8.06526 7.46207C7.04624 7.46207 6.39015 6.74897 6.39015 5.86759C6.38737 4.96552 7.06718 4.27586 8.10713 4.27586C9.14709 4.27586 9.78642 4.96552 9.80736 5.86759C9.80736 6.74897 9.14849 7.46207 8.06526 7.46207ZM21.4912 18.9959H18.2624V13.2979C18.2624 11.9752 17.7948 11.0731 16.6264 11.0731C15.733 11.0731 15.2026 11.6814 14.9695 12.269C14.8863 12.5268 14.8499 12.7972 14.862 13.0676V18.9862H11.6318V12C11.6318 10.72 11.5899 9.65517 11.5481 8.72552H14.3525L14.5018 10.1531H14.5632C14.982 9.48138 16.029 8.49793 17.7738 8.49793C19.897 8.49793 21.4912 9.90483 21.4912 12.9269V18.9959Z" fill="#829BC4"/>
</svg>
