<?xml version="1.0" encoding="utf-8"?>
<!-- Generator: Adobe Illustrator 23.0.0, SVG Export Plug-In . SVG Version: 6.00 Build 0)  -->
<svg version="1.1" id="Layer_1" xmlns="http://www.w3.org/2000/svg" xmlns:xlink="http://www.w3.org/1999/xlink" x="0px" y="0px"
	 viewBox="0 0 14.9 11.4" style="enable-background:new 0 0 14.9 11.4;" xml:space="preserve">
<style type="text/css">
	.st0{fill:#FFFFFF;}
</style>
<title>Asset 1</title>
<g>
	<g id="Layer_1-2">
		<path class="st0" d="M8.9,0c0.4,0.1,0.8,0.3,1,0.7c1.5,1.5,3.2,3.1,5,5c-3.7,3.7-5.6,5.6-5.6,5.6c-0.1,0.1-0.2,0.1-0.3,0.1H8.7
			c-0.3,0-0.5-0.2-0.7-0.7c0-0.1,0-0.2,0-0.3c0-0.3,0.2-0.6,0.7-1l2.9-2.9H1c-0.4,0-0.8-0.2-1-0.6C0,6,0,5.8,0,5.7
			C0,5.3,0.3,5,0.7,4.9c0.1,0,0.3,0,0.4,0h10.4C9.2,2.5,8,1.4,8,1.3C8,1.2,7.9,1,7.9,0.9c0-0.4,0.2-0.7,0.7-0.9H8.9z"/>
	</g>
</g>
</svg>
