<svg width="132" height="32" viewBox="0 0 132 32" fill="none" xmlns="http://www.w3.org/2000/svg">
<path d="M129.352 29.963C129.353 29.963 129.355 29.963 129.357 29.963C129.68 29.963 129.946 29.6973 129.946 29.3745C129.946 29.3632 129.946 29.3519 129.944 29.3406C129.944 28.8993 129.679 28.6884 129.131 28.6884H128.249V30.9994H128.581V29.9919H128.989L128.998 30.0042L129.632 30.9994H129.987L129.306 29.9694L129.352 29.963ZM128.967 29.7314H128.581V28.9503H129.07C129.322 28.9503 129.609 28.9914 129.609 29.3215C129.609 29.7012 129.319 29.7314 128.965 29.7314H128.967ZM0 4.69447H4.90085V22.5466H13.9742V27.0694H0V4.69447ZM16.1409 11.8985H20.8492V27.061H16.1409V11.8985ZM18.495 4.36047C19.9931 4.36076 21.2258 5.59358 21.2258 7.09175C21.2258 8.59006 19.9928 9.82301 18.4945 9.82301C16.9962 9.82301 15.7633 8.59006 15.7633 7.09175C15.7633 5.59343 16.9962 4.36047 18.4945 4.36047C18.4947 4.36047 18.4948 4.36047 18.495 4.36047ZM40.5442 4.69106H45.2525V18.0629L50.5886 11.8917H56.3611L50.1815 18.9114L56.231 27.0674H50.3134L45.3153 19.5724H45.2535V27.0664H40.5452L40.5442 4.69106ZM23.4598 11.9001H27.9811V13.9722H28.0454C28.9642 12.3978 30.6818 11.4542 32.5035 11.5229C37.278 11.5229 38.1568 14.6642 38.1568 18.7451V27.06H33.4485V19.6882C33.4485 17.9286 33.4162 15.6666 30.9964 15.6666C28.5491 15.6666 28.1714 17.5828 28.1714 19.5602V27.0581H23.4632L23.4598 11.9001Z" fill="#999999"/>
<path d="M66.2674 17.7238C66.2678 17.7017 66.2681 17.6793 66.2681 17.6572C66.2681 16.1085 64.9938 14.8342 63.4452 14.8342C63.4223 14.8342 63.3996 14.8345 63.3767 14.8351C61.6761 14.7292 60.1835 16.0251 60.0496 17.7238H66.2674ZM70.2557 24.4428C68.6722 26.3629 66.3058 27.4717 63.8171 27.4596C59.1089 27.4596 55.3394 24.3167 55.3394 19.4501C55.3394 14.5835 59.1084 11.4422 63.8171 11.4422C68.2178 11.4422 70.9775 14.581 70.9775 19.4501V20.9264H60.0496C60.3296 22.6495 61.8525 23.9165 63.5978 23.8784C64.9581 23.8699 66.2249 23.1713 66.9579 22.0255L70.2557 24.4428ZM80.7913 15.5712C78.4373 15.5712 77.0248 17.1431 77.0248 19.4335C77.0248 21.7239 78.4367 23.2971 80.7913 23.2971C83.146 23.2971 84.5614 21.7277 84.5614 19.4335C84.5614 17.1391 83.1484 15.5712 80.7913 15.5712ZM88.8959 27.0657H84.5614V25.0549H84.4972C83.3957 26.5363 81.6623 27.4205 79.8163 27.4424C75.2925 27.4424 72.3125 24.1774 72.3125 19.5604C72.3125 15.3202 74.9497 11.4264 79.2846 11.4264C81.2332 11.4264 83.0533 11.9595 84.121 13.4372H84.1828V4.6971H88.8953L88.8959 27.0657ZM120.681 27.0746H115.973V19.7012C115.973 17.943 115.941 15.6796 113.524 15.6796C111.072 15.6796 110.696 17.5952 110.696 19.5732V27.074H105.988V11.9115H110.508V13.9836H110.572C111.492 12.4101 113.209 11.4668 115.031 11.5344C119.803 11.5344 120.683 14.6732 120.683 18.7567L120.681 27.0746ZM100.676 9.83886C100.676 9.83886 100.675 9.83886 100.675 9.83886C99.1764 9.83886 97.943 8.60562 97.943 7.10674C97.943 5.60786 99.1764 4.37447 100.675 4.37447C102.174 4.37447 103.407 5.60757 103.408 7.10617C103.408 7.10631 103.408 7.10645 103.408 7.10674C103.408 8.60533 102.174 9.83872 100.676 9.83886ZM103.03 27.0746H98.3168V11.9115H103.03V27.0746ZM123.028 0.00219215H95.9508C94.6798 -0.0121628 93.6216 1.02139 93.6061 2.29244V29.4821C93.6211 30.7538 94.6791 31.7885 95.9508 31.7749H123.028C124.303 31.7909 125.365 30.7564 125.382 29.4821V2.29059C125.365 1.01684 124.301 -0.0165698 123.028 0.000201286V0.00219215ZM128.999 27.6665C127.818 27.6779 126.853 28.6523 126.853 29.8331C126.853 31.0219 127.831 32 129.019 32C130.208 32 131.186 31.0219 131.186 29.8331C131.186 28.6523 130.221 27.6779 129.04 27.6665H128.999ZM128.999 31.7518C128.987 31.752 128.978 31.7521 128.966 31.7521C127.924 31.7521 127.067 30.8945 127.067 29.8522C127.067 28.8099 127.924 27.9522 128.966 27.9522C129.997 27.9522 130.849 28.7903 130.866 29.8205V29.8524C130.888 30.8719 130.068 31.7288 129.049 31.7508H128.999" fill="#999999"/>
</svg>
