<?xml version="1.0" encoding="UTF-8"?> <svg xmlns="http://www.w3.org/2000/svg" width="64" height="64" viewBox="0 0 64 64" fill="none"><path d="M33.0201 32.1215H4.72413L4.49054 31.8527C1.5979 28.5279 0.00439453 24.2687 0.00439453 19.8624C0.00439453 8.89278 11.2294 0 22.1983 0H60.8586C63.7384 0 65.0951 3.55839 62.9416 5.47519L33.0201 32.1215Z" fill="#FF33CA"></path><path d="M30.982 31.8784H59.2812L59.5148 32.1472C62.4074 35.472 64.0009 39.7312 64.0009 44.1376C64.0009 55.1072 52.7759 64 41.807 64H3.14674C0.266906 64 -1.08982 60.4416 1.06366 58.5248L30.9852 31.8784H30.982Z" fill="#DC33FF"></path><path d="M61.1913 22.2398H36.3799C34.4952 22.2398 33.0137 20.6238 33.1769 18.7454L34.5272 3.27026C34.7864 0.30707 31.0394 -1.18413 29.1899 1.14867L0.612327 37.2222C-0.843591 39.059 0.465134 41.763 2.8074 41.763H27.6188C29.5035 41.763 30.985 43.379 30.8218 45.2574L29.4715 60.7325C29.2123 63.6957 32.9593 65.1869 34.8088 62.8541L63.3864 26.7806C64.8423 24.9438 63.5336 22.2398 61.1913 22.2398Z" fill="#AF0E91"></path></svg> 