<svg width="64" height="64" viewBox="0 0 64 64" fill="none" xmlns="http://www.w3.org/2000/svg">
<path d="M32 64C49.6731 64 64 49.6731 64 32C64 14.3269 49.6731 0 32 0C14.3269 0 0 14.3269 0 32C0 49.6731 14.3269 64 32 64Z" fill="black"/>
<path d="M18.7183 48.256C18.1191 48.2523 17.534 48.0744 17.0341 47.744C16.2324 47.2118 9.14864 42.3815 8.09769 36.5339C7.68533 34.3612 8.20345 32.1152 9.5259 30.3427C12.0893 26.8328 16.9364 26.213 24.2493 28.5002L32.1314 13.9048C32.6807 12.8904 33.75 12.2672 34.9034 12.2891C36.0567 12.3111 37.1015 12.9746 37.6118 14.0092L52.2813 43.8097C52.8995 45.0671 52.5928 46.5832 51.5345 47.5015C50.4762 48.4198 48.932 48.5097 47.7743 47.7204C42.584 44.2509 37.1929 41.0914 31.6295 38.2585C29.9857 37.4366 28.48 36.7427 27.1057 36.1532L21.4333 46.6391C21.0224 47.402 20.3098 47.957 19.4695 48.1684C19.2238 48.2292 18.9714 48.2586 18.7183 48.256ZM16.7882 33.3036C15.4813 33.3036 14.7672 33.6067 14.4876 33.9772C14.1601 34.3873 14.0362 34.9237 14.1507 35.4358C14.4371 37.0391 16.0977 38.9591 17.755 40.4884L21.2379 34.0513C19.7935 33.6098 18.2976 33.3584 16.7882 33.3036ZM30.0531 30.7099C31.4431 31.3162 32.9027 32 34.432 32.7612C37.0931 34.0918 39.6733 35.5099 41.9773 36.8471L34.715 22.0935L30.0531 30.7099Z" fill="white"/>
</svg>
