<?xml version="1.0" encoding="utf-8"?>
<!-- Generator: Adobe Illustrator 26.3.1, SVG Export Plug-In . SVG Version: 6.00 Build 0)  -->
<svg version="1.1" id="Layer_1" xmlns="http://www.w3.org/2000/svg" xmlns:xlink="http://www.w3.org/1999/xlink" x="0px" y="0px"
	 viewBox="0 0 121 40" style="enable-background:new 0 0 121 40;" xml:space="preserve">
<style type="text/css">
	.st0{fill:#FFFFFF;}
</style>
<path class="st0" d="M9.7,7c0.5,0.3,1.2-0.5,1.4-0.5c0.1,0,0.2,0.1,0.2,0.2c0.4,0.6,0.5,1.5,1.1,1.9c0,0,0.1,0.1,0.2,0.1
	c0.1,0,0.1,0,0.2,0c0.2,0,0.3-0.2,0.3-0.3c0.2-0.4,0-3.7-0.2-4c-0.1-0.2-0.3-0.4-0.5-0.3c-0.2,0.1-0.8,0.7-1.1,0.5
	c-0.3-0.2,0.1-2.1-0.2-2.3c-0.6-0.5-1.6-0.3-1.9,0C8.8,2.6,8.8,6.4,9.7,7z"/>
<path class="st0" d="M0.9,15.6c0.8,0.6,3.1,2,3.4,1.4s0.2-1.2,0.1-1.6S5,15.3,5,15.3s1,0.1,1.5,0c0.5-0.1,0.9-0.4,0.5-0.9
	c-0.5-0.6-3.3-1.8-3.9-1.7c-0.6,0.2-0.4,1.1-0.4,1.2c0,0.2-0.1,0.2-0.2,0.2l-0.8-0.5c-0.3-0.2-0.7-0.4-1-0.3C0.3,13.6,0,14.3,0,14.7
	c0,0.3,0.3,0.5,0.5,0.6C0.6,15.5,0.7,15.6,0.9,15.6z"/>
<path class="st0" d="M4.4,10.1c0.3,0,0.4-0.4,0.5-0.7C5.2,8.7,6,9.7,6.2,10.1c0.4,0.5,0.7,1.1,1.2,1.4c0.8,0.4,0.7-0.8,0.7-1.3
	C8,9.4,6.6,7.1,6.3,6.7c-0.2-0.3-0.4-1-0.9-0.8c-0.4,0.1-0.4,0.8-0.6,1c-0.2,0.2-1-1.4-1.4-1.8C3.3,5,3,4.8,2.7,5
	C2.5,5.1,1.4,6.3,1.6,7.1S3.7,10.1,4.4,10.1z"/>
<path class="st0" d="M34.2,19.3l1.7-0.2l-0.7-2.8L34.2,19.3z"/>
<path class="st0" d="M44.5,14.6l-0.9,0.1c0,0.2-0.1,2.1-0.1,2.1l0.9-0.1c0.8-0.1,1.4-0.7,1.3-1.4C45.6,14.9,45.3,14.6,44.5,14.6z"/>
<path class="st0" d="M26.8,16.7l-0.8,0.1l-0.1,2.1l0.8-0.1c0.8-0.1,1.4-0.6,1.3-1.4C27.9,16.9,27.5,16.6,26.8,16.7z"/>
<path class="st0" d="M64.2,8.4c-1-3.1-4.4-4.3-7.3-4.7c-3.2-0.5-6.4-0.1-9.6,0.3c-4.3,0.5-8.5,1-12.8,1.5C31,5.9,27.4,6.1,24,6.9
	c-3.7,0.8-7.2,2.4-10.2,4.7c-1,0.7-1.9,1.6-2.7,2.6c-1.5,1.9-2.4,4.2-2.8,6.6c-0.2,1.2-0.3,2.4-0.2,3.6c0.1,3.6,0.7,7.3,2.9,10.2
	c0.7,0.9,1.5,1.7,2.3,2.5c0.3,0.3,1.4,1.3,1.9,0.9c0.4-0.3,0.1-1.3,0.1-1.7c-0.1-0.7-0.3-1.6-0.1-2.3c0.4-1.3,2.1-1.3,3.2-1.2
	c9,0.1,17.8-1.4,26.7-2.3c2.2-0.2,4.4-0.5,6.6-0.7c3.2-0.3,6.2-0.5,9.2-1.9c0.7-0.3,1.3-0.7,1.8-1.2c1.2-1.4,1.5-3.8,1.7-5.6
	c0.3-2.1,0.4-4.2,0.4-6.3C64.7,12.7,64.8,10.3,64.2,8.4z M18.3,25.5c-1.2,0.1-2.3-0.1-3.3-0.8c0,0-0.1,0-0.1-0.1c0,0,0-0.1,0-0.1
	c0,0,0-0.1,0-0.1c0,0,0-0.1,0.1-0.1l1.1-1.7c0,0,0-0.1,0.1-0.1c0,0,0.1,0,0.1-0.1s0.1,0,0.1,0c0,0,0.1,0,0.1,0
	c0.5,0.4,1.2,0.5,1.8,0.5c0.6-0.1,0.9-0.4,0.8-0.7c-0.1-1.2-3.4-0.7-3.8-3.6c-0.2-1.8,1.1-3.3,3.3-3.5c0.9-0.1,1.9,0,2.8,0.5
	c0,0,0.1,0,0.1,0.1c0,0,0,0.1,0,0.1c0,0,0,0.1,0,0.1c0,0,0,0.1,0,0.1l-1.2,1.8c0,0.1-0.1,0.1-0.2,0.1c-0.1,0-0.2,0-0.2,0
	c-0.5-0.2-0.8-0.4-1.3-0.3c-0.4,0-0.7,0.3-0.7,0.6c0.1,1,3.4,0.4,3.8,3.5C21.8,23.2,20.7,25.2,18.3,25.5z M27.2,21.1l-1.5,0.2
	l-0.1,2.9c0,0,0,0.1,0,0.1c0,0,0,0.1-0.1,0.1c0,0-0.1,0.1-0.1,0.1c0,0-0.1,0-0.1,0l-2,0.2c-0.2,0-0.3-0.1-0.3-0.3l0.4-9.5
	c0,0,0-0.1,0-0.1c0,0,0-0.1,0.1-0.1c0,0,0.1-0.1,0.1-0.1s0.1,0,0.1,0l3.4-0.4c1.7-0.2,3.1,0.8,3.4,2.7
	C30.8,19.1,29.1,20.9,27.2,21.1z M39,22.9l-2.1,0.2c-0.2,0-0.3,0-0.4-0.2l-0.3-1.4l-2.7,0.3l-0.4,1.5c0,0.1-0.1,0.2-0.1,0.2
	c-0.1,0.1-0.2,0.1-0.3,0.1l-2.1,0.2c-0.2,0-0.2-0.1-0.2-0.3l3.2-9.8c0-0.1,0.1-0.2,0.1-0.2c0.1-0.1,0.1-0.1,0.2-0.1l2.7-0.3
	c0.2,0,0.3,0.1,0.3,0.3l2.3,9.2c0,0,0,0.1,0,0.1c0,0,0,0.1,0,0.1c0,0,0,0.1-0.1,0.1C39.1,22.9,39.1,22.9,39,22.9L39,22.9z
	 M48.2,21.6c0.1,0.2,0,0.3-0.2,0.3l-2.2,0.3c-0.1,0-0.2,0-0.3,0c-0.1,0-0.2-0.1-0.2-0.2l-1.6-2.7l-0.4,0l-0.1,2.9c0,0,0,0.1,0,0.1
	c0,0,0,0.1-0.1,0.1c0,0-0.1,0.1-0.1,0.1c0,0-0.1,0-0.1,0l-2,0.2c-0.2,0-0.3-0.1-0.3-0.3l0.4-9.5c0-0.1,0-0.2,0.1-0.2
	c0.1-0.1,0.1-0.1,0.2-0.1l3.6-0.4c1.7-0.2,3,1,3.2,2.6c0.2,1.9-1.1,3.2-1.8,3.6L48.2,21.6z M58.7,10.9l-3.4,4.4l3.2,5.1
	c0.1,0.1,0,0.3-0.1,0.3L56.1,21c-0.1,0-0.2,0-0.3,0c-0.1,0-0.2-0.1-0.2-0.2l-2.2-3.4l-0.9,1.1l-0.1,2.6c0,0,0,0.1,0,0.1
	c0,0,0,0.1-0.1,0.1c0,0-0.1,0.1-0.1,0.1c0,0-0.1,0-0.1,0l-2,0.2c-0.2,0-0.3-0.1-0.3-0.3l0.4-9.5c0,0,0-0.1,0-0.1c0,0,0-0.1,0.1-0.1
	c0,0,0.1-0.1,0.1-0.1c0,0,0.1,0,0.1,0l2-0.2c0.2,0,0.3,0.1,0.3,0.3l-0.2,3.3l2.8-3.6c0.1-0.1,0.1-0.2,0.2-0.2
	c0.1-0.1,0.2-0.1,0.3-0.1l2.6-0.3C58.8,10.6,58.9,10.7,58.7,10.9L58.7,10.9z"/>
<path class="st0" d="M105.1,16.3c0.3-0.3,0.6-0.6,0.8-1c0.2-0.4,0.3-0.9,0.3-1.3c0-2.1-1.5-3.4-3.8-3.4h-4.6v11.8h4.9
	c2.4,0,3.9-1.4,3.9-3.5c0-0.5-0.1-1.1-0.4-1.5C105.9,17,105.6,16.6,105.1,16.3z M100.9,19.8c0,0.1,0,0.2-0.1,0.2
	c-0.1,0.1-0.2,0.1-0.2,0.1c0,0-0.1,0-0.1,0c0,0-0.1,0-0.1-0.1c0,0-0.1-0.1-0.1-0.1c0,0,0-0.1,0-0.1v-6.6c0-0.1,0-0.2,0.1-0.2
	c0.1-0.1,0.2-0.1,0.2-0.1c0,0,0.1,0,0.1,0s0.1,0,0.1,0.1c0,0,0.1,0.1,0.1,0.1c0,0,0,0.1,0,0.1V19.8z"/>
<path class="st0" d="M74.5,10.6h-3.3v11.8h3.3V10.6z"/>
<path class="st0" d="M78.9,19h-3.7v3.4h3.7V19z"/>
<path class="st0" d="M89.8,10.6h-3.6l-3.8,11.8H85l2-6.1c0,0,0-0.1,0.1-0.1c0,0,0.1-0.1,0.1-0.1c0,0,0.1,0,0.1,0c0,0,0.1,0,0.1,0
	c0.1,0,0.2,0.1,0.2,0.2c0,0.1,0,0.2,0,0.3l-1.9,5.9h7.9L89.8,10.6z"/>
<path class="st0" d="M116,15.4l-0.7,0.4c0,0-0.1,0-0.2,0c-0.1,0-0.1,0-0.2,0c-0.1,0-0.1-0.1-0.1-0.1c0,0,0-0.1,0-0.1
	c0,0,0-0.1,0-0.1c0,0,0-0.1,0.1-0.1c0,0,0.1-0.1,0.1-0.1l3.8-2.2c-0.8-1.5-2.2-2.5-3.9-2.5c-2.6,0-4.7,1.7-4.7,4.5
	c0.1,2.1,2,3.3,3.5,2.4l0.8-0.5c0,0,0.1,0,0.1,0c0,0,0.1,0,0.1,0c0,0,0.1,0,0.1,0.1c0,0,0.1,0.1,0.1,0.1c0,0.1,0.1,0.2,0,0.2
	c0,0.1-0.1,0.2-0.1,0.2l-4.1,2.5c0.8,1.4,1.8,2.4,3.7,2.4c2.5,0,4.8-1.6,4.8-3.9C119.4,15.5,117.2,14.8,116,15.4z"/>
</svg>
