<?xml version="1.0" encoding="UTF-8"?> <svg xmlns="http://www.w3.org/2000/svg" width="169" height="32" viewBox="0 0 169 32" fill="none"><path d="M16.5101 16.0605H2.36206L2.24527 15.9261C0.798952 14.2637 0.00219727 12.1341 0.00219727 9.93093C0.00219727 4.44615 5.61468 -0.000244141 11.0992 -0.000244141H30.4293C31.8692 -0.000244141 32.5476 1.77895 31.4708 2.73735L16.5101 16.0605Z" fill="#FF33CA"></path><path d="M15.491 15.939H29.6406L29.7574 16.0734C31.2037 17.7358 32.0005 19.8654 32.0005 22.0686C32.0005 27.5533 26.388 31.9997 20.9035 31.9997H1.57337C0.133453 31.9997 -0.544908 30.2205 0.531831 29.2621L15.4926 15.939H15.491Z" fill="#DC33FF"></path><path d="M30.5957 11.1197H18.19C17.2476 11.1197 16.5068 10.3117 16.5884 9.37247L17.2636 1.63489C17.3932 0.153291 15.5197 -0.592308 14.595 0.57409L0.306163 18.6109C-0.421796 19.5293 0.232567 20.8812 1.4037 20.8812H13.8094C14.7517 20.8812 15.4925 21.6892 15.4109 22.6284L14.7357 30.366C14.6062 31.8476 16.4797 32.5932 17.4044 31.4268L31.6932 13.3901C32.4212 12.4717 31.7668 11.1197 30.5957 11.1197Z" fill="#AF0E91"></path><path d="M47.4539 18.4978L50.885 16.5092C51.5064 17.9509 52.5745 18.9195 54.539 18.9195C56.5035 18.9195 56.9005 18.1738 56.9005 17.5027C56.9005 16.4338 55.9062 16.0113 53.2962 15.2904C50.711 14.5687 48.1756 13.3267 48.1756 9.99502C48.1756 6.66336 51.0101 4.70044 54.017 4.70044C57.0239 4.70044 59.1127 6.06758 60.3797 8.62787L57.0239 10.5916C56.4282 9.34953 55.6063 8.57816 54.0162 8.57816C52.7742 8.57816 52.1519 9.19959 52.1519 9.89479C52.1519 10.6902 52.5745 11.2379 55.2831 12.0574C57.918 12.852 60.8768 13.7725 60.8768 17.4514C60.8768 20.8071 58.1922 22.7957 54.4139 22.7957C50.7591 22.7957 48.4218 21.0557 47.4531 18.4954L47.4539 18.4978Z" fill="black"></path><path d="M76.1158 16.2357C76.1158 19.9386 73.4313 22.7972 70.175 22.7972C68.5095 22.7972 67.2915 22.2255 66.4721 21.2809V27.4198H62.7427V10.0206H66.4713V11.1889C67.2907 10.2443 68.5095 9.67261 70.1742 9.67261C73.4305 9.67261 76.1158 12.532 76.1158 16.2349V16.2357ZM72.3873 16.2357C72.3873 14.3706 71.1452 13.2031 69.4293 13.2031C67.7133 13.2031 66.4713 14.3714 66.4713 16.2357C66.4713 18.1 67.7133 19.2675 69.4293 19.2675C71.1452 19.2675 72.3873 18.1 72.3873 16.2357Z" fill="black"></path><path d="M90.9844 10.0215V22.4501H87.2558V21.2818C86.4364 22.2264 85.2175 22.7981 83.5529 22.7981C80.2974 22.7981 77.6121 19.9395 77.6121 16.2366C77.6121 12.5337 80.2966 9.67432 83.5529 9.67432C85.2184 9.67432 86.4364 10.246 87.2558 11.1906V10.0223H90.9844V10.0215ZM87.2558 16.2366C87.2558 14.3715 86.0138 13.204 84.2978 13.204C82.5819 13.204 81.3398 14.3723 81.3398 16.2366C81.3398 18.1009 82.5819 19.2684 84.2978 19.2684C86.0138 19.2684 87.2558 18.1009 87.2558 16.2366Z" fill="black"></path><path d="M101.179 9.77368V13.9994C99.6371 13.75 97.4505 14.3715 97.4505 16.8323V22.45H93.7219V10.0215H97.4505V12.2337C97.9468 10.5691 99.6131 9.77368 101.179 9.77368Z" fill="black"></path><path d="M110.627 22.4501L106.65 16.9574V22.4501H102.922V5.05005H106.65V15.4652L110.379 10.0215H114.728L110.203 16.2366L114.852 22.4501H110.627Z" fill="black"></path><path d="M126.538 18.6213V22.4493H116.347V5.04932H120.323V18.6213H126.538Z" fill="black"></path><path d="M140.783 10.0215V22.4501H137.054V21.2818C136.235 22.2264 135.016 22.7981 133.352 22.7981C130.096 22.7981 127.411 19.9395 127.411 16.2366C127.411 12.5337 130.095 9.67432 133.352 9.67432C135.017 9.67432 136.235 10.246 137.054 11.1906V10.0223H140.783V10.0215ZM137.054 16.2366C137.054 14.3715 135.812 13.204 134.096 13.204C132.38 13.204 131.138 14.3723 131.138 16.2366C131.138 18.1009 132.38 19.2684 134.096 19.2684C135.812 19.2684 137.054 18.1009 137.054 16.2366Z" fill="black"></path><path d="M156.894 16.2358C156.894 19.9388 154.209 22.7973 150.953 22.7973C149.287 22.7973 148.069 22.2256 147.25 21.281V22.4493H143.521V5.04932H147.25V11.1882C148.069 10.2437 149.288 9.67195 150.953 9.67195C154.208 9.67275 156.894 12.5321 156.894 16.2358ZM153.164 16.2358C153.164 14.3708 151.922 13.2033 150.206 13.2033C148.49 13.2033 147.248 14.3716 147.248 16.2358C147.248 18.1001 148.49 19.2676 150.206 19.2676C151.922 19.2676 153.164 18.1001 153.164 16.2358Z" fill="black"></path><path d="M168.405 18.7216C168.405 21.5801 165.92 22.7989 163.235 22.7989C160.748 22.7989 158.86 21.8544 157.89 19.8409L161.122 18.0007C161.446 18.9453 162.14 19.4665 163.234 19.4665C164.128 19.4665 164.576 19.193 164.576 18.6951C164.576 17.328 158.462 18.0488 158.462 13.7485C158.462 11.0391 160.749 9.67114 163.334 9.67114C165.348 9.67114 167.137 10.5668 168.18 12.3309L164.999 14.046C164.652 13.3997 164.154 12.9531 163.333 12.9531C162.687 12.9531 162.29 13.2009 162.29 13.6491C162.293 15.0676 168.406 14.1238 168.406 18.7216H168.405Z" fill="black"></path></svg> 