<svg width="138" height="45" viewBox="0 0 138 45" fill="none" xmlns="http://www.w3.org/2000/svg">
<g clip-path="url(#clip0_1644_674)">
<path d="M82.4803 29.7343H73.9197L72.769 33.3493H67.0076L74.8418 10.3649H81.5581L89.3924 33.3493H83.6309L82.4803 29.7343ZM80.9052 24.8085L78.2041 16.3654L75.5029 24.8085H80.9052Z" fill="black"/>
<path d="M109.517 28.285V33.3411H94.3948V10.3567H99.6584V28.285H109.517Z" fill="black"/>
<path d="M137.728 33.3493L129.224 21.3319L136.993 10.3567H130.53L125.993 16.7643L121.455 10.3567H114.617L122.573 21.5924L114.25 33.3493H120.721L125.805 26.16L130.897 33.3493H137.728Z" fill="black"/>
<path d="M28.1785 11.7327C24.294 11.7327 19.3404 20.2328 15.4723 20.2328L7.85018 20.2409C7.1402 20.2409 6.56079 20.819 6.56079 21.5273V33.2109L14.0768 33.2027C17.9368 33.2027 22.8903 24.7678 26.783 24.7678H36.9594C37.8489 24.6863 38.5426 23.9536 38.5426 23.0417V11.7327H28.1785Z" fill="#0092FF"/>
<path d="M6.56936 21.527C6.56936 20.8187 7.14877 20.2406 7.85875 20.2406L15.4808 20.2325C19.3409 20.2325 24.2944 11.7324 28.187 11.7324H38.5511V1.35155C38.5511 0.773476 37.7677 0 36.8129 0H26.1142C22.2297 0 16.5091 8.24769 12.6409 8.24769H1.73823C0.775265 8.24769 0 9.02931 0 9.98191V31.4601C0 32.4208 0.783426 33.1943 1.73823 33.1943H6.56936V21.527Z" fill="#105FFB"/>
<path d="M44.0761 11.7321H38.5514V23.0411C38.5514 23.9448 37.8495 24.6857 36.9682 24.7672H26.7918C22.9073 24.7672 17.9538 33.2021 14.0856 33.2021L6.56958 33.2103V43.7132C6.56958 44.4216 7.14899 44.9996 7.85897 44.9996L17.3091 44.9915C21.063 44.9915 26.7918 36.7112 29.6562 36.7112H43.8395C44.5495 36.7112 45.1289 36.1332 45.1289 35.4248V13.0185C45.1289 12.3101 44.5495 11.7321 44.0761 11.7321Z" fill="#84DFFF"/>
</g>
<defs>
<clipPath id="clip0_1644_674">
<rect width="137.812" height="45" fill="white"/>
</clipPath>
</defs>
</svg>
