<svg width="107" height="32" viewBox="0 0 107 32" fill="none" xmlns="http://www.w3.org/2000/svg">
<path d="M26.0676 18.6579L24.6823 16.1017L24.1856 17.017C24.1574 17.069 24.1264 17.1186 24.0941 17.167C24.0871 17.1775 24.0801 17.188 24.0729 17.1984C24.04 17.2456 24.0057 17.2914 23.9692 17.335C23.9659 17.339 23.9623 17.3427 23.9589 17.3466C23.9232 17.3885 23.8858 17.4283 23.847 17.4665C23.8414 17.472 23.836 17.4776 23.8303 17.4831C23.7879 17.5237 23.7439 17.5621 23.6983 17.5982C23.6952 17.6007 23.6919 17.603 23.6888 17.6054C23.5934 17.6799 23.4907 17.7445 23.3823 17.7983L23.3789 17.7999C23.1143 17.9242 22.8268 17.9921 22.5345 17.9993H10.2019L9.7005 17.074C9.51567 16.7162 9.43471 16.3138 9.46676 15.9124C9.42713 16.3125 9.50762 16.7153 9.69795 17.0695L17.2676 31.0372C17.9633 32.321 19.7054 32.3209 20.4011 31.0369L26.0677 20.5784C26.2262 20.2832 26.3092 19.9533 26.3092 19.6181C26.3092 19.283 26.2262 18.9531 26.0676 18.6579Z" fill="#2155AA"/>
<path d="M30.2863 2.9532e-06L18.9368 0.0204893C18.2917 0.0216552 17.6961 0.388142 17.3737 0.982274L15.8938 3.70915H16.9696C17.6147 3.70915 18.2109 4.07456 18.5343 4.66813L24.6821 16.102L24.2744 16.8531C24.2756 16.8511 24.2768 16.8492 24.2779 16.8472L31.8555 2.88447C32.552 1.60113 31.6796 -0.00251149 30.2863 2.9532e-06Z" fill="#12E3A3"/>
<path d="M9.6982 17.0693C9.67287 17.0222 9.65025 16.9741 9.62901 16.9255C9.62247 16.9105 9.61609 16.8956 9.60993 16.8805C9.59103 16.8341 9.57339 16.7873 9.55812 16.7399C9.55233 16.722 9.54764 16.7039 9.54237 16.6859C9.53268 16.6525 9.52369 16.6191 9.51574 16.5853C9.50978 16.5602 9.50409 16.5352 9.4991 16.5099C9.49377 16.4827 9.48955 16.4553 9.48533 16.4278C9.47807 16.3811 9.47245 16.3342 9.46847 16.2872C9.46703 16.27 9.46564 16.2528 9.46463 16.2355C9.46255 16.2005 9.46095 16.1655 9.46067 16.1304C9.45035 15.7764 9.53429 15.4259 9.70391 15.115L15.894 3.70898H1.81102C0.41772 3.70898 -0.452146 5.31427 0.246394 6.59642L5.93656 17.0405C6.25996 17.6341 6.85615 17.9995 7.50119 17.9995H10.202L9.70058 17.0742C9.6997 17.0726 9.69907 17.0709 9.6982 17.0693Z" fill="#2464F2"/>
<path d="M24.073 17.1986C24.0803 17.1882 24.0872 17.1777 24.0943 17.1672C24.1265 17.1188 24.1575 17.0692 24.1857 17.0172L24.6825 16.1019L18.5347 4.66797C18.2113 4.0744 17.6151 3.70898 16.9701 3.70898H15.894L9.70389 15.115C9.54449 15.4168 9.4609 15.7529 9.46033 16.0942C9.45976 16.4356 9.54224 16.7719 9.70064 17.0742L10.2021 17.9995H22.5347C22.8269 17.9923 23.1145 17.9244 23.3791 17.8001L23.3824 17.7985C23.4909 17.7447 23.5936 17.6801 23.6889 17.6056C23.6921 17.6032 23.6953 17.6009 23.6984 17.5984C23.7441 17.5623 23.7881 17.5239 23.8305 17.4833C23.8361 17.4778 23.8415 17.4722 23.8471 17.4667C23.8859 17.4285 23.9234 17.3887 23.959 17.3468C23.9624 17.3429 23.966 17.3392 23.9694 17.3352C24.0059 17.2916 24.0402 17.2459 24.073 17.1986Z" fill="#357EE1"/>
<path d="M58.208 21.0716H52.1825L51.3714 23.6209H47.3158L52.8315 7.39844H57.5591L63.0747 23.6209H59.0192L58.208 21.0716ZM57.0956 17.5954L55.1953 11.6394L53.2949 17.5954H57.0956Z" fill="black"/>
<path d="M71.3015 11.8018V15.7415C69.8647 15.5097 67.8252 16.0891 67.8252 18.3834V23.621H64.349V12.0335H67.8252V14.0961C68.2887 12.5434 69.8415 11.8018 71.3015 11.8018Z" fill="black"/>
<path d="M79.8759 11.8018V15.7415C78.439 15.5097 76.3996 16.0891 76.3996 18.3834V23.621H72.9233V12.0335H76.3996V14.0961C76.8631 12.5434 78.4158 11.8018 79.8759 11.8018Z" fill="black"/>
<path d="M93.0389 12.0334V23.6209H89.5627V22.5317C88.798 23.4123 87.6624 23.9454 86.1097 23.9454C83.0738 23.9454 80.5709 21.2802 80.5709 17.8272C80.5709 14.3741 83.0738 11.709 86.1097 11.709C87.6624 11.709 88.798 12.242 89.5627 13.1227V12.0334H93.0389ZM89.5627 17.8272C89.5627 16.089 88.404 14.9998 86.8049 14.9998C85.2059 14.9998 84.0471 16.089 84.0471 17.8272C84.0471 19.5653 85.2059 20.6545 86.8049 20.6545C88.404 20.6545 89.5627 19.5653 89.5627 17.8272Z" fill="black"/>
<path d="M106.596 12.0334L102.633 23.2733C101.335 26.9581 99.2725 28.4181 96.0281 28.2559V25.0114C97.6503 25.0114 98.4151 24.5016 98.9249 23.0879L94.3131 12.0334H98.137L100.709 19.125L102.888 12.0334H106.596Z" fill="black"/>
</svg>
