<svg width="78" height="25" viewBox="0 0 78 25" fill="none" xmlns="http://www.w3.org/2000/svg">
<g clip-path="url(#clip0_1706_353)">
<path d="M46.5413 16.5191H41.7854L41.1461 18.5274H37.9453L42.2977 5.7583H46.0289L50.3813 18.5274H47.1805L46.5413 16.5191ZM45.6662 13.7825L44.1656 9.09194L42.6649 13.7825H45.6662Z" fill="white"/>
<path d="M61.5611 15.7139V18.5228H53.1602V5.75366H56.0844V15.7139H61.5611Z" fill="white"/>
<path d="M77.2344 18.5273L72.5103 11.851L76.8264 5.75366H73.2357L70.7149 9.31346L68.1942 5.75366H64.3949L68.8153 11.9957L64.1909 18.5273H67.7862L70.6107 14.5333L73.4397 18.5273H77.2344Z" fill="white"/>
<path d="M16.3736 6.51807C14.2155 6.51807 11.4636 11.2403 9.31459 11.2403L5.0801 11.2449C4.68566 11.2449 4.36377 11.566 4.36377 11.9595V18.4504L8.53933 18.4459C10.6838 18.4459 13.4357 13.7598 15.5983 13.7598H21.2519C21.7461 13.7146 22.1314 13.3075 22.1314 12.8009V6.51807H16.3736Z" fill="#0092FF"/>
<path d="M4.36839 11.9595C4.36839 11.5659 4.69029 11.2448 5.08472 11.2448L9.31922 11.2403C11.4637 11.2403 14.2156 6.518 16.3782 6.518H22.136V0.750859C22.136 0.429709 21.7008 0 21.1704 0H15.2267C13.0686 0 9.89047 4.58205 7.74148 4.58205H1.68443C1.14945 4.58205 0.71875 5.01628 0.71875 5.5455V17.4778C0.71875 18.0116 1.15399 18.4413 1.68443 18.4413H4.36839V11.9595Z" fill="#105FFB"/>
<path d="M25.2056 6.51782H22.1363V12.8006C22.1363 13.3027 21.7464 13.7143 21.2568 13.7595H15.6032C13.4452 13.7595 10.6932 18.4456 8.54421 18.4456L4.36865 18.4502V24.2851C4.36865 24.6787 4.69055 24.9998 5.08498 24.9998L10.335 24.9953C12.4205 24.9953 15.6032 20.3951 17.1945 20.3951H25.0742C25.4686 20.3951 25.7905 20.074 25.7905 19.6805V7.2325C25.7905 6.83897 25.4686 6.51782 25.2056 6.51782Z" fill="#84DFFF"/>
</g>
<defs>
<clipPath id="clip0_1706_353">
<rect width="76.5625" height="25" fill="white" transform="translate(0.71875)"/>
</clipPath>
</defs>
</svg>
