<svg width="110" height="40" viewBox="0 0 110 40" fill="none" xmlns="http://www.w3.org/2000/svg">
<path d="M62.2944 18.4035H62.1829L58.6267 28.6073H56.2668L52.7033 18.4035H52.599L51.7779 28.7115H47.4551L49.0845 11.311H53.5877L57.4431 21.3408L61.2993 11.311H65.8723L67.4311 28.7115H63.1155L62.2944 18.4035Z" fill="white"/>
<path d="M82.1142 22.2446L80.075 15.8618L78.0776 22.2446H82.1142ZM83.3114 25.9749H76.8451L75.9887 28.71H71.625L77.5412 11.3096H82.6154L88.5179 28.71H84.1814L83.3114 25.9749Z" fill="white"/>
<path d="M109.254 28.6971L102.844 19.6208L108.705 11.3247H103.826L100.401 16.1688L96.9841 11.3247H91.8265L97.8261 19.8156L91.5547 28.6971H96.4268L100.269 23.2677L104.104 28.6971H109.254Z" fill="white"/>
<g clip-path="url(#clip0_3967_22406)">
<path d="M15.224 12.9728L8.7776 4.3888C8.584 4.1296 8.2912 4 8 4V26.6384C8.2912 26.6384 8.5824 26.768 8.7776 27.0272L15.224 35.6112C15.4176 35.8704 15.7088 36 16 36V13.36C15.7088 13.36 15.4176 13.2304 15.224 12.9712V12.9728Z" fill="#7B32CD"/>
<path d="M7.224 4.3888L0.1952 13.7472C0.0688002 13.9152 0 14.12 0 14.3312V33.7344C0 34.6672 1.1888 35.064 1.7488 34.3184L7.224 27.0288C7.4176 26.7696 7.7104 26.64 8.0016 26.64V4C7.7104 4 7.4192 4.1296 7.224 4.3888Z" fill="#5803AF"/>
<path d="M31.8064 13.7472L24.7776 4.3888C24.5824 4.1296 24.2912 4 24 4V26.6384C24.2912 26.6384 24.5824 26.768 24.7776 27.0272L30.2528 34.3168C30.8128 35.0624 32.0016 34.6672 32.0016 33.7328V14.3296C32.0016 14.1184 31.9328 13.9152 31.8064 13.7456V13.7472Z" fill="#6E5BF6"/>
<path d="M23.224 4.3888L16.7776 12.9728C16.584 13.232 16.2912 13.3616 16 13.3616V36C16.2912 36 16.5824 35.8704 16.7776 35.6112L23.224 27.0272C23.4176 26.768 23.7088 26.64 24 26.6384V4C23.7088 4 23.4176 4.1296 23.224 4.3888Z" fill="#5406C6"/>
</g>
<defs>
<clipPath id="clip0_3967_22406">
<rect width="32" height="32" fill="white" transform="translate(0 3.99976)"/>
</clipPath>
</defs>
</svg>
