<?xml version="1.0" encoding="utf-8"?>
<!-- Generator: Adobe Illustrator 26.3.1, SVG Export Plug-In . SVG Version: 6.00 Build 0)  -->
<svg version="1.1" id="Layer_1" xmlns="http://www.w3.org/2000/svg" xmlns:xlink="http://www.w3.org/1999/xlink" x="0px" y="0px"
	 viewBox="0 0 96 40" style="enable-background:new 0 0 96 40;" xml:space="preserve">
<style type="text/css">
	.st0{fill:#FFFFFF;}
</style>
<path class="st0" d="M46.5,14.6v10.2c0,6.5-5,8.5-7.2,9.2c-0.6,0.1-1.5-0.2-1.8-1c-0.2-0.8,0.3-1.5,1-1.8c2.2-0.6,5-2.2,5-6.3V14.6
	c0-0.8,0.6-1.5,1.5-1.5C45.8,13.1,46.5,13.7,46.5,14.6z M21.5,27c0.6,1.2-0.6,2.9-2.1,2c0,0-5.7-3.8-9.9-5.4l-2.5,4.8
	c-0.2,0.5-1.2,1.2-2.1,0.6c-7-4-5.7-12,3.2-9.3l3.6-6.9c0.8-1.2,2.2-0.9,2.7,0L21.5,27z M6.6,22.5c-5.7-1.6-2.7,2.2-1.5,3L6.6,22.5z
	 M16.4,23.6l-3.6-6.8l-1.9,4C12.1,21.4,15.1,23,16.4,23.6z M38.8,21c0,4.5-3.6,8.1-8.1,8.1H26c-0.9,0-1.5-0.8-1.5-1.5v-13
	c0-0.9,0.8-1.5,1.5-1.5h4.8C35.2,13.1,38.8,16.7,38.8,21z M35.8,21c0-2.7-2.2-4.9-4.9-4.9h-3.3v10h3.3C33.6,26.1,35.8,23.9,35.8,21z
	 M62.2,14.6v7.5c0,2.4-1.7,4-4,4c-2.4,0-4-1.6-4-4v-7.5c0-2-3-2-3,0v7.5c0,4,3,7,7,7s7-3,7-7v-7.5C65.2,12.6,62.2,12.6,62.2,14.6z
	 M94.3,13.1H83.2c-1.9,0-1.9,3,0,3h4.1v11.5c0,2,3,2,3,0V16.1h4C96.4,16.1,96.4,13.1,94.3,13.1z M71.2,17c0.2-1.4,2.8-2.1,5.1-0.1
	c1.5,1.2,3.5-0.6,2.1-2.2c-2.5-2.9-10.2-2.7-10.2,2.7c0,5.7,8.8,4.5,7.9,7.8c-0.4,1.5-3.9,2.1-5.5-0.1c-1.3-2-3.8,0-2.6,1.6
	c3.5,4.9,11.2,2.9,11.2-2C79.3,19.1,71.1,20.1,71.2,17z"/>
</svg>
