<?xml version="1.0" encoding="UTF-8" standalone="no"?>
<svg width="156px" height="36px" viewBox="0 0 156 36" version="1.1" xmlns="http://www.w3.org/2000/svg" xmlns:xlink="http://www.w3.org/1999/xlink" xmlns:sketch="http://www.bohemiancoding.com/sketch/ns">
    <title>Slice 1</title>
    <description>Created with Sketch (http://www.bohemiancoding.com/sketch)</description>
    <defs></defs>
    <g id="Page-1" stroke="none" stroke-width="1" fill="none" fill-rule="evenodd" sketch:type="MSPage">
        <g id="logo-white" sketch:type="MSLayerGroup" fill="#FFFFFF">
            <g id="Ebene%201" sketch:type="MSShapeGroup">
                <path d="M58.3353211,23.925 L57.1267606,20.40478 L50.6451803,20.40478 C50.4802817,20.95478 50.2605634,21.56011 50.0958845,22.16489 L49.5465887,23.925 L46.3605634,23.925 L52.1830986,7.755 L55.5888423,7.755 L61.3014085,23.97978 L58.3353211,23.97978 L58.3353211,23.925 L58.3353211,23.925 Z M53.8859155,11.275 C53.5014085,12.375 53.1170113,13.42 52.7323944,14.46489 C52.3477775,15.51011 51.9633803,16.61011 51.5238338,17.76489 L56.1928479,17.76489 L53.8859155,11.275 L53.8859155,11.275 Z" id="Shape"></path>
                <path d="M70.8042254,7.755 L64.8169014,7.755 L64.8169014,23.97978 L67.5633803,23.97978 L67.5633803,18.47978 L70.7491859,18.47978 C73.9902507,18.47978 75.5830986,17.105 75.5830986,14.3 L75.5830986,11.98989 C75.638138,9.13 74.0449606,7.755 70.8042254,7.755 L70.8042254,7.755 L70.8042254,7.755 Z M67.5633803,10.33989 L70.6944761,10.33989 C72.5619718,10.33989 72.8366197,10.83511 72.8366197,11.98989 L72.8366197,14.245 C72.8366197,15.4 72.5070423,15.895 70.6944761,15.895 L67.5633803,15.895 L67.5633803,10.33989 L67.5633803,10.33989 Z" id="Shape"></path>
                <path d="M84.8114873,7.755 L78.8786535,7.755 L78.8786535,23.97978 L81.6251324,23.97978 L81.6251324,18.47978 L84.8114873,18.47978 C88.0520028,18.47978 89.6451803,17.105 89.6451803,14.3 L89.6451803,11.98989 C89.6451803,9.13 88.0520028,7.755 84.8114873,7.755 L84.8114873,7.755 L84.8114873,7.755 Z M81.5704225,10.33989 L84.7015183,10.33989 C86.5687944,10.33989 86.8434423,10.83511 86.8434423,11.98989 L86.8434423,14.245 C86.8434423,15.4 86.5140845,15.895 84.7015183,15.895 L81.5704225,15.895 L81.5704225,10.33989 L81.5704225,10.33989 Z" id="Shape"></path>
                <path d="M95.5774648,22.38511 L103.047668,22.38511 L103.047668,23.97978 L93.9295775,23.97978 L93.9295775,7.81011 L95.5774648,7.81011 L95.5774648,22.38511 L95.5774648,22.38511 Z" id="Shape"></path>
                <path d="M117.384617,19.25 C117.384617,21.94522 115.73673,24.14522 111.561752,24.14522 C107.387324,24.14522 105.684727,21.94522 105.684727,19.25 L105.684727,12.43 C105.684727,9.73511 107.332614,7.53511 111.561752,7.53511 C115.73673,7.53511 117.384617,9.73511 117.384617,12.43 L117.384617,19.25 L117.384617,19.25 Z M107.167386,19.30478 C107.167386,21.61489 108.595885,22.93511 111.561752,22.93511 C114.528169,22.93511 115.956118,21.61489 115.956118,19.30478 L115.956118,12.375 C115.956118,10.06489 114.528169,8.745 111.561752,8.745 C108.595885,8.745 107.167386,10.06489 107.167386,12.375 L107.167386,19.30478 L107.167386,19.30478 Z" id="Shape"></path>
                <path d="M119.856448,7.81011 L121.449076,7.81011 L126.667386,22.38511 L131.940955,7.81011 L133.588842,7.81011 L127.765977,23.97978 L125.624054,23.97978 L119.856448,7.81011 L119.856448,7.81011 Z" id="Shape"></path>
                <path d="M136.939327,7.81011 L138.587214,7.81011 L138.587214,23.97978 L136.939327,23.97978 L136.939327,7.81011 L136.939327,7.81011 Z" id="Shape"></path>
                <path d="M146.387324,9.73511 L146.387324,23.97978 L144.849406,23.97978 L144.849406,7.81011 L147.265977,7.81011 L154.297403,21.67022 L154.297403,7.81011 L155.835321,7.81011 L155.835321,23.97978 L153.912786,23.97978 L146.387324,9.73511 L146.387324,9.73511 Z" id="Shape"></path>
                <path d="M17.028169,4.4 C17.028169,2.695 18.4014085,1.32 20.1042254,1.32 C21.8071521,1.32 23.1803915,2.695 23.1803915,4.4 C23.1803915,6.105 21.8071521,7.48 20.1042254,7.48 C18.4014085,7.48 17.028169,6.105 17.028169,4.4 L17.028169,4.4 L17.028169,4.4 Z M15.8196085,4.4 C15.8196085,6.76489 17.7421437,8.68989 20.1042254,8.68989 C22.4661972,8.68989 24.3887324,6.76489 24.3887324,4.4 C24.3887324,2.03511 22.4661972,0.11011 20.1042254,0.11011 C17.7421437,0.11011 15.8196085,2.03511 15.8196085,4.4 L15.8196085,4.4 L15.8196085,4.4 Z M32.6830986,30.8 C32.6830986,29.09522 34.056338,27.72022 35.7591549,27.72022 C37.4620817,27.72022 38.8353211,29.09522 38.8353211,30.8 C38.8353211,32.50478 37.4620817,33.87978 35.7591549,33.87978 C34.056338,33.87978 32.6830986,32.50478 32.6830986,30.8 L32.6830986,30.8 L32.6830986,30.8 Z M31.474538,30.8 C31.474538,33.16489 33.3970732,35.08989 35.7591549,35.08989 C38.1211268,35.08989 40.043662,33.16489 40.043662,30.8 C40.043662,28.43511 38.1211268,26.51011 35.7591549,26.51011 C33.3970732,26.51011 31.474538,28.43511 31.474538,30.8 L31.474538,30.8 L31.474538,30.8 Z M1.37323944,30.8 C1.37323944,29.09522 2.74647887,27.72022 4.44929577,27.72022 C6.15222254,27.72022 7.52546197,29.09522 7.52546197,30.8 C7.52546197,32.50478 6.15222254,33.87978 4.44929577,33.87978 C2.74647887,33.87978 1.37323944,32.50478 1.37323944,30.8 L1.37323944,30.8 L1.37323944,30.8 Z M0.164678873,30.8 C0.164678873,33.16489 2.08721408,35.08989 4.44929577,35.08989 C6.81126761,35.08989 8.73380282,33.16489 8.73380282,30.8 C8.73380282,28.43511 6.81126761,26.51011 4.44929577,26.51011 C2.08721408,26.51011 0.164678873,28.43511 0.164678873,30.8 L0.164678873,30.8 L0.164678873,30.8 Z M16.4239437,7.755 L6.20693239,26.125 C6.75622817,26.28989 7.19577465,26.62022 7.63521127,26.95 L7.69014085,26.95 C11.0408451,26.01489 15.4902507,25.575 20.2690141,25.575 C24.8829887,25.575 29.2226451,26.125 32.5184197,26.95 L32.5184197,27.00478 L32.5731296,27.00478 C32.9577465,26.62022 33.4521127,26.34522 34.0014085,26.17978 L23.7296873,7.755 C23.3450704,8.195 22.9057437,8.58 22.4111577,8.855 L31.584507,25.41011 C28.4534113,24.69522 24.443662,24.25478 20.2139746,24.25478 C15.8196085,24.25478 11.7549296,24.63989 8.51408451,25.41011 L17.7421437,8.8 C17.2478873,8.525 16.7535211,8.195 16.4239437,7.755 L16.4239437,7.755 L16.4239437,7.755 Z" id="Shape"></path>
            </g>
        </g>
    </g>
</svg>