<?xml version="1.0" encoding="utf-8"?>
<!-- Generator: Adobe Illustrator 26.3.1, SVG Export Plug-In . SVG Version: 6.00 Build 0)  -->
<svg version="1.1" id="Layer_1" xmlns="http://www.w3.org/2000/svg" xmlns:xlink="http://www.w3.org/1999/xlink" x="0px" y="0px"
	 viewBox="0 0 195 40" style="enable-background:new 0 0 195 40;" xml:space="preserve">
<style type="text/css">
	.st0{fill:#FFFFFF;}
	.st1{fill:#FC326C;}
	.st2{fill:#FF5B3B;}
	.st3{fill:#FF9E1D;}
	.st4{opacity:0.6;fill:#FFFFFF;enable-background:new    ;}
</style>
<path class="st0" d="M58.6,25.3h-5.9l-0.8,2.5h-4l5.4-15.9h4.6l5.4,15.9h-4L58.6,25.3z M57.5,21.9L55.6,16l-1.9,5.8H57.5z"/>
<path class="st0" d="M76.6,22.1c0,3.4-2.5,6-5.4,6c-0.6,0-1.3-0.1-1.9-0.3s-1.1-0.6-1.5-1.1v5.6h-3.4V16.4h3.4v1.1
	c0.4-0.5,1-0.8,1.5-1.1c0.6-0.2,1.2-0.3,1.9-0.3C74.2,16.1,76.6,18.7,76.6,22.1z M73.2,22.1c0-0.4-0.1-0.7-0.2-1.1
	c-0.1-0.3-0.3-0.6-0.6-0.9c-0.3-0.3-0.6-0.5-0.9-0.6c-0.3-0.1-0.7-0.2-1.1-0.2c-0.4,0-0.7,0.1-1.1,0.2c-0.3,0.1-0.6,0.3-0.9,0.6
	c-0.3,0.3-0.5,0.6-0.6,0.9c-0.1,0.3-0.2,0.7-0.2,1.1c0,0.4,0.1,0.7,0.2,1.1c0.1,0.3,0.3,0.6,0.6,0.9c0.3,0.3,0.6,0.5,0.9,0.6
	c0.3,0.1,0.7,0.2,1.1,0.2c0.4,0,0.7-0.1,1.1-0.2c0.3-0.1,0.6-0.3,0.9-0.6c0.3-0.3,0.5-0.6,0.6-0.9C73.2,22.8,73.2,22.5,73.2,22.1z"
	/>
<path class="st0" d="M90.8,22.1c0,3.4-2.5,6-5.4,6c-0.6,0-1.3-0.1-1.9-0.3c-0.6-0.2-1.1-0.6-1.5-1.1v5.6h-3.4V16.4H82v1.1
	c0.4-0.5,1-0.8,1.5-1.1c0.6-0.2,1.2-0.3,1.9-0.3C88.3,16.1,90.8,18.7,90.8,22.1z M87.4,22.1c0-0.4-0.1-0.7-0.2-1.1
	c-0.1-0.3-0.3-0.6-0.6-0.9c-0.3-0.3-0.6-0.5-0.9-0.6c-0.3-0.1-0.7-0.2-1.1-0.2s-0.7,0.1-1.1,0.2c-0.3,0.1-0.6,0.3-0.9,0.6
	c-0.3,0.3-0.5,0.6-0.6,0.9C82,21.4,82,21.7,82,22.1c0,0.4,0.1,0.7,0.2,1.1c0.1,0.3,0.3,0.6,0.6,0.9c0.3,0.3,0.6,0.5,0.9,0.6
	c0.3,0.1,0.7,0.2,1.1,0.2s0.7-0.1,1.1-0.2c0.3-0.1,0.6-0.3,0.9-0.6c0.3-0.3,0.5-0.6,0.6-0.9C87.3,22.8,87.4,22.5,87.4,22.1z"/>
<path class="st0" d="M106.9,19.8c0,1-0.1,2.1-0.5,3c-0.4,1-0.9,1.8-1.7,2.6c-0.7,0.7-1.6,1.3-2.5,1.7c-1,0.4-2,0.6-3,0.6h-6.4V11.9
	h6.4c1,0,2.1,0.2,3,0.6c1,0.4,1.8,1,2.5,1.7c0.7,0.7,1.3,1.6,1.7,2.6C106.8,17.8,107,18.8,106.9,19.8z M103.4,19.8
	c0-2.7-1.7-4.5-4.2-4.5h-2.7v8.9h2.7C101.7,24.3,103.4,22.6,103.4,19.8z"/>
<path class="st0" d="M108.5,13.4c0-0.4,0.1-0.8,0.3-1.1c0.2-0.3,0.5-0.6,0.9-0.8c0.4-0.2,0.8-0.2,1.2-0.1c0.4,0.1,0.8,0.3,1,0.6
	c0.3,0.3,0.5,0.7,0.6,1c0.1,0.4,0,0.8-0.1,1.2c-0.2,0.4-0.4,0.7-0.8,0.9c-0.3,0.2-0.7,0.3-1.1,0.3c-0.5,0-1.1-0.2-1.4-0.6
	C108.8,14.4,108.5,13.9,108.5,13.4z M108.9,16.4h3.4v11.4h-3.4V16.4z"/>
<path class="st0" d="M123.5,24.4c0,2.6-2.3,3.7-4.7,3.7c-2.3,0-4-0.9-4.9-2.7l3-1.7c0.1,0.4,0.4,0.8,0.7,1s0.8,0.4,1.2,0.3
	c0.8,0,1.2-0.3,1.2-0.7c0-1.3-5.6-0.6-5.6-4.5c0-2.5,2.1-3.7,4.5-3.7c0.9,0,1.8,0.2,2.6,0.6c0.8,0.4,1.4,1.1,1.9,1.8l-2.9,1.6
	c-0.1-0.3-0.3-0.6-0.6-0.7c-0.3-0.2-0.6-0.3-0.9-0.3c-0.6,0-1,0.2-1,0.6C117.9,21,123.5,20.2,123.5,24.4z"/>
<path class="st0" d="M124.5,22.1c0-1.3,0.4-2.6,1.2-3.6c0.8-1,1.9-1.8,3.2-2.2c1.3-0.4,2.6-0.3,3.8,0.2c1.2,0.5,2.2,1.4,2.9,2.5
	l-3,1.7c-0.2-0.4-0.5-0.7-0.9-1c-0.4-0.2-0.8-0.3-1.3-0.3c-0.7,0-1.3,0.3-1.8,0.8c-0.5,0.5-0.7,1.2-0.7,1.8s0.3,1.3,0.7,1.8
	c0.5,0.5,1.1,0.8,1.8,0.8c0.5,0,0.9-0.1,1.3-0.3c0.4-0.2,0.7-0.6,0.9-1l3,1.7c-0.5,0.9-1.3,1.7-2.2,2.2c-0.9,0.5-1.9,0.8-3,0.8
	c-0.8,0-1.6-0.1-2.3-0.4c-0.7-0.3-1.4-0.7-2-1.3c-0.6-0.6-1-1.2-1.3-2C124.7,23.7,124.5,22.9,124.5,22.1z"/>
<path class="st0" d="M136.3,22.1c0-1.2,0.3-2.4,1-3.4c0.7-1,1.6-1.8,2.7-2.2c1.1-0.5,2.3-0.6,3.5-0.4c1.2,0.2,2.2,0.8,3.1,1.6
	c0.8,0.8,1.4,1.9,1.7,3.1c0.2,1.2,0.1,2.4-0.3,3.5c-0.5,1.1-1.2,2-2.2,2.7c-1,0.7-2.2,1-3.4,1c-0.8,0-1.6-0.1-2.3-0.4
	c-0.7-0.3-1.4-0.7-2-1.3c-0.6-0.6-1-1.2-1.3-2C136.4,23.7,136.3,22.9,136.3,22.1z M144.9,22.1c0-0.5-0.2-1-0.5-1.4
	c-0.3-0.4-0.7-0.7-1.2-0.9c-0.5-0.2-1-0.2-1.5-0.1c-0.5,0.1-1,0.4-1.3,0.7c-0.4,0.4-0.6,0.8-0.7,1.3c-0.1,0.5,0,1,0.2,1.5
	c0.2,0.5,0.5,0.9,1,1.2c0.4,0.3,0.9,0.4,1.4,0.4c0.4,0,0.7-0.1,1-0.2c0.3-0.1,0.6-0.3,0.9-0.6c0.2-0.3,0.4-0.6,0.6-0.9
	C144.9,22.8,144.9,22.5,144.9,22.1z"/>
<path class="st0" d="M160.8,16.4l-4.2,11.4h-3.9l-4.2-11.4h3.8l2.4,7.2l2.4-7.2H160.8z"/>
<path class="st0" d="M167.4,25.1c0.4,0,0.8-0.1,1.2-0.2c0.4-0.1,0.7-0.4,1-0.7l2.7,1.6c-0.6,0.8-1.3,1.4-2.2,1.8
	c-0.9,0.4-1.8,0.6-2.8,0.5c-3.9,0-6.3-2.6-6.3-6c0-0.8,0.1-1.6,0.4-2.3c0.3-0.7,0.7-1.4,1.3-2c0.6-0.6,1.2-1,2-1.3
	c0.7-0.3,1.5-0.4,2.3-0.4c0.8,0,1.6,0.1,2.3,0.5c0.7,0.3,1.4,0.7,1.9,1.3c0.5,0.6,1,1.2,1.2,2s0.4,1.5,0.4,2.3c0,0.5,0,0.9-0.1,1.4
	h-8.1c0.2,0.5,0.6,1,1.1,1.3C166.3,25,166.8,25.1,167.4,25.1z M169.5,20.9c-0.2-0.5-0.5-1-0.9-1.3c-0.4-0.3-1-0.5-1.5-0.5
	s-1.1,0.2-1.5,0.5c-0.4,0.3-0.8,0.8-0.9,1.3H169.5z"/>
<path class="st0" d="M181.7,16.2v3.9c-1.4-0.2-3.4,0.3-3.4,2.6v5.1h-3.4V16.4h3.4v2c0.2-0.7,0.7-1.3,1.3-1.7
	C180.2,16.3,180.9,16.1,181.7,16.2z"/>
<path class="st0" d="M194.8,16.4l-3.9,11c-1.3,3.6-3.3,5-6.5,4.9v-3.2c1.6,0,2.3-0.5,2.8-1.9l-4.5-10.9h3.8l2.5,7l2.1-7H194.8z"/>
<path class="st1" d="M15.9,35.9c8.8,0,15.9-7.1,15.9-15.9c0-8.8-7.1-15.9-15.9-15.9C7.1,4.2,0,11.3,0,20C0,28.8,7.1,35.9,15.9,35.9z
	"/>
<path class="st2" d="M15.9,30.6c5.8,0,10.6-4.7,10.6-10.6c0-5.8-4.7-10.6-10.6-10.6S5.3,14.2,5.3,20C5.3,25.9,10,30.6,15.9,30.6z"/>
<path class="st3" d="M15.9,25.3c2.9,0,5.3-2.4,5.3-5.3s-2.4-5.3-5.3-5.3c-2.9,0-5.3,2.4-5.3,5.3S13,25.3,15.9,25.3z"/>
<path class="st4" d="M31.7,20c0-3.3-1-6.5-3-9.2l-12.1,7.9c-0.2,0.1-0.5,0.3-0.6,0.5c-0.1,0.2-0.2,0.5-0.2,0.8
	c0,0.3,0.1,0.5,0.2,0.8c0.1,0.2,0.4,0.4,0.6,0.5l12.1,7.9C30.7,26.6,31.7,23.3,31.7,20z"/>
</svg>
