<svg xmlns="http://www.w3.org/2000/svg" viewBox="0 0 181.916 42.158"><title>Asset 2</title><g id="Layer_2" data-name="Layer 2"><g id="Layer_1-2" data-name="Layer 1"><path d="M47.949,15.871a3.683,3.683,0,0,0-4.066.533,3.947,3.947,0,0,0-.671,4.658c.015.032.048.095.048.095s-4.6,1.637-7.909,2.774c-.5.172-1.252.453-2.133.8,1.773,1.782,2.679,3.778,2.43,5.533-.539,3.809-7.451,3.9-11.133,3.681a20.472,20.472,0,0,0,2.6,3.748c1.892,2.12,6.353,5.734,8.2,4.021,1.117-1.03,5.013-8.73,6.036-11.051.762-1.729,1.7-3.812,2.405-5.385.62-1.376,1.067-2.363,1.067-2.363s.049.033.074.048a3.773,3.773,0,0,0,4.618-.212l.015-.011A4.12,4.12,0,0,0,49.484,17,4.6,4.6,0,0,0,47.949,15.871Zm-.191,4.656a1.22,1.22,0,0,1-.072-1.689,1.172,1.172,0,0,1,1.647.232,1.222,1.222,0,0,1,.07,1.691A1.17,1.17,0,0,1,47.758,20.527Zm-36.93,8.159C12.734,30.9,18.6,32.3,21.874,32.651c4.035.432,12.219.132,12.546-3.044.2-1.909-1.539-4.323-4.406-6.1a15.293,15.293,0,0,1-3.5-6.5,31.722,31.722,0,0,1-.857-8.739,4.217,4.217,0,0,0,3.7-3.62A4.4,4.4,0,0,0,25.233.027a4.965,4.965,0,0,0-1.151.014,4.23,4.23,0,0,0-3.827,3.636,3.975,3.975,0,0,0,1.072,3.106A4.718,4.718,0,0,0,23.137,8c-.046.26-.1.541-.155.834a31.174,31.174,0,0,1-2.466,7.534,13.346,13.346,0,0,1-.82,1.468,15.759,15.759,0,0,1-3.922,4.151c-2.785,1-4.812,2.656-5.395,4.341.368-1.86,2.043-3.588,4.549-4.757-.593-.5-1.1-.915-1.461-1.2-2.768-2.161-6.6-5.224-6.6-5.224l.063-.061a3.944,3.944,0,0,0,.853-4.642A3.559,3.559,0,0,0,5.371,8.684a4.393,4.393,0,0,0-3.084.494A4.1,4.1,0,0,0,.424,14.587a3.556,3.556,0,0,0,2.381,1.759,4.251,4.251,0,0,0,1.916-.02l.1-.025.114,1.121c.168,1.66.486,4.85.716,7.35.235,2.535,1.483,11.1,2.213,12.443,1.21,2.231,6.578.275,9.04-1.11a20.1,20.1,0,0,0,3.653-2.7C17.814,32.805,12.505,31.332,10.828,28.686ZM26.385,1.832a1.658,1.658,0,0,1,1.6,1.679,1.643,1.643,0,0,1-1.911,1.3,1.659,1.659,0,0,1-1.6-1.678A1.643,1.643,0,0,1,26.385,1.832ZM3.627,11.38a1.214,1.214,0,0,1,.6-1.577,1.172,1.172,0,0,1,1.632.32,1.215,1.215,0,0,1-.6,1.576A1.169,1.169,0,0,1,3.627,11.38Z" style="fill:#fff"/><path d="M61.622,15.54c2.679,0,3.6.592,3.8,2.419l.043.528h4.118l-.082-.594c-.671-3.425-3.467-5.313-7.875-5.318s-7.2,1.893-7.876,5.33a28.328,28.328,0,0,0,0,8.131c.671,3.425,3.467,5.314,7.874,5.319h0c4.407,0,7.2-1.894,7.876-5.331l.08-.582H65.461l-.042.522c-.195,1.833-1.118,2.423-3.8,2.425s-3.608-.592-3.8-2.42a47.539,47.539,0,0,1,0-8C58.015,16.132,58.939,15.542,61.622,15.54Z" style="fill:#fff"/><rect x="88.925" y="12.883" width="4.204" height="18.164" style="fill:#fff"/><path d="M76.9,27.508c-.394-.4-.392-1.1-.391-2.058l.006-12.567h-4.2l0,12.37c0,4.223,1.818,5.794,6.706,5.794h6.735V28.018H79.008A3,3,0,0,1,76.9,27.508Z" style="fill:#fff"/><path d="M105.033,12.887l-2.062,0c-4.888,0-6.7,1.57-6.7,5.793l0,12.371h4.2l0-5.631h4.267c4.825,0,7.171-2.05,7.171-6.266C111.909,15.02,109.659,12.969,105.033,12.887Zm2.673,6.263c0,2.052-.486,3.24-2.968,3.24H100.47l0-3.911c0-.962,0-1.657.392-2.059a3,3,0,0,1,2.111-.51h1.767C107.233,15.91,107.706,17.049,107.706,19.15Z" style="fill:#fff"/><path d="M162.474,23.961c.907-.458,2.4-1.69,2.4-4.843,0-4.285-1.939-6.1-6.68-6.224l-1.356-.011c-4.889,0-6.706,1.57-6.706,5.793l0,12.371h4.2l0-5.631h3.187c3.169,0,3.642,1.992,3.642,3.179v2.452h4.2V28.6A4.65,4.65,0,0,0,162.474,23.961Zm-1.8-4.843c0,2.072-.493,3.272-3.013,3.272h-3.322l0-3.911c0-.962,0-1.657.391-2.059a3,3,0,0,1,2.112-.51h.821C160.179,15.91,160.672,17.086,160.672,19.118Z" style="fill:#fff"/><rect x="142.791" y="12.883" width="4.203" height="18.164" style="fill:#fff"/><path d="M135.574,24.931c0,1.945-.509,2.932-3.291,2.932-2.43,0-3.291-.768-3.291-2.932V12.883h-3.953V24.931c0,2.193-.83,2.932-3.29,2.932-2.782,0-3.291-.987-3.291-2.932V12.883H114.5V24.931c0,3.946,2.573,6.119,7.246,6.119,2.873,0,3.932-.372,5.284-1.951,1.315,1.579,2.368,1.951,5.25,1.951,4.672,0,7.245-2.173,7.245-6.119V12.883h-3.954Z" style="fill:#fff"/><path d="M174.746,15.91h6.73V12.883h-6.73c-4.888,0-6.706,1.57-6.706,5.793l0,3.4,0,3.179c0,4.223,1.818,5.794,6.706,5.794h6.73V28.018h-6.73a3,3,0,0,1-2.111-.51c-.395-.4-.394-1.1-.392-2.058v-.163h.006l0-2.424h6.931V19.836h-6.929v-.545l-.006-.812c0-.962,0-1.657.392-2.059A3,3,0,0,1,174.746,15.91Z" style="fill:#fff"/><path d="M141.94,38.249a12.334,12.334,0,0,1,0-2.689c.244-1.554,1.379-2.08,2.98-2.084s2.737.529,2.982,2.084c0,.048.01.1.015.143H146.48c0-.047-.006-.1-.009-.143-.076-.918-.483-.943-1.551-.946s-1.474.029-1.55.946a20.8,20.8,0,0,0,0,2.689c.076.917.483.945,1.55.945s1.475-.028,1.551-.945c.011-.174.02-.348.026-.523H144.92V36.542h3.05a12.478,12.478,0,0,1-.068,1.707c-.245,1.555-1.38,2.079-2.982,2.082S142.185,39.8,141.94,38.249Z" style="fill:#fff"/><path d="M150.132,35.587c0-1.54.979-2.107,2.744-2.107s2.745.567,2.745,2.107V40.2H154.29V38.154h-2.827V40.2h-1.331Zm4.158,1.4v-1.4c0-.91-.37-.944-1.414-.944s-1.413.034-1.413.944v1.4Z" style="fill:#fff"/><path d="M177.483,37.874v.141c0,.909.391,1.206,1.663,1.206,1.069,0,1.492-.114,1.492-.968,0-.785-.4-.918-1.482-1-2.057-.163-2.751-.508-2.751-1.827s.922-1.942,2.618-1.942,2.616.825,2.616,2.237V35.8H180.36v-.086c0-.911-.335-1.074-1.337-1.074s-1.338.09-1.338.779c0,.728.421.755,1.5.82,2.278.136,2.728.592,2.728,2.011,0,1.6-.951,2.13-2.77,2.13-2.1,0-2.942-.828-2.942-2.368v-.141Z" style="fill:#fff"/><path d="M157.852,35.87c0-1.532.886-2.394,2.769-2.394a2.02,2.02,0,0,1,2.049.925,2.066,2.066,0,0,1,2.067-.925c1.882,0,2.769.862,2.769,2.394V40.2h-1.334V35.87c0-.9-.323-1.232-1.435-1.232-1.095,0-1.392.327-1.392,1.232V40.2h-1.332V35.87c0-.9-.314-1.232-1.392-1.232-1.113,0-1.44.327-1.44,1.232V40.2h-1.329Z" style="fill:#fff"/><path d="M172.085,34.779h2.339v-1.16h-2.339c-1.809,0-2.407.592-2.407,2.067v2.446c0,1.475.6,2.066,2.407,2.066h2.339V39.041h-2.339c-1.055,0-1.017-.4-1.017-1.116V37.85h0v-.592h2.663V36.1h-2.667l0-.2C171.068,35.175,171.03,34.779,172.085,34.779Z" style="fill:#fff"/></g></g></svg>