<svg width="59" height="32" viewBox="0 0 59 32" fill="none" xmlns="http://www.w3.org/2000/svg">
<path d="M14.6367 24.9618H19.2851L24.0124 11.1205H19.1846L14.6367 24.9618Z" fill="white"/>
<path d="M14.6373 11.1205H10.0391L12.3381 18.1177L14.6373 11.1205Z" fill="#991BB0"/>
<path d="M7.75286 18.0032L5.44106 24.9619L0.599609 11.1207H5.49143L7.75286 18.0032Z" fill="#1ACB56"/>
<path d="M16.9359 18.0412L14.6369 24.9618L12.3379 18.1177L14.6369 11.1205L16.9359 18.0412Z" fill="#1DDFE3"/>
<path d="M5.44141 24.9618H10.0897L12.3387 18.1177L10.0394 11.1205L5.44141 24.9618Z" fill="#FF1755"/>
<path d="M34.6264 11.1205V18.6481C34.6264 19.8989 33.5904 20.9128 32.3129 20.9128C31.0354 20.9128 29.9994 19.8989 29.9994 18.6481V11.1205H25.4883V18.6481C25.4883 22.3378 28.5439 25.3288 32.3132 25.3288C36.0819 25.3288 39.1375 22.3378 39.1375 18.6481V11.1205H34.6264Z" fill="white"/>
<path d="M49.6807 10.7396C48.3236 10.7396 47.1082 11.3334 46.2695 12.2714V11.1205H41.8535V24.9618H46.2695V17.095C46.2695 16.3209 46.7236 15.6089 47.4374 15.3089C47.9266 15.1033 48.4633 14.9889 49.0282 14.9889C49.8805 14.9889 50.6722 15.2457 51.3327 15.6846L51.658 11.1934C51.0589 10.9054 50.39 10.7396 49.6807 10.7396" fill="white"/>
<path d="M58.416 6.40002H54V24.962H58.416V6.40002Z" fill="white"/>
</svg>
