<svg xmlns="http://www.w3.org/2000/svg" viewBox="0 0 425.676 367.128"><defs><style>.cls-1{fill:#fff;}</style></defs><title>Asset 1</title><g id="Layer_2" data-name="Layer 2"><g id="Layer_1-2" data-name="Layer 1"><path class="cls-1" d="M117.1,229.347c0,.779.007,1.554-1.412,1.5.35-1.022-.36-1.311-.363-2.09-1.772-.325-.344,1.806-2.122,1.476A13,13,0,0,0,114.6,226.4c-.71-.027-1.419-.055-1.42-.316,1.057-2.291-2.854-5.028-1.091-7.554a28.314,28.314,0,0,0-4.975-2.782c-1.052,3.322-2.464,7.155-2.808,10.248-14.464,23.784-30.349,48.284-56.561,62.794-4.249,2.428-9.207,5.341-15.592,5.867-7.1-.8-11.379-7.437-12.462-12.4-2.488-.616-3.213-5.56-3.224-8.672,0-.517.357-.247.707-.49,0-.774-1.421-.577-1.422-1.608,1.06-1.512.343-3.359-.727-4.7,1.393-7.975,1.011-16.274,1.7-22.721l1.061.041c-1.431-3.423.343-4.907.68-8.78-1.069-1.077-1.415.72-1.77-.068,3.9-1.657,1.4-6.159,4.223-9.42-1.065-1.076-1.06,1-1.773-.071,2.121-2.243,3.526-5.813,2.1-8.718,2.84-.928,2.113-4.841,3.526-6.858-3.194-.382-.7,1.788-2.12,2.51-3.2-1.425,2.119-2.766.69-5.671,4.319-.8,3.644-5.172,2.951-6.815.428.248,1.287.458,1.285-.016a2.252,2.252,0,0,0-1.424-.314c.353-.5-.355-1.567.71-1.526.709.03.357,1.311,1.42,1.093.348-2.058-.36-1.828-1.43-3.164,1.063-.218,1.065.3,2.13.341.344-3.093,4.237-6.309,1.038-7.992,0-.77,1.417-.195,2.129-.428a3.074,3.074,0,0,1,1.056-2.548c-1.421-.578-1.06,1.768-1.774.705,4.239-6.051,6.7-13.461,10.224-19.545-1.064-.041-1.062.481-1.771.454,1.771-1.228,1.412-2.278,2.828-3.515-.005-1.041-1.416,1.237-1.777-.069.707-.5.349-2.062,1.768-2.007,1.064.043-.706.747,1.068,1.079,1.058-1.251-1.072-1.854-1.073-2.894,3.544-1.153,3.89-3.989,5.659-5.733-.358-.532-2.129-.085-1.779-1.107,1.061-.731,1.419.057,2.481-.42.148-1.446,1.615-2.841,3.093-4.276-.325-.013-.653-.028-.978-.04l0-.523,1.067.044c0,.216,0,.278,0,.432,1.921-1.866,3.818-3.8,2.817-6.024,1.418-.2.7-1.78,2.834-1.441a3.715,3.715,0,0,0,.7-2.044c15.209-14.167,27.214-32.089,49.542-39.762,8.181,5.5,6.1,18.631,13.215,25.122,2.132.343,2.483-.417,4.258-.095,8.852-5.349,5.963-20.743-1.158-26.978,0-.261,0-.774,0-1.036-5.329-2.8-9.951-6.087-18.824-6.172-1.064-.041-.706.752-1.774.708-27.323.226-36.491,16.442-50.646,27.8.713.8,0,.774.006,2.071-5.315,2.642-6.714,8.286-10.961,11.744-.351.761.716.8.362,1.567-5.311,4.2-6.7,11.657-11.656,16.638,0,.518,0,1.3,0,1.81-2.12,2.512-4.241,4.755-4.227,8.646-.714-.289-.712.229-1.418.2-1.046,5.4-5.645,9.36-5.983,14.791-.713-.292-.71.487-1.065.474-.338,3.611-2.455,8.189-4.218,11.23.709.027.71.288.713.8-1.42.463-1.412,2.278-2.117,3.287-2.1,10.793-8.094,20.663-8.055,32.32-1.764,2.775-2.807,9.731-3.145,14.116-1.381,12.12-2.751,26.571.845,40.7,3.212,4.534,5.71,9.287,9.271,13.317,4.973,1.747,8.883,4.488,12.8,6.974,1.416-.464-2.848-1.666-1.075-2.376,8.185,7.834,32.313,6.706,38.673-.82,3.546-.117,3.537-2.968,7.8-2.545,4.593-5.254,12.034-8.33,15.562-14.666a8.563,8.563,0,0,1,2.483-.683c.7-1.527,2.122-1.987,2.117-3.8,6.384-.787,4.219-10.451,10.6-12.022-1.424-1.864,3.536-3.742,1.046-5.391-3.529,5.3-8.481,9.767-12.729,13.748.709.027,1.065-.477,1.067.041a6.46,6.46,0,0,1-4.253,2.166c-.357-1.311,1.06-1.779-.008-2.589,12.026-11.708,20.852-25.091,30.032-38.716a4.214,4.214,0,0,0,2.13-.176C117.812,230.41,118.162,229.388,117.1,229.347Zm-100.05,3.859c0-.261,0-.517,0-.779l.709.028c0,.261,0,.517,0,.779ZM18.742,211c.712-.744-.361-2.084.35-2.575C20.865,208.491,19.811,211.3,18.742,211ZM8.884,233.149c.306-14.755,6.652-26.68,11.567-42.286.71.027.712.545,2.131.6.361,1.31-1.414.986-2.124,1.733.362,1.567.008,1.553.012,3.368-.269.49-.437,1.032-.692,1.53a2.262,2.262,0,0,0,1.407.307c.359,1.054-1.417.468-1.413,1.242-1.051-.295.284-1,0-1.525C14.375,208.691,12.227,220.918,8.884,233.149Zm8.444-21.173a1.7,1.7,0,0,0-1.066-.3c-.358-.793-.006-1.292,1.058-1.251C16.617,210.914,17.325,211.2,17.328,211.976Zm3.83-21.6c-.009-3.629,2.46-7.417,3.866-10.991C25.036,182.754,22.566,187.059,21.158,190.377Zm-.65,17.583c-3.2-.905.7-4.377-.725-4.949.349-.5,1.064.041,1.419.055a7.726,7.726,0,0,1,1.407-3.314C23.683,202.646,20.853,204.862,20.508,207.96ZM23.283,188.9c-.355-.79.709-.747.348-1.54C24.344,187.391,24.7,189.476,23.283,188.9Zm2.805-9.478a3.57,3.57,0,0,0,1.778.333c.362,2.341-1.768,2.779-2.47,4.305,0,.775,1.781,1.622.008,1.815C22.555,183.952,27.159,181.026,26.088,179.426Zm.036,11.145c1.425.57.005,1.81-.342,2.571C24.359,192.313,26.128,191.345,26.124,190.571ZM24.05,205.51c.7-1.265.7-2.823,1.4-3.831A2.931,2.931,0,0,1,24.05,205.51Zm3.141-15.159c-1.071-.821-1.072-1.861-.007-2.333C28.25,188.575,26.474,189.283,27.191,190.351Zm.722,3.654c0-.261,0-.261,0-.518l1.064.041c0,.257,0,.257,0,.518Zm1.416-.725a1.385,1.385,0,0,1-1.068-1.594l1.419.055C29.682,192.259,28.973,192.231,29.329,193.28Zm1.058-2.542c0,.513-.358-.014-.712-.028C29.673,190.187,30.386,190.476,30.387,190.738Zm-2.539-15.644c-.355-.788,1.418-.976-.356-1.044a4.691,4.691,0,0,1-.347,2.311c0,.523.353-.24,1.064.043.36,1.311.008,2.594-1.41,2.794-.361-.794.352-.766.35-1.284-1.417-.311-.709,1.013-1.414,1.243-1.072-1.856.692-3.859,1.757-5.107a10.843,10.843,0,0,1,2.11-4.845c.355.014.715.55.713.028,1.061.3,1.422.836,1.425,1.61C29.967,171.551,30.689,174.429,27.848,175.094Zm2.462-7.671c1.061.3.357.531,0,1.036C29.6,168.17,30.311,167.684,30.31,167.423Zm2.118-1.987c1.776-.193.716,1.319,1.074,2.112C30.664,167.437,32.43,166.466,32.428,165.436Zm-.007-2.333c1.066-.476,1.417.316,2.841-.151.356,1.312-1.775.454-1.418,1.759A2.7,2.7,0,0,1,32.421,163.1Zm-.645,18.623c0-.256,0-.256,0-.518.355.014.354-.247.354-.247C33.193,180.745,32.843,182.28,31.776,181.726ZM33.9,180.25c-1.068-1.595,1.766-3.031,1.758-4.851C37.433,176.508,34.6,178.985,33.9,180.25Zm1.393-9.527c1.417-.2.71,1.065.357,1.313C34.936,171.745,35.292,171.241,35.29,170.723Zm2.08-13.644c-.354,1.022.359,1.049.362,1.828-2.482.164-1.058,2.031-2.117,3.8-2.844-1.408-.019-5.7,1.049-5.659-.367-1.829,1.409-2.017,1.407-3.314,2.484.621-1.413,2.017.009,2.851.359.788.7-.753,1.772-.186C39.5,157.42,38.084,158.142,37.37,157.079Zm2.117-3.8c-1.422-.837,1.77-.711.7-2.306,1.069.3,1.069,1.082,1.781,1.622A3.147,3.147,0,0,0,39.487,153.278Zm5.646-8.587c2.49.878.716,1.581.723,3.139-1.065.472-.713-.027-1.774-.068,0,1.553.011,3.107-1.409,3.306,0,.523-.709.234,0,0,.353-1.017-.36-1.044-1.777-.847-.361-2.085,1.767-2,1.759-3.813,1.42-.466,1.778.327,2.482-.164-1.776-1.1-.712-1.836-.364-3.376,1.777.068,2.486.613,3.906.927C48.683,144.83,46.2,144.215,45.133,144.691Zm3.187-1.684c.354-1.027-1.417-.575-2.128-.863-.358-.793.707-.491.348-1.54,1.773.07,1.779,1.363,3.553,1.431A1.78,1.78,0,0,1,48.32,143.007Zm.7-1.788c-1.066-.3-.712-1.324-.715-2.1l1.064.041C49.73,140.211,48.669,140.17,49.025,141.219Zm.347-2.313,0-.523,1.068.041,0,.523Zm1.417-1.247c-1.781-1.617,2.826-4.031,3.525-6.336C55.035,133.944,51.488,135.358,50.789,137.659Zm4.945-6.8c-1.064-.043-.005-1.036-.007-1.292C56.8,129.611,56.087,130.614,55.734,130.862Zm11.645-19.486c1.415-.2,0,1.035,0,1.553C65.963,112.613,67.378,111.894,67.379,111.376ZM2.224,258.009c0,.251,0,.513,0,1.031,1.059-.988-.362-2.341.7-3.08,1.777,1.624-.344,3.093.725,4.951-1.064-.043-1.067-.561-1.775-.332-.356-1.044.353-1.017.351-1.539C.811,259.246.8,257.432,2.224,258.009Zm1.436,5.235c-1.417.46-.71-.8-1.068-1.6A1.59,1.59,0,0,1,3.66,263.244ZM1.534,262.9c.707-.485.007,2.333.719,2.878C.476,265.707,1.889,263.691,1.534,262.9Zm1.071,2.374c1.422.836.357,1.31,1.072,2.37C1.547,267.3,2.962,266.582,2.605,265.272Zm3.811-26.787c-.7,1.013-1.416,1.5-1.765,2.521,1.091,6.777-.68,8.779-.663,14.223-.707.491-2.13-.607-1.767,1.222-1.42-.316-.365-2.347.345-2.837-1.784-3.175-.028-8.546.312-12.418,1.425.575-.352,1.278.713,1.583,1.418-.207-.357-1.305.707-2.043,0-1.292-1.42.46-1.423-.319.684-7.737,2.784-16.98,4.883-25.7,1.065.3.707-.491,1.416-.464.351-1.027-.713-.806-1.068-1.081-.357-1.044,1.064-.733,1.06-1.513a6.048,6.048,0,0,1,1.756-4.591c-1.423-1.608,1.767-3.554.339-4.906,10.538-32.22,24.992-60.4,48.334-83.833.707-.5,1.771-.455,2.128-.7-.358-.793-.362-1.567,1.056-1.774-.715-1.32,1.064.043,0,0-.7,2.566-1.757,5.114-5.305,5.488.005,1.819-2.464,5.6-4.95,5.507,0,.522-.346,1.283.364,1.311-17.32,21.077-30,47-38.434,72.83-.707,1.782.012,4.142-2.114,5.869.02,5.444-2.8,10.767-3.134,16.715-.356-.275-.358-.793-.713-.806-1.055,2.809-.34,3.872-.687,6.447-.709-.027-.712-.54-1.066-.556.717,2.352.722,3.654-1.045,5.655,1.42.313,0-1.554,1.417-.984-.351,1.542-.345,3.613-2.117,4.58A2.238,2.238,0,0,0,6.416,238.485Zm.362.793a13.686,13.686,0,0,1,1.4-5.382C8.535,235.206,7.837,238.281,6.778,239.278Zm.042,13.211c1.064.043.712.547,1.069,1.079-.355-.014-.711-.284-1.066-.3C6.822,253.006,6.821,252.745,6.82,252.489Zm.015,4.659c1.419.319,1.072,1.859-.352,1.54C6.125,257.9,7.192,257.944,6.835,257.148Zm-.693,5.417c1.068.044,1.421.314,1.78,1.363C6.5,263.871,6.142,263.078,6.142,262.565ZM6.9,275.019c0-.517,1.065-.474,1.064.044C7.605,275.31,7.6,275.049,6.9,275.019Zm3.789-33.779c0-.256.354-.243.708-.227C11.394,241.27,11.039,241.254,10.684,241.24Zm2.115-5.093c-2.487-.872-.369-2.608-.014-3.886-.009-2.85,1.041-5.916,1.742-9.257C15.255,227.953,12.779,230.969,12.8,236.147Zm4.185-20.811a41.1,41.1,0,0,1-1.4,6.933c-2.484-.355-.36-2.6-.01-3.107,0-.518-.709-.547-1.063-.561,1.771-.447.34-3.872,3.178-3.761a3.645,3.645,0,0,1,1.055-2.809C19.459,212.84,18.4,216.164,16.984,215.336ZM15.652,241.18c0-.262,0-.518,0-.774l1.068.041c0,.256,0,.513,0,.774Zm78.513,27.154c-1.062.477-.712-.546-.715-1.063C94.16,267.3,94.517,267.829,94.165,268.334ZM91.333,270.3c2.483.1-.352,1.278.007,2.327C90.277,272.067,91.335,270.811,91.333,270.3ZM76.469,282.4c-.359-1.569,1.417-.981,1.06-2.291C78.949,280.43,77.535,282.185,76.469,282.4Zm2.479-2.237c-1.779-.586.345-2.057,1.764-2C81.073,279.473,78.943,279.138,78.948,280.168Zm5.646-7.805c-1.061-.043-.358-1.574.71-1.269C84.952,271.6,84.6,271.846,84.594,272.363Zm3.172-7.387q0-.785,0-1.553C89.178,262.962,89.187,265.551,87.766,264.976Zm2.478-2.5c0-.518,0-.78,0-1.031C91.656,260.982,91.664,262.8,90.244,262.481Zm3.183-2.725c-2.131-.6.35-1.017-.01-2.333l1.067.041C94.485,258.5,93.778,259,93.427,259.756Zm.346-2.576c0-.256,0-.512,0-.774l1.419.055C94.48,256.7,94.836,257.478,93.773,257.18Zm2.829-1.959c-.352-.016-.354-.534-.353-1.051.706.029.707.29,1.061.822A.411.411,0,0,0,96.6,255.221Zm1.763-2.777a19.709,19.709,0,0,1,2.118-4.583C102.617,249.237,100.5,252.264,98.365,252.444Zm5.664-6.258c-1.072-.3.347-1.023-.008-1.815C105.793,244.185,104.375,245.942,104.029,246.186Zm4.587-6.039c-.708-.284-.709-.545-1.42-.829a3.007,3.007,0,0,1-2.473,4.3c-.707-1.062,0-1.3-.007-2.332,2.846,1.147,1.057-3.063,3.54-2.968,0-.517.711-.231,0,0C108.258,238.841,108.972,239.133,108.616,240.147Z"/><path class="cls-1" d="M272.344,151.287c-6.23-13.743-26.885-6.143-35.272-.223-9.1,7.853-18.195,15.418-25.62,24.805,2.059-8.922,8.226-21.788-4.579-25.523-2.854,3.866-4.04,10.905-6.112,16.784-14.783,12.245-30.621,23.844-53.574,25.709-1.755-4.934,3.959-10.759,1.573-15.176,4.073-3.389,3.864-13.882-1.324-16.233-3.8-.835-6.6,1.231-8.964,1.063,1.952-2.691,3.905-5.387,3.589-9.653-.69-7.691-8.235-10.208-14.638-12.078-6.791-.481-12.046,2.828-16.379,5.638-11.812,13.04-23.865,25.211-29.271,44.647.793,1.47,1.3,2.923,2.089,4.4-.072,1.127,1.237-.765,1.144.646.482,1.734,1.57,3.227,2.035,5.238,16.7,7.692,33.616-15.458,46.187-21.934,1.848-1,3.621-.876,4.89-2.2-.223-1.153,2.175-1.545,3.409-2.308.019-.285.055-.848.314-.264a.281.281,0,0,1-.314.264c-1.285,6.138-1.554,14.894-1.621,20.557,1.83,3.8,3.161,6.164,7.494,7.887,2.658.188,4.673,1.175,7.345,1.085,15.814-5.8,29.618-12.5,41.45-21.8-3.052,11.628-5.742,24.9,4.854,30.457,5.735-1.58,9.236-5.294,10.54-11.716,7.937-12.743,17.541-23.676,27.159-34.886,2.4-.395,3.7-2.287,4.458-4.779,8.464-2.518,15.468-9.946,25.151-12.948A20,20,0,0,1,272.344,151.287ZM87.623,192.307c.038-.557,2.1-.41,1.437.667C88.473,192.933,88.213,192.349,87.623,192.307Zm3.574-4.841c-.111,1.69-1.032,2.192-1.675,2.993-.555-.6,1.028-2.192,1.675-2.993C91.214,187.187,91.79,187.508,91.2,187.466Zm2.142,3.548c9.616-15.74,17.844-33,37.709-37.54.428,2.579-1.486,9.242.748,11.385C119.059,173.864,108.851,185.033,93.339,191.014ZM133.188,170.9c-.295-.021-.277-.3-.575-.326-.054.848-.922.507-.958,1.07-.589-.044.09-1.406.958-1.07.035-.558.351-.816.938-.776C133.515,170.358,133.5,170.632,133.188,170.9Zm1.308-1.887c-.224-1.147,1.2-.2,1.251-1.042C136.892,168.608,134.752,169.593,134.5,169.009Zm29.758,21.355c1.677,1.535,2.377-.109,3.04-1.2,1.477.106-.036.564-.073,1.133,1.217-.484,2.712-.66,3.372-1.751l-.882-.062a1.845,1.845,0,0,1-1.533.745c.331-.543.666-1.091,1.533-.745.038-.557.622-.517.882.062,10.545-4.9,19.628-11.392,28.744-17.978-.117.239-.216.5-.34.733-.094.516-.218,1.07-.336,1.615-10.008,8.041-22.157,14.606-34.554,19.707C162.924,192.538,163.9,191.188,164.254,190.364Zm-.957,5.595c-.347.828-1.527.745-2.138.988C160.936,195.794,162.116,195.877,163.3,195.959Zm-1.619,2.151c.661-1.08,1.859-1.282,3.058-1.482C164.366,197.734,162.894,197.629,161.678,198.11ZM196.636,180.2c-.465-2.011-1.457-.385-2.1.416.572.326,1.529-.737,1.77.126-10.621,3.783-18.913,12.822-31.269,15.911.055-.847,1.217-.481,1.565-1.3-1.162-.367-2.45,1.241-2.988.348,7.578-2.572,12.817-5.6,19.842-8.789,4.331-3.713,9.5-6.973,14.375-10.462-.277,1.078-.576,2.2-.88,3.334C196.86,179.911,196.7,180.072,196.636,180.2ZM237.8,162.725c-.295-.021-.259-.584-.241-.869.608-.24.572.329.554.608A.278.278,0,0,0,237.8,162.725Zm3.1-2.045c-1.107-1.214,1.86-1.284,1.673-3l.885.062C243.352,159.437,241.565,159.592,240.9,160.68Zm-29.257,21.428c9.872-15.159,23.806-28.894,40.623-36.768.867.349,2.655.188,4.759-.228-.423,1.949-3.558.034-2.8,2.065-1.443-.661-1.551,1.029-3.6.6C234.956,156.292,222.885,168.748,211.645,182.108Zm33.4-25.954c-.816-1.189,1.564-1.3,2.489-1.806C247.168,155.459,245.969,155.661,245.049,156.154Zm9.513-4.986c-2.363-.168-4.333,2.8-7.007,2.9,1.9-1.849,4.92-2.761,6.82-4.617C255.869,149.284,254.321,150.3,254.562,151.168Zm1.531-.742c-.8-1.471,1.013-1.907,2.155-1.261C257.62,149.681,257.274,150.509,256.093,150.426Zm2.45-1.241a1.447,1.447,0,0,0,.665-1.088,7.143,7.143,0,0,0,2.4-.4C261.219,149.089,259.741,148.986,258.543,149.185Z"/><path class="cls-1" d="M424.273,122.283c-8.405,6.2-17.327,11.231-25.753,17.714.59.041,1.5-.176,1.144.651-.3-.021-.315.258-.61.238-.591-.042-.555-.6-.534-.889-4.814,1.084-6.2,4.094-9.9,6.376-.239-.857.962-1.059-.221-1.141-.606.243-.036.563-.074,1.121-4.739-.048-5.842,3.273-9.46,4.149-.328.543.262.584.227,1.148-12.208,5.369-24.928,14.1-37.209,20.586-.867-18.75,2.294-30.983,11.928-47.007,1.743-2.9,4.813,3.428,4.968,4.662.529,4.2-1.071,11.146-3.67,14.616-.177.237-.729.641-.334.872a2.532,2.532,0,0,0,.694.081c.616.08,1.232.166,1.851.248,3.375.451,7.661-2.661,8.73-5.733,2.031-5.835,3.1-10.693,2.151-16.959a18.45,18.45,0,0,0-4.916-10.389,11.041,11.041,0,0,0-6.19-3.276c-5.366-.715-10.532,5.16-13.23,8.925a59.267,59.267,0,0,0-8.248,15.653c-1.893,5.684-2.046,11.522-2.9,17.389a72.583,72.583,0,0,0-.925,16.523c-.292-.02-.888-.062-1.18-.085-.514,3.365.189,6.247-.308,9.322-3.394,2.827-6.8,5.62-10.132,8.468-4.378,1.7-8.657,3.483-12.706,5.315-12.633,2.8-31.039,12.251-42.609,3.22,1.873-6.1,2.494-11.151,6.017-15.149,5.076,4.047,12.1.857,17.781.128,1.531-.2,4.388-3,5.747-3.857,2.058-1.3,4.136-2.583,6.089-4.027,4.08-3.015,6.581-7.087,10.232-10.377,1.981-1.786,3.944-6.409,2.594-8.955a19.343,19.343,0,0,0-2.235-2.5c-2.373-3.028-2.026-5.663-6.33-6.983a16.04,16.04,0,0,0-9.878.048c-16.722,6.46-29.344,22.836-35.655,37.964-2.556,12-1.638,25.37,12.347,29.188,10.332.73,15.791-1.147,23.98-3.964.642-.807-.5-1.453,1.008-1.914,1.526,1.124,4.469-1.28,7.666-2.428a69.944,69.944,0,0,0-9.627,14.641c-1.4,3.3-.992,6.155-.654,10.146,2.055,9.487,5.347,18.215,13.026,23.285,10.685,4.436,21.158-1.62,27.682-6.252,3.556-4.562,6.891-10.272,8.379-14.981,2.994-14.228-1.427-28.41-1.5-41.157,11.615-9.944,26.829-15.944,38.995-25.278.274.305.238.868.533.889,7.746-5.118,18.4-9.458,25.63-15.739-.3-.021-.554-.61-.518-1.173,1.421.953,2.747-1.218,4.514-1.092.057-.847.093-1.411.129-1.974-2.655-.189-3.758,3.13-6.345,1.815-.659,1.086.227,1.148.154,2.28-1.459-.391-1.533.731-2.418.669.055-.837.92-.5.682-1.365-3.54-.25-4.719,4.2-7.284,2.6,3.668-1.719,7.174-5.438,11.322-5.431,1.675-2.99,3.5-3.714,6.819-4.612.351-.821-.811-1.188.092-1.4,1.439.669,3.356-1.461,4.647-3.071-.593-.042-1.809.437-1.144-.649,4.553-1.66,6.562-5.195,8.345-9.881C424.791,123.456,424.532,122.872,424.273,122.283ZM293.458,155.052c-.81-1.191-1.841,1-3,.639,3.2-3.735,9.2-4.736,14.344-6.349-6.149,8.054-15.373,13.068-25.422,17.171A67.52,67.52,0,0,1,293.458,155.052Zm-3.83,45.593c-1.18-.083-.071,1.127-.7,1.649-1.386-1.509-2.307-1.01-3.839-.271.442-2.233-.795-1.468-1.662-1.817,3.65-1.432,9.166.369,13.743-1.572C295.329,199.631,291.7,200.792,289.628,200.645Zm19.385-1.571c.736-2.212,2.84-2.628,3.853-4.536C313.325,196.548,310.839,198.356,309.013,199.074Zm5.781-6.25c.775-.35,1.526-.747,2.285-1.123-.656.738-1.665,1.143-1.521,2.457-.3-.024-.59-.044-.573-.323l-.59-.041A3.648,3.648,0,0,1,314.794,192.824ZM331.515,176.6c-.777-1.757-.038-3.969-.169-6.528A16.351,16.351,0,0,1,331.515,176.6Zm-3.94,5.948c.331-.543.661-1.081,1.546-1.019-.33.538-.661,1.081-1.546,1.019a1.829,1.829,0,0,1-1.532.741C326.376,182.752,326.708,182.2,327.575,182.55ZM304.2,199.985c.562-.224,1.109-.394,1.585-.64-.262.295-.5.614-.756.913C304.653,200.227,304.181,200.273,304.2,199.985Zm-3.973,11.209c-.241-.869.644-.8.4-1.67C301.236,209.289,301.09,211.542,300.226,211.194Zm1.968-2.976c-.237-.862.336-.542.944-.78C303.1,208,302.786,208.26,302.194,208.218Zm.684-1.364c.073-1.132,2.138-.985.4-1.675.035-.558.646-.8,1.513-.452C304.426,205.825,304.354,206.957,302.878,206.854Zm1.955-2.69c.642-.807.752-2.5,2.23-2.394C306.673,203.155,306.032,203.962,304.833,204.164Zm2.01-5.943a2.018,2.018,0,0,0,.16-.315c-2.749,1.231-7.175.916-9.243.771a118.672,118.672,0,0,0,12.365-3.938C309,195.87,307.918,197.045,306.843,198.221Zm15.927,35.8c-5.163,1.905-13.717,5.835-18.775,1.509,1.693-21.684,17.527-32.737,29.768-43.2a.286.286,0,0,1,.28.3C337.243,207.305,334.5,226.927,322.77,234.02Zm93.319-104.386c-.019.284-.609.243,0,0Zm-14.84,9.43c.349-.827,2.212-2.109,2.766-1.507-.92.5-1.567,1.305-2.766,1.507C401.231,139.348,400.638,139.307,401.249,139.064Zm-4.02,2.546a1.566,1.566,0,0,1-1.216.478C396.032,141.8,396.344,141.545,397.229,141.61Zm-14.046,10.9c.074-1.126.978-1.349,1.863-1.287C385.266,152.373,384.363,152.59,383.183,152.507Zm1.767-4.4c-.628.517-1,1.629-2.175,1.544C382.85,148.515,383.752,148.305,384.95,148.1Zm-38.644,24.445-.037.569-.59-.041.037-.569Zm-2.833,7.162c.054-.847-.226-1.148-1.126-.93,1.9-1.843-.465-2.011,0-4.528,1.2-.2,1.55-1.029,3.042-1.2-.644.8-1.029,2.192-1.937,2.406-.053.843.816,1.192.762,2.04.59.041,1.587-1.593,1.014-1.913.367-1.106.573.32.865.341.926-.5-.219-1.142.423-1.949.831.913.795,1.476.684,3.166.907-.222,1.235-.765,1.866-1.287C348.671,177.249,345.6,179.01,343.473,179.71Zm31.415-18.164c-3.594.6-5.028,4.459-8.83,3.625-1.13-.929.975-1.35.718-1.934-1.18-.082-1.829.721-2.47,1.523.241.868,2.029.71,1.957,1.843-3.024.912-5.256,3.3-8.3,4.507.683-1.369.093-1.411-1.126-.933.331-.543.963-1.061.405-1.664-2.378.114-.405,1.664-1.067,2.755l.885.062c.224,1.148-.92.5-.974,1.344-1.163-.361.349-.827.089-1.406-1.51.455-1.657,2.709-3.448,2.867,0,0-.018.284-.035.563-1.181-.082-1.533.744-2.158,1.264-1.16-.361-.555-.6-.5-1.452-1.46-.383-.7,1.649-2.155,1.267.272-4.229,2.922-8.571,7.535-6.545-1.311-2.644,4.775-5.048,7.522-6.266.238.868-.629.522-.665,1.091.832.9,1.312-1.9,2.233-2.393a3,3,0,0,1,2.325.725c.59.042.625-.516,1.215-.475.054-.848-1.162-.367-1.752-.408,1.621-2.151,7.484-5.7,9.167-4.167,1.18.085,1.511-.458,2.119-.7.036-.563-.885-.062-.849-.625,1.031-2.192,3.722-2.567,6.154-3.527.244.864-1.2.2-1.252,1.042a.84.84,0,0,0,.65.681c-1.293,1.456-4.7,3.6-6.274,3.736C375.9,159.641,374.373,160.373,374.888,161.546Zm21.5-16.036c.795,1.47-1.643,2.434-2.579,3.221-.054.842,1.052,2.051,1.44.661.461,2.021-3.67,1.73-4.927,2.768.223,1.153.647-.8,1.5-.176-3.779,3.415-8.646,5.336-13.238,7.559,4.479-5.061,11.321-5.429,14.674-11.417-2.693.375-4.836,1.354-5.566,3.567-.835-.905-1.181-.082-2.328-.731,2.2-1.827,4.388-3.658,8.241-3.664a2.556,2.556,0,0,1,2.787-1.788c.035-.564-.26-.584-.224-1.148.9-.214,3.079-1.765,3.248.23C398.561,143.967,397.861,145.616,396.386,145.51Zm-6.51,4.355.591.042c-.019.284-.019.284-.036.563l-.59-.041C389.858,150.15,389.858,150.15,389.876,149.865Zm9.609-6.4c.68-1.37,5.711-5.827,5.1-1.056C402.949,140.309,401.824,143.917,399.485,143.466Zm5.269-3.588c.017-.28.315-.259.333-.543.552.6,1.44.667,1.365,1.793C405.255,141.325,405.621,140.218,404.754,139.878Zm5.367-.474c-1.2.2-2.011-.992-2.655-.186-.8-1.476,1.919-2.129,3.135-2.61C410.211,137.992,409.031,137.91,410.121,139.4Zm.716-6.461a10.073,10.073,0,0,1-4.038,2.83,10.071,10.071,0,0,1,4.038-2.83c.036-.564.623-.52.659-1.083C412.366,132.206,411.407,133.266,410.837,132.943Zm1.293,2.923c1.291-1.608,1.935-2.415,4.038-2.825-.28-.306-.262-.585-.226-1.154.593.042,1.553-1.023,1.794-.154C416.791,132.518,415.116,135.516,412.13,135.866Zm6.267-5.216c-.262-.585.608-.238.94-.786C420.222,129.926,419.265,130.991,418.4,130.65Zm1.345-2.456c-1.163-.361-.464-2.016.7-1.649C420.4,127.109,419.519,127.047,419.742,128.194Z"/><path class="cls-1" d="M62.375,46.554l-3.353-9.911H40.51q-.771,2.3-1.607,4.991l-1.536,4.92H28.388L44.981.624h9.637l16.147,45.93ZM49.729,10.606q-1.677,4.682-3.211,9.075t-3.353,9.353h13.2Z"/><path class="cls-1" d="M97.7.774H80.8V46.659h7.808V31.034H97.7c9.254,0,13.752-3.9,13.752-11.913v-6.5C111.455,4.649,106.957.774,97.7.774ZM88.609,7.992h8.9c5.287,0,6.14,1.385,6.14,4.695v6.434c0,3.247-.887,4.7-6.14,4.7h-8.9Z"/><path class="cls-1" d="M137.391.774h-16.9V46.659H128.3V31.034h9.094c9.254,0,13.752-3.9,13.752-11.913v-6.5C151.143,4.649,146.645.774,137.391.774ZM128.3,7.992h8.9c5.287,0,6.14,1.385,6.14,4.695v6.434c0,3.247-.887,4.7-6.14,4.7h-8.9Z"/><path class="cls-1" d="M174.229,42.075h21.2v4.6H169.61V.825h4.619Z"/><path class="cls-1" d="M236.029,33.319c0,7.641-4.751,13.9-16.59,13.9s-16.592-6.263-16.592-13.9V13.905c0-7.641,4.75-13.9,16.592-13.9s16.59,6.264,16.59,13.905Zm-28.882.067c0,6.588,4.017,10.282,12.452,10.282s12.45-3.694,12.45-10.282V13.838c0-6.587-4.016-10.283-12.45-10.283s-12.452,3.7-12.452,10.283Z"/><path class="cls-1" d="M243.056.825h4.585l14.819,41.25L277.313.825h4.7L265.528,46.674h-6.091Z"/><path class="cls-1" d="M296.243,46.674h-4.619V.825h4.619Z"/><path class="cls-1" d="M318.391,6.339V46.674h-4.343V.825h6.821l19.964,39.239V.825h4.344V46.674h-5.521Z"/><path class="cls-1" d="M233.6,337.745a14.6,14.6,0,0,0-5.7,1.151L195.73,280.958l-.119-.214A14.691,14.691,0,1,0,172,280.6l-.2.361-32.137,57.878a14.76,14.76,0,1,0,6.025,4.565c10.209-2.665,23.508-4.073,38.6-4.073,13.734,0,27.061,1.471,37.7,4.143a14.674,14.674,0,1,0,11.613-5.726ZM183.86,263.276a8.688,8.688,0,1,1-8.687,8.687A8.7,8.7,0,0,1,183.86,263.276Zm-49.734,97.849a8.688,8.688,0,1,1,8.688-8.688A8.7,8.7,0,0,1,134.126,361.125Zm50.159-28.046c-14.069,0-26.576,1.192-36.261,3.454l28.705-51.691.019-.033a14.64,14.64,0,0,0,14.076.086l28.687,51.658A167.124,167.124,0,0,0,184.285,333.079Zm49.31,28.046a8.688,8.688,0,1,1,8.687-8.688A8.7,8.7,0,0,1,233.6,361.125Z"/></g></g></svg>