<svg width="110" height="32" viewBox="0 0 110 32" fill="none" xmlns="http://www.w3.org/2000/svg">
<path d="M62.2944 14.4035H62.1829L58.6267 24.6073H56.2668L52.7033 14.4035H52.599L51.7779 24.7115H47.4551L49.0845 7.31104H53.5877L57.4431 17.3408L61.2993 7.31104H65.8723L67.4311 24.7115H63.1155L62.2944 14.4035Z" fill="black"/>
<path d="M82.1142 18.2446L80.075 11.8618L78.0776 18.2446H82.1142ZM83.3114 21.9749H76.8451L75.9887 24.71H71.625L77.5412 7.30957H82.6154L88.5179 24.71H84.1814L83.3114 21.9749Z" fill="black"/>
<path d="M109.254 24.6971L102.844 15.6208L108.705 7.32471H103.826L100.401 12.1688L96.9841 7.32471H91.8265L97.8261 15.8156L91.5547 24.6971H96.4268L100.269 19.2677L104.104 24.6971H109.254Z" fill="black"/>
<g clip-path="url(#clip0_2675_20884)">
<path d="M15.224 8.9728L8.7776 0.3888C8.584 0.1296 8.2912 0 8 0V22.6384C8.2912 22.6384 8.5824 22.768 8.7776 23.0272L15.224 31.6112C15.4176 31.8704 15.7088 32 16 32V9.36C15.7088 9.36 15.4176 9.2304 15.224 8.9712V8.9728Z" fill="#7B32CD"/>
<path d="M7.224 0.3888L0.1952 9.7472C0.0688002 9.9152 0 10.12 0 10.3312V29.7344C0 30.6672 1.1888 31.064 1.7488 30.3184L7.224 23.0288C7.4176 22.7696 7.7104 22.64 8.0016 22.64V0C7.7104 0 7.4192 0.1296 7.224 0.3888Z" fill="#5803AF"/>
<path d="M31.8064 9.7472L24.7776 0.3888C24.5824 0.1296 24.2912 0 24 0V22.6384C24.2912 22.6384 24.5824 22.768 24.7776 23.0272L30.2528 30.3168C30.8128 31.0624 32.0016 30.6672 32.0016 29.7328V10.3296C32.0016 10.1184 31.9328 9.9152 31.8064 9.7456V9.7472Z" fill="#6E5BF6"/>
<path d="M23.224 0.3888L16.7776 8.9728C16.584 9.232 16.2912 9.3616 16 9.3616V32C16.2912 32 16.5824 31.8704 16.7776 31.6112L23.224 23.0272C23.4176 22.768 23.7088 22.64 24 22.6384V0C23.7088 0 23.4176 0.1296 23.224 0.3888Z" fill="#5406C6"/>
</g>
<defs>
<clipPath id="clip0_2675_20884">
<rect width="32" height="32" fill="white" transform="translate(0 -0.000244141)"/>
</clipPath>
</defs>
</svg>
