<?xml version="1.0" encoding="utf-8"?>
<!-- Generator: Adobe Illustrator 15.0.2, SVG Export Plug-In . SVG Version: 6.00 Build 0)  -->
<!DOCTYPE svg PUBLIC "-//W3C//DTD SVG 1.1//EN" "http://www.w3.org/Graphics/SVG/1.1/DTD/svg11.dtd">
<svg version="1.1" id="Layer_1" xmlns="http://www.w3.org/2000/svg" xmlns:xlink="http://www.w3.org/1999/xlink" x="0px" y="0px"
	 width="28px" height="20px" viewBox="0 0 28 20" enable-background="new 0 0 28 20" xml:space="preserve">
<g>
	<g>
		<path fill="#333333" d="M25.9,4H2.1C0.9,4,0,3.1,0,2s0.9-2,2.1-2H26c1.1,0,2,0.9,2,2S27.1,4,25.9,4z"/>
	</g>
	<g>
		<path fill="#333333" d="M25.9,12H2.1C0.9,12,0,11.1,0,10c0-1.1,0.9-2,2.1-2H26c1.1,0,2.1,0.9,2.1,2C28.1,11.1,27.1,12,25.9,12z"/>
	</g>
	<g>
		<path fill="#333333" d="M25.9,20H2.1C0.9,20,0,19.1,0,18s0.9-2,2.1-2H26c1.1,0,2.1,0.9,2.1,2S27.1,20,25.9,20z"/>
	</g>
</g>
</svg>
