<svg width="124" height="32" viewBox="0 0 124 32" fill="none" xmlns="http://www.w3.org/2000/svg">
<path d="M18.1342 0H20.4656C25.1756 0.635844 28.7316 3.65022 30.333 8.10113C32.3818 8.43083 34.2658 8.87827 35.7259 10.4797C36.8798 11.6807 37.2331 13.1643 37.445 14.7422C36.3146 14.7657 35.1843 14.7422 34.0539 14.7422C33.9832 13.5176 33.2532 12.7404 32.1463 12.1752C30.6627 11.3274 29.1555 11.5629 27.5541 11.7749C27.2244 10.0558 27.0596 8.68987 26.0705 7.18269C24.5397 4.75706 21.7609 3.27342 18.8878 3.46182C15.3082 3.55602 12.1761 6.2407 11.4225 9.72606C10.9515 11.822 11.4932 13.6353 11.9642 15.6371C10.3628 15.7784 8.47878 15.7077 6.99515 16.3436C4.71082 17.3562 3.20363 19.7583 3.36848 22.2546C3.43913 25.3396 6.10026 28.0478 9.20883 28.0949C13.2594 28.1656 17.2864 28.0949 21.337 28.1185C21.3841 24.3976 21.4312 16.9794 21.4312 16.9794H26.3766C26.3766 16.9794 28.5903 23.3378 29.7442 26.4229C30.8275 23.2672 32.9941 16.9794 32.9941 16.9794H38.1515V31.5332H34.6662C34.6662 31.5332 34.7133 24.6802 34.6662 21.2184C33.3709 24.6802 32.1228 28.0714 30.8275 31.5332C29.9797 31.5096 29.132 31.5332 28.2842 31.5332C27.0831 28.0478 25.8114 24.6331 24.6104 21.1477C24.6339 24.6331 24.7517 28.1185 24.6575 31.6038C20.4185 31.6509 16.1796 31.5803 11.9406 31.6274C10.457 31.6274 8.85558 31.6745 7.39549 31.3919C4.02787 30.6854 1.1077 27.9536 0.259907 24.6095C-0.281738 21.7129 -0.06979 18.6043 1.79064 16.2258C3.27428 14.2005 5.34666 13.0937 7.72519 12.4343C7.81939 10.5268 7.91359 8.71342 8.71428 6.97074C10.3392 3.10857 13.9894 0.494546 18.1342 0Z" fill="#999999"/>
<path d="M105.057 18.5572C104.327 19.3814 103.573 20.1586 102.796 20.9357C102.16 20.5825 101.524 20.2057 100.865 19.9466C99.1459 19.3814 97.097 20.135 96.1786 21.6893C94.8127 24.0208 95.4956 27.6239 98.2981 28.4952C100.064 29.084 101.43 28.401 102.843 27.3884C103.62 28.0713 104.374 28.7543 105.151 29.4608C103.032 32.4751 98.039 32.64 95.1189 30.8266C90.9505 28.3539 90.4324 21.8071 93.9649 18.5807C97.0264 15.8254 101.948 15.849 105.057 18.5572Z" fill="#999999"/>
<path d="M60.7362 17.1677H64.1744C64.1744 17.1677 64.1509 24.8214 64.2451 28.6365C66.4117 28.6836 68.6018 28.6129 70.7684 28.6365C70.7919 29.6491 70.7684 30.7089 70.7684 31.7215C67.4008 31.7686 64.0331 31.7686 60.6655 31.7215C60.6655 26.8938 60.7362 17.1677 60.7362 17.1677Z" fill="#999999"/>
<path fill-rule="evenodd" clip-rule="evenodd" d="M54.9656 18.5809C52.7283 16.532 49.2665 16.0375 46.417 16.9559C43.7794 17.7802 41.8719 19.9468 41.4009 22.7021C40.9063 25.6694 41.8954 28.7544 44.3917 30.5442C47.0528 32.4517 51.386 32.4753 54.0707 30.5913C57.9328 28.0243 58.3332 21.713 54.9656 18.5809ZM52.9645 21.9954C52.046 20.0643 49.6675 19.24 47.7129 20.0407C44.8633 21.1711 44.3452 25.1275 46.2292 27.3412C47.5716 28.9896 50.2091 29.178 51.8341 27.8593C53.5532 26.564 53.8358 23.8558 52.9645 21.9954Z" fill="#999999"/>
<path fill-rule="evenodd" clip-rule="evenodd" d="M86.4056 18.6515C84.239 16.5792 80.7065 16.0611 77.9041 16.9089C75.6669 17.5683 73.9006 19.1461 73.1235 21.3598C72.2286 24.068 72.6054 27.3885 74.6071 29.5315C77.3389 32.5459 82.6376 32.7579 85.7933 30.3087C89.3257 27.5769 89.5848 21.7366 86.4056 18.6515ZM83.3677 20.7711C82.1431 19.6642 80.3062 19.4287 78.8226 20.1352C76.3028 21.2421 75.8789 24.751 77.1977 26.9176C78.4223 28.8486 81.154 29.2961 82.9909 28.0008C85.2517 26.3995 85.393 22.6079 83.3677 20.7711Z" fill="#999999"/>
<path fill-rule="evenodd" clip-rule="evenodd" d="M123.519 24.1855C123.519 21.7599 122.201 19.4284 120.646 18.2039C117.632 15.896 112.898 15.9431 109.908 18.3452C106.375 21.2889 106.563 27.6944 110.308 30.4026C113.204 32.6163 118.009 32.4986 120.788 30.1201C122.248 28.919 123.519 26.5405 123.519 24.1855ZM118.103 20.7472C116.878 19.6639 115.041 19.4284 113.581 20.1349C111.085 21.2182 110.637 24.7742 111.932 26.8937C113.134 28.8248 115.889 29.2958 117.726 28.0006C120.01 26.3992 120.151 22.5841 118.103 20.7472Z" fill="#999999"/>
</svg>
