<svg width="64" height="64" viewBox="0 0 64 64" fill="none" xmlns="http://www.w3.org/2000/svg">
<g clip-path="url(#clip0_3967_19208)">
<path d="M30.448 17.9458L17.5552 0.777844C17.168 0.259444 16.5824 0.000244141 16 0.000244141V45.277C16.5824 45.277 17.1648 45.5362 17.5552 46.0546L30.448 63.2226C30.8352 63.741 31.4176 64.0002 32 64.0002V18.7202C31.4176 18.7202 30.8352 18.461 30.448 17.9426V17.9458Z" fill="#7B32CD"/>
<path d="M14.448 0.777844L0.3904 19.4946C0.1376 19.8306 0 20.2402 0 20.6626V59.469C0 61.3346 2.3776 62.1282 3.4976 60.637L14.448 46.0578C14.8352 45.5394 15.4208 45.2802 16.0032 45.2802V0.000244141C15.4208 0.000244141 14.8384 0.259444 14.448 0.777844Z" fill="#5803AF"/>
<path d="M63.6128 19.4946L49.5552 0.777844C49.1648 0.259444 48.5824 0.000244141 48 0.000244141V45.277C48.5824 45.277 49.1648 45.5362 49.5552 46.0546L60.5056 60.6338C61.6256 62.125 64.0032 61.3346 64.0032 59.4658V20.6594C64.0032 20.237 63.8656 19.8306 63.6128 19.4914V19.4946Z" fill="#6E5BF6"/>
<path d="M46.448 0.777844L33.5552 17.9458C33.168 18.4642 32.5824 18.7234 32 18.7234V64.0002C32.5824 64.0002 33.1648 63.741 33.5552 63.2226L46.448 46.0546C46.8352 45.5362 47.4176 45.2802 48 45.277V0.000244141C47.4176 0.000244141 46.8352 0.259444 46.448 0.777844Z" fill="#5406C6"/>
</g>
<defs>
<clipPath id="clip0_3967_19208">
<rect width="64" height="64" fill="white"/>
</clipPath>
</defs>
</svg>
