<?xml version="1.0" encoding="utf-8"?>
<!-- Generator: Adobe Illustrator 26.2.1, SVG Export Plug-In . SVG Version: 6.00 Build 0)  -->
<svg version="1.1" id="Layer_1" xmlns="http://www.w3.org/2000/svg" xmlns:xlink="http://www.w3.org/1999/xlink" x="0px" y="0px"
	 viewBox="0 0 33 32" style="enable-background:new 0 0 33 32;" xml:space="preserve">
<style type="text/css">
	.st0{fill:#2155AA;}
	.st1{fill:#12E3A3;}
	.st2{fill:#2464F2;}
	.st3{fill:#357EE1;}
</style>
<path class="st0" d="M26.1,18.7l-1.4-2.6L24.2,17c0,0.1-0.1,0.1-0.1,0.1c0,0,0,0,0,0c0,0-0.1,0.1-0.1,0.1c0,0,0,0,0,0
	c0,0-0.1,0.1-0.1,0.1c0,0,0,0,0,0c0,0-0.1,0.1-0.1,0.1c0,0,0,0,0,0c-0.1,0.1-0.2,0.1-0.3,0.2l0,0c-0.3,0.1-0.6,0.2-0.8,0.2H10.2
	l-0.5-0.9c-0.2-0.4-0.3-0.8-0.2-1.2c0,0.4,0,0.8,0.2,1.2l7.6,14c0.7,1.3,2.4,1.3,3.1,0l5.7-10.5c0.2-0.3,0.2-0.6,0.2-1
	C26.3,19.3,26.2,19,26.1,18.7z"/>
<path class="st1" d="M30.3,0L18.9,0c-0.6,0-1.2,0.4-1.6,1l-1.5,2.7H17c0.6,0,1.2,0.4,1.6,1l6.1,11.4l-0.4,0.8c0,0,0,0,0,0l7.6-14
	C32.6,1.6,31.7,0,30.3,0z"/>
<path class="st2" d="M9.7,17.1c0,0,0-0.1-0.1-0.1c0,0,0,0,0,0c0,0,0-0.1-0.1-0.1c0,0,0,0,0-0.1c0,0,0-0.1,0-0.1c0,0,0-0.1,0-0.1
	c0,0,0-0.1,0-0.1c0,0,0-0.1,0-0.1c0,0,0,0,0-0.1c0,0,0-0.1,0-0.1c0-0.4,0.1-0.7,0.2-1l6.2-11.4H1.8c-1.4,0-2.3,1.6-1.6,2.9L5.9,17
	c0.3,0.6,0.9,1,1.6,1h2.7L9.7,17.1C9.7,17.1,9.7,17.1,9.7,17.1z"/>
<path class="st3" d="M24.1,17.2C24.1,17.2,24.1,17.2,24.1,17.2c0.1-0.1,0.1-0.1,0.1-0.2l0.5-0.9L18.5,4.7c-0.3-0.6-0.9-1-1.6-1h-1.1
	L9.7,15.1c-0.2,0.3-0.2,0.6-0.2,1c0,0.3,0.1,0.7,0.2,1l0.5,0.9h12.3c0.3,0,0.6-0.1,0.8-0.2l0,0c0.1-0.1,0.2-0.1,0.3-0.2c0,0,0,0,0,0
	c0,0,0.1-0.1,0.1-0.1c0,0,0,0,0,0c0,0,0.1-0.1,0.1-0.1c0,0,0,0,0,0C24,17.3,24,17.2,24.1,17.2z"/>
</svg>
