<svg xmlns="http://www.w3.org/2000/svg" viewBox="0 0 100 99.713"><g id="Layer_2" data-name="Layer 2"><g id="Layer_1-2" data-name="Layer 1"><path d="M62.44,26c-8.608,0-19.584,18.835-28.155,18.835l-16.89.018A2.86,2.86,0,0,0,14.538,47.7V73.591l16.654-.018c8.554,0,19.53-18.691,28.156-18.691H81.9a3.836,3.836,0,0,0,3.509-3.824V26Z" style="fill:#0092ff"/><path d="M14.557,47.7a2.86,2.86,0,0,1,2.857-2.85l16.89-.018C42.857,44.833,53.833,26,62.459,26H85.424V3C85.424,1.714,83.689,0,81.573,0H57.866C49.258,0,36.582,18.276,28.011,18.276H3.852A3.851,3.851,0,0,0,0,22.119V69.712a3.85,3.85,0,0,0,3.852,3.842H14.557Z" style="fill:#105ffb"/><path d="M97.667,26H85.425V51.056a3.863,3.863,0,0,1-3.508,3.825H59.367c-8.607,0-19.584,18.691-28.155,18.691l-16.655.018V96.863a2.859,2.859,0,0,0,2.857,2.85L38.355,99.7c8.318,0,21.012-18.349,27.359-18.349H97.143A2.859,2.859,0,0,0,100,78.5V28.847A2.819,2.819,0,0,0,97.667,26Z" style="fill:#84dfff"/></g></g></svg>