<svg width="114" height="34" viewBox="0 0 114 34" fill="none" xmlns="http://www.w3.org/2000/svg">
<g id="Layer_2" clip-path="url(#clip0_2504_977)">
<path id="Vector" d="M46.4677 33.875H44.6801C44.3877 33.8314 44.0953 33.7931 43.803 33.7413C42.2659 33.4683 41.1438 32.6984 40.7345 31.164C40.5841 30.5961 40.5229 29.9928 40.5173 29.4031C40.495 26.4982 40.5089 23.5906 40.5089 20.6857V20.3445C40.4839 20.3308 40.4588 20.3172 40.4338 20.3035C40.3029 20.4428 40.1748 20.5847 40.0411 20.724C39.4731 21.3109 38.9079 21.9034 38.3259 22.4794C38.2229 22.5805 38.0502 22.6624 37.9054 22.6706C35.934 22.7825 33.9626 22.8835 31.9912 22.9818C31.7323 22.9954 31.4705 22.9818 31.167 22.9818V18.5672C30.9081 18.8811 30.6909 19.1787 30.4375 19.4463C29.7497 20.1752 29.0341 20.8823 28.3547 21.6194C27.5806 22.4576 26.6283 22.9709 25.5201 23.2493C24.0889 23.6097 22.6242 23.6807 21.1568 23.7298C19.7646 23.779 18.3779 23.7571 17.0525 23.2302C16.9801 23.2029 16.8409 23.2739 16.7629 23.334C16.5318 23.5169 16.3954 23.7981 16.0194 23.8118C14.268 23.8855 12.5166 23.9783 10.7651 24.0766C10.534 24.0902 10.3809 24.0302 10.2305 23.8472C9.79614 23.3203 9.33948 22.8153 8.87448 22.2801C8.2953 22.8808 7.73841 23.4486 7.19265 24.0247C7.03394 24.194 6.86408 24.2704 6.62183 24.2786C5.13492 24.3414 3.64801 24.4288 2.1611 24.5025C1.44827 24.538 0.73823 24.5707 0.00869651 24.6062C0.00312755 24.5025 -0.00244141 24.4397 -0.00244141 24.3769C-0.00244141 19.0831 -0.00244141 13.7894 0.00312755 8.49566C0.00312755 8.37281 0.0643861 8.21992 0.150705 8.12982C0.832902 7.40907 1.52624 6.6965 2.22793 5.99758C2.33652 5.88838 2.5203 5.80921 2.67623 5.79829C4.46943 5.69181 6.26542 5.59625 8.06141 5.51435C8.18671 5.50889 8.35656 5.59352 8.44288 5.68908C8.91067 6.20508 9.35619 6.73745 9.8379 7.2944C10.4032 6.71561 10.96 6.16412 11.4891 5.58806C11.6868 5.37511 11.8956 5.3014 12.1769 5.29048C13.8086 5.21676 15.4375 5.12667 17.0664 5.04477C17.6122 5.01746 18.1579 4.99562 18.7315 4.97105V5.80101C19.4054 5.52254 20.0569 5.17854 20.7531 4.97378C22.3179 4.51239 23.9469 4.47144 25.5674 4.4414C26.7174 4.41956 27.8618 4.45233 28.9728 4.79632C29.0508 4.82089 29.1705 4.72534 29.268 4.67347C29.4323 4.58337 29.591 4.4141 29.7581 4.40591C32.4117 4.25576 35.0681 4.12744 37.7217 3.99366C40.0467 3.87627 42.369 3.75341 44.694 3.63328C45.5823 3.58687 46.4733 3.54592 47.3671 3.50224C47.4256 3.73976 47.4785 3.95271 47.5425 4.2148C47.7347 4.01277 47.8767 3.82712 48.0549 3.69335C48.2108 3.57595 48.4057 3.45309 48.5895 3.44217C50.8032 3.31386 53.0168 3.20465 55.2305 3.09272C55.6565 3.07087 56.0853 3.05449 56.5169 3.03265C56.5698 3.26744 56.6171 3.47767 56.6728 3.71246C56.8872 3.50497 57.0738 3.3084 57.2798 3.13367C57.3717 3.05722 57.497 2.98078 57.6112 2.97532C59.3292 2.87976 61.0472 2.7924 62.7653 2.70777C63.3361 2.67773 63.9069 2.65316 64.5 2.62586C64.4833 2.76237 64.4694 2.86611 64.4554 2.96986C64.4415 3.06814 64.4193 3.16643 64.3914 3.32751C66.1679 2.39926 68.0446 2.23272 69.9325 2.14536C71.8232 2.05799 73.7083 2.0498 75.4792 2.90434C75.7187 2.65589 75.9442 2.40472 76.192 2.17812C76.2867 2.09075 76.4287 2.01158 76.554 2.00612C79.7255 1.83958 82.897 1.67577 86.0714 1.52834C87.11 1.4792 88.143 1.51196 89.1454 1.84231C89.2373 1.87234 89.4211 1.78771 89.4935 1.70307C89.7413 1.3973 90.042 1.29355 90.4346 1.2799C91.6793 1.23895 92.924 1.15978 94.1686 1.09698C95.0457 1.0533 95.9256 1.01235 96.8445 0.968666V2.65043C96.8863 2.67773 96.9252 2.70504 96.967 2.73234C97.0366 2.62586 97.0951 2.50574 97.1814 2.41291C97.5406 2.03069 97.9305 1.67577 98.2646 1.27444C98.543 0.941365 98.8772 0.84854 99.2948 0.829429C101.367 0.736604 103.435 0.621938 105.507 0.518193C105.953 0.496352 106.398 0.479971 106.891 0.45813C106.802 0.597367 106.741 0.698382 106.674 0.793937C105.059 3.17735 103.444 5.56349 101.823 7.94144C101.695 8.12709 101.687 8.26087 101.809 8.45471C102.923 10.2402 104.023 12.0367 105.134 13.8249C105.51 14.431 105.702 15.089 105.702 15.7933C105.707 18.731 105.719 21.6713 105.696 24.609C105.688 25.6792 105.318 26.632 104.513 27.4046C103.962 27.9343 103.416 28.4721 102.926 29.0536C101.94 30.2221 100.701 30.8992 99.164 31.0494C98.3091 31.1313 97.4515 31.2104 96.5939 31.2405C95.0374 31.2923 93.4948 31.2459 92.3114 30.2139C91.6904 30.5525 91.1363 30.9047 90.5404 31.164C89.6967 31.5299 88.7806 31.6309 87.8646 31.6937C86.4751 31.7865 85.0884 31.8547 83.7296 31.4507C83.6461 31.4261 83.5236 31.508 83.4261 31.5572C83.2674 31.6363 83.1198 31.7892 82.9611 31.8001C81.4324 31.8984 79.901 31.9776 78.3695 32.0513C78.0214 32.0677 77.6706 32.0513 77.3002 32.0513C77.2863 31.8957 77.2724 31.7292 77.2585 31.5408C77.1805 31.5681 77.1165 31.5817 77.0608 31.609C76.1698 32.024 75.2175 32.1933 74.2457 32.2506C72.3188 32.3625 70.392 32.4608 68.4623 32.5591C68.0808 32.5782 67.6994 32.5619 67.3012 32.5619C67.2956 32.5182 67.2928 32.4663 67.2845 32.4144C67.2761 32.3544 67.2622 32.297 67.2455 32.2151C66.0983 32.7748 64.8815 32.8895 63.6563 32.9441C62.1917 33.0096 60.7382 32.9823 59.4768 32.0732C59.1984 32.3598 58.945 32.6465 58.6637 32.9058C58.5635 32.9987 58.4048 33.0778 58.2683 33.0833C56.6283 33.1789 54.9854 33.2608 53.3454 33.3427C53.1087 33.3536 52.8692 33.3427 52.588 33.3427V31.366C52.446 31.5271 52.3819 31.6118 52.304 31.6855C51.9169 32.0513 51.555 32.4554 51.1289 32.7721C50.3437 33.3591 49.397 33.5556 48.4391 33.6757C47.7848 33.7577 47.1276 33.8095 46.4705 33.875H46.4677ZM44.875 18.3023C46.8186 18.2013 48.7009 18.1003 50.5832 18.0075C50.7753 17.9993 50.8143 17.9092 50.8421 17.7508C51.2375 15.5858 51.6385 13.4181 52.0395 11.2531C52.2177 10.2866 52.4014 9.31744 52.5796 8.35097C52.6019 8.35097 52.6242 8.35097 52.6465 8.35097C53.1867 11.5015 53.7269 14.6521 54.267 17.8027C54.4063 17.8027 54.4954 17.8054 54.5817 17.8027C56.2886 17.7153 57.9955 17.6253 59.7023 17.5461C59.9167 17.5352 59.9446 17.4287 59.978 17.2649C60.702 13.5246 61.4287 9.78429 62.1555 6.044C62.2613 5.5007 62.3615 4.95467 62.4729 4.37588C61.309 4.43867 60.198 4.50147 59.087 4.55334C58.8726 4.56426 58.7918 4.62705 58.7501 4.84274C58.3212 7.08964 57.8813 9.33655 57.4441 11.5835C57.291 12.3643 57.1378 13.1478 56.9847 13.9286C56.968 13.9286 56.9485 13.9286 56.9318 13.9286C56.3331 10.8818 55.7317 7.83497 55.1302 4.77175C55.0216 4.77175 54.9353 4.76902 54.8462 4.77175C53.195 4.85639 51.541 4.94648 49.8898 5.02292C49.7005 5.03112 49.6587 5.11302 49.6281 5.2741C49.1937 7.53192 48.7538 9.78702 48.3138 12.0448C48.1607 12.8366 48.0047 13.6256 47.8488 14.4173C47.8321 14.4173 47.8182 14.4173 47.8015 14.4146C47.1973 11.3568 46.593 8.30182 45.986 5.22769C41.0547 5.48159 36.1568 5.73276 31.2561 5.98393V8.99801C32.6094 8.92976 33.9348 8.86423 35.302 8.79325V18.7965C36.5076 18.7337 37.6716 18.6764 38.8744 18.6136V8.60487C40.2361 8.53389 41.5559 8.46563 42.9064 8.39738C43.5635 11.7063 44.2151 14.9934 44.875 18.3051V18.3023ZM7.69107 20.2052V13.1478C7.85814 13.2188 7.95838 13.3253 8.05305 13.4345C9.86018 15.5176 11.6617 17.6007 13.4772 19.6756C13.5747 19.7848 13.7668 19.8749 13.9116 19.8722C14.6272 19.8585 15.3428 19.8148 16.0612 19.7766C16.3759 19.7602 16.6933 19.7384 17.0079 19.7193V6.71015C15.8134 6.77294 14.6439 6.83574 13.4243 6.89853V14.0515C13.2934 13.9095 13.2238 13.8413 13.1626 13.7703C11.3332 11.6517 9.50655 9.53039 7.67437 7.4118C7.60197 7.32716 7.48781 7.21796 7.39592 7.22069C6.30719 7.25891 5.22124 7.31624 4.12416 7.37085V20.3936C5.31591 20.3308 6.47982 20.2708 7.69386 20.2052H7.69107ZM62.8404 10.849C62.9435 11.8674 62.988 12.8966 63.1662 13.9013C63.5004 15.8124 64.4889 16.7953 66.4269 17.0874C68.7268 17.4341 71.0213 17.2922 73.2767 16.7216C74.9418 16.2984 76.0027 15.2473 76.3619 13.5983C76.8519 11.3459 76.8492 9.07172 76.3814 6.81663C76.05 5.23042 75.0448 4.23118 73.3964 3.96909C72.5639 3.83531 71.709 3.78344 70.8653 3.78071C69.3088 3.77525 67.7578 3.87627 66.2514 4.31309C64.6866 4.76629 63.6841 5.74914 63.2693 7.31078C62.963 8.47382 62.9296 9.65597 62.8404 10.8518V10.849ZM90.0476 15.979C90.0476 14.7668 90.0866 13.5901 90.0365 12.4189C89.9863 11.2804 89.3849 10.6525 88.2488 10.3986C88.065 10.3576 87.8813 10.3221 87.6669 10.2812C87.717 10.243 87.7225 10.232 87.7337 10.2293C87.8172 10.202 87.9008 10.1774 87.9843 10.1501C89.0173 9.83343 89.6773 9.16455 89.9111 8.12709C90.159 7.02412 90.1339 5.91568 89.8499 4.82362C89.6438 4.03188 89.1092 3.52681 88.2989 3.34935C87.8284 3.2456 87.3383 3.15551 86.8594 3.17462C84.4118 3.26471 81.967 3.3903 79.5223 3.50497C79.0378 3.52681 78.5561 3.55684 78.0632 3.58141V16.596C79.2577 16.5359 80.43 16.4759 81.6329 16.4158V11.8319C82.4571 11.7882 83.2479 11.7391 84.0387 11.7118C84.5343 11.6927 85.03 11.6817 85.5256 11.7118C85.9906 11.7391 86.1911 11.9438 86.2579 12.3998C86.2941 12.6455 86.308 12.8939 86.3108 13.1424C86.3164 14.0269 86.3108 14.9142 86.3108 15.7988V16.1755C87.5694 16.11 88.789 16.0472 90.0392 15.9817L90.0476 15.979ZM91.6152 2.88249V15.8998C92.8126 15.837 93.9821 15.7769 95.1794 15.7142C95.1794 14.8678 95.1766 14.0597 95.1822 13.2516C95.1822 13.1287 95.1905 12.9731 95.2629 12.8885C95.895 12.1431 96.541 11.4087 97.1981 10.6552C97.2705 10.7726 97.3262 10.8627 97.3819 10.9528C98.2312 12.3643 99.086 13.7758 99.9241 15.1954C100.044 15.4002 100.169 15.4794 100.414 15.4603C101.272 15.4002 102.132 15.3674 102.99 15.321C103.324 15.3019 103.658 15.2773 104.031 15.25C103.95 15.1108 103.895 15.0098 103.834 14.9115C102.505 12.7601 101.177 10.6088 99.8434 8.4629C99.732 8.28544 99.7181 8.16259 99.8434 7.97694C100.748 6.66101 101.637 5.33416 102.528 4.01277C102.906 3.45036 103.282 2.88522 103.672 2.30643C103.605 2.28732 103.577 2.27094 103.547 2.27367C102.302 2.33374 101.057 2.38834 99.8155 2.46751C99.6735 2.4757 99.4925 2.59583 99.409 2.71869C98.0669 4.69531 96.7387 6.68012 95.4077 8.66493C95.3548 8.74411 95.2908 8.81782 95.2323 8.89426C95.2072 8.88334 95.1822 8.87242 95.1571 8.8615V2.69958C93.957 2.76237 92.7931 2.82243 91.6097 2.88522L91.6152 2.88249ZM18.7343 15.9626C18.7343 16.2738 18.7176 16.5332 18.7371 16.7898C18.8735 18.488 19.6337 19.3261 21.3601 19.479C22.5296 19.5828 23.7185 19.5773 24.8908 19.5063C25.8849 19.449 26.8845 19.2879 27.8563 19.0668C28.8977 18.832 29.6968 18.215 29.8917 17.1311C30.0254 16.394 30.056 15.6268 30.0115 14.8787C29.9502 13.8795 29.6021 12.9949 28.4243 12.6346C29.1093 12.3424 29.5548 11.9056 29.7859 11.2722C30.1061 10.3958 30.1228 9.4867 30.0087 8.58303C29.8165 7.07326 29.1371 6.38253 27.6057 6.20235C25.4672 5.95117 23.3287 6.04946 21.2292 6.52996C19.3747 6.95313 18.4225 8.44652 18.7594 10.2948C19.8453 10.2402 20.9368 10.1829 22.0478 10.1256C22.0367 9.58226 22.2038 9.17001 22.7607 9.06899C23.816 8.87788 24.8824 8.79325 25.9517 8.92976C26.2886 8.97344 26.5838 9.14271 26.6422 9.49216C26.8706 10.86 26.5643 11.335 25.3502 11.4388C24.3729 11.5234 23.3927 11.5753 22.4126 11.6244C22.1843 11.6353 22.1007 11.7036 22.1147 11.9274C22.1314 12.2196 22.1175 12.5117 22.1175 12.8011C22.1175 13.2734 22.1175 13.7457 22.1175 14.2344C22.2706 14.2344 22.3792 14.2371 22.4878 14.2344C23.4791 14.1989 24.4731 14.1116 25.4616 14.1361C26.5141 14.1607 26.7926 14.5293 26.6979 15.5558C26.6979 15.5667 26.6979 15.5776 26.6951 15.5886C26.6311 16.2438 26.4278 16.525 25.7679 16.6151C24.9409 16.727 24.1028 16.7844 23.2674 16.8062C22.3541 16.8308 22.1843 16.667 22.0089 15.7851C20.9257 15.8425 19.8398 15.8971 18.7343 15.9544V15.9626ZM62.0719 21.8734C62.0719 22.0426 62.0719 22.1709 62.0719 22.2965C62.097 23.7217 62.0747 25.1495 62.1666 26.5692C62.2501 27.866 62.9546 28.5813 64.2048 28.7451C65.5386 28.9226 66.8696 28.8434 68.1811 28.5458C69.3032 28.2892 69.9938 27.6012 70.1776 26.4736C70.2472 26.0368 70.3056 25.5945 70.3112 25.155C70.3279 23.3067 70.3251 21.4611 70.3251 19.6128C70.3251 19.5309 70.3084 19.449 70.2945 19.3343C69.4619 19.378 68.6544 19.419 67.8052 19.4626C67.8052 19.6237 67.8052 19.752 67.8052 19.8776C67.8052 21.4229 67.8107 22.9681 67.8024 24.5134C67.7996 24.9994 67.7829 25.4853 67.7189 25.9658C67.6548 26.4491 67.4098 26.6647 66.9169 26.733C66.58 26.7794 66.2375 26.804 65.895 26.8094C64.8425 26.8286 64.6142 26.6374 64.6002 25.6082C64.5752 23.7517 64.5835 21.8925 64.578 20.0332C64.578 19.9076 64.578 19.7821 64.578 19.6292C60.9721 19.8148 57.4191 19.9977 53.8549 20.1779V22.2883C54.8044 22.2419 55.7345 22.1955 56.709 22.1491V29.1519C57.5639 29.1055 58.3741 29.0618 59.2262 29.0154V22.018C60.1896 21.9689 61.1085 21.9198 62.0691 21.8706L62.0719 21.8734ZM71.3916 28.3765C71.5225 28.3765 71.6311 28.382 71.7396 28.3765C72.7978 28.3274 73.8559 28.2892 74.9112 28.2182C75.844 28.1581 76.7851 28.1117 77.7096 27.9725C79.2188 27.7459 79.9789 27.0306 80.2574 25.5618C80.5386 24.0657 80.5442 22.5504 80.2239 21.0543C79.965 19.8394 79.2995 19.2688 78.0437 19.0831C77.8042 19.0477 77.5592 19.0122 77.3197 19.0204C75.3929 19.0968 73.4632 19.1842 71.5364 19.2715C71.4863 19.2715 71.4361 19.2988 71.3916 19.3097V28.3738V28.3765ZM84.7877 23.1401C84.8156 23.1401 84.8434 23.1429 84.8712 23.1456C84.8712 23.566 84.8545 23.9892 84.8768 24.4069C84.8907 24.6963 84.9436 24.9857 84.9993 25.2724C85.2583 26.6293 85.9934 27.3418 87.3912 27.5302C88.9143 27.735 90.4291 27.6421 91.9243 27.3036C93.1467 27.0279 93.9765 26.3098 94.2466 25.0867C94.5919 23.5278 94.603 21.9525 94.2772 20.3936C93.996 19.0558 93.2247 18.4115 91.8491 18.2559C90.4151 18.0921 88.9839 18.1631 87.5722 18.4579C86.024 18.7801 85.2388 19.591 84.9938 21.1144C84.8852 21.7833 84.8573 22.4658 84.7905 23.1401H84.7877ZM95.1794 24.1121C95.2044 24.4506 95.2211 24.7509 95.2518 25.0485C95.3771 26.1979 95.973 26.8094 97.1369 27.0169C98.2367 27.2108 99.3394 27.1534 100.434 27.0415C101.205 26.9623 101.982 26.8176 102.725 26.6047C103.466 26.3945 103.87 25.8211 103.981 25.0785C104.031 24.7482 104.045 24.4124 104.04 24.0766C104.023 23.0746 103.558 22.3511 102.575 22.029C101.887 21.8051 101.177 21.6522 100.47 21.4939C99.8044 21.3437 99.1278 21.2536 98.4651 21.0898C98.0864 20.997 98.0112 20.7949 98.0279 20.3609C98.0418 20.0196 98.2312 19.8285 98.5542 19.8039C99.267 19.7493 99.9798 19.7029 100.695 19.6947C101.021 19.692 101.252 19.8885 101.297 20.2325C101.328 20.4537 101.35 20.6748 101.378 20.9342C102.246 20.8905 103.101 20.8468 104.001 20.8031C103.97 20.4127 103.962 20.0578 103.914 19.7084C103.761 18.5781 103.238 17.9747 102.096 17.7945C101.341 17.6744 100.559 17.6662 99.7905 17.6853C98.7992 17.7126 97.8052 17.7781 96.8584 18.1112C96.115 18.3733 95.611 18.8593 95.494 19.6346C95.4189 20.1315 95.3994 20.6448 95.4244 21.1471C95.4606 21.8815 95.856 22.444 96.5661 22.6706C97.4098 22.9381 98.2869 23.1074 99.15 23.3094C99.7598 23.4514 100.381 23.5497 100.979 23.7244C101.358 23.8336 101.453 24.0902 101.4 24.4997C101.358 24.8328 101.116 24.9557 100.829 24.9884C100.314 25.0485 99.7988 25.084 99.2809 25.1168C99.0498 25.1304 98.8159 25.1277 98.5876 25.1113C98.0585 25.0703 97.8692 24.871 97.8358 24.3523C97.8302 24.2377 97.8219 24.123 97.8107 23.981C96.9336 24.0247 96.0899 24.0657 95.1738 24.1093L95.1794 24.1121ZM53.3955 23.4022C53.3732 23.0255 53.376 22.7115 53.3342 22.403C53.1532 21.0652 52.5212 20.4482 51.1512 20.3254C50.4941 20.2653 49.8258 20.2298 49.1714 20.2871C48.2219 20.3718 47.2669 20.4919 46.3396 20.7021C45.4792 20.8987 44.9808 21.5102 44.8694 22.3812C44.8249 22.7224 44.8054 23.0692 44.8082 23.4132C44.8165 24.4561 45.2286 25.0703 46.2394 25.3816C47.0023 25.6164 47.8015 25.7392 48.5839 25.9112C49.1937 26.045 49.8119 26.1542 50.4105 26.3289C50.7614 26.43 50.8561 26.6893 50.8199 27.0524C50.7837 27.3937 50.5693 27.5575 50.2546 27.5793C49.4972 27.6339 48.7398 27.694 47.9797 27.6967C47.4785 27.6967 47.3003 27.4783 47.2557 26.9924C47.2446 26.8668 47.2362 26.7385 47.2251 26.5774C46.4538 26.6129 45.7103 26.6456 44.9641 26.6811C44.8555 26.6866 44.7497 26.7002 44.5965 26.7166C44.616 27.0251 44.616 27.3145 44.6578 27.5985C44.8472 28.9335 45.4653 29.5587 46.8297 29.6433C47.8711 29.7061 48.9236 29.6816 49.965 29.616C50.65 29.5723 51.3406 29.4331 52.0033 29.2502C52.8804 29.0072 53.3342 28.3711 53.415 27.4893C53.4401 27.2108 53.4373 26.9296 53.4345 26.6484C53.4261 25.6164 52.9082 24.912 51.9225 24.6062C51.1289 24.3605 50.3047 24.2076 49.4917 24.022C48.9459 23.8991 48.389 23.8145 47.8488 23.6752C47.5147 23.5906 47.4089 23.3258 47.4311 22.9927C47.4534 22.6542 47.6066 22.4276 47.9602 22.4003C48.6619 22.3457 49.3636 22.2911 50.068 22.2883C50.4774 22.2883 50.65 22.4849 50.7196 22.889C50.753 23.0883 50.767 23.2903 50.792 23.5305C51.6552 23.4869 52.51 23.4459 53.4011 23.4022H53.3955ZM83.8716 18.6299C83.0307 18.6736 82.2204 18.7173 81.4018 18.761V27.8797C82.2371 27.8387 83.0474 27.7978 83.8716 27.7568V18.6299Z" fill="#999999"/>
<path id="Vector_2" d="M112.418 0.987769C112.298 1.54472 112.181 2.09894 112.05 2.70776C111.752 2.70776 111.465 2.72687 111.184 2.69684C111.1 2.68865 110.986 2.55487 110.961 2.45932C110.85 2.01157 110.766 1.55837 110.619 1.11063V2.73506C110.388 2.74598 110.187 2.7569 109.942 2.77055V0.892214H109.129V2.80877H108.45V0.957738H107.681V0.439011C107.754 0.42263 107.834 0.395329 107.918 0.389868C108.909 0.337996 109.9 0.291583 110.892 0.23425C111.098 0.2206 111.181 0.283393 111.215 0.485423C111.304 0.982309 111.418 1.47373 111.591 1.96789C111.716 1.38091 111.841 0.791199 111.969 0.187838C112.354 0.165997 112.727 0.146886 113.128 0.122314V2.60401H112.482V0.990499C112.462 0.990499 112.44 0.987769 112.42 0.985039L112.418 0.987769Z" fill="#999999"/>
<path id="Vector_3" d="M72.9757 10.5186C72.9311 11.1138 72.9033 11.8919 72.8058 12.6618C72.6945 13.5545 72.2684 14.0186 71.3941 14.1906C70.2664 14.409 69.1248 14.491 67.9776 14.3162C67.3789 14.2234 67.0086 13.8576 66.8749 13.2924C66.7775 12.8747 66.6995 12.4406 66.6967 12.0147C66.6856 10.9145 66.6716 9.81149 66.7496 8.71671C66.8415 7.39532 67.3316 6.91481 68.7015 6.74827C69.4533 6.65818 70.2191 6.62542 70.9764 6.64453C72.3102 6.68275 72.7724 7.14688 72.8727 8.4628C72.92 9.08528 72.9367 9.71321 72.9757 10.5186Z" fill="#999999"/>
<path id="Vector_4" d="M81.6465 9.14263V6.24868C82.1839 6.21865 82.7157 6.18043 83.2503 6.15585C83.9994 6.12309 84.7456 6.07941 85.4946 6.07395C86.2019 6.06849 86.4274 6.28963 86.4608 6.9749C86.4776 7.30797 86.472 7.64378 86.4553 7.97686C86.4219 8.58568 86.1935 8.83412 85.5782 8.91057C85.1521 8.96244 84.7233 8.98701 84.2945 9.01158C83.4258 9.06072 82.5598 9.09895 81.6465 9.14536V9.14263Z" fill="#999999"/>
<path id="Vector_5" d="M73.8887 26.1787V21.2726C74.3565 21.2453 74.8159 21.2071 75.2726 21.1907C75.7793 21.1716 76.2861 21.1525 76.7929 21.1716C77.3247 21.1907 77.6199 21.4337 77.6978 21.9442C77.8593 22.9953 77.8566 24.0546 77.6978 25.1057C77.6254 25.5699 77.3219 25.8893 76.8514 25.9412C75.8796 26.0476 74.9022 26.0995 73.8887 26.1787Z" fill="#999999"/>
<path id="Vector_6" d="M91.8962 22.8125C91.846 23.3776 91.8154 23.9373 91.7402 24.4915C91.6678 25.0294 91.3448 25.4061 90.7879 25.4634C90.025 25.5426 89.2565 25.5808 88.4907 25.5672C87.9756 25.559 87.6749 25.2641 87.5913 24.7727C87.3909 23.6042 87.3881 22.4303 87.5913 21.2645C87.6944 20.6557 88.0508 20.3581 88.772 20.2816C89.404 20.2161 90.0473 20.1943 90.6821 20.2052C91.3114 20.2161 91.6483 20.5028 91.743 21.1089C91.8293 21.6713 91.8488 22.2446 91.8989 22.8125H91.8962Z" fill="#999999"/>
</g>
<defs>
<clipPath id="clip0_2504_977">
<rect width="113.125" height="33.75" fill="white" transform="translate(0 0.125)"/>
</clipPath>
</defs>
</svg>
