<svg width="130" height="24" viewBox="0 0 130 24" fill="none" xmlns="http://www.w3.org/2000/svg">
<path d="M129.806 0.59087H123.214L116.428 9.60653V0.59087H110.902V6.60131C109.933 3.01443 106.637 0.59087 102.953 0.59087H92.871V9.12182C91.4168 2.82055 85.1156 -1.1541 78.8143 0.300042C75.906 0.97864 73.3855 2.72361 71.7375 5.14717L66.3087 12.4179V0.59087H61.7524L52.8337 12.4179V0.59087H33.9299V4.27469C32.5727 1.5603 29.7614 -0.0877283 26.7562 0.00921426C22.5876 0.00921426 19.0977 2.91749 19.0007 6.60131V7.37685H24.3326C24.3326 6.1166 25.399 5.05023 26.6592 4.95329H26.8531C28.1133 4.85634 29.1797 5.72883 29.3736 6.89214C29.1797 8.15239 28.1133 8.92793 26.8531 8.83099H25.2051V13.872H26.8531C28.5011 13.872 29.9553 14.8414 29.9553 16.1017C29.9553 17.3619 28.5981 18.3314 26.8531 18.3314C25.1081 18.3314 23.7509 17.3619 23.7509 16.1017V15.3261H19.0007V0.59087H13.475V12.4179L4.45936 0.59087H0V22.7907H5.52573V10.8668L14.4444 22.6938H18.9038V18.6222C20.3579 21.5305 23.4601 23.3724 26.7562 23.2754C31.4094 23.2754 35.0932 20.0763 35.0932 16.0047C35.0932 14.1628 34.3177 12.4179 32.8635 11.1576C33.9299 9.9943 34.5116 8.44322 34.5116 6.89214C34.5116 6.50437 34.5116 6.1166 34.4146 5.72883H38.2923V22.5968H43.818V5.82577H47.1141V22.6938H51.5734L60.4922 10.8668V22.6938H64.9515L76.5846 7.47379C77.8449 6.01965 79.5899 5.24411 81.5287 5.24411C85.0186 5.24411 87.83 8.15239 87.83 11.6423C87.83 15.1323 84.9217 17.9436 81.4318 17.9436C77.9418 17.9436 75.1305 15.0353 75.1305 11.5454V11.2546L71.0589 16.6833C73.9672 22.4999 81.044 24.8265 86.7636 21.9182C89.8658 20.3672 92.0955 17.4589 92.871 14.0659V22.5968H98.3967V5.82577H102.759C104.407 5.82577 105.667 7.18296 105.667 8.73405C105.667 10.2851 104.31 11.6423 102.759 11.6423H99.56V16.3925L104.31 22.6938H116.622V13.6781L123.408 22.6938H130L121.566 11.6423L129.806 0.59087ZM110.902 22.306L106.346 16.1986C108.576 15.2292 110.321 13.1934 110.902 10.8668V22.306Z" fill="#999999"/>
</svg>
