<svg width="108" height="33" viewBox="0 0 108 33" fill="none" xmlns="http://www.w3.org/2000/svg">
<path fill-rule="evenodd" clip-rule="evenodd" d="M98.127 32.9867H95.6265L99.4575 24.1766L92.7365 9.91259H95.334L100.659 21.66L105.465 9.91259H107.997L98.127 32.9867ZM83.9426 26.5932C82.8364 26.6 81.7398 26.388 80.7158 25.9694C79.6918 25.5507 78.7607 24.9338 77.9761 24.154C77.1915 23.3742 76.5688 22.4469 76.1439 21.4255C75.719 20.4041 75.5002 19.3088 75.5002 18.2026C75.5002 17.0963 75.719 16.001 76.1439 14.9796C76.5688 13.9583 77.1915 13.031 77.9761 12.2512C78.7607 11.4714 79.6918 10.8544 80.7158 10.4358C81.7398 10.0172 82.8364 9.80515 83.9426 9.81196C88.5939 9.81196 92.3852 13.5794 92.3852 18.2026C92.3852 22.8257 88.5939 26.5932 83.9426 26.5932ZM83.9426 12.2093C82.7589 12.2165 81.6039 12.5741 80.6231 13.237C79.6424 13.8999 78.88 14.8384 78.432 15.9341C77.984 17.0298 77.8705 18.2336 78.1059 19.3937C78.3412 20.5538 78.9149 21.6182 79.7544 22.4527C80.594 23.2871 81.6619 23.8543 82.8234 24.0826C83.9849 24.3109 85.188 24.1901 86.2809 23.7354C87.3739 23.2808 88.3077 22.5126 88.9646 21.5279C89.6215 20.5432 89.9721 19.386 89.9721 18.2022C89.9596 16.6104 89.3191 15.0878 88.19 13.9656C87.061 12.8434 85.5345 12.2122 83.9426 12.2093V12.2093ZM84.0284 23.414C83.0087 23.4075 82.0138 23.099 81.1691 22.5277C80.3244 21.9564 79.6679 21.1477 79.2822 20.2037C78.8965 19.2597 78.799 18.2226 79.002 17.2233C79.205 16.224 79.6993 15.3071 80.4227 14.5884C81.1461 13.8696 82.0661 13.3812 83.0668 13.1846C84.0674 12.9881 85.1038 13.0923 86.0453 13.484C86.9868 13.8758 87.7912 14.5376 88.3571 15.3859C88.923 16.2342 89.225 17.2311 89.225 18.2509C89.2183 19.624 88.6676 20.9384 87.6935 21.9062C86.7195 22.8739 85.4015 23.4162 84.0284 23.414V23.414ZM84.0284 14.5631C83.3001 14.5678 82.5894 14.7881 81.9861 15.1962C81.3827 15.6043 80.9138 16.1819 80.6383 16.8562C80.3628 17.5305 80.2932 18.2712 80.4381 18.985C80.5831 19.6989 80.9362 20.3538 81.4529 20.8672C81.9696 21.3805 82.6268 21.7294 83.3415 21.8698C84.0563 22.0102 84.7966 21.9358 85.4691 21.6559C86.1416 21.3761 86.7162 20.9034 87.1204 20.2975C87.5245 19.6915 87.7403 18.9794 87.7403 18.2511C87.7325 17.2712 87.3381 16.3341 86.6431 15.6435C85.948 14.9528 85.0083 14.5646 84.0284 14.5631V14.5631ZM68.0589 25.4028C67.1814 25.4028 66.2404 25.3711 65.3963 25.0801V22.5952C66.013 23.0147 67.3436 23.144 68.0589 23.144C68.6575 23.1384 69.2302 22.899 69.6547 22.4769C70.0791 22.0547 70.3217 21.4833 70.3305 20.8848V0.876427H72.6037V20.8848C72.5965 22.0854 72.1145 23.2345 71.263 24.081C70.4115 24.9275 69.2596 25.4027 68.0589 25.4028V25.4028ZM52.4598 25.1999L47.3045 18.8874L42.1811 25.1999H39.4867L45.9406 17.2381L40.1178 10.1006H42.8456L47.3045 15.5601L51.7285 10.1006H54.4564L48.6685 17.2092L55.221 25.1999H52.4598V25.1999ZM30.1186 25.3986C27.9053 25.3986 26.042 24.6183 24.5288 23.0576C23.7949 22.3228 23.2159 21.4482 22.826 20.4856C22.436 19.523 22.2432 18.492 22.2588 17.4535C22.2407 16.403 22.4334 15.3594 22.8257 14.3847C23.2179 13.4099 23.8017 12.5237 24.5425 11.7785C25.2645 11.0334 26.1289 10.4409 27.0844 10.0363C28.0398 9.63176 29.0668 9.42327 30.1044 9.42327C31.142 9.42327 32.169 9.63176 33.1244 10.0363C34.0799 10.4409 34.9443 11.0334 35.6663 11.7785C37.126 13.2915 37.944 15.3103 37.949 17.4126C37.954 19.5149 37.1458 21.5377 35.6933 23.0576C34.1898 24.6183 32.3316 25.3986 30.1186 25.3986ZM34.2472 13.1547C33.0836 11.9346 31.7027 11.3245 30.1045 11.3245C28.5063 11.3245 27.13 11.9346 25.9759 13.1547C25.4154 13.7314 24.9741 14.4129 24.6771 15.1603C24.3801 15.9076 24.2333 16.7062 24.2451 17.5103C24.2451 19.1941 24.8031 20.6223 25.9191 21.7948C26.4483 22.3653 27.0924 22.817 27.809 23.1202C28.5256 23.4235 29.2983 23.5714 30.0762 23.5541C30.8612 23.5683 31.6406 23.4178 32.3639 23.1123C33.0872 22.8069 33.7386 22.3533 34.2759 21.7807C34.8346 21.2151 35.2744 20.5433 35.5693 19.805C35.8641 19.0666 36.0081 18.2767 35.9927 17.4818C36.0021 16.681 35.8526 15.8863 35.553 15.1436C35.2534 14.4008 34.8096 13.7248 34.2472 13.1547V13.1547ZM2.47031 6.34193V25.2634H0V0.5H0.534117L16.4576 19.6552V0.5H18.8277V25.2634H18.2936L2.47031 6.34193Z" fill="#999999"/>
</svg>
