<svg width="180" height="40" viewBox="0 0 180 40" fill="none" xmlns="http://www.w3.org/2000/svg">
<g id="logo_onemt_white">
<g id="Group 1222">
<path id="Vector" d="M117.104 8H111.792V32.9013H117.104V8Z" fill="#999999"/>
<g id="Group">
<path id="Vector_2" d="M126.883 8.03125H121.541V17.998L126.883 23.3095V16.9357V8.03125Z" fill="#999999"/>
<path id="Vector_3" d="M136.538 26.5588V8H131.226V27.6211L136.538 32.9013V26.5588Z" fill="#999999"/>
</g>
<g id="Group_2">
<path id="Vector_4" d="M102.575 8.0625H77.7364V13.2802H102.575V8.0625Z" fill="#999999"/>
<path id="Vector_5" d="M77.7364 19.7477V23.2783V27.7149V32.5889V32.9326H102.544V27.7149H82.9541V23.2783H102.544V18.0293H77.7364V19.7477Z" fill="#999999"/>
</g>
<path id="Vector_6" d="M68.6764 8.06249V8.03125H44.4V8.06249H43.8063V32.9638H49.0865V13.3115H63.4899V32.9638H68.7389V8.06249H68.6764Z" fill="#999999"/>
<path id="Vector_7" d="M34.8076 9.62469L34.7764 8.03125H10V13.1865H10.0312V27.7149H10V32.8701H34.8076V32.3702H34.8388V9.62469H34.8076ZM15.1865 13.1865H29.6524V27.7149H15.1865V13.1865Z" fill="#999999"/>
<path id="Vector_8" d="M145.286 8.0625V13.249H155.065V32.9638H160.252V13.249H170V8.0625H145.286Z" fill="#999999"/>
</g>
</g>
</svg>
