<svg width="93" height="22" viewBox="0 0 93 22" fill="none" xmlns="http://www.w3.org/2000/svg">
<g id="Group 33081">
<path id="Vector" d="M92.209 16.8289H89.7999C89.6753 16.8289 89.5784 16.9119 89.5369 17.0227C89.2323 17.9642 88.5677 18.6426 87.2247 18.6426C85.8401 18.6426 84.8017 17.5488 84.8017 16.2197V10.3631V9.35236C84.8017 9.26928 84.8571 9.2139 84.9402 9.2139H91.2537C91.406 9.2139 91.5306 9.08929 91.5306 8.93699V6.69404C91.5306 6.54174 91.406 6.41713 91.2537 6.41713H84.9402C84.8571 6.41713 84.8017 6.36175 84.8017 6.27868V2.7481C84.8017 2.5958 84.6771 2.47119 84.5248 2.47119H81.9634C81.8111 2.47119 81.6865 2.5958 81.6865 2.7481V6.48636V16.1781C81.6865 19.2103 84.1648 21.7855 87.197 21.7717C89.2738 21.7578 91.1152 20.5948 92.0429 18.8226C92.3059 18.2965 92.4582 17.7288 92.4998 17.1335C92.4998 16.9673 92.3752 16.8289 92.209 16.8289Z" fill="#999999"/>
<path id="Vector_2" d="M48.0567 14.0044C47.1429 13.3537 45.8415 12.9106 43.9723 12.6198C41.6463 12.2183 40.3864 11.7891 40.3864 10.6953C40.3864 9.83692 41.1894 8.92313 43.4185 8.92313C44.5262 8.92313 45.3707 9.26926 45.9384 9.97538C46.2015 10.3077 46.4091 10.7092 46.5476 11.1799C46.603 11.3599 46.7691 11.4984 46.963 11.4984H49.1367C49.289 11.4984 49.4274 11.3599 49.4136 11.2076C49.4136 11.1245 49.3997 11.0415 49.3997 10.9861C49.0536 8.99235 47.8491 7.88472 47.4891 7.59397C46.4368 6.7494 45.08 6.32019 43.4185 6.32019C41.7017 6.32019 40.2064 6.73555 39.1265 7.53859C38.0188 8.35546 37.4373 9.47694 37.4373 10.7784C37.4373 13.8936 40.2895 14.7936 43.377 15.3059C46.2984 15.7351 46.686 16.5381 46.686 17.2581C46.686 18.4211 45.4261 19.1549 43.4185 19.1549C43.0724 19.1549 42.7263 19.1272 42.4217 19.0718C42.4078 19.0718 42.4078 19.058 42.394 19.058C41.0648 18.7949 40.1787 17.9642 39.6664 16.5242C39.611 16.3581 39.4449 16.2335 39.2649 16.2335H36.9943C36.8281 16.2335 36.7035 16.3719 36.7174 16.5381C36.7451 16.8981 36.8143 17.2442 36.9389 17.5765C37.0912 17.978 37.2435 18.2549 37.2573 18.2826C38.1711 20.2625 39.9433 21.4532 42.3663 21.7024H42.3801C42.7263 21.744 43.0724 21.7578 43.4185 21.7578C45.1631 21.7578 46.7553 21.3148 47.8767 20.4979C49.0121 19.6672 49.6351 18.5041 49.6351 17.2027C49.649 15.8043 49.1228 14.7659 48.0567 14.0044Z" fill="#999999"/>
<path id="Vector_3" d="M19.5632 6.41699H17.0157C16.8634 6.41699 16.7388 6.5416 16.7388 6.6939V21.3839C16.7388 21.5362 16.8634 21.6608 17.0157 21.6608H19.5632C19.7155 21.6608 19.8401 21.5362 19.8401 21.3839V6.6939C19.8401 6.5416 19.7155 6.41699 19.5632 6.41699Z" fill="#999999"/>
<path id="Vector_4" d="M78.5443 8.27237C77.3259 7.04013 75.6921 6.34786 73.9476 6.32017C72.1754 6.29248 70.5001 6.95706 69.2402 8.1893C67.9387 9.44923 67.2188 11.1384 67.2188 12.9383C67.2188 12.9383 67.2188 13.5336 67.2188 14.4197V21.3701C67.2188 21.5224 67.3434 21.647 67.4957 21.647H70.0571C70.2094 21.647 70.334 21.5224 70.334 21.3701V12.8413C70.334 11.8999 70.7078 11.0276 71.3862 10.363C72.0646 9.71229 72.9646 9.35231 73.9061 9.38C75.7337 9.42154 77.3259 10.9722 77.3259 12.6891V12.8413C77.3259 12.9936 77.4505 13.1183 77.6028 13.1183C78.2674 13.1183 79.5273 13.1183 80.1642 13.1183C80.3165 13.1183 80.4411 12.9936 80.4411 12.8413V12.8275C80.455 11.1245 79.7765 9.50461 78.5443 8.27237Z" fill="#999999"/>
<path id="Vector_5" d="M7.54574 0.228149C7.5319 0.228149 7.54574 0.228149 7.54574 0.228149C5.56585 0.228149 3.71057 1.00349 2.29834 2.40188C2.15988 2.54033 1.91067 2.81724 1.91067 2.81724C1.82759 2.91416 1.74452 3.01107 1.66145 3.12184C1.6476 3.13568 1.63376 3.16337 1.63376 3.16337C0.636889 4.42331 0.069227 5.97399 0 7.62159V21.3839C0 21.4393 0.0138454 21.4947 0.0415362 21.5362C0.0969178 21.6054 0.166145 21.6608 0.263063 21.6608H1.89682H2.81062C2.96292 21.6608 3.08752 21.5362 3.08752 21.3839V14.392C3.08752 14.3366 3.11522 14.3228 3.12906 14.3089C3.15675 14.2951 3.19829 14.2951 3.22598 14.3089C4.48591 15.2089 5.96737 15.6658 7.51805 15.6658C8.69491 15.6658 9.7887 15.3889 10.7994 14.9043C13.347 13.6582 15.0915 11.0137 15.0915 7.95388C15.0915 3.67565 11.7132 0.228149 7.54574 0.228149ZM7.5319 12.7305C4.99819 12.7305 2.94907 10.5845 2.94907 7.96773C2.94907 5.35095 5.01203 3.20491 7.5319 3.20491C10.0656 3.20491 12.1147 5.35095 12.1147 7.96773C12.1147 10.5845 10.0656 12.7305 7.5319 12.7305Z" fill="#999999"/>
<path id="Vector_6" d="M35.5135 16.5103C35.5135 16.358 35.3889 16.2196 35.2366 16.2196H32.9106C32.8136 16.2196 32.7306 16.2611 32.6613 16.3303C32.6337 16.358 32.6198 16.3857 32.606 16.4273C31.9829 18.0195 30.6676 18.9333 28.9785 18.9333C27.7185 18.9333 26.5971 18.4487 25.794 17.5487C24.991 16.6626 24.5479 15.4165 24.5479 14.032C24.5479 12.6475 24.991 11.3875 25.794 10.4876C26.5971 9.60148 27.7324 9.10304 28.9785 9.10304C30.6815 9.10304 32.0106 10.0307 32.6337 11.6229C32.689 11.7475 32.7998 11.8444 32.9383 11.8444H35.2643C35.4166 11.8444 35.5412 11.7198 35.5412 11.5675V11.4706C35.5273 11.2491 35.4858 11.0276 35.4304 10.806C35.4166 10.7645 35.4027 10.6953 35.4027 10.6953C35.0843 9.64302 34.4059 8.83998 34.3782 8.79845C33.1321 7.19238 31.2214 6.30627 28.9785 6.30627C26.8324 6.30627 24.9079 7.12315 23.5372 8.61846C22.2358 10.0445 21.502 11.969 21.502 14.0459C21.502 16.1088 22.2081 18.0195 23.5095 19.4317C24.8941 20.9409 26.777 21.7439 28.9646 21.7439C29.8923 21.7439 30.7507 21.6054 31.5122 21.3285C33.2705 20.6224 34.6689 19.4594 35.3889 17.258C35.4443 17.0365 35.4858 16.8011 35.4997 16.5934C35.5135 16.5796 35.5135 16.5519 35.5135 16.5103Z" fill="#999999"/>
<path id="Vector_7" d="M65.5982 13.9351C65.5428 9.72609 62.303 6.30627 58.1494 6.30627C53.9681 6.30627 50.6729 9.76762 50.6729 14.0182C50.6729 17.438 52.7635 20.3317 55.7956 21.3562C55.8095 21.3562 55.8233 21.3701 55.8372 21.3701C55.8787 21.3839 55.9064 21.3978 55.9479 21.4116C56.6125 21.6331 57.3048 21.7439 58.0248 21.7439C60.0739 21.7439 61.4723 21.0793 62.3999 20.0409C62.4691 19.9717 62.5799 20.0132 62.5799 20.1101C62.5799 20.6363 62.5799 21.1901 62.5799 21.3008V21.3701C62.5799 21.5224 62.7045 21.647 62.8568 21.647H65.3213C65.4736 21.647 65.5982 21.5224 65.5982 21.3701V21.3008V13.9351ZM58.0248 18.781C55.5187 18.781 53.5804 16.6488 53.5804 14.032C53.5804 11.4152 55.5187 9.28304 58.0248 9.28304C60.5308 9.28304 62.4276 11.4152 62.4276 14.032C62.4276 16.6488 60.5308 18.781 58.0248 18.781Z" fill="#999999"/>
<path id="Vector_8" d="M18.3037 0.255737C17.0576 0.255737 16.0469 1.26645 16.0469 2.51254C16.0469 3.75862 17.0576 4.76934 18.3037 4.76934C19.5359 4.76934 20.5328 3.75862 20.5328 2.51254C20.5328 1.26645 19.5221 0.255737 18.3037 0.255737Z" fill="#999999"/>
</g>
</svg>
