<svg width="78" height="25" viewBox="0 0 78 25" fill="none" xmlns="http://www.w3.org/2000/svg">
<g clip-path="url(#clip0_1686_1705)">
<path d="M46.5413 16.5186H41.7854L41.1461 18.5269H37.9453L42.2977 5.75781H46.0289L50.3813 18.5269H47.1805L46.5413 16.5186ZM45.6662 13.7821L44.1656 9.09145L42.6649 13.7821H45.6662Z" fill="white"/>
<path d="M61.5611 15.7141V18.523H53.1602V5.75391H56.0844V15.7141H61.5611Z" fill="white"/>
<path d="M77.2349 18.5276L72.5108 11.8512L76.8269 5.75391H73.2362L70.7154 9.3137L68.1947 5.75391H64.3954L68.8158 11.996L64.1914 18.5276H67.7866L70.6112 14.5335L73.4402 18.5276H77.2349Z" fill="white"/>
<path d="M16.3731 6.51953C14.2151 6.51953 11.4631 11.2418 9.3141 11.2418L5.07961 11.2463C4.68518 11.2463 4.36328 11.5675 4.36328 11.961V18.4519L8.53884 18.4473C10.6833 18.4473 13.4353 13.7613 15.5978 13.7613H21.2514C21.7456 13.716 22.1309 13.3089 22.1309 12.8023V6.51953H16.3731Z" fill="#0092FF"/>
<path d="M4.36839 11.9595C4.36839 11.5659 4.69029 11.2448 5.08472 11.2448L9.31922 11.2403C11.4637 11.2403 14.2156 6.518 16.3782 6.518H22.136V0.750859C22.136 0.429709 21.7008 0 21.1704 0H15.2267C13.0686 0 9.89047 4.58205 7.74148 4.58205H1.68443C1.14945 4.58205 0.71875 5.01628 0.71875 5.5455V17.4778C0.71875 18.0116 1.15399 18.4413 1.68443 18.4413H4.36839V11.9595Z" fill="#105FFB"/>
<path d="M25.2042 6.51758H22.1348V12.8004C22.1348 13.3025 21.7449 13.7141 21.2553 13.7593H15.6017C13.4437 13.7593 10.6917 18.4454 8.54275 18.4454L4.36719 18.4499V24.2849C4.36719 24.6784 4.68908 24.9996 5.08351 24.9996L10.3336 24.9951C12.4191 24.9951 15.6017 20.3949 17.1931 20.3949H25.0727C25.4671 20.3949 25.789 20.0738 25.789 19.6802V7.23225C25.789 6.83873 25.4671 6.51758 25.2042 6.51758Z" fill="#84DFFF"/>
</g>
<defs>
<clipPath id="clip0_1686_1705">
<rect width="76.5625" height="25" fill="white" transform="translate(0.71875)"/>
</clipPath>
</defs>
</svg>
