<svg width="24" height="21" viewBox="0 0 24 21" fill="none" xmlns="http://www.w3.org/2000/svg">
<g id="Product Documentation" clip-path="url(#clip0_7024_89)">
<g id="Group">
<g id="Group_2">
<path id="Vector" d="M9.75 3H23.25" stroke="black" stroke-width="1.5" stroke-linecap="round" stroke-linejoin="round"/>
<path id="Vector_2" d="M9.75 10.5H23.25" stroke="black" stroke-width="1.5" stroke-linecap="round" stroke-linejoin="round"/>
<path id="Vector_3" d="M9.75 18H23.25" stroke="black" stroke-width="1.5" stroke-linecap="round" stroke-linejoin="round"/>
</g>
<path id="Vector_4" d="M5.25 0.75L2.7675 4.5L0.75 3.03" stroke="black" stroke-width="1.5" stroke-linecap="round" stroke-linejoin="round"/>
</g>
<path id="Vector_5" d="M3 12.75C4.24264 12.75 5.25 11.7426 5.25 10.5C5.25 9.25736 4.24264 8.25 3 8.25C1.75736 8.25 0.75 9.25736 0.75 10.5C0.75 11.7426 1.75736 12.75 3 12.75Z" stroke="black" stroke-width="1.5" stroke-linecap="round" stroke-linejoin="round"/>
<path id="Vector_6" d="M3 20.25C4.24264 20.25 5.25 19.2426 5.25 18C5.25 16.7574 4.24264 15.75 3 15.75C1.75736 15.75 0.75 16.7574 0.75 18C0.75 19.2426 1.75736 20.25 3 20.25Z" stroke="black" stroke-width="1.5" stroke-linecap="round" stroke-linejoin="round"/>
</g>
<defs>
<clipPath id="clip0_7024_89">
<rect width="24" height="21" fill="white"/>
</clipPath>
</defs>
</svg>
