<svg width="129" height="27" viewBox="0 0 129 27" fill="none" xmlns="http://www.w3.org/2000/svg">
<g id="Frame 2">
<path id="Vector" d="M115.203 22.9375C113.492 22.9375 111.139 22.7303 109.713 22.3849C109.713 22.3849 110.141 20.8651 110.569 19.0691C110.569 19.0691 111.923 19.4145 113.064 19.4145C114.419 19.4145 115.203 19 115.203 18.102C115.203 17.3421 114.847 16.9967 112.565 15.7533C111.068 14.9243 109.784 13.6118 109.784 11.6776C109.784 8.56908 112.494 6.98026 116.487 6.98026C118.554 6.98026 120.194 7.39474 120.764 7.60197C120.764 7.60197 120.337 9.12171 120.051 10.5033C120.051 10.5033 119.41 10.3651 118.697 10.3651C117.841 10.3651 117.128 10.7105 117.128 11.5395C117.128 12.2303 118.055 12.7138 119.41 13.4737C120.907 14.3717 122.618 15.477 122.618 17.7566C122.547 21.4178 119.481 22.9375 115.203 22.9375ZM107.431 22.3849L97.5209 22.6612L97.2357 7.67105L107.431 7.39474C107.503 9.12171 107.717 11.1941 107.717 11.1941L103.51 11.4704L103.439 13.6118L107.218 13.5428L107.146 16.7204L103.367 16.8586V19.0691H107.859C107.574 21.2105 107.431 22.3849 107.431 22.3849ZM94.3837 22.4539L88.6085 22.5921L88.4659 15.6151C87.1112 17.5493 85.8278 19.3454 84.4731 21.4178L84.2592 21.4868L80.5516 16.0296L80.2664 22.523C80.2664 22.523 78.1987 22.2467 76.4876 22.1086L76.2024 7.80921C76.2024 7.80921 80.0525 7.60197 82.1202 7.46382C83.6175 9.88158 85.6139 13.6118 85.6139 13.6118C86.9686 11.0559 88.3232 7.94737 88.3232 7.94737C88.3232 7.94737 91.603 7.80921 94.7402 7.46382C94.8115 7.39474 94.455 17.273 94.3837 22.4539ZM68.9298 22.7303C68.6446 21.7632 68.1455 20.3816 68.1455 20.3816L63.1546 20.6579C63.1546 20.6579 62.7268 21.8322 62.5129 22.4539L59.3044 21.9013L64.937 7.67105C67.1473 7.46382 69.0011 7.25658 69.0011 7.25658L74.9903 21.9704C72.067 22.3158 68.9298 22.7303 68.9298 22.7303ZM52.0319 22.7303C47.1835 22.7303 43.0481 20.5888 43.0481 14.9934C43.0481 9.67434 48.253 7.25658 52.8162 7.25658C54.3847 7.25658 55.5968 7.46382 56.0246 7.53289C56.0246 7.53289 55.5255 9.74342 55.3829 11.3322C55.3829 11.3322 54.6699 11.1941 54.1708 11.1941C51.3902 11.1941 49.3938 11.8158 49.3938 15.2697C49.3938 17.7566 50.5346 19.2072 53.1726 19.2072C53.1726 19.2072 53.1726 16.8586 53.1014 15.3388C55.3829 14.9934 57.8784 14.4408 57.8784 14.4408C57.9497 18.6546 58.0923 21.625 58.0923 21.625C57.0228 22.1086 54.8125 22.7303 52.0319 22.7303ZM125.755 5.04605H49.1086L50.1781 2.62829C50.1781 2.62829 46.3279 1.66118 43.1194 0.625L39.2693 11.4013C38.3424 9.12171 37.3442 6.56579 36.7738 5.11513L31.1411 5.73684C32.7097 8.5 36.6312 16.375 37.5581 18.6546C37.5581 21.6941 37.3442 23.9737 37.1303 26.1151L43.8324 26.875V25.0099H124.686C126.183 20.727 128.75 14.2336 128.75 14.2336L125.755 5.04605ZM65.65 13.4737L67.1473 17.273L64.2954 17.4803L65.65 13.4737ZM17.4517 19.1382C17.4517 23.7664 13.3876 25.7697 7.75494 25.7697C5.54466 25.7697 3.69087 25.6316 1.33799 25.148C1.83709 23.1447 2.12229 20.727 2.12229 20.727C2.55008 20.8651 3.69087 21.0033 4.97426 21.0724C6.75675 21.2105 7.75494 20.6579 7.75494 19.4836C7.75494 18.4474 7.25584 18.0329 4.33257 16.375C2.33619 15.3388 0.625 13.6118 0.625 10.9868C0.625 6.91118 4.18997 4.76974 9.46612 4.76974C12.1755 4.76974 14.4571 5.11513 15.0275 5.18421C14.3145 7.74013 14.1006 9.39803 14.1006 9.39803C14.1006 9.39803 13.5302 9.25987 12.3181 9.25987C11.2486 9.25987 10.1791 9.67434 10.1791 10.7796C10.1791 11.6776 11.3912 12.3684 13.1737 13.4046C15.3127 14.648 17.4517 16.1678 17.4517 19.1382ZM24.0112 16.7895L24.5103 13.6118L25.6511 16.5132L24.0112 16.7895ZM22.0861 8.98355L18.5211 23.2829L22.7991 23.352L23.3695 20.2434L27.0058 19.7599C27.0058 19.7599 28.0753 22.523 28.3605 23.2138C30.0716 23.0066 34.4922 22.523 34.4922 22.523L28.8596 7.80921C26.1502 8.43092 24.2251 8.63816 22.0861 8.98355Z" fill="#999999"/>
</g>
</svg>
