<svg width="24" height="24" viewBox="0 0 24 24" fill="none" xmlns="http://www.w3.org/2000/svg">
<path d="M7.26481 20.5V8.34843H3.23519V20.5H7.26481ZM5.25784 6.70209C6.66899 6.70209 7.54704 5.777 7.54704 4.60105C7.51568 3.40941 6.66899 2.5 5.2892 2.5C3.90941 2.5 3 3.40941 3 4.60105C3 5.79268 3.87805 6.70209 5.22648 6.70209H5.25784V6.70209ZM9.50697 20.5H13.5366V13.7108C13.5366 13.3502 13.5679 12.9895 13.662 12.723C13.9599 12.0017 14.6185 11.2491 15.7317 11.2491C17.1899 11.2491 17.77 12.3624 17.77 13.993V20.4843H21.7997V13.5226C21.7997 9.79094 19.8084 8.05052 17.1585 8.05052C14.9791 8.05052 14.0226 9.27352 13.4895 10.1045H13.5209V8.34843H9.49129C9.53833 9.49303 9.49129 20.5 9.49129 20.5H9.50697Z" fill="#666666"/>
</svg>
