<svg width="24" height="24" viewBox="0 0 24 24" fill="none" xmlns="http://www.w3.org/2000/svg">
<path d="M8.67618 11.9857C8.67618 10.1455 10.1598 8.66191 12 8.66191C13.8402 8.66191 15.3238 10.1455 15.3238 11.9857C15.3238 13.826 13.8402 15.3096 12 15.3096C10.1598 15.3096 8.67618 13.826 8.67618 11.9857ZM6.87874 11.9857C6.87874 14.8245 9.17546 17.107 12 17.107C14.8245 17.107 17.1213 14.8103 17.1213 11.9857C17.1213 9.1612 14.8245 6.86448 12 6.86448C9.17546 6.86448 6.87874 9.1612 6.87874 11.9857ZM16.1369 6.6505C16.1369 6.89301 16.2083 7.12126 16.3367 7.32097C16.465 7.52068 16.6505 7.6776 16.8787 7.7632C17.0927 7.84879 17.3352 7.87732 17.5777 7.83452C17.806 7.79173 18.02 7.6776 18.1912 7.50642C18.3623 7.33524 18.4765 7.12125 18.5193 6.89301C18.5621 6.66476 18.5478 6.42225 18.4479 6.19401C18.3623 5.98003 18.2054 5.79458 18.0057 5.65193C17.806 5.52354 17.5777 5.45221 17.3352 5.45221C17.0214 5.45221 16.7076 5.5806 16.4936 5.80884C16.2653 6.03709 16.1369 6.33666 16.1369 6.6505ZM7.96291 20.117C6.99287 20.0742 6.46505 19.9173 6.10842 19.7746C5.63766 19.5892 5.30956 19.3752 4.95292 19.0328C4.59629 18.6904 4.38231 18.3481 4.21113 17.8916C4.06847 17.5349 3.91155 17.0071 3.86876 16.0371C3.82596 14.9815 3.8117 14.6676 3.8117 12C3.8117 9.33238 3.8117 9.01854 3.86876 7.96291C3.91155 6.99287 4.08274 6.46505 4.21113 6.10842C4.39658 5.63766 4.61056 5.30956 4.95292 4.95292C5.29529 4.59629 5.63766 4.38231 6.10842 4.21113C6.46505 4.06847 6.99287 3.91155 7.96291 3.86876C9.01855 3.82596 9.33238 3.8117 12 3.8117C14.6676 3.8117 14.9815 3.8117 16.0371 3.86876C17.0071 3.91155 17.5349 4.08274 17.8916 4.21113C18.3623 4.39658 18.6904 4.61056 19.0471 4.95292C19.4037 5.29529 19.6177 5.63766 19.7889 6.10842C19.9315 6.46505 20.0884 6.99287 20.1312 7.96291C20.174 9.01854 20.1883 9.33238 20.1883 12C20.1883 14.6676 20.1883 14.9815 20.1312 16.0371C20.0884 17.0071 19.9173 17.5349 19.7889 17.8916C19.6034 18.3623 19.3894 18.6904 19.0471 19.0328C18.7047 19.3752 18.3623 19.6034 17.8916 19.7746C17.5349 19.9173 17.0071 20.0742 16.0371 20.117C14.9815 20.1598 14.6676 20.174 12 20.174C9.33238 20.174 9.01855 20.174 7.96291 20.117ZM7.87732 2.05706C6.80742 2.09986 6.09415 2.27104 5.45221 2.52782C4.79601 2.78459 4.23966 3.12696 3.68331 3.68331C3.12696 4.23966 2.78459 4.79601 2.52782 5.45221C2.28531 6.07989 2.11412 6.80742 2.05706 7.87732C2.01427 8.94722 2 9.28959 2 12C2 14.7104 2 15.0528 2.05706 16.1227C2.09986 17.1926 2.27104 17.9058 2.52782 18.5478C2.78459 19.204 3.12696 19.7603 3.68331 20.3167C4.23966 20.873 4.79601 21.2154 5.45221 21.4722C6.09415 21.7147 6.80742 21.8859 7.87732 21.9429C8.94722 21.9857 9.28959 22 12 22C14.7104 22 15.0528 22 16.1227 21.9429C17.1926 21.9001 17.9058 21.729 18.5478 21.4722C19.204 21.2154 19.7603 20.873 20.3167 20.3167C20.873 19.7603 21.2154 19.204 21.4722 18.5478C21.7147 17.9201 21.8859 17.1926 21.9429 16.1227C21.9857 15.0528 22 14.7104 22 12C22 9.28959 22 8.94722 21.9429 7.87732C21.9001 6.80742 21.729 6.09415 21.4722 5.45221C21.2154 4.79601 20.873 4.23966 20.3167 3.68331C19.7603 3.12696 19.204 2.78459 18.5478 2.52782C17.9058 2.28531 17.1926 2.11412 16.1227 2.05706C15.0528 2.01427 14.7104 2 12 2C9.28959 2 8.94722 2 7.87732 2.05706Z" fill="#666666"/>
</svg>
