<svg width="180" height="40" viewBox="0 0 180 40" fill="none" xmlns="http://www.w3.org/2000/svg">
<path d="M10 23.078C10.1384 22.3641 10.2741 21.6516 10.4138 20.9377C10.4481 20.7616 10.4563 20.5678 10.5426 20.4203C10.6221 20.2838 10.7879 20.116 10.9181 20.1132C11.0469 20.1105 11.2634 20.2784 11.295 20.4067C11.6019 21.6311 12.0281 22.8419 11.8129 24.1386C11.654 25.1037 11.5087 26.0701 11.3196 27.0297C11.2826 27.218 11.0976 27.4856 10.9387 27.5197C10.6166 27.5893 10.5509 27.2699 10.5152 27.0269C10.3604 25.9773 10.2234 24.9262 10.0754 23.8765C10.0644 23.8015 10.026 23.7291 10 23.6554C10 23.4629 10 23.2691 10 23.0766V23.078ZM27.7662 29.1222C27.8073 29.428 27.9841 29.5454 28.2746 29.5454C28.5651 29.5454 28.7432 29.428 28.7857 29.1236C28.8419 28.7155 28.931 28.31 28.9748 27.9005C29.1489 26.2871 29.4901 24.6682 29.4394 23.0603C29.3462 20.161 29.0159 17.2699 28.7871 14.3761C28.7611 14.0526 28.6021 13.8547 28.2664 13.8615C27.9265 13.8683 27.7909 14.0826 27.7662 14.4007C27.5607 17.1034 27.3524 19.8061 27.1879 21.9519C27.0947 24.7406 27.4743 26.9273 27.7689 29.1222H27.7662ZM21.8848 29.1004C21.9218 29.3788 22.078 29.5508 22.385 29.544C22.6892 29.5385 22.8317 29.3638 22.8714 29.084C22.9715 28.3892 23.092 27.6958 23.1633 26.9983C23.299 25.6852 23.5538 24.3611 23.4963 23.0534C23.3867 20.565 23.092 18.0862 22.8728 15.6033C22.8454 15.2893 22.6878 15.0641 22.3534 15.0764C22.0437 15.0873 21.9026 15.3098 21.8779 15.606C21.6765 17.9524 21.4737 20.2975 21.3079 22.2385C21.2572 24.8197 21.5957 26.9573 21.8848 29.1004ZM24.3719 25.1214C24.5103 26.4086 24.6611 27.6944 24.8186 28.9789C24.8748 29.4334 25.0598 29.5877 25.4161 29.5413C25.7587 29.4962 25.8108 29.2369 25.8478 28.9707C25.956 28.1927 26.0889 27.4173 26.1561 26.6366C26.2739 25.2538 26.4329 23.867 26.4206 22.4829C26.4082 21.1793 26.1999 19.8771 26.0711 18.5749C25.9944 17.7941 25.9081 17.0133 25.8149 16.2339C25.782 15.9582 25.6285 15.763 25.3298 15.7643C25.0365 15.7643 24.8844 15.95 24.8365 16.2284C24.8255 16.2967 24.8132 16.3649 24.8063 16.4332C24.6062 18.6964 24.4062 20.9595 24.2143 23.1353C24.2705 23.8588 24.302 24.4908 24.3706 25.12L24.3719 25.1214ZM20.0225 16.7403C19.9896 16.4468 19.8581 16.1943 19.5073 16.2039C19.1346 16.2148 19.0332 16.496 19.003 16.8004C18.8221 18.6499 18.5563 20.4968 18.5001 22.3505C18.4521 23.9243 18.6358 25.5063 18.744 27.0829C18.7892 27.7408 18.8989 28.3947 18.9879 29.0499C19.0277 29.3393 19.1757 29.5372 19.4991 29.5426C19.8046 29.5481 19.9444 29.3802 19.9828 29.0908C20.0431 28.6404 20.1226 28.1927 20.1787 27.7422C20.3678 26.2407 20.5515 24.7392 20.7282 23.306C20.4884 21.0633 20.2596 18.8997 20.0225 16.7389V16.7403ZM17.0311 19.6C16.9982 19.4403 16.7612 19.2519 16.5858 19.2082C16.3131 19.1413 16.1527 19.3638 16.1171 19.6177C15.9307 20.9104 15.5964 22.2071 15.6183 23.4984C15.6498 25.3507 15.9445 27.1989 16.1267 29.0485C16.1541 29.3229 16.2651 29.5385 16.5775 29.5385C16.9146 29.5385 17.0119 29.2915 17.0489 29.013C17.0996 28.6445 17.1421 28.2746 17.1832 27.906C17.3504 26.4141 17.5162 24.9235 17.7039 23.2391C17.5052 22.1389 17.2901 20.8653 17.0311 19.6ZM13.2093 28.4315C13.2422 28.7373 13.3395 28.9939 13.693 28.9789C14.0356 28.9639 14.1219 28.7045 14.1576 28.4001C14.2781 27.3614 14.3686 26.3158 14.5563 25.2879C14.9482 23.1463 14.5289 21.0687 14.1425 18.9844C14.0931 18.7196 13.9369 18.5817 13.6478 18.594C13.3724 18.6049 13.2586 18.7523 13.2189 19.0021C13.16 19.3829 13.0791 19.7611 13.0298 20.1419C12.8804 21.2844 12.742 22.4283 12.6406 23.25C12.8557 25.2019 13.0366 26.8167 13.2093 28.4302V28.4315ZM43.873 18.3196C43.5235 16.698 42.7781 15.277 41.6476 14.0649C39.9004 12.1921 37.7188 11.1943 35.1687 11.021C33.9231 10.9363 32.698 11.1015 31.5469 11.6366C30.7165 12.0229 30.3246 12.6521 30.326 13.5776C30.3356 18.3319 30.3246 23.0848 30.3219 27.8391C30.3219 28.9352 30.8535 29.4635 31.9566 29.4635C36.6061 29.4635 41.2543 29.4648 45.9038 29.4607C46.2395 29.4607 46.5766 29.4375 46.9082 29.3898C49.9997 28.9448 52.062 26.1711 51.6317 23.0466C51.2412 20.2019 48.3087 18.0534 45.3597 18.4588C44.9089 18.5203 44.4649 18.6254 43.9744 18.7182C43.9374 18.5749 43.9004 18.4479 43.8716 18.3182L43.873 18.3196ZM62.175 20.2374C60.3332 19.8061 59.8344 19.5754 59.8344 18.8479C59.8344 18.336 60.2497 17.805 61.4939 17.805C62.5573 17.805 63.3877 18.235 64.1345 18.9953L65.8104 17.3764C64.7142 16.2353 63.3863 15.5568 61.5789 15.5568C59.2863 15.5568 57.4268 16.8468 57.4268 18.9475C57.4268 21.2284 58.9218 21.9068 61.0623 22.4023C63.2534 22.8978 63.6522 23.2295 63.6522 23.9748C63.6522 24.8511 63.0026 25.232 61.6268 25.232C60.5141 25.232 59.4686 24.8525 58.6546 23.9066L56.9787 25.3958C57.8584 26.6857 59.5535 27.4951 61.4939 27.4951C64.6662 27.4951 66.0612 26.0073 66.0612 23.8083C66.0612 21.2939 64.0194 20.666 62.175 20.2361V20.2374ZM72.8689 15.5582C69.6994 15.5582 67.8248 18.0057 67.8248 21.5274C67.8248 25.0491 69.6994 27.4951 72.8689 27.4951C76.0385 27.4951 77.9158 25.0504 77.9158 21.5274C77.9158 18.0043 76.0385 15.5582 72.8689 15.5582ZM72.8689 25.1992C70.9943 25.1992 70.2119 23.5953 70.2119 21.5287C70.2119 19.4621 70.993 17.8569 72.8689 17.8569C74.7449 17.8569 75.526 19.4608 75.526 21.5287C75.526 23.5967 74.7476 25.1992 72.8689 25.1992ZM87.2971 22.2399C87.2971 24.0908 86.3817 25.2333 84.9058 25.2333C83.43 25.2333 82.5324 24.0594 82.5324 22.2071V15.7384H80.207V22.2399C80.207 25.6114 82.1008 27.4965 84.9058 27.4965C87.8602 27.4965 89.6211 25.5609 89.6211 22.2071V15.7384H87.2971V22.2385V22.2399ZM99.6464 20.636C99.6464 21.2817 99.6793 22.7354 99.6793 23.1654C99.5299 22.8664 99.1489 22.289 98.8667 21.8577L94.7475 15.7384H92.5235V27.3163H94.8146V22.2221C94.8146 21.5765 94.7817 20.1228 94.7817 19.6928C94.9297 19.9904 95.3134 20.5691 95.5943 21.0005L99.8615 27.3163H101.936V15.7384H99.645V20.636H99.6464ZM108.56 15.7398H104.925V27.3177H108.393C111.382 27.3177 114.338 25.5964 114.338 21.5287C114.338 17.461 111.879 15.7398 108.56 15.7398ZM108.393 25.0682H107.249V17.9893H108.477C110.935 17.9893 111.948 19.1618 111.948 21.5274C111.948 23.6445 110.834 25.0668 108.392 25.0668L108.393 25.0682ZM121.526 17.8569C122.572 17.8569 123.236 18.321 123.652 19.114L125.81 18.1231C125.078 16.6188 123.75 15.5596 121.559 15.5596C118.524 15.5596 116.397 18.007 116.397 21.5287C116.397 25.0504 118.438 27.4965 121.476 27.4965C123.585 27.4965 124.979 26.5219 125.776 24.8839L123.817 23.725C123.204 24.7515 122.588 25.1978 121.543 25.1978C119.8 25.1978 118.787 23.609 118.787 21.5274C118.787 19.3789 119.785 17.8555 121.526 17.8555V17.8569ZM130.147 15.7398H127.823V27.3177H134.807V25.034H130.147V15.7411V15.7398ZM140.931 15.5596C137.759 15.5596 135.885 18.007 135.885 21.5287C135.885 25.0504 137.759 27.4965 140.931 27.4965C144.104 27.4965 145.977 25.0518 145.977 21.5287C145.977 18.007 144.101 15.5596 140.931 15.5596ZM140.931 25.2006C139.054 25.2006 138.274 23.5967 138.274 21.5301C138.274 19.4635 139.053 17.8582 140.931 17.8582C142.81 17.8582 143.586 19.4621 143.586 21.5301C143.586 23.5981 142.806 25.2006 140.931 25.2006ZM155.357 22.2413C155.357 24.0922 154.446 25.2347 152.968 25.2347C151.491 25.2347 150.594 24.0608 150.594 22.2085V15.7398H148.269V22.2413C148.269 25.6128 150.162 27.4979 152.968 27.4979C155.923 27.4979 157.682 25.5623 157.682 22.2085V15.7398H155.357V22.2399V22.2413ZM164.223 15.7411H160.589V27.3191H164.057C167.047 27.3191 170 25.5978 170 21.5301C170 17.4624 167.543 15.7411 164.223 15.7411ZM164.057 25.0695H162.911V17.9906H164.141C166.595 17.9906 167.609 19.1632 167.609 21.5287C167.609 23.6458 166.496 25.0682 164.057 25.0682V25.0695Z" fill="#999999"/>
</svg>
