<svg width="169" height="32" viewBox="0 0 169 32" fill="none" xmlns="http://www.w3.org/2000/svg">
<path d="M16.5096 16.0608H2.36179L2.245 15.9264C0.798697 14.264 0.00195312 12.1344 0.00195312 9.93118C0.00195312 4.44639 5.61436 0 11.0988 0H30.4286C31.8685 0 32.5469 1.7792 31.4702 2.73759L16.5096 16.0608Z" fill="#FF33CA"/>
<path d="M15.4905 15.9392H29.6399L29.7567 16.0736C31.203 17.736 31.9998 19.8656 31.9998 22.0688C31.9998 27.5536 26.3874 32 20.903 32H1.57311C0.133207 32 -0.545145 30.2208 0.53158 29.2624L15.4921 15.9392H15.4905Z" fill="#DC33FF"/>
<path d="M30.5948 11.1199H18.1892C17.2469 11.1199 16.5061 10.3119 16.5877 9.37272L17.2629 1.63513C17.3925 0.153535 15.519 -0.592064 14.5943 0.574334L0.305671 18.6111C-0.422278 19.5295 0.232076 20.8815 1.40319 20.8815H13.8087C14.7511 20.8815 15.4918 21.6895 15.4102 22.6287L14.7351 30.3663C14.6055 31.8479 16.4789 32.5935 17.4037 31.4271L31.6923 13.3903C32.4202 12.4719 31.7659 11.1199 30.5948 11.1199Z" fill="#AF0E91"/>
<path d="M48.0303 20.76L51.4603 18.77C52.0803 20.21 53.1503 21.18 55.1103 21.18C57.0703 21.18 57.4703 20.43 57.4703 19.76C57.4703 18.69 56.4803 18.27 53.8703 17.55C51.2803 16.83 48.7503 15.59 48.7503 12.26C48.7503 8.92997 51.5803 6.96997 54.5903 6.96997C57.6003 6.96997 59.6903 8.33997 60.9503 10.9L57.5903 12.86C56.9903 11.62 56.1703 10.85 54.5803 10.85C53.3403 10.85 52.7203 11.47 52.7203 12.17C52.7203 12.97 53.1403 13.51 55.8503 14.33C58.4803 15.12 61.4403 16.04 61.4403 19.72C61.4403 23.08 58.7603 25.06 54.9803 25.06C51.2003 25.06 49.0003 23.32 48.0303 20.76Z" fill="black"/>
<path d="M76.6903 18.4999C76.6903 22.1999 74.0103 25.0599 70.7503 25.0599C69.0803 25.0599 67.8703 24.4899 67.0503 23.5399V29.6799H63.3203V12.2799H67.0503V13.4499C67.8703 12.5099 69.0903 11.9299 70.7503 11.9299C74.0103 11.9299 76.6903 14.7899 76.6903 18.4899V18.4999ZM72.9603 18.4999C72.9603 16.6399 71.7203 15.4699 70.0003 15.4699C68.2803 15.4699 67.0403 16.6399 67.0403 18.4999C67.0403 20.3599 68.2803 21.5299 70.0003 21.5299C71.7203 21.5299 72.9603 20.3599 72.9603 18.4999Z" fill="black"/>
<path d="M91.5604 12.2799V24.7099H87.8304V23.5399C87.0104 24.4799 85.7904 25.0599 84.1304 25.0599C80.8704 25.0599 78.1904 22.1999 78.1904 18.4999C78.1904 14.7999 80.8704 11.9399 84.1304 11.9399C85.8004 11.9399 87.0104 12.5099 87.8304 13.4599V12.2899H91.5604V12.2799ZM87.8304 18.4899C87.8304 16.6299 86.5904 15.4599 84.8704 15.4599C83.1504 15.4599 81.9104 16.6299 81.9104 18.4899C81.9104 20.3499 83.1504 21.5199 84.8704 21.5199C86.5904 21.5199 87.8304 20.3499 87.8304 18.4899Z" fill="black"/>
<path d="M101.75 12.03V16.26C100.21 16.01 98.02 16.63 98.02 19.09V24.71H94.29V12.28H98.02V14.49C98.52 12.83 100.18 12.03 101.75 12.03Z" fill="black"/>
<path d="M111.2 24.7101L107.22 19.2201V24.7101H103.49V7.31006H107.22V17.7201L110.95 12.2801H115.3L110.78 18.4901L115.43 24.7001H111.2V24.7101Z" fill="black"/>
<path d="M127.11 20.8801V24.7101H116.92V7.31006H120.9V20.8801H127.11Z" fill="black"/>
<path d="M141.35 12.2799V24.7099H137.62V23.5399C136.8 24.4799 135.58 25.0599 133.92 25.0599C130.67 25.0599 127.98 22.1999 127.98 18.4999C127.98 14.7999 130.66 11.9399 133.92 11.9399C135.58 11.9399 136.8 12.5099 137.62 13.4599V12.2899H141.35V12.2799ZM137.62 18.4899C137.62 16.6299 136.38 15.4599 134.66 15.4599C132.94 15.4599 131.7 16.6299 131.7 18.4899C131.7 20.3499 132.94 21.5199 134.66 21.5199C136.38 21.5199 137.62 20.3499 137.62 18.4899Z" fill="black"/>
<path d="M157.46 18.5001C157.46 22.2001 154.78 25.0601 151.52 25.0601C149.86 25.0601 148.64 24.4901 147.82 23.5401V24.7101H144.09V7.31006H147.82V13.4501C148.64 12.5101 149.86 11.9301 151.52 11.9301C154.77 11.9301 157.46 14.7901 157.46 18.4901V18.5001ZM153.73 18.5001C153.73 16.6401 152.49 15.4701 150.77 15.4701C149.05 15.4701 147.81 16.6401 147.81 18.5001C147.81 20.3601 149.05 21.5301 150.77 21.5301C152.49 21.5301 153.73 20.3601 153.73 18.5001Z" fill="black"/>
<path d="M168.97 20.9799C168.97 23.8399 166.49 25.0599 163.8 25.0599C161.31 25.0599 159.43 24.1199 158.46 22.0999L161.69 20.2599C162.01 21.1999 162.71 21.7299 163.8 21.7299C164.69 21.7299 165.14 21.4599 165.14 20.9599C165.14 19.5899 159.03 20.3099 159.03 16.0099C159.03 13.2999 161.32 11.9299 163.9 11.9299C165.91 11.9299 167.7 12.8199 168.75 14.5899L165.57 16.3099C165.22 15.6599 164.73 15.2199 163.91 15.2199C163.26 15.2199 162.87 15.4699 162.87 15.9199C162.87 17.3399 168.99 16.3899 168.99 20.9899L168.97 20.9799Z" fill="black"/>
</svg>
