<svg width="107" height="32" viewBox="0 0 107 32" fill="none" xmlns="http://www.w3.org/2000/svg">
<g clip-path="url(#clip0_3651_5555)">
<path d="M8.59444 4.45583C9.03468 4.71476 9.65906 3.9994 9.83602 4.0506C9.91794 4.08291 9.98651 4.14281 10.0303 4.2203C10.4043 4.77181 10.5021 5.53691 11.0301 5.93043C11.0704 5.96649 11.1174 5.99399 11.1683 6.01132C11.2192 6.02866 11.273 6.03547 11.3265 6.03137C11.4704 6.0065 11.5553 5.86314 11.6143 5.72709C11.7581 5.34673 11.6056 2.4575 11.4704 2.19271C11.3869 2.02448 11.2373 1.846 11.0575 1.88404C10.8417 1.92939 10.3036 2.51309 10.0792 2.33315C9.85471 2.15321 10.1439 0.485503 9.87631 0.285085C9.34687 -0.171341 8.4592 -0.007496 8.15995 0.274845C7.8607 0.557185 7.85639 3.87213 8.59444 4.45583Z" fill="white"/>
<path d="M0.762799 12.1302C1.51236 12.6803 3.47908 13.874 3.7697 13.4073C4.06031 12.9407 3.93227 12.297 3.88048 11.962C3.82869 11.627 4.41567 11.8274 4.41567 11.8274C4.41567 11.8274 5.27889 11.9342 5.7105 11.8669C6.12197 11.804 6.52047 11.5246 6.15791 11.1018C5.69034 10.5576 3.25464 9.4809 2.72376 9.62865C2.19288 9.77641 2.37272 10.6161 2.39717 10.7273C2.42883 10.8736 2.33099 10.9423 2.21158 10.8619L1.53396 10.3996C1.2606 10.2153 0.918185 10.0236 0.626129 10.1743C0.292352 10.3484 -0.0111925 10.9555 0.00031711 11.3329C0.0075106 11.5875 0.259283 11.7426 0.431926 11.8845C0.545583 11.9678 0.653458 12.0468 0.762799 12.1302Z" fill="white"/>
<path d="M3.91364 7.23696C4.1726 7.22379 4.26612 6.8449 4.34525 6.65179C4.63299 5.96423 5.31204 6.88586 5.51777 7.16966C5.84292 7.60853 6.10907 8.13664 6.62412 8.39119C7.34347 8.74814 7.28594 7.68314 7.214 7.25597C7.09315 6.545 5.85156 4.57593 5.63144 4.19704C5.48757 3.94103 5.25163 3.33685 4.85311 3.50362C4.53948 3.63528 4.51356 4.21898 4.33373 4.39307C4.15389 4.56716 3.41152 3.12473 3.07199 2.79558C2.8979 2.62588 2.62313 2.51763 2.40301 2.65806C2.18289 2.7985 1.27793 3.84448 1.38296 4.51156C1.48798 5.17865 3.25903 7.18137 3.91364 7.23696Z" fill="white"/>
<path d="M30.3751 15.4027L31.8483 15.233L31.2182 12.7446L30.3751 15.4027Z" fill="white"/>
<path d="M39.5952 11.2306L38.7665 11.3271C38.7665 11.5305 38.6859 13.1836 38.6859 13.1836L39.4527 13.0943C40.2066 13.0066 40.6627 12.496 40.6037 11.8918C40.5447 11.4398 40.2253 11.1574 39.5952 11.2306Z" fill="white"/>
<path d="M23.7863 13.0564L23.044 13.1427L22.9648 15.0108L23.7187 14.9245C24.474 14.8368 24.933 14.3511 24.8697 13.722C24.8121 13.27 24.4668 12.9789 23.7863 13.0564Z" fill="white"/>
<path d="M57.0881 5.67601C56.209 2.91844 53.1418 1.87246 50.6039 1.48772C47.7668 1.04885 44.9095 1.39702 42.0811 1.7291C38.2944 2.17382 34.5082 2.62391 30.7225 3.07936C27.5833 3.45971 24.3851 3.66452 21.2905 4.33307C18.005 5.06363 14.9082 6.49081 12.2022 8.52136C11.3144 9.17077 10.5127 9.93387 9.81685 10.7918C8.46447 12.4932 7.70628 14.5324 7.37106 16.658C7.21203 17.712 7.14605 18.7783 7.17394 19.8442C7.25019 23.048 7.82568 26.3454 9.77224 28.945C10.3783 29.7503 11.0723 30.4831 11.8411 31.1291C12.1288 31.3763 13.0453 32.2833 13.4927 31.9117C13.8193 31.6396 13.579 30.7297 13.5373 30.3889C13.4582 29.7496 13.2812 28.9962 13.4625 28.3598C13.7919 27.1983 15.3414 27.2451 16.3111 27.2553C24.2801 27.3431 32.1497 26.044 40.0496 25.1956C42.0187 24.9829 43.9888 24.7718 45.9598 24.5621C48.8012 24.252 51.4973 24.1423 54.1388 22.8842C54.7243 22.6047 55.3056 22.2771 55.7386 21.787C56.8047 20.5757 57.0334 18.396 57.219 16.8468C57.4484 15.0031 57.559 13.1461 57.5499 11.2877C57.5442 9.5176 57.6262 7.36567 57.0881 5.67601ZM16.2392 20.858C15.2112 20.9876 14.1713 20.7424 13.3042 20.1661C13.2749 20.1481 13.2496 20.1239 13.2301 20.0952C13.2107 20.0665 13.1974 20.0339 13.1913 19.9995C13.1852 19.9652 13.1863 19.93 13.1946 19.8961C13.2029 19.8623 13.2182 19.8306 13.2395 19.8033L14.1876 18.3053C14.2044 18.2705 14.2283 18.2398 14.2576 18.2152C14.287 18.1905 14.3212 18.1725 14.3579 18.1623C14.3946 18.152 14.433 18.1498 14.4706 18.1558C14.5082 18.1618 14.5442 18.1759 14.576 18.197C15.0502 18.5141 15.6121 18.668 16.1788 18.6359C16.7542 18.5686 16.9628 18.2526 16.9326 17.9893C16.8089 16.8819 13.8855 17.4041 13.592 14.7709C13.4179 13.2114 14.6091 11.8758 16.5499 11.652C17.3902 11.5354 18.2454 11.6888 18.9957 12.0909C19.0257 12.1079 19.0518 12.1313 19.0723 12.1594C19.0927 12.1874 19.1071 12.2196 19.1145 12.2538C19.1218 12.2879 19.1219 12.3232 19.1148 12.3575C19.1078 12.3917 19.0936 12.4239 19.0734 12.4522L18.0375 14.0614C17.9996 14.1239 17.9398 14.1695 17.8703 14.1893C17.8007 14.2091 17.7264 14.2016 17.6621 14.1682C17.2305 13.9634 16.924 13.8463 16.4794 13.8975C16.1082 13.94 15.8306 14.1506 15.8594 14.4022C15.963 15.3326 18.8965 14.7899 19.1971 17.4817C19.3482 18.8685 18.3785 20.6108 16.2392 20.858ZM24.1995 16.9711L22.8759 17.1174L22.7651 19.717C22.7667 19.7527 22.7612 19.7884 22.7492 19.822C22.7372 19.8556 22.7187 19.8865 22.6949 19.9129C22.6712 19.9392 22.6425 19.9606 22.6106 19.9757C22.5787 19.9907 22.5442 19.9993 22.509 20.0008L20.7279 20.207C20.5538 20.2261 20.4805 20.1324 20.4891 19.9803L20.8603 11.5291C20.8584 11.4933 20.8635 11.4574 20.8754 11.4236C20.8873 11.3898 20.9057 11.3588 20.9296 11.3324C20.9534 11.3059 20.9822 11.2846 21.0143 11.2696C21.0464 11.2547 21.0811 11.2464 21.1163 11.2453L24.1477 10.8942C25.6554 10.7201 26.9402 11.5657 27.1359 13.3138C27.343 15.1805 25.8813 16.7765 24.1995 16.9711ZM34.702 18.5979L32.8317 18.8144C32.672 18.8319 32.5439 18.7968 32.495 18.5979L32.2188 17.3558L29.7859 17.6367L29.4205 18.9533C29.4034 19.0362 29.3586 19.1105 29.2939 19.1638C29.2292 19.2171 29.1484 19.2461 29.0651 19.2459L27.1948 19.4624C27.051 19.48 26.9978 19.3834 27.0424 19.2254L29.8493 10.4934C29.8606 10.4167 29.897 10.3461 29.9526 10.2931C30.0082 10.24 30.0797 10.2075 30.1557 10.2008L32.518 9.92722C32.6792 9.90966 32.7612 9.97549 32.7943 10.1496L34.8717 18.3184C34.8861 18.3476 34.8929 18.3801 34.8916 18.4127C34.8903 18.4453 34.8809 18.4771 34.8642 18.505C34.8475 18.5329 34.8242 18.5561 34.7963 18.5723C34.7684 18.5886 34.737 18.5973 34.7049 18.5979H34.702ZM42.8364 17.4041C42.9155 17.5504 42.8781 17.6543 42.6925 17.6748L40.7359 17.8986C40.6545 17.9161 40.5697 17.9052 40.4951 17.8678C40.4204 17.8304 40.3603 17.7686 40.3244 17.6923L38.9317 15.2654L38.6095 15.3019L38.4872 17.9015C38.4899 17.9381 38.4854 17.9748 38.4738 18.0096C38.4622 18.0443 38.4438 18.0763 38.4198 18.1036C38.3957 18.1309 38.3665 18.153 38.3338 18.1686C38.3011 18.1841 38.2657 18.1928 38.2297 18.1941L36.4485 18.396C36.2889 18.415 36.204 18.336 36.2112 18.1692L36.5823 9.71948C36.5788 9.64631 36.6036 9.57465 36.6515 9.51993C36.6994 9.46521 36.7665 9.4318 36.8384 9.4269L40.0295 9.05825C41.5502 8.8827 42.6997 9.97403 42.8594 11.4077C43.0435 13.0549 41.871 14.2223 41.2639 14.61L42.8364 17.4041ZM52.2008 7.91426L49.158 11.8451L52.0152 16.3435C52.1044 16.4737 52.0426 16.5951 51.8829 16.6142L49.8414 16.8497C49.7574 16.8659 49.6705 16.8549 49.5931 16.8181C49.5156 16.7814 49.4515 16.7208 49.4098 16.6449L47.4819 13.6328L46.6935 14.6407L46.5899 16.9711C46.5915 17.0068 46.5861 17.0425 46.574 17.0762C46.562 17.1098 46.5436 17.1406 46.5198 17.167C46.496 17.1934 46.4673 17.2147 46.4354 17.2298C46.4035 17.2449 46.369 17.2534 46.3338 17.2549L44.5513 17.4597C44.3902 17.4773 44.3067 17.3983 44.3125 17.2315L44.6836 8.78176C44.6819 8.74597 44.6872 8.71019 44.6991 8.67649C44.7111 8.64279 44.7295 8.61185 44.7534 8.58544C44.7772 8.55904 44.8059 8.53772 44.8379 8.5227C44.8699 8.50768 44.9045 8.49927 44.9397 8.49796L46.7223 8.29169C46.882 8.27267 46.9669 8.35313 46.9597 8.51844L46.8244 11.4442L49.335 8.24341C49.389 8.15781 49.461 8.08546 49.5459 8.03158C49.6307 7.9777 49.7262 7.94362 49.8256 7.93181L52.139 7.6641C52.2872 7.65825 52.3116 7.76212 52.2037 7.91426H52.2008Z" fill="white"/>
<path d="M93.4217 12.7315C93.7315 12.4859 93.9798 12.1693 94.1463 11.8075C94.3128 11.4457 94.3929 11.049 94.3799 10.6498C94.3799 8.79191 93.0246 7.6684 90.9774 7.6684H86.9174V18.153H91.2637C93.3541 18.153 94.7165 16.9388 94.7165 15.0809C94.7296 14.6069 94.6161 14.1381 94.3881 13.7245C94.1601 13.3108 93.8261 12.9676 93.4217 12.7315V12.7315ZM89.7041 15.8504C89.7041 15.9331 89.6718 16.0123 89.6144 16.0708C89.5569 16.1292 89.4789 16.162 89.3977 16.162C89.3575 16.162 89.3177 16.154 89.2806 16.1383C89.2435 16.1226 89.2098 16.0996 89.1815 16.0707C89.1531 16.0417 89.1307 16.0074 89.1155 15.9696C89.1002 15.9318 89.0925 15.8913 89.0927 15.8504V9.9754C89.0927 9.89314 89.1248 9.81426 89.182 9.7561C89.2392 9.69794 89.3168 9.66526 89.3977 9.66526C89.4378 9.66507 89.4777 9.67295 89.5148 9.68845C89.552 9.70395 89.5858 9.72676 89.6143 9.75558C89.6428 9.7844 89.6654 9.81865 89.6808 9.85637C89.6962 9.8941 89.7041 9.93455 89.7041 9.9754V15.8504Z" fill="white"/>
<path d="M66.2316 7.6684H63.2938V18.1516H66.2316V7.6684Z" fill="white"/>
<path d="M70.0937 15.1454H66.8452V18.1516H70.0937V15.1454Z" fill="white"/>
<path d="M79.8142 7.6684H76.603L73.2005 18.153H75.5657L77.3324 12.7403C77.345 12.7014 77.365 12.6654 77.3912 12.6344C77.4175 12.6034 77.4495 12.578 77.4855 12.5596C77.5215 12.5412 77.5607 12.5303 77.6008 12.5274C77.641 12.5245 77.6813 12.5298 77.7195 12.5428C77.7965 12.5688 77.8602 12.6249 77.8966 12.6987C77.9331 12.7725 77.9392 12.8579 77.9137 12.9363L76.2117 18.153H83.2167L79.8142 7.6684Z" fill="white"/>
<path d="M103.12 11.9109L102.524 12.2561C102.481 12.2819 102.431 12.2955 102.381 12.2956C102.329 12.2966 102.278 12.2836 102.234 12.2578C102.189 12.2321 102.152 12.1946 102.126 12.1493C102.106 12.1155 102.093 12.078 102.088 12.039C102.083 12 102.085 11.9603 102.096 11.9223C102.106 11.8844 102.123 11.8489 102.147 11.818C102.171 11.7871 102.201 11.7615 102.235 11.7427L105.582 9.78675C104.854 8.48623 103.658 7.60556 102.139 7.60556C99.837 7.60556 97.9868 9.16063 97.9868 11.573C98.0918 13.4074 99.778 14.528 101.128 13.7424L101.864 13.3036C101.897 13.2826 101.934 13.2687 101.972 13.2626C102.011 13.2565 102.05 13.2584 102.087 13.2681C102.125 13.2778 102.16 13.2951 102.191 13.3191C102.222 13.343 102.248 13.3731 102.267 13.4074C102.302 13.4739 102.312 13.5515 102.293 13.6247C102.275 13.698 102.23 13.7614 102.168 13.8024L98.545 15.9968C99.2327 17.2797 100.11 18.1253 101.832 18.1575C104.064 18.1985 106.133 16.7399 106.133 14.6758C106.133 12.0133 104.153 11.3345 103.12 11.9109Z" fill="white"/>
</g>
<defs>
<clipPath id="clip0_3651_5555">
<rect width="107" height="32" fill="white"/>
</clipPath>
</defs>
</svg>
