<svg width="176" height="40" viewBox="0 0 176 40" fill="none" xmlns="http://www.w3.org/2000/svg">
<path d="M19.2739 1.39903L19.166 1.08892C19.948 0.832738 21.9435 0.239483 23.1166 0.0776865C24.9233 -0.124559 26.7165 0.104653 28.2401 0.347348L28.1862 0.670941C26.6761 0.428245 24.9098 0.212517 23.1435 0.414763C22.0109 0.563077 20.0424 1.14285 19.2739 1.39903Z" fill="#999999"/>
<path d="M93.7533 25.8433C93.7533 27.7984 93.7533 31.7489 93.7533 31.7489H90.9219V15.6501H93.7533V16.6344C94.6028 15.8254 95.1421 15.5692 96.0589 15.3805C99.3892 14.6659 102.356 16.8636 102.679 20.2479C102.868 22.1625 102.463 23.8883 101.169 25.331C99.6185 27.0433 97.1106 27.5827 95.0342 26.6254C94.6028 26.4366 94.2117 26.1265 93.7533 25.8433ZM93.6185 21.2996C93.6185 21.3535 93.6185 21.5153 93.6455 21.6771C93.7668 23.0389 94.7511 24.1849 96.0185 24.4276C97.4881 24.7108 98.8095 24.1175 99.4567 22.8771C99.7802 22.2434 99.8746 21.5692 99.8342 20.8681C99.7533 19.4793 98.9173 18.3602 97.7173 17.9827C95.5196 17.322 93.6185 18.8187 93.6185 21.2996Z" fill="#999999"/>
<path d="M85.1232 16.6745C85.1367 16.3375 85.1232 15.6498 85.1232 15.6498H87.8468V26.706H85.1367L85.1232 25.6678C85.1232 25.6678 84.8671 25.843 84.7457 25.9509C82.0491 28.1891 77.1547 27.1779 76.1974 22.7284C75.8334 20.9217 76.0491 19.1959 77.1008 17.6318C78.6244 15.3937 81.5907 14.5982 83.9232 15.8251C84.3142 16.0408 84.7187 16.3914 85.1232 16.6745ZM82.0626 17.8476C80.2424 17.8341 78.9345 19.2094 78.921 21.1644C78.9075 23.106 80.2019 24.4947 82.0221 24.5082C83.8558 24.5217 85.1367 23.1599 85.1502 21.2049C85.1772 19.2498 83.8828 17.8611 82.0626 17.8476Z" fill="#999999"/>
<path d="M68.4582 14.5971H63.2133L63.1729 11.6982H76.8177V14.5701H71.6132V26.6779H68.4582V14.5971Z" fill="#999999"/>
<path d="M120.383 26.7049C120.383 26.7049 119.426 26.7049 118.954 26.7049C115.314 22.4308 111.673 18.1566 107.965 13.8016C107.965 18.1566 107.965 26.6914 107.965 26.6914H106.536V11.7117C106.536 11.7117 107.493 11.7117 108.019 11.7117C111.633 15.9589 118.981 24.6015 119.008 24.5881C119.008 20.3274 119.008 11.6982 119.008 11.6982H120.383V26.7049Z" fill="#999999"/>
<path d="M134.849 26.7058C134.391 26.7058 133.892 26.7058 133.42 26.7058V24.9799C133.42 24.9799 133.298 25.1687 133.272 25.1957C131.397 27.8923 126.018 27.9732 124.278 23.8473C123.186 21.2451 123.82 17.8339 126.665 16.189C128.849 14.935 131.627 15.4339 133.231 17.389C133.258 17.4294 133.298 17.4699 133.406 17.6047V15.9193C133.851 15.9193 134.364 15.9193 134.836 15.9193C134.849 19.5058 134.849 23.0923 134.849 26.7058ZM129.631 16.8361C128.445 16.8361 127.541 17.1328 126.759 17.7934C125.263 19.0743 124.818 21.5822 125.748 23.5103C127.029 26.1529 130.629 26.5979 132.503 24.3462C133.379 23.2945 133.609 22.0541 133.501 20.7328C133.325 18.5215 131.667 16.9036 129.631 16.8361Z" fill="#999999"/>
<path d="M151.607 21.2996C151.621 18.5221 153.401 16.1895 156.003 15.6502C160.007 14.8277 163.243 17.9423 162.798 21.9333C162.515 24.522 160.762 26.4905 158.457 26.9625C154.749 27.7175 151.607 25.1153 151.607 21.2996ZM161.315 21.3265C161.315 21.1108 161.342 20.8951 161.315 20.6793C161.113 19.0479 160.358 17.7535 158.78 17.1468C157.216 16.54 155.72 16.7558 154.466 17.9153C153.185 19.1153 152.902 20.6524 153.185 22.3243C153.616 24.94 156.165 26.4231 158.659 25.5332C160.317 24.9265 161.342 23.322 161.315 21.3265Z" fill="#999999"/>
<path d="M175.23 26.7068C174.772 26.7068 174.205 26.7068 173.734 26.7068V26.2214C173.734 24.2933 173.734 22.3787 173.72 20.4506C173.72 20.0326 173.666 19.6147 173.599 19.1967C173.289 17.6057 172.129 16.7697 170.498 16.8371C168.543 16.918 167.329 18.3473 167.248 20.2214C167.167 22.1899 167.221 24.1719 167.208 26.1539V26.6933C166.736 26.6933 166.264 26.6933 165.792 26.6933C165.792 23.1068 165.792 19.5338 165.792 15.9068C166.21 15.9068 166.682 15.9068 167.154 15.9068V17.39C167.181 17.4169 167.329 17.1473 167.396 17.0664C168.947 15.0844 172.048 15.1652 173.558 16.2574C174.596 16.9989 175.068 18.1046 175.109 19.3045C175.19 21.7315 175.23 26.7068 175.23 26.7068Z" fill="#999999"/>
<path d="M141.685 26.7053C141.173 26.7053 140.741 26.7053 140.256 26.7053C140.256 23.5368 140.256 20.3953 140.256 17.1863C139.299 17.1863 138.409 17.1863 137.465 17.1863C137.465 16.7413 137.465 16.3503 137.465 15.8784C138.382 15.8784 139.285 15.8784 140.242 15.8784C140.242 14.5571 140.242 13.3032 140.242 12.0088C140.728 12.0088 141.173 12.0088 141.685 12.0088C141.685 13.2897 141.685 14.5571 141.685 15.8784C142.642 15.8784 143.546 15.8784 144.476 15.8784C144.476 16.3234 144.476 16.7279 144.476 17.1728C143.546 17.1728 142.642 17.1728 141.699 17.1728C141.685 20.3683 141.685 23.5233 141.685 26.7053Z" fill="#999999"/>
<path d="M148.48 26.7054C148.008 26.7054 147.576 26.7054 147.104 26.7054C147.104 23.1189 147.104 19.5324 147.104 15.9189C147.549 15.9189 147.994 15.9189 148.48 15.9189C148.48 19.5054 148.48 23.0785 148.48 26.7054Z" fill="#999999"/>
<path d="M147.941 13.6537C147.482 13.6537 147.037 13.6537 146.565 13.6537C146.565 13.1009 146.565 12.5616 146.565 12.0088C147.037 12.0088 147.469 12.0088 147.941 12.0088C147.941 12.5481 147.941 13.0739 147.941 13.6537Z" fill="#999999"/>
<path d="M43.1773 29.0527C42.8403 28.001 41.9504 27.6909 41.0066 27.4752C40.238 27.2999 39.456 27.2594 38.674 27.2325C37.3526 27.1785 36.0178 27.2055 34.6965 27.165C32.6875 27.0842 30.665 27.0033 28.6561 26.9224C26.5797 26.828 24.5033 26.6797 22.4269 26.4235C19.7707 26.0864 17.1415 25.6145 14.6337 24.6707C10.4135 23.0932 8.00001 20.0325 7.36631 15.5696C7.15058 14.0595 7.33934 12.5764 7.75732 11.1202C7.89215 10.6753 8.14833 10.2843 8.29664 9.85279C8.76855 8.90898 9.42922 8.08651 10.1034 7.27753C12.8135 4.06856 16.1842 1.8843 20.2426 0.778686C20.3775 0.738236 21.0651 0.657337 21.1999 0.630371C21.3348 0.657337 16.791 2.04609 15.5101 5.44383C12.2337 14.1269 20.0943 17.4842 20.1213 17.4977C22.3999 18.6977 24.8673 19.3044 27.4021 19.6819C35.9774 20.7471 44.7144 20.019 45.3481 20.1404C45.5369 20.2752 44.9301 26.2752 43.1773 29.0527Z" fill="#999999"/>
<path d="M50.4985 23.1195L50.5659 22.6206C50.6333 22.1218 50.5254 21.7173 50.2288 21.3937C49.285 20.342 46.6423 20.4229 45.6446 20.4499C45.3614 20.4633 45.2401 20.4633 45.1727 20.4499L45.2266 20.1263C45.267 20.1398 45.4558 20.1263 45.6446 20.1263C46.7771 20.0858 49.4333 20.0049 50.485 21.178C50.7412 21.4611 50.876 21.7847 50.9164 22.1622C51.3344 21.5555 51.4288 20.9083 51.1861 20.2072C50.9839 19.6274 50.6063 19.1285 49.9591 18.5892C48.5165 17.3892 45.9142 16.1083 43.9727 15.3668L44.094 15.0566C46.0625 15.8117 48.7052 17.1061 50.1749 18.3195C50.876 18.8993 51.2805 19.4386 51.5097 20.0858C51.8333 21.0431 51.631 21.933 50.876 22.7285L50.4985 23.1195Z" fill="#999999"/>
<path d="M30.1815 39.5411L30.1006 39.231C33.2691 38.395 36.505 36.6557 38.7837 34.5928C40.6848 32.867 42.4376 30.3861 43.2466 28.2827L43.5567 28.4041C42.7342 30.5479 40.9545 33.0827 39.0129 34.8355C36.6938 36.9254 33.3905 38.6916 30.1815 39.5411Z" fill="#999999"/>
<path d="M7.9993 29.9293C7.43301 28.9585 6.4083 27.0979 5.96335 25.5203C5.55886 24.1046 5.32965 22.7024 5.26223 21.3406C5.24875 21.1923 5.32965 19.3855 5.38358 18.6305C5.61279 15.408 7.35211 10.8777 8.633 9.25977L8.88918 9.46201C7.62177 11.0395 5.9229 15.4755 5.70718 18.644C5.65324 19.399 5.58583 21.1923 5.58583 21.3136C5.65324 22.6485 5.88246 24.0372 6.27346 25.426C6.70492 26.963 7.71615 28.7967 8.28244 29.754L7.9993 29.9293Z" fill="#999999"/>
<path d="M7.75531 29.6179C8.86092 29.982 9.9935 30.2112 11.1261 30.4269C12.8384 30.7505 18.3934 31.1011 19.4316 31.1685C22.1283 31.3438 24.8249 31.5056 27.481 32.0584C28.7484 32.328 30.0024 32.6651 31.1484 33.3123C32.0113 33.7977 32.6855 34.4449 32.8743 35.4696C33.063 36.5078 32.672 37.3707 32.0248 38.1392C31.6338 38.5977 31.1484 38.9752 30.6765 39.3527C29.9484 39.6628 29.1664 39.7572 28.3979 39.8516C24.3934 40.337 20.5507 39.5415 16.762 38.355C12.5148 37.0201 8.64519 34.9303 5.22049 32.0584C3.42725 30.5617 1.83624 28.8764 0.663216 26.8269C0.595801 26.7056 0.407038 26.4494 0.393555 26.3011C0.555351 26.2337 3.46769 28.0943 4.88342 28.6337C5.73285 28.9438 7.67441 29.537 7.75531 29.6179Z" fill="#999999"/>
<path d="M25.9817 40.0003C22.503 40.0003 19.2941 39.1509 16.7593 38.3554C12.4716 37.0071 8.58852 34.8903 5.21775 32.0588C3.15484 30.333 1.71215 28.6611 0.660475 26.8274C0.646992 26.8004 0.633509 26.7735 0.606543 26.733C0.525644 26.5982 0.404297 26.4094 0.404297 26.3015V26.2881C0.471712 26.2611 0.94362 26.5173 1.84699 27.0296C2.85822 27.5959 4.09866 28.3105 4.89416 28.6206C5.28517 28.7689 7.69864 29.5644 7.76605 29.6184C8.8447 29.9824 9.92334 30.1981 11.1368 30.4274C12.7009 30.724 17.5008 31.0476 19.0783 31.142C19.2267 31.1554 19.348 31.1554 19.4424 31.1689C19.6177 31.1824 19.7795 31.1959 19.9547 31.1959C22.4356 31.3577 25.0109 31.533 27.4918 32.0453C28.6244 32.288 29.9457 32.6116 31.1592 33.2993C32.1839 33.8655 32.7367 34.5667 32.8985 35.47C33.0738 36.4138 32.7906 37.2633 32.0491 38.1397C31.6985 38.5577 31.267 38.8947 30.8491 39.2318C30.7951 39.2723 30.7547 39.3127 30.7007 39.3532C29.9592 39.6633 29.1367 39.7576 28.4086 39.852C27.5727 39.9599 26.7772 40.0003 25.9817 40.0003ZM0.417781 26.3015C0.431264 26.4094 0.552611 26.5982 0.620027 26.7195C0.646993 26.76 0.660475 26.7869 0.673958 26.8139C1.72564 28.6611 3.16833 30.3195 5.23123 32.0453C8.602 34.8768 12.4716 36.9936 16.7593 38.3419C19.8604 39.3127 23.9997 40.3779 28.3817 39.8385C29.0963 39.7576 29.9187 39.6498 30.6603 39.3397C30.7142 39.2992 30.7547 39.2588 30.8086 39.2183C31.2266 38.8812 31.658 38.5442 32.0086 38.1262C32.7637 37.2498 33.0333 36.4004 32.858 35.47C32.6962 34.5667 32.1434 33.879 31.1322 33.3127C29.9187 32.6386 28.5974 32.3015 27.4783 32.0588C24.9974 31.5465 22.4221 31.3712 19.9413 31.2094C19.766 31.1959 19.6042 31.1824 19.4289 31.1824C19.3345 31.1824 19.2132 31.1689 19.0649 31.1554C17.4873 31.0476 12.6739 30.7375 11.1099 30.4408C9.90986 30.2116 8.81773 29.9824 7.73908 29.6319C7.73908 29.6319 5.27168 28.7824 4.86719 28.6341C4.07169 28.324 2.81777 27.6229 1.80654 27.0431C1.13238 26.6521 0.525645 26.3015 0.417781 26.3015Z" fill="#999999"/>
<path d="M44.8498 15.7307C42.6386 14.8812 40.4813 14.2206 38.1757 13.6812C36.4633 13.2768 34.7375 12.9262 33.0252 12.4813C30.6252 11.861 28.2252 11.1869 26.0274 10.0004C24.2881 9.05655 23.3443 7.57341 23.2634 5.56444C23.2095 4.25658 23.6275 3.11052 24.4904 2.16671C25.3263 1.24986 28.0364 0.427389 28.2252 0.333008C30.1128 0.589186 31.9195 1.11503 33.6589 1.89704C37.2319 3.5285 40.0903 6.00938 42.2206 9.29925C43.4206 11.1599 44.27 13.1689 44.7959 15.2992C44.8228 15.461 44.7285 15.6093 44.8498 15.7307Z" fill="#999999"/>
<path d="M0.570949 26.665C-0.372866 25.1684 -0.130171 23.5639 1.17769 22.5662C2.49903 21.555 4.07655 21.0831 5.43834 20.7729L5.51923 21.0831C4.18441 21.3932 2.66082 21.8516 1.37993 22.8224C0.220389 23.7123 0.0181428 25.1549 0.854093 26.4898L0.570949 26.665Z" fill="#999999"/>
<path d="M44.2004 26.76L44.0791 26.4634L44.3488 26.3556C46.0881 25.6679 48.7173 24.6162 50.5914 22.5264L50.8341 22.7421C48.9195 24.8859 46.2364 25.9511 44.4701 26.6522L44.2004 26.76Z" fill="#999999"/>
</svg>
