<svg width="180" height="24" viewBox="0 0 180 24" fill="none" xmlns="http://www.w3.org/2000/svg">
<g clip-path="url(#clip0_901_1796)">
<path d="M33.2958 20.0583C30.5894 20.0583 29.2488 18.5132 29.2488 15.9352V9.12916H26.7996V6.47261H29.2488V3.07141L32.4718 2.27161V6.47261H35.8495V9.12916H32.4717V15.65C32.4717 16.6824 32.9357 17.121 33.9659 17.121C34.6364 17.121 35.1787 17.0949 36.0556 16.9911V19.699C35.1528 19.93 34.2507 20.0583 33.2958 20.0583Z" fill="#999999"/>
<path d="M45.6952 19.8791V11.6036C45.6952 10.0575 45.1806 9.10352 43.4796 9.10352C41.5434 9.10352 40.7204 11.1655 40.7204 12.8153V19.8791H37.498V1.26758H40.7204V7.89113C41.4947 6.75678 42.9887 6.13804 44.3798 6.13804C47.2423 6.13804 48.9189 8.1747 48.9189 10.9346V19.8791H45.6952Z" fill="#999999"/>
<path d="M62.7599 14.1817H53.7897C53.7647 15.2122 54.1243 16.1922 54.7675 16.8104C55.2306 17.2489 55.8766 17.6368 56.7535 17.6368C57.6812 17.6368 58.248 17.4557 58.7143 16.9906C58.9953 16.7074 59.2285 16.3472 59.3572 15.8566H62.4498C62.3725 16.657 61.832 17.7146 61.3155 18.3325C60.1839 19.6721 58.5061 20.2133 56.8064 20.2133C54.9757 20.2133 53.633 19.5697 52.5773 18.5631C51.2373 17.2749 50.515 15.3929 50.515 13.2031C50.515 11.0613 51.1592 9.15557 52.4488 7.83882C53.454 6.80927 54.8967 6.13831 56.727 6.13831C58.7143 6.13831 60.5172 6.93775 61.6241 8.61264C62.605 10.0823 62.8367 11.6034 62.7858 13.2793C62.7859 13.2793 62.7599 13.8994 62.7599 14.1817ZM58.739 9.49083C58.3001 9.02584 57.6295 8.71621 56.7007 8.71621C55.7213 8.71621 54.9242 9.1287 54.4576 9.74832C53.9966 10.3405 53.7896 10.9598 53.7645 11.8352H59.5636C59.5392 10.8308 59.254 10.057 58.739 9.49083Z" fill="#999999"/>
<path d="M69.5399 4.69439V19.8789H66.2149V4.69439H60.8017V1.60132H74.9528V4.69439H69.5399Z" fill="#999999"/>
<path d="M80.4655 9.33489C78.1991 9.33489 77.012 10.9596 77.012 13.1253V19.8793H73.7659V6.47298H76.4973L76.7804 8.48481C77.3986 6.93832 78.9962 6.29431 80.57 6.29431C80.9047 6.29431 81.2408 6.32003 81.5754 6.37101V9.46426C81.2145 9.38668 80.8279 9.33489 80.4655 9.33489Z" fill="#999999"/>
<path d="M92.4784 20.0849C91.087 20.0849 90.3141 19.2082 90.2102 18.2041C89.5914 19.2858 88.0447 20.2137 86.1372 20.2137C82.942 20.2137 81.2908 18.2041 81.2908 16.012C81.2908 13.46 83.2762 11.9916 85.8275 11.8114L89.7736 11.5255V10.7019C89.7736 9.4379 89.333 8.58898 87.5033 8.58898C86.008 8.58898 85.132 9.25799 85.0545 10.4955H81.9358C82.1149 7.47714 84.5125 6.13867 87.5033 6.13867C89.7988 6.13867 91.7578 6.86098 92.5302 8.87121C92.8649 9.72253 92.9178 10.6763 92.9178 11.5781V16.5534C92.9178 17.1719 93.1235 17.4047 93.6658 17.4047C93.8706 17.4047 94.0778 17.3524 94.0778 17.3524V19.7234C93.5357 19.957 93.2528 20.0849 92.4784 20.0849ZM89.7737 13.9234L86.369 14.1819C85.3895 14.2592 84.4364 14.853 84.4364 15.9352C84.4364 16.9659 85.3381 17.6101 86.3431 17.6101C88.3548 17.6101 89.7737 16.5279 89.7737 14.5426V13.9234Z" fill="#999999"/>
<path d="M104.285 19.8792L104.079 18.4102C103.279 19.6474 101.784 20.1884 100.315 20.1884C98.9739 20.1884 97.8662 19.7222 97.0415 19.0553C95.4419 17.7397 94.6692 15.7287 94.6692 13.2033C94.6692 10.5723 95.4679 8.537 97.0661 7.22069C97.8911 6.55168 98.9738 6.13847 100.341 6.13847C102.043 6.13847 103.279 6.70587 103.847 7.40087V1.26721H107.068V19.8792H104.285ZM100.96 8.84654C99.9555 8.84654 99.2572 9.30869 98.7947 9.90234C98.1239 10.7793 97.9445 11.9916 97.9445 13.1527C97.9445 14.3105 98.1239 15.5474 98.7947 16.4242C99.2572 17.0161 99.9555 17.481 100.96 17.481C103.486 17.481 104.002 15.0829 104.002 13.1527C104.002 11.2162 103.486 8.84654 100.96 8.84654Z" fill="#999999"/>
<path d="M121.118 14.1819H112.147C112.121 15.2123 112.482 16.1924 113.127 16.8105C113.589 17.249 114.235 17.6369 115.111 17.6369C116.039 17.6369 116.606 17.4558 117.071 16.9907C117.353 16.7075 117.586 16.3474 117.713 15.8567H120.809C120.73 16.6572 120.188 17.7147 119.675 18.3326C118.54 19.6722 116.865 20.2135 115.162 20.2135C113.333 20.2135 111.992 19.5698 110.935 18.5632C109.594 17.275 108.873 15.393 108.873 13.2032C108.873 11.0615 109.516 9.15569 110.807 7.83894C111.812 6.80939 113.255 6.13843 115.085 6.13843C117.071 6.13843 118.875 6.93788 119.983 8.61276C120.963 10.0824 121.194 11.6035 121.143 13.2794C121.143 13.2794 121.118 13.8995 121.118 14.1819ZM117.097 9.49095C116.658 9.02596 115.988 8.71633 115.058 8.71633C114.08 8.71633 113.281 9.12882 112.818 9.74845C112.353 10.3406 112.147 10.9599 112.121 11.8353H117.921C117.895 10.8309 117.611 10.0571 117.097 9.49095Z" fill="#999999"/>
<path d="M135.244 17.9195C134.032 19.1836 132.202 19.8783 130.113 19.8783H122.999V1.60205H130.113C132.202 1.60205 134.032 2.29669 135.244 3.56077C137.124 5.49431 137.383 8.20184 137.383 10.7284C137.383 13.2546 137.124 15.9852 135.244 17.9195ZM132.691 5.6227C132.073 5.00441 131.17 4.5912 130.113 4.5912H126.324V16.888H130.113C131.17 16.888 132.074 16.4763 132.691 15.8566C133.98 14.5676 134.006 12.4032 134.006 10.7283C134.006 9.05077 133.98 6.9109 132.691 5.6227Z" fill="#999999"/>
<path d="M150.529 14.1819H141.557C141.531 15.2123 141.892 16.1924 142.538 16.8105C143.002 17.249 143.645 17.6369 144.523 17.6369C145.451 17.6369 146.017 17.4558 146.482 16.9907C146.766 16.7075 146.996 16.3474 147.127 15.8567H150.219C150.142 16.6572 149.6 17.7147 149.084 18.3326C147.951 19.6722 146.275 20.2135 144.573 20.2135C142.742 20.2135 141.403 19.5698 140.344 18.5632C139.005 17.275 138.283 15.393 138.283 13.2032C138.283 11.0615 138.928 9.15569 140.216 7.83894C141.221 6.80939 142.666 6.13843 144.496 6.13843C146.482 6.13843 148.285 6.93788 149.395 8.61276C150.373 10.0824 150.606 11.6035 150.554 13.2794C150.554 13.2794 150.529 13.8995 150.529 14.1819ZM146.508 9.49095C146.069 9.02596 145.398 8.71633 144.472 8.71633C143.492 8.71633 142.691 9.12882 142.228 9.74845C141.764 10.3406 141.557 10.9599 141.532 11.8353H147.332C147.307 10.8309 147.022 10.0571 146.508 9.49095Z" fill="#999999"/>
<path d="M164.423 1.2677V19.8793H167.644V16.3481L169.784 14.0286L173.547 19.8793H177.285L171.975 11.6565L176.77 6.47271H172.723L167.644 11.9138V1.2677H164.423Z" fill="#999999"/>
<path d="M159.035 11.9387C157.719 11.733 157.384 11.7076 156.173 11.5511C155.45 11.4487 154.626 11.1656 154.626 10.2132C154.626 9.515 155.091 9.02616 155.658 8.79252C156.148 8.58893 156.586 8.58893 157.048 8.58893C157.719 8.58893 158.417 8.81983 158.802 9.20723C159.112 9.54249 159.344 9.95525 159.344 10.4701H162.41C162.41 9.49115 161.949 8.48492 161.225 7.70986C160.247 6.65424 158.622 6.13818 157.024 6.13818C155.349 6.13818 153.931 6.62933 152.951 7.47701C152.152 8.17564 151.586 9.12902 151.586 10.4962C151.586 12.1967 152.822 13.6922 154.654 14.0796C155.838 14.3371 157.178 14.4141 158.364 14.5945C159.191 14.7241 159.706 15.2405 159.706 16.0115C159.706 17.4805 158.055 17.7149 156.972 17.7149C156.045 17.7149 155.451 17.5314 154.937 17.1211C154.591 16.8413 154.332 16.3445 154.249 15.8438H151.216C151.309 16.982 151.903 17.9783 152.616 18.6672C153.725 19.7222 155.245 20.2137 156.948 20.2137C158.778 20.2137 160.453 19.7516 161.535 18.6672C162.231 17.9718 162.696 17.0161 162.696 15.7288C162.696 13.6147 161.15 12.2742 159.035 11.9387Z" fill="#999999"/>
<path d="M5.2821 0.412354V3.87598H8.82447V12.9155H12.2339V3.8218V0.412354H5.2821Z" fill="#999999"/>
<path d="M3.41087 12.1114C3.41087 9.41504 4.90921 7.06875 7.11869 5.86071V5.86035H2.05954C0.765665 7.60848 0 9.76963 0 12.1114C0 16.7578 3.00999 20.7002 7.18555 22.0979V18.3974C4.93971 17.1995 3.41087 14.8347 3.41087 12.1114Z" fill="#999999"/>
<path d="M13.9408 2.14917V5.86001C16.1508 7.06867 17.6509 9.41461 17.6509 12.1119C17.6509 16.0428 14.462 19.2309 10.5299 19.2309C9.94343 19.2309 9.37363 19.1595 8.82849 19.0261V22.5041C9.38277 22.5934 9.95043 22.6415 10.5299 22.6415C16.3451 22.6415 21.06 17.9271 21.06 12.112C21.0599 7.48976 18.082 3.56638 13.9408 2.14917Z" fill="#999999"/>
<path d="M178.759 7.281C178.048 7.281 177.518 6.72424 177.518 6.01967C177.518 5.3151 178.048 4.75488 178.759 4.75488C179.471 4.75488 180 5.31173 180 6.01621C180 6.72087 179.471 7.281 178.759 7.281ZM178.759 4.97487C178.151 4.97487 177.749 5.41813 177.749 6.01967C177.749 6.62112 178.151 7.06101 178.759 7.06101C179.368 7.06101 179.77 6.61775 179.77 6.01621C179.77 5.41485 179.368 4.97487 178.759 4.97487ZM179.038 6.65552L178.818 6.17094H178.56V6.65552H178.33V5.33931H178.814C179.065 5.33931 179.282 5.48357 179.282 5.75171C179.282 5.92355 179.206 6.06108 179.045 6.13317L179.289 6.65561H179.038V6.65552ZM178.814 5.5522H178.557V5.95787H178.814C178.952 5.95787 179.041 5.89598 179.041 5.75162C179.041 5.61755 178.938 5.5522 178.814 5.5522Z" fill="#999999"/>
</g>
<defs>
<clipPath id="clip0_901_1796">
<rect width="180" height="23.0542" fill="white"/>
</clipPath>
</defs>
</svg>
