<svg width="147" height="40" viewBox="0 0 147 40" fill="none" xmlns="http://www.w3.org/2000/svg">
<g id="logo_tripledot_white">
<g id="Group 1220">
<path id="Vector" d="M69.7256 16.0772C73.3519 13.9995 76.7459 15.4061 78.4235 17.3806C80.4495 19.7809 80.6044 23.1877 78.7977 25.6654C76.7459 28.4787 73.7132 29.0981 69.6869 27.4592C69.6869 28.4916 69.6869 29.4853 69.6869 30.4789C69.6869 30.8919 69.6998 31.2919 69.674 31.7049C69.6095 32.505 69.0675 33.0341 68.3061 33.0728C67.5318 33.1115 66.8608 32.6211 66.7059 31.8727C66.6543 31.6275 66.6543 31.3565 66.6543 31.1113C66.6543 26.3494 66.6543 21.5875 66.6543 16.8257C66.6543 16.2449 66.7188 15.7158 67.1834 15.3029C68.0222 14.5286 69.0546 14.8254 69.7256 16.0772ZM77.0039 21.7553C76.991 19.7421 75.3392 18.1161 73.3261 18.1419C71.3129 18.1678 69.674 19.8196 69.6998 21.8198C69.7127 23.8072 71.3904 25.4461 73.3906 25.4332C75.3908 25.4073 77.0169 23.7555 77.0039 21.7553Z" fill="#999999"/>
<path id="Vector_2" d="M114.557 16.5043C114.557 15.6526 114.557 14.8008 114.557 13.9491C114.557 13.2652 114.544 12.5812 114.557 11.8844C114.57 10.8262 115.163 10.1938 116.092 10.2067C116.983 10.2196 117.576 10.8649 117.576 11.8715C117.589 15.2654 117.576 18.6465 117.576 22.0404C117.576 23.5245 117.564 24.9956 117.564 26.4797C117.564 27.4088 117.267 27.925 116.583 28.1831C115.886 28.4412 115.318 28.2347 114.686 27.4863C114.66 27.4605 114.621 27.4346 114.544 27.383C113.163 28.2347 111.666 28.5961 110.014 28.4154C106.814 28.067 104.194 25.1505 104.155 21.834C104.13 18.5174 106.711 15.5106 109.937 15.1235C110.156 15.0977 110.363 15.0718 110.582 15.0589C112.053 15.0073 113.421 15.2525 114.376 16.5559C114.428 16.543 114.492 16.5172 114.557 16.5043ZM114.505 21.8082C114.505 19.7563 112.944 18.1561 110.918 18.1432C108.93 18.1303 107.253 19.7821 107.253 21.7694C107.24 23.7568 108.892 25.4215 110.879 25.4344C112.892 25.4344 114.505 23.8342 114.505 21.8082Z" fill="#999999"/>
<path id="Vector_3" d="M92.9787 23.1754C93.4304 25.0595 95.8565 26.1048 97.7277 25.2531C97.9471 25.1499 98.1407 25.0208 98.36 24.9434C99.0311 24.6853 99.715 24.9176 100.102 25.5112C100.502 26.1306 100.489 26.8404 99.9731 27.3308C99.6763 27.6147 99.3021 27.8857 98.902 28.0276C94.6047 29.5375 90.5139 27.0856 89.6364 23.2658C88.7847 19.6008 91.1334 15.9487 94.8887 15.1744C98.4891 14.426 102.128 16.8392 102.825 20.4396C103.238 22.5818 102.799 23.1367 100.631 23.1367C98.2439 23.1367 95.8565 23.1367 93.4691 23.1367C93.3143 23.1496 93.1465 23.1625 92.9787 23.1754ZM99.7409 20.5558C99.5086 19.0201 97.8438 17.8974 96.0114 17.9748C94.5531 18.0393 92.94 19.3556 92.9271 20.5558C95.1984 20.5558 97.4696 20.5558 99.7409 20.5558Z" fill="#999999"/>
<path id="Vector_4" d="M11.1621 35.99C10.3491 35.9513 9.549 35.5771 9.0199 34.7641C7.52294 32.5057 5.44527 31.3314 2.73526 31.1894C0.618877 31.0733 -0.516745 29.0343 0.4124 27.1373C1.57383 24.7757 1.54802 22.4271 0.360781 20.0784C-0.297363 18.7879 -0.0392673 17.4458 1.00602 16.5812C2.0126 15.7553 3.44503 15.7553 4.46451 16.5554C5.5098 17.3942 5.7937 18.7492 5.16137 20.0397C4.37417 21.6141 4.15479 23.253 4.47741 24.9822C5.09684 28.4278 8.43919 30.3635 11.1879 30.4668C12.943 30.5313 14.1044 31.6927 14.0657 33.28C14.0141 34.777 12.7881 35.99 11.1621 35.99Z" fill="#999999"/>
<path id="Vector_5" d="M26.4015 23.5502C26.3885 22.221 26.0272 20.9821 25.4336 19.782C24.7754 18.5044 25.2013 17.0203 26.3627 16.259C27.5371 15.4847 29.0727 15.6912 29.9761 16.7752C30.7117 17.6656 30.8794 18.6851 30.3632 19.7304C29.1373 22.1952 29.1631 24.6213 30.4278 27.0732C31.344 28.854 30.1697 30.8801 28.1565 31.0221C25.4594 31.2156 23.3688 32.4029 21.9106 34.6999C21.175 35.8484 19.8845 36.2743 18.6457 35.8226C17.4197 35.371 16.71 34.2095 16.8648 32.8674C17.0068 31.6028 18.0262 30.6736 19.3683 30.4801C20.2588 30.351 21.175 30.2349 22.0009 29.9122C24.7755 28.854 26.3756 26.4796 26.4015 23.5502Z" fill="#999999"/>
<path id="Vector_6" d="M26.4684 11.5737C26.4555 12.7739 25.6812 13.8192 24.5326 14.1805C23.3583 14.5418 22.1452 14.1289 21.4355 13.0449C20.5838 11.7544 19.474 10.7865 18.0673 10.1413C14.4798 8.47658 10.8923 10.4897 9.30497 12.9933C8.54359 14.1934 7.47249 14.6709 6.25944 14.387C4.91734 14.0773 4.01401 12.8513 4.13015 11.4834C4.24629 10.1413 5.30449 9.0444 6.64659 8.97987C9.40821 8.82501 11.4859 7.57325 12.9828 5.25039C14.041 3.61148 16.4155 3.57276 17.4995 5.19877C19.0481 7.52163 21.1774 8.70887 23.9519 8.83792C25.3844 8.87663 26.4684 10.1155 26.4684 11.5737Z" fill="#999999"/>
<path id="Vector_7" d="M132.815 21.821C132.802 25.4988 129.783 28.4927 126.105 28.4798C122.427 28.4669 119.407 25.4472 119.407 21.7822C119.407 18.0915 122.453 15.033 126.144 15.0459C129.86 15.0717 132.828 18.0786 132.815 21.821ZM126.118 25.4214C128.131 25.4343 129.77 23.7954 129.783 21.7952C129.796 19.8078 128.157 18.156 126.144 18.1302C124.156 18.1173 122.479 19.7691 122.466 21.7564C122.466 23.7438 124.13 25.4214 126.118 25.4214Z" fill="#999999"/>
<path id="Vector_8" d="M137.592 14.8265C138.882 14.8265 140.069 14.8265 141.269 14.8265C141.657 14.8265 142.044 14.8136 142.431 14.8394C143.308 14.8781 143.967 15.5363 143.954 16.3493C143.954 17.1494 143.283 17.8204 142.392 17.8333C140.998 17.8591 139.592 17.8462 138.198 17.8462C138.03 17.8462 137.863 17.8462 137.579 17.8462C137.579 18.3495 137.579 18.8012 137.579 19.2658C137.592 20.2982 137.527 21.3305 137.643 22.35C137.966 25.0729 141.128 26.3892 143.347 24.7503C143.412 24.6987 143.476 24.6471 143.554 24.5825C144.328 23.976 145.089 23.9631 145.631 24.5438C146.225 25.1762 146.186 26.144 145.502 26.8022C144.173 28.0926 142.534 28.6217 140.727 28.4669C136.998 28.1443 134.482 25.3955 134.469 21.6532C134.456 18.6721 134.469 15.6782 134.469 12.6972C134.469 11.9746 134.791 11.4584 135.436 11.1745C136.017 10.9164 136.753 11.0454 137.14 11.5616C137.385 11.8842 137.527 12.323 137.579 12.723C137.643 13.3683 137.592 14.0393 137.592 14.8265Z" fill="#999999"/>
<path id="Vector_9" d="M40.6244 14.8265C42.1214 14.8265 43.528 14.8265 44.9475 14.8265C46.2638 14.8265 46.9865 15.3685 46.9736 16.3493C46.9607 17.3042 46.2509 17.8333 44.9733 17.8333C43.5538 17.8333 41.9923 17.8333 40.5986 17.8333C40.5986 19.511 40.5083 21.1886 40.8051 22.7759C41.2438 25.2407 44.3023 26.2473 46.3412 24.7761C46.4445 24.6987 46.5477 24.6084 46.638 24.5309C47.3736 23.9631 48.1221 23.9631 48.6512 24.5438C49.2061 25.1375 49.219 26.0924 48.6125 26.7118C47.2962 28.0668 45.6444 28.6088 43.8119 28.4669C40.0824 28.1959 37.5143 25.4343 37.4885 21.7048C37.4627 18.7625 37.4756 15.8202 37.4885 12.8779C37.4885 11.781 38.1209 11.0454 39.0371 11.0454C40.005 11.0454 40.6244 11.7681 40.6373 12.9037C40.6244 13.5102 40.6244 14.1168 40.6244 14.8265Z" fill="#999999"/>
<path id="Vector_10" d="M82.4238 17.9623C82.4238 16.0524 82.4238 14.1425 82.4238 12.2326C82.4238 10.9808 82.94 10.2969 83.882 10.2969C84.9015 10.2969 85.4564 10.9937 85.4564 12.2713C85.4564 15.9879 85.4564 19.6916 85.4564 23.4082C85.4564 24.8406 85.7403 25.1632 87.1856 25.3181C88.0374 25.4084 88.5794 26.0407 88.5535 26.8924C88.5277 27.7184 87.9728 28.2604 87.1082 28.312C84.6176 28.441 82.4883 26.5182 82.4367 24.0018C82.398 22.0015 82.4367 19.9884 82.4238 17.9623Z" fill="#999999"/>
<path id="Vector_11" d="M53.7496 16.2074C54.8465 15.5235 55.995 15.1363 57.2468 15.0589C58.4211 14.9815 59.1309 15.459 59.2083 16.4139C59.2857 17.3947 58.6147 18.027 57.4532 18.0915C55.311 18.2077 53.685 19.9111 53.685 22.0404C53.685 23.5632 53.685 25.0859 53.685 26.6087C53.685 27.6153 53.0527 28.3121 52.1623 28.325C51.2331 28.3379 50.5879 27.6411 50.5879 26.6087C50.6008 23.3696 50.6137 20.1305 50.6266 16.8914C50.6266 15.7429 51.0396 15.1105 51.8913 14.9299C52.6656 14.7492 53.2592 15.1363 53.7496 16.2074Z" fill="#999999"/>
<path id="Vector_12" d="M19.7576 27.3187C17.7573 27.3058 16.1055 25.6282 16.1442 23.6279C16.17 21.6406 17.8218 20.0404 19.7963 20.0533C21.7965 20.0662 23.4483 21.7438 23.4096 23.7441C23.3709 25.7314 21.7449 27.3316 19.7576 27.3187Z" fill="#999999"/>
<path id="Vector_13" d="M14.5554 23.6927C14.5554 25.7058 12.8778 27.3576 10.8776 27.3189C8.87733 27.2931 7.29004 25.6671 7.29004 23.6798C7.30294 21.6537 8.94185 20.0277 10.955 20.0535C12.9552 20.0793 14.5683 21.7053 14.5554 23.6927Z" fill="#999999"/>
<path id="Vector_14" d="M15.3045 19.8082C13.3042 19.8082 11.6911 18.2209 11.6653 16.2206C11.6395 14.2075 13.2784 12.5557 15.2916 12.5557C17.3047 12.5557 18.9436 14.2075 18.9307 16.2077C18.9178 18.208 17.3047 19.8082 15.3045 19.8082Z" fill="#999999"/>
<path id="Vector_15" d="M63.9805 21.7685C63.9805 23.4203 63.9805 25.0721 63.9805 26.7239C63.9805 27.7821 63.3998 28.4274 62.4707 28.4274C61.5157 28.4274 60.9092 27.7563 60.9092 26.6981C60.9092 23.4074 60.9092 20.1296 60.9092 16.8389C60.9092 15.7549 61.5673 15.0322 62.5094 15.0451C63.3998 15.058 63.9805 15.742 63.9805 16.8001C63.9934 18.4649 63.9805 20.1167 63.9805 21.7685Z" fill="#999999"/>
<path id="Vector_16" d="M62.472 10.3604C63.4141 10.3604 64.1496 11.083 64.1496 12.0251C64.1496 12.9413 63.3624 13.7027 62.4591 13.6898C61.5816 13.6769 60.8202 12.9155 60.8073 12.038C60.7815 11.1217 61.5429 10.3604 62.472 10.3604Z" fill="#999999"/>
</g>
</g>
</svg>
