<svg xmlns="http://www.w3.org/2000/svg" viewBox="0 0 89.888 89.882"><g id="Layer_2" data-name="Layer 2"><g id="Isolation_Mode" data-name="Isolation Mode"><line x1="75.724" y1="75.622" x2="55.7" y2="64.496" style="fill:none;stroke:#fff;stroke-linecap:round;stroke-linejoin:round;stroke-width:3px"/><line x1="34.579" y1="64.496" x2="14.187" y2="75.622" style="fill:none;stroke:#fff;stroke-linecap:round;stroke-linejoin:round;stroke-width:3px"/><path d="M55.7,64.5c-1.018-.532-2.02-1.42-2.02-1.98s.939-1.137,2.088-1.3l12.348-4.695C60.745,51.469,59.693,31,59.693,31a15.032,15.032,0,0,0-29.5,0s-1.052,20.465-8.422,25.521l12.4,4.7c1.142.159,2.081.82,2.081,1.1,0,.554-.09,1.312-1.674,2.178" style="fill:none;stroke:#fff;stroke-linecap:round;stroke-linejoin:round;stroke-width:3px"/><path d="M88.388,44.941A43.444,43.444,0,1,0,44.941,88.382,43.442,43.442,0,0,0,88.388,44.941Z" style="fill:none;stroke:#fff;stroke-linecap:round;stroke-linejoin:round;stroke-width:3px"/></g></g></svg>