<?xml version="1.0" encoding="utf-8"?>
<!-- Generator: Adobe Illustrator 25.0.1, SVG Export Plug-In . SVG Version: 6.00 Build 0)  -->
<svg version="1.1" id="Layer_1" xmlns="http://www.w3.org/2000/svg" xmlns:xlink="http://www.w3.org/1999/xlink" x="0px" y="0px"
	 viewBox="0 0 340.3 258.3" style="enable-background:new 0 0 340.3 258.3;" xml:space="preserve">
<style type="text/css">
	.st0{fill:none;stroke:#FFFFFF;stroke-width:2;stroke-linecap:round;stroke-linejoin:round;}
	.st1{fill:none;stroke:#FFFFFF;stroke-width:3;stroke-linecap:round;stroke-linejoin:round;}
</style>
<g id="Layer_2_1_">
	<g id="Layer_1-2">
		<g>
			<circle class="st0" cx="170.2" cy="22.6" r="21.6"/>
			<polyline class="st0" points="185.5,37.9 185.5,37.9 174.5,32.7 			"/>
			<line class="st0" x1="165.8" y1="32.7" x2="154.8" y2="37.9"/>
			<path class="st0" d="M174.5,32.7c4.3-3.3,4.3-9.3,4.3-9.3v-7.6c-0.6-3.5-4.9-6.2-8.6-6.2l0,0c-3.8,0-8,2.7-8.6,6.2v7.6
				c0,0,0,5.9,4.3,9.3"/>
		</g>
		<g>
			<circle class="st1" cx="45.4" cy="212.9" r="43.4"/>
			<polyline class="st1" points="76.2,243.5 76.2,243.5 54.1,233.2 			"/>
			<line class="st1" x1="36.8" y1="233.2" x2="14.6" y2="243.5"/>
			<path class="st1" d="M54.1,233.2c8.7-6.7,8.7-18.6,8.7-18.6v-15.3c-1.2-7-9.7-12.4-17.4-12.4l0,0c-7.6,0-16.1,5.4-17.4,12.4v15.3
				c0,0,0,11.9,8.7,18.6"/>
		</g>
		<g>
			<line class="st1" x1="325.7" y1="243.6" x2="305.6" y2="232.4"/>
			<line class="st1" x1="284.5" y1="232.4" x2="264.1" y2="243.6"/>
			<path class="st1" d="M305.6,232.4c-1-0.5-2-1.4-2-2s0.9-1.1,2.1-1.3l12.3-4.7c-7.4-5.1-8.4-25.5-8.4-25.5
				c-1.6-8.1-9.5-13.5-17.6-11.9c-6,1.2-10.7,5.9-11.9,11.9c0,0-1.1,20.5-8.4,25.5l12.4,4.7c1.1,0.2,2.1,0.8,2.1,1.1
				c0,0.6-0.1,1.3-1.7,2.2"/>
			<path class="st1" d="M338.3,212.9c0-24-19.4-43.4-43.4-43.4s-43.4,19.4-43.4,43.4s19.4,43.4,43.4,43.4S338.3,236.9,338.3,212.9
				L338.3,212.9z"/>
		</g>
		<g>
			<circle class="st0" cx="170.2" cy="180.7" r="21.6"/>
			<polyline class="st0" points="185.5,195.9 185.5,195.9 174.5,190.7 			"/>
			<line class="st0" x1="165.8" y1="190.7" x2="154.8" y2="195.9"/>
			<path class="st0" d="M174.5,190.7c4.3-3.3,4.3-9.3,4.3-9.3v-7.6c-0.6-3.5-4.9-6.2-8.6-6.2l0,0c-3.8,0-8,2.7-8.6,6.2v7.6
				c0,0,0,5.9,4.3,9.3"/>
		</g>
		<g>
			<circle class="st0" cx="224.3" cy="100.7" r="21.6"/>
			<polyline class="st0" points="239.7,115.9 239.7,115.9 228.7,110.8 			"/>
			<line class="st0" x1="220" y1="110.8" x2="209" y2="115.9"/>
			<path class="st0" d="M228.7,110.8c4.3-3.3,4.3-9.3,4.3-9.3v-7.6c-0.6-3.5-4.9-6.2-8.6-6.2l0,0c-3.8,0-8,2.7-8.6,6.2v7.6
				c0,0,0,5.9,4.3,9.3"/>
		</g>
		<g>
			<line class="st0" x1="131.3" y1="115.9" x2="121.4" y2="110.4"/>
			<line class="st0" x1="110.8" y1="110.4" x2="100.7" y2="115.9"/>
			<path class="st0" d="M121.4,110.4c-0.5-0.3-1-0.7-1-1s0.5-0.6,1-0.6l6.1-2.3c-3.7-2.5-4.2-12.7-4.2-12.7
				c-0.8-4.1-4.7-6.7-8.8-5.9c-3,0.6-5.3,2.9-5.9,5.9c0,0-0.5,10.2-4.2,12.7l6.2,2.3c0.6,0.1,1,0.4,1,0.5c0,0.3,0,0.7-0.8,1.1"/>
			<path class="st0" d="M137.6,100.7c0-11.9-9.7-21.6-21.6-21.6s-21.6,9.7-21.6,21.6s9.7,21.6,21.6,21.6l0,0
				C127.9,122.3,137.6,112.6,137.6,100.7z"/>
		</g>
	</g>
</g>
</svg>
