<svg width="108" height="20" viewBox="0 0 108 20" fill="none" xmlns="http://www.w3.org/2000/svg">
<g id="Frame 3">
<path id="Vector" d="M18.1665 12.6087C18.1665 8.56238 21.9826 5.21741 26.6466 5.21741C31.3107 5.21741 35.1873 8.56238 35.1873 12.6087C35.1873 16.709 31.3107 20 26.6466 20C21.9826 20 18.1665 16.709 18.1665 12.6087ZM22.346 12.6087C22.346 14.9286 24.1632 16.655 26.6466 16.655C29.1301 16.655 30.9473 14.9286 30.9473 12.6087C30.9473 11.5836 30.5233 10.5586 29.6753 9.8572C28.8878 9.10189 27.7975 8.72423 26.6466 8.72423C25.4958 8.72423 24.4055 9.15584 23.618 9.8572C22.77 10.5586 22.346 11.5297 22.346 12.6087Z" fill="#999999"/>
<path id="Vector_2" d="M36.979 12.6087C36.979 8.56238 40.5942 5.21741 45.0128 5.21741C49.4314 5.21741 53.104 8.56238 53.104 12.6087C53.104 16.709 49.4314 20 45.0128 20C40.5942 20 36.979 16.709 36.979 12.6087ZM40.9385 12.6087C40.9385 14.9286 42.7174 16.655 45.0128 16.655C47.3082 16.655 49.0871 14.9286 49.0871 12.6087C49.0871 11.5836 48.6854 10.5586 47.882 9.8572C47.136 9.10189 46.1031 8.72423 45.0128 8.72423C43.9225 8.72423 42.8896 9.15584 42.1436 9.8572C41.3976 10.5586 40.9385 11.5297 40.9385 12.6087Z" fill="#999999"/>
<path id="Vector_3" d="M72.8125 12.6087C72.8125 8.56238 76.6286 5.21741 81.2926 5.21741C85.9567 5.21741 89.8333 8.56238 89.8333 12.6087C89.8333 16.709 85.9567 20 81.2926 20C76.6286 20 72.8125 16.709 72.8125 12.6087ZM76.992 12.6087C76.992 14.9286 78.8092 16.655 81.2926 16.655C83.7155 16.655 85.5933 14.9286 85.5933 12.6087C85.5933 11.5836 85.1693 10.5586 84.3212 9.8572C83.5338 9.10189 82.4435 8.72423 81.2926 8.72423C80.1418 8.72423 79.0515 9.15584 78.264 9.8572C77.4766 10.5586 76.992 11.5297 76.992 12.6087Z" fill="#999999"/>
<path id="Vector_4" d="M90.729 12.6087C90.729 8.56238 94.5587 5.21741 99.2394 5.21741C103.92 5.21741 107.75 8.56238 107.75 12.6087C107.75 16.709 103.859 20 99.1786 20C94.4979 20 90.729 16.709 90.729 12.6087ZM94.9234 12.6087C94.9234 14.9286 96.7471 16.655 99.2394 16.655C101.671 16.655 103.555 14.9286 103.555 12.6087C103.555 11.5836 103.13 10.5586 102.279 9.8572C101.489 9.10189 100.394 8.72423 99.2394 8.72423C98.0844 8.72423 96.9902 9.15584 96.2 9.8572C95.3489 10.5586 94.9234 11.5297 94.9234 12.6087Z" fill="#999999"/>
<path id="Vector_5" d="M10.9697 14.011L4.73169 0H0.25L9.15282 20H12.8472L21.75 0H17.2077L10.9697 14.011Z" fill="#999999"/>
<path id="Vector_6" d="M67.0473 0V5.79387C65.7804 5.06964 64.3982 4.73538 62.9585 4.73538C58.5241 4.73538 54.896 8.18941 54.896 12.3677C54.896 16.6017 58.5241 20 62.9585 20C64.3982 20 65.838 19.61 67.0473 18.9415V19.6657H71.021V0H67.0473ZM62.9585 16.546C60.6549 16.546 58.8697 14.7632 58.8697 12.3677C58.8697 11.3092 59.2728 10.2507 60.079 9.52646C60.8277 8.74652 61.8643 8.35655 62.9585 8.35655C64.0527 8.35655 65.0893 8.80223 65.838 9.52646C66.5866 10.3064 67.0473 11.3092 67.0473 12.3677C67.0473 14.7075 65.2621 16.546 62.9585 16.546Z" fill="#999999"/>
</g>
</svg>
