<svg width="132" height="40" viewBox="0 0 132 40" fill="none" xmlns="http://www.w3.org/2000/svg">
<g id="logo_warriorgames">
<g id="Group">
<path id="Vector" d="M0 6.78513C1.07959 6.47672 2.00496 6.63092 3.08456 6.47671C3.54724 6.47671 4.16415 6.47671 4.62683 6.47671C5.08952 6.47671 5.24375 6.63092 5.24375 7.09354C5.24375 10.6403 5.24375 14.187 5.24375 17.5796C5.24375 17.888 5.24375 18.3506 5.24375 18.659C5.24375 19.5843 6.16911 20.3553 6.94025 20.3553C8.01985 20.5095 8.94521 20.3553 10.0248 20.3553C10.3333 20.3553 10.3333 20.2011 10.3333 20.0469C10.3333 18.659 10.3333 17.2712 10.3333 15.8833C10.3333 12.9534 10.3333 10.0235 10.3333 7.09354C10.3333 6.63092 10.4875 6.47671 10.9502 6.47671C12.3382 6.47671 13.7263 6.47671 15.1143 6.47671C15.577 6.47671 15.7312 6.63092 15.7312 7.09354C15.7312 11.4113 15.7312 15.7291 15.7312 20.0469C15.7312 20.3553 15.8855 20.3553 16.0397 20.3553C17.4277 20.3553 18.8158 20.3553 20.2038 20.3553C20.5123 20.3553 20.6665 20.2011 20.6665 19.8927C20.6665 19.7385 20.6665 19.5843 20.6665 19.4301C20.6665 15.2665 20.6665 11.1029 20.6665 6.93934C20.6665 6.47672 20.8208 6.32251 21.2834 6.32251C22.6715 6.32251 23.9053 6.32251 25.2934 6.32251C25.9103 6.32251 25.9103 6.47672 25.9103 6.93934C25.9103 12.4908 25.9103 18.1964 25.9103 23.7479C25.9103 24.3647 25.9103 24.3647 25.2934 24.3647C19.4327 24.3647 13.4178 24.3647 7.55716 24.3647C6.32334 24.3647 5.08952 24.3647 3.8557 24.0563C2.62187 23.5936 1.54228 22.8226 1.07959 21.589C0.771139 20.9721 0.462683 20.2011 0.462683 19.4301C0.462683 19.2759 0.308456 19.2759 0.308456 19.1217C0 15.2665 0 10.9487 0 6.78513Z" fill="#999999"/>
<path id="Vector_2" d="M40.4077 24.673C38.2485 24.673 36.0893 24.673 33.9301 24.673C32.0794 24.673 30.5371 23.7478 29.766 21.8973C29.149 20.5095 28.9948 19.1216 29.4575 17.5795C29.766 16.3459 30.3829 15.2664 31.4625 14.4954C32.2336 14.0328 33.0047 13.7244 33.7759 13.7244C36.0893 13.416 38.4027 13.5702 40.7161 13.5702C41.1788 13.5702 41.6415 13.5702 42.1042 13.5702C42.4126 13.5702 42.5669 13.416 42.4126 13.1075C42.2584 12.6449 42.2584 12.1823 42.1042 11.8739C41.95 11.2571 41.333 11.1029 40.8704 10.9486C40.0992 10.7944 39.3281 10.7944 38.5569 10.7944C36.0893 10.7944 33.6217 10.7944 31.154 10.7944C30.5371 10.7944 30.3829 10.6402 30.3829 10.0234C30.3829 9.09817 30.3829 8.17293 30.3829 7.24769C30.3829 6.78507 30.5371 6.63086 30.9998 6.63086C34.3928 6.63086 37.7858 6.63086 41.1788 6.63086C42.1042 6.63086 42.8753 6.78507 43.8007 7.09348C44.8803 7.5561 45.8057 8.17293 46.4226 9.09817C47.5022 10.6402 47.6564 12.4907 47.6564 14.187C47.6564 17.4253 47.6564 20.6637 47.6564 23.7478C47.6564 24.5188 47.6564 24.5188 46.8852 24.5188C44.7261 24.673 42.5669 24.673 40.4077 24.673ZM42.8753 19.1216C42.8753 18.8132 42.8753 18.3506 42.8753 18.0421C42.8753 17.4253 42.8753 17.2711 42.1042 17.2711C40.0992 17.2711 38.0943 17.2711 36.2435 17.2711C35.7808 17.2711 35.4724 17.4253 35.0097 17.4253C34.3928 17.5795 34.2386 18.1964 34.0843 18.659C33.9301 19.43 34.3928 20.3552 35.0097 20.5094C35.3182 20.5094 35.4724 20.6637 35.7808 20.6637C36.3978 20.6637 37.0147 20.8179 37.6316 20.8179C39.1739 20.8179 40.5619 20.8179 42.1042 20.8179C42.7211 20.8179 42.8753 20.6637 42.8753 20.0468C42.8753 19.8926 42.8753 19.43 42.8753 19.1216Z" fill="#999999"/>
<path id="Vector_3" d="M104.412 6.32251C105.646 6.32251 106.725 6.32251 107.959 6.78513C109.81 7.40196 111.198 8.3272 112.278 10.0235C112.74 10.6403 113.049 11.4113 113.357 12.1824C113.666 12.9534 113.666 13.7244 113.82 14.4955C113.974 15.7291 113.974 17.117 113.666 18.3506C113.203 20.5095 111.969 22.2058 110.119 23.4394C108.576 24.3647 106.88 24.8273 105.183 24.9815C104.412 24.9815 103.487 24.9815 102.716 24.9815C101.944 24.8273 101.173 24.6731 100.556 24.5189C99.631 24.2105 98.8599 23.7479 98.0887 23.2852C97.1634 22.5142 96.3922 21.7432 95.7753 20.6637C94.85 18.659 94.6957 16.6544 94.85 14.4955C95.0042 13.5702 95.1584 12.4908 95.6211 11.7197C96.238 10.4861 97.0091 9.40664 98.0887 8.63561C99.631 7.40196 101.482 6.78513 103.487 6.78513C103.641 6.32251 103.949 6.32251 104.412 6.32251ZM108.576 15.8833C108.576 14.4955 108.422 12.9534 107.805 12.0281C107.342 11.2571 106.725 10.7945 105.8 10.6403C104.875 10.4861 103.949 10.3319 103.178 10.6403C102.407 10.7945 101.79 11.1029 101.328 11.7197C100.711 12.4908 100.556 13.2618 100.402 14.187C100.248 15.7291 100.248 17.117 100.711 18.659C101.173 19.8927 102.099 20.6637 103.178 20.8179C104.258 20.9721 105.337 21.1263 106.417 20.6637C107.188 20.3553 107.805 19.7385 108.114 18.9674C108.422 17.7338 108.422 16.6543 108.576 15.8833Z" fill="#999999"/>
<path id="Vector_4" d="M68.9399 15.5748C68.9399 12.799 68.9399 10.0233 68.9399 7.09339C68.9399 6.63077 69.0941 6.47656 69.5568 6.47656C72.1787 6.47656 74.8005 6.47656 77.4224 6.47656C78.502 6.47656 79.5816 6.63077 80.507 6.93919C81.5866 7.40181 82.3577 8.01863 82.8204 8.94387C83.4373 10.0233 83.4373 11.1028 83.4373 12.3364C83.4373 12.9532 83.4373 13.7243 83.4373 14.3411C83.4373 14.8037 83.2831 14.8037 82.8204 14.9579C81.5866 14.9579 80.1985 14.9579 78.9647 14.9579C78.502 14.9579 78.3478 14.8037 78.3478 14.3411C78.3478 13.7243 78.3478 12.9532 78.1935 12.3364C78.1935 11.5654 77.5766 10.9486 76.8055 10.9486C76.0344 10.7943 75.2632 10.7944 74.4921 10.7944C74.1836 10.7944 74.1836 10.9486 74.1836 11.1028C74.1836 11.257 74.1836 11.4112 74.1836 11.5654C74.1836 15.729 74.1836 19.8925 74.1836 24.2103C74.1836 24.6729 74.0294 24.8271 73.5667 24.8271C72.1787 24.8271 70.7906 24.8271 69.4026 24.8271C68.9399 24.8271 68.7856 24.6729 68.7856 24.2103C68.9399 21.2804 68.9399 18.5047 68.9399 15.5748Z" fill="#999999"/>
<path id="Vector_5" d="M51.975 15.729C51.975 12.9533 51.975 10.0234 51.975 7.24769C51.975 6.78507 52.1293 6.63086 52.5919 6.63086C55.2138 6.63086 57.6815 6.63086 60.3033 6.63086C61.3829 6.63086 62.4625 6.78507 63.5421 7.09348C64.4675 7.5561 65.3929 8.17293 65.8555 9.09817C66.4724 10.3318 66.4724 11.5655 66.4724 12.7991C66.4724 13.2617 66.4724 13.8786 66.4724 14.3412C66.4724 14.8038 66.3182 14.958 66.0098 14.958C64.6217 14.958 63.3879 14.958 61.9998 14.958C61.5372 14.958 61.3829 14.8038 61.3829 14.3412C61.3829 13.7244 61.3829 13.1075 61.2287 12.4907C61.2287 11.7197 60.766 11.2571 60.1491 10.9486C59.6864 10.7944 59.0695 10.7944 58.6068 10.6402C58.2984 10.6402 57.8357 10.6402 57.373 10.6402C57.2188 10.6402 57.0645 10.7944 57.0645 10.9486C57.0645 11.1029 57.0645 11.2571 57.0645 11.4113C57.0645 15.5748 57.0645 19.8926 57.0645 24.0562C57.0645 24.5188 57.0645 24.673 56.4476 24.673C55.0596 24.673 53.8258 24.673 52.4377 24.673C51.975 24.673 51.8208 24.5188 51.8208 24.0562C51.975 21.2805 51.975 18.5048 51.975 15.729Z" fill="#999999"/>
<path id="Vector_6" d="M131.556 14.8038C131.094 14.8038 130.631 14.958 130.168 14.958C129.089 14.958 128.163 14.958 127.084 14.958C126.621 14.958 126.467 14.8038 126.467 14.3412C126.467 13.5702 126.467 12.7991 126.313 12.0281C126.159 11.4113 125.696 10.9486 125.079 10.7944C124.308 10.6402 123.537 10.6402 122.611 10.6402C122.303 10.6402 122.303 10.7944 122.303 10.9486C122.303 15.2664 122.303 19.5842 122.303 23.902C122.303 24.5188 122.303 24.673 121.532 24.673C120.298 24.673 118.91 24.673 117.676 24.673C117.213 24.673 117.059 24.5188 117.059 24.0562C117.059 18.5048 117.059 12.7991 117.059 7.24769C117.059 6.63086 117.213 6.63086 117.676 6.63086C119.989 6.63086 122.149 6.63086 124.462 6.63086C125.387 6.63086 126.467 6.63087 127.392 6.78508C128.78 7.09349 130.014 7.5561 130.631 8.94396C130.785 9.25237 130.94 9.56079 130.94 9.86921C131.094 10.486 131.248 11.2571 131.248 11.8739C131.556 12.7991 131.556 13.7244 131.556 14.8038Z" fill="#999999"/>
<path id="Vector_7" d="M91.3028 15.7291C91.3028 18.5048 91.3028 21.2806 91.3028 24.2105C91.3028 24.6731 91.1485 24.8273 90.6858 24.8273C89.2978 24.8273 87.9097 24.8273 86.5217 24.8273C86.059 24.8273 85.9048 24.6731 85.9048 24.2105C85.9048 18.6591 85.9048 12.9534 85.9048 7.40197C85.9048 6.93935 86.059 6.78516 86.5217 6.78516C87.7555 6.78516 89.1436 6.78516 90.3774 6.78516C90.9943 6.78516 91.1485 6.93936 91.1485 7.55619C91.3028 10.0235 91.3028 12.7992 91.3028 15.7291Z" fill="#999999"/>
<path id="Vector_8" d="M63.2334 34.8507C63.2334 35.0049 63.2334 35.1591 63.2334 35.3133C63.2334 36.7012 63.2334 37.9348 63.2334 39.3227C63.2334 39.7853 63.0792 39.7853 62.7707 39.7853C62.308 39.7853 61.9996 39.7853 61.5369 39.7853C61.2285 39.7853 61.0742 39.6311 61.0742 39.3227C61.0742 36.8554 61.0742 34.2339 61.0742 31.7666C61.0742 31.4582 61.2285 31.304 61.5369 31.304C62.308 31.304 62.925 31.304 63.6961 31.304C64.0045 31.304 64.1588 31.4582 64.1588 31.7666C64.313 32.5376 64.6215 33.3086 64.7757 33.9255C65.0841 34.8507 65.3926 35.7759 65.5468 36.7012C65.5468 36.8554 65.5468 36.8554 65.5468 37.0096L65.7011 37.1638C65.7011 37.1638 65.8553 37.1638 65.8553 37.0096C66.1637 35.9302 66.4722 34.8507 66.9349 33.9255C67.2433 33.1544 67.3976 32.3834 67.706 31.7666C67.706 31.6124 68.0145 31.4582 68.0145 31.4582C68.6314 31.4582 69.4025 31.4582 70.0194 31.4582C70.4821 31.4582 70.6363 31.6124 70.6363 32.075C70.6363 34.3881 70.6363 36.8554 70.6363 39.1685C70.6363 39.6311 70.6363 39.7853 70.0194 39.7853C69.711 39.7853 69.2483 39.7853 68.9398 39.7853C68.6314 39.7853 68.4772 39.6311 68.4772 39.3227C68.4772 37.9348 68.4772 36.547 68.4772 35.1591C68.4772 35.0049 68.4772 35.0049 68.3229 34.8507C68.3229 35.0049 68.1687 35.1591 68.1687 35.3133C67.8602 36.0844 67.706 36.8554 67.3976 37.6264C67.2433 38.2433 66.9349 38.8601 66.7806 39.6311C66.6264 39.9395 66.4722 40.0937 66.1637 39.9395C65.7011 39.9395 65.2384 39.9395 64.7757 39.9395C64.6215 39.9395 64.4672 39.7853 64.313 39.6311C64.1588 39.1685 64.0046 38.7059 63.8503 38.2433C63.5419 37.1638 63.2334 36.2386 62.925 35.1591C63.3876 35.0049 63.3876 35.0049 63.2334 34.8507Z" fill="#999999"/>
<path id="Vector_9" d="M38.8651 37.318C38.8651 37.9348 38.8651 38.5516 38.8651 39.3227C38.8651 39.7853 38.8651 39.9395 38.2482 39.9395C37.0144 39.9395 35.9348 39.9395 34.701 39.9395C34.5468 39.9395 34.3925 39.9395 34.2383 39.9395C33.3129 39.9395 32.5418 39.6311 31.9249 38.86C30.9995 37.7806 30.9995 36.3927 30.9995 35.1591C30.9995 34.0796 31.4622 33.1544 32.0791 32.3834C32.5418 31.9207 33.1587 31.6123 33.7756 31.4581C35.1637 31.4581 36.5517 31.4581 37.7855 31.4581C38.8651 31.4581 38.8651 31.4581 38.8651 32.5376C38.8651 33.1544 38.7109 33.1544 38.2482 33.1544C37.1686 33.1544 36.089 33.1544 34.8552 33.1544C34.2383 33.1544 33.6214 33.617 33.4672 34.0796C33.3129 34.5423 33.3129 35.0049 33.3129 35.6217C33.3129 36.0843 33.4672 36.5469 33.4672 37.0096C33.6214 37.6264 34.0841 38.089 34.701 38.089C35.3179 38.089 35.9348 38.089 36.3975 38.089C36.5517 38.089 36.7059 37.9348 36.7059 37.7806C36.7059 37.4722 36.7059 37.1638 36.7059 36.7011C36.7059 36.3927 36.5517 36.3927 36.3975 36.3927C35.9348 36.3927 35.4721 36.3927 34.8552 36.3927C34.3925 36.3927 34.3925 36.2385 34.3925 35.9301C34.3925 35.7759 34.3925 35.4675 34.3925 35.3133C34.3925 34.6965 34.5468 34.6965 35.0094 34.6965C35.9348 34.6965 36.8602 34.6965 37.7855 34.6965C37.9398 34.6965 38.094 34.6965 38.2482 34.6965C38.7109 34.6965 38.7109 34.8507 38.7109 35.3133C38.8651 35.9301 38.8651 36.7011 38.8651 37.318Z" fill="#999999"/>
<path id="Vector_10" d="M94.5417 38.089C95.1587 38.089 95.7756 38.089 96.5467 38.089C96.7009 38.089 96.8552 38.089 97.1636 37.9348C97.4721 37.7806 97.6263 37.4722 97.6263 37.1638C97.6263 36.8554 97.1636 36.547 96.8552 36.3928C96.084 36.3928 95.3129 36.3928 94.5417 36.3928C93.9248 36.3928 93.3079 36.2386 92.691 35.7759C92.2283 35.4675 91.9199 35.0049 91.7656 34.3881C91.6114 33.1544 91.9199 32.075 93.1537 31.4582C93.3079 31.4582 93.4622 31.304 93.6164 31.304C95.3129 31.304 97.0094 31.304 98.7059 31.304C99.1686 31.304 99.1686 31.4582 99.1686 31.7666C99.1686 31.9208 99.1686 32.075 99.1686 32.3834C99.1686 32.846 99.0144 33.0002 98.5517 33.0002C97.3179 33.0002 96.084 33.0002 94.8502 33.0002C94.696 33.0002 94.5418 33.0002 94.3875 33.0002C94.0791 33.0002 93.9248 33.3086 93.9248 33.6171C93.9248 34.0797 94.0791 34.2339 94.3875 34.3881C94.8502 34.3881 95.1587 34.5423 95.6213 34.5423C96.3925 34.5423 97.0094 34.5423 97.7805 34.6965C98.5517 34.8507 99.0144 35.3133 99.3228 36.0844C99.7855 37.0096 99.6313 37.9348 99.0144 38.8601C98.5517 39.4769 98.089 39.9395 97.3178 39.7853C96.5467 39.7853 95.7756 39.7853 94.8502 39.7853C94.0791 39.7853 93.1537 39.7853 92.3826 39.7853C91.9199 39.7853 91.9199 39.7853 91.9199 39.3227C91.9199 39.1685 91.9199 38.8601 91.9199 38.7059C91.9199 38.2433 92.0741 38.089 92.5368 38.089C93.3079 38.089 93.9248 38.089 94.5417 38.089Z" fill="#999999"/>
<path id="Vector_11" d="M53.2088 39.7853C53.0546 39.7853 52.7461 39.7853 52.5919 39.7853C52.2835 39.7853 51.975 39.6311 51.8208 39.3227C51.6666 39.0143 51.5123 38.7059 51.3581 38.2433C51.3581 38.089 51.2039 37.9348 50.8954 37.9348C50.1243 37.9348 49.1989 37.9348 48.4278 37.9348C48.2735 37.9348 48.1193 38.089 48.1193 38.2433C47.9651 38.5517 47.8109 39.0143 47.6566 39.4769C47.5024 39.7853 47.3482 39.7853 47.0397 39.7853C46.577 39.7853 46.1144 39.7853 45.6517 39.7853C45.189 39.7853 45.189 39.6311 45.3432 39.1685C45.8059 38.2433 46.1144 37.318 46.577 36.2386C46.8855 35.4675 47.3482 34.5423 47.6566 33.7713C47.9651 33.1544 48.1193 32.5376 48.4278 31.9208C48.582 31.4582 48.7362 31.304 49.1989 31.304C49.6616 31.304 49.9701 31.304 50.4327 31.304C51.0496 31.304 51.0496 31.4582 51.3581 31.9208C51.8208 32.846 52.1292 33.7713 52.5919 34.8507C53.0546 35.9302 53.5173 37.0096 53.98 38.2433C54.1342 38.5517 54.2884 38.8601 54.4427 39.3227C54.5969 39.6311 54.5969 39.7853 54.1342 39.7853C53.8257 39.7853 53.5173 39.7853 53.2088 39.7853ZM50.7412 36.2386C50.7412 36.0844 50.7412 36.0844 50.7412 36.0844C50.4327 35.4675 50.2785 34.8507 49.9701 34.2339L49.8158 34.0797L49.6616 34.2339C49.3531 34.8507 49.1989 35.4675 48.8905 36.0844L49.0447 36.3928C49.6616 36.2386 50.2785 36.2386 50.7412 36.2386Z" fill="#999999"/>
<path id="Vector_12" d="M82.5116 31.4581C83.1285 31.4581 83.7455 31.4581 84.3624 31.4581C84.8251 31.4581 84.9793 31.6123 84.9793 32.0749C84.9793 32.2292 84.9793 32.5376 84.9793 32.6918C84.9793 33.1544 84.8251 33.1544 84.5166 33.1544C83.7455 33.1544 82.8201 33.1544 82.049 33.1544C81.432 33.1544 80.9694 33.3086 80.6609 33.9254C80.5067 34.0796 80.5067 34.3881 80.5067 34.6965C80.5067 35.0049 80.6609 34.8507 80.8151 34.8507C82.049 34.8507 83.1285 34.8507 84.3624 34.8507C84.5166 34.8507 84.5166 34.8507 84.6708 34.8507C84.9793 34.8507 85.1335 35.0049 85.1335 35.3133C85.1335 35.6217 85.1335 35.9301 85.1335 36.2385C85.1335 36.5469 84.9793 36.7011 84.6708 36.7011C84.2081 36.7011 83.8997 36.7011 83.437 36.7011C82.5116 36.7011 81.7405 36.7011 80.8151 36.7011C80.5067 36.7011 80.3524 36.7011 80.5067 37.1638C80.6609 37.9348 81.1236 38.2432 82.049 38.3974C82.8201 38.3974 83.5912 38.3974 84.3624 38.3974C84.9793 38.3974 84.9793 38.3974 84.9793 39.0142C84.9793 39.1684 84.9793 39.3227 84.9793 39.4769C84.9793 39.9395 84.9793 39.9395 84.5166 39.9395C83.7455 39.9395 82.8201 39.9395 82.049 39.9395C81.8947 39.9395 81.8947 39.9395 81.7405 39.9395C80.5067 40.0937 79.4271 39.4769 78.6559 38.3974C78.039 37.318 77.8848 36.0843 78.039 34.8507C78.1933 33.7712 78.6559 32.846 79.5813 32.0749C79.8898 31.7665 80.3524 31.6123 80.8151 31.6123C81.432 31.6123 81.8947 31.4581 82.5116 31.4581Z" fill="#999999"/>
<path id="Vector_13" d="M88.681 5.08881C88.064 5.08881 87.2929 5.08881 86.676 5.08881C86.2133 5.08881 86.0591 4.93461 86.0591 4.47199C86.0591 3.23834 86.0591 2.00469 86.0591 0.616829C86.0591 0.154209 86.2133 0 86.676 0C88.064 0 89.2979 0 90.6859 0C91.3028 0 91.3028 0.154209 91.3028 0.616829C91.3028 1.85048 91.3028 3.23834 91.3028 4.47199C91.3028 4.93461 91.1486 5.08881 90.6859 5.08881C90.069 5.08881 89.4521 5.08881 88.681 5.08881Z" fill="#999999"/>
</g>
</g>
</svg>
