<svg width="75" height="40" viewBox="0 0 75 40" fill="none" xmlns="http://www.w3.org/2000/svg">
<path d="M35.8755 6.36351C36.5648 5.14155 37.2384 3.95875 37.9121 2.75246C37.2698 2.03965 37.1993 1.4835 37.7084 1.01352C38.1392 0.621864 38.7972 0.645362 39.1889 1.06052C39.6667 1.56967 39.557 2.14148 38.8991 2.75246C39.5805 3.95875 40.2542 5.15721 40.9591 6.39484C41.0296 6.34784 41.1315 6.28518 41.2333 6.20685C43.4422 4.53057 45.8313 4.24858 48.3771 5.33738C48.5729 5.42354 48.7139 5.5097 48.9176 5.29038C49.3719 4.81256 50.069 4.85956 50.4685 5.34521C50.868 5.83086 50.7583 6.54367 50.2413 6.88833C49.7165 7.23298 49.0664 7.06849 48.7374 6.49667C48.6982 6.42617 48.6591 6.36351 48.6042 6.25385C48.4711 6.30868 48.3457 6.35568 48.2204 6.41834C46.9985 7.01365 46.035 7.92229 45.1812 8.94842C44.6407 9.59857 44.0924 10.2487 43.5206 10.8675C43.3796 11.0164 43.2934 11.1417 42.9253 11.1417C39.8234 11.1574 36.7215 11.1574 33.6117 11.1417C33.2279 11.1417 33.1887 11.0085 33.0712 10.8597C32.5778 10.2174 32.1313 9.54374 31.6456 8.90143C30.8153 7.80479 29.7813 6.94316 28.5359 6.34001C28.4654 6.30868 28.3949 6.29301 28.3009 6.26168C28.2382 6.37134 28.1834 6.47317 28.1207 6.56717C27.7839 7.09198 27.1181 7.21731 26.6168 6.86483C26.1311 6.52017 26.0371 5.84653 26.4053 5.37654C26.7891 4.88306 27.4471 4.81256 27.9249 5.24338C28.0894 5.39221 28.1991 5.49404 28.4497 5.37654C31.0425 4.21725 33.4707 4.52274 35.7267 6.25385C35.7815 6.30084 35.8285 6.33218 35.8755 6.36351Z" fill="#999999"/>
<path d="M38.4524 12.9586C36.7604 12.9586 35.0685 12.9586 33.3687 12.9586C32.8752 12.9586 32.7969 12.9116 32.7969 12.426C32.7969 12.3477 32.7969 12.2693 32.7969 12.191C32.7969 11.6192 32.883 11.6035 33.4079 11.6035C36.7839 11.6035 40.1521 11.6035 43.5282 11.6035C44.0295 11.6035 44.0843 11.6662 44.0922 12.1675C44.0922 12.0657 44.0922 12.4103 44.0922 12.4808C44.0922 12.8333 43.959 12.9665 43.6065 12.9586C41.8911 12.9586 40.1756 12.9586 38.4524 12.9586Z" fill="#999999"/>
<path d="M48.6892 26.3766C48.6892 25.5463 48.6265 24.716 48.7049 23.9091C48.8302 22.6324 49.2453 21.4417 50.201 20.5096C51.0235 19.7106 52.0183 19.5226 53.0914 19.7811C53.4125 19.8594 53.8042 20.2668 54.0705 20.4783V19.7968C54.9948 19.7968 55.9348 19.7968 56.8904 19.7968C56.8904 19.7968 56.8904 20.1258 56.8904 20.2903C56.8904 22.2564 56.8904 24.2225 56.8904 26.1964C56.8904 26.3139 56.8904 26.4314 56.8904 26.5489C56.9139 27.2774 57.1568 27.5437 57.7991 27.5437C58.4335 27.5437 58.9505 27.0659 58.9505 26.4627C58.9584 24.8726 58.9505 23.2825 58.9505 21.6924C58.9505 21.0736 58.9505 20.4469 58.9505 19.7968C59.9218 19.7968 60.8226 19.7968 61.7861 19.7968C61.7861 20.1179 61.7861 20.4313 61.7861 20.8464C62.0681 20.5879 62.2718 20.3921 62.4833 20.2119C63.6425 19.2641 65.0212 19.6245 65.4363 20.9874C65.734 21.9587 65.0447 22.7577 64.0577 22.5305C63.8227 22.4757 63.5799 22.2172 63.4546 21.99C63.3214 21.7629 63.3136 21.5436 63.1961 21.4496C62.9376 21.2302 62.5772 21.3869 62.1308 21.7942C62.0289 21.8882 61.9114 21.9744 61.8018 22.0605C61.8018 24.4966 61.8018 26.8935 61.8018 29.3296C60.854 29.3296 59.9375 29.3296 58.974 29.3296C58.9584 29.126 58.9427 28.9066 58.9192 28.6168C58.2142 29.3218 57.3761 29.5568 56.4518 29.4941C55.4491 29.4315 54.7912 28.8831 54.4622 27.8492C53.8277 29.032 52.9269 29.6351 51.6344 29.4706C50.4046 29.3218 49.5665 28.6168 49.026 27.4654C48.9242 27.5829 48.8537 27.669 48.7832 27.7552C47.8119 29.0006 46.5038 29.596 44.9607 29.643C44.2948 29.6665 43.5977 29.6195 42.9554 29.4471C41.1616 28.9536 40.1825 27.6299 39.7047 25.9144C39.3052 24.4888 39.2347 23.024 39.3522 21.5436C39.4697 20.1023 39.6968 18.7001 40.4018 17.4234C41.0363 16.2797 41.9136 15.4024 43.2452 15.1048C44.2948 14.8698 45.321 14.9559 46.3079 15.3789C47.5534 15.9194 48.1957 17.0709 48.0391 18.4025C47.9529 19.1545 47.4516 19.5305 46.6918 19.3425C46.3706 19.2641 46.0651 19.0918 45.697 18.943C46.1199 18.4338 46.3001 17.9403 46.2688 17.3842C46.2375 16.7889 46.0025 16.3189 45.4541 16.0682C44.945 15.8332 44.381 16.0056 43.9424 16.4912C43.3079 17.204 43.0259 18.0892 42.8457 19.0056C42.4462 21.0266 42.3679 23.0553 42.7987 25.0841C42.8536 25.3269 42.9397 25.5541 43.0181 25.7891C43.7074 27.7787 45.3601 28.1703 47.0834 27.5907C47.7414 27.4027 48.2662 26.964 48.6892 26.3766ZM54.0157 23.9875C54.0235 23.2825 54.0157 22.5775 54.0235 21.8725C54.0314 21.4731 53.859 21.1754 53.4987 21.0422C53.1384 20.9012 52.7546 20.9326 52.4961 21.2537C52.2768 21.5201 52.0418 21.8177 51.9556 22.1389C51.7519 22.8752 51.5796 23.6272 51.5091 24.387C51.4229 25.2251 51.4621 26.0789 51.8068 26.8857C51.9478 27.2225 52.1514 27.4889 52.5666 27.528C53.3734 27.6142 53.9844 27.0815 54.0079 26.2199C54.0314 25.4758 54.0157 24.7316 54.0157 23.9875Z" fill="#999999"/>
<path d="M39.2973 27.5671C39.1485 28.2329 39.1328 28.9457 38.4748 29.3374C37.8717 29.6977 36.7437 29.5645 36.2346 29.0554C35.8821 28.8047 35.6471 28.3347 35.4826 27.8412C35.0126 28.883 34.1196 29.5802 32.9212 29.5175C31.7932 29.4549 30.9081 28.9379 30.2893 27.9117C29.7018 28.9535 28.8401 29.4862 27.6965 29.5175C26.592 29.5489 25.6129 29.2747 25.1508 28.0684C25.0803 28.1467 25.0333 28.1859 25.0019 28.2329C24.156 29.5097 22.5893 29.7603 21.3204 29.3374C20.4666 29.0554 20.0984 28.3661 19.9104 27.5514C19.8399 27.2538 19.8164 26.9326 19.8164 26.6271C19.8086 24.5043 19.8086 22.3816 19.8086 20.2588C19.8086 20.1178 19.8086 19.9768 19.8086 19.8123C20.7564 19.8123 21.665 19.8123 22.6128 19.8123C22.6285 19.9925 22.652 20.1727 22.652 20.345C22.652 22.2484 22.652 24.1519 22.652 26.0553C22.652 26.2355 22.652 26.4235 22.6598 26.6036C22.6755 26.9718 22.6912 27.3556 23.122 27.5044C23.592 27.6689 24.1325 27.5201 24.4301 27.1441C24.7669 26.7211 24.8844 26.2198 24.8844 25.6793C24.8688 22.3424 24.8609 19.0055 24.8453 15.6765C24.8453 15.4728 24.8688 15.2692 24.8844 15.042C25.8479 15.042 26.7722 15.042 27.7278 15.042C27.7435 15.2143 27.7592 15.371 27.7592 15.5198C27.7513 18.9977 27.7435 22.4756 27.7357 25.9535C27.7357 26.2668 27.7357 26.5801 27.767 26.8934C27.8062 27.3086 28.002 27.4888 28.4171 27.5358C29.3101 27.6454 29.8428 27.0579 29.7253 26.1806C29.5216 24.614 29.6704 23.0866 30.3911 21.6609C30.8846 20.6975 31.5895 19.9298 32.7175 19.7497C33.5478 19.6165 34.4016 19.7653 35.0909 20.5408C35.0909 18.7784 35.0909 16.8436 35.0909 15.0577C36.0622 15.0577 36.9552 15.0577 37.8873 15.0577C37.903 15.23 37.9265 15.3945 37.9265 15.559C37.9265 19.076 37.9265 22.5931 37.9265 26.1101C37.9265 26.212 37.9265 26.3216 37.9265 26.4235C37.9343 27.3869 38.1223 27.5671 39.0701 27.5514C39.1406 27.5357 39.1876 27.5514 39.2973 27.5671ZM35.0753 24.0109C35.0753 23.3216 35.0753 22.6322 35.0753 21.9351C35.0753 21.4886 34.8794 21.1596 34.5348 21.0265C34.1666 20.8855 33.7123 20.9873 33.4538 21.3476C33.2423 21.6374 33.0622 21.9664 32.9368 22.3033C32.5373 23.3999 32.4903 24.5435 32.5687 25.695C32.6 26.1258 32.7488 26.5566 32.8977 26.9718C33.0152 27.2851 33.258 27.4966 33.634 27.5358C34.4408 27.6141 35.0518 27.0658 35.0753 26.165C35.0909 25.4443 35.0753 24.7315 35.0753 24.0109Z" fill="#999999"/>
<path d="M15.4145 26.3218C16.0176 22.5932 16.6208 18.8725 17.2318 15.1205C17.7566 15.1205 18.2344 15.1205 18.7984 15.1205C17.9132 19.883 17.0281 24.6063 16.143 29.3453C15.156 29.3453 14.1925 29.3453 13.1664 29.3453C12.5632 26.267 11.9523 23.1729 11.3413 20.0788C11.3178 20.0788 11.3021 20.0788 11.2786 20.0788C10.6598 23.1651 10.041 26.2513 9.41435 29.3532C8.46654 29.3532 7.56574 29.3532 6.57094 29.3532C5.6858 25.0763 4.79283 20.776 3.89203 16.4286C2.7719 16.8986 2.16092 17.7054 1.98859 18.8177C1.82409 19.8752 1.85543 20.917 2.5604 21.8413C1.12695 21.9979 0.0773184 21.2068 0.00682067 19.9535C-0.0871763 18.1832 0.797962 16.9534 2.19225 16.0291C3.39071 15.238 4.738 14.9325 6.17145 15.003C6.28895 15.0108 6.39861 15.0422 6.54744 15.0657C7.28375 18.8334 8.02006 22.5932 8.75637 26.3453C8.77203 26.3453 8.79553 26.3531 8.8112 26.3531C9.41435 22.6167 10.0253 18.8804 10.6363 15.1205C11.4823 15.1205 12.2813 15.1205 13.1429 15.1205C13.8792 18.8569 14.6155 22.5932 15.344 26.3296C15.3675 26.3296 15.391 26.3296 15.4145 26.3218Z" fill="#999999"/>
<path d="M74.9924 27.5592C75.0629 28.2407 74.6634 29.1337 74.2013 29.3609C73.559 29.682 72.4702 29.5488 71.961 29.0319C71.679 28.742 71.444 28.2564 71.2874 27.7864C71.2717 27.8099 71.1464 28.0762 71.1072 28.1389C69.9793 30.1755 67.316 29.7525 66.235 28.2016C65.7729 27.5358 65.5222 26.7759 65.4596 25.977C65.3421 24.5592 65.4517 23.1649 66.0705 21.8568C66.5719 20.7993 67.2768 19.9455 68.4988 19.7418C69.3291 19.6008 70.1829 19.5852 70.8331 20.4311C70.8331 19.4755 70.8331 18.5982 70.8331 17.7209C70.8331 16.8358 70.8331 15.9585 70.8331 15.042C71.8044 15.042 72.7522 15.042 73.7078 15.042C73.7078 15.042 73.7078 15.3788 73.7078 15.5433C73.7078 19.076 73.7 22.6087 73.7 26.1336C73.7 26.2276 73.7 26.3138 73.7 26.4078C73.7078 27.3713 73.9115 27.7394 74.8279 27.5827C74.8906 27.5749 74.9924 27.5592 74.9924 27.5592ZM70.8331 24.003C70.8409 24.003 70.8409 24.003 70.8331 24.003C70.8331 23.3137 70.8409 22.6244 70.8331 21.9273C70.8331 21.4964 70.6216 21.1518 70.2769 21.0265C69.9244 20.8933 69.4701 20.9951 69.2194 21.332C69.0001 21.6296 68.8121 21.9664 68.679 22.3189C68.2795 23.4156 68.2403 24.5592 68.3186 25.7106C68.35 26.1258 68.491 26.5488 68.632 26.9483C68.7416 27.2616 68.9766 27.4888 69.3526 27.5279C70.1829 27.6219 70.7939 27.0658 70.8174 26.1493C70.8487 25.4365 70.8331 24.7158 70.8331 24.003Z" fill="#999999"/>
<path d="M36.7136 32.3843C37.0974 32.3843 37.4029 32.3843 37.7711 32.3843C38.1471 34.0841 38.9147 37.6873 38.9147 37.6873C38.9147 37.6873 39.7058 34.1076 40.0897 32.3843C40.4265 32.3843 40.732 32.3843 41.1158 32.3843L41.202 39.2304C40.8965 39.2304 40.6928 39.2304 40.3795 39.2304C40.3795 37.7343 40.3795 35.9327 40.3795 34.4444C40.3795 34.4444 39.5962 37.7186 39.2358 39.2304H38.6249C38.2802 37.7656 37.5439 34.4365 37.5126 34.4444C37.5126 35.8778 37.5126 37.7656 37.5126 39.2304C37.1914 39.2304 36.8624 39.2304 36.6353 39.2304C36.6274 36.951 36.7136 34.6715 36.7136 32.3843Z" fill="#999999"/>
<path d="M31.5744 34.5937C31.1984 34.5937 30.9164 34.5937 30.5875 34.5937C30.5718 34.3195 30.5483 34.0611 30.5326 33.8026C30.5091 33.4266 30.3368 33.1837 29.953 33.1289C29.4517 33.0584 29.1462 33.2151 29.013 33.6146C28.9738 33.7399 28.9425 33.8652 28.9425 33.9984C28.9347 35.1734 28.919 36.3405 28.9582 37.5154C28.966 37.7974 29.107 38.1499 29.3107 38.3301C29.7258 38.6904 30.3916 38.4632 30.5326 37.9228C30.6423 37.5076 30.6423 37.0376 30.6423 36.5598H29.8276C29.8276 36.3091 29.8276 36.0663 29.8276 35.8C30.4151 35.8 30.9791 35.8 31.5744 35.8C31.5744 36.9358 31.5744 38.0794 31.5744 39.2309C31.3786 39.2309 31.1358 39.2309 30.9164 39.2309V38.5102C30.9008 38.5494 30.8146 38.6826 30.8146 38.6826C30.3838 39.3875 29.7415 39.4032 29.0757 39.2466C28.355 39.0742 27.9869 38.5181 27.9634 37.8523C27.9085 36.4658 27.8772 35.0715 27.9712 33.6851C28.0495 32.6041 29.0287 32.0715 30.2271 32.3143C31.0339 32.4788 31.4569 32.9566 31.5274 33.7947C31.5509 34.0532 31.5588 34.3039 31.5744 34.5937Z" fill="#999999"/>
<path d="M33.1022 39.2147C32.781 39.2147 32.499 39.2147 32.123 39.2147C32.6087 36.9196 33.0865 34.6637 33.5722 32.3843C33.9247 32.3843 34.2301 32.3843 34.5905 32.3843C35.0761 34.648 35.5539 36.9118 36.0553 39.2304C35.8203 39.2304 35.6714 39.2304 35.5148 39.2304C35.3738 39.2304 35.2328 39.2304 35.0605 39.2304C34.9508 38.6507 34.8411 38.1103 34.7315 37.5384C34.3085 37.5384 33.8933 37.5384 33.4547 37.5384C33.3293 38.0946 33.2197 38.6507 33.1022 39.2147ZM34.0892 33.9196C33.9403 34.742 33.7523 35.8778 33.5957 36.7316C33.9403 36.7316 34.238 36.7316 34.5826 36.7316C34.426 35.8778 34.0892 33.9196 34.0892 33.9196Z" fill="#999999"/>
<path d="M45.3047 37.2645C45.712 37.1626 45.9862 37.0921 46.276 37.0216C46.3543 37.3428 46.4013 37.6248 46.4953 37.8911C46.605 38.2044 46.8008 38.4394 47.169 38.4629C47.8348 38.5021 48.0698 38.0399 47.8504 37.2488C47.7956 37.053 47.6311 36.865 47.4745 36.7162C47.0201 36.2853 46.5501 35.8702 46.0802 35.455C45.5162 34.9537 45.3204 34.3192 45.4222 33.5908C45.5318 32.8466 46.0488 32.3688 46.7773 32.2983C47.7016 32.2043 48.3204 32.5098 48.6024 33.2304C48.7042 33.4889 48.7591 33.7709 48.8452 34.0999C48.5241 34.1861 48.2499 34.2644 47.9444 34.3506C47.8896 34.1077 47.8661 33.9119 47.8113 33.7318C47.7173 33.4184 47.5528 33.1599 47.1768 33.1286C46.8713 33.1051 46.5971 33.1443 46.4327 33.4341C46.2838 33.6926 46.3543 34.2566 46.5971 34.4994C47.0045 34.8989 47.4431 35.2749 47.8661 35.6587C48.4771 36.207 48.9392 36.818 48.9001 37.7031C48.8687 38.5021 48.4771 39.0582 47.7329 39.2619C46.9418 39.4812 46.0958 39.2071 45.7433 38.5569C45.5553 38.1731 45.4692 37.7423 45.3047 37.2645Z" fill="#999999"/>
<path d="M43.1274 33.1289C43.1274 33.873 43.1274 34.6015 43.1274 35.3143H44.5687C44.5687 35.5806 44.5687 35.7921 44.5687 36.0741C44.1378 36.0741 43.5895 36.0741 43.143 36.0741C43.143 36.8888 43.143 37.6486 43.143 38.4632C43.6757 38.4632 44.3415 38.4632 44.8898 38.4632C44.8898 38.7374 44.8898 38.9489 44.8898 39.1995C44.0047 39.1995 43.1274 39.1995 42.2266 39.1995C42.2266 36.9436 42.2266 34.6798 42.2266 32.3926C43.1039 32.3926 43.9812 32.3926 44.8898 32.3926C44.8898 32.6276 44.8898 32.8547 44.8898 33.1289C44.3493 33.1289 43.6992 33.1289 43.1274 33.1289Z" fill="#999999"/>
<path d="M21.1242 18.826C20.2625 18.826 19.5889 18.1524 19.5811 17.2986C19.5811 16.4448 20.286 15.7163 21.132 15.7163C22.0015 15.7163 22.7065 16.4291 22.6986 17.3143C22.6986 18.1994 22.0328 18.8339 21.1242 18.826Z" fill="#999999"/>
</svg>
