<svg width="81" height="27" viewBox="0 0 81 27" fill="none" xmlns="http://www.w3.org/2000/svg">
<path d="M19.4961 25.7799H25.9521L32.5179 6.55591H25.8126L19.4961 25.7799Z" fill="black"/>
<path d="M19.4959 6.55591H13.1094L16.3024 16.2742L19.4959 6.55591Z" fill="#991BB0"/>
<path d="M9.9341 16.1157L6.72326 25.7806L-0.000976562 6.55664H6.79322L9.9341 16.1157Z" fill="#1ACB56"/>
<path d="M22.6888 16.1679L19.4958 25.7799L16.3027 16.2742L19.4958 6.55591L22.6888 16.1679Z" fill="#004CFF"/>
<path d="M6.72266 25.7799H13.1787L16.3022 16.2742L13.1087 6.55591L6.72266 25.7799Z" fill="#FF1755"/>
<path d="M47.2572 6.55591V17.0108C47.2572 18.748 45.8184 20.1563 44.0441 20.1563C42.2698 20.1563 40.8309 18.748 40.8309 17.0108V6.55591H34.5654V17.0108C34.5654 22.1354 38.8093 26.2896 44.0445 26.2896C49.2789 26.2896 53.5227 22.1354 53.5227 17.0108V6.55591H47.2572Z" fill="black"/>
<path d="M68.167 6.02735C66.2822 6.02735 64.594 6.8521 63.4292 8.15489V6.55643H57.2959V25.7804H63.4292V14.8544C63.4292 13.7792 64.06 12.7903 65.0513 12.3736C65.7307 12.088 66.4762 11.9292 67.2607 11.9292C68.4445 11.9292 69.544 12.2859 70.4615 12.8954L70.9133 6.6577C70.0812 6.25769 69.1521 6.02734 68.167 6.02734" fill="black"/>
<path d="M80.3003 0H74.167V25.7805H80.3003V0Z" fill="black"/>
</svg>
