<svg width="86" height="32" viewBox="0 0 86 32" fill="none" xmlns="http://www.w3.org/2000/svg">
<path d="M69.0866 18.7521L70.4802 18.4355C70.5093 18.429 70.5586 18.418 70.6168 18.3993C71.0018 18.2979 71.3316 18.0538 71.5369 17.7183C71.7421 17.3828 71.8068 16.9822 71.7172 16.6009L71.7116 16.5767C71.6655 16.394 71.585 16.2213 71.4743 16.0677C71.3182 15.8732 71.1251 15.7104 70.9056 15.5884C70.6472 15.4439 70.3769 15.321 70.0974 15.2213L68.5694 14.6727C67.7119 14.3595 66.8544 14.055 65.988 13.7571C65.4272 13.5614 64.9514 13.3888 64.5383 13.2624C64.4597 13.241 64.3817 13.2176 64.3044 13.192C63.8051 13.0425 63.4536 12.9799 63.157 12.9777C62.9587 12.9704 62.7612 13.0057 62.5782 13.081C62.3871 13.1623 62.2154 13.2821 62.0745 13.4328C62.0046 13.5107 61.9388 13.5922 61.8775 13.6768C61.7582 13.8567 61.6598 14.0492 61.5842 14.2506C61.3003 15.074 61.1588 15.9383 61.1655 16.8075C61.1711 17.5924 61.1924 18.6004 61.6323 19.2842C61.7387 19.4601 61.8808 19.6118 62.0499 19.7294C62.3633 19.9415 62.679 19.9701 63.0092 19.9932C63.5017 20.0273 63.9775 19.9097 64.4533 19.8008L69.0832 18.751L69.0866 18.7521ZM84.6353 11.4871C84.2549 10.7029 83.7433 9.98687 83.1219 9.36876C83.0416 9.29015 82.9555 9.21741 82.8644 9.15111C82.7802 9.08911 82.6928 9.0315 82.6025 8.97852C82.5095 8.92849 82.4138 8.88335 82.3159 8.84331C82.1226 8.76869 81.9155 8.73498 81.7081 8.74438C81.5099 8.75537 81.3163 8.81033 81.1405 8.90157C80.8752 9.03129 80.5875 9.24015 80.2047 9.58862C80.1521 9.64028 80.086 9.69855 80.0256 9.75351C79.711 10.0448 79.3595 10.4043 78.942 10.822C78.2961 11.4629 77.6613 12.107 77.0289 12.7567L75.8983 13.9088C75.6918 14.1189 75.5038 14.3458 75.3363 14.587C75.1929 14.7911 75.0914 15.0208 75.0374 15.2631C75.0071 15.4492 75.0117 15.6392 75.0508 15.8237L75.0564 15.8479C75.1458 16.2288 75.3822 16.5609 75.7158 16.7741C76.0495 16.9874 76.4544 17.0651 76.8453 16.9911C76.8923 16.9846 76.939 16.9758 76.9852 16.9647L83.0099 15.5972C83.4857 15.4895 83.9671 15.3906 84.3936 15.1465C84.6801 14.9849 84.9521 14.8233 85.1391 14.498C85.2387 14.3187 85.2989 14.121 85.316 13.9175C85.4089 13.1107 84.9801 12.195 84.6353 11.4871ZM73.8497 13.9747C74.2863 13.4361 74.2863 12.6336 74.3243 11.9762C74.4564 9.78319 74.5941 7.59014 74.7049 5.396C74.7464 4.56495 74.837 3.7449 74.7867 2.90725C74.7452 2.21691 74.7408 1.42324 74.2964 0.856013C73.5128 -0.144323 71.8403 -0.0618771 70.6996 0.0942193C70.3478 0.141951 69.9985 0.206518 69.653 0.28769C69.306 0.369036 68.9612 0.458078 68.6254 0.564707C67.5306 0.916474 65.9913 1.56284 65.7316 2.80172C65.5839 3.50196 65.9331 4.21758 66.2018 4.85736C66.5298 5.63124 66.9764 6.32928 67.3839 7.0581C68.4619 8.98292 69.559 10.8968 70.6526 12.8117C70.9806 13.3833 71.3355 14.1066 71.968 14.4034C72.0105 14.421 72.053 14.4364 72.0967 14.4507C72.3799 14.5562 72.69 14.576 72.9844 14.509L73.037 14.498C73.3101 14.4243 73.5564 14.2781 73.7501 14.0769C73.7859 14.044 73.8184 14.011 73.8508 13.9747H73.8497ZM73.3269 19.8459C73.1565 19.6105 72.9147 19.4341 72.636 19.3419C72.3573 19.2497 72.0561 19.2464 71.7754 19.3326C71.7094 19.3539 71.645 19.38 71.5829 19.4106C71.4867 19.4588 71.3949 19.5151 71.3086 19.5788C71.0622 19.7695 70.842 19.9908 70.6537 20.2373C70.6056 20.2977 70.5608 20.378 70.5026 20.4307L69.5332 21.7389C68.9847 22.4732 68.4418 23.2086 67.9056 23.955C67.5541 24.4376 67.2518 24.8454 67.0111 25.2049C66.9664 25.273 66.9194 25.3478 66.8768 25.4093C66.5891 25.8446 66.4268 26.1634 66.3428 26.447C66.2801 26.6354 66.2603 26.8351 66.2846 27.0318C66.3115 27.2363 66.382 27.4331 66.4906 27.6101C66.5488 27.698 66.6115 27.7837 66.6787 27.8662C66.8237 28.0302 66.9871 28.1777 67.1656 28.3059C67.835 28.7632 68.5671 29.0919 69.3373 29.3458C69.9787 29.5547 70.6448 29.68 71.3187 29.7174C71.434 29.7229 71.5493 29.7207 71.6635 29.7108C71.7693 29.701 71.8747 29.6864 71.9791 29.6668C72.0837 29.6429 72.1868 29.6135 72.2881 29.5788C72.4851 29.5064 72.6643 29.394 72.8142 29.2491C72.9564 29.1095 73.0661 28.9413 73.1344 28.7555C73.2463 28.4807 73.3202 28.1333 73.3695 27.6167C73.3728 27.543 73.384 27.4551 73.3919 27.3748C73.4299 26.9461 73.4478 26.4404 73.4747 25.849C73.5228 24.9377 73.5598 24.0308 73.5889 23.1217L73.6516 21.5036C73.6661 21.1321 73.6538 20.7187 73.5486 20.3483C73.5023 20.1703 73.4275 20.0008 73.3269 19.8459ZM84.2671 22.3775C84.0656 22.1588 83.779 21.9422 83.3267 21.674C83.2618 21.6377 83.1846 21.5905 83.1141 21.5487C82.7379 21.3255 82.2846 21.0925 81.7551 20.81C80.9412 20.3703 80.1274 19.9437 79.3047 19.5194L77.8528 18.7631C77.7778 18.7411 77.7016 18.6884 77.63 18.6543C77.3508 18.5143 77.0543 18.4104 76.7479 18.3454C76.6423 18.3254 76.5352 18.3144 76.4277 18.3124C76.3581 18.3121 76.2886 18.3161 76.2195 18.3245C75.9289 18.3686 75.6598 18.5017 75.4507 18.7048C75.2417 18.9079 75.1033 19.1707 75.0553 19.4557C75.034 19.637 75.0408 19.8206 75.0766 19.9987C75.1471 20.3791 75.3195 20.7539 75.4986 21.0826L76.2733 22.5105C76.7054 23.3152 77.1419 24.1155 77.5897 24.9135C77.8785 25.4335 78.1192 25.8787 78.3442 26.2481C78.3867 26.3173 78.4349 26.3921 78.4718 26.4569C78.7461 26.8999 78.9655 27.1791 79.1882 27.3803C79.3366 27.5205 79.5147 27.6267 79.7098 27.6913C79.9049 27.7559 80.1121 27.7773 80.3166 27.7541C80.4231 27.7413 80.5289 27.723 80.6334 27.6991C80.8476 27.6428 81.0545 27.5628 81.2502 27.4606C81.8394 27.1362 82.3826 26.7371 82.8655 26.2733C83.4454 25.7127 83.9581 25.1015 84.3566 24.4024C84.4126 24.3035 84.4596 24.2012 84.4999 24.0946C84.5374 23.997 84.5699 23.8975 84.5973 23.7967C84.6208 23.6934 84.6387 23.59 84.651 23.4856C84.6711 23.2803 84.6471 23.0732 84.5805 22.8777C84.5148 22.69 84.4078 22.5189 84.2671 22.3764V22.3775Z" fill="#999999"/>
<path fill-rule="evenodd" clip-rule="evenodd" d="M34.2681 8.49428C34.2681 7.31806 35.2431 6.3573 36.4208 6.3573C37.5816 6.3573 38.5242 7.31806 38.5745 8.51187V25.1922C38.5745 26.3684 37.5984 27.3292 36.4208 27.3292C36.1361 27.3291 35.8544 27.2735 35.5917 27.1658C35.3291 27.0581 35.0908 26.9003 34.8906 26.7016C34.6904 26.5029 34.5323 26.2671 34.4255 26.0081C34.3187 25.749 34.2652 25.4717 34.2681 25.1922V8.49428ZM32.2655 18.7977C32.2487 19.1286 32.1647 19.742 31.7282 20.1894C31.2569 20.6698 30.6177 20.7852 30.2472 20.7852C28.7079 20.794 27.1687 20.7984 25.6295 20.8017C24.0903 20.8061 22.5511 20.8105 21.0119 20.8182C21.1462 21.2326 21.4149 21.8625 22.0205 22.4418C22.3899 22.7903 22.7437 22.9882 22.8959 23.0717C23.0806 23.1871 23.7198 23.5191 24.5101 23.5191C25.3519 23.5191 26.0919 23.2531 26.8161 22.8892L26.8755 22.8584C27.3792 22.6023 27.8975 22.3385 28.4471 22.2429C28.9844 22.1604 29.5576 22.2593 29.9774 22.6243C30.4822 23.0552 30.6848 23.684 30.499 24.3304C30.2807 25.0592 29.6583 25.6891 29.0024 26.0694C28.6269 26.2852 28.2329 26.468 27.8247 26.6158C26.7836 26.9785 25.6826 27.1474 24.5784 27.1137C24.3097 27.1137 24.0232 27.1137 23.7366 27.0807C23.4343 27.0478 23.1321 26.9807 22.8455 26.9148C22.3809 26.8158 21.9292 26.6657 21.4989 26.4674C21.0684 26.2799 20.6572 26.0524 20.2708 25.788C19.8855 25.5161 19.5255 25.2111 19.1951 24.8767C18.8665 24.5382 18.568 24.1726 18.3029 23.784C17.395 22.4253 16.9741 20.7522 17.0581 19.1286C17.1253 17.5391 17.6637 15.9484 18.6398 14.6568C18.7451 14.4941 18.8671 14.3567 18.9824 14.227C19.0328 14.1698 19.082 14.1149 19.1279 14.0599C20.3324 12.6132 21.9421 12.156 22.606 11.9669L22.6429 11.9559C23.9902 11.5802 25.4173 11.5802 26.7646 11.9559C27.0848 12.0394 28.8848 12.5858 30.2807 14.0599C30.3479 14.1258 30.5337 14.3413 30.7688 14.6568C31.3659 15.4552 31.8045 16.357 32.0617 17.3148L32.064 17.3236C32.1647 17.6875 32.2655 18.1844 32.2655 18.7966V18.7977ZM22.391 16.065C21.7268 16.5954 21.2645 17.3306 21.0791 18.1514H28.4135C28.2156 17.3313 27.7488 16.5978 27.0848 16.0639C26.416 15.5372 25.5868 15.2458 24.7295 15.2361C23.8768 15.2444 23.0521 15.5362 22.3899 16.0639L22.391 16.065ZM50.2826 11.6745C48.365 11.6745 46.6154 12.5198 45.3706 13.895V13.8444C45.3456 13.2922 45.1007 12.7717 44.6885 12.3951C44.2764 12.0185 43.7301 11.8161 43.1674 11.8314C42.6047 11.8466 42.0706 12.0785 41.6803 12.4768C41.29 12.8752 41.0748 13.4082 41.0809 13.961V29.8795C41.0796 30.1579 41.1344 30.4337 41.2421 30.6912C41.3498 30.9487 41.5083 31.1828 41.7085 31.3799C41.9086 31.577 42.1466 31.7332 42.4085 31.8396C42.6704 31.9461 42.9512 32.0006 43.2347 32C43.5181 32.0004 43.7988 31.9458 44.0606 31.8393C44.3224 31.7328 44.5602 31.5766 44.7602 31.3795C44.9603 31.1824 45.1187 30.9484 45.2263 30.691C45.334 30.4336 45.3887 30.1578 45.3874 29.8795V24.9097C46.6322 26.2684 48.365 27.1302 50.2994 27.1302C54.1524 27.1302 57.2812 23.7005 57.2812 19.4265C57.2644 15.1537 54.1357 11.6745 50.2826 11.6745ZM49.3412 23.6675C47.1538 23.6675 45.3706 21.7955 45.3706 19.4606C45.3706 17.1082 47.137 15.2361 49.3412 15.2361C51.5274 15.2361 53.3106 17.1082 53.3106 19.4606C53.2938 21.7955 51.5274 23.6675 49.3412 23.6675ZM13.8286 20.5368L13.1222 22.0615C12.8021 22.7232 12.4819 23.4026 12.1797 24.0819L11.8875 24.7195C10.5419 27.6568 8.94676 31.1436 5.46759 31.8835C3.78509 32.2484 1.24512 31.7515 0.302565 30.1939C-0.63887 28.6208 0.757051 26.8147 2.55708 27.2291C2.84142 27.2907 3.12016 27.427 3.40225 27.5655C3.87129 27.7964 4.34704 28.0283 4.86198 27.925C5.35005 27.8425 5.65229 27.4941 6.03961 27.0467C6.57694 26.4344 6.81313 25.788 6.91388 25.4066L6.88926 25.3494C6.88145 25.3297 6.87286 25.3102 6.86351 25.2911C6.42581 24.4887 6.04297 23.7719 5.72394 23.1728C5.54458 22.8345 5.3636 22.4971 5.18101 22.1604L4.44779 20.7929C3.91047 19.7926 3.82091 19.6277 3.5836 19.1957C3.06041 18.226 2.51058 17.2704 1.93469 16.3299C1.31229 15.3021 0.673095 14.1599 1.19475 12.9496C1.39082 12.481 1.759 12.1019 2.22632 11.8873C2.69365 11.6727 3.22602 11.6383 3.71793 11.791C4.80041 12.1131 5.28064 13.1255 5.72841 14.0709C5.81013 14.2424 5.88961 14.4117 5.97245 14.5732C6.69559 15.9814 7.40195 17.3896 8.10831 18.7977C8.171 18.9374 8.26503 19.1275 8.38145 19.3606C8.48443 19.5672 8.60421 19.808 8.73071 20.0729L8.91765 20.4554C8.99041 20.6049 9.05422 20.7325 9.10124 20.8347C9.42923 20.0322 9.7617 19.2331 10.093 18.4328C10.4255 17.6336 10.758 16.8344 11.086 16.0309C11.0949 15.9869 11.1733 15.8154 11.292 15.5571C11.3916 15.3383 11.5192 15.058 11.658 14.7392L11.8002 14.4018C12.2367 13.3575 12.7629 12.101 13.9293 11.758C14.3433 11.64 14.7845 11.6516 15.1915 11.791C15.5985 11.9305 15.9512 12.191 16.2006 12.5363C16.4525 12.8837 16.5532 13.2816 16.57 13.6795C16.5835 14.559 16.1514 15.5021 15.7797 16.3112C15.6902 16.5091 15.6029 16.6981 15.5279 16.8762L15.4831 16.973C15.3801 17.2005 15.1002 17.8161 14.6189 18.8307C14.4454 19.1935 14.2786 19.5584 14.1095 19.9267L13.8286 20.5368Z" fill="#999999"/>
</svg>
