<?xml version="1.0" encoding="utf-8"?>
<!-- Generator: Adobe Illustrator 19.2.1, SVG Export Plug-In . SVG Version: 6.00 Build 0)  -->
<svg version="1.1" id="layer" xmlns="http://www.w3.org/2000/svg" xmlns:xlink="http://www.w3.org/1999/xlink" x="0px" y="0px"
	 viewBox="0 0 652 652" style="enable-background:new 0 0 652 652;" xml:space="preserve">
<style type="text/css">
	.st0{fill-rule:evenodd;clip-rule:evenodd;fill:#EA8424;}
	.st1{fill-rule:evenodd;clip-rule:evenodd;fill:#586B30;}
	.st2{fill:#586B30;}
</style>
<g>
	<path class="st0" d="M401.9,168.7c-7.5,6.4-12.2,27,0.3,31.2C414.3,195.3,409.8,174.6,401.9,168.7"/>
	<path class="st0" d="M381.3,194c-2.1,12.9,4.5,26.1,19.4,25.9C401.9,203.6,393.9,196.5,381.3,194"/>
	<path class="st0" d="M422.6,194c-12.9,1.6-21.5,13-18.8,26.2C417.2,219,425,208.9,422.6,194"/>
	<path class="st0" d="M400.7,243.7c0.2-15.3-6.8-23.4-20.9-24.4C379.7,234,386.9,244.8,400.7,243.7"/>
	<path class="st0" d="M403.8,244c14,0.4,20.6-10.8,20.3-24.7h-0.6C410.1,220.5,402.3,228.9,403.8,244"/>
	<path class="st0" d="M376.3,244.6c2.8,13.1,9.1,22.7,24.4,23.4C403,252.1,392.5,243,376.3,244.6"/>
	<path class="st0" d="M403.8,268.3c14.4-1.4,21-10.7,24.1-23.4C412.5,242.6,400.2,251.7,403.8,268.3"/>
	<path class="st0" d="M376.3,269.3c3,12.8,9.5,21.9,24.1,23.1C403.5,276.3,392.1,266.5,376.3,269.3"/>
	<path class="st0" d="M403.5,292.4c14.9-1,21.2-10.6,24.4-23.4C411.7,267.3,400.9,275.4,403.5,292.4"/>
	<path class="st0" d="M402.2,199.9c-12.5-4.2-7.8-24.9-0.3-31.2C409.8,174.7,414.3,195.3,402.2,199.9"/>
	<path class="st0" d="M400.7,219.9c-14.9,0.2-21.5-13.1-19.4-25.9C393.9,196.5,401.8,203.6,400.7,219.9"/>
	<path class="st0" d="M403.8,220.2c-2.8-13.3,5.8-24.7,18.8-26.2C425,208.9,417.2,219,403.8,220.2"/>
	<path class="st0" d="M379.8,219.3c14.1,0.9,21.1,9.1,20.9,24.4C386.9,244.8,379.7,234,379.8,219.3"/>
	<path class="st0" d="M423.5,219.3h0.6c0.3,13.9-6.3,25.1-20.3,24.7C402.3,228.9,410.1,220.5,423.5,219.3"/>
	<path class="st0" d="M400.7,268c-15.2-0.7-21.6-10.3-24.4-23.4C392.5,243,403,252.1,400.7,268"/>
	<path class="st0" d="M427.9,244.9c-3.1,12.8-9.6,22-24.1,23.4C400.2,251.7,412.5,242.6,427.9,244.9"/>
	<path class="st0" d="M400.4,292.4c-14.5-1.2-21.1-10.4-24.1-23.1C392.1,266.5,403.5,276.3,400.4,292.4"/>
	<path class="st0" d="M427.9,269c-3.1,12.8-9.5,22.4-24.4,23.4C401,275.4,411.7,267.3,427.9,269"/>
	<path class="st0" d="M564.7,296.8c-23.9,0.1-43.1,18.7-41.2,44.4c1.6,21.9,16.9,36,37.8,37.5c10,0.7,18-1.2,25-4.4
		c2.8-1.3,11.8-5.4,12.8-8.8c1.4-4.6,0-11.5,0-16.9v-17.2h-34.4c-0.1,5.5-0.3,10.3,0,15.3h17.2c0.2,4.6,0.2,7.2,0,11.2
		c-4.6,3-9.7,4.9-16.9,4.7c-8.1-0.3-14.3-4.2-17.8-8.7c-10.8-13.8-4.1-39,14.7-40.9c10.8-1.1,17.7,3.5,23.4,7.8
		c3.6-4.5,7.6-8.7,10.9-13.4C588.2,300.2,578.2,296.7,564.7,296.8"/>
	<path class="st0" d="M393.5,298.7V402h17.2V297.7c-5,1.4-11.9,1.7-16.9,0C393.4,297.8,393.5,298.2,393.5,298.7"/>
	<path class="st0" d="M607.6,297.7c-0.5,0.5-0.2,1.8-0.3,2.8h5v12.8h2.8c0.2-4.2-0.4-9.2,0.3-12.8h4.7v-2.8H607.6"/>
	<path class="st0" d="M622.6,313.3h2.8V303c2,1.8,2.9,4.8,5,6.6c1.5-2.2,2.6-4.9,4.7-6.6c-0.3,2.4,0.3,7-0.3,10
		c0.6,0.6,2.1,0.2,3.1,0.3c-0.2-5.1,0.4-11-0.3-15.6h-2.8c-1.5,2.4-3,4.9-4.7,7.2c-1.3-2.6-3.1-4.6-4.4-7.2h-3.1V313.3"/>
	<path class="st0" d="M33.8,300.2v78.4h17.5c0.2-10.1-0.4-21,0.3-30.6h42.5v-16.3c-14.2-0.2-29.2,0.4-42.8-0.3v-15.9h47.8v-16.2h-65
		C33.8,299.3,33.8,299.8,33.8,300.2"/>
	<path class="st0" d="M120.4,300.2v78.4h65.3V363h-47.8c0.2-5.4-0.4-11.7,0.3-16.6h41.9v-15.6c-14-0.2-28.8,0.4-42.2-0.3
		c0.2-5.1-0.4-11,0.3-15.6c13.8,0.7,35.8,0.1,46.9,0.3v-15.9h-64.4C120.3,299.3,120.4,299.8,120.4,300.2"/>
	<path class="st0" d="M211.9,300.2v78.4h62.2V363c-14.8-0.2-30.4,0.4-44.7-0.3v-16.2h39.7v-15.6c-13.1-0.2-27.1,0.4-39.7-0.3
		c0.2-5.1-0.4-11,0.3-15.6c12.3,0.5,30.7,0.5,43.7,0v-15.6h-61.2C211.9,299.3,211.9,299.8,211.9,300.2"/>
	<path class="st0" d="M451,299.3h-15.6c-0.7,25.8-0.1,53-0.3,79.4h17.5c0.2-14-0.4-35.1,0.3-49.7c8.4,11.3,17.9,25.3,26.9,37.5
		c1.6,2.2,7,11.5,9.4,12.2c4.6,1.4,10.4-1.1,14.7,0v-79.4h-17.5c-0.5,16,0.2,32.9-0.3,48.1C474.1,331.6,463.3,314.7,451,299.3"/>
	<path class="st0" d="M596.3,307.4c-3.4,4.8-7.3,8.9-10.9,13.4c-5.8-4.3-12.7-8.9-23.4-7.8c-18.8,1.9-25.4,27.1-14.7,40.9
		c3.6,4.6,9.8,8.5,17.8,8.7c7.2,0.2,12.3-1.7,16.9-4.7c0.2-4.1,0.2-6.6,0-11.2h-17.2c-0.3-5-0.2-9.8,0-15.3h34.4v17.2
		c0,5.3,1.4,12.2,0,16.9c-1,3.3-10,7.5-12.8,8.8c-7,3.2-15,5.1-25,4.4c-20.9-1.5-36.2-15.6-37.8-37.5c-1.9-25.7,17.3-44.3,41.2-44.4
		C578.2,296.7,588.2,300.2,596.3,307.4"/>
	<path class="st0" d="M393.8,297.7c5,1.7,11.8,1.4,16.9,0V402h-17.2V298.7C393.5,298.2,393.4,297.8,393.8,297.7"/>
	<path class="st0" d="M620,297.7v2.8h-4.7c-0.7,3.6-0.1,8.6-0.3,12.8h-2.8v-12.8h-5c0.1-1-0.2-2.3,0.3-2.8H620"/>
	<path class="st0" d="M622.6,297.7h3.1c1.3,2.6,3.1,4.6,4.4,7.2c1.7-2.3,3.2-4.7,4.7-7.2h2.8c0.7,4.6,0.1,10.5,0.3,15.6
		c-1.1-0.1-2.5,0.2-3.1-0.3c0.6-3,0-7.6,0.3-10c-2,1.7-3.2,4.3-4.7,6.6c-2-1.8-3-4.7-5-6.6v10.3h-2.8V297.7"/>
	<path class="st0" d="M34.1,299.3h65v16.2H51.3v15.9c13.6,0.7,28.6,0.1,42.8,0.3V348H51.6c-0.7,9.6-0.1,20.5-0.3,30.6H33.8v-78.4
		C33.8,299.8,33.8,299.3,34.1,299.3"/>
	<path class="st0" d="M120.7,299.3h64.4v15.9c-11.1-0.2-33.1,0.4-46.9-0.3c-0.7,4.6-0.1,10.5-0.3,15.6c13.4,0.7,28.2,0.1,42.2,0.3
		v15.6h-41.9c-0.7,4.9-0.1,11.2-0.3,16.6h47.8v15.6h-65.3v-78.4C120.4,299.8,120.3,299.3,120.7,299.3"/>
	<path class="st0" d="M212.3,299.3h61.3v15.6c-13.1,0.5-31.5,0.5-43.8,0c-0.7,4.6-0.1,10.5-0.3,15.6c12.6,0.7,26.6,0.1,39.7,0.3
		v15.6h-39.7v16.3c14.3,0.7,29.9,0.1,44.7,0.3v15.6h-62.2v-78.4C211.9,299.8,211.9,299.3,212.3,299.3"/>
	<path class="st0" d="M486,347.4c0.5-15.2-0.1-32.1,0.3-48.1h17.5v79.4c-4.2-1.1-10.1,1.4-14.7,0c-2.3-0.7-7.8-10-9.4-12.2
		c-8.9-12.2-18.5-26.2-26.9-37.5c-0.7,14.6-0.1,35.7-0.3,49.7h-17.5c0.2-26.3-0.4-53.5,0.3-79.4H451
		C463.3,314.7,474.1,331.6,486,347.4"/>
	<path class="st0" d="M351.6,304c-13.3-6.6-32.2-4.5-52.5-4.7c-0.4,0.1-0.4,0.5-0.3,0.9v78.4c20.2-0.5,39.2,2.1,52.5-4.4
		c12.5-6.1,21.7-17.3,21.9-35C373.4,321.4,364.2,310.2,351.6,304 M342.2,360.5c-6.5,3-16.1,2-25.9,2.2v-46.6c0-0.4,0-0.9,0.3-0.9
		c15.9-1.1,28.6,0.5,34.7,10.3C359,337.9,353.4,355.3,342.2,360.5"/>
	<path class="st1" d="M573.5,400.5h-16.6c-12.4,26.2-24,53.3-36,80h18.1c2.5-6.1,4.8-12.3,7.8-17.8h36.6c2.5,5.9,5.2,11.7,7.5,17.8
		c5.9-0.2,12.7,0.4,18.1-0.3C597,453.8,585.4,427,573.5,400.5 M552.9,447.1c3.9-9,8.2-17.6,11.9-26.9c4.4,8.5,7.8,18,12.2,26.6
		C569.5,447.5,560.8,446.9,552.9,447.1"/>
	<path class="st1" d="M66.8,400.5H50.2c-12.4,26.2-24,53.3-35.9,80h18.1c2.5-6.1,4.8-12.3,7.8-17.8h36.6c2.5,5.9,5.2,11.7,7.5,17.8
		c5.9-0.2,12.7,0.4,18.1-0.3C90.3,453.8,78.7,427,66.8,400.5 M46.2,447.1c3.9-9,8.2-17.6,11.9-26.9c4.4,8.5,7.8,18,12.2,26.6
		C62.8,447.5,54.1,446.9,46.2,447.1"/>
	<path class="st1" d="M508.2,415.8c-1.8,2.1-3.6,3.5-5.9,5.9c-1.1,1.2-4.4,6.2-5.6,6.2c-1.3,0.1-4.3-4.2-5.3-5
		c-4-2.9-9.7-5.9-16.6-5.9c-14.5-0.1-23,11.1-23.1,24.4c-0.1,12.3,7.6,23.6,19.7,25c11.2,1.3,18.7-4.3,26.2-10.9
		c3.4,3.8,7.1,7.3,10.9,10.6c-7.3,8.4-15.2,14.6-27.2,16.3c-26.3,3.6-46.4-14.1-48.1-37.5c-1.7-23.4,15.1-42.3,37.5-44.1
		C489,399.4,500,406.5,508.2,415.8"/>
	<path class="st1" d="M154.1,434.9c7.2-10.7,13.7-22.1,20.9-32.8h18.7v79.4h-16.9v-50.9c-7.6,9.6-14.8,22.3-22.8,32.5
		c-8.1-10.3-14.8-22-22.8-32.5v50.9h-16.6c0.2-26.4-0.4-53.5,0.3-79.4h18.1c1.7,0.6,4.5,6,5.6,7.8
		C143.9,418.1,149.7,427.5,154.1,434.9"/>
	<path class="st1" d="M220.1,402.1h60.6V418h-43.1c-0.7,4.6-0.1,10.5-0.3,15.6c12.7,0.2,26.2-0.4,38.4,0.3v15.3
		c-12.1,0.7-25.5,0.1-38.1,0.3c-0.7,4.8-0.1,10.9-0.3,16.3h44.1v15.6h-61.6V403C219.7,402.6,219.7,402.1,220.1,402.1"/>
	<rect x="393.5" y="401.4" class="st2" width="17.2" height="80.1"/>
	<path class="st1" d="M353.2,453c11.2-4,18.1-13.6,16.6-28.7c-2.7-26.5-35-22.3-64.4-22.2c-0.7,25.8-0.1,53-0.3,79.4h17.8
		c0.2-8.3-0.4-17.5,0.3-25.3h11.2c4,5.7,8.9,12.7,13.1,19.1c1.3,1.9,3,5.7,4.7,6.3c5.7,1.8,12.6-1.4,19.7,0
		C366.7,472.2,358.9,462.8,353.2,453 M351,434.6c-3.8,7.8-16.3,5.7-28.1,5.9c0.2-7.4-0.4-15.6,0.3-22.5c9.3,0.3,21.4-1.4,26.2,3.7
		C351.9,424.5,353.2,430,351,434.6"/>
</g>
</svg>
